<?xml version="1.0" encoding="utf-8" standalone="no"?>
<!DOCTYPE svg PUBLIC "-//W3C//DTD SVG 1.1//EN"
  "http://www.w3.org/Graphics/SVG/1.1/DTD/svg11.dtd">
<svg xmlns:xlink="http://www.w3.org/1999/xlink" width="271.70696pt" height="211.269683pt" viewBox="0 0 271.70696 211.269683" xmlns="http://www.w3.org/2000/svg" version="1.1">
 <metadata>
  <rdf:RDF xmlns:dc="http://purl.org/dc/elements/1.1/" xmlns:cc="http://creativecommons.org/ns#" xmlns:rdf="http://www.w3.org/1999/02/22-rdf-syntax-ns#">
   <cc:Work>
    <dc:type rdf:resource="http://purl.org/dc/dcmitype/StillImage"/>
    <dc:date>2024-01-11T13:13:53.826419</dc:date>
    <dc:format>image/svg+xml</dc:format>
    <dc:creator>
     <cc:Agent>
      <dc:title>Matplotlib v3.7.0, https://matplotlib.org/</dc:title>
     </cc:Agent>
    </dc:creator>
   </cc:Work>
  </rdf:RDF>
 </metadata>
 <defs>
  <style type="text/css">*{stroke-linejoin: round; stroke-linecap: butt}</style>
 </defs>
 <g id="figure_1">
  <g id="patch_1">
   <path d="M 0 211.269683 
L 271.70696 211.269683 
L 271.70696 0 
L 0 0 
z
" style="fill: #ffffff"/>
  </g>
  <g id="axes_1">
   <g id="patch_2">
    <path d="M 45.737335 183.653353 
L 224.297335 183.653353 
L 224.297335 26.841084 
L 45.737335 26.841084 
z
" style="fill: #ffffff"/>
   </g>
   <g id="PathCollection_1">
    <defs>
     <path id="made3568c31" d="M 116.677475 -144.546666 
L 120.210456 -141.16735 
L 122.295619 -140.219622 
L 123.878921 -139.372717 
L 127.761798 -135.629368 
L 134.986357 -134.192029 
L 135.059172 -134.210836 
L 135.167638 -134.138373 
L 135.24279 -133.747874 
L 137.896216 -127.109395 
L 138.714318 -126.48378 
L 139.44248 -126.473796 
L 145.347253 -127.109395 
L 146.842037 -127.715342 
L 147.379759 -127.434811 
L 148.093699 -127.109395 
L 154.040063 -124.91284 
L 157.767748 -122.849409 
L 160.217335 -121.554236 
L 163.673068 -120.080418 
L 167.001665 -119.247086 
L 168.135504 -118.949884 
L 167.48279 -120.080418 
L 163.424608 -127.109395 
L 159.366426 -134.138373 
L 155.308244 -141.16735 
L 151.250063 -148.196327 
L 147.191881 -155.225304 
L 143.133699 -162.254281 
L 139.075517 -169.283258 
L 135.017335 -176.312235 
L 130.959153 -169.283258 
L 126.900972 -162.254281 
L 122.84279 -155.225304 
L 118.784608 -148.196327 
M 109.139602 -131.490686 
L 114.131226 -127.109395 
L 114.567565 -126.83424 
L 115.458229 -125.841875 
L 115.378105 -127.109395 
L 115.233699 -127.988018 
L 114.902869 -134.138373 
L 113.79565 -139.555199 
L 110.668244 -134.138373 
M 62.564573 -35.732693 
L 62.23373 -36.189378 
L 58.825788 -42.76167 
L 58.739277 -44.194763 
L 57.911881 -42.76167 
L 53.853699 -35.732693 
L 61.970063 -35.732693 
" style="stroke: #3e4c8a"/>
    </defs>
    <g clip-path="url(#pf196707757)">
     <use xlink:href="#made3568c31" x="0" y="211.269683" style="fill: #3e4c8a; stroke: #3e4c8a"/>
    </g>
   </g>
   <g id="PathCollection_2">
    <defs>
     <path id="m7a94cc5fea" d="M 168.135504 -118.949884 
L 167.001665 -119.247086 
L 163.673068 -120.080418 
L 160.217335 -121.554236 
L 157.767748 -122.849409 
L 154.040063 -124.91284 
L 148.093699 -127.109395 
L 147.379759 -127.434811 
L 146.842037 -127.715342 
L 145.347253 -127.109395 
L 139.44248 -126.473796 
L 138.714318 -126.48378 
L 137.896216 -127.109395 
L 135.24279 -133.747874 
L 135.167638 -134.138373 
L 135.059172 -134.210836 
L 134.986357 -134.192029 
L 127.761798 -135.629368 
L 123.878921 -139.372717 
L 122.295619 -140.219622 
L 120.210456 -141.16735 
L 116.677475 -144.546666 
L 114.726426 -141.16735 
L 113.79565 -139.555199 
L 114.902869 -134.138373 
L 115.233699 -127.988018 
L 115.378105 -127.109395 
L 115.458229 -125.841875 
L 114.567565 -126.83424 
L 114.131226 -127.109395 
L 109.139602 -131.490686 
L 106.610063 -127.109395 
L 103.264805 -121.315239 
L 108.49975 -123.83636 
L 111.679179 -121.831409 
L 113.250724 -120.080418 
L 116.827286 -116.690236 
L 120.943215 -116.341601 
L 125.548244 -120.080418 
L 125.730342 -122.108008 
L 127.837475 -121.70249 
L 131.249024 -120.080418 
L 134.186526 -118.641415 
L 136.116426 -118.176737 
L 141.944939 -118.021425 
L 143.999046 -118.581592 
L 149.174645 -116.48569 
L 154.773445 -113.977741 
L 155.669444 -113.677057 
L 158.30777 -113.051441 
L 162.805201 -111.978597 
L 164.169464 -111.761313 
L 169.987601 -110.360924 
L 173.749506 -109.226148 
L 171.540972 -113.051441 
M 98.457303 -112.988401 
L 98.531275 -112.986358 
L 98.588075 -113.051441 
L 99.03479 -113.988638 
L 98.493699 -113.051441 
M 58.739277 -44.194763 
L 58.825788 -42.76167 
L 62.23373 -36.189378 
L 62.564573 -35.732693 
L 67.734232 -35.732693 
L 64.526488 -40.160552 
L 63.177725 -42.76167 
L 62.84488 -48.275419 
L 63.12496 -49.790647 
L 62.586495 -50.85834 
L 61.970063 -49.790647 
" style="stroke: #365b8d"/>
    </defs>
    <g clip-path="url(#pf196707757)">
     <use xlink:href="#m7a94cc5fea" x="0" y="211.269683" style="fill: #365b8d; stroke: #365b8d"/>
    </g>
   </g>
   <g id="PathCollection_3">
    <defs>
     <path id="meaade91d3b" d="M 173.749506 -109.226148 
L 169.987601 -110.360924 
L 164.169464 -111.761313 
L 162.805201 -111.978597 
L 158.30777 -113.051441 
L 155.669444 -113.677057 
L 154.773445 -113.977741 
L 149.174645 -116.48569 
L 143.999046 -118.581592 
L 141.944939 -118.021425 
L 136.116426 -118.176737 
L 134.186526 -118.641415 
L 131.249024 -120.080418 
L 127.837475 -121.70249 
L 125.730342 -122.108008 
L 125.548244 -120.080418 
L 120.943215 -116.341601 
L 116.827286 -116.690236 
L 113.250724 -120.080418 
L 111.679179 -121.831409 
L 108.49975 -123.83636 
L 103.264805 -121.315239 
L 102.551881 -120.080418 
L 99.03479 -113.988638 
L 98.588075 -113.051441 
L 98.531275 -112.986358 
L 98.457303 -112.988401 
L 94.817678 -106.684386 
L 102.28885 -106.478046 
L 103.84312 -108.258957 
L 107.780692 -111.023852 
L 113.325815 -110.625511 
L 118.407103 -106.676322 
L 119.010063 -106.412963 
L 119.190426 -106.022464 
L 125.66233 -103.877074 
L 128.196862 -103.777917 
L 131.125928 -106.022464 
L 133.336432 -108.933875 
L 136.437699 -108.482606 
L 142.292368 -107.479691 
L 144.220141 -107.904238 
L 150.820832 -106.765914 
L 151.480166 -106.421014 
L 153.035663 -106.022464 
L 158.723056 -104.908114 
L 160.066732 -104.809499 
L 166.366003 -104.088133 
L 169.023597 -103.353708 
L 173.43153 -102.268031 
L 178.109564 -101.674306 
L 175.599153 -106.022464 
M 81.287008 -83.248578 
L 82.498138 -84.524748 
L 82.916104 -84.935533 
L 84.543699 -88.889332 
L 82.260972 -84.935533 
M 66.366426 -57.405373 
L 70.273989 -63.523733 
L 70.353732 -63.848602 
L 70.334426 -64.27815 
L 70.086426 -63.848602 
M 62.586495 -50.85834 
L 63.12496 -49.790647 
L 62.84488 -48.275419 
L 63.177725 -42.76167 
L 64.526488 -40.160552 
L 67.734232 -35.732693 
L 70.086426 -35.732693 
L 73.949673 -35.732693 
L 71.269158 -37.781245 
L 67.704978 -42.76167 
L 69.284227 -48.401198 
L 69.541058 -49.790647 
L 66.011121 -56.789966 
" style="stroke: #2f6b8e"/>
    </defs>
    <g clip-path="url(#pf196707757)">
     <use xlink:href="#meaade91d3b" x="0" y="211.269683" style="fill: #2f6b8e; stroke: #2f6b8e"/>
    </g>
   </g>
   <g id="PathCollection_4">
    <defs>
     <path id="mb0192da3ae" d="M 178.109564 -101.674306 
L 173.43153 -102.268031 
L 169.023597 -103.353708 
L 166.366003 -104.088133 
L 160.066732 -104.809499 
L 158.723056 -104.908114 
L 153.035663 -106.022464 
L 151.480166 -106.421014 
L 150.820832 -106.765914 
L 144.220141 -107.904238 
L 142.292368 -107.479691 
L 136.437699 -108.482606 
L 133.336432 -108.933875 
L 131.125928 -106.022464 
L 128.196862 -103.777917 
L 125.66233 -103.877074 
L 119.190426 -106.022464 
L 119.010063 -106.412963 
L 118.407103 -106.676322 
L 113.325815 -110.625511 
L 107.780692 -111.023852 
L 103.84312 -108.258957 
L 102.28885 -106.478046 
L 94.817678 -106.684386 
L 94.435517 -106.022464 
L 90.377335 -98.993487 
L 86.319153 -91.96451 
L 84.543699 -88.889332 
L 82.916104 -84.935533 
L 82.498138 -84.524748 
L 81.287008 -83.248578 
L 78.20279 -77.906556 
L 74.144608 -70.877579 
L 70.334426 -64.27815 
L 70.353732 -63.848602 
L 70.273989 -63.523733 
L 66.366426 -57.405373 
L 66.028244 -56.819624 
L 66.011121 -56.789966 
L 69.541058 -49.790647 
L 69.284227 -48.401198 
L 67.704978 -42.76167 
L 71.269158 -37.781245 
L 73.949673 -35.732693 
L 78.20279 -35.732693 
L 79.712811 -35.732693 
L 79.756161 -38.423211 
L 75.963793 -39.61075 
L 73.439309 -41.540057 
L 72.565076 -42.76167 
L 73.080972 -44.603942 
L 74.742522 -49.790647 
L 73.622842 -55.915899 
L 73.174954 -56.819624 
L 73.684226 -57.617029 
L 75.21383 -63.848602 
L 74.961515 -69.462655 
L 76.391101 -70.877579 
L 80.793504 -73.419307 
L 83.184077 -77.906556 
L 85.133321 -79.960478 
L 90.195354 -84.935533 
L 90.2711 -85.119537 
L 90.753093 -85.586364 
L 95.439815 -90.225016 
L 97.542563 -91.96451 
L 100.799988 -94.998877 
L 106.368504 -98.575096 
L 107.421699 -97.587692 
L 113.127748 -96.224496 
L 115.117214 -98.316623 
L 122.107415 -97.71978 
L 123.329772 -98.15001 
L 130.305717 -97.861703 
L 132.163926 -96.906759 
L 133.68855 -98.993487 
L 137.590816 -101.565064 
L 140.338437 -101.180928 
L 146.57073 -100.069351 
L 147.747796 -99.956361 
L 155.163309 -99.244522 
L 155.423721 -99.193499 
L 158.148972 -98.993487 
L 163.184806 -98.578138 
L 163.720992 -98.480135 
L 170.171946 -96.622266 
L 173.016674 -96.437495 
L 177.850296 -95.863603 
L 181.227386 -96.27408 
L 179.657335 -98.993487 
" style="stroke: #297a8e"/>
    </defs>
    <g clip-path="url(#pf196707757)">
     <use xlink:href="#mb0192da3ae" x="0" y="211.269683" style="fill: #297a8e; stroke: #297a8e"/>
    </g>
   </g>
   <g id="PathCollection_5">
    <defs>
     <path id="m7523b24ea0" d="M 181.227386 -96.27408 
L 177.850296 -95.863603 
L 173.016674 -96.437495 
L 170.171946 -96.622266 
L 163.720992 -98.480135 
L 163.184806 -98.578138 
L 158.148972 -98.993487 
L 155.423721 -99.193499 
L 155.163309 -99.244522 
L 147.747796 -99.956361 
L 146.57073 -100.069351 
L 140.338437 -101.180928 
L 137.590816 -101.565064 
L 133.68855 -98.993487 
L 132.163926 -96.906759 
L 130.305717 -97.861703 
L 123.329772 -98.15001 
L 122.107415 -97.71978 
L 115.117214 -98.316623 
L 113.127748 -96.224496 
L 107.421699 -97.587692 
L 106.368504 -98.575096 
L 100.799988 -94.998877 
L 97.542563 -91.96451 
L 95.439815 -90.225016 
L 90.753093 -85.586364 
L 90.2711 -85.119537 
L 90.195354 -84.935533 
L 85.133321 -79.960478 
L 83.184077 -77.906556 
L 80.793504 -73.419307 
L 76.391101 -70.877579 
L 74.961515 -69.462655 
L 75.21383 -63.848602 
L 73.684226 -57.617029 
L 73.174954 -56.819624 
L 73.622842 -55.915899 
L 74.742522 -49.790647 
L 73.080972 -44.603942 
L 72.565076 -42.76167 
L 73.439309 -41.540057 
L 75.963793 -39.61075 
L 79.756161 -38.423211 
L 79.712811 -35.732693 
L 83.487864 -35.732693 
L 83.564731 -40.503492 
L 85.231393 -42.76167 
L 83.582673 -45.050924 
L 80.664625 -49.790647 
L 80.42265 -53.635558 
L 80.357577 -56.819624 
L 80.606482 -59.685284 
L 81.67479 -63.848602 
L 84.436303 -67.109794 
L 90.262481 -70.678645 
L 90.421287 -70.801453 
L 90.514128 -70.877579 
L 95.294682 -76.418439 
L 98.068556 -77.906556 
L 100.392481 -81.646745 
L 104.49275 -84.935533 
L 106.084543 -85.84576 
L 106.978988 -85.574531 
L 109.005055 -84.935533 
L 114.082508 -83.820234 
L 115.612222 -83.401289 
L 122.091275 -83.63387 
L 123.348257 -84.060037 
L 124.094211 -84.935533 
L 126.942809 -91.892046 
L 133.53919 -89.404287 
L 136.505335 -89.387218 
L 142.209885 -90.364418 
L 144.396244 -89.777717 
L 147.504049 -91.96451 
L 150.356518 -93.512175 
L 152.058331 -93.364472 
L 159.22439 -92.210524 
L 159.49555 -92.188159 
L 160.719153 -91.96451 
L 166.910063 -90.972517 
L 168.082099 -90.926475 
L 174.755688 -90.503585 
L 176.41079 -90.558715 
L 183.481044 -91.558391 
L 184.103431 -91.292622 
L 183.715517 -91.96451 
M 110.811321 -35.732693 
L 110.75263 -35.878853 
L 110.073044 -36.76361 
L 110.490749 -35.732693 
L 110.668244 -35.732693 
" style="stroke: #23898e"/>
    </defs>
    <g clip-path="url(#pf196707757)">
     <use xlink:href="#m7523b24ea0" x="0" y="211.269683" style="fill: #23898e; stroke: #23898e"/>
    </g>
   </g>
   <g id="PathCollection_6">
    <defs>
     <path id="m42cd78be0f" d="M 184.103431 -91.292622 
L 183.481044 -91.558391 
L 176.41079 -90.558715 
L 174.755688 -90.503585 
L 168.082099 -90.926475 
L 166.910063 -90.972517 
L 160.719153 -91.96451 
L 159.49555 -92.188159 
L 159.22439 -92.210524 
L 152.058331 -93.364472 
L 150.356518 -93.512175 
L 147.504049 -91.96451 
L 144.396244 -89.777717 
L 142.209885 -90.364418 
L 136.505335 -89.387218 
L 133.53919 -89.404287 
L 126.942809 -91.892046 
L 124.094211 -84.935533 
L 123.348257 -84.060037 
L 122.091275 -83.63387 
L 115.612222 -83.401289 
L 114.082508 -83.820234 
L 109.005055 -84.935533 
L 106.978988 -85.574531 
L 106.084543 -85.84576 
L 104.49275 -84.935533 
L 100.392481 -81.646745 
L 98.068556 -77.906556 
L 95.294682 -76.418439 
L 90.514128 -70.877579 
L 90.421287 -70.801453 
L 90.262481 -70.678645 
L 84.436303 -67.109794 
L 81.67479 -63.848602 
L 80.606482 -59.685284 
L 80.357577 -56.819624 
L 80.42265 -53.635558 
L 80.664625 -49.790647 
L 83.582673 -45.050924 
L 85.231393 -42.76167 
L 83.564731 -40.503492 
L 83.487864 -35.732693 
L 86.319153 -35.732693 
L 88.138966 -35.732693 
L 91.627255 -40.596745 
L 92.744608 -42.76167 
L 92.194079 -45.908364 
L 89.225689 -49.790647 
L 89.436308 -55.189717 
L 89.580637 -56.819624 
L 89.802725 -57.814878 
L 90.923173 -63.848602 
L 93.351382 -65.726379 
L 97.468905 -69.102584 
L 99.123851 -69.786123 
L 101.568079 -70.877579 
L 105.700852 -72.452377 
L 109.331431 -77.906556 
L 110.127153 -78.843753 
L 111.08754 -78.632797 
L 113.739301 -77.906556 
L 117.692933 -76.01572 
L 119.559199 -76.564925 
L 122.84279 -77.906556 
L 126.236643 -79.057207 
L 130.357941 -83.894203 
L 131.160802 -84.586267 
L 138.826549 -84.504307 
L 139.558634 -84.09875 
L 145.135735 -81.374184 
L 148.19001 -83.206723 
L 151.53585 -84.935533 
L 154.07962 -87.063572 
L 156.342376 -86.726701 
L 163.168509 -85.379109 
L 163.637335 -85.303987 
L 171.506725 -84.994849 
L 171.5728 -84.990662 
L 179.473569 -85.253826 
L 179.873772 -85.310412 
L 180.751676 -84.935533 
L 186.797199 -83.244185 
L 188.808401 -83.143376 
L 187.773699 -84.935533 
M 110.490749 -35.732693 
L 110.073044 -36.76361 
L 110.75263 -35.878853 
L 110.811321 -35.732693 
L 113.41272 -35.732693 
L 112.286914 -38.536312 
L 109.041396 -42.76167 
L 108.018003 -45.200295 
L 103.994362 -47.292196 
L 103.192646 -42.76167 
L 105.320547 -40.528164 
L 107.263567 -35.732693 
M 99.662285 -58.843675 
L 96.763466 -59.816475 
L 92.206375 -56.819624 
L 97.005699 -54.242333 
L 100.210622 -53.845826 
L 99.677784 -56.819624 
" style="stroke: #1f978b"/>
    </defs>
    <g clip-path="url(#pf196707757)">
     <use xlink:href="#m42cd78be0f" x="0" y="211.269683" style="fill: #1f978b; stroke: #1f978b"/>
    </g>
   </g>
   <g id="PathCollection_7">
    <defs>
     <path id="m825acaa400" d="M 188.808401 -83.143376 
L 186.797199 -83.244185 
L 180.751676 -84.935533 
L 179.873772 -85.310412 
L 179.473569 -85.253826 
L 171.5728 -84.990662 
L 171.506725 -84.994849 
L 163.637335 -85.303987 
L 163.168509 -85.379109 
L 156.342376 -86.726701 
L 154.07962 -87.063572 
L 151.53585 -84.935533 
L 148.19001 -83.206723 
L 145.135735 -81.374184 
L 139.558634 -84.09875 
L 138.826549 -84.504307 
L 131.160802 -84.586267 
L 130.357941 -83.894203 
L 126.236643 -79.057207 
L 122.84279 -77.906556 
L 119.559199 -76.564925 
L 117.692933 -76.01572 
L 113.739301 -77.906556 
L 111.08754 -78.632797 
L 110.127153 -78.843753 
L 109.331431 -77.906556 
L 105.700852 -72.452377 
L 101.568079 -70.877579 
L 99.123851 -69.786123 
L 97.468905 -69.102584 
L 93.351382 -65.726379 
L 90.923173 -63.848602 
L 89.802725 -57.814878 
L 89.580637 -56.819624 
L 89.436308 -55.189717 
L 89.225689 -49.790647 
L 92.194079 -45.908364 
L 92.744608 -42.76167 
L 91.627255 -40.596745 
L 88.138966 -35.732693 
L 94.435517 -35.732693 
L 96.277045 -35.732693 
L 98.99614 -41.891416 
L 103.4242 -37.243595 
L 104.036385 -35.732693 
L 107.263567 -35.732693 
L 105.320547 -40.528164 
L 103.192646 -42.76167 
L 103.994362 -47.292196 
L 108.018003 -45.200295 
L 109.041396 -42.76167 
L 112.286914 -38.536312 
L 113.41272 -35.732693 
L 116.014118 -35.732693 
L 113.821198 -41.19377 
L 112.616887 -42.76167 
L 110.088504 -48.786508 
L 108.157104 -49.790647 
L 104.605616 -53.347822 
L 103.983547 -56.819624 
L 103.948244 -61.430029 
L 106.262218 -63.848602 
L 109.355811 -66.121803 
L 112.710773 -67.386365 
L 115.963677 -68.734598 
L 122.727501 -70.677892 
L 122.913001 -70.75597 
L 130.930775 -70.828425 
L 131.004751 -70.798601 
L 131.084021 -70.877579 
L 136.107247 -76.018773 
L 141.120585 -74.41974 
L 145.092821 -74.513256 
L 149.565534 -77.906556 
L 150.816664 -78.657223 
L 152.051979 -79.295515 
L 152.95605 -77.906556 
L 157.924551 -75.409154 
L 160.979293 -75.112988 
L 166.671153 -76.50076 
L 168.178901 -76.700855 
L 172.024088 -77.906556 
L 174.960206 -79.013246 
L 176.266499 -79.062432 
L 182.960098 -79.21498 
L 184.260835 -78.851075 
L 191.495938 -78.488425 
M 99.677784 -56.819624 
L 100.210622 -53.845826 
L 97.005699 -54.242333 
L 92.206375 -56.819624 
L 96.763466 -59.816475 
L 99.662285 -58.843675 
" style="stroke: #21a585"/>
    </defs>
    <g clip-path="url(#pf196707757)">
     <use xlink:href="#m825acaa400" x="0" y="211.269683" style="fill: #21a585; stroke: #21a585"/>
    </g>
   </g>
   <g id="PathCollection_8">
    <defs>
     <path id="m615287c25b" d="M 191.495938 -78.488425 
L 184.260835 -78.851075 
L 182.960098 -79.21498 
L 176.266499 -79.062432 
L 174.960206 -79.013246 
L 172.024088 -77.906556 
L 168.178901 -76.700855 
L 166.671153 -76.50076 
L 160.979293 -75.112988 
L 157.924551 -75.409154 
L 152.95605 -77.906556 
L 152.051979 -79.295515 
L 150.816664 -78.657223 
L 149.565534 -77.906556 
L 145.092821 -74.513256 
L 141.120585 -74.41974 
L 136.107247 -76.018773 
L 131.084021 -70.877579 
L 131.004751 -70.798601 
L 130.930775 -70.828425 
L 122.913001 -70.75597 
L 122.727501 -70.677892 
L 115.963677 -68.734598 
L 112.710773 -67.386365 
L 109.355811 -66.121803 
L 106.262218 -63.848602 
L 103.948244 -61.430029 
L 103.983547 -56.819624 
L 104.605616 -53.347822 
L 108.157104 -49.790647 
L 110.088504 -48.786508 
L 112.616887 -42.76167 
L 113.821198 -41.19377 
L 116.014118 -35.732693 
L 118.615517 -35.732693 
L 118.229278 -36.694553 
L 117.52282 -42.76167 
L 116.407087 -45.672661 
L 115.163461 -49.790647 
L 114.231526 -55.962432 
L 113.070025 -56.819624 
L 114.16279 -57.795871 
L 116.382827 -59.688595 
L 119.790482 -62.106376 
L 120.867569 -63.848602 
L 125.721431 -65.891626 
L 128.092885 -65.913056 
L 133.213699 -63.848602 
L 128.416026 -61.22445 
L 125.961742 -56.819624 
L 128.181466 -52.008528 
L 132.752895 -53.712773 
L 137.35249 -56.819624 
L 136.588244 -61.127707 
L 136.804424 -63.848602 
L 140.936594 -67.654099 
L 145.433335 -67.831689 
L 149.568293 -66.761511 
L 153.053699 -70.877579 
L 154.779835 -71.79281 
L 155.598945 -71.381087 
L 160.792274 -70.877579 
L 163.169644 -70.435968 
L 163.751441 -70.311487 
L 165.921951 -70.877579 
L 171.141078 -71.570215 
L 172.117661 -71.876433 
L 177.719293 -74.234366 
L 181.633378 -74.300185 
L 186.214084 -73.578911 
L 189.230482 -73.400801 
L 193.751291 -74.58204 
L 191.831881 -77.906556 
M 104.036385 -35.732693 
L 103.4242 -37.243595 
L 98.99614 -41.891416 
L 96.277045 -35.732693 
L 102.551881 -35.732693 
M 128.319916 -35.732693 
L 127.229303 -36.301381 
L 126.340449 -36.703546 
L 121.561259 -35.732693 
L 126.900972 -35.732693 
" style="stroke: #2fb37c"/>
    </defs>
    <g clip-path="url(#pf196707757)">
     <use xlink:href="#m615287c25b" x="0" y="211.269683" style="fill: #2fb37c; stroke: #2fb37c"/>
    </g>
   </g>
   <g id="PathCollection_9">
    <defs>
     <path id="m53b0a0fd3a" d="M 193.751291 -74.58204 
L 189.230482 -73.400801 
L 186.214084 -73.578911 
L 181.633378 -74.300185 
L 177.719293 -74.234366 
L 172.117661 -71.876433 
L 171.141078 -71.570215 
L 165.921951 -70.877579 
L 163.751441 -70.311487 
L 163.169644 -70.435968 
L 160.792274 -70.877579 
L 155.598945 -71.381087 
L 154.779835 -71.79281 
L 153.053699 -70.877579 
L 149.568293 -66.761511 
L 145.433335 -67.831689 
L 140.936594 -67.654099 
L 136.804424 -63.848602 
L 136.588244 -61.127707 
L 137.35249 -56.819624 
L 132.752895 -53.712773 
L 128.181466 -52.008528 
L 125.961742 -56.819624 
L 128.416026 -61.22445 
L 133.213699 -63.848602 
L 128.092885 -65.913056 
L 125.721431 -65.891626 
L 120.867569 -63.848602 
L 119.790482 -62.106376 
L 116.382827 -59.688595 
L 114.16279 -57.795871 
L 113.070025 -56.819624 
L 114.231526 -55.962432 
L 115.163461 -49.790647 
L 116.407087 -45.672661 
L 117.52282 -42.76167 
L 118.229278 -36.694553 
L 118.615517 -35.732693 
L 118.784608 -35.732693 
L 121.561259 -35.732693 
L 126.340449 -36.703546 
L 127.229303 -36.301381 
L 128.319916 -35.732693 
L 135.017335 -35.732693 
L 137.679503 -35.732693 
L 139.507239 -42.013907 
L 140.606906 -42.76167 
L 140.102905 -44.541158 
L 137.22178 -49.790647 
L 142.050293 -51.667162 
L 145.764828 -54.347896 
L 148.100005 -55.246707 
L 149.374432 -56.819624 
L 153.843258 -59.357056 
L 158.577335 -62.481856 
L 160.162892 -62.469083 
L 165.766914 -60.876618 
L 168.433219 -62.20241 
L 172.86522 -63.848602 
L 174.965681 -64.945808 
L 177.163754 -66.558569 
L 181.018962 -68.519172 
L 185.734612 -67.345777 
L 189.262672 -68.298601 
L 195.777958 -70.683408 
L 195.989528 -70.7053 
L 195.890063 -70.877579 
M 133.012691 -39.204838 
L 129.855958 -40.85088 
L 125.63279 -42.76167 
L 129.402591 -45.457716 
L 134.175071 -48.331803 
L 137.514678 -42.76167 
M 160.94517 -49.790647 
L 161.296537 -53.133697 
L 157.448013 -53.113437 
L 156.016816 -49.790647 
L 158.247917 -47.853332 
L 160.300167 -48.173361 
" style="stroke: #47c06f"/>
    </defs>
    <g clip-path="url(#pf196707757)">
     <use xlink:href="#m53b0a0fd3a" x="0" y="211.269683" style="fill: #47c06f; stroke: #47c06f"/>
    </g>
   </g>
   <g id="PathCollection_10">
    <defs>
     <path id="m8d341ad42c" d="M 195.989528 -70.7053 
L 195.777958 -70.683408 
L 189.262672 -68.298601 
L 185.734612 -67.345777 
L 181.018962 -68.519172 
L 177.163754 -66.558569 
L 174.965681 -64.945808 
L 172.86522 -63.848602 
L 168.433219 -62.20241 
L 165.766914 -60.876618 
L 160.162892 -62.469083 
L 158.577335 -62.481856 
L 153.843258 -59.357056 
L 149.374432 -56.819624 
L 148.100005 -55.246707 
L 145.764828 -54.347896 
L 142.050293 -51.667162 
L 137.22178 -49.790647 
L 140.102905 -44.541158 
L 140.606906 -42.76167 
L 139.507239 -42.013907 
L 137.679503 -35.732693 
L 143.133699 -35.732693 
L 144.937335 -35.732693 
L 149.238928 -39.21608 
L 154.967221 -42.76167 
L 155.092384 -43.135552 
L 155.379944 -42.885857 
L 162.694375 -44.026471 
L 164.993232 -49.790647 
L 165.376645 -53.438598 
L 171.135153 -56.819624 
L 171.450455 -56.976405 
L 171.680909 -57.062003 
L 174.584608 -56.819624 
L 179.424106 -56.41566 
L 179.815858 -56.545055 
L 180.460936 -56.819624 
L 185.830043 -60.186135 
L 190.984956 -62.381685 
L 192.26094 -63.10545 
L 199.928351 -63.814146 
L 199.960655 -63.827106 
L 199.948244 -63.848602 
M 137.514678 -42.76167 
L 134.175071 -48.331803 
L 129.402591 -45.457716 
L 125.63279 -42.76167 
L 129.855958 -40.85088 
L 133.012691 -39.204838 
M 160.300167 -48.173361 
L 158.247917 -47.853332 
L 156.016816 -49.790647 
L 157.448013 -53.113437 
L 161.296537 -53.133697 
L 160.94517 -49.790647 
" style="stroke: #68cc5c"/>
    </defs>
    <g clip-path="url(#pf196707757)">
     <use xlink:href="#m8d341ad42c" x="0" y="211.269683" style="fill: #68cc5c; stroke: #68cc5c"/>
    </g>
   </g>
   <g id="PathCollection_11">
    <defs>
     <path id="mc8a3580ea3" d="M 199.960655 -63.827106 
L 199.928351 -63.814146 
L 192.26094 -63.10545 
L 190.984956 -62.381685 
L 185.830043 -60.186135 
L 180.460936 -56.819624 
L 179.815858 -56.545055 
L 179.424106 -56.41566 
L 174.584608 -56.819624 
L 171.680909 -57.062003 
L 171.450455 -56.976405 
L 171.135153 -56.819624 
L 165.376645 -53.438598 
L 164.993232 -49.790647 
L 162.694375 -44.026471 
L 155.379944 -42.885857 
L 155.092384 -43.135552 
L 154.967221 -42.76167 
L 149.238928 -39.21608 
L 144.937335 -35.732693 
L 151.250063 -35.732693 
L 159.366426 -35.732693 
L 167.48279 -35.732693 
L 175.599153 -35.732693 
L 176.394875 -35.732693 
L 175.923808 -36.295011 
L 173.749855 -42.76167 
L 176.566667 -48.114865 
L 179.162435 -49.790647 
L 182.986313 -51.053667 
L 184.919881 -51.876666 
L 189.564556 -53.717768 
L 195.67266 -56.819624 
L 195.83643 -56.912518 
L 195.949742 -56.922992 
L 202.442723 -59.528038 
" style="stroke: #8ed645"/>
    </defs>
    <g clip-path="url(#pf196707757)">
     <use xlink:href="#mc8a3580ea3" x="0" y="211.269683" style="fill: #8ed645; stroke: #8ed645"/>
    </g>
   </g>
   <g id="PathCollection_12">
    <defs>
     <path id="mf3e7e3ca5d" d="M 202.442723 -59.528038 
L 195.949742 -56.922992 
L 195.83643 -56.912518 
L 195.67266 -56.819624 
L 189.564556 -53.717768 
L 184.919881 -51.876666 
L 182.986313 -51.053667 
L 179.162435 -49.790647 
L 176.566667 -48.114865 
L 173.749855 -42.76167 
L 175.923808 -36.295011 
L 176.394875 -35.732693 
L 183.715517 -35.732693 
L 191.272131 -35.732693 
L 187.628764 -42.510635 
L 187.408918 -42.76167 
L 187.67096 -42.939619 
L 188.019649 -43.187669 
L 193.404426 -47.066919 
L 199.867081 -49.650068 
L 200.000272 -49.700532 
L 200.107389 -49.790647 
L 205.73232 -53.830289 
L 204.006426 -56.819624 
" style="stroke: #b7de2a"/>
    </defs>
    <g clip-path="url(#pf196707757)">
     <use xlink:href="#mf3e7e3ca5d" x="0" y="211.269683" style="fill: #b7de2a; stroke: #b7de2a"/>
    </g>
   </g>
   <g id="PathCollection_13">
    <defs>
     <path id="m029ee0a40b" d="M 205.73232 -53.830289 
L 200.107389 -49.790647 
L 200.000272 -49.700532 
L 199.867081 -49.650068 
L 193.404426 -47.066919 
L 188.019649 -43.187669 
L 187.67096 -42.939619 
L 187.408918 -42.76167 
L 187.628764 -42.510635 
L 191.272131 -35.732693 
L 191.831881 -35.732693 
L 199.948244 -35.732693 
L 207.16279 -35.732693 
L 207.400542 -36.882889 
L 207.117699 -42.76167 
L 210.396896 -45.751005 
L 208.064608 -49.790647 
" style="stroke: #dee318"/>
    </defs>
    <g clip-path="url(#pf196707757)">
     <use xlink:href="#m029ee0a40b" x="0" y="211.269683" style="fill: #dee318; stroke: #dee318"/>
    </g>
   </g>
   <g id="PathCollection_14">
    <defs>
     <path id="m987e92fdab" d="M 210.396896 -45.751005 
L 207.117699 -42.76167 
L 207.400542 -36.882889 
L 207.16279 -35.732693 
L 208.064608 -35.732693 
L 216.180972 -35.732693 
L 212.12279 -42.76167 
" style="stroke: #fde725"/>
    </defs>
    <g clip-path="url(#pf196707757)">
     <use xlink:href="#m987e92fdab" x="0" y="211.269683" style="fill: #fde725; stroke: #fde725"/>
    </g>
   </g>
   <g id="line2d_1">
    <path d="M 53.853699 175.53699 
L 135.017335 34.957448 
" clip-path="url(#pf196707757)" style="fill: none; stroke: #000000; stroke-linecap: square"/>
   </g>
   <g id="line2d_2">
    <path d="M 135.017335 34.957448 
L 216.180972 175.53699 
" clip-path="url(#pf196707757)" style="fill: none; stroke: #000000; stroke-linecap: square"/>
   </g>
   <g id="line2d_3">
    <path d="M 53.853699 175.53699 
L 216.180972 175.53699 
" clip-path="url(#pf196707757)" style="fill: none; stroke: #000000; stroke-linecap: square"/>
   </g>
   <g id="line2d_4">
    <path d="M 216.180972 175.53699 
L 218.528549 179.603112 
" clip-path="url(#pf196707757)" style="fill: none; stroke: #000000; stroke-linecap: square"/>
   </g>
   <g id="line2d_5">
    <path d="M 183.715517 175.53699 
L 186.063094 179.603112 
" clip-path="url(#pf196707757)" style="fill: none; stroke: #000000; stroke-linecap: square"/>
   </g>
   <g id="line2d_6">
    <path d="M 151.250063 175.53699 
L 153.59764 179.603112 
" clip-path="url(#pf196707757)" style="fill: none; stroke: #000000; stroke-linecap: square"/>
   </g>
   <g id="line2d_7">
    <path d="M 118.784608 175.53699 
L 121.132185 179.603112 
" clip-path="url(#pf196707757)" style="fill: none; stroke: #000000; stroke-linecap: square"/>
   </g>
   <g id="line2d_8">
    <path d="M 86.319153 175.53699 
L 88.66673 179.603112 
" clip-path="url(#pf196707757)" style="fill: none; stroke: #000000; stroke-linecap: square"/>
   </g>
   <g id="line2d_9">
    <path d="M 53.853699 175.53699 
L 56.201276 179.603112 
" clip-path="url(#pf196707757)" style="fill: none; stroke: #000000; stroke-linecap: square"/>
   </g>
   <g id="line2d_10">
    <path d="M 53.853699 175.53699 
L 49.158545 175.53699 
" clip-path="url(#pf196707757)" style="fill: none; stroke: #000000; stroke-linecap: square"/>
   </g>
   <g id="line2d_11">
    <path d="M 70.086426 147.421081 
L 65.391272 147.421081 
" clip-path="url(#pf196707757)" style="fill: none; stroke: #000000; stroke-linecap: square"/>
   </g>
   <g id="line2d_12">
    <path d="M 86.319153 119.305173 
L 81.623999 119.305173 
" clip-path="url(#pf196707757)" style="fill: none; stroke: #000000; stroke-linecap: square"/>
   </g>
   <g id="line2d_13">
    <path d="M 102.551881 91.189265 
L 97.856727 91.189265 
" clip-path="url(#pf196707757)" style="fill: none; stroke: #000000; stroke-linecap: square"/>
   </g>
   <g id="line2d_14">
    <path d="M 118.784608 63.073356 
L 114.089454 63.073356 
" clip-path="url(#pf196707757)" style="fill: none; stroke: #000000; stroke-linecap: square"/>
   </g>
   <g id="line2d_15">
    <path d="M 135.017335 34.957448 
L 130.322181 34.957448 
" clip-path="url(#pf196707757)" style="fill: none; stroke: #000000; stroke-linecap: square"/>
   </g>
   <g id="line2d_16">
    <path d="M 135.017335 34.957448 
L 137.364912 30.891325 
" clip-path="url(#pf196707757)" style="fill: none; stroke: #000000; stroke-linecap: square"/>
   </g>
   <g id="line2d_17">
    <path d="M 151.250063 63.073356 
L 153.59764 59.007234 
" clip-path="url(#pf196707757)" style="fill: none; stroke: #000000; stroke-linecap: square"/>
   </g>
   <g id="line2d_18">
    <path d="M 167.48279 91.189265 
L 169.830367 87.123142 
" clip-path="url(#pf196707757)" style="fill: none; stroke: #000000; stroke-linecap: square"/>
   </g>
   <g id="line2d_19">
    <path d="M 183.715517 119.305173 
L 186.063094 115.23905 
" clip-path="url(#pf196707757)" style="fill: none; stroke: #000000; stroke-linecap: square"/>
   </g>
   <g id="line2d_20">
    <path d="M 199.948244 147.421081 
L 202.295821 143.354959 
" clip-path="url(#pf196707757)" style="fill: none; stroke: #000000; stroke-linecap: square"/>
   </g>
   <g id="line2d_21">
    <path d="M 216.180972 175.53699 
L 218.528549 171.470867 
" clip-path="url(#pf196707757)" style="fill: none; stroke: #000000; stroke-linecap: square"/>
   </g>
   <g id="matplotlib.axis_1">
    <g id="xtick_1"/>
    <g id="xtick_2"/>
    <g id="xtick_3"/>
    <g id="xtick_4"/>
    <g id="xtick_5"/>
   </g>
   <g id="matplotlib.axis_2">
    <g id="ytick_1"/>
    <g id="ytick_2"/>
    <g id="ytick_3"/>
    <g id="ytick_4"/>
    <g id="ytick_5"/>
   </g>
   <g id="text_1">
    <!-- 0 -->
    <g transform="translate(217.23329 188.523172) scale(0.12 -0.12)">
     <defs>
      <path id="DejaVuSans-30" d="M 2034 4250 
Q 1547 4250 1301 3770 
Q 1056 3291 1056 2328 
Q 1056 1369 1301 889 
Q 1547 409 2034 409 
Q 2525 409 2770 889 
Q 3016 1369 3016 2328 
Q 3016 3291 2770 3770 
Q 2525 4250 2034 4250 
z
M 2034 4750 
Q 2819 4750 3233 4129 
Q 3647 3509 3647 2328 
Q 3647 1150 3233 529 
Q 2819 -91 2034 -91 
Q 1250 -91 836 529 
Q 422 1150 422 2328 
Q 422 3509 836 4129 
Q 1250 4750 2034 4750 
z
" transform="scale(0.015625)"/>
     </defs>
     <use xlink:href="#DejaVuSans-30"/>
    </g>
   </g>
   <g id="text_2">
    <!-- 20 -->
    <g transform="translate(180.950335 188.523172) scale(0.12 -0.12)">
     <defs>
      <path id="DejaVuSans-32" d="M 1228 531 
L 3431 531 
L 3431 0 
L 469 0 
L 469 531 
Q 828 903 1448 1529 
Q 2069 2156 2228 2338 
Q 2531 2678 2651 2914 
Q 2772 3150 2772 3378 
Q 2772 3750 2511 3984 
Q 2250 4219 1831 4219 
Q 1534 4219 1204 4116 
Q 875 4013 500 3803 
L 500 4441 
Q 881 4594 1212 4672 
Q 1544 4750 1819 4750 
Q 2544 4750 2975 4387 
Q 3406 4025 3406 3419 
Q 3406 3131 3298 2873 
Q 3191 2616 2906 2266 
Q 2828 2175 2409 1742 
Q 1991 1309 1228 531 
z
" transform="scale(0.015625)"/>
     </defs>
     <use xlink:href="#DejaVuSans-32"/>
     <use xlink:href="#DejaVuSans-30" x="63.623047"/>
    </g>
   </g>
   <g id="text_3">
    <!-- 40 -->
    <g transform="translate(148.484881 188.523172) scale(0.12 -0.12)">
     <defs>
      <path id="DejaVuSans-34" d="M 2419 4116 
L 825 1625 
L 2419 1625 
L 2419 4116 
z
M 2253 4666 
L 3047 4666 
L 3047 1625 
L 3713 1625 
L 3713 1100 
L 3047 1100 
L 3047 0 
L 2419 0 
L 2419 1100 
L 313 1100 
L 313 1709 
L 2253 4666 
z
" transform="scale(0.015625)"/>
     </defs>
     <use xlink:href="#DejaVuSans-34"/>
     <use xlink:href="#DejaVuSans-30" x="63.623047"/>
    </g>
   </g>
   <g id="text_4">
    <!-- 60 -->
    <g transform="translate(116.019426 188.523172) scale(0.12 -0.12)">
     <defs>
      <path id="DejaVuSans-36" d="M 2113 2584 
Q 1688 2584 1439 2293 
Q 1191 2003 1191 1497 
Q 1191 994 1439 701 
Q 1688 409 2113 409 
Q 2538 409 2786 701 
Q 3034 994 3034 1497 
Q 3034 2003 2786 2293 
Q 2538 2584 2113 2584 
z
M 3366 4563 
L 3366 3988 
Q 3128 4100 2886 4159 
Q 2644 4219 2406 4219 
Q 1781 4219 1451 3797 
Q 1122 3375 1075 2522 
Q 1259 2794 1537 2939 
Q 1816 3084 2150 3084 
Q 2853 3084 3261 2657 
Q 3669 2231 3669 1497 
Q 3669 778 3244 343 
Q 2819 -91 2113 -91 
Q 1303 -91 875 529 
Q 447 1150 447 2328 
Q 447 3434 972 4092 
Q 1497 4750 2381 4750 
Q 2619 4750 2861 4703 
Q 3103 4656 3366 4563 
z
" transform="scale(0.015625)"/>
     </defs>
     <use xlink:href="#DejaVuSans-36"/>
     <use xlink:href="#DejaVuSans-30" x="63.623047"/>
    </g>
   </g>
   <g id="text_5">
    <!-- 80 -->
    <g transform="translate(83.553972 188.523172) scale(0.12 -0.12)">
     <defs>
      <path id="DejaVuSans-38" d="M 2034 2216 
Q 1584 2216 1326 1975 
Q 1069 1734 1069 1313 
Q 1069 891 1326 650 
Q 1584 409 2034 409 
Q 2484 409 2743 651 
Q 3003 894 3003 1313 
Q 3003 1734 2745 1975 
Q 2488 2216 2034 2216 
z
M 1403 2484 
Q 997 2584 770 2862 
Q 544 3141 544 3541 
Q 544 4100 942 4425 
Q 1341 4750 2034 4750 
Q 2731 4750 3128 4425 
Q 3525 4100 3525 3541 
Q 3525 3141 3298 2862 
Q 3072 2584 2669 2484 
Q 3125 2378 3379 2068 
Q 3634 1759 3634 1313 
Q 3634 634 3220 271 
Q 2806 -91 2034 -91 
Q 1263 -91 848 271 
Q 434 634 434 1313 
Q 434 1759 690 2068 
Q 947 2378 1403 2484 
z
M 1172 3481 
Q 1172 3119 1398 2916 
Q 1625 2713 2034 2713 
Q 2441 2713 2670 2916 
Q 2900 3119 2900 3481 
Q 2900 3844 2670 4047 
Q 2441 4250 2034 4250 
Q 1625 4250 1398 4047 
Q 1172 3844 1172 3481 
z
" transform="scale(0.015625)"/>
     </defs>
     <use xlink:href="#DejaVuSans-38"/>
     <use xlink:href="#DejaVuSans-30" x="63.623047"/>
    </g>
   </g>
   <g id="text_6">
    <!-- 100 -->
    <g transform="translate(47.271017 188.523172) scale(0.12 -0.12)">
     <defs>
      <path id="DejaVuSans-31" d="M 794 531 
L 1825 531 
L 1825 4091 
L 703 3866 
L 703 4441 
L 1819 4666 
L 2450 4666 
L 2450 531 
L 3481 531 
L 3481 0 
L 794 0 
L 794 531 
z
" transform="scale(0.015625)"/>
     </defs>
     <use xlink:href="#DejaVuSans-31"/>
     <use xlink:href="#DejaVuSans-30" x="63.623047"/>
     <use xlink:href="#DejaVuSans-30" x="127.246094"/>
    </g>
   </g>
   <g id="text_7">
    <!-- 0 -->
    <g transform="translate(41.348881 177.971899) scale(0.12 -0.12)">
     <use xlink:href="#DejaVuSans-30"/>
    </g>
   </g>
   <g id="text_8">
    <!-- 20 -->
    <g transform="translate(49.946608 149.85599) scale(0.12 -0.12)">
     <use xlink:href="#DejaVuSans-32"/>
     <use xlink:href="#DejaVuSans-30" x="63.623047"/>
    </g>
   </g>
   <g id="text_9">
    <!-- 40 -->
    <g transform="translate(66.179335 121.740082) scale(0.12 -0.12)">
     <use xlink:href="#DejaVuSans-34"/>
     <use xlink:href="#DejaVuSans-30" x="63.623047"/>
    </g>
   </g>
   <g id="text_10">
    <!-- 60 -->
    <g transform="translate(82.412063 93.624174) scale(0.12 -0.12)">
     <use xlink:href="#DejaVuSans-36"/>
     <use xlink:href="#DejaVuSans-30" x="63.623047"/>
    </g>
   </g>
   <g id="text_11">
    <!-- 80 -->
    <g transform="translate(98.64479 65.508265) scale(0.12 -0.12)">
     <use xlink:href="#DejaVuSans-38"/>
     <use xlink:href="#DejaVuSans-30" x="63.623047"/>
    </g>
   </g>
   <g id="text_12">
    <!-- 100 -->
    <g transform="translate(107.242517 37.392357) scale(0.12 -0.12)">
     <use xlink:href="#DejaVuSans-31"/>
     <use xlink:href="#DejaVuSans-30" x="63.623047"/>
     <use xlink:href="#DejaVuSans-30" x="127.246094"/>
    </g>
   </g>
   <g id="text_13">
    <!-- 0 -->
    <g transform="translate(137.452244 31.710902) scale(0.12 -0.12)">
     <use xlink:href="#DejaVuSans-30"/>
    </g>
   </g>
   <g id="text_14">
    <!-- 20 -->
    <g transform="translate(153.684972 59.826811) scale(0.12 -0.12)">
     <use xlink:href="#DejaVuSans-32"/>
     <use xlink:href="#DejaVuSans-30" x="63.623047"/>
    </g>
   </g>
   <g id="text_15">
    <!-- 40 -->
    <g transform="translate(169.917699 87.942719) scale(0.12 -0.12)">
     <use xlink:href="#DejaVuSans-34"/>
     <use xlink:href="#DejaVuSans-30" x="63.623047"/>
    </g>
   </g>
   <g id="text_16">
    <!-- 60 -->
    <g transform="translate(186.150426 116.058627) scale(0.12 -0.12)">
     <use xlink:href="#DejaVuSans-36"/>
     <use xlink:href="#DejaVuSans-30" x="63.623047"/>
    </g>
   </g>
   <g id="text_17">
    <!-- 80 -->
    <g transform="translate(202.383153 144.174536) scale(0.12 -0.12)">
     <use xlink:href="#DejaVuSans-38"/>
     <use xlink:href="#DejaVuSans-30" x="63.623047"/>
    </g>
   </g>
   <g id="text_18">
    <!-- 100 -->
    <g transform="translate(218.615881 172.290444) scale(0.12 -0.12)">
     <use xlink:href="#DejaVuSans-31"/>
     <use xlink:href="#DejaVuSans-30" x="63.623047"/>
     <use xlink:href="#DejaVuSans-30" x="127.246094"/>
    </g>
   </g>
   <g id="text_19">
    <!-- AgAu content (at.%) -->
    <g transform="translate(74.09296 201.574058) scale(0.12 -0.12)">
     <defs>
      <path id="DejaVuSans-41" d="M 2188 4044 
L 1331 1722 
L 3047 1722 
L 2188 4044 
z
M 1831 4666 
L 2547 4666 
L 4325 0 
L 3669 0 
L 3244 1197 
L 1141 1197 
L 716 0 
L 50 0 
L 1831 4666 
z
" transform="scale(0.015625)"/>
      <path id="DejaVuSans-67" d="M 2906 1791 
Q 2906 2416 2648 2759 
Q 2391 3103 1925 3103 
Q 1463 3103 1205 2759 
Q 947 2416 947 1791 
Q 947 1169 1205 825 
Q 1463 481 1925 481 
Q 2391 481 2648 825 
Q 2906 1169 2906 1791 
z
M 3481 434 
Q 3481 -459 3084 -895 
Q 2688 -1331 1869 -1331 
Q 1566 -1331 1297 -1286 
Q 1028 -1241 775 -1147 
L 775 -588 
Q 1028 -725 1275 -790 
Q 1522 -856 1778 -856 
Q 2344 -856 2625 -561 
Q 2906 -266 2906 331 
L 2906 616 
Q 2728 306 2450 153 
Q 2172 0 1784 0 
Q 1141 0 747 490 
Q 353 981 353 1791 
Q 353 2603 747 3093 
Q 1141 3584 1784 3584 
Q 2172 3584 2450 3431 
Q 2728 3278 2906 2969 
L 2906 3500 
L 3481 3500 
L 3481 434 
z
" transform="scale(0.015625)"/>
      <path id="DejaVuSans-75" d="M 544 1381 
L 544 3500 
L 1119 3500 
L 1119 1403 
Q 1119 906 1312 657 
Q 1506 409 1894 409 
Q 2359 409 2629 706 
Q 2900 1003 2900 1516 
L 2900 3500 
L 3475 3500 
L 3475 0 
L 2900 0 
L 2900 538 
Q 2691 219 2414 64 
Q 2138 -91 1772 -91 
Q 1169 -91 856 284 
Q 544 659 544 1381 
z
M 1991 3584 
L 1991 3584 
z
" transform="scale(0.015625)"/>
      <path id="DejaVuSans-20" transform="scale(0.015625)"/>
      <path id="DejaVuSans-63" d="M 3122 3366 
L 3122 2828 
Q 2878 2963 2633 3030 
Q 2388 3097 2138 3097 
Q 1578 3097 1268 2742 
Q 959 2388 959 1747 
Q 959 1106 1268 751 
Q 1578 397 2138 397 
Q 2388 397 2633 464 
Q 2878 531 3122 666 
L 3122 134 
Q 2881 22 2623 -34 
Q 2366 -91 2075 -91 
Q 1284 -91 818 406 
Q 353 903 353 1747 
Q 353 2603 823 3093 
Q 1294 3584 2113 3584 
Q 2378 3584 2631 3529 
Q 2884 3475 3122 3366 
z
" transform="scale(0.015625)"/>
      <path id="DejaVuSans-6f" d="M 1959 3097 
Q 1497 3097 1228 2736 
Q 959 2375 959 1747 
Q 959 1119 1226 758 
Q 1494 397 1959 397 
Q 2419 397 2687 759 
Q 2956 1122 2956 1747 
Q 2956 2369 2687 2733 
Q 2419 3097 1959 3097 
z
M 1959 3584 
Q 2709 3584 3137 3096 
Q 3566 2609 3566 1747 
Q 3566 888 3137 398 
Q 2709 -91 1959 -91 
Q 1206 -91 779 398 
Q 353 888 353 1747 
Q 353 2609 779 3096 
Q 1206 3584 1959 3584 
z
" transform="scale(0.015625)"/>
      <path id="DejaVuSans-6e" d="M 3513 2113 
L 3513 0 
L 2938 0 
L 2938 2094 
Q 2938 2591 2744 2837 
Q 2550 3084 2163 3084 
Q 1697 3084 1428 2787 
Q 1159 2491 1159 1978 
L 1159 0 
L 581 0 
L 581 3500 
L 1159 3500 
L 1159 2956 
Q 1366 3272 1645 3428 
Q 1925 3584 2291 3584 
Q 2894 3584 3203 3211 
Q 3513 2838 3513 2113 
z
" transform="scale(0.015625)"/>
      <path id="DejaVuSans-74" d="M 1172 4494 
L 1172 3500 
L 2356 3500 
L 2356 3053 
L 1172 3053 
L 1172 1153 
Q 1172 725 1289 603 
Q 1406 481 1766 481 
L 2356 481 
L 2356 0 
L 1766 0 
Q 1100 0 847 248 
Q 594 497 594 1153 
L 594 3053 
L 172 3053 
L 172 3500 
L 594 3500 
L 594 4494 
L 1172 4494 
z
" transform="scale(0.015625)"/>
      <path id="DejaVuSans-65" d="M 3597 1894 
L 3597 1613 
L 953 1613 
Q 991 1019 1311 708 
Q 1631 397 2203 397 
Q 2534 397 2845 478 
Q 3156 559 3463 722 
L 3463 178 
Q 3153 47 2828 -22 
Q 2503 -91 2169 -91 
Q 1331 -91 842 396 
Q 353 884 353 1716 
Q 353 2575 817 3079 
Q 1281 3584 2069 3584 
Q 2775 3584 3186 3129 
Q 3597 2675 3597 1894 
z
M 3022 2063 
Q 3016 2534 2758 2815 
Q 2500 3097 2075 3097 
Q 1594 3097 1305 2825 
Q 1016 2553 972 2059 
L 3022 2063 
z
" transform="scale(0.015625)"/>
      <path id="DejaVuSans-28" d="M 1984 4856 
Q 1566 4138 1362 3434 
Q 1159 2731 1159 2009 
Q 1159 1288 1364 580 
Q 1569 -128 1984 -844 
L 1484 -844 
Q 1016 -109 783 600 
Q 550 1309 550 2009 
Q 550 2706 781 3412 
Q 1013 4119 1484 4856 
L 1984 4856 
z
" transform="scale(0.015625)"/>
      <path id="DejaVuSans-61" d="M 2194 1759 
Q 1497 1759 1228 1600 
Q 959 1441 959 1056 
Q 959 750 1161 570 
Q 1363 391 1709 391 
Q 2188 391 2477 730 
Q 2766 1069 2766 1631 
L 2766 1759 
L 2194 1759 
z
M 3341 1997 
L 3341 0 
L 2766 0 
L 2766 531 
Q 2569 213 2275 61 
Q 1981 -91 1556 -91 
Q 1019 -91 701 211 
Q 384 513 384 1019 
Q 384 1609 779 1909 
Q 1175 2209 1959 2209 
L 2766 2209 
L 2766 2266 
Q 2766 2663 2505 2880 
Q 2244 3097 1772 3097 
Q 1472 3097 1187 3025 
Q 903 2953 641 2809 
L 641 3341 
Q 956 3463 1253 3523 
Q 1550 3584 1831 3584 
Q 2591 3584 2966 3190 
Q 3341 2797 3341 1997 
z
" transform="scale(0.015625)"/>
      <path id="DejaVuSans-2e" d="M 684 794 
L 1344 794 
L 1344 0 
L 684 0 
L 684 794 
z
" transform="scale(0.015625)"/>
      <path id="DejaVuSans-25" d="M 4653 2053 
Q 4381 2053 4226 1822 
Q 4072 1591 4072 1178 
Q 4072 772 4226 539 
Q 4381 306 4653 306 
Q 4919 306 5073 539 
Q 5228 772 5228 1178 
Q 5228 1588 5073 1820 
Q 4919 2053 4653 2053 
z
M 4653 2450 
Q 5147 2450 5437 2106 
Q 5728 1763 5728 1178 
Q 5728 594 5436 251 
Q 5144 -91 4653 -91 
Q 4153 -91 3862 251 
Q 3572 594 3572 1178 
Q 3572 1766 3864 2108 
Q 4156 2450 4653 2450 
z
M 1428 4353 
Q 1159 4353 1004 4120 
Q 850 3888 850 3481 
Q 850 3069 1003 2837 
Q 1156 2606 1428 2606 
Q 1700 2606 1854 2837 
Q 2009 3069 2009 3481 
Q 2009 3884 1853 4118 
Q 1697 4353 1428 4353 
z
M 4250 4750 
L 4750 4750 
L 1831 -91 
L 1331 -91 
L 4250 4750 
z
M 1428 4750 
Q 1922 4750 2215 4408 
Q 2509 4066 2509 3481 
Q 2509 2891 2217 2550 
Q 1925 2209 1428 2209 
Q 931 2209 642 2551 
Q 353 2894 353 3481 
Q 353 4063 643 4406 
Q 934 4750 1428 4750 
z
" transform="scale(0.015625)"/>
      <path id="DejaVuSans-29" d="M 513 4856 
L 1013 4856 
Q 1481 4119 1714 3412 
Q 1947 2706 1947 2009 
Q 1947 1309 1714 600 
Q 1481 -109 1013 -844 
L 513 -844 
Q 928 -128 1133 580 
Q 1338 1288 1338 2009 
Q 1338 2731 1133 3434 
Q 928 4138 513 4856 
z
" transform="scale(0.015625)"/>
     </defs>
     <use xlink:href="#DejaVuSans-41"/>
     <use xlink:href="#DejaVuSans-67" x="68.408203"/>
     <use xlink:href="#DejaVuSans-41" x="131.884766"/>
     <use xlink:href="#DejaVuSans-75" x="200.292969"/>
     <use xlink:href="#DejaVuSans-20" x="263.671875"/>
     <use xlink:href="#DejaVuSans-63" x="295.458984"/>
     <use xlink:href="#DejaVuSans-6f" x="350.439453"/>
     <use xlink:href="#DejaVuSans-6e" x="411.621094"/>
     <use xlink:href="#DejaVuSans-74" x="475"/>
     <use xlink:href="#DejaVuSans-65" x="514.208984"/>
     <use xlink:href="#DejaVuSans-6e" x="575.732422"/>
     <use xlink:href="#DejaVuSans-74" x="639.111328"/>
     <use xlink:href="#DejaVuSans-20" x="678.320312"/>
     <use xlink:href="#DejaVuSans-28" x="710.107422"/>
     <use xlink:href="#DejaVuSans-61" x="749.121094"/>
     <use xlink:href="#DejaVuSans-74" x="810.400391"/>
     <use xlink:href="#DejaVuSans-2e" x="849.609375"/>
     <use xlink:href="#DejaVuSans-25" x="881.396484"/>
     <use xlink:href="#DejaVuSans-29" x="976.416016"/>
    </g>
   </g>
   <g id="text_20">
    <!-- Cu content (at.%) -->
    <g transform="translate(170.532493 50.046277) rotate(-300) scale(0.12 -0.12)">
     <defs>
      <path id="DejaVuSans-43" d="M 4122 4306 
L 4122 3641 
Q 3803 3938 3442 4084 
Q 3081 4231 2675 4231 
Q 1875 4231 1450 3742 
Q 1025 3253 1025 2328 
Q 1025 1406 1450 917 
Q 1875 428 2675 428 
Q 3081 428 3442 575 
Q 3803 722 4122 1019 
L 4122 359 
Q 3791 134 3420 21 
Q 3050 -91 2638 -91 
Q 1578 -91 968 557 
Q 359 1206 359 2328 
Q 359 3453 968 4101 
Q 1578 4750 2638 4750 
Q 3056 4750 3426 4639 
Q 3797 4528 4122 4306 
z
" transform="scale(0.015625)"/>
     </defs>
     <use xlink:href="#DejaVuSans-43"/>
     <use xlink:href="#DejaVuSans-75" x="69.824219"/>
     <use xlink:href="#DejaVuSans-20" x="133.203125"/>
     <use xlink:href="#DejaVuSans-63" x="164.990234"/>
     <use xlink:href="#DejaVuSans-6f" x="219.970703"/>
     <use xlink:href="#DejaVuSans-6e" x="281.152344"/>
     <use xlink:href="#DejaVuSans-74" x="344.53125"/>
     <use xlink:href="#DejaVuSans-65" x="383.740234"/>
     <use xlink:href="#DejaVuSans-6e" x="445.263672"/>
     <use xlink:href="#DejaVuSans-74" x="508.642578"/>
     <use xlink:href="#DejaVuSans-20" x="547.851562"/>
     <use xlink:href="#DejaVuSans-28" x="579.638672"/>
     <use xlink:href="#DejaVuSans-61" x="618.652344"/>
     <use xlink:href="#DejaVuSans-74" x="679.931641"/>
     <use xlink:href="#DejaVuSans-2e" x="719.140625"/>
     <use xlink:href="#DejaVuSans-25" x="750.927734"/>
     <use xlink:href="#DejaVuSans-29" x="845.947266"/>
    </g>
   </g>
   <g id="text_21">
    <!-- Pd content (at.%) -->
    <g transform="translate(46.688584 141.522105) rotate(-60) scale(0.12 -0.12)">
     <defs>
      <path id="DejaVuSans-50" d="M 1259 4147 
L 1259 2394 
L 2053 2394 
Q 2494 2394 2734 2622 
Q 2975 2850 2975 3272 
Q 2975 3691 2734 3919 
Q 2494 4147 2053 4147 
L 1259 4147 
z
M 628 4666 
L 2053 4666 
Q 2838 4666 3239 4311 
Q 3641 3956 3641 3272 
Q 3641 2581 3239 2228 
Q 2838 1875 2053 1875 
L 1259 1875 
L 1259 0 
L 628 0 
L 628 4666 
z
" transform="scale(0.015625)"/>
      <path id="DejaVuSans-64" d="M 2906 2969 
L 2906 4863 
L 3481 4863 
L 3481 0 
L 2906 0 
L 2906 525 
Q 2725 213 2448 61 
Q 2172 -91 1784 -91 
Q 1150 -91 751 415 
Q 353 922 353 1747 
Q 353 2572 751 3078 
Q 1150 3584 1784 3584 
Q 2172 3584 2448 3432 
Q 2725 3281 2906 2969 
z
M 947 1747 
Q 947 1113 1208 752 
Q 1469 391 1925 391 
Q 2381 391 2643 752 
Q 2906 1113 2906 1747 
Q 2906 2381 2643 2742 
Q 2381 3103 1925 3103 
Q 1469 3103 1208 2742 
Q 947 2381 947 1747 
z
" transform="scale(0.015625)"/>
     </defs>
     <use xlink:href="#DejaVuSans-50"/>
     <use xlink:href="#DejaVuSans-64" x="60.302734"/>
     <use xlink:href="#DejaVuSans-20" x="123.779297"/>
     <use xlink:href="#DejaVuSans-63" x="155.566406"/>
     <use xlink:href="#DejaVuSans-6f" x="210.546875"/>
     <use xlink:href="#DejaVuSans-6e" x="271.728516"/>
     <use xlink:href="#DejaVuSans-74" x="335.107422"/>
     <use xlink:href="#DejaVuSans-65" x="374.316406"/>
     <use xlink:href="#DejaVuSans-6e" x="435.839844"/>
     <use xlink:href="#DejaVuSans-74" x="499.21875"/>
     <use xlink:href="#DejaVuSans-20" x="538.427734"/>
     <use xlink:href="#DejaVuSans-28" x="570.214844"/>
     <use xlink:href="#DejaVuSans-61" x="609.228516"/>
     <use xlink:href="#DejaVuSans-74" x="670.507812"/>
     <use xlink:href="#DejaVuSans-2e" x="709.716797"/>
     <use xlink:href="#DejaVuSans-25" x="741.503906"/>
     <use xlink:href="#DejaVuSans-29" x="836.523438"/>
    </g>
   </g>
   <g id="text_22">
    <!-- AgAu -->
    <g transform="translate(7.2 195.914439) scale(0.14 -0.14)">
     <use xlink:href="#DejaVuSans-41"/>
     <use xlink:href="#DejaVuSans-67" x="68.408203"/>
     <use xlink:href="#DejaVuSans-41" x="131.884766"/>
     <use xlink:href="#DejaVuSans-75" x="200.292969"/>
    </g>
   </g>
   <g id="text_23">
    <!-- Cu -->
    <g transform="translate(225.920608 195.914439) scale(0.14 -0.14)">
     <use xlink:href="#DejaVuSans-43"/>
     <use xlink:href="#DejaVuSans-75" x="69.824219"/>
    </g>
   </g>
   <g id="text_24">
    <!-- Pd -->
    <g transform="translate(126.352648 19.059703) scale(0.14 -0.14)">
     <use xlink:href="#DejaVuSans-50"/>
     <use xlink:href="#DejaVuSans-64" x="60.302734"/>
    </g>
   </g>
  </g>
  <g id="axes_2">
   <g id="patch_3">
    <path d="M 229.697335 121.879219 
L 235.241335 121.879219 
L 235.241335 10.999219 
L 229.697335 10.999219 
z
" style="fill: #ffffff"/>
   </g>
   <g id="QuadMesh_1">
    <path d="M 229.697335 121.879219 
L 235.241335 121.879219 
L 235.241335 113.959219 
L 229.697335 113.959219 
L 229.697335 121.879219 
" clip-path="url(#p642fb43b89)" style="fill: #3e4c8a; stroke: #3e4c8a"/>
    <path d="M 229.697335 113.959219 
L 235.241335 113.959219 
L 235.241335 106.039219 
L 229.697335 106.039219 
L 229.697335 113.959219 
" clip-path="url(#p642fb43b89)" style="fill: #365b8d; stroke: #365b8d"/>
    <path d="M 229.697335 106.039219 
L 235.241335 106.039219 
L 235.241335 98.119219 
L 229.697335 98.119219 
L 229.697335 106.039219 
" clip-path="url(#p642fb43b89)" style="fill: #2f6b8e; stroke: #2f6b8e"/>
    <path d="M 229.697335 98.119219 
L 235.241335 98.119219 
L 235.241335 90.199219 
L 229.697335 90.199219 
L 229.697335 98.119219 
" clip-path="url(#p642fb43b89)" style="fill: #297a8e; stroke: #297a8e"/>
    <path d="M 229.697335 90.199219 
L 235.241335 90.199219 
L 235.241335 82.279219 
L 229.697335 82.279219 
L 229.697335 90.199219 
" clip-path="url(#p642fb43b89)" style="fill: #23898e; stroke: #23898e"/>
    <path d="M 229.697335 82.279219 
L 235.241335 82.279219 
L 235.241335 74.359219 
L 229.697335 74.359219 
L 229.697335 82.279219 
" clip-path="url(#p642fb43b89)" style="fill: #1f978b; stroke: #1f978b"/>
    <path d="M 229.697335 74.359219 
L 235.241335 74.359219 
L 235.241335 66.439219 
L 229.697335 66.439219 
L 229.697335 74.359219 
" clip-path="url(#p642fb43b89)" style="fill: #21a585; stroke: #21a585"/>
    <path d="M 229.697335 66.439219 
L 235.241335 66.439219 
L 235.241335 58.519219 
L 229.697335 58.519219 
L 229.697335 66.439219 
" clip-path="url(#p642fb43b89)" style="fill: #2fb37c; stroke: #2fb37c"/>
    <path d="M 229.697335 58.519219 
L 235.241335 58.519219 
L 235.241335 50.599219 
L 229.697335 50.599219 
L 229.697335 58.519219 
" clip-path="url(#p642fb43b89)" style="fill: #47c06f; stroke: #47c06f"/>
    <path d="M 229.697335 50.599219 
L 235.241335 50.599219 
L 235.241335 42.679219 
L 229.697335 42.679219 
L 229.697335 50.599219 
" clip-path="url(#p642fb43b89)" style="fill: #68cc5c; stroke: #68cc5c"/>
    <path d="M 229.697335 42.679219 
L 235.241335 42.679219 
L 235.241335 34.759219 
L 229.697335 34.759219 
L 229.697335 42.679219 
" clip-path="url(#p642fb43b89)" style="fill: #8ed645; stroke: #8ed645"/>
    <path d="M 229.697335 34.759219 
L 235.241335 34.759219 
L 235.241335 26.839219 
L 229.697335 26.839219 
L 229.697335 34.759219 
" clip-path="url(#p642fb43b89)" style="fill: #b7de2a; stroke: #b7de2a"/>
    <path d="M 229.697335 26.839219 
L 235.241335 26.839219 
L 235.241335 18.919219 
L 229.697335 18.919219 
L 229.697335 26.839219 
" clip-path="url(#p642fb43b89)" style="fill: #dee318; stroke: #dee318"/>
    <path d="M 229.697335 18.919219 
L 235.241335 18.919219 
L 235.241335 10.999219 
L 229.697335 10.999219 
L 229.697335 18.919219 
" clip-path="url(#p642fb43b89)" style="fill: #fde725; stroke: #fde725"/>
   </g>
   <g id="matplotlib.axis_3"/>
   <g id="matplotlib.axis_4">
    <g id="ytick_6">
     <g id="line2d_22">
      <defs>
       <path id="mcc19aa5c2f" d="M 0 0 
L 3.5 0 
" style="stroke: #000000; stroke-width: 0.8"/>
      </defs>
      <g>
       <use xlink:href="#mcc19aa5c2f" x="235.241335" y="121.879219" style="stroke: #000000; stroke-width: 0.8"/>
      </g>
     </g>
     <g id="text_25">
      <!-- 0.00 -->
      <g transform="translate(242.241335 125.678438) scale(0.1 -0.1)">
       <use xlink:href="#DejaVuSans-30"/>
       <use xlink:href="#DejaVuSans-2e" x="63.623047"/>
       <use xlink:href="#DejaVuSans-30" x="95.410156"/>
       <use xlink:href="#DejaVuSans-30" x="159.033203"/>
      </g>
     </g>
    </g>
    <g id="ytick_7">
     <g id="line2d_23">
      <g>
       <use xlink:href="#mcc19aa5c2f" x="235.241335" y="106.039219" style="stroke: #000000; stroke-width: 0.8"/>
      </g>
     </g>
     <g id="text_26">
      <!-- 0.04 -->
      <g transform="translate(242.241335 109.838438) scale(0.1 -0.1)">
       <use xlink:href="#DejaVuSans-30"/>
       <use xlink:href="#DejaVuSans-2e" x="63.623047"/>
       <use xlink:href="#DejaVuSans-30" x="95.410156"/>
       <use xlink:href="#DejaVuSans-34" x="159.033203"/>
      </g>
     </g>
    </g>
    <g id="ytick_8">
     <g id="line2d_24">
      <g>
       <use xlink:href="#mcc19aa5c2f" x="235.241335" y="90.199219" style="stroke: #000000; stroke-width: 0.8"/>
      </g>
     </g>
     <g id="text_27">
      <!-- 0.08 -->
      <g transform="translate(242.241335 93.998438) scale(0.1 -0.1)">
       <use xlink:href="#DejaVuSans-30"/>
       <use xlink:href="#DejaVuSans-2e" x="63.623047"/>
       <use xlink:href="#DejaVuSans-30" x="95.410156"/>
       <use xlink:href="#DejaVuSans-38" x="159.033203"/>
      </g>
     </g>
    </g>
    <g id="ytick_9">
     <g id="line2d_25">
      <g>
       <use xlink:href="#mcc19aa5c2f" x="235.241335" y="74.359219" style="stroke: #000000; stroke-width: 0.8"/>
      </g>
     </g>
     <g id="text_28">
      <!-- 0.12 -->
      <g transform="translate(242.241335 78.158438) scale(0.1 -0.1)">
       <use xlink:href="#DejaVuSans-30"/>
       <use xlink:href="#DejaVuSans-2e" x="63.623047"/>
       <use xlink:href="#DejaVuSans-31" x="95.410156"/>
       <use xlink:href="#DejaVuSans-32" x="159.033203"/>
      </g>
     </g>
    </g>
    <g id="ytick_10">
     <g id="line2d_26">
      <g>
       <use xlink:href="#mcc19aa5c2f" x="235.241335" y="58.519219" style="stroke: #000000; stroke-width: 0.8"/>
      </g>
     </g>
     <g id="text_29">
      <!-- 0.16 -->
      <g transform="translate(242.241335 62.318438) scale(0.1 -0.1)">
       <use xlink:href="#DejaVuSans-30"/>
       <use xlink:href="#DejaVuSans-2e" x="63.623047"/>
       <use xlink:href="#DejaVuSans-31" x="95.410156"/>
       <use xlink:href="#DejaVuSans-36" x="159.033203"/>
      </g>
     </g>
    </g>
    <g id="ytick_11">
     <g id="line2d_27">
      <g>
       <use xlink:href="#mcc19aa5c2f" x="235.241335" y="42.679219" style="stroke: #000000; stroke-width: 0.8"/>
      </g>
     </g>
     <g id="text_30">
      <!-- 0.20 -->
      <g transform="translate(242.241335 46.478438) scale(0.1 -0.1)">
       <use xlink:href="#DejaVuSans-30"/>
       <use xlink:href="#DejaVuSans-2e" x="63.623047"/>
       <use xlink:href="#DejaVuSans-32" x="95.410156"/>
       <use xlink:href="#DejaVuSans-30" x="159.033203"/>
      </g>
     </g>
    </g>
    <g id="ytick_12">
     <g id="line2d_28">
      <g>
       <use xlink:href="#mcc19aa5c2f" x="235.241335" y="26.839219" style="stroke: #000000; stroke-width: 0.8"/>
      </g>
     </g>
     <g id="text_31">
      <!-- 0.24 -->
      <g transform="translate(242.241335 30.638438) scale(0.1 -0.1)">
       <use xlink:href="#DejaVuSans-30"/>
       <use xlink:href="#DejaVuSans-2e" x="63.623047"/>
       <use xlink:href="#DejaVuSans-32" x="95.410156"/>
       <use xlink:href="#DejaVuSans-34" x="159.033203"/>
      </g>
     </g>
    </g>
    <g id="ytick_13">
     <g id="line2d_29">
      <g>
       <use xlink:href="#mcc19aa5c2f" x="235.241335" y="10.999219" style="stroke: #000000; stroke-width: 0.8"/>
      </g>
     </g>
     <g id="text_32">
      <!-- 0.28 -->
      <g transform="translate(242.241335 14.798438) scale(0.1 -0.1)">
       <use xlink:href="#DejaVuSans-30"/>
       <use xlink:href="#DejaVuSans-2e" x="63.623047"/>
       <use xlink:href="#DejaVuSans-32" x="95.410156"/>
       <use xlink:href="#DejaVuSans-38" x="159.033203"/>
      </g>
     </g>
    </g>
   </g>
   <g id="LineCollection_1"/>
   <g id="patch_4">
    <path d="M 229.697335 121.879219 
L 232.469335 121.879219 
L 235.241335 121.879219 
L 235.241335 10.999219 
L 232.469335 10.999219 
L 229.697335 10.999219 
L 229.697335 121.879219 
z
" style="fill: none; stroke: #000000; stroke-width: 0.8; stroke-linejoin: miter; stroke-linecap: square"/>
   </g>
  </g>
 </g>
 <defs>
  <clipPath id="pf196707757">
   <rect x="45.737335" y="26.841084" width="178.56" height="156.812269"/>
  </clipPath>
  <clipPath id="p642fb43b89">
   <rect x="229.697335" y="10.999219" width="5.544" height="110.88"/>
  </clipPath>
 </defs>
</svg>
