<?xml version="1.0" encoding="UTF-8" standalone="no"?>
<!-- Created with Inkscape (http://www.inkscape.org/) -->

<svg
   version="1.1"
   id="svg1"
   width="384"
   height="384"
   viewBox="0 0 384 384"
   sodipodi:docname="AgAuCuPd_dyn01.pdf"
   xmlns:inkscape="http://www.inkscape.org/namespaces/inkscape"
   xmlns:sodipodi="http://sodipodi.sourceforge.net/DTD/sodipodi-0.dtd"
   xmlns="http://www.w3.org/2000/svg"
   xmlns:svg="http://www.w3.org/2000/svg">
  <defs
     id="defs1">
    <clipPath
       clipPathUnits="userSpaceOnUse"
       id="clipPath4">
      <path
         d="M 41.76,64.153865 H 220.32 V 220.96613 H 41.76 Z"
         id="path4" />
    </clipPath>
    <clipPath
       clipPathUnits="userSpaceOnUse"
       id="clipPath6">
      <path
         d="M 41.76,64.153865 H 220.32 V 220.96613 H 41.76 Z"
         id="path6" />
    </clipPath>
    <clipPath
       clipPathUnits="userSpaceOnUse"
       id="clipPath8">
      <path
         d="M 41.76,64.153865 H 220.32 V 220.96613 H 41.76 Z"
         id="path8" />
    </clipPath>
    <clipPath
       clipPathUnits="userSpaceOnUse"
       id="clipPath10">
      <path
         d="M 41.76,64.153865 H 220.32 V 220.96613 H 41.76 Z"
         id="path10" />
    </clipPath>
    <clipPath
       clipPathUnits="userSpaceOnUse"
       id="clipPath12">
      <path
         d="M 41.76,64.153865 H 220.32 V 220.96613 H 41.76 Z"
         id="path12" />
    </clipPath>
    <clipPath
       clipPathUnits="userSpaceOnUse"
       id="clipPath14">
      <path
         d="M 41.76,64.153865 H 220.32 V 220.96613 H 41.76 Z"
         id="path14" />
    </clipPath>
    <clipPath
       clipPathUnits="userSpaceOnUse"
       id="clipPath16">
      <path
         d="M 41.76,64.153865 H 220.32 V 220.96613 H 41.76 Z"
         id="path16" />
    </clipPath>
    <clipPath
       clipPathUnits="userSpaceOnUse"
       id="clipPath18">
      <path
         d="M 41.76,64.153865 H 220.32 V 220.96613 H 41.76 Z"
         id="path18" />
    </clipPath>
    <clipPath
       clipPathUnits="userSpaceOnUse"
       id="clipPath20">
      <path
         d="M 41.76,64.153865 H 220.32 V 220.96613 H 41.76 Z"
         id="path20" />
    </clipPath>
    <clipPath
       clipPathUnits="userSpaceOnUse"
       id="clipPath22">
      <path
         d="M 41.76,64.153865 H 220.32 V 220.96613 H 41.76 Z"
         id="path22" />
    </clipPath>
    <clipPath
       clipPathUnits="userSpaceOnUse"
       id="clipPath24">
      <path
         d="M 41.76,64.153865 H 220.32 V 220.96613 H 41.76 Z"
         id="path24" />
    </clipPath>
    <clipPath
       clipPathUnits="userSpaceOnUse"
       id="clipPath26">
      <path
         d="M 41.76,64.153865 H 220.32 V 220.96613 H 41.76 Z"
         id="path26" />
    </clipPath>
    <clipPath
       clipPathUnits="userSpaceOnUse"
       id="clipPath28">
      <path
         d="M 41.76,64.153865 H 220.32 V 220.96613 H 41.76 Z"
         id="path28" />
    </clipPath>
    <clipPath
       clipPathUnits="userSpaceOnUse"
       id="clipPath30">
      <path
         d="M 41.76,64.153865 H 220.32 V 220.96613 H 41.76 Z"
         id="path30" />
    </clipPath>
    <clipPath
       clipPathUnits="userSpaceOnUse"
       id="clipPath32">
      <path
         d="M 41.76,64.153865 H 220.32 V 220.96613 H 41.76 Z"
         id="path32" />
    </clipPath>
    <clipPath
       clipPathUnits="userSpaceOnUse"
       id="clipPath34">
      <path
         d="M 41.76,64.153865 H 220.32 V 220.96613 H 41.76 Z"
         id="path34" />
    </clipPath>
    <clipPath
       clipPathUnits="userSpaceOnUse"
       id="clipPath36">
      <path
         d="M 41.76,64.153865 H 220.32 V 220.96613 H 41.76 Z"
         id="path36" />
    </clipPath>
    <clipPath
       clipPathUnits="userSpaceOnUse"
       id="clipPath38">
      <path
         d="M 41.76,64.153865 H 220.32 V 220.96613 H 41.76 Z"
         id="path38" />
    </clipPath>
    <clipPath
       clipPathUnits="userSpaceOnUse"
       id="clipPath40">
      <path
         d="M 41.76,64.153865 H 220.32 V 220.96613 H 41.76 Z"
         id="path40" />
    </clipPath>
    <clipPath
       clipPathUnits="userSpaceOnUse"
       id="clipPath42">
      <path
         d="M 41.76,64.153865 H 220.32 V 220.96613 H 41.76 Z"
         id="path42" />
    </clipPath>
    <clipPath
       clipPathUnits="userSpaceOnUse"
       id="clipPath44">
      <path
         d="M 41.76,64.153865 H 220.32 V 220.96613 H 41.76 Z"
         id="path44" />
    </clipPath>
    <clipPath
       clipPathUnits="userSpaceOnUse"
       id="clipPath46">
      <path
         d="M 41.76,64.153865 H 220.32 V 220.96613 H 41.76 Z"
         id="path46" />
    </clipPath>
    <clipPath
       clipPathUnits="userSpaceOnUse"
       id="clipPath48">
      <path
         d="M 41.76,64.153865 H 220.32 V 220.96613 H 41.76 Z"
         id="path48" />
    </clipPath>
    <clipPath
       clipPathUnits="userSpaceOnUse"
       id="clipPath50">
      <path
         d="M 41.76,64.153865 H 220.32 V 220.96613 H 41.76 Z"
         id="path50" />
    </clipPath>
    <clipPath
       clipPathUnits="userSpaceOnUse"
       id="clipPath52">
      <path
         d="M 41.76,64.153865 H 220.32 V 220.96613 H 41.76 Z"
         id="path52" />
    </clipPath>
    <clipPath
       clipPathUnits="userSpaceOnUse"
       id="clipPath54">
      <path
         d="M 41.76,64.153865 H 220.32 V 220.96613 H 41.76 Z"
         id="path54" />
    </clipPath>
    <clipPath
       clipPathUnits="userSpaceOnUse"
       id="clipPath56">
      <path
         d="M 41.76,64.153865 H 220.32 V 220.96613 H 41.76 Z"
         id="path56" />
    </clipPath>
    <clipPath
       clipPathUnits="userSpaceOnUse"
       id="clipPath58">
      <path
         d="M 41.76,64.153865 H 220.32 V 220.96613 H 41.76 Z"
         id="path58" />
    </clipPath>
    <clipPath
       clipPathUnits="userSpaceOnUse"
       id="clipPath60">
      <path
         d="M 41.76,64.153865 H 220.32 V 220.96613 H 41.76 Z"
         id="path60" />
    </clipPath>
    <clipPath
       clipPathUnits="userSpaceOnUse"
       id="clipPath62">
      <path
         d="M 41.76,64.153865 H 220.32 V 220.96613 H 41.76 Z"
         id="path62" />
    </clipPath>
    <clipPath
       clipPathUnits="userSpaceOnUse"
       id="clipPath64">
      <path
         d="M 41.76,64.153865 H 220.32 V 220.96613 H 41.76 Z"
         id="path64" />
    </clipPath>
    <clipPath
       clipPathUnits="userSpaceOnUse"
       id="clipPath66">
      <path
         d="M 41.76,64.153865 H 220.32 V 220.96613 H 41.76 Z"
         id="path66" />
    </clipPath>
    <clipPath
       clipPathUnits="userSpaceOnUse"
       id="clipPath68">
      <path
         d="M 41.76,64.153865 H 220.32 V 220.96613 H 41.76 Z"
         id="path68" />
    </clipPath>
    <clipPath
       clipPathUnits="userSpaceOnUse"
       id="clipPath70">
      <path
         d="M 41.76,64.153865 H 220.32 V 220.96613 H 41.76 Z"
         id="path70" />
    </clipPath>
    <clipPath
       clipPathUnits="userSpaceOnUse"
       id="clipPath95">
      <path
         d="m 225.72,125.928 h 5.544 v 110.88 h -5.544 z"
         id="path95" />
    </clipPath>
    <clipPath
       clipPathUnits="userSpaceOnUse"
       id="clipPath97">
      <path
         d="m 225.72,125.928 h 5.544 v 110.88 h -5.544 z"
         id="path97" />
    </clipPath>
    <clipPath
       clipPathUnits="userSpaceOnUse"
       id="clipPath99">
      <path
         d="m 225.72,125.928 h 5.544 v 110.88 h -5.544 z"
         id="path99" />
    </clipPath>
    <clipPath
       clipPathUnits="userSpaceOnUse"
       id="clipPath101">
      <path
         d="m 225.72,125.928 h 5.544 v 110.88 h -5.544 z"
         id="path101" />
    </clipPath>
    <clipPath
       clipPathUnits="userSpaceOnUse"
       id="clipPath103">
      <path
         d="m 225.72,125.928 h 5.544 v 110.88 h -5.544 z"
         id="path103" />
    </clipPath>
    <clipPath
       clipPathUnits="userSpaceOnUse"
       id="clipPath105">
      <path
         d="m 225.72,125.928 h 5.544 v 110.88 h -5.544 z"
         id="path105" />
    </clipPath>
    <clipPath
       clipPathUnits="userSpaceOnUse"
       id="clipPath107">
      <path
         d="m 225.72,125.928 h 5.544 v 110.88 h -5.544 z"
         id="path107" />
    </clipPath>
    <clipPath
       clipPathUnits="userSpaceOnUse"
       id="clipPath109">
      <path
         d="m 225.72,125.928 h 5.544 v 110.88 h -5.544 z"
         id="path109" />
    </clipPath>
    <clipPath
       clipPathUnits="userSpaceOnUse"
       id="clipPath111">
      <path
         d="m 225.72,125.928 h 5.544 v 110.88 h -5.544 z"
         id="path111" />
    </clipPath>
    <clipPath
       clipPathUnits="userSpaceOnUse"
       id="clipPath113">
      <path
         d="m 225.72,125.928 h 5.544 v 110.88 h -5.544 z"
         id="path113" />
    </clipPath>
    <clipPath
       clipPathUnits="userSpaceOnUse"
       id="clipPath115">
      <path
         d="m 225.72,125.928 h 5.544 v 110.88 h -5.544 z"
         id="path115" />
    </clipPath>
    <clipPath
       clipPathUnits="userSpaceOnUse"
       id="clipPath117">
      <path
         d="m 225.72,125.928 h 5.544 v 110.88 h -5.544 z"
         id="path117" />
    </clipPath>
    <clipPath
       clipPathUnits="userSpaceOnUse"
       id="clipPath119">
      <path
         d="m 225.72,125.928 h 5.544 v 110.88 h -5.544 z"
         id="path119" />
    </clipPath>
  </defs>
  <sodipodi:namedview
     id="namedview1"
     pagecolor="#ffffff"
     bordercolor="#cccccc"
     borderopacity="1"
     inkscape:showpageshadow="0"
     inkscape:pageopacity="1"
     inkscape:pagecheckerboard="0"
     inkscape:deskcolor="#d1d1d1">
    <inkscape:page
       x="0"
       y="0"
       inkscape:label="1"
       id="page1"
       width="384"
       height="384"
       margin="0"
       bleed="0" />
  </sodipodi:namedview>
  <g
     id="g1"
     inkscape:groupmode="layer"
     inkscape:label="1">
    <path
       id="path1"
       d="M 0,0 H 288 V 288 H 0 Z"
       style="fill:#ffffff;fill-opacity:1;fill-rule:nonzero;stroke:none"
       transform="matrix(1.3333333,0,0,-1.3333333,0,384)" />
    <path
       id="path2"
       d="M 41.76,64.153865 H 220.32 V 220.96613 H 41.76 Z"
       style="display:inline;fill:#ffffff;fill-opacity:1;fill-rule:nonzero;stroke:none"
       transform="matrix(1.3333333,0,0,-1.3333333,0,384)" />
    <path
       id="path3"
       d="M 49.876364,72.270229 131.04,212.84977"
       style="display:inline;fill:none;stroke:#000000;stroke-width:1.5;stroke-linecap:square;stroke-linejoin:round;stroke-miterlimit:10;stroke-dasharray:none;stroke-opacity:1"
       transform="matrix(1.3333333,0,0,-1.3333333,0,384)"
       clip-path="url(#clipPath4)" />
    <path
       id="path7"
       d="M 49.876364,72.270229 H 212.20364"
       style="display:inline;fill:none;stroke:#000000;stroke-width:1.5;stroke-linecap:square;stroke-linejoin:round;stroke-miterlimit:10;stroke-dasharray:none;stroke-opacity:1"
       transform="matrix(1.3333333,0,0,-1.3333333,0,384)"
       clip-path="url(#clipPath8)" />
    <path
       id="path9"
       d="m 117.87876,190.05383 4.04878,-5.31997 0.45367,-0.93951 1.61665,-0.9211 0.90003,1.86061 0.13288,3.64966 -0.38124,3.37932 0.12676,3.8201 2.99814,-2.44725 1.5668,-1.37285 4.04972,-2.95702 4.02077,-4.07196 0.92589,-1.41812 2.48551,-1.46878 3.39083,-2.41106 2.15165,-1.73102 3.93592,-1.78295 4.66776,-4.51889 -3.63837,6.30184 -4.05818,7.02898 -4.05819,7.02898 -4.05818,7.02898 -4.05818,7.02897 -4.05818,7.02898 -4.05818,-7.02898 -4.05818,-7.02897 -5.04637,-8.73168 M 52.587844,72.270229 51.433211,74.966768 49.876364,72.270229"
       style="fill:#3d4c8a;fill-opacity:1;fill-rule:nonzero;stroke:#3d4c8a;stroke-width:1;stroke-linecap:butt;stroke-linejoin:round;stroke-miterlimit:10;stroke-dasharray:none;stroke-opacity:1"
       transform="matrix(1.3333333,0,0,-1.3333333,0,384)"
       clip-path="url(#clipPath10)"
       sodipodi:nodetypes="cccccccccccccccccccccccccccccc" />
    <path
       id="path11"
       d="m 154.96928,171.40304 -4.66776,4.51889 -3.93592,1.78295 -2.15165,1.73102 -3.39083,2.41106 -2.48551,1.46878 -0.92589,1.41812 -4.02077,4.07196 -4.04972,2.95702 -1.5668,1.37285 -2.99814,2.44725 -0.12676,-3.8201 0.38124,-3.37932 -0.13288,-3.64966 -0.90003,-1.86061 -1.61665,0.9211 -0.45367,0.93951 -4.04878,5.31997 -2.38717,-4.13469 0.90206,-1.18528 2.97406,-6.15905 1.52684,-0.86993 4.74053,-2.33262 3.28536,-1.02517 4.47964,0.41659 3.85515,-0.79492 3.1498,-1.13009 6.76624,-1.98704 0.16085,-0.0729 0.10625,-0.10286 5.63176,-4.01656 4.80233,-3.01242 1.05247,-0.90472 2.00844,-1.66927 -1.4861,2.57399 -4.05818,7.02898 m -49.86749,-2.0253 5.03874,-5.00368 0.1236,-0.11285 0.20648,-0.13194 0.0519,0.24479 -0.058,0.2343 -1.19393,6.79468 -1.06783,3.34579 -1.93169,-3.34579 M 51.433171,74.966728 52.587804,72.270189 h 2.71148 l -2.309266,5.393077"
       style="fill:#355e8d;fill-opacity:1;fill-rule:nonzero;stroke:#355e8d;stroke-width:1;stroke-linecap:butt;stroke-linejoin:round;stroke-miterlimit:10;stroke-dasharray:none;stroke-opacity:1"
       transform="matrix(1.3333333,0,0,-1.3333333,0,384)"
       clip-path="url(#clipPath12)" />
    <path
       id="path13"
       d="m 160.93337,161.07294 -2.00844,1.66927 -1.05247,0.90472 -4.80233,3.01242 -5.63176,4.01656 -0.10625,0.10286 -0.16085,0.0729 -6.76624,1.98704 -3.1498,1.13009 -3.85515,0.79492 -4.47964,-0.41659 -3.28536,1.02517 -4.74053,2.33262 -1.52684,0.86993 -2.97406,6.15905 -0.90206,1.18528 -0.68432,-1.18528 -4.05818,-7.02898 -2.12649,-3.68318 1.06783,-3.34579 1.19393,-6.79468 0.058,-0.2343 -0.0519,-0.24479 -0.20648,0.13194 -0.1236,0.11285 -5.03874,5.00368 -1.47391,-2.5529 2.46795,-2.45078 2.77213,-2.53108 4.63115,-2.95921 1.16442,5.49029 -1.30027,5.255 -0.31172,1.77398 -1.65135,5.17411 4.19561,-3.08121 6.87582,-2.03712 0.0502,-0.0247 0.0997,-0.0311 6.49077,-2.61186 2.84505,-4.41712 1.95936,-1.31935 1.75487,-0.40082 6.94961,1.41947 0.4511,-0.17991 6.71011,-1.47447 3.63529,-2.38635 2.074,-1.78283 1.08854,-0.90472 4.15129,-4.07758 3.75481,-2.95139 1.999,-1.14067 2.46763,-1.99273 -1.80906,3.1334 -4.05819,7.02897 M 52.990058,77.663306 55.299324,72.270229 h 2.693403 0.02092 l -0.0096,0.01958 -2.921127,7.009398 -0.0027,1.984257 -1.145612,-1.984257"
       style="fill:#2e6d8e;fill-opacity:1;fill-rule:nonzero;stroke:#2e6d8e;stroke-width:1;stroke-linecap:butt;stroke-linejoin:round;stroke-miterlimit:10;stroke-dasharray:none;stroke-opacity:1"
       transform="matrix(1.3333333,0,0,-1.3333333,0,384)"
       clip-path="url(#clipPath14)" />
    <path
       id="path15"
       d="m 199.44935,94.3613 0.5017,-1.00414 0.0475,-0.05285 0.0982,-0.0643 -0.0676,0.117149 m -30.65639,53.098421 -2.46763,1.99273 -1.999,1.14067 -3.75481,2.95139 -4.15129,4.07758 -1.08854,0.90472 -2.074,1.78283 -3.63529,2.38635 -6.71011,1.47447 -0.4511,0.17991 -6.94961,-1.41947 -1.75487,0.40082 -1.95936,1.31935 -2.84505,4.41712 -6.49077,2.61186 -0.0997,0.0311 -0.0502,0.0247 -6.87582,2.03712 -4.19561,3.08121 1.65135,-5.17411 0.31172,-1.77398 1.30027,-5.255 -1.16442,-5.49029 -4.63115,2.95921 -2.77213,2.53108 -2.46795,2.45078 -1.41496,-2.45078 -0.24846,-0.43034 0.42882,0.11794 5.07852,-4.6369 3.25467,-2.07968 2.31251,-2.33564 2.59174,0.18226 3.48386,2.15338 -0.0762,6.00228 6.24399,-1.18964 2.32399,0.40741 4.34026,-2.92255 6.29333,-1.43741 1.12592,0.22997 2.73315,-1.09006 3.75154,-1.73607 2.5288,-0.90785 3.96898,-1.89562 2.44944,-2.48943 2.7356,-2.58779 4.1054,-1.93521 2.17659,-1.242 1.56522,-1.26398 3.6346,-3.78764 1.87139,-3.24134 1.66812,-4.68598 2.22398,-2.34299 2.61275,-3.3375 2.39159,-3.69148 1.99232,-2.77334 4.98997,-4.25564 0.3602,-0.53554 0.99371,-6.49343 1.89211,-2.56614 5.21508,-3.90052 -3.73352,6.46666 -4.05819,7.02897 -4.05818,7.02898 -4.05818,7.02898 -4.05818,7.02897 -4.05818,7.02898 m -78.024557,5.43705 1.639816,0.34361 1.240488,1.24832 -0.281064,2.91008 -1.680139,-2.91008 m -39.436207,-68.305518 0.0027,-1.984257 2.921127,-7.009398 0.0096,-0.01958 h 3.137769 l -1.451764,2.956478 -1.697192,4.072499 -0.0097,7.028977"
       style="fill:#287d8e;fill-opacity:1;fill-rule:nonzero;stroke:#287d8e;stroke-width:1;stroke-linecap:butt;stroke-linejoin:round;stroke-miterlimit:10;stroke-dasharray:none;stroke-opacity:1"
       transform="matrix(1.3333333,0,0,-1.3333333,0,384)"
       clip-path="url(#clipPath16)" />
    <path
       id="path17"
       d="m 200.09673,93.240011 -0.0982,0.0643 -0.0475,0.05285 -0.5017,1.00414 -3.47844,6.024839 -0.32466,0.56232 -5.21508,3.90052 -1.89211,2.56614 -0.99371,6.49343 -0.3602,0.53554 -4.98997,4.25564 -1.99232,2.77334 -2.39159,3.69148 -2.61275,3.3375 -2.22398,2.34299 -1.66812,4.68598 -1.87139,3.24134 -3.6346,3.78764 -1.56522,1.26398 -2.17659,1.242 -4.1054,1.93521 -2.7356,2.58779 -2.44944,2.48943 -3.96898,1.89562 -2.5288,0.90785 -3.75154,1.73607 -2.73315,1.09006 -1.12592,-0.22997 -6.29333,1.43741 -4.34026,2.92255 -2.32399,-0.40741 -6.24399,1.18964 0.0762,-6.00228 -3.48386,-2.15338 -2.59174,-0.18226 -2.31251,2.33564 -3.25467,2.07968 -5.07852,4.6369 -0.42882,-0.11794 -3.809725,-6.59864 -2.378042,-4.11889 0.281064,-2.91008 -1.240488,-1.24832 -1.639816,-0.34361 -2.121001,-3.67368 5.424006,1.13656 4.103152,4.12905 -0.32732,3.38897 4.87852,1.67189 2.15084,0.21087 3.84509,-3.88357 6.25931,0.44018 3.28265,2.02902 h 3.66226 l 4.85465,0.69377 3.22203,-0.62504 3.64163,-1.54469 4.40918,-2.3814 1.75584,-0.99844 1.75615,-1.04487 4.60959,-1.9873 4.16291,-2.99837 1.73872,-0.83765 2.70596,-3.01155 2.43823,-2.13641 1.32525,-1.04337 4.39489,-3.10701 1.30685,-3.92196 2.66922,-3.24925 2.66209,-3.77973 1.05587,-3.83852 2.31357,-3.19046 2.25355,-2.95702 2.62551,-4.07195 1.40536,-3.00433 3.38192,-4.02465 -3.30447,-4.158813 -2.02533,-2.870166 -0.63342,-6.582693 0.0322,-0.446284 -0.22546,-0.780997 1.48535,-6.24798 2.38651,-1.103724 3.65486,-5.925253 h 1.04055 8.11637 8.11636 8.11637 l -4.05819,7.028977 -4.05818,7.028977 m -127.453849,32.286626 2.575103,1.25631 1.373967,1.60195 1.252054,6.15035 -3.550909,-6.15035 m -20.290909,-35.144886 0.0097,-7.028977 1.697192,-4.072499 1.451764,-2.956478 h 3.13777 l -2.893915,5.893376 -0.473256,1.135601 -0.0027,1.960003 0.15559,5.068974 0.74631,6.631111 M 193.1614,81.461968 l -0.0236,-2.162762 0.39816,-2.811591 -3.03481,0.36673 -0.99331,2.444861 -4.68344,1.780674 -4.54517,5.248303 5.41091,3.748788 4.37076,0.07279 3.93572,-3.82158"
       style="fill:#228c8d;fill-opacity:1;fill-rule:nonzero;stroke:#228c8d;stroke-width:1;stroke-linecap:butt;stroke-linejoin:round;stroke-miterlimit:10;stroke-dasharray:none;stroke-opacity:1"
       transform="matrix(1.3333333,0,0,-1.3333333,0,384)"
       clip-path="url(#clipPath18)" />
    <path
       id="path19"
       d="m 81.834545,127.62342 -1.252054,-6.15035 -1.373967,-1.60195 -2.575103,-1.25631 -2.407966,-4.17072 -0.916364,-1.58719 1.062042,1.33487 0.154928,0.25232 6.098108,2.97506 3.476977,4.05392 0.599274,2.94376 1.383179,4.08522 1.211588,5.47846 2.518237,1.55051 2.905745,3.11284 5.752638,3.91614 0.09165,0.0192 0.05292,0.0533 5.667133,4.09727 4.91024,0.16532 4.11376,-1.73739 3.36433,0.63187 0.33721,-3.22953 4.19863,-2.97213 3.79824,-0.6345 4.61616,3.60663 0.0956,2.29034 2.3282,-0.54811 7.0649,-1.66325 0.0686,-0.039 0.0671,-0.0399 5.85041,-3.76855 5.48934,-1.97071 1.16516,-0.56133 0.65447,-0.72839 3.27098,-6.53047 0.69007,-0.4985 5.18949,-3.37576 3.4664,-3.65322 0.80156,-3.01242 0.58839,-4.01656 1.19747,-6.94818 0.0745,-0.0808 -0.0512,-0.12119 -0.41781,-6.90779 0.79171,-6.260185 0.13588,-0.768795 1.09127,-2.894284 1.91801,-4.134693 0.0789,-0.675863 -0.0692,-6.353114 -0.57123,-5.24384 -0.26151,-1.785137 h 1.29216 8.11636 7.07581 l -3.65487,5.925253 -2.3865,1.103724 -1.48536,6.24798 0.22546,0.780997 -0.0322,0.446284 0.63342,6.582693 2.02533,2.870166 3.30447,4.158814 -3.38192,4.02465 -1.40536,3.00433 -2.62551,4.07195 -2.25355,2.95702 -2.31357,3.19046 -1.05587,3.83852 -2.66209,3.77973 -2.66922,3.24925 -1.30685,3.92196 -4.39489,3.10701 -1.32525,1.04337 -2.43823,2.13641 -2.70596,3.01155 -1.73872,0.83765 -4.16292,2.99837 -4.60959,1.9873 -1.75614,1.04487 -1.75585,0.99844 -4.40917,2.3814 -3.64163,1.54469 -3.22203,0.62504 -4.85465,-0.69377 h -3.66226 l -3.28265,-2.02902 -6.25931,-0.44018 -3.84509,3.88357 -2.15084,-0.21087 -4.87852,-1.67189 0.32732,-3.38897 -4.103157,-4.12905 -5.424006,-1.13656 L 90.458182,142.56 86.4,135.53102 82.341818,128.50205 m -20.520617,-35.542756 -0.74631,-6.631111 -0.15559,-5.068974 0.0027,-1.960003 0.473256,-1.135601 2.893915,-5.893376 h 1.819906 1.638881 l -0.744946,1.548341 -2.581623,5.480636 -0.373955,3.458107 0.109606,3.57087 0.318447,2.829461 0.951241,4.199516 1.93102,4.866215 0.935549,2.162765 1.004351,5.52277 -3.188571,-5.52277 -4.058182,-7.02898 m 131.945754,-7.028977 -3.93572,3.82158 -4.37076,-0.07279 -5.41091,-3.748788 4.54517,-5.248303 4.68344,-1.780674 0.99331,-2.444861 3.03481,-0.36673 -0.39816,2.811591 0.0236,2.162762"
       style="fill:#1e9c89;fill-opacity:1;fill-rule:nonzero;stroke:#1e9c89;stroke-width:1;stroke-linecap:butt;stroke-linejoin:round;stroke-miterlimit:10;stroke-dasharray:none;stroke-opacity:1"
       transform="matrix(1.3333333,0,0,-1.3333333,0,384)"
       clip-path="url(#clipPath20)" />
    <path
       id="path21"
       d="m 69.297662,105.90891 -1.004351,-5.52277 -0.935549,-2.162765 -1.93102,-4.866215 -0.951241,-4.199516 -0.318447,-2.829461 -0.109606,-3.57087 0.373955,-3.458107 2.581623,-5.480636 0.744946,-1.548341 h 3.902098 l -2.518627,5.234868 -0.845105,1.794109 -0.433497,4.008714 -0.275329,3.020263 0.698569,3.753338 0.741972,3.275639 0.468126,1.179689 2.530235,5.849291 0.529142,2.90967 3.85746,4.11931 1.089795,1.36974 3.474808,5.65923 1.072195,0.52309 1.847978,2.15462 3.753534,2.20123 2.055947,2.15004 0.162161,5.99191 0.35113,1.03707 0.06858,0.3101 0.55557,0.34207 5.247965,3.66386 4.385681,2.71294 1.4469,1.24269 3.80942,4.11272 2.81086,-1.52142 2.65227,-3.0741 6.57358,1.15241 1.5675,-1.10961 4.80508,-0.80269 2.24215,-1.0491 1.60772,-0.68645 h 6.11232 l 2.56286,-0.9679 3.73412,-2.18336 2.6397,-2.14216 3.43742,-1.38992 2.34634,-1.28415 3.6885,-2.32115 2.44013,-2.03376 0.55504,-6.8364 0.0449,-0.19258 0.1821,-0.58575 2.52161,-6.44322 0.42204,-1.34468 0.58905,-5.6843 1.79617,-4.242344 0.98064,-2.786636 1.80686,-6.443229 0.27171,-0.585748 0.15469,-1.3243 -0.49404,-5.704677 0.75753,-5.248303 -0.26086,-1.780674 h 6.05699 l 0.26151,1.785137 0.57123,5.24384 0.0692,6.353114 -0.0789,0.675863 -1.91801,4.134693 -1.09127,2.894284 -0.13588,0.768795 -0.79171,6.260185 0.41781,6.90779 0.0512,0.12119 -0.0745,0.0808 -1.19747,6.94818 -0.58839,4.01656 -0.80156,3.01242 -3.4664,3.65322 -5.18949,3.37576 -0.69007,0.4985 -3.27098,6.53047 -0.65447,0.72839 -1.16516,0.56133 -5.48934,1.97071 -5.85041,3.76855 -0.0671,0.0399 -0.0686,0.039 -7.0649,1.66325 -2.3282,0.54811 -0.0956,-2.29034 -4.61616,-3.60663 -3.79824,0.6345 -4.19863,2.97213 -0.33721,3.22953 -3.36433,-0.63187 -4.11376,1.73739 -4.91024,-0.16532 -5.667128,-4.09727 -0.05292,-0.0533 -0.09165,-0.0192 -5.752638,-3.91614 -2.905745,-3.11284 -2.518237,-1.55051 -1.211588,-5.47846 -1.383179,-4.08522 -0.599274,-2.94376 -3.476977,-4.05392 -6.098108,-2.97506 -0.154928,-0.25232 -1.062042,-1.33487 -3.141818,-5.44178 m 92.378972,-21.086937 -4.75689,4.157383 -3.90273,-1.555052 -0.82679,-2.602331 0.81524,-2.622349 3.959,-1.6125"
       style="fill:#24aa83;fill-opacity:1;fill-rule:nonzero;stroke:#24aa83;stroke-width:1;stroke-linecap:butt;stroke-linejoin:round;stroke-miterlimit:10;stroke-dasharray:none;stroke-opacity:1"
       transform="matrix(1.3333333,0,0,-1.3333333,0,384)"
       clip-path="url(#clipPath22)" />
    <path
       id="path23"
       d="m 75.31763,72.270229 0.0029,1.896708 -2.246456,5.132269 -1.131336,3.075178 -0.36043,3.953799 0.644352,3.462034 1.006806,3.566943 2.073,5.15663 1.322389,1.87235 3.423339,3.96576 3.455779,3.06322 1.49422,2.42109 4.074491,2.21504 1.858942,1.5659 0.934108,0.82694 3.975426,4.72745 4.55956,2.30153 -0.762221,5.17924 4.173871,-3.12912 6.28142,-0.92201 4.25858,5.90087 0.3366,0.19799 0.25305,0.0423 0.6729,-0.2403 5.92648,-2.3872 2.71856,0.0657 4.54655,-1.5401 4.90421,-3.16738 1.10034,-0.49039 0.75138,-0.32065 7.38417,0.35387 3.33082,-6.57181 0.49184,-0.8651 3.19505,-6.16387 -3.80706,-5.10385 -0.39936,-1.92513 0.7387,-1.337374 3.78079,-3.873767 1.89498,-0.353468 0.39685,-1.464371 -1.00996,-0.402422 -2.10535,-6.626555 2.07592,-6.677528 0.86287,-0.351449 4.82763,-3.850268 1.01755,-3.178709 h 5.26358 0.76722 l 0.26086,1.780674 -0.75753,5.248303 0.49404,5.704677 -0.15469,1.3243 -0.27171,0.585748 -1.80686,6.443229 -0.98064,2.786636 -1.79617,4.242344 -0.58905,5.6843 -0.42204,1.34468 -2.52161,6.44322 -0.1821,0.58575 -0.0449,0.19258 -0.55504,6.8364 -2.44013,2.03376 -3.6885,2.32115 -2.34634,1.28415 -3.43742,1.38992 -2.6397,2.14216 -3.73412,2.18336 -2.56286,0.9679 h -6.11232 l -1.60772,0.68645 -2.24215,1.0491 -4.80508,0.80269 -1.5675,1.10961 -6.57358,-1.15241 -2.65227,3.0741 -2.81086,1.52142 -3.80942,-4.11272 -1.4469,-1.24269 -4.38568,-2.71294 -5.247965,-3.66386 -0.55557,-0.34207 -0.06858,-0.3101 -0.35113,-1.03707 -0.162161,-5.99191 -2.055947,-2.15004 -3.753534,-2.20123 -1.847978,-2.15462 -1.072195,-0.52309 -3.474808,-5.65923 -1.089795,-1.36974 -3.85746,-4.11931 -0.529142,-2.90967 -2.530235,-5.849291 -0.468126,-1.179689 -0.741972,-3.275639 -0.698569,-3.753338 0.275329,-3.020263 0.433497,-4.008714 0.845105,-1.794109 2.518627,-5.234868 h 2.575385 m 33.384484,0 -0.37096,0.949285 -3.6089,4.352232 2.0713,-5.301517 h 0.98953 m 51.14317,9.823105 -3.959,1.6125 -0.81524,2.622349 0.82679,2.602331 3.90273,1.555052 4.75689,-4.157383"
       style="fill:#39b977;fill-opacity:1;fill-rule:nonzero;stroke:#39b977;stroke-width:1;stroke-linecap:butt;stroke-linejoin:round;stroke-miterlimit:10;stroke-dasharray:none;stroke-opacity:1"
       transform="matrix(1.3333333,0,0,-1.3333333,0,384)"
       clip-path="url(#clipPath24)" />
    <path
       id="path25"
       d="m 78.529911,72.270229 0.01003,6.585042 0.104421,0.443935 -0.02255,0.585748 -2.134426,6.443229 0.737588,5.195331 0.517565,1.833646 0.222108,0.552496 3.494952,4.948443 1.02215,1.285661 0.13613,0.24238 5.334811,4.33963 2.459888,2.68935 2.760999,2.32576 5.312741,4.70321 0.05231,0.0622 0.101368,0.0512 7.067874,1.5893 1.8823,-0.14511 5.89769,0.72772 3.15393,0.8922 4.0273,0.72751 4.5473,0.0662 4.2259,-1.20386 2.54147,-1.13267 3.83057,-1.63465 2.64917,-1.20007 3.33265,-5.8289 -0.55586,-3.41951 -0.74877,-3.60947 3.31559,-6.002625 1.00172,-1.026355 -0.13863,-2.521263 -4.03104,-1.939434 -1.93371,-1.787282 -5.48028,-0.780998 -1.94844,-0.410023 1.7558,-6.618954 1.10629,-1.661662 2.45797,-0.934006 4.94747,-0.297356 4.89796,-4.135953 h 0.83051 8.11636 2.85278 l -1.01755,3.178709 -4.82763,3.850268 -0.86287,0.351449 -2.07592,6.677528 2.10535,6.626555 1.00996,0.402422 -0.39685,1.464371 -1.89498,0.353468 -3.78079,3.873767 -0.7387,1.337374 0.39936,1.92513 3.80706,5.10385 -3.19505,6.16387 -0.49184,0.8651 -3.33082,6.57181 -7.38417,-0.35387 -0.75138,0.32065 -1.10034,0.49039 -4.90421,3.16738 -4.54655,1.5401 -2.71856,-0.0657 -5.92648,2.3872 -0.6729,0.2403 -0.25305,-0.0423 -0.3366,-0.19799 -4.25858,-5.90087 -6.28142,0.92201 -4.173876,3.12912 0.762226,-5.17924 -4.559565,-2.30153 -3.975426,-4.72745 -0.934108,-0.82694 -1.858942,-1.5659 -4.074491,-2.21504 -1.49422,-2.42109 -3.455779,-3.06322 -3.423339,-3.96576 -1.322389,-1.87235 -2.073,-5.15663 -1.006806,-3.566943 -0.644352,-3.462034 0.36043,-3.953799 1.131336,-3.075178 2.246456,-5.132269 -0.0029,-1.896708 m 30.383755,0 -2.0713,5.301517 3.6089,-4.352232 0.37096,-0.949285 h 1.54892 l -0.99617,2.549204 -3.71466,4.479773 -0.75703,1.832988 -3.62916,2.619924 0.87472,-4.452912 0.89381,-1.389716 2.20326,-5.639261"
       style="fill:#57c766;fill-opacity:1;fill-rule:nonzero;stroke:#57c766;stroke-width:1;stroke-linecap:butt;stroke-linejoin:round;stroke-miterlimit:10;stroke-dasharray:none;stroke-opacity:1"
       transform="matrix(1.3333333,0,0,-1.3333333,0,384)"
       clip-path="url(#clipPath26)" />
    <path
       id="path27"
       d="m 81.742192,72.270229 0.0016,1.035849 1.409685,5.993128 -0.231897,6.024838 0.147099,1.004139 3.541611,6.664782 6.356857,-2.319164 3.138565,-4.345618 1.632117,-1.449273 1.09607,-5.579704 2.001841,-3.112504 1.53017,-3.916473 h 1.66774 l -2.20326,5.639261 -0.89381,1.389716 -0.87472,4.452912 3.62916,-2.619924 0.75703,-1.832988 3.71466,-4.479773 0.99617,-2.549204 h 1.54893 l -1.62138,4.149123 -2.388,2.879854 -1.69549,4.105286 -4.04995,2.923691 -1.479102,1.557668 -2.629713,5.471309 -0.440651,3.268619 -5.474806,3.760361 4.869199,4.8093 6.415023,1.49254 0.76765,0.12465 0.52802,0.60249 5.09916,3.7089 4.56064,0.48145 3.30175,-0.0415 5.26689,0.8249 4.62574,-3.9015 0.95413,-0.49184 7.10492,0.59112 1.07228,-0.48574 0.39208,-0.68575 -0.17312,-1.065 -2.41852,-2.05899 -5.2385,1.26337 -2.2524,-0.18006 -3.50434,-3.90692 -0.25096,-1.08138 0.52518,-0.606424 3.16871,-6.422556 0.56053,-1.176163 1.43997,-5.852814 1.50616,-3.102295 1.04163,-3.926682 2.57481,-3.867408 5.72077,-2.173837 1.10228,-0.06625 1.09126,-0.921482 h 5.66258 l -4.89796,4.135953 -4.94747,0.297356 -2.45797,0.934006 -1.10629,1.661662 -1.7558,6.618954 1.94844,0.410023 5.48028,0.780998 1.93371,1.787282 4.03104,1.939434 0.13863,2.521263 -1.00172,1.026355 -3.31559,6.002625 0.74877,3.60947 0.55586,3.41951 -3.33265,5.8289 -2.64917,1.20007 -3.83057,1.63465 -2.54147,1.13267 -4.2259,1.20386 -4.5473,-0.0662 -4.0273,-0.72751 -3.15393,-0.8922 -5.89769,-0.72772 -1.8823,0.14511 -7.067868,-1.5893 -0.101368,-0.0512 -0.05231,-0.0622 -5.312741,-4.70321 -2.760999,-2.32576 -2.459888,-2.68935 -5.334811,-4.33963 -0.13613,-0.24238 -1.02215,-1.285661 -3.494952,-4.948443 -0.222108,-0.552496 -0.517565,-1.833646 -0.737588,-5.195331 2.134426,-6.443229 0.02255,-0.585748 -0.104421,-0.443935 -0.01003,-6.585042 m 56.199353,21.086931 0.0683,0.520665 0.3718,-0.397349 0.0652,-0.123316 -0.0889,-0.08221 -0.10344,-0.01474"
       style="fill:#7cd250;fill-opacity:1;fill-rule:nonzero;stroke:#7cd250;stroke-width:1;stroke-linecap:butt;stroke-linejoin:round;stroke-miterlimit:10;stroke-dasharray:none;stroke-opacity:1"
       transform="matrix(1.3333333,0,0,-1.3333333,0,384)"
       clip-path="url(#clipPath28)" />
    <path
       id="path29"
       d="m 88.492106,72.270229 0.01214,3.384322 -0.399806,3.644655 0.568146,3.936227 0.453063,3.09275 0.638651,1.201846 1.146318,-0.41821 0.565971,-0.783636 4.692337,-4.166661 0.56227,-2.862316 3.109878,-4.835293 0.857066,-2.193684 h 1.66775 l -1.53017,3.916473 -2.001839,3.112504 -1.09607,5.579704 -1.632117,1.449273 -3.138565,4.345618 -6.356857,2.319164 -3.541611,-6.664782 -0.147099,-1.004139 0.231897,-6.024838 -1.409685,-5.993128 -0.0016,-1.035849 H 82.3418 m 29.91489,0 -2.24659,5.749042 -1.06133,1.279935 -2.63396,6.377585 -0.90232,0.651392 -4.25242,4.478296 -1.225949,2.550681 -0.822086,6.097987 4.873405,0.930993 2.47355,0.40165 1.35917,1.55084 4.7501,1.92556 4.36788,-0.19072 -0.85573,-3.68733 4.10592,-4.741117 1.12877,-2.287863 2.56243,-5.376747 0.4065,-1.65223 3.08605,-6.356451 0.1784,-0.672526 4.04334,-6.073154 2.51539,-0.955823 h 5.04913 1.62328 l -1.09126,0.921482 -1.10228,0.06625 -5.72077,2.173837 -2.57481,3.867408 -1.04163,3.926682 -1.50616,3.102295 -1.43997,5.852814 -0.56053,1.176163 -3.16871,6.422556 -0.52518,0.606424 0.25096,1.08138 3.50434,3.90692 2.2524,0.18006 5.2385,-1.26337 2.41852,2.05899 0.17312,1.065 -0.39208,0.68575 -1.07228,0.48574 -7.10492,-0.59112 -0.95413,0.49184 -4.62574,3.9015 -5.26689,-0.8249 -3.30175,0.0415 -4.56064,-0.48145 -5.09916,-3.7089 -0.52802,-0.60249 -0.76765,-0.12465 -6.415023,-1.49254 -4.869199,-4.8093 5.474806,-3.760361 0.440651,-3.268619 2.629713,-5.471309 1.479102,-1.557668 4.04995,-2.923691 1.69549,-4.105286 2.388,-2.879854 1.62138,-4.149123 m 24.33442,20.98998 0.10344,0.01474 0.0889,0.08221 -0.0652,0.123316 -0.3718,0.397349 -0.0683,-0.520665"
       style="fill:#a4db36;fill-opacity:1;fill-rule:nonzero;stroke:#a4db36;stroke-width:1;stroke-linecap:butt;stroke-linejoin:round;stroke-miterlimit:10;stroke-dasharray:none;stroke-opacity:1"
       transform="matrix(1.3333333,0,0,-1.3333333,0,384)"
       clip-path="url(#clipPath30)" />
    <path
       id="path31"
       d="m 96.385263,72.270229 -2.141718,6.556441 -0.05184,0.472536 0.06493,0.449855 0.343397,-0.304927 0.02847,-0.144928 4.21791,-6.558081 0.183979,-0.470896 h 1.667739 l -0.857065,2.193684 -3.109878,4.835293 -0.56227,2.862316 -4.692337,4.166661 -0.565971,0.783636 -1.146318,0.41821 -0.638651,-1.201846 -0.453063,-3.09275 -0.568146,-3.936227 0.399806,-3.644655 -0.01214,-3.384322 h 1.966076 m 23.347447,0 -2.09791,5.368589 4.01057,1.660388 1.35401,3.105827 2.49411,-1.891731 0.41652,-1.214096 -0.27016,-1.467588 -0.24699,-5.561389 h 3.45786 8.11636 3.06723 l -2.51539,0.955823 -4.04334,6.073154 -0.1784,0.672526 -3.08605,6.356451 -0.4065,1.65223 -2.56243,5.376747 -1.12877,2.287863 -4.10592,4.741117 0.85573,3.68733 -4.36788,0.19072 -4.7501,-1.92556 -1.35917,-1.55084 -2.47355,-0.40165 -4.873406,-0.930993 0.822086,-6.097987 1.22595,-2.550681 4.25242,-4.478296 0.90232,-0.651392 2.63396,-6.377585 1.06133,-1.279935 2.24659,-5.749042"
       style="fill:#d0e11c;fill-opacity:1;fill-rule:nonzero;stroke:#d0e11c;stroke-width:1;stroke-linecap:butt;stroke-linejoin:round;stroke-miterlimit:10;stroke-dasharray:none;stroke-opacity:1"
       transform="matrix(1.3333333,0,0,-1.3333333,0,384)"
       clip-path="url(#clipPath32)" />
    <path
       id="path33"
       d="m 99.030396,72.270229 -0.183979,0.470896 -4.21791,6.558081 -0.02847,0.144928 -0.343397,0.304927 -0.06493,-0.449855 0.05184,-0.472536 2.141718,-6.556441 h 2.189282 m 20.89124,0 0.24699,5.561389 0.27016,1.467588 -0.41652,1.214096 -2.49411,1.891731 -1.35402,-3.105827 -4.01057,-1.660388 2.09791,-5.368589 h 1.00164"
       style="fill:#fae722;fill-opacity:1;fill-rule:nonzero;stroke:#fae722;stroke-width:1;stroke-linecap:butt;stroke-linejoin:round;stroke-miterlimit:10;stroke-dasharray:none;stroke-opacity:1"
       transform="matrix(1.3333333,0,0,-1.3333333,0,384)"
       clip-path="url(#clipPath34)" />
    <path
       id="path35"
       d="m 212.20364,72.270229 2.34757,-4.066123"
       style="fill:none;stroke:#000000;stroke-width:1;stroke-linecap:square;stroke-linejoin:round;stroke-miterlimit:10;stroke-dasharray:none;stroke-opacity:1"
       transform="matrix(1.3333333,0,0,-1.3333333,0,384)"
       clip-path="url(#clipPath36)" />
    <path
       id="path37"
       d="m 179.73818,72.270229 2.34758,-4.066123"
       style="fill:none;stroke:#000000;stroke-width:1;stroke-linecap:square;stroke-linejoin:round;stroke-miterlimit:10;stroke-dasharray:none;stroke-opacity:1"
       transform="matrix(1.3333333,0,0,-1.3333333,0,384)"
       clip-path="url(#clipPath38)" />
    <path
       id="path39"
       d="m 147.27273,72.270229 2.34757,-4.066123"
       style="fill:none;stroke:#000000;stroke-width:1;stroke-linecap:square;stroke-linejoin:round;stroke-miterlimit:10;stroke-dasharray:none;stroke-opacity:1"
       transform="matrix(1.3333333,0,0,-1.3333333,0,384)"
       clip-path="url(#clipPath40)" />
    <path
       id="path41"
       d="m 114.80727,72.270229 2.34758,-4.066123"
       style="fill:none;stroke:#000000;stroke-width:1;stroke-linecap:square;stroke-linejoin:round;stroke-miterlimit:10;stroke-dasharray:none;stroke-opacity:1"
       transform="matrix(1.3333333,0,0,-1.3333333,0,384)"
       clip-path="url(#clipPath42)" />
    <path
       id="path43"
       d="m 82.341818,72.270229 2.347577,-4.066123"
       style="fill:none;stroke:#000000;stroke-width:1;stroke-linecap:square;stroke-linejoin:round;stroke-miterlimit:10;stroke-dasharray:none;stroke-opacity:1"
       transform="matrix(1.3333333,0,0,-1.3333333,0,384)"
       clip-path="url(#clipPath44)" />
    <path
       id="path45"
       d="m 49.876364,72.270229 2.347577,-4.066123"
       style="fill:none;stroke:#000000;stroke-width:1;stroke-linecap:square;stroke-linejoin:round;stroke-miterlimit:10;stroke-dasharray:none;stroke-opacity:1"
       transform="matrix(1.3333333,0,0,-1.3333333,0,384)"
       clip-path="url(#clipPath46)" />
    <path
       id="path47"
       d="M 49.876364,72.270229 H 45.18121"
       style="fill:none;stroke:#000000;stroke-width:1;stroke-linecap:square;stroke-linejoin:round;stroke-miterlimit:10;stroke-dasharray:none;stroke-opacity:1"
       transform="matrix(1.3333333,0,0,-1.3333333,0,384)"
       clip-path="url(#clipPath48)" />
    <path
       id="path49"
       d="M 66.109091,100.38614 H 61.413937"
       style="fill:none;stroke:#000000;stroke-width:1;stroke-linecap:square;stroke-linejoin:round;stroke-miterlimit:10;stroke-dasharray:none;stroke-opacity:1"
       transform="matrix(1.3333333,0,0,-1.3333333,0,384)"
       clip-path="url(#clipPath50)" />
    <path
       id="path51"
       d="M 82.341818,128.50205 H 77.646664"
       style="fill:none;stroke:#000000;stroke-width:1;stroke-linecap:square;stroke-linejoin:round;stroke-miterlimit:10;stroke-dasharray:none;stroke-opacity:1"
       transform="matrix(1.3333333,0,0,-1.3333333,0,384)"
       clip-path="url(#clipPath52)" />
    <path
       id="path53"
       d="M 98.574545,156.61795 H 93.879391"
       style="fill:none;stroke:#000000;stroke-width:1;stroke-linecap:square;stroke-linejoin:round;stroke-miterlimit:10;stroke-dasharray:none;stroke-opacity:1"
       transform="matrix(1.3333333,0,0,-1.3333333,0,384)"
       clip-path="url(#clipPath54)" />
    <path
       id="path55"
       d="m 114.80727,184.73386 h -4.69515"
       style="fill:none;stroke:#000000;stroke-width:1;stroke-linecap:square;stroke-linejoin:round;stroke-miterlimit:10;stroke-dasharray:none;stroke-opacity:1"
       transform="matrix(1.3333333,0,0,-1.3333333,0,384)"
       clip-path="url(#clipPath56)" />
    <path
       id="path57"
       d="m 131.04,212.84977 h -4.69515"
       style="fill:none;stroke:#000000;stroke-width:1;stroke-linecap:square;stroke-linejoin:round;stroke-miterlimit:10;stroke-dasharray:none;stroke-opacity:1"
       transform="matrix(1.3333333,0,0,-1.3333333,0,384)"
       clip-path="url(#clipPath58)" />
    <path
       id="path59"
       d="m 131.04,212.84977 2.34758,4.06612"
       style="fill:none;stroke:#000000;stroke-width:1;stroke-linecap:square;stroke-linejoin:round;stroke-miterlimit:10;stroke-dasharray:none;stroke-opacity:1"
       transform="matrix(1.3333333,0,0,-1.3333333,0,384)"
       clip-path="url(#clipPath60)" />
    <path
       id="path61"
       d="m 147.27273,184.73386 2.34757,4.06612"
       style="fill:none;stroke:#000000;stroke-width:1;stroke-linecap:square;stroke-linejoin:round;stroke-miterlimit:10;stroke-dasharray:none;stroke-opacity:1"
       transform="matrix(1.3333333,0,0,-1.3333333,0,384)"
       clip-path="url(#clipPath62)" />
    <path
       id="path63"
       d="m 163.50545,156.61795 2.34758,4.06613"
       style="fill:none;stroke:#000000;stroke-width:1;stroke-linecap:square;stroke-linejoin:round;stroke-miterlimit:10;stroke-dasharray:none;stroke-opacity:1"
       transform="matrix(1.3333333,0,0,-1.3333333,0,384)"
       clip-path="url(#clipPath64)" />
    <path
       id="path65"
       d="m 179.73818,128.50205 2.34758,4.06612"
       style="fill:none;stroke:#000000;stroke-width:1;stroke-linecap:square;stroke-linejoin:round;stroke-miterlimit:10;stroke-dasharray:none;stroke-opacity:1"
       transform="matrix(1.3333333,0,0,-1.3333333,0,384)"
       clip-path="url(#clipPath66)" />
    <path
       id="path67"
       d="m 195.97091,100.38614 2.34758,4.06612"
       style="fill:none;stroke:#000000;stroke-width:1;stroke-linecap:square;stroke-linejoin:round;stroke-miterlimit:10;stroke-dasharray:none;stroke-opacity:1"
       transform="matrix(1.3333333,0,0,-1.3333333,0,384)"
       clip-path="url(#clipPath68)" />
    <path
       id="path69"
       d="m 212.20364,72.270229 2.34757,4.066123"
       style="fill:none;stroke:#000000;stroke-width:1;stroke-linecap:square;stroke-linejoin:round;stroke-miterlimit:10;stroke-dasharray:none;stroke-opacity:1"
       transform="matrix(1.3333333,0,0,-1.3333333,0,384)"
       clip-path="url(#clipPath70)" />
    <text
       id="text70"
       xml:space="preserve"
       transform="matrix(1.3333333,0,0,1.3333333,284.33752,304.9546)"><tspan
         style="font-variant:normal;font-weight:normal;font-size:12px;font-family:'DejaVu Sans';writing-mode:lr-tb;fill:#000000;fill-opacity:1;fill-rule:nonzero;stroke:none"
         x="0"
         y="0"
         id="tspan70">0</tspan></text>
    <text
       id="text71"
       xml:space="preserve"
       transform="matrix(1.3333333,0,0,1.3333333,235.9565,304.9546)"><tspan
         style="font-variant:normal;font-weight:normal;font-size:12px;font-family:'DejaVu Sans';writing-mode:lr-tb;fill:#000000;fill-opacity:1;fill-rule:nonzero;stroke:none"
         x="0 7.632"
         y="0"
         sodipodi:role="line"
         id="tspan71">20</tspan></text>
    <text
       id="text72"
       xml:space="preserve"
       transform="matrix(1.3333333,0,0,1.3333333,192.66923,304.9546)"><tspan
         style="font-variant:normal;font-weight:normal;font-size:12px;font-family:'DejaVu Sans';writing-mode:lr-tb;fill:#000000;fill-opacity:1;fill-rule:nonzero;stroke:none"
         x="0 7.632"
         y="0"
         sodipodi:role="line"
         id="tspan72">40</tspan></text>
    <text
       id="text73"
       xml:space="preserve"
       transform="matrix(1.3333333,0,0,1.3333333,149.38195,304.9546)"><tspan
         style="font-variant:normal;font-weight:normal;font-size:12px;font-family:'DejaVu Sans';writing-mode:lr-tb;fill:#000000;fill-opacity:1;fill-rule:nonzero;stroke:none"
         x="0 7.632"
         y="0"
         sodipodi:role="line"
         id="tspan73">60</tspan></text>
    <text
       id="text74"
       xml:space="preserve"
       transform="matrix(1.3333333,0,0,1.3333333,106.09468,304.9546)"><tspan
         style="font-variant:normal;font-weight:normal;font-size:12px;font-family:'DejaVu Sans';writing-mode:lr-tb;fill:#000000;fill-opacity:1;fill-rule:nonzero;stroke:none"
         x="0 7.632"
         y="0"
         sodipodi:role="line"
         id="tspan74">80</tspan></text>
    <text
       id="text75"
       xml:space="preserve"
       transform="matrix(1.3333333,0,0,1.3333333,57.713659,304.9546)"><tspan
         style="font-variant:normal;font-weight:normal;font-size:12px;font-family:'DejaVu Sans';writing-mode:lr-tb;fill:#000000;fill-opacity:1;fill-rule:nonzero;stroke:none"
         x="0 7.632 15.264"
         y="0"
         sodipodi:role="line"
         id="tspan75">100</tspan></text>
    <text
       id="text76"
       xml:space="preserve"
       transform="matrix(1.3333333,0,0,1.3333333,49.821227,290.88624)"><tspan
         style="font-variant:normal;font-weight:normal;font-size:12px;font-family:'DejaVu Sans';writing-mode:lr-tb;fill:#000000;fill-opacity:1;fill-rule:nonzero;stroke:none"
         x="0"
         y="0"
         id="tspan76">0</tspan></text>
    <text
       id="text77"
       xml:space="preserve"
       transform="matrix(1.3333333,0,0,1.3333333,61.277364,253.39836)"><tspan
         style="font-variant:normal;font-weight:normal;font-size:12px;font-family:'DejaVu Sans';writing-mode:lr-tb;fill:#000000;fill-opacity:1;fill-rule:nonzero;stroke:none"
         x="0 7.632"
         y="0"
         sodipodi:role="line"
         id="tspan77">20</tspan></text>
    <text
       id="text78"
       xml:space="preserve"
       transform="matrix(1.3333333,0,0,1.3333333,82.921,215.91048)"><tspan
         style="font-variant:normal;font-weight:normal;font-size:12px;font-family:'DejaVu Sans';writing-mode:lr-tb;fill:#000000;fill-opacity:1;fill-rule:nonzero;stroke:none"
         x="0 7.632"
         y="0"
         sodipodi:role="line"
         id="tspan78">40</tspan></text>
    <text
       id="text79"
       xml:space="preserve"
       transform="matrix(1.3333333,0,0,1.3333333,104.56464,178.42261)"><tspan
         style="font-variant:normal;font-weight:normal;font-size:12px;font-family:'DejaVu Sans';writing-mode:lr-tb;fill:#000000;fill-opacity:1;fill-rule:nonzero;stroke:none"
         x="0 7.632"
         y="0"
         sodipodi:role="line"
         id="tspan79">60</tspan></text>
    <text
       id="text80"
       xml:space="preserve"
       transform="matrix(1.3333333,0,0,1.3333333,126.20827,140.93473)"><tspan
         style="font-variant:normal;font-weight:normal;font-size:12px;font-family:'DejaVu Sans';writing-mode:lr-tb;fill:#000000;fill-opacity:1;fill-rule:nonzero;stroke:none"
         x="0 7.632"
         y="0"
         sodipodi:role="line"
         id="tspan80">80</tspan></text>
    <text
       id="text81"
       xml:space="preserve"
       transform="matrix(1.3333333,0,0,1.3333333,137.66441,103.44685)"><tspan
         style="font-variant:normal;font-weight:normal;font-size:12px;font-family:'DejaVu Sans';writing-mode:lr-tb;fill:#000000;fill-opacity:1;fill-rule:nonzero;stroke:none"
         x="0 7.632 15.264"
         y="0"
         sodipodi:role="line"
         id="tspan81">100</tspan></text>
    <text
       id="text82"
       xml:space="preserve"
       transform="matrix(1.3333333,0,0,1.3333333,177.96655,95.871578)"><tspan
         style="font-variant:normal;font-weight:normal;font-size:12px;font-family:'DejaVu Sans';writing-mode:lr-tb;fill:#000000;fill-opacity:1;fill-rule:nonzero;stroke:none"
         x="0"
         y="0"
         id="tspan82">0</tspan></text>
    <text
       id="text83"
       xml:space="preserve"
       transform="matrix(1.3333333,0,0,1.3333333,199.61018,133.35946)"><tspan
         style="font-variant:normal;font-weight:normal;font-size:12px;font-family:'DejaVu Sans';writing-mode:lr-tb;fill:#000000;fill-opacity:1;fill-rule:nonzero;stroke:none"
         x="0 7.632"
         y="0"
         sodipodi:role="line"
         id="tspan83">20</tspan></text>
    <text
       id="text84"
       xml:space="preserve"
       transform="matrix(1.3333333,0,0,1.3333333,221.25382,170.84733)"><tspan
         style="font-variant:normal;font-weight:normal;font-size:12px;font-family:'DejaVu Sans';writing-mode:lr-tb;fill:#000000;fill-opacity:1;fill-rule:nonzero;stroke:none"
         x="0 7.632"
         y="0"
         sodipodi:role="line"
         id="tspan84">40</tspan></text>
    <text
       id="text85"
       xml:space="preserve"
       transform="matrix(1.3333333,0,0,1.3333333,242.89745,208.33521)"><tspan
         style="font-variant:normal;font-weight:normal;font-size:12px;font-family:'DejaVu Sans';writing-mode:lr-tb;fill:#000000;fill-opacity:1;fill-rule:nonzero;stroke:none"
         x="0 7.632"
         y="0"
         sodipodi:role="line"
         id="tspan85">60</tspan></text>
    <text
       id="text86"
       xml:space="preserve"
       transform="matrix(1.3333333,0,0,1.3333333,264.54109,245.82309)"><tspan
         style="font-variant:normal;font-weight:normal;font-size:12px;font-family:'DejaVu Sans';writing-mode:lr-tb;fill:#000000;fill-opacity:1;fill-rule:nonzero;stroke:none"
         x="0 7.632"
         y="0"
         sodipodi:role="line"
         id="tspan86">80</tspan></text>
    <text
       id="text87"
       xml:space="preserve"
       transform="matrix(1.3333333,0,0,1.3333333,286.18473,283.31097)"><tspan
         style="font-variant:normal;font-weight:normal;font-size:12px;font-family:'DejaVu Sans';writing-mode:lr-tb;fill:#000000;fill-opacity:1;fill-rule:nonzero;stroke:none"
         x="0 7.632 15.264"
         y="0"
         sodipodi:role="line"
         id="tspan87">100</tspan></text>
    <text
       id="text88"
       xml:space="preserve"
       transform="matrix(1.3333333,0,0,1.3333333,93.47,322.35745)"><tspan
         style="font-variant:normal;font-weight:normal;font-size:12px;font-family:'DejaVu Sans';writing-mode:lr-tb;fill:#000000;fill-opacity:1;fill-rule:nonzero;stroke:none"
         x="0 8.2080002 15.828 24.035999 31.643999 35.459999 42.060001 49.403999 57.012001 61.716 69.096001 76.704002 81.407997 85.223999 89.903999 97.260002 101.964 105.78 117.18"
         y="0"
         sodipodi:role="line"
         id="tspan88">AgAu content (at.%)</tspan></text>
    <text
       id="text89"
       xml:space="preserve"
       transform="matrix(0.66666667,1.1547005,-1.1547005,0.66666667,222.06335,120.30442)"><tspan
         style="font-variant:normal;font-weight:normal;font-size:12px;font-family:'DejaVu Sans';writing-mode:lr-tb;fill:#000000;fill-opacity:1;fill-rule:nonzero;stroke:none"
         x="0 8.3760004 15.984 19.799999 26.4 33.743999 41.352001 46.056 53.436001 61.043999 65.748001 69.564003 74.244003 81.599998 86.304001 90.120003 101.52"
         y="0"
         sodipodi:role="line"
         id="tspan89">Cu content (at.%)</tspan></text>
    <text
       id="text90"
       xml:space="preserve"
       transform="matrix(0.66666667,-1.1547005,1.1547005,0.66666667,56.93915,242.30575)"><tspan
         style="font-variant:normal;font-weight:normal;font-size:12px;font-family:'DejaVu Sans';writing-mode:lr-tb;fill:#000000;fill-opacity:1;fill-rule:nonzero;stroke:none"
         x="0 7.2360001 14.856 18.672001 25.271999 32.616001 40.223999 44.928001 52.307999 59.916 64.620003 68.435997 73.115997 80.472 85.176003 88.991997 100.392"
         y="0"
         sodipodi:role="line"
         id="tspan90">Pd content (at.%)</tspan></text>
    <text
       id="text91"
       xml:space="preserve"
       transform="matrix(1.3333333,0,0,1.3333333,4.2864697,314.81338)"><tspan
         style="font-variant:normal;font-weight:normal;font-size:14px;font-family:'DejaVu Sans';writing-mode:lr-tb;fill:#000000;fill-opacity:1;fill-rule:nonzero;stroke:none"
         x="0 9.5760002 18.466 28.042"
         y="0"
         sodipodi:role="line"
         id="tspan91">AgAu</tspan></text>
    <text
       id="text92"
       xml:space="preserve"
       transform="matrix(1.3333333,0,0,1.3333333,295.92436,314.81338)"><tspan
         style="font-variant:normal;font-weight:normal;font-size:14px;font-family:'DejaVu Sans';writing-mode:lr-tb;fill:#000000;fill-opacity:1;fill-rule:nonzero;stroke:none"
         x="0 9.7720003"
         y="0"
         sodipodi:role="line"
         id="tspan92">Cu</tspan></text>
    <text
       id="text93"
       xml:space="preserve"
       transform="matrix(1.3333333,0,0,1.3333333,163.16792,79.010396)"><tspan
         style="font-variant:normal;font-weight:normal;font-size:14px;font-family:'DejaVu Sans';writing-mode:lr-tb;fill:#000000;fill-opacity:1;fill-rule:nonzero;stroke:none"
         x="0 8.4420004"
         y="0"
         sodipodi:role="line"
         id="tspan93">Pd</tspan></text>
    <path
       id="path93"
       d="m 225.72,125.928 h 5.544 v 110.88 h -5.544 z"
       style="fill:#ffffff;fill-opacity:1;fill-rule:nonzero;stroke:none"
       transform="matrix(1.3333333,0,0,-1.3333333,0,384)" />
    <path
       id="path94"
       d="m 225.72,125.928 h 5.544 v 8.52923 H 225.72 V 125.928"
       style="fill:#3d4c8a;fill-opacity:1;fill-rule:nonzero;stroke:none"
       transform="matrix(1.3333333,0,0,-1.3333333,0,384)"
       clip-path="url(#clipPath95)" />
    <path
       id="path96"
       d="m 225.72,134.45723 h 5.544 v 8.52923 h -5.544 v -8.52923"
       style="fill:#355e8d;fill-opacity:1;fill-rule:nonzero;stroke:none"
       transform="matrix(1.3333333,0,0,-1.3333333,0,384)"
       clip-path="url(#clipPath97)" />
    <path
       id="path98"
       d="m 225.72,142.98646 h 5.544 v 8.52923 h -5.544 v -8.52923"
       style="fill:#2e6d8e;fill-opacity:1;fill-rule:nonzero;stroke:none"
       transform="matrix(1.3333333,0,0,-1.3333333,0,384)"
       clip-path="url(#clipPath99)" />
    <path
       id="path100"
       d="m 225.72,151.51569 h 5.544 v 8.52923 h -5.544 v -8.52923"
       style="fill:#287d8e;fill-opacity:1;fill-rule:nonzero;stroke:none"
       transform="matrix(1.3333333,0,0,-1.3333333,0,384)"
       clip-path="url(#clipPath101)" />
    <path
       id="path102"
       d="m 225.72,160.04492 h 5.544 v 8.52923 h -5.544 v -8.52923"
       style="fill:#228c8d;fill-opacity:1;fill-rule:nonzero;stroke:none"
       transform="matrix(1.3333333,0,0,-1.3333333,0,384)"
       clip-path="url(#clipPath103)" />
    <path
       id="path104"
       d="m 225.72,168.57415 h 5.544 v 8.52923 h -5.544 v -8.52923"
       style="fill:#1e9c89;fill-opacity:1;fill-rule:nonzero;stroke:none"
       transform="matrix(1.3333333,0,0,-1.3333333,0,384)"
       clip-path="url(#clipPath105)" />
    <path
       id="path106"
       d="m 225.72,177.10338 h 5.544 v 8.52923 h -5.544 v -8.52923"
       style="fill:#24aa83;fill-opacity:1;fill-rule:nonzero;stroke:none"
       transform="matrix(1.3333333,0,0,-1.3333333,0,384)"
       clip-path="url(#clipPath107)" />
    <path
       id="path108"
       d="m 225.72,185.63261 h 5.544 v 8.52924 h -5.544 v -8.52924"
       style="fill:#39b977;fill-opacity:1;fill-rule:nonzero;stroke:none"
       transform="matrix(1.3333333,0,0,-1.3333333,0,384)"
       clip-path="url(#clipPath109)" />
    <path
       id="path110"
       d="m 225.72,194.16185 h 5.544 v 8.52923 h -5.544 v -8.52923"
       style="fill:#57c766;fill-opacity:1;fill-rule:nonzero;stroke:none"
       transform="matrix(1.3333333,0,0,-1.3333333,0,384)"
       clip-path="url(#clipPath111)" />
    <path
       id="path112"
       d="m 225.72,202.69108 h 5.544 v 8.52923 h -5.544 v -8.52923"
       style="fill:#7cd250;fill-opacity:1;fill-rule:nonzero;stroke:none"
       transform="matrix(1.3333333,0,0,-1.3333333,0,384)"
       clip-path="url(#clipPath113)" />
    <path
       id="path114"
       d="m 225.72,211.22031 h 5.544 v 8.52923 h -5.544 v -8.52923"
       style="fill:#a4db36;fill-opacity:1;fill-rule:nonzero;stroke:none"
       transform="matrix(1.3333333,0,0,-1.3333333,0,384)"
       clip-path="url(#clipPath115)" />
    <path
       id="path116"
       d="m 225.72,219.74954 h 5.544 v 8.52923 h -5.544 v -8.52923"
       style="fill:#d0e11c;fill-opacity:1;fill-rule:nonzero;stroke:none"
       transform="matrix(1.3333333,0,0,-1.3333333,0,384)"
       clip-path="url(#clipPath117)" />
    <path
       id="path118"
       d="m 225.72,228.27877 h 5.544 v 8.52923 h -5.544 v -8.52923"
       style="fill:#fae722;fill-opacity:1;fill-rule:nonzero;stroke:none"
       transform="matrix(1.3333333,0,0,-1.3333333,0,384)"
       clip-path="url(#clipPath119)" />
    <path
       id="path120"
       d="m 231.264,125.928 h 3.5"
       style="fill:#000000;fill-opacity:1;fill-rule:nonzero;stroke:#000000;stroke-width:0.8;stroke-linecap:butt;stroke-linejoin:round;stroke-miterlimit:10;stroke-dasharray:none;stroke-opacity:1"
       transform="matrix(1.3333333,0,0,-1.3333333,0,384)" />
    <text
       id="text120"
       xml:space="preserve"
       transform="matrix(1.3333333,0,0,1.3333333,317.68533,221.1585)"><tspan
         style="font-variant:normal;font-weight:normal;font-size:10px;font-family:'DejaVu Sans';writing-mode:lr-tb;fill:#000000;fill-opacity:1;fill-rule:nonzero;stroke:none"
         x="0 6.3600001 9.54 15.9"
         y="0"
         sodipodi:role="line"
         id="tspan120">0.00</tspan></text>
    <path
       id="path121"
       d="m 231.264,142.98646 h 3.5"
       style="fill:#000000;fill-opacity:1;fill-rule:nonzero;stroke:#000000;stroke-width:0.8;stroke-linecap:butt;stroke-linejoin:round;stroke-miterlimit:10;stroke-dasharray:none;stroke-opacity:1"
       transform="matrix(1.3333333,0,0,-1.3333333,0,384)" />
    <text
       id="text121"
       xml:space="preserve"
       transform="matrix(1.3333333,0,0,1.3333333,317.68533,198.41388)"><tspan
         style="font-variant:normal;font-weight:normal;font-size:10px;font-family:'DejaVu Sans';writing-mode:lr-tb;fill:#000000;fill-opacity:1;fill-rule:nonzero;stroke:none"
         x="0 6.3600001 9.54 15.9"
         y="0"
         sodipodi:role="line"
         id="tspan121">0.03</tspan></text>
    <path
       id="path122"
       d="m 231.264,160.04492 h 3.5"
       style="fill:#000000;fill-opacity:1;fill-rule:nonzero;stroke:#000000;stroke-width:0.8;stroke-linecap:butt;stroke-linejoin:round;stroke-miterlimit:10;stroke-dasharray:none;stroke-opacity:1"
       transform="matrix(1.3333333,0,0,-1.3333333,0,384)" />
    <text
       id="text122"
       xml:space="preserve"
       transform="matrix(1.3333333,0,0,1.3333333,317.68533,175.66927)"><tspan
         style="font-variant:normal;font-weight:normal;font-size:10px;font-family:'DejaVu Sans';writing-mode:lr-tb;fill:#000000;fill-opacity:1;fill-rule:nonzero;stroke:none"
         x="0 6.3600001 9.54 15.9"
         y="0"
         sodipodi:role="line"
         id="tspan122">0.06</tspan></text>
    <path
       id="path123"
       d="m 231.264,177.10338 h 3.5"
       style="fill:#000000;fill-opacity:1;fill-rule:nonzero;stroke:#000000;stroke-width:0.8;stroke-linecap:butt;stroke-linejoin:round;stroke-miterlimit:10;stroke-dasharray:none;stroke-opacity:1"
       transform="matrix(1.3333333,0,0,-1.3333333,0,384)" />
    <text
       id="text123"
       xml:space="preserve"
       transform="matrix(1.3333333,0,0,1.3333333,317.68533,152.92465)"><tspan
         style="font-variant:normal;font-weight:normal;font-size:10px;font-family:'DejaVu Sans';writing-mode:lr-tb;fill:#000000;fill-opacity:1;fill-rule:nonzero;stroke:none"
         x="0 6.3600001 9.54 15.9"
         y="0"
         sodipodi:role="line"
         id="tspan123">0.09</tspan></text>
    <path
       id="path124"
       d="m 231.264,194.16185 h 3.5"
       style="fill:#000000;fill-opacity:1;fill-rule:nonzero;stroke:#000000;stroke-width:0.8;stroke-linecap:butt;stroke-linejoin:round;stroke-miterlimit:10;stroke-dasharray:none;stroke-opacity:1"
       transform="matrix(1.3333333,0,0,-1.3333333,0,384)" />
    <text
       id="text124"
       xml:space="preserve"
       transform="matrix(1.3333333,0,0,1.3333333,317.68533,130.18004)"><tspan
         style="font-variant:normal;font-weight:normal;font-size:10px;font-family:'DejaVu Sans';writing-mode:lr-tb;fill:#000000;fill-opacity:1;fill-rule:nonzero;stroke:none"
         x="0 6.3600001 9.54 15.9"
         y="0"
         sodipodi:role="line"
         id="tspan124">0.12</tspan></text>
    <path
       id="path125"
       d="m 231.264,211.22031 h 3.5"
       style="fill:#000000;fill-opacity:1;fill-rule:nonzero;stroke:#000000;stroke-width:0.8;stroke-linecap:butt;stroke-linejoin:round;stroke-miterlimit:10;stroke-dasharray:none;stroke-opacity:1"
       transform="matrix(1.3333333,0,0,-1.3333333,0,384)" />
    <text
       id="text125"
       xml:space="preserve"
       transform="matrix(1.3333333,0,0,1.3333333,317.68533,107.43542)"><tspan
         style="font-variant:normal;font-weight:normal;font-size:10px;font-family:'DejaVu Sans';writing-mode:lr-tb;fill:#000000;fill-opacity:1;fill-rule:nonzero;stroke:none"
         x="0 6.3600001 9.54 15.9"
         y="0"
         sodipodi:role="line"
         id="tspan125">0.15</tspan></text>
    <path
       id="path126"
       d="m 231.264,228.27877 h 3.5"
       style="fill:#000000;fill-opacity:1;fill-rule:nonzero;stroke:#000000;stroke-width:0.8;stroke-linecap:butt;stroke-linejoin:round;stroke-miterlimit:10;stroke-dasharray:none;stroke-opacity:1"
       transform="matrix(1.3333333,0,0,-1.3333333,0,384)" />
    <text
       id="text126"
       xml:space="preserve"
       transform="matrix(1.3333333,0,0,1.3333333,317.68533,84.690808)"><tspan
         style="font-variant:normal;font-weight:normal;font-size:10px;font-family:'DejaVu Sans';writing-mode:lr-tb;fill:#000000;fill-opacity:1;fill-rule:nonzero;stroke:none"
         x="0 6.3600001 9.54 15.9"
         y="0"
         sodipodi:role="line"
         id="tspan126">0.18</tspan></text>
    <path
       id="path127"
       d="m 225.72,125.928 h 2.772 2.772 v 110.88 h -2.772 -2.772 z"
       style="fill:none;stroke:#000000;stroke-width:0.8;stroke-linecap:square;stroke-linejoin:miter;stroke-miterlimit:10;stroke-dasharray:none;stroke-opacity:1"
       transform="matrix(1.3333333,0,0,-1.3333333,0,384)" />
  </g>
  <g
     inkscape:groupmode="layer"
     id="layer6"
     inkscape:label="2">
    <path
       id="path5"
       d="m 131.04,212.84977 38.31615,-66.36551 20.76043,-35.95812 22.08706,-38.255911"
       style="display:inline;fill:none;stroke:#000000;stroke-width:1.12500003;stroke-linecap:square;stroke-linejoin:round;stroke-miterlimit:10;stroke-dasharray:none;stroke-opacity:1"
       transform="matrix(1.3333333,0,0,-1.3333333,0,384)"
       clip-path="url(#clipPath6)"
       sodipodi:nodetypes="cccc" />
  </g>
</svg>
