<?xml version="1.0" encoding="utf-8" standalone="no"?>
<!DOCTYPE svg PUBLIC "-//W3C//DTD SVG 1.1//EN"
  "http://www.w3.org/Graphics/SVG/1.1/DTD/svg11.dtd">
<svg xmlns:xlink="http://www.w3.org/1999/xlink" width="271.70696pt" height="210.047792pt" viewBox="0 0 271.70696 210.047792" xmlns="http://www.w3.org/2000/svg" version="1.1">
 <metadata>
  <rdf:RDF xmlns:dc="http://purl.org/dc/elements/1.1/" xmlns:cc="http://creativecommons.org/ns#" xmlns:rdf="http://www.w3.org/1999/02/22-rdf-syntax-ns#">
   <cc:Work>
    <dc:type rdf:resource="http://purl.org/dc/dcmitype/StillImage"/>
    <dc:date>2024-01-11T13:13:53.630733</dc:date>
    <dc:format>image/svg+xml</dc:format>
    <dc:creator>
     <cc:Agent>
      <dc:title>Matplotlib v3.7.0, https://matplotlib.org/</dc:title>
     </cc:Agent>
    </dc:creator>
   </cc:Work>
  </rdf:RDF>
 </metadata>
 <defs>
  <style type="text/css">*{stroke-linejoin: round; stroke-linecap: butt}</style>
 </defs>
 <g id="figure_1">
  <g id="patch_1">
   <path d="M 0 210.047792 
L 271.70696 210.047792 
L 271.70696 0 
L 0 0 
z
" style="fill: #ffffff"/>
  </g>
  <g id="axes_1">
   <g id="patch_2">
    <path d="M 45.737335 182.431462 
L 224.297335 182.431462 
L 224.297335 25.619193 
L 45.737335 25.619193 
z
" style="fill: #ffffff"/>
   </g>
   <g id="PathCollection_1">
    <defs>
     <path id="m1ec8f0caa2" d="M 121.856095 -153.516298 
L 125.904872 -148.196327 
L 126.358541 -147.25681 
L 127.975196 -146.335715 
L 128.875222 -148.196327 
L 129.008104 -151.845988 
L 128.626865 -155.225304 
L 128.75362 -159.0454 
L 131.751767 -156.598151 
L 133.318561 -155.225304 
L 137.368282 -152.268286 
L 141.38906 -148.196327 
L 142.314943 -146.7782 
L 144.800452 -145.309425 
L 148.191284 -142.898366 
L 150.34294 -141.16735 
L 154.278852 -139.38439 
L 158.946614 -134.865508 
L 155.308244 -141.16735 
L 151.250063 -148.196327 
L 147.191881 -155.225304 
L 143.133699 -162.254281 
L 139.075517 -169.283258 
L 135.017335 -176.312235 
L 130.959153 -169.283258 
L 126.900972 -162.254281 
L 122.84279 -155.225304 
M 56.565179 -35.732693 
L 55.410546 -38.429232 
L 53.853699 -35.732693 
" style="stroke: #3d4c8a"/>
    </defs>
    <g clip-path="url(#p23d98cd176)">
     <use xlink:href="#m1ec8f0caa2" x="0" y="210.047792" style="fill: #3d4c8a; stroke: #3d4c8a"/>
    </g>
   </g>
   <g id="PathCollection_2">
    <defs>
     <path id="m50c1f4165a" d="M 158.946614 -134.865508 
L 154.278852 -139.38439 
L 150.34294 -141.16735 
L 148.191284 -142.898366 
L 144.800452 -145.309425 
L 142.314943 -146.7782 
L 141.38906 -148.196327 
L 137.368282 -152.268286 
L 133.318561 -155.225304 
L 131.751767 -156.598151 
L 128.75362 -159.0454 
L 128.626865 -155.225304 
L 129.008104 -151.845988 
L 128.875222 -148.196327 
L 127.975196 -146.335715 
L 126.358541 -147.25681 
L 125.904872 -148.196327 
L 121.856095 -153.516298 
L 119.468929 -149.381605 
L 120.370988 -148.196327 
L 123.34504 -142.037273 
L 124.871881 -141.16735 
L 129.612412 -138.834724 
L 132.897775 -137.809558 
L 137.377413 -138.226146 
L 141.232569 -137.431227 
L 144.38237 -136.301135 
L 151.148608 -134.314097 
L 151.309451 -134.241236 
L 151.415703 -134.138373 
L 157.047465 -130.121814 
L 161.849791 -127.109395 
L 162.902268 -126.204676 
L 164.910703 -124.535404 
L 163.424608 -127.109395 
L 159.366426 -134.138373 
M 109.498938 -132.113074 
L 114.537673 -127.109395 
L 114.661272 -126.996545 
L 114.867756 -126.864605 
L 114.919673 -127.109395 
L 114.861699 -127.343695 
L 113.66777 -134.138373 
L 112.599939 -137.484166 
L 110.668244 -134.138373 
M 55.410546 -38.429232 
L 56.565179 -35.732693 
L 59.276659 -35.732693 
L 56.967393 -41.12577 
" style="stroke: #355e8d"/>
    </defs>
    <g clip-path="url(#p23d98cd176)">
     <use xlink:href="#m50c1f4165a" x="0" y="210.047792" style="fill: #355e8d; stroke: #355e8d"/>
    </g>
   </g>
   <g id="PathCollection_3">
    <defs>
     <path id="m57fc5e3395" d="M 164.910703 -124.535404 
L 162.902268 -126.204676 
L 161.849791 -127.109395 
L 157.047465 -130.121814 
L 151.415703 -134.138373 
L 151.309451 -134.241236 
L 151.148608 -134.314097 
L 144.38237 -136.301135 
L 141.232569 -137.431227 
L 137.377413 -138.226146 
L 132.897775 -137.809558 
L 129.612412 -138.834724 
L 124.871881 -141.16735 
L 123.34504 -142.037273 
L 120.370988 -148.196327 
L 119.468929 -149.381605 
L 118.784608 -148.196327 
L 114.726426 -141.16735 
L 112.599939 -137.484166 
L 113.66777 -134.138373 
L 114.861699 -127.343695 
L 114.919673 -127.109395 
L 114.867756 -126.864605 
L 114.661272 -126.996545 
L 114.537673 -127.109395 
L 109.498938 -132.113074 
L 108.025022 -129.560177 
L 110.492974 -127.109395 
L 113.265108 -124.578319 
L 117.89625 -121.6191 
L 119.060675 -127.109395 
L 117.7604 -132.364393 
L 117.448685 -134.138373 
L 115.797335 -139.312481 
L 119.992943 -136.23127 
L 126.868764 -134.194158 
L 126.918928 -134.169474 
L 127.0186 -134.138373 
L 133.509377 -131.526512 
L 136.354424 -127.109395 
L 138.313787 -125.79004 
L 140.068659 -125.389224 
L 147.018269 -126.808691 
L 147.469363 -126.628782 
L 154.179479 -125.154316 
L 157.814768 -122.767968 
L 159.888766 -120.985138 
L 160.977307 -120.080418 
L 165.128596 -116.002835 
L 168.883401 -113.051441 
L 170.882407 -111.910774 
L 173.350041 -109.918042 
L 171.540972 -113.051441 
L 167.48279 -120.080418 
M 56.967393 -41.12577 
L 59.276659 -35.732693 
L 61.970063 -35.732693 
L 61.990981 -35.732693 
L 61.981367 -35.752273 
L 59.060239 -42.76167 
L 59.057492 -44.745927 
L 57.911881 -42.76167 
" style="stroke: #2e6d8e"/>
    </defs>
    <g clip-path="url(#p23d98cd176)">
     <use xlink:href="#m57fc5e3395" x="0" y="210.047792" style="fill: #2e6d8e; stroke: #2e6d8e"/>
    </g>
   </g>
   <g id="PathCollection_4">
    <defs>
     <path id="m8a26142182" d="M 203.426686 -57.823764 
L 203.928384 -56.819624 
L 203.975913 -56.766775 
L 204.074063 -56.702475 
L 204.006426 -56.819624 
M 173.350041 -109.918042 
L 170.882407 -111.910774 
L 168.883401 -113.051441 
L 165.128596 -116.002835 
L 160.977307 -120.080418 
L 159.888766 -120.985138 
L 157.814768 -122.767968 
L 154.179479 -125.154316 
L 147.469363 -126.628782 
L 147.018269 -126.808691 
L 140.068659 -125.389224 
L 138.313787 -125.79004 
L 136.354424 -127.109395 
L 133.509377 -131.526512 
L 127.0186 -134.138373 
L 126.918928 -134.169474 
L 126.868764 -134.194158 
L 119.992943 -136.23127 
L 115.797335 -139.312481 
L 117.448685 -134.138373 
L 117.7604 -132.364393 
L 119.060675 -127.109395 
L 117.89625 -121.6191 
L 113.265108 -124.578319 
L 110.492974 -127.109395 
L 108.025022 -129.560177 
L 106.610063 -127.109395 
L 106.361602 -126.67905 
L 106.790426 -126.796996 
L 111.868945 -122.160093 
L 115.12361 -120.080418 
L 117.436121 -117.744771 
L 120.027866 -117.927032 
L 123.511721 -120.080418 
L 123.435558 -126.082691 
L 129.679547 -124.893051 
L 132.003538 -125.300467 
L 136.343796 -122.377916 
L 142.637128 -120.940504 
L 143.763043 -121.170474 
L 146.496192 -120.080418 
L 150.24774 -118.344346 
L 152.776535 -117.436491 
L 156.745517 -115.540871 
L 159.194954 -113.051441 
L 161.930551 -110.463659 
L 166.03596 -108.528447 
L 168.212551 -107.286447 
L 169.777762 -106.022464 
L 173.412361 -102.234829 
L 175.283751 -98.993487 
L 176.951881 -94.307502 
L 179.175856 -91.96451 
L 181.788611 -88.62701 
L 184.180194 -84.935533 
L 186.172511 -82.162195 
L 191.16249 -77.906556 
L 191.522686 -77.371015 
L 192.516393 -70.877579 
L 194.408504 -68.311444 
L 199.62359 -64.41092 
L 195.890063 -70.877579 
L 191.831881 -77.906556 
L 187.773699 -84.935533 
L 183.715517 -91.96451 
L 179.657335 -98.993487 
L 175.599153 -106.022464 
M 97.574598 -111.459513 
L 99.214414 -111.803126 
L 100.454902 -113.051441 
L 100.173838 -115.961527 
L 98.493699 -113.051441 
M 59.057492 -44.745927 
L 59.060239 -42.76167 
L 61.981367 -35.752273 
L 61.990981 -35.732693 
L 65.12875 -35.732693 
L 63.676986 -38.689171 
L 61.979794 -42.76167 
L 61.970063 -49.790647 
" style="stroke: #287d8e"/>
    </defs>
    <g clip-path="url(#p23d98cd176)">
     <use xlink:href="#m8a26142182" x="0" y="210.047792" style="fill: #287d8e; stroke: #287d8e"/>
    </g>
   </g>
   <g id="PathCollection_5">
    <defs>
     <path id="m86d6aaf884" d="M 204.074063 -56.702475 
L 203.975913 -56.766775 
L 203.928384 -56.819624 
L 203.426686 -57.823764 
L 199.948244 -63.848602 
L 199.62359 -64.41092 
L 194.408504 -68.311444 
L 192.516393 -70.877579 
L 191.522686 -77.371015 
L 191.16249 -77.906556 
L 186.172511 -82.162195 
L 184.180194 -84.935533 
L 181.788611 -88.62701 
L 179.175856 -91.96451 
L 176.951881 -94.307502 
L 175.283751 -98.993487 
L 173.412361 -102.234829 
L 169.777762 -106.022464 
L 168.212551 -107.286447 
L 166.03596 -108.528447 
L 161.930551 -110.463659 
L 159.194954 -113.051441 
L 156.745517 -115.540871 
L 152.776535 -117.436491 
L 150.24774 -118.344346 
L 146.496192 -120.080418 
L 143.763043 -121.170474 
L 142.637128 -120.940504 
L 136.343796 -122.377916 
L 132.003538 -125.300467 
L 129.679547 -124.893051 
L 123.435558 -126.082691 
L 123.511721 -120.080418 
L 120.027866 -117.927032 
L 117.436121 -117.744771 
L 115.12361 -120.080418 
L 111.868945 -122.160093 
L 106.790426 -126.796996 
L 106.361602 -126.67905 
L 102.551881 -120.080418 
L 100.173838 -115.961527 
L 100.454902 -113.051441 
L 99.214414 -111.803126 
L 97.574598 -111.459513 
L 95.453598 -107.785831 
L 100.877603 -108.922397 
L 104.980755 -113.051441 
L 104.653439 -116.440412 
L 109.531953 -118.112305 
L 111.68279 -118.323174 
L 115.527885 -114.439609 
L 121.787193 -114.879788 
L 125.069841 -116.908807 
L 128.732102 -116.908807 
L 133.586753 -117.602577 
L 136.808785 -116.977537 
L 140.45042 -115.432843 
L 144.859592 -113.051441 
L 146.615434 -112.053007 
L 148.371585 -111.008134 
L 152.981175 -109.020839 
L 157.144088 -106.022464 
L 158.882809 -105.184814 
L 161.588764 -102.173262 
L 164.026994 -100.036851 
L 165.352244 -98.993487 
L 169.747138 -95.886475 
L 171.05399 -91.96451 
L 173.723201 -88.715266 
L 176.385293 -84.935533 
L 177.441165 -81.097013 
L 179.754732 -77.906556 
L 182.008282 -74.949538 
L 184.633792 -70.877579 
L 186.039153 -67.873258 
L 189.42108 -63.848602 
L 186.116608 -59.68979 
L 184.091275 -56.819624 
L 183.457855 -50.236932 
L 183.490063 -49.790647 
L 183.264608 -49.00965 
L 184.749956 -42.76167 
L 187.136464 -41.657947 
L 190.791321 -35.732693 
L 191.831881 -35.732693 
L 199.948244 -35.732693 
L 208.064608 -35.732693 
L 216.180972 -35.732693 
L 212.12279 -42.76167 
L 208.064608 -49.790647 
M 80.610757 -82.077277 
L 83.18586 -83.33358 
L 84.559826 -84.935533 
L 85.811881 -91.085888 
L 82.260972 -84.935533 
M 61.970063 -49.790647 
L 61.979794 -42.76167 
L 63.676986 -38.689171 
L 65.12875 -35.732693 
L 68.26652 -35.732693 
L 65.372605 -41.62607 
L 64.89935 -42.76167 
L 64.896636 -44.721674 
L 65.052226 -49.790647 
L 65.798536 -56.421758 
M 197.138734 -44.924432 
L 197.115174 -42.76167 
L 197.513335 -39.950079 
L 194.478521 -40.316809 
L 193.485214 -42.76167 
L 188.801772 -44.542344 
L 184.256608 -49.790647 
L 189.667517 -53.539435 
L 194.038271 -53.612227 
L 197.973994 -49.790647 
" style="stroke: #228c8d"/>
    </defs>
    <g clip-path="url(#p23d98cd176)">
     <use xlink:href="#m86d6aaf884" x="0" y="210.047792" style="fill: #228c8d; stroke: #228c8d"/>
    </g>
   </g>
   <g id="PathCollection_6">
    <defs>
     <path id="mcfaecff9f6" d="M 85.811881 -91.085888 
L 84.559826 -84.935533 
L 83.18586 -83.33358 
L 80.610757 -82.077277 
L 78.20279 -77.906556 
L 77.286426 -76.319367 
L 78.348468 -77.654233 
L 78.503396 -77.906556 
L 84.601504 -80.881611 
L 88.078481 -84.935533 
L 88.677755 -87.879292 
L 90.060935 -91.96451 
L 91.272522 -97.442977 
L 93.790759 -98.993487 
L 96.696504 -102.10632 
L 102.449142 -106.022464 
L 102.540793 -106.041669 
L 102.593718 -106.094928 
L 108.260848 -110.192196 
L 113.171088 -110.357516 
L 117.284845 -108.62013 
L 120.649178 -109.251994 
L 120.986387 -106.022464 
L 125.185012 -103.050335 
L 128.98326 -102.415835 
L 133.599416 -106.022464 
L 133.695006 -108.312805 
L 136.023209 -107.764689 
L 143.088101 -106.101441 
L 143.156757 -106.062402 
L 143.223881 -106.022464 
L 149.07429 -102.253916 
L 154.563624 -100.283208 
L 155.728781 -99.721878 
L 156.383259 -98.993487 
L 159.65424 -92.463019 
L 160.344301 -91.96451 
L 165.533795 -88.588751 
L 169.000197 -84.935533 
L 169.801751 -81.923114 
L 170.390144 -77.906556 
L 171.587617 -70.958371 
L 171.662111 -70.877579 
L 171.61094 -70.756389 
L 171.193127 -63.848602 
L 171.984835 -57.588419 
L 172.120712 -56.819624 
L 173.211988 -53.92534 
L 175.129999 -49.790647 
L 175.208944 -49.114784 
L 175.139737 -42.76167 
L 174.568504 -37.51783 
L 174.306996 -35.732693 
L 175.599153 -35.732693 
L 183.715517 -35.732693 
L 190.791321 -35.732693 
L 187.136464 -41.657947 
L 184.749956 -42.76167 
L 183.264608 -49.00965 
L 183.490063 -49.790647 
L 183.457855 -50.236932 
L 184.091275 -56.819624 
L 186.116608 -59.68979 
L 189.42108 -63.848602 
L 186.039153 -67.873258 
L 184.633792 -70.877579 
L 182.008282 -74.949538 
L 179.754732 -77.906556 
L 177.441165 -81.097013 
L 176.385293 -84.935533 
L 173.723201 -88.715266 
L 171.05399 -91.96451 
L 169.747138 -95.886475 
L 165.352244 -98.993487 
L 164.026994 -100.036851 
L 161.588764 -102.173262 
L 158.882809 -105.184814 
L 157.144088 -106.022464 
L 152.981175 -109.020839 
L 148.371585 -111.008134 
L 146.615434 -112.053007 
L 144.859592 -113.051441 
L 140.45042 -115.432843 
L 136.808785 -116.977537 
L 133.586753 -117.602577 
L 128.732102 -116.908807 
L 125.069841 -116.908807 
L 121.787193 -114.879788 
L 115.527885 -114.439609 
L 111.68279 -118.323174 
L 109.531953 -118.112305 
L 104.653439 -116.440412 
L 104.980755 -113.051441 
L 100.877603 -108.922397 
L 95.453598 -107.785831 
L 94.435517 -106.022464 
L 90.377335 -98.993487 
L 86.319153 -91.96451 
M 65.798536 -56.421758 
L 65.052226 -49.790647 
L 64.896636 -44.721674 
L 64.89935 -42.76167 
L 65.372605 -41.62607 
L 68.26652 -35.732693 
L 70.086426 -35.732693 
L 71.725307 -35.732693 
L 70.980361 -37.281034 
L 68.398738 -42.76167 
L 68.024783 -46.219777 
L 68.134389 -49.790647 
L 68.452836 -52.620108 
L 69.404077 -56.819624 
L 71.335097 -61.685839 
L 72.270646 -63.848602 
L 73.274998 -69.371369 
L 70.086426 -63.848602 
L 66.028244 -56.819624 
M 197.973994 -49.790647 
L 194.038271 -53.612227 
L 189.667517 -53.539435 
L 184.256608 -49.790647 
L 188.801772 -44.542344 
L 193.485214 -42.76167 
L 194.478521 -40.316809 
L 197.513335 -39.950079 
L 197.115174 -42.76167 
L 197.138734 -44.924432 
" style="stroke: #1e9c89"/>
    </defs>
    <g clip-path="url(#p23d98cd176)">
     <use xlink:href="#mcfaecff9f6" x="0" y="210.047792" style="fill: #1e9c89; stroke: #1e9c89"/>
    </g>
   </g>
   <g id="PathCollection_7">
    <defs>
     <path id="m73fb5ef161" d="M 73.274998 -69.371369 
L 72.270646 -63.848602 
L 71.335097 -61.685839 
L 69.404077 -56.819624 
L 68.452836 -52.620108 
L 68.134389 -49.790647 
L 68.024783 -46.219777 
L 68.398738 -42.76167 
L 70.980361 -37.281034 
L 71.725307 -35.732693 
L 75.627405 -35.732693 
L 73.108778 -40.967561 
L 72.263673 -42.76167 
L 71.830176 -46.770384 
L 71.554847 -49.790647 
L 72.253416 -53.543985 
L 72.995388 -56.819624 
L 73.463515 -57.999313 
L 75.993749 -63.848602 
L 76.522891 -66.758271 
L 80.380351 -70.877579 
L 81.470146 -72.247328 
L 84.944954 -77.906556 
L 86.017149 -78.429642 
L 87.865127 -80.584261 
L 91.618661 -82.785493 
L 93.674608 -84.935533 
L 93.836769 -90.927448 
L 94.187899 -91.96451 
L 94.25648 -92.274612 
L 94.812049 -92.616683 
L 100.060015 -96.280549 
L 104.445699 -98.993487 
L 105.892594 -100.236179 
L 109.702011 -104.348898 
L 112.512872 -102.827475 
L 115.165148 -99.753376 
L 121.738726 -100.905782 
L 123.306224 -99.796179 
L 128.111307 -98.993487 
L 130.353455 -97.944386 
L 131.961174 -97.257937 
L 138.073497 -97.257937 
L 140.636356 -96.290034 
L 144.370478 -94.106674 
L 147.010171 -91.96451 
L 150.447597 -90.574599 
L 152.793936 -89.290443 
L 156.482439 -86.969298 
L 158.922563 -84.935533 
L 159.477609 -78.09913 
L 159.52251 -77.906556 
L 159.704608 -77.320808 
L 162.226219 -70.877579 
L 162.64826 -69.532905 
L 163.237307 -63.848602 
L 165.033473 -59.60626 
L 166.014114 -56.819624 
L 167.820972 -50.376395 
L 168.09269 -49.790647 
L 168.247375 -48.466347 
L 167.753335 -42.76167 
L 168.510863 -37.513367 
L 168.250008 -35.732693 
L 174.306996 -35.732693 
L 174.568504 -37.51783 
L 175.139737 -42.76167 
L 175.208944 -49.114784 
L 175.129999 -49.790647 
L 173.211988 -53.92534 
L 172.120712 -56.819624 
L 171.984835 -57.588419 
L 171.193127 -63.848602 
L 171.61094 -70.756389 
L 171.662111 -70.877579 
L 171.587617 -70.958371 
L 170.390144 -77.906556 
L 169.801751 -81.923114 
L 169.000197 -84.935533 
L 165.533795 -88.588751 
L 160.344301 -91.96451 
L 159.65424 -92.463019 
L 156.383259 -98.993487 
L 155.728781 -99.721878 
L 154.563624 -100.283208 
L 149.07429 -102.253916 
L 143.223881 -106.022464 
L 143.156757 -106.062402 
L 143.088101 -106.101441 
L 136.023209 -107.764689 
L 133.695006 -108.312805 
L 133.599416 -106.022464 
L 128.98326 -102.415835 
L 125.185012 -103.050335 
L 120.986387 -106.022464 
L 120.649178 -109.251994 
L 117.284845 -108.62013 
L 113.171088 -110.357516 
L 108.260848 -110.192196 
L 102.593718 -106.094928 
L 102.540793 -106.041669 
L 102.449142 -106.022464 
L 96.696504 -102.10632 
L 93.790759 -98.993487 
L 91.272522 -97.442977 
L 90.060935 -91.96451 
L 88.677755 -87.879292 
L 88.078481 -84.935533 
L 84.601504 -80.881611 
L 78.503396 -77.906556 
L 78.348468 -77.654233 
L 77.286426 -76.319367 
L 74.144608 -70.877579 
M 166.523583 -49.790647 
L 161.766692 -53.94803 
L 157.86397 -52.392979 
L 157.037174 -49.790647 
L 157.852412 -47.168298 
L 161.811418 -45.555798 
" style="stroke: #24aa83"/>
    </defs>
    <g clip-path="url(#p23d98cd176)">
     <use xlink:href="#m73fb5ef161" x="0" y="210.047792" style="fill: #24aa83; stroke: #24aa83"/>
    </g>
   </g>
   <g id="PathCollection_8">
    <defs>
     <path id="m4db3328097" d="M 79.294965 -35.732693 
L 79.297855 -37.629401 
L 77.051399 -42.76167 
L 75.920063 -45.836848 
L 75.559632 -49.790647 
L 76.203984 -53.252681 
L 77.21079 -56.819624 
L 79.28379 -61.976254 
L 80.606179 -63.848602 
L 84.029518 -67.814367 
L 87.485298 -70.877579 
L 88.979517 -73.298671 
L 93.054008 -75.513712 
L 94.91295 -77.079617 
L 95.847059 -77.906556 
L 99.822484 -82.634009 
L 104.382041 -84.935533 
L 103.619823 -90.114779 
L 107.793699 -86.985651 
L 114.075113 -86.06364 
L 118.333699 -91.96451 
L 118.670293 -92.162509 
L 118.923349 -92.204817 
L 119.596244 -91.96451 
L 125.522721 -89.57731 
L 128.241289 -89.643013 
L 132.78784 -88.102911 
L 137.692046 -84.935533 
L 138.792388 -84.445139 
L 139.543769 -84.124497 
L 146.927934 -84.478364 
L 150.258751 -77.906556 
L 150.750594 -77.041451 
L 153.945643 -70.877579 
L 150.138586 -65.773735 
L 149.739224 -63.848602 
L 150.477931 -62.51123 
L 154.258715 -58.637463 
L 156.153699 -58.283995 
L 156.550545 -56.819624 
L 155.540583 -56.417202 
L 153.435237 -49.790647 
L 155.511153 -43.113119 
L 156.374029 -42.76167 
L 161.201655 -38.911403 
L 162.219207 -35.732693 
L 167.48279 -35.732693 
L 168.250008 -35.732693 
L 168.510863 -37.513367 
L 167.753335 -42.76167 
L 168.247375 -48.466347 
L 168.09269 -49.790647 
L 167.820972 -50.376395 
L 166.014114 -56.819624 
L 165.033473 -59.60626 
L 163.237307 -63.848602 
L 162.64826 -69.532905 
L 162.226219 -70.877579 
L 159.704608 -77.320808 
L 159.52251 -77.906556 
L 159.477609 -78.09913 
L 158.922563 -84.935533 
L 156.482439 -86.969298 
L 152.793936 -89.290443 
L 150.447597 -90.574599 
L 147.010171 -91.96451 
L 144.370478 -94.106674 
L 140.636356 -96.290034 
L 138.073497 -97.257937 
L 131.961174 -97.257937 
L 130.353455 -97.944386 
L 128.111307 -98.993487 
L 123.306224 -99.796179 
L 121.738726 -100.905782 
L 115.165148 -99.753376 
L 112.512872 -102.827475 
L 109.702011 -104.348898 
L 105.892594 -100.236179 
L 104.445699 -98.993487 
L 100.060015 -96.280549 
L 94.812049 -92.616683 
L 94.25648 -92.274612 
L 94.187899 -91.96451 
L 93.836769 -90.927448 
L 93.674608 -84.935533 
L 91.618661 -82.785493 
L 87.865127 -80.584261 
L 86.017149 -78.429642 
L 84.944954 -77.906556 
L 81.470146 -72.247328 
L 80.380351 -70.877579 
L 76.522891 -66.758271 
L 75.993749 -63.848602 
L 73.463515 -57.999313 
L 72.995388 -56.819624 
L 72.253416 -53.543985 
L 71.554847 -49.790647 
L 71.830176 -46.770384 
L 72.263673 -42.76167 
L 73.108778 -40.967561 
L 75.627405 -35.732693 
L 78.20279 -35.732693 
M 111.587273 -35.732693 
L 111.216314 -36.681978 
L 107.607412 -41.03421 
L 109.678715 -35.732693 
L 110.668244 -35.732693 
M 161.811418 -45.555798 
L 157.852412 -47.168298 
L 157.037174 -49.790647 
L 157.86397 -52.392979 
L 161.766692 -53.94803 
L 166.523583 -49.790647 
" style="stroke: #39b977"/>
    </defs>
    <g clip-path="url(#p23d98cd176)">
     <use xlink:href="#m4db3328097" x="0" y="210.047792" style="fill: #39b977; stroke: #39b977"/>
    </g>
   </g>
   <g id="PathCollection_9">
    <defs>
     <path id="maf03989f48" d="M 82.507246 -35.732693 
L 82.517278 -42.317735 
L 82.621699 -42.76167 
L 82.599153 -43.347418 
L 80.464727 -49.790647 
L 81.202315 -54.985978 
L 81.719881 -56.819624 
L 81.941988 -57.37212 
L 85.43694 -62.320563 
L 86.459091 -63.606223 
L 86.59522 -63.848602 
L 91.930031 -68.188231 
L 94.389919 -70.877579 
L 97.150918 -73.203343 
L 102.463659 -77.906556 
L 102.515968 -77.968759 
L 102.617335 -78.019926 
L 109.685206 -79.609227 
L 111.567501 -79.464113 
L 117.465199 -80.191839 
L 120.619129 -81.084039 
L 124.646426 -81.811543 
L 129.19373 -81.877729 
L 133.419626 -80.67387 
L 135.961098 -79.541202 
L 139.791667 -77.906556 
L 142.440839 -76.706486 
L 145.773487 -70.877579 
L 145.21763 -67.458076 
L 144.468858 -63.848602 
L 147.784447 -57.84598 
L 148.786166 -56.819624 
L 148.647533 -54.298361 
L 144.616496 -52.358927 
L 142.68279 -50.571645 
L 137.20251 -49.790647 
L 135.254063 -49.380624 
L 137.009866 -42.76167 
L 138.116156 -41.100008 
L 140.574127 -40.166002 
L 145.521592 -39.868646 
L 150.419551 -35.732693 
L 151.250063 -35.732693 
L 159.366426 -35.732693 
L 162.219207 -35.732693 
L 161.201655 -38.911403 
L 156.374029 -42.76167 
L 155.511153 -43.113119 
L 153.435237 -49.790647 
L 155.540583 -56.417202 
L 156.550545 -56.819624 
L 156.153699 -58.283995 
L 154.258715 -58.637463 
L 150.477931 -62.51123 
L 149.739224 -63.848602 
L 150.138586 -65.773735 
L 153.945643 -70.877579 
L 150.750594 -77.041451 
L 150.258751 -77.906556 
L 146.927934 -84.478364 
L 139.543769 -84.124497 
L 138.792388 -84.445139 
L 137.692046 -84.935533 
L 132.78784 -88.102911 
L 128.241289 -89.643013 
L 125.522721 -89.57731 
L 119.596244 -91.96451 
L 118.923349 -92.204817 
L 118.670293 -92.162509 
L 118.333699 -91.96451 
L 114.075113 -86.06364 
L 107.793699 -86.985651 
L 103.619823 -90.114779 
L 104.382041 -84.935533 
L 99.822484 -82.634009 
L 95.847059 -77.906556 
L 94.91295 -77.079617 
L 93.054008 -75.513712 
L 88.979517 -73.298671 
L 87.485298 -70.877579 
L 84.029518 -67.814367 
L 80.606179 -63.848602 
L 79.28379 -61.976254 
L 77.21079 -56.819624 
L 76.203984 -53.252681 
L 75.559632 -49.790647 
L 75.920063 -45.836848 
L 77.051399 -42.76167 
L 79.297855 -37.629401 
L 79.294965 -35.732693 
M 109.678715 -35.732693 
L 107.607412 -41.03421 
L 111.216314 -36.681978 
L 111.587273 -35.732693 
L 113.136197 -35.732693 
L 112.140028 -38.281897 
L 108.425367 -42.76167 
L 107.668338 -44.594658 
L 104.039172 -47.214582 
L 104.913897 -42.76167 
L 105.80771 -41.371954 
L 108.010969 -35.732693 
" style="stroke: #57c766"/>
    </defs>
    <g clip-path="url(#p23d98cd176)">
     <use xlink:href="#maf03989f48" x="0" y="210.047792" style="fill: #57c766; stroke: #57c766"/>
    </g>
   </g>
   <g id="PathCollection_10">
    <defs>
     <path id="m9872179942" d="M 85.719528 -35.732693 
L 85.721106 -36.768542 
L 87.13079 -42.76167 
L 86.898894 -48.786508 
L 87.045992 -49.790647 
L 90.587604 -56.455429 
L 96.944461 -54.136265 
L 100.083025 -49.790647 
L 101.715142 -48.341374 
L 102.811212 -42.76167 
L 104.813057 -39.649166 
L 106.343223 -35.732693 
L 108.010969 -35.732693 
L 105.80771 -41.371954 
L 104.913897 -42.76167 
L 104.039172 -47.214582 
L 107.668338 -44.594658 
L 108.425367 -42.76167 
L 112.140028 -38.281897 
L 113.136197 -35.732693 
L 114.685121 -35.732693 
L 113.063742 -39.881816 
L 110.675746 -42.76167 
L 108.980251 -46.866956 
L 104.930302 -49.790647 
L 103.451201 -51.348315 
L 100.821488 -56.819624 
L 100.380837 -60.088243 
L 94.906031 -63.848602 
L 99.77523 -68.657902 
L 106.190251 -70.150443 
L 106.957907 -70.275095 
L 107.485929 -70.877579 
L 112.585088 -74.586486 
L 117.145727 -75.06793 
L 120.447473 -75.02639 
L 125.714369 -75.851299 
L 130.340109 -71.949796 
L 131.294233 -71.457953 
L 138.399153 -72.049075 
L 139.471437 -71.563333 
L 139.863514 -70.877579 
L 139.690393 -69.812582 
L 137.271881 -67.753589 
L 132.033378 -69.016967 
L 129.780972 -68.836908 
L 126.276636 -64.929983 
L 126.025677 -63.848602 
L 126.550854 -63.24218 
L 129.719563 -56.819624 
L 130.280095 -55.643461 
L 131.720063 -49.790647 
L 133.226224 -46.688352 
L 134.267851 -42.76167 
L 136.842668 -38.894262 
L 142.563431 -36.720425 
L 143.665717 -36.654175 
L 144.756972 -35.732693 
L 150.419551 -35.732693 
L 145.521592 -39.868646 
L 140.574127 -40.166002 
L 138.116156 -41.100008 
L 137.009866 -42.76167 
L 135.254063 -49.380624 
L 137.20251 -49.790647 
L 142.68279 -50.571645 
L 144.616496 -52.358927 
L 148.647533 -54.298361 
L 148.786166 -56.819624 
L 147.784447 -57.84598 
L 144.468858 -63.848602 
L 145.21763 -67.458076 
L 145.773487 -70.877579 
L 142.440839 -76.706486 
L 139.791667 -77.906556 
L 135.961098 -79.541202 
L 133.419626 -80.67387 
L 129.19373 -81.877729 
L 124.646426 -81.811543 
L 120.619129 -81.084039 
L 117.465199 -80.191839 
L 111.567501 -79.464113 
L 109.685206 -79.609227 
L 102.617335 -78.019926 
L 102.515968 -77.968759 
L 102.463659 -77.906556 
L 97.150918 -73.203343 
L 94.389919 -70.877579 
L 91.930031 -68.188231 
L 86.59522 -63.848602 
L 86.459091 -63.606223 
L 85.43694 -62.320563 
L 81.941988 -57.37212 
L 81.719881 -56.819624 
L 81.202315 -54.985978 
L 80.464727 -49.790647 
L 82.599153 -43.347418 
L 82.621699 -42.76167 
L 82.517278 -42.317735 
L 82.507246 -35.732693 
M 138.706591 -56.819624 
L 138.774911 -57.340289 
L 139.146713 -56.94294 
L 139.211927 -56.819624 
L 139.122981 -56.737414 
L 139.019542 -56.722673 
" style="stroke: #7cd250"/>
    </defs>
    <g clip-path="url(#p23d98cd176)">
     <use xlink:href="#m9872179942" x="0" y="210.047792" style="fill: #7cd250; stroke: #7cd250"/>
    </g>
   </g>
   <g id="PathCollection_11">
    <defs>
     <path id="m9267817ec4" d="M 92.469441 -35.732693 
L 92.481578 -39.117015 
L 92.081772 -42.76167 
L 92.649917 -46.697897 
L 93.10298 -49.790647 
L 93.741631 -50.992493 
L 94.887949 -50.574283 
L 95.45392 -49.790647 
L 100.146257 -45.623986 
L 100.708527 -42.76167 
L 103.818405 -37.926377 
L 104.675477 -35.732693 
L 106.343223 -35.732693 
L 104.813057 -39.649166 
L 102.811212 -42.76167 
L 101.715142 -48.341374 
L 100.083025 -49.790647 
L 96.944461 -54.136265 
L 90.587604 -56.455429 
L 87.045992 -49.790647 
L 86.898894 -48.786508 
L 87.13079 -42.76167 
L 85.721106 -36.768542 
L 85.719528 -35.732693 
L 86.319153 -35.732693 
M 116.234046 -35.732693 
L 113.987455 -41.481735 
L 112.926124 -42.76167 
L 110.292163 -49.139255 
L 109.389843 -49.790647 
L 105.137426 -54.268943 
L 103.911475 -56.819624 
L 103.089388 -62.917611 
L 107.96279 -63.848602 
L 110.436348 -64.250257 
L 111.795517 -65.801095 
L 116.545611 -67.726658 
L 120.91349 -67.535934 
L 120.057763 -63.848602 
L 124.163688 -59.107488 
L 125.292456 -56.819624 
L 127.854887 -51.442877 
L 128.261385 -49.790647 
L 131.347436 -43.434196 
L 131.525836 -42.76167 
L 135.56918 -36.688516 
L 138.084566 -35.732693 
L 143.133699 -35.732693 
L 144.756972 -35.732693 
L 143.665717 -36.654175 
L 142.563431 -36.720425 
L 136.842668 -38.894262 
L 134.267851 -42.76167 
L 133.226224 -46.688352 
L 131.720063 -49.790647 
L 130.280095 -55.643461 
L 129.719563 -56.819624 
L 126.550854 -63.24218 
L 126.025677 -63.848602 
L 126.276636 -64.929983 
L 129.780972 -68.836908 
L 132.033378 -69.016967 
L 137.271881 -67.753589 
L 139.690393 -69.812582 
L 139.863514 -70.877579 
L 139.471437 -71.563333 
L 138.399153 -72.049075 
L 131.294233 -71.457953 
L 130.340109 -71.949796 
L 125.714369 -75.851299 
L 120.447473 -75.02639 
L 117.145727 -75.06793 
L 112.585088 -74.586486 
L 107.485929 -70.877579 
L 106.957907 -70.275095 
L 106.190251 -70.150443 
L 99.77523 -68.657902 
L 94.906031 -63.848602 
L 100.380837 -60.088243 
L 100.821488 -56.819624 
L 103.451201 -51.348315 
L 104.930302 -49.790647 
L 108.980251 -46.866956 
L 110.675746 -42.76167 
L 113.063742 -39.881816 
L 114.685121 -35.732693 
M 139.019542 -56.722673 
L 139.122981 -56.737414 
L 139.211927 -56.819624 
L 139.146713 -56.94294 
L 138.774911 -57.340289 
L 138.706591 -56.819624 
" style="stroke: #a4db36"/>
    </defs>
    <g clip-path="url(#p23d98cd176)">
     <use xlink:href="#m9267817ec4" x="0" y="210.047792" style="fill: #a4db36; stroke: #a4db36"/>
    </g>
   </g>
   <g id="PathCollection_12">
    <defs>
     <path id="ma3c6808f4d" d="M 100.362598 -35.732693 
L 98.22088 -42.289134 
L 98.169044 -42.76167 
L 98.233975 -43.211525 
L 98.577373 -42.906598 
L 98.605842 -42.76167 
L 102.823752 -36.203589 
L 103.007731 -35.732693 
L 104.675477 -35.732693 
L 103.818405 -37.926377 
L 100.708527 -42.76167 
L 100.146257 -45.623986 
L 95.45392 -49.790647 
L 94.887949 -50.574283 
L 93.741631 -50.992493 
L 93.10298 -49.790647 
L 92.649917 -46.697897 
L 92.081772 -42.76167 
L 92.481578 -39.117015 
L 92.469441 -35.732693 
L 94.435517 -35.732693 
M 117.78297 -35.732693 
L 115.685052 -41.101282 
L 119.695628 -42.76167 
L 121.04964 -45.867497 
L 123.543748 -43.975766 
L 123.96026 -42.76167 
L 123.690102 -41.294082 
L 123.443113 -35.732693 
L 126.900972 -35.732693 
L 135.017335 -35.732693 
L 138.084566 -35.732693 
L 135.56918 -36.688516 
L 131.525836 -42.76167 
L 131.347436 -43.434196 
L 128.261385 -49.790647 
L 127.854887 -51.442877 
L 125.292456 -56.819624 
L 124.163688 -59.107488 
L 120.057763 -63.848602 
L 120.91349 -67.535934 
L 116.545611 -67.726658 
L 111.795517 -65.801095 
L 110.436348 -64.250257 
L 107.96279 -63.848602 
L 103.089388 -62.917611 
L 103.911475 -56.819624 
L 105.137426 -54.268943 
L 109.389843 -49.790647 
L 110.292163 -49.139255 
L 112.926124 -42.76167 
L 113.987455 -41.481735 
L 116.234046 -35.732693 
" style="stroke: #d0e11c"/>
    </defs>
    <g clip-path="url(#p23d98cd176)">
     <use xlink:href="#ma3c6808f4d" x="0" y="210.047792" style="fill: #d0e11c; stroke: #d0e11c"/>
    </g>
   </g>
   <g id="PathCollection_13">
    <defs>
     <path id="m561f242ff8" d="M 103.007731 -35.732693 
L 102.823752 -36.203589 
L 98.605842 -42.76167 
L 98.577373 -42.906598 
L 98.233975 -43.211525 
L 98.169044 -42.76167 
L 98.22088 -42.289134 
L 100.362598 -35.732693 
L 102.551881 -35.732693 
M 123.443113 -35.732693 
L 123.690102 -41.294082 
L 123.96026 -42.76167 
L 123.543748 -43.975766 
L 121.04964 -45.867497 
L 119.695628 -42.76167 
L 115.685052 -41.101282 
L 117.78297 -35.732693 
L 118.784608 -35.732693 
" style="stroke: #fae722"/>
    </defs>
    <g clip-path="url(#p23d98cd176)">
     <use xlink:href="#m561f242ff8" x="0" y="210.047792" style="fill: #fae722; stroke: #fae722"/>
    </g>
   </g>
   <g id="line2d_1">
    <path d="M 53.853699 174.315099 
L 135.017335 33.735557 
" clip-path="url(#p23d98cd176)" style="fill: none; stroke: #000000; stroke-linecap: square"/>
   </g>
   <g id="line2d_2">
    <path d="M 135.017335 33.735557 
L 216.180972 174.315099 
" clip-path="url(#p23d98cd176)" style="fill: none; stroke: #000000; stroke-linecap: square"/>
   </g>
   <g id="line2d_3">
    <path d="M 53.853699 174.315099 
L 216.180972 174.315099 
" clip-path="url(#p23d98cd176)" style="fill: none; stroke: #000000; stroke-linecap: square"/>
   </g>
   <g id="line2d_4">
    <path d="M 216.180972 174.315099 
L 218.528549 178.381221 
" clip-path="url(#p23d98cd176)" style="fill: none; stroke: #000000; stroke-linecap: square"/>
   </g>
   <g id="line2d_5">
    <path d="M 183.715517 174.315099 
L 186.063094 178.381221 
" clip-path="url(#p23d98cd176)" style="fill: none; stroke: #000000; stroke-linecap: square"/>
   </g>
   <g id="line2d_6">
    <path d="M 151.250063 174.315099 
L 153.59764 178.381221 
" clip-path="url(#p23d98cd176)" style="fill: none; stroke: #000000; stroke-linecap: square"/>
   </g>
   <g id="line2d_7">
    <path d="M 118.784608 174.315099 
L 121.132185 178.381221 
" clip-path="url(#p23d98cd176)" style="fill: none; stroke: #000000; stroke-linecap: square"/>
   </g>
   <g id="line2d_8">
    <path d="M 86.319153 174.315099 
L 88.66673 178.381221 
" clip-path="url(#p23d98cd176)" style="fill: none; stroke: #000000; stroke-linecap: square"/>
   </g>
   <g id="line2d_9">
    <path d="M 53.853699 174.315099 
L 56.201276 178.381221 
" clip-path="url(#p23d98cd176)" style="fill: none; stroke: #000000; stroke-linecap: square"/>
   </g>
   <g id="line2d_10">
    <path d="M 53.853699 174.315099 
L 49.158545 174.315099 
" clip-path="url(#p23d98cd176)" style="fill: none; stroke: #000000; stroke-linecap: square"/>
   </g>
   <g id="line2d_11">
    <path d="M 70.086426 146.19919 
L 65.391272 146.19919 
" clip-path="url(#p23d98cd176)" style="fill: none; stroke: #000000; stroke-linecap: square"/>
   </g>
   <g id="line2d_12">
    <path d="M 86.319153 118.083282 
L 81.623999 118.083282 
" clip-path="url(#p23d98cd176)" style="fill: none; stroke: #000000; stroke-linecap: square"/>
   </g>
   <g id="line2d_13">
    <path d="M 102.551881 89.967374 
L 97.856727 89.967374 
" clip-path="url(#p23d98cd176)" style="fill: none; stroke: #000000; stroke-linecap: square"/>
   </g>
   <g id="line2d_14">
    <path d="M 118.784608 61.851465 
L 114.089454 61.851465 
" clip-path="url(#p23d98cd176)" style="fill: none; stroke: #000000; stroke-linecap: square"/>
   </g>
   <g id="line2d_15">
    <path d="M 135.017335 33.735557 
L 130.322181 33.735557 
" clip-path="url(#p23d98cd176)" style="fill: none; stroke: #000000; stroke-linecap: square"/>
   </g>
   <g id="line2d_16">
    <path d="M 135.017335 33.735557 
L 137.364912 29.669434 
" clip-path="url(#p23d98cd176)" style="fill: none; stroke: #000000; stroke-linecap: square"/>
   </g>
   <g id="line2d_17">
    <path d="M 151.250063 61.851465 
L 153.59764 57.785343 
" clip-path="url(#p23d98cd176)" style="fill: none; stroke: #000000; stroke-linecap: square"/>
   </g>
   <g id="line2d_18">
    <path d="M 167.48279 89.967374 
L 169.830367 85.901251 
" clip-path="url(#p23d98cd176)" style="fill: none; stroke: #000000; stroke-linecap: square"/>
   </g>
   <g id="line2d_19">
    <path d="M 183.715517 118.083282 
L 186.063094 114.017159 
" clip-path="url(#p23d98cd176)" style="fill: none; stroke: #000000; stroke-linecap: square"/>
   </g>
   <g id="line2d_20">
    <path d="M 199.948244 146.19919 
L 202.295821 142.133068 
" clip-path="url(#p23d98cd176)" style="fill: none; stroke: #000000; stroke-linecap: square"/>
   </g>
   <g id="line2d_21">
    <path d="M 216.180972 174.315099 
L 218.528549 170.248976 
" clip-path="url(#p23d98cd176)" style="fill: none; stroke: #000000; stroke-linecap: square"/>
   </g>
   <g id="matplotlib.axis_1">
    <g id="xtick_1"/>
    <g id="xtick_2"/>
    <g id="xtick_3"/>
    <g id="xtick_4"/>
    <g id="xtick_5"/>
   </g>
   <g id="matplotlib.axis_2">
    <g id="ytick_1"/>
    <g id="ytick_2"/>
    <g id="ytick_3"/>
    <g id="ytick_4"/>
    <g id="ytick_5"/>
   </g>
   <g id="text_1">
    <!-- 0 -->
    <g transform="translate(217.23329 187.301281) scale(0.12 -0.12)">
     <defs>
      <path id="DejaVuSans-30" d="M 2034 4250 
Q 1547 4250 1301 3770 
Q 1056 3291 1056 2328 
Q 1056 1369 1301 889 
Q 1547 409 2034 409 
Q 2525 409 2770 889 
Q 3016 1369 3016 2328 
Q 3016 3291 2770 3770 
Q 2525 4250 2034 4250 
z
M 2034 4750 
Q 2819 4750 3233 4129 
Q 3647 3509 3647 2328 
Q 3647 1150 3233 529 
Q 2819 -91 2034 -91 
Q 1250 -91 836 529 
Q 422 1150 422 2328 
Q 422 3509 836 4129 
Q 1250 4750 2034 4750 
z
" transform="scale(0.015625)"/>
     </defs>
     <use xlink:href="#DejaVuSans-30"/>
    </g>
   </g>
   <g id="text_2">
    <!-- 20 -->
    <g transform="translate(180.950335 187.301281) scale(0.12 -0.12)">
     <defs>
      <path id="DejaVuSans-32" d="M 1228 531 
L 3431 531 
L 3431 0 
L 469 0 
L 469 531 
Q 828 903 1448 1529 
Q 2069 2156 2228 2338 
Q 2531 2678 2651 2914 
Q 2772 3150 2772 3378 
Q 2772 3750 2511 3984 
Q 2250 4219 1831 4219 
Q 1534 4219 1204 4116 
Q 875 4013 500 3803 
L 500 4441 
Q 881 4594 1212 4672 
Q 1544 4750 1819 4750 
Q 2544 4750 2975 4387 
Q 3406 4025 3406 3419 
Q 3406 3131 3298 2873 
Q 3191 2616 2906 2266 
Q 2828 2175 2409 1742 
Q 1991 1309 1228 531 
z
" transform="scale(0.015625)"/>
     </defs>
     <use xlink:href="#DejaVuSans-32"/>
     <use xlink:href="#DejaVuSans-30" x="63.623047"/>
    </g>
   </g>
   <g id="text_3">
    <!-- 40 -->
    <g transform="translate(148.484881 187.301281) scale(0.12 -0.12)">
     <defs>
      <path id="DejaVuSans-34" d="M 2419 4116 
L 825 1625 
L 2419 1625 
L 2419 4116 
z
M 2253 4666 
L 3047 4666 
L 3047 1625 
L 3713 1625 
L 3713 1100 
L 3047 1100 
L 3047 0 
L 2419 0 
L 2419 1100 
L 313 1100 
L 313 1709 
L 2253 4666 
z
" transform="scale(0.015625)"/>
     </defs>
     <use xlink:href="#DejaVuSans-34"/>
     <use xlink:href="#DejaVuSans-30" x="63.623047"/>
    </g>
   </g>
   <g id="text_4">
    <!-- 60 -->
    <g transform="translate(116.019426 187.301281) scale(0.12 -0.12)">
     <defs>
      <path id="DejaVuSans-36" d="M 2113 2584 
Q 1688 2584 1439 2293 
Q 1191 2003 1191 1497 
Q 1191 994 1439 701 
Q 1688 409 2113 409 
Q 2538 409 2786 701 
Q 3034 994 3034 1497 
Q 3034 2003 2786 2293 
Q 2538 2584 2113 2584 
z
M 3366 4563 
L 3366 3988 
Q 3128 4100 2886 4159 
Q 2644 4219 2406 4219 
Q 1781 4219 1451 3797 
Q 1122 3375 1075 2522 
Q 1259 2794 1537 2939 
Q 1816 3084 2150 3084 
Q 2853 3084 3261 2657 
Q 3669 2231 3669 1497 
Q 3669 778 3244 343 
Q 2819 -91 2113 -91 
Q 1303 -91 875 529 
Q 447 1150 447 2328 
Q 447 3434 972 4092 
Q 1497 4750 2381 4750 
Q 2619 4750 2861 4703 
Q 3103 4656 3366 4563 
z
" transform="scale(0.015625)"/>
     </defs>
     <use xlink:href="#DejaVuSans-36"/>
     <use xlink:href="#DejaVuSans-30" x="63.623047"/>
    </g>
   </g>
   <g id="text_5">
    <!-- 80 -->
    <g transform="translate(83.553972 187.301281) scale(0.12 -0.12)">
     <defs>
      <path id="DejaVuSans-38" d="M 2034 2216 
Q 1584 2216 1326 1975 
Q 1069 1734 1069 1313 
Q 1069 891 1326 650 
Q 1584 409 2034 409 
Q 2484 409 2743 651 
Q 3003 894 3003 1313 
Q 3003 1734 2745 1975 
Q 2488 2216 2034 2216 
z
M 1403 2484 
Q 997 2584 770 2862 
Q 544 3141 544 3541 
Q 544 4100 942 4425 
Q 1341 4750 2034 4750 
Q 2731 4750 3128 4425 
Q 3525 4100 3525 3541 
Q 3525 3141 3298 2862 
Q 3072 2584 2669 2484 
Q 3125 2378 3379 2068 
Q 3634 1759 3634 1313 
Q 3634 634 3220 271 
Q 2806 -91 2034 -91 
Q 1263 -91 848 271 
Q 434 634 434 1313 
Q 434 1759 690 2068 
Q 947 2378 1403 2484 
z
M 1172 3481 
Q 1172 3119 1398 2916 
Q 1625 2713 2034 2713 
Q 2441 2713 2670 2916 
Q 2900 3119 2900 3481 
Q 2900 3844 2670 4047 
Q 2441 4250 2034 4250 
Q 1625 4250 1398 4047 
Q 1172 3844 1172 3481 
z
" transform="scale(0.015625)"/>
     </defs>
     <use xlink:href="#DejaVuSans-38"/>
     <use xlink:href="#DejaVuSans-30" x="63.623047"/>
    </g>
   </g>
   <g id="text_6">
    <!-- 100 -->
    <g transform="translate(47.271017 187.301281) scale(0.12 -0.12)">
     <defs>
      <path id="DejaVuSans-31" d="M 794 531 
L 1825 531 
L 1825 4091 
L 703 3866 
L 703 4441 
L 1819 4666 
L 2450 4666 
L 2450 531 
L 3481 531 
L 3481 0 
L 794 0 
L 794 531 
z
" transform="scale(0.015625)"/>
     </defs>
     <use xlink:href="#DejaVuSans-31"/>
     <use xlink:href="#DejaVuSans-30" x="63.623047"/>
     <use xlink:href="#DejaVuSans-30" x="127.246094"/>
    </g>
   </g>
   <g id="text_7">
    <!-- 0 -->
    <g transform="translate(41.348881 176.750008) scale(0.12 -0.12)">
     <use xlink:href="#DejaVuSans-30"/>
    </g>
   </g>
   <g id="text_8">
    <!-- 20 -->
    <g transform="translate(49.946608 148.634099) scale(0.12 -0.12)">
     <use xlink:href="#DejaVuSans-32"/>
     <use xlink:href="#DejaVuSans-30" x="63.623047"/>
    </g>
   </g>
   <g id="text_9">
    <!-- 40 -->
    <g transform="translate(66.179335 120.518191) scale(0.12 -0.12)">
     <use xlink:href="#DejaVuSans-34"/>
     <use xlink:href="#DejaVuSans-30" x="63.623047"/>
    </g>
   </g>
   <g id="text_10">
    <!-- 60 -->
    <g transform="translate(82.412063 92.402283) scale(0.12 -0.12)">
     <use xlink:href="#DejaVuSans-36"/>
     <use xlink:href="#DejaVuSans-30" x="63.623047"/>
    </g>
   </g>
   <g id="text_11">
    <!-- 80 -->
    <g transform="translate(98.64479 64.286374) scale(0.12 -0.12)">
     <use xlink:href="#DejaVuSans-38"/>
     <use xlink:href="#DejaVuSans-30" x="63.623047"/>
    </g>
   </g>
   <g id="text_12">
    <!-- 100 -->
    <g transform="translate(107.242517 36.170466) scale(0.12 -0.12)">
     <use xlink:href="#DejaVuSans-31"/>
     <use xlink:href="#DejaVuSans-30" x="63.623047"/>
     <use xlink:href="#DejaVuSans-30" x="127.246094"/>
    </g>
   </g>
   <g id="text_13">
    <!-- 0 -->
    <g transform="translate(137.452244 30.489011) scale(0.12 -0.12)">
     <use xlink:href="#DejaVuSans-30"/>
    </g>
   </g>
   <g id="text_14">
    <!-- 20 -->
    <g transform="translate(153.684972 58.60492) scale(0.12 -0.12)">
     <use xlink:href="#DejaVuSans-32"/>
     <use xlink:href="#DejaVuSans-30" x="63.623047"/>
    </g>
   </g>
   <g id="text_15">
    <!-- 40 -->
    <g transform="translate(169.917699 86.720828) scale(0.12 -0.12)">
     <use xlink:href="#DejaVuSans-34"/>
     <use xlink:href="#DejaVuSans-30" x="63.623047"/>
    </g>
   </g>
   <g id="text_16">
    <!-- 60 -->
    <g transform="translate(186.150426 114.836737) scale(0.12 -0.12)">
     <use xlink:href="#DejaVuSans-36"/>
     <use xlink:href="#DejaVuSans-30" x="63.623047"/>
    </g>
   </g>
   <g id="text_17">
    <!-- 80 -->
    <g transform="translate(202.383153 142.952645) scale(0.12 -0.12)">
     <use xlink:href="#DejaVuSans-38"/>
     <use xlink:href="#DejaVuSans-30" x="63.623047"/>
    </g>
   </g>
   <g id="text_18">
    <!-- 100 -->
    <g transform="translate(218.615881 171.068553) scale(0.12 -0.12)">
     <use xlink:href="#DejaVuSans-31"/>
     <use xlink:href="#DejaVuSans-30" x="63.623047"/>
     <use xlink:href="#DejaVuSans-30" x="127.246094"/>
    </g>
   </g>
   <g id="text_19">
    <!-- AgAu content (at.%) -->
    <g transform="translate(74.09296 200.352167) scale(0.12 -0.12)">
     <defs>
      <path id="DejaVuSans-41" d="M 2188 4044 
L 1331 1722 
L 3047 1722 
L 2188 4044 
z
M 1831 4666 
L 2547 4666 
L 4325 0 
L 3669 0 
L 3244 1197 
L 1141 1197 
L 716 0 
L 50 0 
L 1831 4666 
z
" transform="scale(0.015625)"/>
      <path id="DejaVuSans-67" d="M 2906 1791 
Q 2906 2416 2648 2759 
Q 2391 3103 1925 3103 
Q 1463 3103 1205 2759 
Q 947 2416 947 1791 
Q 947 1169 1205 825 
Q 1463 481 1925 481 
Q 2391 481 2648 825 
Q 2906 1169 2906 1791 
z
M 3481 434 
Q 3481 -459 3084 -895 
Q 2688 -1331 1869 -1331 
Q 1566 -1331 1297 -1286 
Q 1028 -1241 775 -1147 
L 775 -588 
Q 1028 -725 1275 -790 
Q 1522 -856 1778 -856 
Q 2344 -856 2625 -561 
Q 2906 -266 2906 331 
L 2906 616 
Q 2728 306 2450 153 
Q 2172 0 1784 0 
Q 1141 0 747 490 
Q 353 981 353 1791 
Q 353 2603 747 3093 
Q 1141 3584 1784 3584 
Q 2172 3584 2450 3431 
Q 2728 3278 2906 2969 
L 2906 3500 
L 3481 3500 
L 3481 434 
z
" transform="scale(0.015625)"/>
      <path id="DejaVuSans-75" d="M 544 1381 
L 544 3500 
L 1119 3500 
L 1119 1403 
Q 1119 906 1312 657 
Q 1506 409 1894 409 
Q 2359 409 2629 706 
Q 2900 1003 2900 1516 
L 2900 3500 
L 3475 3500 
L 3475 0 
L 2900 0 
L 2900 538 
Q 2691 219 2414 64 
Q 2138 -91 1772 -91 
Q 1169 -91 856 284 
Q 544 659 544 1381 
z
M 1991 3584 
L 1991 3584 
z
" transform="scale(0.015625)"/>
      <path id="DejaVuSans-20" transform="scale(0.015625)"/>
      <path id="DejaVuSans-63" d="M 3122 3366 
L 3122 2828 
Q 2878 2963 2633 3030 
Q 2388 3097 2138 3097 
Q 1578 3097 1268 2742 
Q 959 2388 959 1747 
Q 959 1106 1268 751 
Q 1578 397 2138 397 
Q 2388 397 2633 464 
Q 2878 531 3122 666 
L 3122 134 
Q 2881 22 2623 -34 
Q 2366 -91 2075 -91 
Q 1284 -91 818 406 
Q 353 903 353 1747 
Q 353 2603 823 3093 
Q 1294 3584 2113 3584 
Q 2378 3584 2631 3529 
Q 2884 3475 3122 3366 
z
" transform="scale(0.015625)"/>
      <path id="DejaVuSans-6f" d="M 1959 3097 
Q 1497 3097 1228 2736 
Q 959 2375 959 1747 
Q 959 1119 1226 758 
Q 1494 397 1959 397 
Q 2419 397 2687 759 
Q 2956 1122 2956 1747 
Q 2956 2369 2687 2733 
Q 2419 3097 1959 3097 
z
M 1959 3584 
Q 2709 3584 3137 3096 
Q 3566 2609 3566 1747 
Q 3566 888 3137 398 
Q 2709 -91 1959 -91 
Q 1206 -91 779 398 
Q 353 888 353 1747 
Q 353 2609 779 3096 
Q 1206 3584 1959 3584 
z
" transform="scale(0.015625)"/>
      <path id="DejaVuSans-6e" d="M 3513 2113 
L 3513 0 
L 2938 0 
L 2938 2094 
Q 2938 2591 2744 2837 
Q 2550 3084 2163 3084 
Q 1697 3084 1428 2787 
Q 1159 2491 1159 1978 
L 1159 0 
L 581 0 
L 581 3500 
L 1159 3500 
L 1159 2956 
Q 1366 3272 1645 3428 
Q 1925 3584 2291 3584 
Q 2894 3584 3203 3211 
Q 3513 2838 3513 2113 
z
" transform="scale(0.015625)"/>
      <path id="DejaVuSans-74" d="M 1172 4494 
L 1172 3500 
L 2356 3500 
L 2356 3053 
L 1172 3053 
L 1172 1153 
Q 1172 725 1289 603 
Q 1406 481 1766 481 
L 2356 481 
L 2356 0 
L 1766 0 
Q 1100 0 847 248 
Q 594 497 594 1153 
L 594 3053 
L 172 3053 
L 172 3500 
L 594 3500 
L 594 4494 
L 1172 4494 
z
" transform="scale(0.015625)"/>
      <path id="DejaVuSans-65" d="M 3597 1894 
L 3597 1613 
L 953 1613 
Q 991 1019 1311 708 
Q 1631 397 2203 397 
Q 2534 397 2845 478 
Q 3156 559 3463 722 
L 3463 178 
Q 3153 47 2828 -22 
Q 2503 -91 2169 -91 
Q 1331 -91 842 396 
Q 353 884 353 1716 
Q 353 2575 817 3079 
Q 1281 3584 2069 3584 
Q 2775 3584 3186 3129 
Q 3597 2675 3597 1894 
z
M 3022 2063 
Q 3016 2534 2758 2815 
Q 2500 3097 2075 3097 
Q 1594 3097 1305 2825 
Q 1016 2553 972 2059 
L 3022 2063 
z
" transform="scale(0.015625)"/>
      <path id="DejaVuSans-28" d="M 1984 4856 
Q 1566 4138 1362 3434 
Q 1159 2731 1159 2009 
Q 1159 1288 1364 580 
Q 1569 -128 1984 -844 
L 1484 -844 
Q 1016 -109 783 600 
Q 550 1309 550 2009 
Q 550 2706 781 3412 
Q 1013 4119 1484 4856 
L 1984 4856 
z
" transform="scale(0.015625)"/>
      <path id="DejaVuSans-61" d="M 2194 1759 
Q 1497 1759 1228 1600 
Q 959 1441 959 1056 
Q 959 750 1161 570 
Q 1363 391 1709 391 
Q 2188 391 2477 730 
Q 2766 1069 2766 1631 
L 2766 1759 
L 2194 1759 
z
M 3341 1997 
L 3341 0 
L 2766 0 
L 2766 531 
Q 2569 213 2275 61 
Q 1981 -91 1556 -91 
Q 1019 -91 701 211 
Q 384 513 384 1019 
Q 384 1609 779 1909 
Q 1175 2209 1959 2209 
L 2766 2209 
L 2766 2266 
Q 2766 2663 2505 2880 
Q 2244 3097 1772 3097 
Q 1472 3097 1187 3025 
Q 903 2953 641 2809 
L 641 3341 
Q 956 3463 1253 3523 
Q 1550 3584 1831 3584 
Q 2591 3584 2966 3190 
Q 3341 2797 3341 1997 
z
" transform="scale(0.015625)"/>
      <path id="DejaVuSans-2e" d="M 684 794 
L 1344 794 
L 1344 0 
L 684 0 
L 684 794 
z
" transform="scale(0.015625)"/>
      <path id="DejaVuSans-25" d="M 4653 2053 
Q 4381 2053 4226 1822 
Q 4072 1591 4072 1178 
Q 4072 772 4226 539 
Q 4381 306 4653 306 
Q 4919 306 5073 539 
Q 5228 772 5228 1178 
Q 5228 1588 5073 1820 
Q 4919 2053 4653 2053 
z
M 4653 2450 
Q 5147 2450 5437 2106 
Q 5728 1763 5728 1178 
Q 5728 594 5436 251 
Q 5144 -91 4653 -91 
Q 4153 -91 3862 251 
Q 3572 594 3572 1178 
Q 3572 1766 3864 2108 
Q 4156 2450 4653 2450 
z
M 1428 4353 
Q 1159 4353 1004 4120 
Q 850 3888 850 3481 
Q 850 3069 1003 2837 
Q 1156 2606 1428 2606 
Q 1700 2606 1854 2837 
Q 2009 3069 2009 3481 
Q 2009 3884 1853 4118 
Q 1697 4353 1428 4353 
z
M 4250 4750 
L 4750 4750 
L 1831 -91 
L 1331 -91 
L 4250 4750 
z
M 1428 4750 
Q 1922 4750 2215 4408 
Q 2509 4066 2509 3481 
Q 2509 2891 2217 2550 
Q 1925 2209 1428 2209 
Q 931 2209 642 2551 
Q 353 2894 353 3481 
Q 353 4063 643 4406 
Q 934 4750 1428 4750 
z
" transform="scale(0.015625)"/>
      <path id="DejaVuSans-29" d="M 513 4856 
L 1013 4856 
Q 1481 4119 1714 3412 
Q 1947 2706 1947 2009 
Q 1947 1309 1714 600 
Q 1481 -109 1013 -844 
L 513 -844 
Q 928 -128 1133 580 
Q 1338 1288 1338 2009 
Q 1338 2731 1133 3434 
Q 928 4138 513 4856 
z
" transform="scale(0.015625)"/>
     </defs>
     <use xlink:href="#DejaVuSans-41"/>
     <use xlink:href="#DejaVuSans-67" x="68.408203"/>
     <use xlink:href="#DejaVuSans-41" x="131.884766"/>
     <use xlink:href="#DejaVuSans-75" x="200.292969"/>
     <use xlink:href="#DejaVuSans-20" x="263.671875"/>
     <use xlink:href="#DejaVuSans-63" x="295.458984"/>
     <use xlink:href="#DejaVuSans-6f" x="350.439453"/>
     <use xlink:href="#DejaVuSans-6e" x="411.621094"/>
     <use xlink:href="#DejaVuSans-74" x="475"/>
     <use xlink:href="#DejaVuSans-65" x="514.208984"/>
     <use xlink:href="#DejaVuSans-6e" x="575.732422"/>
     <use xlink:href="#DejaVuSans-74" x="639.111328"/>
     <use xlink:href="#DejaVuSans-20" x="678.320312"/>
     <use xlink:href="#DejaVuSans-28" x="710.107422"/>
     <use xlink:href="#DejaVuSans-61" x="749.121094"/>
     <use xlink:href="#DejaVuSans-74" x="810.400391"/>
     <use xlink:href="#DejaVuSans-2e" x="849.609375"/>
     <use xlink:href="#DejaVuSans-25" x="881.396484"/>
     <use xlink:href="#DejaVuSans-29" x="976.416016"/>
    </g>
   </g>
   <g id="text_20">
    <!-- Cu content (at.%) -->
    <g transform="translate(170.532493 48.824386) rotate(-300) scale(0.12 -0.12)">
     <defs>
      <path id="DejaVuSans-43" d="M 4122 4306 
L 4122 3641 
Q 3803 3938 3442 4084 
Q 3081 4231 2675 4231 
Q 1875 4231 1450 3742 
Q 1025 3253 1025 2328 
Q 1025 1406 1450 917 
Q 1875 428 2675 428 
Q 3081 428 3442 575 
Q 3803 722 4122 1019 
L 4122 359 
Q 3791 134 3420 21 
Q 3050 -91 2638 -91 
Q 1578 -91 968 557 
Q 359 1206 359 2328 
Q 359 3453 968 4101 
Q 1578 4750 2638 4750 
Q 3056 4750 3426 4639 
Q 3797 4528 4122 4306 
z
" transform="scale(0.015625)"/>
     </defs>
     <use xlink:href="#DejaVuSans-43"/>
     <use xlink:href="#DejaVuSans-75" x="69.824219"/>
     <use xlink:href="#DejaVuSans-20" x="133.203125"/>
     <use xlink:href="#DejaVuSans-63" x="164.990234"/>
     <use xlink:href="#DejaVuSans-6f" x="219.970703"/>
     <use xlink:href="#DejaVuSans-6e" x="281.152344"/>
     <use xlink:href="#DejaVuSans-74" x="344.53125"/>
     <use xlink:href="#DejaVuSans-65" x="383.740234"/>
     <use xlink:href="#DejaVuSans-6e" x="445.263672"/>
     <use xlink:href="#DejaVuSans-74" x="508.642578"/>
     <use xlink:href="#DejaVuSans-20" x="547.851562"/>
     <use xlink:href="#DejaVuSans-28" x="579.638672"/>
     <use xlink:href="#DejaVuSans-61" x="618.652344"/>
     <use xlink:href="#DejaVuSans-74" x="679.931641"/>
     <use xlink:href="#DejaVuSans-2e" x="719.140625"/>
     <use xlink:href="#DejaVuSans-25" x="750.927734"/>
     <use xlink:href="#DejaVuSans-29" x="845.947266"/>
    </g>
   </g>
   <g id="text_21">
    <!-- Pd content (at.%) -->
    <g transform="translate(46.688584 140.300214) rotate(-60) scale(0.12 -0.12)">
     <defs>
      <path id="DejaVuSans-50" d="M 1259 4147 
L 1259 2394 
L 2053 2394 
Q 2494 2394 2734 2622 
Q 2975 2850 2975 3272 
Q 2975 3691 2734 3919 
Q 2494 4147 2053 4147 
L 1259 4147 
z
M 628 4666 
L 2053 4666 
Q 2838 4666 3239 4311 
Q 3641 3956 3641 3272 
Q 3641 2581 3239 2228 
Q 2838 1875 2053 1875 
L 1259 1875 
L 1259 0 
L 628 0 
L 628 4666 
z
" transform="scale(0.015625)"/>
      <path id="DejaVuSans-64" d="M 2906 2969 
L 2906 4863 
L 3481 4863 
L 3481 0 
L 2906 0 
L 2906 525 
Q 2725 213 2448 61 
Q 2172 -91 1784 -91 
Q 1150 -91 751 415 
Q 353 922 353 1747 
Q 353 2572 751 3078 
Q 1150 3584 1784 3584 
Q 2172 3584 2448 3432 
Q 2725 3281 2906 2969 
z
M 947 1747 
Q 947 1113 1208 752 
Q 1469 391 1925 391 
Q 2381 391 2643 752 
Q 2906 1113 2906 1747 
Q 2906 2381 2643 2742 
Q 2381 3103 1925 3103 
Q 1469 3103 1208 2742 
Q 947 2381 947 1747 
z
" transform="scale(0.015625)"/>
     </defs>
     <use xlink:href="#DejaVuSans-50"/>
     <use xlink:href="#DejaVuSans-64" x="60.302734"/>
     <use xlink:href="#DejaVuSans-20" x="123.779297"/>
     <use xlink:href="#DejaVuSans-63" x="155.566406"/>
     <use xlink:href="#DejaVuSans-6f" x="210.546875"/>
     <use xlink:href="#DejaVuSans-6e" x="271.728516"/>
     <use xlink:href="#DejaVuSans-74" x="335.107422"/>
     <use xlink:href="#DejaVuSans-65" x="374.316406"/>
     <use xlink:href="#DejaVuSans-6e" x="435.839844"/>
     <use xlink:href="#DejaVuSans-74" x="499.21875"/>
     <use xlink:href="#DejaVuSans-20" x="538.427734"/>
     <use xlink:href="#DejaVuSans-28" x="570.214844"/>
     <use xlink:href="#DejaVuSans-61" x="609.228516"/>
     <use xlink:href="#DejaVuSans-74" x="670.507812"/>
     <use xlink:href="#DejaVuSans-2e" x="709.716797"/>
     <use xlink:href="#DejaVuSans-25" x="741.503906"/>
     <use xlink:href="#DejaVuSans-29" x="836.523438"/>
    </g>
   </g>
   <g id="text_22">
    <!-- AgAu -->
    <g transform="translate(7.2 194.692548) scale(0.14 -0.14)">
     <use xlink:href="#DejaVuSans-41"/>
     <use xlink:href="#DejaVuSans-67" x="68.408203"/>
     <use xlink:href="#DejaVuSans-41" x="131.884766"/>
     <use xlink:href="#DejaVuSans-75" x="200.292969"/>
    </g>
   </g>
   <g id="text_23">
    <!-- Cu -->
    <g transform="translate(225.920608 194.692548) scale(0.14 -0.14)">
     <use xlink:href="#DejaVuSans-43"/>
     <use xlink:href="#DejaVuSans-75" x="69.824219"/>
    </g>
   </g>
   <g id="text_24">
    <!-- Pd -->
    <g transform="translate(126.352648 17.837812) scale(0.14 -0.14)">
     <use xlink:href="#DejaVuSans-50"/>
     <use xlink:href="#DejaVuSans-64" x="60.302734"/>
    </g>
   </g>
  </g>
  <g id="axes_2">
   <g id="patch_3">
    <path d="M 229.697335 120.657328 
L 235.241335 120.657328 
L 235.241335 9.777328 
L 229.697335 9.777328 
z
" style="fill: #ffffff"/>
   </g>
   <g id="QuadMesh_1">
    <path d="M 229.697335 120.657328 
L 235.241335 120.657328 
L 235.241335 112.128097 
L 229.697335 112.128097 
L 229.697335 120.657328 
" clip-path="url(#pf123468378)" style="fill: #3d4c8a; stroke: #3d4c8a"/>
    <path d="M 229.697335 112.128097 
L 235.241335 112.128097 
L 235.241335 103.598866 
L 229.697335 103.598866 
L 229.697335 112.128097 
" clip-path="url(#pf123468378)" style="fill: #355e8d; stroke: #355e8d"/>
    <path d="M 229.697335 103.598866 
L 235.241335 103.598866 
L 235.241335 95.069635 
L 229.697335 95.069635 
L 229.697335 103.598866 
" clip-path="url(#pf123468378)" style="fill: #2e6d8e; stroke: #2e6d8e"/>
    <path d="M 229.697335 95.069635 
L 235.241335 95.069635 
L 235.241335 86.540405 
L 229.697335 86.540405 
L 229.697335 95.069635 
" clip-path="url(#pf123468378)" style="fill: #287d8e; stroke: #287d8e"/>
    <path d="M 229.697335 86.540405 
L 235.241335 86.540405 
L 235.241335 78.011174 
L 229.697335 78.011174 
L 229.697335 86.540405 
" clip-path="url(#pf123468378)" style="fill: #228c8d; stroke: #228c8d"/>
    <path d="M 229.697335 78.011174 
L 235.241335 78.011174 
L 235.241335 69.481943 
L 229.697335 69.481943 
L 229.697335 78.011174 
" clip-path="url(#pf123468378)" style="fill: #1e9c89; stroke: #1e9c89"/>
    <path d="M 229.697335 69.481943 
L 235.241335 69.481943 
L 235.241335 60.952712 
L 229.697335 60.952712 
L 229.697335 69.481943 
" clip-path="url(#pf123468378)" style="fill: #24aa83; stroke: #24aa83"/>
    <path d="M 229.697335 60.952712 
L 235.241335 60.952712 
L 235.241335 52.423482 
L 229.697335 52.423482 
L 229.697335 60.952712 
" clip-path="url(#pf123468378)" style="fill: #39b977; stroke: #39b977"/>
    <path d="M 229.697335 52.423482 
L 235.241335 52.423482 
L 235.241335 43.894251 
L 229.697335 43.894251 
L 229.697335 52.423482 
" clip-path="url(#pf123468378)" style="fill: #57c766; stroke: #57c766"/>
    <path d="M 229.697335 43.894251 
L 235.241335 43.894251 
L 235.241335 35.36502 
L 229.697335 35.36502 
L 229.697335 43.894251 
" clip-path="url(#pf123468378)" style="fill: #7cd250; stroke: #7cd250"/>
    <path d="M 229.697335 35.36502 
L 235.241335 35.36502 
L 235.241335 26.835789 
L 229.697335 26.835789 
L 229.697335 35.36502 
" clip-path="url(#pf123468378)" style="fill: #a4db36; stroke: #a4db36"/>
    <path d="M 229.697335 26.835789 
L 235.241335 26.835789 
L 235.241335 18.306559 
L 229.697335 18.306559 
L 229.697335 26.835789 
" clip-path="url(#pf123468378)" style="fill: #d0e11c; stroke: #d0e11c"/>
    <path d="M 229.697335 18.306559 
L 235.241335 18.306559 
L 235.241335 9.777328 
L 229.697335 9.777328 
L 229.697335 18.306559 
" clip-path="url(#pf123468378)" style="fill: #fae722; stroke: #fae722"/>
   </g>
   <g id="matplotlib.axis_3"/>
   <g id="matplotlib.axis_4">
    <g id="ytick_6">
     <g id="line2d_22">
      <defs>
       <path id="me200829dec" d="M 0 0 
L 3.5 0 
" style="stroke: #000000; stroke-width: 0.8"/>
      </defs>
      <g>
       <use xlink:href="#me200829dec" x="235.241335" y="120.657328" style="stroke: #000000; stroke-width: 0.8"/>
      </g>
     </g>
     <g id="text_25">
      <!-- 0.00 -->
      <g transform="translate(242.241335 124.456547) scale(0.1 -0.1)">
       <use xlink:href="#DejaVuSans-30"/>
       <use xlink:href="#DejaVuSans-2e" x="63.623047"/>
       <use xlink:href="#DejaVuSans-30" x="95.410156"/>
       <use xlink:href="#DejaVuSans-30" x="159.033203"/>
      </g>
     </g>
    </g>
    <g id="ytick_7">
     <g id="line2d_23">
      <g>
       <use xlink:href="#me200829dec" x="235.241335" y="103.598866" style="stroke: #000000; stroke-width: 0.8"/>
      </g>
     </g>
     <g id="text_26">
      <!-- 0.03 -->
      <g transform="translate(242.241335 107.398085) scale(0.1 -0.1)">
       <defs>
        <path id="DejaVuSans-33" d="M 2597 2516 
Q 3050 2419 3304 2112 
Q 3559 1806 3559 1356 
Q 3559 666 3084 287 
Q 2609 -91 1734 -91 
Q 1441 -91 1130 -33 
Q 819 25 488 141 
L 488 750 
Q 750 597 1062 519 
Q 1375 441 1716 441 
Q 2309 441 2620 675 
Q 2931 909 2931 1356 
Q 2931 1769 2642 2001 
Q 2353 2234 1838 2234 
L 1294 2234 
L 1294 2753 
L 1863 2753 
Q 2328 2753 2575 2939 
Q 2822 3125 2822 3475 
Q 2822 3834 2567 4026 
Q 2313 4219 1838 4219 
Q 1578 4219 1281 4162 
Q 984 4106 628 3988 
L 628 4550 
Q 988 4650 1302 4700 
Q 1616 4750 1894 4750 
Q 2613 4750 3031 4423 
Q 3450 4097 3450 3541 
Q 3450 3153 3228 2886 
Q 3006 2619 2597 2516 
z
" transform="scale(0.015625)"/>
       </defs>
       <use xlink:href="#DejaVuSans-30"/>
       <use xlink:href="#DejaVuSans-2e" x="63.623047"/>
       <use xlink:href="#DejaVuSans-30" x="95.410156"/>
       <use xlink:href="#DejaVuSans-33" x="159.033203"/>
      </g>
     </g>
    </g>
    <g id="ytick_8">
     <g id="line2d_24">
      <g>
       <use xlink:href="#me200829dec" x="235.241335" y="86.540405" style="stroke: #000000; stroke-width: 0.8"/>
      </g>
     </g>
     <g id="text_27">
      <!-- 0.06 -->
      <g transform="translate(242.241335 90.339623) scale(0.1 -0.1)">
       <use xlink:href="#DejaVuSans-30"/>
       <use xlink:href="#DejaVuSans-2e" x="63.623047"/>
       <use xlink:href="#DejaVuSans-30" x="95.410156"/>
       <use xlink:href="#DejaVuSans-36" x="159.033203"/>
      </g>
     </g>
    </g>
    <g id="ytick_9">
     <g id="line2d_25">
      <g>
       <use xlink:href="#me200829dec" x="235.241335" y="69.481943" style="stroke: #000000; stroke-width: 0.8"/>
      </g>
     </g>
     <g id="text_28">
      <!-- 0.09 -->
      <g transform="translate(242.241335 73.281162) scale(0.1 -0.1)">
       <defs>
        <path id="DejaVuSans-39" d="M 703 97 
L 703 672 
Q 941 559 1184 500 
Q 1428 441 1663 441 
Q 2288 441 2617 861 
Q 2947 1281 2994 2138 
Q 2813 1869 2534 1725 
Q 2256 1581 1919 1581 
Q 1219 1581 811 2004 
Q 403 2428 403 3163 
Q 403 3881 828 4315 
Q 1253 4750 1959 4750 
Q 2769 4750 3195 4129 
Q 3622 3509 3622 2328 
Q 3622 1225 3098 567 
Q 2575 -91 1691 -91 
Q 1453 -91 1209 -44 
Q 966 3 703 97 
z
M 1959 2075 
Q 2384 2075 2632 2365 
Q 2881 2656 2881 3163 
Q 2881 3666 2632 3958 
Q 2384 4250 1959 4250 
Q 1534 4250 1286 3958 
Q 1038 3666 1038 3163 
Q 1038 2656 1286 2365 
Q 1534 2075 1959 2075 
z
" transform="scale(0.015625)"/>
       </defs>
       <use xlink:href="#DejaVuSans-30"/>
       <use xlink:href="#DejaVuSans-2e" x="63.623047"/>
       <use xlink:href="#DejaVuSans-30" x="95.410156"/>
       <use xlink:href="#DejaVuSans-39" x="159.033203"/>
      </g>
     </g>
    </g>
    <g id="ytick_10">
     <g id="line2d_26">
      <g>
       <use xlink:href="#me200829dec" x="235.241335" y="52.423482" style="stroke: #000000; stroke-width: 0.8"/>
      </g>
     </g>
     <g id="text_29">
      <!-- 0.12 -->
      <g transform="translate(242.241335 56.2227) scale(0.1 -0.1)">
       <use xlink:href="#DejaVuSans-30"/>
       <use xlink:href="#DejaVuSans-2e" x="63.623047"/>
       <use xlink:href="#DejaVuSans-31" x="95.410156"/>
       <use xlink:href="#DejaVuSans-32" x="159.033203"/>
      </g>
     </g>
    </g>
    <g id="ytick_11">
     <g id="line2d_27">
      <g>
       <use xlink:href="#me200829dec" x="235.241335" y="35.36502" style="stroke: #000000; stroke-width: 0.8"/>
      </g>
     </g>
     <g id="text_30">
      <!-- 0.15 -->
      <g transform="translate(242.241335 39.164239) scale(0.1 -0.1)">
       <defs>
        <path id="DejaVuSans-35" d="M 691 4666 
L 3169 4666 
L 3169 4134 
L 1269 4134 
L 1269 2991 
Q 1406 3038 1543 3061 
Q 1681 3084 1819 3084 
Q 2600 3084 3056 2656 
Q 3513 2228 3513 1497 
Q 3513 744 3044 326 
Q 2575 -91 1722 -91 
Q 1428 -91 1123 -41 
Q 819 9 494 109 
L 494 744 
Q 775 591 1075 516 
Q 1375 441 1709 441 
Q 2250 441 2565 725 
Q 2881 1009 2881 1497 
Q 2881 1984 2565 2268 
Q 2250 2553 1709 2553 
Q 1456 2553 1204 2497 
Q 953 2441 691 2322 
L 691 4666 
z
" transform="scale(0.015625)"/>
       </defs>
       <use xlink:href="#DejaVuSans-30"/>
       <use xlink:href="#DejaVuSans-2e" x="63.623047"/>
       <use xlink:href="#DejaVuSans-31" x="95.410156"/>
       <use xlink:href="#DejaVuSans-35" x="159.033203"/>
      </g>
     </g>
    </g>
    <g id="ytick_12">
     <g id="line2d_28">
      <g>
       <use xlink:href="#me200829dec" x="235.241335" y="18.306559" style="stroke: #000000; stroke-width: 0.8"/>
      </g>
     </g>
     <g id="text_31">
      <!-- 0.18 -->
      <g transform="translate(242.241335 22.105777) scale(0.1 -0.1)">
       <use xlink:href="#DejaVuSans-30"/>
       <use xlink:href="#DejaVuSans-2e" x="63.623047"/>
       <use xlink:href="#DejaVuSans-31" x="95.410156"/>
       <use xlink:href="#DejaVuSans-38" x="159.033203"/>
      </g>
     </g>
    </g>
   </g>
   <g id="LineCollection_1"/>
   <g id="patch_4">
    <path d="M 229.697335 120.657328 
L 232.469335 120.657328 
L 235.241335 120.657328 
L 235.241335 9.777328 
L 232.469335 9.777328 
L 229.697335 9.777328 
L 229.697335 120.657328 
z
" style="fill: none; stroke: #000000; stroke-width: 0.8; stroke-linejoin: miter; stroke-linecap: square"/>
   </g>
  </g>
 </g>
 <defs>
  <clipPath id="p23d98cd176">
   <rect x="45.737335" y="25.619193" width="178.56" height="156.812269"/>
  </clipPath>
  <clipPath id="pf123468378">
   <rect x="229.697335" y="9.777328" width="5.544" height="110.88"/>
  </clipPath>
 </defs>
</svg>
