<?xml version="1.0" encoding="utf-8" standalone="no"?>
<!DOCTYPE svg PUBLIC "-//W3C//DTD SVG 1.1//EN"
  "http://www.w3.org/Graphics/SVG/1.1/DTD/svg11.dtd">
<svg xmlns:xlink="http://www.w3.org/1999/xlink" width="271.70696pt" height="211.269683pt" viewBox="0 0 271.70696 211.269683" xmlns="http://www.w3.org/2000/svg" version="1.1">
 <metadata>
  <rdf:RDF xmlns:dc="http://purl.org/dc/elements/1.1/" xmlns:cc="http://creativecommons.org/ns#" xmlns:rdf="http://www.w3.org/1999/02/22-rdf-syntax-ns#">
   <cc:Work>
    <dc:type rdf:resource="http://purl.org/dc/dcmitype/StillImage"/>
    <dc:date>2024-01-11T13:13:52.988387</dc:date>
    <dc:format>image/svg+xml</dc:format>
    <dc:creator>
     <cc:Agent>
      <dc:title>Matplotlib v3.7.0, https://matplotlib.org/</dc:title>
     </cc:Agent>
    </dc:creator>
   </cc:Work>
  </rdf:RDF>
 </metadata>
 <defs>
  <style type="text/css">*{stroke-linejoin: round; stroke-linecap: butt}</style>
 </defs>
 <g id="figure_1">
  <g id="patch_1">
   <path d="M 0 211.269683 
L 271.70696 211.269683 
L 271.70696 0 
L 0 0 
z
" style="fill: #ffffff"/>
  </g>
  <g id="axes_1">
   <g id="patch_2">
    <path d="M 45.737335 183.653353 
L 224.297335 183.653353 
L 224.297335 26.841084 
L 45.737335 26.841084 
z
" style="fill: #ffffff"/>
   </g>
   <g id="PathCollection_1">
    <defs>
     <path id="m024ab61a14" d="M 104.396509 -123.275408 
L 107.555658 -125.471576 
L 112.587983 -123.405503 
L 115.562845 -120.080418 
L 117.901656 -118.551101 
L 119.663881 -118.557473 
L 120.905467 -120.080418 
L 122.55292 -126.607326 
L 122.489904 -127.109395 
L 122.518135 -127.671714 
L 123.104608 -127.562878 
L 128.253699 -127.109395 
L 130.904681 -127.015047 
L 131.019723 -127.004485 
L 137.944548 -125.1505 
L 140.40223 -124.811461 
L 147.191881 -127.109395 
L 154.414478 -125.561347 
L 156.580725 -124.905394 
L 161.543332 -123.850929 
L 165.305884 -123.850929 
L 163.424608 -127.109395 
L 159.366426 -134.138373 
L 155.308244 -141.16735 
L 151.250063 -148.196327 
L 147.191881 -155.225304 
L 143.133699 -162.254281 
L 139.075517 -169.283258 
L 135.017335 -176.312235 
L 130.959153 -169.283258 
L 126.900972 -162.254281 
L 122.84279 -155.225304 
L 118.784608 -148.196327 
L 114.726426 -141.16735 
L 110.668244 -134.138373 
L 106.610063 -127.109395 
M 97.489198 -111.311595 
L 99.099398 -112.00234 
L 100.52279 -113.051441 
L 101.3924 -118.072139 
L 98.493699 -113.051441 
M 63.704608 -35.732693 
L 63.15837 -37.790902 
L 61.081127 -42.76167 
L 61.921169 -49.705961 
L 57.911881 -42.76167 
L 53.853699 -35.732693 
L 61.970063 -35.732693 
" style="stroke: #3e4c8a"/>
    </defs>
    <g clip-path="url(#p22e6051e60)">
     <use xlink:href="#m024ab61a14" x="0" y="211.269683" style="fill: #3e4c8a; stroke: #3e4c8a"/>
    </g>
   </g>
   <g id="PathCollection_2">
    <defs>
     <path id="m7b8cb8e173" d="M 165.305884 -123.850929 
L 161.543332 -123.850929 
L 156.580725 -124.905394 
L 154.414478 -125.561347 
L 147.191881 -127.109395 
L 140.40223 -124.811461 
L 137.944548 -125.1505 
L 131.019723 -127.004485 
L 130.904681 -127.015047 
L 128.253699 -127.109395 
L 123.104608 -127.562878 
L 122.518135 -127.671714 
L 122.489904 -127.109395 
L 122.55292 -126.607326 
L 120.905467 -120.080418 
L 119.663881 -118.557473 
L 117.901656 -118.551101 
L 115.562845 -120.080418 
L 112.587983 -123.405503 
L 107.555658 -125.471576 
L 104.396509 -123.275408 
L 102.551881 -120.080418 
L 101.3924 -118.072139 
L 100.52279 -113.051441 
L 99.099398 -112.00234 
L 97.489198 -111.311595 
L 94.435517 -106.022464 
L 90.377335 -98.993487 
L 86.319153 -91.96451 
L 82.260972 -84.935533 
L 78.20279 -77.906556 
L 74.144608 -70.877579 
L 70.086426 -63.848602 
L 66.028244 -56.819624 
L 61.970063 -49.790647 
L 61.921169 -49.705961 
L 61.081127 -42.76167 
L 63.15837 -37.790902 
L 63.704608 -35.732693 
L 70.086426 -35.732693 
L 72.106336 -35.732693 
L 71.261163 -37.767397 
L 69.881148 -42.76167 
L 69.514851 -48.800651 
L 69.482979 -49.790647 
L 69.680608 -50.493545 
L 72.040366 -56.819624 
L 72.747529 -59.239436 
L 74.453976 -63.848602 
L 75.93109 -67.783301 
L 78.20279 -70.877579 
L 80.193596 -74.458378 
L 81.306105 -77.906556 
L 84.874716 -80.408395 
L 88.664193 -84.935533 
L 89.375112 -86.671434 
L 93.612118 -91.96451 
L 93.915872 -92.864562 
L 95.556857 -93.906727 
L 99.517552 -97.220121 
L 102.665661 -98.993487 
L 100.973699 -103.288973 
L 100.415996 -106.022464 
L 102.127892 -106.756835 
L 103.604002 -107.844792 
L 110.588672 -106.160287 
L 110.793111 -106.23874 
L 116.334385 -110.266375 
L 121.250339 -110.293235 
L 125.911171 -107.736849 
L 129.699718 -110.870035 
L 131.164342 -112.696044 
L 136.578174 -113.051441 
L 138.942462 -113.281899 
L 139.184462 -113.240139 
L 146.230732 -114.716199 
L 148.305406 -114.980124 
L 153.993947 -115.327871 
L 156.331768 -114.824236 
L 162.938472 -113.893454 
L 163.910744 -113.893454 
L 167.23433 -113.051441 
L 171.097641 -112.28357 
L 172.165307 -111.97006 
L 171.540972 -113.051441 
L 167.48279 -120.080418 
" style="stroke: #365d8d"/>
    </defs>
    <g clip-path="url(#p22e6051e60)">
     <use xlink:href="#m7b8cb8e173" x="0" y="211.269683" style="fill: #365d8d; stroke: #365d8d"/>
    </g>
   </g>
   <g id="PathCollection_3">
    <defs>
     <path id="mbb01810b5a" d="M 172.165307 -111.97006 
L 171.097641 -112.28357 
L 167.23433 -113.051441 
L 163.910744 -113.893454 
L 162.938472 -113.893454 
L 156.331768 -114.824236 
L 153.993947 -115.327871 
L 148.305406 -114.980124 
L 146.230732 -114.716199 
L 139.184462 -113.240139 
L 138.942462 -113.281899 
L 136.578174 -113.051441 
L 131.164342 -112.696044 
L 129.699718 -110.870035 
L 125.911171 -107.736849 
L 121.250339 -110.293235 
L 116.334385 -110.266375 
L 110.793111 -106.23874 
L 110.588672 -106.160287 
L 103.604002 -107.844792 
L 102.127892 -106.756835 
L 100.415996 -106.022464 
L 100.973699 -103.288973 
L 102.665661 -98.993487 
L 99.517552 -97.220121 
L 95.556857 -93.906727 
L 93.915872 -92.864562 
L 93.612118 -91.96451 
L 89.375112 -86.671434 
L 88.664193 -84.935533 
L 84.874716 -80.408395 
L 81.306105 -77.906556 
L 80.193596 -74.458378 
L 78.20279 -70.877579 
L 75.93109 -67.783301 
L 74.453976 -63.848602 
L 72.747529 -59.239436 
L 72.040366 -56.819624 
L 69.680608 -50.493545 
L 69.482979 -49.790647 
L 69.514851 -48.800651 
L 69.881148 -42.76167 
L 71.261163 -37.767397 
L 72.106336 -35.732693 
L 78.20279 -35.732693 
L 80.594981 -35.732693 
L 80.150717 -39.106602 
L 78.675588 -42.76167 
L 77.653562 -48.839357 
L 77.613699 -49.790647 
L 77.846462 -50.407826 
L 80.603161 -56.819624 
L 81.262035 -58.549834 
L 84.022816 -63.848602 
L 85.282261 -65.644552 
L 88.984822 -70.877579 
L 89.484025 -72.424838 
L 93.057267 -75.519356 
L 94.691823 -77.46262 
L 95.034265 -77.906556 
L 98.762008 -84.470807 
L 99.203326 -84.935533 
L 103.941888 -89.556947 
L 110.527498 -91.72073 
L 110.78999 -91.753641 
L 111.30901 -91.96451 
L 116.740919 -95.504283 
L 120.163602 -98.993487 
L 122.108863 -100.264685 
L 123.365434 -99.898734 
L 125.306686 -98.993487 
L 129.820527 -97.021328 
L 132.149147 -96.932358 
L 134.108787 -98.993487 
L 136.628672 -103.231547 
L 142.885871 -105.593214 
L 143.305474 -105.724941 
L 150.371668 -104.501041 
L 152.429767 -103.979157 
L 159.207282 -106.022464 
L 159.345508 -106.058696 
L 159.384225 -106.053293 
L 159.574538 -106.022464 
L 166.837556 -104.904886 
L 168.220641 -104.744468 
L 174.037191 -103.317066 
L 177.004414 -103.588482 
L 175.599153 -106.022464 
" style="stroke: #2f6c8e"/>
    </defs>
    <g clip-path="url(#p22e6051e60)">
     <use xlink:href="#mbb01810b5a" x="0" y="211.269683" style="fill: #2f6c8e; stroke: #2f6c8e"/>
    </g>
   </g>
   <g id="PathCollection_4">
    <defs>
     <path id="m7b2c746228" d="M 177.004414 -103.588482 
L 174.037191 -103.317066 
L 168.220641 -104.744468 
L 166.837556 -104.904886 
L 159.574538 -106.022464 
L 159.384225 -106.053293 
L 159.345508 -106.058696 
L 159.207282 -106.022464 
L 152.429767 -103.979157 
L 150.371668 -104.501041 
L 143.305474 -105.724941 
L 142.885871 -105.593214 
L 136.628672 -103.231547 
L 134.108787 -98.993487 
L 132.149147 -96.932358 
L 129.820527 -97.021328 
L 125.306686 -98.993487 
L 123.365434 -99.898734 
L 122.108863 -100.264685 
L 120.163602 -98.993487 
L 116.740919 -95.504283 
L 111.30901 -91.96451 
L 110.78999 -91.753641 
L 110.527498 -91.72073 
L 103.941888 -89.556947 
L 99.203326 -84.935533 
L 98.762008 -84.470807 
L 95.034265 -77.906556 
L 94.691823 -77.46262 
L 93.057267 -75.519356 
L 89.484025 -72.424838 
L 88.984822 -70.877579 
L 85.282261 -65.644552 
L 84.022816 -63.848602 
L 81.262035 -58.549834 
L 80.603161 -56.819624 
L 77.846462 -50.407826 
L 77.613699 -49.790647 
L 77.653562 -48.839357 
L 78.675588 -42.76167 
L 80.150717 -39.106602 
L 80.594981 -35.732693 
L 86.319153 -35.732693 
L 88.078896 -35.732693 
L 87.365737 -37.545429 
L 86.562644 -42.76167 
L 86.888289 -48.804876 
L 87.179413 -49.790647 
L 87.301661 -51.4924 
L 88.244568 -56.819624 
L 89.270558 -58.736618 
L 91.904608 -63.848602 
L 93.266438 -65.873506 
L 97.898965 -70.877579 
L 98.251632 -71.296851 
L 100.17636 -73.792033 
L 102.944608 -77.226332 
L 104.30677 -77.906556 
L 108.59141 -81.503738 
L 113.137208 -82.182926 
L 115.593824 -83.433156 
L 120.553559 -84.935533 
L 122.40081 -85.701065 
L 124.08279 -87.083276 
L 127.617965 -90.722641 
L 134.164429 -90.487233 
L 135.631012 -90.901591 
L 137.767141 -91.96451 
L 141.153699 -95.393971 
L 145.71812 -96.440859 
L 148.330151 -97.021945 
L 153.605139 -96.043621 
L 157.225024 -95.673527 
L 162.388926 -97.199634 
L 164.667426 -96.840863 
L 169.853622 -96.070912 
L 172.911042 -96.620456 
L 178.697765 -97.331463 
L 180.384174 -97.734566 
L 179.657335 -98.993487 
" style="stroke: #297b8e"/>
    </defs>
    <g clip-path="url(#p22e6051e60)">
     <use xlink:href="#m7b2c746228" x="0" y="211.269683" style="fill: #297b8e; stroke: #297b8e"/>
    </g>
   </g>
   <g id="PathCollection_5">
    <defs>
     <path id="m54d096cd99" d="M 180.384174 -97.734566 
L 178.697765 -97.331463 
L 172.911042 -96.620456 
L 169.853622 -96.070912 
L 164.667426 -96.840863 
L 162.388926 -97.199634 
L 157.225024 -95.673527 
L 153.605139 -96.043621 
L 148.330151 -97.021945 
L 145.71812 -96.440859 
L 141.153699 -95.393971 
L 137.767141 -91.96451 
L 135.631012 -90.901591 
L 134.164429 -90.487233 
L 127.617965 -90.722641 
L 124.08279 -87.083276 
L 122.40081 -85.701065 
L 120.553559 -84.935533 
L 115.593824 -83.433156 
L 113.137208 -82.182926 
L 108.59141 -81.503738 
L 104.30677 -77.906556 
L 102.944608 -77.226332 
L 100.17636 -73.792033 
L 98.251632 -71.296851 
L 97.898965 -70.877579 
L 93.266438 -65.873506 
L 91.904608 -63.848602 
L 89.270558 -58.736618 
L 88.244568 -56.819624 
L 87.301661 -51.4924 
L 87.179413 -49.790647 
L 86.888289 -48.804876 
L 86.562644 -42.76167 
L 87.365737 -37.545429 
L 88.078896 -35.732693 
L 94.435517 -35.732693 
L 96.566792 -35.732693 
L 95.98655 -38.419161 
L 94.27462 -42.76167 
L 95.741599 -47.528448 
L 96.65267 -49.790647 
L 98.973957 -55.987793 
L 99.125322 -56.819624 
L 102.602608 -63.760739 
L 102.732244 -63.848602 
L 107.277865 -69.720912 
L 108.511193 -70.877579 
L 113.335517 -73.286704 
L 117.400422 -75.509075 
L 119.578208 -76.532 
L 121.618894 -77.906556 
L 125.827517 -79.765834 
L 130.262294 -83.728537 
L 131.278547 -84.382326 
L 132.158964 -84.935533 
L 138.105513 -86.61563 
L 140.827507 -87.970069 
L 145.324098 -88.170627 
L 149.631225 -89.160601 
L 152.380777 -90.006054 
L 157.899448 -89.42363 
L 160.639815 -89.758936 
L 165.970491 -89.345132 
L 169.03248 -89.280368 
L 174.394381 -89.877782 
L 176.661212 -90.12497 
L 183.306975 -91.256895 
L 184.259024 -91.023129 
L 183.715517 -91.96451 
" style="stroke: #238a8d"/>
    </defs>
    <g clip-path="url(#p22e6051e60)">
     <use xlink:href="#m54d096cd99" x="0" y="211.269683" style="fill: #238a8d; stroke: #238a8d"/>
    </g>
   </g>
   <g id="PathCollection_6">
    <defs>
     <path id="mf27be49836" d="M 184.259024 -91.023129 
L 183.306975 -91.256895 
L 176.661212 -90.12497 
L 174.394381 -89.877782 
L 169.03248 -89.280368 
L 165.970491 -89.345132 
L 160.639815 -89.758936 
L 157.899448 -89.42363 
L 152.380777 -90.006054 
L 149.631225 -89.160601 
L 145.324098 -88.170627 
L 140.827507 -87.970069 
L 138.105513 -86.61563 
L 132.158964 -84.935533 
L 131.278547 -84.382326 
L 130.262294 -83.728537 
L 125.827517 -79.765834 
L 121.618894 -77.906556 
L 119.578208 -76.532 
L 117.400422 -75.509075 
L 113.335517 -73.286704 
L 108.511193 -70.877579 
L 107.277865 -69.720912 
L 102.732244 -63.848602 
L 102.602608 -63.760739 
L 99.125322 -56.819624 
L 98.973957 -55.987793 
L 96.65267 -49.790647 
L 95.741599 -47.528448 
L 94.27462 -42.76167 
L 95.98655 -38.419161 
L 96.566792 -35.732693 
L 102.551881 -35.732693 
L 104.7521 -35.732693 
L 105.019694 -40.007071 
L 105.148109 -42.76167 
L 105.704776 -44.329673 
L 106.630252 -49.790647 
L 107.076933 -56.010981 
L 107.245681 -56.819624 
L 112.435276 -60.788014 
L 114.692324 -63.848602 
L 117.0759 -66.808171 
L 121.361231 -68.311444 
L 123.846426 -69.139229 
L 125.700081 -70.877579 
L 129.212072 -73.903613 
L 133.854598 -75.892635 
L 135.759153 -76.621689 
L 137.705222 -77.906556 
L 141.494512 -80.745711 
L 144.853834 -80.885916 
L 148.853125 -82.058174 
L 154.366993 -83.305238 
L 156.208423 -83.376378 
L 163.1423 -84.446561 
L 163.769985 -84.337322 
L 171.025974 -84.043531 
L 171.820461 -84.451444 
L 176.259788 -84.935533 
L 179.456103 -85.284077 
L 179.90246 -85.360102 
L 181.631586 -84.935533 
L 187.093285 -83.757022 
L 188.460279 -83.74634 
L 187.773699 -84.935533 
" style="stroke: #1f998a"/>
    </defs>
    <g clip-path="url(#p22e6051e60)">
     <use xlink:href="#mf27be49836" x="0" y="211.269683" style="fill: #1f998a; stroke: #1f998a"/>
    </g>
   </g>
   <g id="PathCollection_7">
    <defs>
     <path id="m8f1c31436d" d="M 188.460279 -83.74634 
L 187.093285 -83.757022 
L 181.631586 -84.935533 
L 179.90246 -85.360102 
L 179.456103 -85.284077 
L 176.259788 -84.935533 
L 171.820461 -84.451444 
L 171.025974 -84.043531 
L 163.769985 -84.337322 
L 163.1423 -84.446561 
L 156.208423 -83.376378 
L 154.366993 -83.305238 
L 148.853125 -82.058174 
L 144.853834 -80.885916 
L 141.494512 -80.745711 
L 137.705222 -77.906556 
L 135.759153 -76.621689 
L 133.854598 -75.892635 
L 129.212072 -73.903613 
L 125.700081 -70.877579 
L 123.846426 -69.139229 
L 121.361231 -68.311444 
L 117.0759 -66.808171 
L 114.692324 -63.848602 
L 112.435276 -60.788014 
L 107.245681 -56.819624 
L 107.076933 -56.010981 
L 106.630252 -49.790647 
L 105.704776 -44.329673 
L 105.148109 -42.76167 
L 105.019694 -40.007071 
L 104.7521 -35.732693 
L 110.668244 -35.732693 
L 113.929961 -35.732693 
L 115.352137 -41.677907 
L 115.74827 -42.76167 
L 116.14679 -45.221812 
L 116.330824 -49.790647 
L 117.156325 -52.610916 
L 119.357528 -56.819624 
L 121.383444 -59.347286 
L 125.464447 -61.360468 
L 127.861488 -62.184938 
L 130.052957 -63.848602 
L 133.64279 -66.229384 
L 138.025164 -69.058314 
L 139.371146 -70.365534 
L 139.906029 -70.877579 
L 144.888266 -74.867557 
L 150.441794 -76.506594 
L 151.938376 -76.714362 
L 158.827332 -76.972817 
L 159.873699 -77.027934 
L 166.523583 -76.245161 
L 168.362063 -76.383611 
L 171.296503 -77.906556 
L 174.615352 -79.61055 
L 176.715153 -79.839524 
L 183.278482 -78.663523 
L 184.055724 -78.495811 
L 191.525371 -78.437445 
" style="stroke: #22a785"/>
    </defs>
    <g clip-path="url(#p22e6051e60)">
     <use xlink:href="#m8f1c31436d" x="0" y="211.269683" style="fill: #22a785; stroke: #22a785"/>
    </g>
   </g>
   <g id="PathCollection_8">
    <defs>
     <path id="m4b71db5230" d="M 191.525371 -78.437445 
L 184.055724 -78.495811 
L 183.278482 -78.663523 
L 176.715153 -79.839524 
L 174.615352 -79.61055 
L 171.296503 -77.906556 
L 168.362063 -76.383611 
L 166.523583 -76.245161 
L 159.873699 -77.027934 
L 158.827332 -76.972817 
L 151.938376 -76.714362 
L 150.441794 -76.506594 
L 144.888266 -74.867557 
L 139.906029 -70.877579 
L 139.371146 -70.365534 
L 138.025164 -69.058314 
L 133.64279 -66.229384 
L 130.052957 -63.848602 
L 127.861488 -62.184938 
L 125.464447 -61.360468 
L 121.383444 -59.347286 
L 119.357528 -56.819624 
L 117.156325 -52.610916 
L 116.330824 -49.790647 
L 116.14679 -45.221812 
L 115.74827 -42.76167 
L 115.352137 -41.677907 
L 113.929961 -35.732693 
L 118.784608 -35.732693 
L 121.069798 -35.732693 
L 123.026063 -42.444233 
L 123.138699 -42.76167 
L 124.077889 -44.900924 
L 126.254893 -49.790647 
L 126.564542 -50.37336 
L 127.37492 -50.61155 
L 132.855061 -53.535817 
L 135.680692 -56.819624 
L 137.78697 -59.051453 
L 142.011621 -63.848602 
L 142.730568 -64.546844 
L 144.533072 -66.272387 
L 148.905335 -67.909788 
L 154.653699 -69.743873 
L 155.60664 -70.360742 
L 162.469742 -70.877579 
L 163.396426 -70.926391 
L 163.449203 -70.920179 
L 171.180244 -71.502377 
L 172.210362 -72.036998 
L 177.866138 -73.980024 
L 181.14147 -73.448176 
L 186.304357 -73.422553 
L 189.230482 -73.400801 
L 194.582155 -73.142942 
L 191.831881 -77.906556 
" style="stroke: #33b67a"/>
    </defs>
    <g clip-path="url(#p22e6051e60)">
     <use xlink:href="#m4b71db5230" x="0" y="211.269683" style="fill: #33b67a; stroke: #33b67a"/>
    </g>
   </g>
   <g id="PathCollection_9">
    <defs>
     <path id="mbf37b1e094" d="M 194.582155 -73.142942 
L 189.230482 -73.400801 
L 186.304357 -73.422553 
L 181.14147 -73.448176 
L 177.866138 -73.980024 
L 172.210362 -72.036998 
L 171.180244 -71.502377 
L 163.449203 -70.920179 
L 163.396426 -70.926391 
L 162.469742 -70.877579 
L 155.60664 -70.360742 
L 154.653699 -69.743873 
L 148.905335 -67.909788 
L 144.533072 -66.272387 
L 142.730568 -64.546844 
L 142.011621 -63.848602 
L 137.78697 -59.051453 
L 135.680692 -56.819624 
L 132.855061 -53.535817 
L 127.37492 -50.61155 
L 126.564542 -50.37336 
L 126.254893 -49.790647 
L 124.077889 -44.900924 
L 123.138699 -42.76167 
L 123.026063 -42.444233 
L 121.069798 -35.732693 
L 126.900972 -35.732693 
L 131.525939 -35.732693 
L 132.816772 -39.544181 
L 134.008654 -42.76167 
L 137.083319 -46.212259 
L 142.886679 -49.362797 
L 143.280128 -49.537024 
L 143.491023 -49.790647 
L 143.659759 -50.701811 
L 145.375361 -56.819624 
L 146.477519 -58.056935 
L 148.062815 -58.328126 
L 153.945071 -59.180709 
L 157.693797 -60.951523 
L 160.211304 -62.385231 
L 163.747826 -63.848602 
L 166.779372 -65.066958 
L 168.264366 -65.20233 
L 174.305608 -66.089088 
L 177.447075 -67.049296 
L 181.477549 -67.724876 
L 185.937149 -67.696582 
L 189.381413 -68.092936 
L 194.142111 -67.850037 
L 197.340863 -68.364719 
L 195.890063 -70.877579 
" style="stroke: #4cc26c"/>
    </defs>
    <g clip-path="url(#p22e6051e60)">
     <use xlink:href="#mbf37b1e094" x="0" y="211.269683" style="fill: #4cc26c; stroke: #4cc26c"/>
    </g>
   </g>
   <g id="PathCollection_10">
    <defs>
     <path id="mc94054eb26" d="M 197.340863 -68.364719 
L 194.142111 -67.850037 
L 189.381413 -68.092936 
L 185.937149 -67.696582 
L 181.477549 -67.724876 
L 177.447075 -67.049296 
L 174.305608 -66.089088 
L 168.264366 -65.20233 
L 166.779372 -65.066958 
L 163.747826 -63.848602 
L 160.211304 -62.385231 
L 157.693797 -60.951523 
L 153.945071 -59.180709 
L 148.062815 -58.328126 
L 146.477519 -58.056935 
L 145.375361 -56.819624 
L 143.659759 -50.701811 
L 143.491023 -49.790647 
L 143.280128 -49.537024 
L 142.886679 -49.362797 
L 137.083319 -46.212259 
L 134.008654 -42.76167 
L 132.816772 -39.544181 
L 131.525939 -35.732693 
L 135.017335 -35.732693 
L 143.133699 -35.732693 
L 143.856939 -35.732693 
L 148.226963 -40.968854 
L 149.245418 -42.76167 
L 152.650421 -47.365155 
L 156.100085 -49.790647 
L 158.196819 -51.816466 
L 162.554998 -55.313415 
L 163.761231 -56.236576 
L 164.729024 -56.819624 
L 170.234571 -59.082377 
L 173.11729 -59.549888 
L 177.670226 -60.261399 
L 182.038582 -60.944066 
L 185.095851 -61.457793 
L 190.8611 -62.16716 
L 192.625307 -62.474346 
L 199.112736 -63.848602 
L 199.877226 -63.971609 
" style="stroke: #6fcf57"/>
    </defs>
    <g clip-path="url(#p22e6051e60)">
     <use xlink:href="#mc94054eb26" x="0" y="211.269683" style="fill: #6fcf57; stroke: #6fcf57"/>
    </g>
   </g>
   <g id="PathCollection_11">
    <defs>
     <path id="m7ea7b1c927" d="M 199.877226 -63.971609 
L 199.112736 -63.848602 
L 192.625307 -62.474346 
L 190.8611 -62.16716 
L 185.095851 -61.457793 
L 182.038582 -60.944066 
L 177.670226 -60.261399 
L 173.11729 -59.549888 
L 170.234571 -59.082377 
L 164.729024 -56.819624 
L 163.761231 -56.236576 
L 162.554998 -55.313415 
L 158.196819 -51.816466 
L 156.100085 -49.790647 
L 152.650421 -47.365155 
L 149.245418 -42.76167 
L 148.226963 -40.968854 
L 143.856939 -35.732693 
L 151.250063 -35.732693 
L 156.888799 -35.732693 
L 158.100972 -37.924525 
L 162.234208 -42.76167 
L 163.195685 -43.158177 
L 164.144608 -44.008747 
L 168.549631 -47.942823 
L 170.767985 -49.790647 
L 174.281562 -52.072783 
L 177.262343 -52.671376 
L 182.413836 -52.045225 
L 185.649791 -53.140907 
L 188.876894 -54.908835 
L 195.74767 -56.819624 
L 195.877056 -56.842153 
L 195.906694 -56.848432 
L 203.420562 -57.834371 
L 199.948244 -63.848602 
" style="stroke: #96d83f"/>
    </defs>
    <g clip-path="url(#p22e6051e60)">
     <use xlink:href="#m7ea7b1c927" x="0" y="211.269683" style="fill: #96d83f; stroke: #96d83f"/>
    </g>
   </g>
   <g id="PathCollection_12">
    <defs>
     <path id="md07cee286a" d="M 203.420562 -57.834371 
L 195.906694 -56.848432 
L 195.877056 -56.842153 
L 195.74767 -56.819624 
L 188.876894 -54.908835 
L 185.649791 -53.140907 
L 182.413836 -52.045225 
L 177.262343 -52.671376 
L 174.281562 -52.072783 
L 170.767985 -49.790647 
L 168.549631 -47.942823 
L 164.144608 -44.008747 
L 163.195685 -43.158177 
L 162.234208 -42.76167 
L 158.100972 -37.924525 
L 156.888799 -35.732693 
L 159.366426 -35.732693 
L 167.48279 -35.732693 
L 175.599153 -35.732693 
L 180.154255 -35.732693 
L 181.291881 -39.930555 
L 182.301993 -42.76167 
L 186.83358 -44.390005 
L 189.295517 -45.397537 
L 194.751436 -44.733829 
L 198.000317 -46.416738 
L 200.63737 -48.597047 
L 207.909377 -49.521779 
L 208.411038 -49.190613 
L 208.064608 -49.790647 
L 204.006426 -56.819624 
" style="stroke: #c0df25"/>
    </defs>
    <g clip-path="url(#p22e6051e60)">
     <use xlink:href="#md07cee286a" x="0" y="211.269683" style="fill: #c0df25; stroke: #c0df25"/>
    </g>
   </g>
   <g id="PathCollection_13">
    <defs>
     <path id="me8c927f106" d="M 214.221849 -35.732693 
L 215.621222 -36.702207 
L 212.12279 -42.76167 
L 208.411038 -49.190613 
L 207.909377 -49.521779 
L 200.63737 -48.597047 
L 198.000317 -46.416738 
L 194.751436 -44.733829 
L 189.295517 -45.397537 
L 186.83358 -44.390005 
L 182.301993 -42.76167 
L 181.291881 -39.930555 
L 180.154255 -35.732693 
L 183.715517 -35.732693 
L 191.831881 -35.732693 
L 199.948244 -35.732693 
L 208.064608 -35.732693 
" style="stroke: #e8e419"/>
    </defs>
    <g clip-path="url(#p22e6051e60)">
     <use xlink:href="#me8c927f106" x="0" y="211.269683" style="fill: #e8e419; stroke: #e8e419"/>
    </g>
   </g>
   <g id="PathCollection_14">
    <defs>
     <path id="mf9e26d8b9a" d="M 215.621222 -36.702207 
L 214.221849 -35.732693 
L 216.180972 -35.732693 
" style="stroke: #fde725"/>
    </defs>
    <g clip-path="url(#p22e6051e60)">
     <use xlink:href="#mf9e26d8b9a" x="0" y="211.269683" style="fill: #fde725; stroke: #fde725"/>
    </g>
   </g>
   <g id="line2d_1">
    <path d="M 53.853699 175.53699 
L 135.017335 34.957448 
" clip-path="url(#p22e6051e60)" style="fill: none; stroke: #000000; stroke-linecap: square"/>
   </g>
   <g id="line2d_2">
    <path d="M 135.017335 34.957448 
L 216.180972 175.53699 
" clip-path="url(#p22e6051e60)" style="fill: none; stroke: #000000; stroke-linecap: square"/>
   </g>
   <g id="line2d_3">
    <path d="M 53.853699 175.53699 
L 216.180972 175.53699 
" clip-path="url(#p22e6051e60)" style="fill: none; stroke: #000000; stroke-linecap: square"/>
   </g>
   <g id="line2d_4">
    <path d="M 216.180972 175.53699 
L 218.528549 179.603112 
" clip-path="url(#p22e6051e60)" style="fill: none; stroke: #000000; stroke-linecap: square"/>
   </g>
   <g id="line2d_5">
    <path d="M 183.715517 175.53699 
L 186.063094 179.603112 
" clip-path="url(#p22e6051e60)" style="fill: none; stroke: #000000; stroke-linecap: square"/>
   </g>
   <g id="line2d_6">
    <path d="M 151.250063 175.53699 
L 153.59764 179.603112 
" clip-path="url(#p22e6051e60)" style="fill: none; stroke: #000000; stroke-linecap: square"/>
   </g>
   <g id="line2d_7">
    <path d="M 118.784608 175.53699 
L 121.132185 179.603112 
" clip-path="url(#p22e6051e60)" style="fill: none; stroke: #000000; stroke-linecap: square"/>
   </g>
   <g id="line2d_8">
    <path d="M 86.319153 175.53699 
L 88.66673 179.603112 
" clip-path="url(#p22e6051e60)" style="fill: none; stroke: #000000; stroke-linecap: square"/>
   </g>
   <g id="line2d_9">
    <path d="M 53.853699 175.53699 
L 56.201276 179.603112 
" clip-path="url(#p22e6051e60)" style="fill: none; stroke: #000000; stroke-linecap: square"/>
   </g>
   <g id="line2d_10">
    <path d="M 53.853699 175.53699 
L 49.158545 175.53699 
" clip-path="url(#p22e6051e60)" style="fill: none; stroke: #000000; stroke-linecap: square"/>
   </g>
   <g id="line2d_11">
    <path d="M 70.086426 147.421081 
L 65.391272 147.421081 
" clip-path="url(#p22e6051e60)" style="fill: none; stroke: #000000; stroke-linecap: square"/>
   </g>
   <g id="line2d_12">
    <path d="M 86.319153 119.305173 
L 81.623999 119.305173 
" clip-path="url(#p22e6051e60)" style="fill: none; stroke: #000000; stroke-linecap: square"/>
   </g>
   <g id="line2d_13">
    <path d="M 102.551881 91.189265 
L 97.856727 91.189265 
" clip-path="url(#p22e6051e60)" style="fill: none; stroke: #000000; stroke-linecap: square"/>
   </g>
   <g id="line2d_14">
    <path d="M 118.784608 63.073356 
L 114.089454 63.073356 
" clip-path="url(#p22e6051e60)" style="fill: none; stroke: #000000; stroke-linecap: square"/>
   </g>
   <g id="line2d_15">
    <path d="M 135.017335 34.957448 
L 130.322181 34.957448 
" clip-path="url(#p22e6051e60)" style="fill: none; stroke: #000000; stroke-linecap: square"/>
   </g>
   <g id="line2d_16">
    <path d="M 135.017335 34.957448 
L 137.364912 30.891325 
" clip-path="url(#p22e6051e60)" style="fill: none; stroke: #000000; stroke-linecap: square"/>
   </g>
   <g id="line2d_17">
    <path d="M 151.250063 63.073356 
L 153.59764 59.007234 
" clip-path="url(#p22e6051e60)" style="fill: none; stroke: #000000; stroke-linecap: square"/>
   </g>
   <g id="line2d_18">
    <path d="M 167.48279 91.189265 
L 169.830367 87.123142 
" clip-path="url(#p22e6051e60)" style="fill: none; stroke: #000000; stroke-linecap: square"/>
   </g>
   <g id="line2d_19">
    <path d="M 183.715517 119.305173 
L 186.063094 115.23905 
" clip-path="url(#p22e6051e60)" style="fill: none; stroke: #000000; stroke-linecap: square"/>
   </g>
   <g id="line2d_20">
    <path d="M 199.948244 147.421081 
L 202.295821 143.354959 
" clip-path="url(#p22e6051e60)" style="fill: none; stroke: #000000; stroke-linecap: square"/>
   </g>
   <g id="line2d_21">
    <path d="M 216.180972 175.53699 
L 218.528549 171.470867 
" clip-path="url(#p22e6051e60)" style="fill: none; stroke: #000000; stroke-linecap: square"/>
   </g>
   <g id="matplotlib.axis_1">
    <g id="xtick_1"/>
    <g id="xtick_2"/>
    <g id="xtick_3"/>
    <g id="xtick_4"/>
    <g id="xtick_5"/>
   </g>
   <g id="matplotlib.axis_2">
    <g id="ytick_1"/>
    <g id="ytick_2"/>
    <g id="ytick_3"/>
    <g id="ytick_4"/>
    <g id="ytick_5"/>
   </g>
   <g id="text_1">
    <!-- 0 -->
    <g transform="translate(217.23329 188.523172) scale(0.12 -0.12)">
     <defs>
      <path id="DejaVuSans-30" d="M 2034 4250 
Q 1547 4250 1301 3770 
Q 1056 3291 1056 2328 
Q 1056 1369 1301 889 
Q 1547 409 2034 409 
Q 2525 409 2770 889 
Q 3016 1369 3016 2328 
Q 3016 3291 2770 3770 
Q 2525 4250 2034 4250 
z
M 2034 4750 
Q 2819 4750 3233 4129 
Q 3647 3509 3647 2328 
Q 3647 1150 3233 529 
Q 2819 -91 2034 -91 
Q 1250 -91 836 529 
Q 422 1150 422 2328 
Q 422 3509 836 4129 
Q 1250 4750 2034 4750 
z
" transform="scale(0.015625)"/>
     </defs>
     <use xlink:href="#DejaVuSans-30"/>
    </g>
   </g>
   <g id="text_2">
    <!-- 20 -->
    <g transform="translate(180.950335 188.523172) scale(0.12 -0.12)">
     <defs>
      <path id="DejaVuSans-32" d="M 1228 531 
L 3431 531 
L 3431 0 
L 469 0 
L 469 531 
Q 828 903 1448 1529 
Q 2069 2156 2228 2338 
Q 2531 2678 2651 2914 
Q 2772 3150 2772 3378 
Q 2772 3750 2511 3984 
Q 2250 4219 1831 4219 
Q 1534 4219 1204 4116 
Q 875 4013 500 3803 
L 500 4441 
Q 881 4594 1212 4672 
Q 1544 4750 1819 4750 
Q 2544 4750 2975 4387 
Q 3406 4025 3406 3419 
Q 3406 3131 3298 2873 
Q 3191 2616 2906 2266 
Q 2828 2175 2409 1742 
Q 1991 1309 1228 531 
z
" transform="scale(0.015625)"/>
     </defs>
     <use xlink:href="#DejaVuSans-32"/>
     <use xlink:href="#DejaVuSans-30" x="63.623047"/>
    </g>
   </g>
   <g id="text_3">
    <!-- 40 -->
    <g transform="translate(148.484881 188.523172) scale(0.12 -0.12)">
     <defs>
      <path id="DejaVuSans-34" d="M 2419 4116 
L 825 1625 
L 2419 1625 
L 2419 4116 
z
M 2253 4666 
L 3047 4666 
L 3047 1625 
L 3713 1625 
L 3713 1100 
L 3047 1100 
L 3047 0 
L 2419 0 
L 2419 1100 
L 313 1100 
L 313 1709 
L 2253 4666 
z
" transform="scale(0.015625)"/>
     </defs>
     <use xlink:href="#DejaVuSans-34"/>
     <use xlink:href="#DejaVuSans-30" x="63.623047"/>
    </g>
   </g>
   <g id="text_4">
    <!-- 60 -->
    <g transform="translate(116.019426 188.523172) scale(0.12 -0.12)">
     <defs>
      <path id="DejaVuSans-36" d="M 2113 2584 
Q 1688 2584 1439 2293 
Q 1191 2003 1191 1497 
Q 1191 994 1439 701 
Q 1688 409 2113 409 
Q 2538 409 2786 701 
Q 3034 994 3034 1497 
Q 3034 2003 2786 2293 
Q 2538 2584 2113 2584 
z
M 3366 4563 
L 3366 3988 
Q 3128 4100 2886 4159 
Q 2644 4219 2406 4219 
Q 1781 4219 1451 3797 
Q 1122 3375 1075 2522 
Q 1259 2794 1537 2939 
Q 1816 3084 2150 3084 
Q 2853 3084 3261 2657 
Q 3669 2231 3669 1497 
Q 3669 778 3244 343 
Q 2819 -91 2113 -91 
Q 1303 -91 875 529 
Q 447 1150 447 2328 
Q 447 3434 972 4092 
Q 1497 4750 2381 4750 
Q 2619 4750 2861 4703 
Q 3103 4656 3366 4563 
z
" transform="scale(0.015625)"/>
     </defs>
     <use xlink:href="#DejaVuSans-36"/>
     <use xlink:href="#DejaVuSans-30" x="63.623047"/>
    </g>
   </g>
   <g id="text_5">
    <!-- 80 -->
    <g transform="translate(83.553972 188.523172) scale(0.12 -0.12)">
     <defs>
      <path id="DejaVuSans-38" d="M 2034 2216 
Q 1584 2216 1326 1975 
Q 1069 1734 1069 1313 
Q 1069 891 1326 650 
Q 1584 409 2034 409 
Q 2484 409 2743 651 
Q 3003 894 3003 1313 
Q 3003 1734 2745 1975 
Q 2488 2216 2034 2216 
z
M 1403 2484 
Q 997 2584 770 2862 
Q 544 3141 544 3541 
Q 544 4100 942 4425 
Q 1341 4750 2034 4750 
Q 2731 4750 3128 4425 
Q 3525 4100 3525 3541 
Q 3525 3141 3298 2862 
Q 3072 2584 2669 2484 
Q 3125 2378 3379 2068 
Q 3634 1759 3634 1313 
Q 3634 634 3220 271 
Q 2806 -91 2034 -91 
Q 1263 -91 848 271 
Q 434 634 434 1313 
Q 434 1759 690 2068 
Q 947 2378 1403 2484 
z
M 1172 3481 
Q 1172 3119 1398 2916 
Q 1625 2713 2034 2713 
Q 2441 2713 2670 2916 
Q 2900 3119 2900 3481 
Q 2900 3844 2670 4047 
Q 2441 4250 2034 4250 
Q 1625 4250 1398 4047 
Q 1172 3844 1172 3481 
z
" transform="scale(0.015625)"/>
     </defs>
     <use xlink:href="#DejaVuSans-38"/>
     <use xlink:href="#DejaVuSans-30" x="63.623047"/>
    </g>
   </g>
   <g id="text_6">
    <!-- 100 -->
    <g transform="translate(47.271017 188.523172) scale(0.12 -0.12)">
     <defs>
      <path id="DejaVuSans-31" d="M 794 531 
L 1825 531 
L 1825 4091 
L 703 3866 
L 703 4441 
L 1819 4666 
L 2450 4666 
L 2450 531 
L 3481 531 
L 3481 0 
L 794 0 
L 794 531 
z
" transform="scale(0.015625)"/>
     </defs>
     <use xlink:href="#DejaVuSans-31"/>
     <use xlink:href="#DejaVuSans-30" x="63.623047"/>
     <use xlink:href="#DejaVuSans-30" x="127.246094"/>
    </g>
   </g>
   <g id="text_7">
    <!-- 0 -->
    <g transform="translate(41.348881 177.971899) scale(0.12 -0.12)">
     <use xlink:href="#DejaVuSans-30"/>
    </g>
   </g>
   <g id="text_8">
    <!-- 20 -->
    <g transform="translate(49.946608 149.85599) scale(0.12 -0.12)">
     <use xlink:href="#DejaVuSans-32"/>
     <use xlink:href="#DejaVuSans-30" x="63.623047"/>
    </g>
   </g>
   <g id="text_9">
    <!-- 40 -->
    <g transform="translate(66.179335 121.740082) scale(0.12 -0.12)">
     <use xlink:href="#DejaVuSans-34"/>
     <use xlink:href="#DejaVuSans-30" x="63.623047"/>
    </g>
   </g>
   <g id="text_10">
    <!-- 60 -->
    <g transform="translate(82.412063 93.624174) scale(0.12 -0.12)">
     <use xlink:href="#DejaVuSans-36"/>
     <use xlink:href="#DejaVuSans-30" x="63.623047"/>
    </g>
   </g>
   <g id="text_11">
    <!-- 80 -->
    <g transform="translate(98.64479 65.508265) scale(0.12 -0.12)">
     <use xlink:href="#DejaVuSans-38"/>
     <use xlink:href="#DejaVuSans-30" x="63.623047"/>
    </g>
   </g>
   <g id="text_12">
    <!-- 100 -->
    <g transform="translate(107.242517 37.392357) scale(0.12 -0.12)">
     <use xlink:href="#DejaVuSans-31"/>
     <use xlink:href="#DejaVuSans-30" x="63.623047"/>
     <use xlink:href="#DejaVuSans-30" x="127.246094"/>
    </g>
   </g>
   <g id="text_13">
    <!-- 0 -->
    <g transform="translate(137.452244 31.710902) scale(0.12 -0.12)">
     <use xlink:href="#DejaVuSans-30"/>
    </g>
   </g>
   <g id="text_14">
    <!-- 20 -->
    <g transform="translate(153.684972 59.826811) scale(0.12 -0.12)">
     <use xlink:href="#DejaVuSans-32"/>
     <use xlink:href="#DejaVuSans-30" x="63.623047"/>
    </g>
   </g>
   <g id="text_15">
    <!-- 40 -->
    <g transform="translate(169.917699 87.942719) scale(0.12 -0.12)">
     <use xlink:href="#DejaVuSans-34"/>
     <use xlink:href="#DejaVuSans-30" x="63.623047"/>
    </g>
   </g>
   <g id="text_16">
    <!-- 60 -->
    <g transform="translate(186.150426 116.058627) scale(0.12 -0.12)">
     <use xlink:href="#DejaVuSans-36"/>
     <use xlink:href="#DejaVuSans-30" x="63.623047"/>
    </g>
   </g>
   <g id="text_17">
    <!-- 80 -->
    <g transform="translate(202.383153 144.174536) scale(0.12 -0.12)">
     <use xlink:href="#DejaVuSans-38"/>
     <use xlink:href="#DejaVuSans-30" x="63.623047"/>
    </g>
   </g>
   <g id="text_18">
    <!-- 100 -->
    <g transform="translate(218.615881 172.290444) scale(0.12 -0.12)">
     <use xlink:href="#DejaVuSans-31"/>
     <use xlink:href="#DejaVuSans-30" x="63.623047"/>
     <use xlink:href="#DejaVuSans-30" x="127.246094"/>
    </g>
   </g>
   <g id="text_19">
    <!-- AgAu content (at.%) -->
    <g transform="translate(74.09296 201.574058) scale(0.12 -0.12)">
     <defs>
      <path id="DejaVuSans-41" d="M 2188 4044 
L 1331 1722 
L 3047 1722 
L 2188 4044 
z
M 1831 4666 
L 2547 4666 
L 4325 0 
L 3669 0 
L 3244 1197 
L 1141 1197 
L 716 0 
L 50 0 
L 1831 4666 
z
" transform="scale(0.015625)"/>
      <path id="DejaVuSans-67" d="M 2906 1791 
Q 2906 2416 2648 2759 
Q 2391 3103 1925 3103 
Q 1463 3103 1205 2759 
Q 947 2416 947 1791 
Q 947 1169 1205 825 
Q 1463 481 1925 481 
Q 2391 481 2648 825 
Q 2906 1169 2906 1791 
z
M 3481 434 
Q 3481 -459 3084 -895 
Q 2688 -1331 1869 -1331 
Q 1566 -1331 1297 -1286 
Q 1028 -1241 775 -1147 
L 775 -588 
Q 1028 -725 1275 -790 
Q 1522 -856 1778 -856 
Q 2344 -856 2625 -561 
Q 2906 -266 2906 331 
L 2906 616 
Q 2728 306 2450 153 
Q 2172 0 1784 0 
Q 1141 0 747 490 
Q 353 981 353 1791 
Q 353 2603 747 3093 
Q 1141 3584 1784 3584 
Q 2172 3584 2450 3431 
Q 2728 3278 2906 2969 
L 2906 3500 
L 3481 3500 
L 3481 434 
z
" transform="scale(0.015625)"/>
      <path id="DejaVuSans-75" d="M 544 1381 
L 544 3500 
L 1119 3500 
L 1119 1403 
Q 1119 906 1312 657 
Q 1506 409 1894 409 
Q 2359 409 2629 706 
Q 2900 1003 2900 1516 
L 2900 3500 
L 3475 3500 
L 3475 0 
L 2900 0 
L 2900 538 
Q 2691 219 2414 64 
Q 2138 -91 1772 -91 
Q 1169 -91 856 284 
Q 544 659 544 1381 
z
M 1991 3584 
L 1991 3584 
z
" transform="scale(0.015625)"/>
      <path id="DejaVuSans-20" transform="scale(0.015625)"/>
      <path id="DejaVuSans-63" d="M 3122 3366 
L 3122 2828 
Q 2878 2963 2633 3030 
Q 2388 3097 2138 3097 
Q 1578 3097 1268 2742 
Q 959 2388 959 1747 
Q 959 1106 1268 751 
Q 1578 397 2138 397 
Q 2388 397 2633 464 
Q 2878 531 3122 666 
L 3122 134 
Q 2881 22 2623 -34 
Q 2366 -91 2075 -91 
Q 1284 -91 818 406 
Q 353 903 353 1747 
Q 353 2603 823 3093 
Q 1294 3584 2113 3584 
Q 2378 3584 2631 3529 
Q 2884 3475 3122 3366 
z
" transform="scale(0.015625)"/>
      <path id="DejaVuSans-6f" d="M 1959 3097 
Q 1497 3097 1228 2736 
Q 959 2375 959 1747 
Q 959 1119 1226 758 
Q 1494 397 1959 397 
Q 2419 397 2687 759 
Q 2956 1122 2956 1747 
Q 2956 2369 2687 2733 
Q 2419 3097 1959 3097 
z
M 1959 3584 
Q 2709 3584 3137 3096 
Q 3566 2609 3566 1747 
Q 3566 888 3137 398 
Q 2709 -91 1959 -91 
Q 1206 -91 779 398 
Q 353 888 353 1747 
Q 353 2609 779 3096 
Q 1206 3584 1959 3584 
z
" transform="scale(0.015625)"/>
      <path id="DejaVuSans-6e" d="M 3513 2113 
L 3513 0 
L 2938 0 
L 2938 2094 
Q 2938 2591 2744 2837 
Q 2550 3084 2163 3084 
Q 1697 3084 1428 2787 
Q 1159 2491 1159 1978 
L 1159 0 
L 581 0 
L 581 3500 
L 1159 3500 
L 1159 2956 
Q 1366 3272 1645 3428 
Q 1925 3584 2291 3584 
Q 2894 3584 3203 3211 
Q 3513 2838 3513 2113 
z
" transform="scale(0.015625)"/>
      <path id="DejaVuSans-74" d="M 1172 4494 
L 1172 3500 
L 2356 3500 
L 2356 3053 
L 1172 3053 
L 1172 1153 
Q 1172 725 1289 603 
Q 1406 481 1766 481 
L 2356 481 
L 2356 0 
L 1766 0 
Q 1100 0 847 248 
Q 594 497 594 1153 
L 594 3053 
L 172 3053 
L 172 3500 
L 594 3500 
L 594 4494 
L 1172 4494 
z
" transform="scale(0.015625)"/>
      <path id="DejaVuSans-65" d="M 3597 1894 
L 3597 1613 
L 953 1613 
Q 991 1019 1311 708 
Q 1631 397 2203 397 
Q 2534 397 2845 478 
Q 3156 559 3463 722 
L 3463 178 
Q 3153 47 2828 -22 
Q 2503 -91 2169 -91 
Q 1331 -91 842 396 
Q 353 884 353 1716 
Q 353 2575 817 3079 
Q 1281 3584 2069 3584 
Q 2775 3584 3186 3129 
Q 3597 2675 3597 1894 
z
M 3022 2063 
Q 3016 2534 2758 2815 
Q 2500 3097 2075 3097 
Q 1594 3097 1305 2825 
Q 1016 2553 972 2059 
L 3022 2063 
z
" transform="scale(0.015625)"/>
      <path id="DejaVuSans-28" d="M 1984 4856 
Q 1566 4138 1362 3434 
Q 1159 2731 1159 2009 
Q 1159 1288 1364 580 
Q 1569 -128 1984 -844 
L 1484 -844 
Q 1016 -109 783 600 
Q 550 1309 550 2009 
Q 550 2706 781 3412 
Q 1013 4119 1484 4856 
L 1984 4856 
z
" transform="scale(0.015625)"/>
      <path id="DejaVuSans-61" d="M 2194 1759 
Q 1497 1759 1228 1600 
Q 959 1441 959 1056 
Q 959 750 1161 570 
Q 1363 391 1709 391 
Q 2188 391 2477 730 
Q 2766 1069 2766 1631 
L 2766 1759 
L 2194 1759 
z
M 3341 1997 
L 3341 0 
L 2766 0 
L 2766 531 
Q 2569 213 2275 61 
Q 1981 -91 1556 -91 
Q 1019 -91 701 211 
Q 384 513 384 1019 
Q 384 1609 779 1909 
Q 1175 2209 1959 2209 
L 2766 2209 
L 2766 2266 
Q 2766 2663 2505 2880 
Q 2244 3097 1772 3097 
Q 1472 3097 1187 3025 
Q 903 2953 641 2809 
L 641 3341 
Q 956 3463 1253 3523 
Q 1550 3584 1831 3584 
Q 2591 3584 2966 3190 
Q 3341 2797 3341 1997 
z
" transform="scale(0.015625)"/>
      <path id="DejaVuSans-2e" d="M 684 794 
L 1344 794 
L 1344 0 
L 684 0 
L 684 794 
z
" transform="scale(0.015625)"/>
      <path id="DejaVuSans-25" d="M 4653 2053 
Q 4381 2053 4226 1822 
Q 4072 1591 4072 1178 
Q 4072 772 4226 539 
Q 4381 306 4653 306 
Q 4919 306 5073 539 
Q 5228 772 5228 1178 
Q 5228 1588 5073 1820 
Q 4919 2053 4653 2053 
z
M 4653 2450 
Q 5147 2450 5437 2106 
Q 5728 1763 5728 1178 
Q 5728 594 5436 251 
Q 5144 -91 4653 -91 
Q 4153 -91 3862 251 
Q 3572 594 3572 1178 
Q 3572 1766 3864 2108 
Q 4156 2450 4653 2450 
z
M 1428 4353 
Q 1159 4353 1004 4120 
Q 850 3888 850 3481 
Q 850 3069 1003 2837 
Q 1156 2606 1428 2606 
Q 1700 2606 1854 2837 
Q 2009 3069 2009 3481 
Q 2009 3884 1853 4118 
Q 1697 4353 1428 4353 
z
M 4250 4750 
L 4750 4750 
L 1831 -91 
L 1331 -91 
L 4250 4750 
z
M 1428 4750 
Q 1922 4750 2215 4408 
Q 2509 4066 2509 3481 
Q 2509 2891 2217 2550 
Q 1925 2209 1428 2209 
Q 931 2209 642 2551 
Q 353 2894 353 3481 
Q 353 4063 643 4406 
Q 934 4750 1428 4750 
z
" transform="scale(0.015625)"/>
      <path id="DejaVuSans-29" d="M 513 4856 
L 1013 4856 
Q 1481 4119 1714 3412 
Q 1947 2706 1947 2009 
Q 1947 1309 1714 600 
Q 1481 -109 1013 -844 
L 513 -844 
Q 928 -128 1133 580 
Q 1338 1288 1338 2009 
Q 1338 2731 1133 3434 
Q 928 4138 513 4856 
z
" transform="scale(0.015625)"/>
     </defs>
     <use xlink:href="#DejaVuSans-41"/>
     <use xlink:href="#DejaVuSans-67" x="68.408203"/>
     <use xlink:href="#DejaVuSans-41" x="131.884766"/>
     <use xlink:href="#DejaVuSans-75" x="200.292969"/>
     <use xlink:href="#DejaVuSans-20" x="263.671875"/>
     <use xlink:href="#DejaVuSans-63" x="295.458984"/>
     <use xlink:href="#DejaVuSans-6f" x="350.439453"/>
     <use xlink:href="#DejaVuSans-6e" x="411.621094"/>
     <use xlink:href="#DejaVuSans-74" x="475"/>
     <use xlink:href="#DejaVuSans-65" x="514.208984"/>
     <use xlink:href="#DejaVuSans-6e" x="575.732422"/>
     <use xlink:href="#DejaVuSans-74" x="639.111328"/>
     <use xlink:href="#DejaVuSans-20" x="678.320312"/>
     <use xlink:href="#DejaVuSans-28" x="710.107422"/>
     <use xlink:href="#DejaVuSans-61" x="749.121094"/>
     <use xlink:href="#DejaVuSans-74" x="810.400391"/>
     <use xlink:href="#DejaVuSans-2e" x="849.609375"/>
     <use xlink:href="#DejaVuSans-25" x="881.396484"/>
     <use xlink:href="#DejaVuSans-29" x="976.416016"/>
    </g>
   </g>
   <g id="text_20">
    <!-- Cu content (at.%) -->
    <g transform="translate(170.532493 50.046277) rotate(-300) scale(0.12 -0.12)">
     <defs>
      <path id="DejaVuSans-43" d="M 4122 4306 
L 4122 3641 
Q 3803 3938 3442 4084 
Q 3081 4231 2675 4231 
Q 1875 4231 1450 3742 
Q 1025 3253 1025 2328 
Q 1025 1406 1450 917 
Q 1875 428 2675 428 
Q 3081 428 3442 575 
Q 3803 722 4122 1019 
L 4122 359 
Q 3791 134 3420 21 
Q 3050 -91 2638 -91 
Q 1578 -91 968 557 
Q 359 1206 359 2328 
Q 359 3453 968 4101 
Q 1578 4750 2638 4750 
Q 3056 4750 3426 4639 
Q 3797 4528 4122 4306 
z
" transform="scale(0.015625)"/>
     </defs>
     <use xlink:href="#DejaVuSans-43"/>
     <use xlink:href="#DejaVuSans-75" x="69.824219"/>
     <use xlink:href="#DejaVuSans-20" x="133.203125"/>
     <use xlink:href="#DejaVuSans-63" x="164.990234"/>
     <use xlink:href="#DejaVuSans-6f" x="219.970703"/>
     <use xlink:href="#DejaVuSans-6e" x="281.152344"/>
     <use xlink:href="#DejaVuSans-74" x="344.53125"/>
     <use xlink:href="#DejaVuSans-65" x="383.740234"/>
     <use xlink:href="#DejaVuSans-6e" x="445.263672"/>
     <use xlink:href="#DejaVuSans-74" x="508.642578"/>
     <use xlink:href="#DejaVuSans-20" x="547.851562"/>
     <use xlink:href="#DejaVuSans-28" x="579.638672"/>
     <use xlink:href="#DejaVuSans-61" x="618.652344"/>
     <use xlink:href="#DejaVuSans-74" x="679.931641"/>
     <use xlink:href="#DejaVuSans-2e" x="719.140625"/>
     <use xlink:href="#DejaVuSans-25" x="750.927734"/>
     <use xlink:href="#DejaVuSans-29" x="845.947266"/>
    </g>
   </g>
   <g id="text_21">
    <!-- Pd content (at.%) -->
    <g transform="translate(46.688584 141.522105) rotate(-60) scale(0.12 -0.12)">
     <defs>
      <path id="DejaVuSans-50" d="M 1259 4147 
L 1259 2394 
L 2053 2394 
Q 2494 2394 2734 2622 
Q 2975 2850 2975 3272 
Q 2975 3691 2734 3919 
Q 2494 4147 2053 4147 
L 1259 4147 
z
M 628 4666 
L 2053 4666 
Q 2838 4666 3239 4311 
Q 3641 3956 3641 3272 
Q 3641 2581 3239 2228 
Q 2838 1875 2053 1875 
L 1259 1875 
L 1259 0 
L 628 0 
L 628 4666 
z
" transform="scale(0.015625)"/>
      <path id="DejaVuSans-64" d="M 2906 2969 
L 2906 4863 
L 3481 4863 
L 3481 0 
L 2906 0 
L 2906 525 
Q 2725 213 2448 61 
Q 2172 -91 1784 -91 
Q 1150 -91 751 415 
Q 353 922 353 1747 
Q 353 2572 751 3078 
Q 1150 3584 1784 3584 
Q 2172 3584 2448 3432 
Q 2725 3281 2906 2969 
z
M 947 1747 
Q 947 1113 1208 752 
Q 1469 391 1925 391 
Q 2381 391 2643 752 
Q 2906 1113 2906 1747 
Q 2906 2381 2643 2742 
Q 2381 3103 1925 3103 
Q 1469 3103 1208 2742 
Q 947 2381 947 1747 
z
" transform="scale(0.015625)"/>
     </defs>
     <use xlink:href="#DejaVuSans-50"/>
     <use xlink:href="#DejaVuSans-64" x="60.302734"/>
     <use xlink:href="#DejaVuSans-20" x="123.779297"/>
     <use xlink:href="#DejaVuSans-63" x="155.566406"/>
     <use xlink:href="#DejaVuSans-6f" x="210.546875"/>
     <use xlink:href="#DejaVuSans-6e" x="271.728516"/>
     <use xlink:href="#DejaVuSans-74" x="335.107422"/>
     <use xlink:href="#DejaVuSans-65" x="374.316406"/>
     <use xlink:href="#DejaVuSans-6e" x="435.839844"/>
     <use xlink:href="#DejaVuSans-74" x="499.21875"/>
     <use xlink:href="#DejaVuSans-20" x="538.427734"/>
     <use xlink:href="#DejaVuSans-28" x="570.214844"/>
     <use xlink:href="#DejaVuSans-61" x="609.228516"/>
     <use xlink:href="#DejaVuSans-74" x="670.507812"/>
     <use xlink:href="#DejaVuSans-2e" x="709.716797"/>
     <use xlink:href="#DejaVuSans-25" x="741.503906"/>
     <use xlink:href="#DejaVuSans-29" x="836.523438"/>
    </g>
   </g>
   <g id="text_22">
    <!-- AgAu -->
    <g transform="translate(7.2 195.914439) scale(0.14 -0.14)">
     <use xlink:href="#DejaVuSans-41"/>
     <use xlink:href="#DejaVuSans-67" x="68.408203"/>
     <use xlink:href="#DejaVuSans-41" x="131.884766"/>
     <use xlink:href="#DejaVuSans-75" x="200.292969"/>
    </g>
   </g>
   <g id="text_23">
    <!-- Cu -->
    <g transform="translate(225.920608 195.914439) scale(0.14 -0.14)">
     <use xlink:href="#DejaVuSans-43"/>
     <use xlink:href="#DejaVuSans-75" x="69.824219"/>
    </g>
   </g>
   <g id="text_24">
    <!-- Pd -->
    <g transform="translate(126.352648 19.059703) scale(0.14 -0.14)">
     <use xlink:href="#DejaVuSans-50"/>
     <use xlink:href="#DejaVuSans-64" x="60.302734"/>
    </g>
   </g>
  </g>
  <g id="axes_2">
   <g id="patch_3">
    <path d="M 229.697335 121.879219 
L 235.241335 121.879219 
L 235.241335 10.999219 
L 229.697335 10.999219 
z
" style="fill: #ffffff"/>
   </g>
   <g id="QuadMesh_1">
    <path d="M 229.697335 121.879219 
L 235.241335 121.879219 
L 235.241335 113.959219 
L 229.697335 113.959219 
L 229.697335 121.879219 
" clip-path="url(#p57d82575dc)" style="fill: #3e4c8a; stroke: #3e4c8a"/>
    <path d="M 229.697335 113.959219 
L 235.241335 113.959219 
L 235.241335 106.039219 
L 229.697335 106.039219 
L 229.697335 113.959219 
" clip-path="url(#p57d82575dc)" style="fill: #365d8d; stroke: #365d8d"/>
    <path d="M 229.697335 106.039219 
L 235.241335 106.039219 
L 235.241335 98.119219 
L 229.697335 98.119219 
L 229.697335 106.039219 
" clip-path="url(#p57d82575dc)" style="fill: #2f6c8e; stroke: #2f6c8e"/>
    <path d="M 229.697335 98.119219 
L 235.241335 98.119219 
L 235.241335 90.199219 
L 229.697335 90.199219 
L 229.697335 98.119219 
" clip-path="url(#p57d82575dc)" style="fill: #297b8e; stroke: #297b8e"/>
    <path d="M 229.697335 90.199219 
L 235.241335 90.199219 
L 235.241335 82.279219 
L 229.697335 82.279219 
L 229.697335 90.199219 
" clip-path="url(#p57d82575dc)" style="fill: #238a8d; stroke: #238a8d"/>
    <path d="M 229.697335 82.279219 
L 235.241335 82.279219 
L 235.241335 74.359219 
L 229.697335 74.359219 
L 229.697335 82.279219 
" clip-path="url(#p57d82575dc)" style="fill: #1f998a; stroke: #1f998a"/>
    <path d="M 229.697335 74.359219 
L 235.241335 74.359219 
L 235.241335 66.439219 
L 229.697335 66.439219 
L 229.697335 74.359219 
" clip-path="url(#p57d82575dc)" style="fill: #22a785; stroke: #22a785"/>
    <path d="M 229.697335 66.439219 
L 235.241335 66.439219 
L 235.241335 58.519219 
L 229.697335 58.519219 
L 229.697335 66.439219 
" clip-path="url(#p57d82575dc)" style="fill: #33b67a; stroke: #33b67a"/>
    <path d="M 229.697335 58.519219 
L 235.241335 58.519219 
L 235.241335 50.599219 
L 229.697335 50.599219 
L 229.697335 58.519219 
" clip-path="url(#p57d82575dc)" style="fill: #4cc26c; stroke: #4cc26c"/>
    <path d="M 229.697335 50.599219 
L 235.241335 50.599219 
L 235.241335 42.679219 
L 229.697335 42.679219 
L 229.697335 50.599219 
" clip-path="url(#p57d82575dc)" style="fill: #6fcf57; stroke: #6fcf57"/>
    <path d="M 229.697335 42.679219 
L 235.241335 42.679219 
L 235.241335 34.759219 
L 229.697335 34.759219 
L 229.697335 42.679219 
" clip-path="url(#p57d82575dc)" style="fill: #96d83f; stroke: #96d83f"/>
    <path d="M 229.697335 34.759219 
L 235.241335 34.759219 
L 235.241335 26.839219 
L 229.697335 26.839219 
L 229.697335 34.759219 
" clip-path="url(#p57d82575dc)" style="fill: #c0df25; stroke: #c0df25"/>
    <path d="M 229.697335 26.839219 
L 235.241335 26.839219 
L 235.241335 18.919219 
L 229.697335 18.919219 
L 229.697335 26.839219 
" clip-path="url(#p57d82575dc)" style="fill: #e8e419; stroke: #e8e419"/>
    <path d="M 229.697335 18.919219 
L 235.241335 18.919219 
L 235.241335 10.999219 
L 229.697335 10.999219 
L 229.697335 18.919219 
" clip-path="url(#p57d82575dc)" style="fill: #fde725; stroke: #fde725"/>
   </g>
   <g id="matplotlib.axis_3"/>
   <g id="matplotlib.axis_4">
    <g id="ytick_6">
     <g id="line2d_22">
      <defs>
       <path id="ma31296ec5a" d="M 0 0 
L 3.5 0 
" style="stroke: #000000; stroke-width: 0.8"/>
      </defs>
      <g>
       <use xlink:href="#ma31296ec5a" x="235.241335" y="121.879219" style="stroke: #000000; stroke-width: 0.8"/>
      </g>
     </g>
     <g id="text_25">
      <!-- 0.00 -->
      <g transform="translate(242.241335 125.678438) scale(0.1 -0.1)">
       <use xlink:href="#DejaVuSans-30"/>
       <use xlink:href="#DejaVuSans-2e" x="63.623047"/>
       <use xlink:href="#DejaVuSans-30" x="95.410156"/>
       <use xlink:href="#DejaVuSans-30" x="159.033203"/>
      </g>
     </g>
    </g>
    <g id="ytick_7">
     <g id="line2d_23">
      <g>
       <use xlink:href="#ma31296ec5a" x="235.241335" y="106.039219" style="stroke: #000000; stroke-width: 0.8"/>
      </g>
     </g>
     <g id="text_26">
      <!-- 0.05 -->
      <g transform="translate(242.241335 109.838438) scale(0.1 -0.1)">
       <defs>
        <path id="DejaVuSans-35" d="M 691 4666 
L 3169 4666 
L 3169 4134 
L 1269 4134 
L 1269 2991 
Q 1406 3038 1543 3061 
Q 1681 3084 1819 3084 
Q 2600 3084 3056 2656 
Q 3513 2228 3513 1497 
Q 3513 744 3044 326 
Q 2575 -91 1722 -91 
Q 1428 -91 1123 -41 
Q 819 9 494 109 
L 494 744 
Q 775 591 1075 516 
Q 1375 441 1709 441 
Q 2250 441 2565 725 
Q 2881 1009 2881 1497 
Q 2881 1984 2565 2268 
Q 2250 2553 1709 2553 
Q 1456 2553 1204 2497 
Q 953 2441 691 2322 
L 691 4666 
z
" transform="scale(0.015625)"/>
       </defs>
       <use xlink:href="#DejaVuSans-30"/>
       <use xlink:href="#DejaVuSans-2e" x="63.623047"/>
       <use xlink:href="#DejaVuSans-30" x="95.410156"/>
       <use xlink:href="#DejaVuSans-35" x="159.033203"/>
      </g>
     </g>
    </g>
    <g id="ytick_8">
     <g id="line2d_24">
      <g>
       <use xlink:href="#ma31296ec5a" x="235.241335" y="90.199219" style="stroke: #000000; stroke-width: 0.8"/>
      </g>
     </g>
     <g id="text_27">
      <!-- 0.10 -->
      <g transform="translate(242.241335 93.998438) scale(0.1 -0.1)">
       <use xlink:href="#DejaVuSans-30"/>
       <use xlink:href="#DejaVuSans-2e" x="63.623047"/>
       <use xlink:href="#DejaVuSans-31" x="95.410156"/>
       <use xlink:href="#DejaVuSans-30" x="159.033203"/>
      </g>
     </g>
    </g>
    <g id="ytick_9">
     <g id="line2d_25">
      <g>
       <use xlink:href="#ma31296ec5a" x="235.241335" y="74.359219" style="stroke: #000000; stroke-width: 0.8"/>
      </g>
     </g>
     <g id="text_28">
      <!-- 0.15 -->
      <g transform="translate(242.241335 78.158438) scale(0.1 -0.1)">
       <use xlink:href="#DejaVuSans-30"/>
       <use xlink:href="#DejaVuSans-2e" x="63.623047"/>
       <use xlink:href="#DejaVuSans-31" x="95.410156"/>
       <use xlink:href="#DejaVuSans-35" x="159.033203"/>
      </g>
     </g>
    </g>
    <g id="ytick_10">
     <g id="line2d_26">
      <g>
       <use xlink:href="#ma31296ec5a" x="235.241335" y="58.519219" style="stroke: #000000; stroke-width: 0.8"/>
      </g>
     </g>
     <g id="text_29">
      <!-- 0.20 -->
      <g transform="translate(242.241335 62.318438) scale(0.1 -0.1)">
       <use xlink:href="#DejaVuSans-30"/>
       <use xlink:href="#DejaVuSans-2e" x="63.623047"/>
       <use xlink:href="#DejaVuSans-32" x="95.410156"/>
       <use xlink:href="#DejaVuSans-30" x="159.033203"/>
      </g>
     </g>
    </g>
    <g id="ytick_11">
     <g id="line2d_27">
      <g>
       <use xlink:href="#ma31296ec5a" x="235.241335" y="42.679219" style="stroke: #000000; stroke-width: 0.8"/>
      </g>
     </g>
     <g id="text_30">
      <!-- 0.25 -->
      <g transform="translate(242.241335 46.478438) scale(0.1 -0.1)">
       <use xlink:href="#DejaVuSans-30"/>
       <use xlink:href="#DejaVuSans-2e" x="63.623047"/>
       <use xlink:href="#DejaVuSans-32" x="95.410156"/>
       <use xlink:href="#DejaVuSans-35" x="159.033203"/>
      </g>
     </g>
    </g>
    <g id="ytick_12">
     <g id="line2d_28">
      <g>
       <use xlink:href="#ma31296ec5a" x="235.241335" y="26.839219" style="stroke: #000000; stroke-width: 0.8"/>
      </g>
     </g>
     <g id="text_31">
      <!-- 0.30 -->
      <g transform="translate(242.241335 30.638438) scale(0.1 -0.1)">
       <defs>
        <path id="DejaVuSans-33" d="M 2597 2516 
Q 3050 2419 3304 2112 
Q 3559 1806 3559 1356 
Q 3559 666 3084 287 
Q 2609 -91 1734 -91 
Q 1441 -91 1130 -33 
Q 819 25 488 141 
L 488 750 
Q 750 597 1062 519 
Q 1375 441 1716 441 
Q 2309 441 2620 675 
Q 2931 909 2931 1356 
Q 2931 1769 2642 2001 
Q 2353 2234 1838 2234 
L 1294 2234 
L 1294 2753 
L 1863 2753 
Q 2328 2753 2575 2939 
Q 2822 3125 2822 3475 
Q 2822 3834 2567 4026 
Q 2313 4219 1838 4219 
Q 1578 4219 1281 4162 
Q 984 4106 628 3988 
L 628 4550 
Q 988 4650 1302 4700 
Q 1616 4750 1894 4750 
Q 2613 4750 3031 4423 
Q 3450 4097 3450 3541 
Q 3450 3153 3228 2886 
Q 3006 2619 2597 2516 
z
" transform="scale(0.015625)"/>
       </defs>
       <use xlink:href="#DejaVuSans-30"/>
       <use xlink:href="#DejaVuSans-2e" x="63.623047"/>
       <use xlink:href="#DejaVuSans-33" x="95.410156"/>
       <use xlink:href="#DejaVuSans-30" x="159.033203"/>
      </g>
     </g>
    </g>
    <g id="ytick_13">
     <g id="line2d_29">
      <g>
       <use xlink:href="#ma31296ec5a" x="235.241335" y="10.999219" style="stroke: #000000; stroke-width: 0.8"/>
      </g>
     </g>
     <g id="text_32">
      <!-- 0.35 -->
      <g transform="translate(242.241335 14.798438) scale(0.1 -0.1)">
       <use xlink:href="#DejaVuSans-30"/>
       <use xlink:href="#DejaVuSans-2e" x="63.623047"/>
       <use xlink:href="#DejaVuSans-33" x="95.410156"/>
       <use xlink:href="#DejaVuSans-35" x="159.033203"/>
      </g>
     </g>
    </g>
   </g>
   <g id="LineCollection_1"/>
   <g id="patch_4">
    <path d="M 229.697335 121.879219 
L 232.469335 121.879219 
L 235.241335 121.879219 
L 235.241335 10.999219 
L 232.469335 10.999219 
L 229.697335 10.999219 
L 229.697335 121.879219 
z
" style="fill: none; stroke: #000000; stroke-width: 0.8; stroke-linejoin: miter; stroke-linecap: square"/>
   </g>
  </g>
 </g>
 <defs>
  <clipPath id="p22e6051e60">
   <rect x="45.737335" y="26.841084" width="178.56" height="156.812269"/>
  </clipPath>
  <clipPath id="p57d82575dc">
   <rect x="229.697335" y="10.999219" width="5.544" height="110.88"/>
  </clipPath>
 </defs>
</svg>
