<?xml version="1.0" encoding="utf-8" standalone="no"?>
<!DOCTYPE svg PUBLIC "-//W3C//DTD SVG 1.1//EN"
  "http://www.w3.org/Graphics/SVG/1.1/DTD/svg11.dtd">
<svg xmlns:xlink="http://www.w3.org/1999/xlink" width="271.70696pt" height="211.269683pt" viewBox="0 0 271.70696 211.269683" xmlns="http://www.w3.org/2000/svg" version="1.1">
 <metadata>
  <rdf:RDF xmlns:dc="http://purl.org/dc/elements/1.1/" xmlns:cc="http://creativecommons.org/ns#" xmlns:rdf="http://www.w3.org/1999/02/22-rdf-syntax-ns#">
   <cc:Work>
    <dc:type rdf:resource="http://purl.org/dc/dcmitype/StillImage"/>
    <dc:date>2024-01-11T13:13:52.779586</dc:date>
    <dc:format>image/svg+xml</dc:format>
    <dc:creator>
     <cc:Agent>
      <dc:title>Matplotlib v3.7.0, https://matplotlib.org/</dc:title>
     </cc:Agent>
    </dc:creator>
   </cc:Work>
  </rdf:RDF>
 </metadata>
 <defs>
  <style type="text/css">*{stroke-linejoin: round; stroke-linecap: butt}</style>
 </defs>
 <g id="figure_1">
  <g id="patch_1">
   <path d="M 0 211.269683 
L 271.70696 211.269683 
L 271.70696 0 
L 0 0 
z
" style="fill: #ffffff"/>
  </g>
  <g id="axes_1">
   <g id="patch_2">
    <path d="M 45.737335 183.653353 
L 224.297335 183.653353 
L 224.297335 26.841084 
L 45.737335 26.841084 
z
" style="fill: #ffffff"/>
   </g>
   <g id="PathCollection_1">
    <defs>
     <path id="m74ec9ae14a" d="M 207.710538 -50.403914 
L 207.155015 -49.790647 
L 202.364387 -45.605765 
L 198.646563 -42.76167 
L 196.688393 -41.378921 
L 195.06467 -41.332048 
L 189.427664 -39.896919 
L 185.862807 -39.451909 
L 182.265216 -38.244688 
L 176.574375 -37.421827 
L 174.924603 -36.901049 
L 170.411375 -35.732693 
L 175.599153 -35.732693 
L 183.715517 -35.732693 
L 191.831881 -35.732693 
L 199.948244 -35.732693 
L 208.064608 -35.732693 
L 216.180972 -35.732693 
L 212.12279 -42.76167 
L 208.064608 -49.790647 
M 107.928972 -129.393813 
L 111.757025 -127.109395 
L 114.275517 -126.328398 
L 115.360517 -126.011118 
L 122.606849 -126.700734 
L 123.011881 -126.816521 
L 130.790063 -126.816521 
L 131.226139 -126.646963 
L 138.488792 -126.093158 
L 139.994351 -125.517929 
L 144.942236 -123.212897 
L 149.39366 -123.295801 
L 152.880921 -122.905147 
L 158.372586 -120.080418 
L 159.154695 -119.713689 
L 159.772244 -119.377521 
L 167.076972 -119.377521 
L 168.178478 -118.875451 
L 167.48279 -120.080418 
L 163.424608 -127.109395 
L 159.366426 -134.138373 
L 155.308244 -141.16735 
L 151.250063 -148.196327 
L 147.191881 -155.225304 
L 143.133699 -162.254281 
L 139.075517 -169.283258 
L 135.017335 -176.312235 
L 130.959153 -169.283258 
L 126.900972 -162.254281 
L 122.84279 -155.225304 
L 118.784608 -148.196327 
L 114.726426 -141.16735 
L 110.668244 -134.138373 
M 56.882193 -35.732693 
L 55.34203 -38.310558 
L 53.853699 -35.732693 
" style="stroke: #3d4c8a"/>
    </defs>
    <g clip-path="url(#pa46373e38d)">
     <use xlink:href="#m74ec9ae14a" x="0" y="211.269683" style="fill: #3d4c8a; stroke: #3d4c8a"/>
    </g>
   </g>
   <g id="PathCollection_2">
    <defs>
     <path id="me16de1d897" d="M 203.360806 -57.937871 
L 202.012933 -56.819624 
L 197.828972 -53.461335 
L 195.296182 -49.790647 
L 192.785145 -48.139545 
L 190.217831 -46.995031 
L 186.611085 -44.775377 
L 183.428575 -42.76167 
L 180.269389 -41.701562 
L 178.933783 -41.508442 
L 173.292626 -39.727715 
L 169.173699 -38.661434 
L 166.452567 -37.517091 
L 159.707357 -36.323203 
L 159.121672 -36.15662 
L 156.923637 -35.732693 
L 159.366426 -35.732693 
L 167.48279 -35.732693 
L 170.411375 -35.732693 
L 174.924603 -36.901049 
L 176.574375 -37.421827 
L 182.265216 -38.244688 
L 185.862807 -39.451909 
L 189.427664 -39.896919 
L 195.06467 -41.332048 
L 196.688393 -41.378921 
L 198.646563 -42.76167 
L 202.364387 -45.605765 
L 207.155015 -49.790647 
L 207.710538 -50.403914 
L 204.006426 -56.819624 
M 168.178478 -118.875451 
L 167.076972 -119.377521 
L 159.772244 -119.377521 
L 159.154695 -119.713689 
L 158.372586 -120.080418 
L 152.880921 -122.905147 
L 149.39366 -123.295801 
L 144.942236 -123.212897 
L 139.994351 -125.517929 
L 138.488792 -126.093158 
L 131.226139 -126.646963 
L 130.790063 -126.816521 
L 123.011881 -126.816521 
L 122.606849 -126.700734 
L 115.360517 -126.011118 
L 114.275517 -126.328398 
L 111.757025 -127.109395 
L 107.928972 -129.393813 
L 106.610063 -127.109395 
L 102.647743 -120.246457 
L 103.289732 -120.080418 
L 109.359153 -117.813006 
L 112.135057 -117.539824 
L 116.489407 -116.105013 
L 120.42212 -117.244164 
L 125.86421 -118.284694 
L 128.612253 -117.116392 
L 132.492954 -115.708062 
L 138.427935 -114.173087 
L 139.566426 -113.901721 
L 142.880063 -113.051441 
L 146.781231 -112.340176 
L 147.842721 -111.924152 
L 154.028356 -110.83461 
L 158.081335 -108.248307 
L 160.036908 -107.183773 
L 167.134946 -106.624948 
L 167.763741 -106.509086 
L 169.308972 -106.022464 
L 174.495613 -104.111076 
L 178.667535 -100.707872 
L 175.599153 -106.022464 
L 171.540972 -113.051441 
M 55.34203 -38.310558 
L 56.882193 -35.732693 
L 59.910687 -35.732693 
L 56.83036 -40.888422 
" style="stroke: #34608d"/>
    </defs>
    <g clip-path="url(#pa46373e38d)">
     <use xlink:href="#me16de1d897" x="0" y="211.269683" style="fill: #34608d; stroke: #34608d"/>
    </g>
   </g>
   <g id="PathCollection_3">
    <defs>
     <path id="m1bf1fa87e7" d="M 194.26679 -73.689169 
L 192.54803 -70.877579 
L 194.654964 -68.738325 
L 196.361944 -63.848602 
L 193.751021 -60.524553 
L 191.195733 -56.819624 
L 189.413793 -53.978898 
L 184.476426 -51.108581 
L 183.357442 -50.410851 
L 182.946598 -49.790647 
L 178.128165 -45.41027 
L 172.317319 -42.76167 
L 171.66065 -42.554381 
L 171.379232 -42.48153 
L 165.108798 -39.844567 
L 161.357025 -39.180511 
L 157.937378 -38.207878 
L 152.020228 -37.06666 
L 150.641335 -36.78704 
L 148.291762 -35.732693 
L 151.250063 -35.732693 
L 156.923637 -35.732693 
L 159.121672 -36.15662 
L 159.707357 -36.323203 
L 166.452567 -37.517091 
L 169.173699 -38.661434 
L 173.292626 -39.727715 
L 178.933783 -41.508442 
L 180.269389 -41.701562 
L 183.428575 -42.76167 
L 186.611085 -44.775377 
L 190.217831 -46.995031 
L 192.785145 -48.139545 
L 195.296182 -49.790647 
L 197.828972 -53.461335 
L 202.012933 -56.819624 
L 203.360806 -57.937871 
L 199.948244 -63.848602 
L 195.890063 -70.877579 
M 178.667535 -100.707872 
L 174.495613 -104.111076 
L 169.308972 -106.022464 
L 167.763741 -106.509086 
L 167.134946 -106.624948 
L 160.036908 -107.183773 
L 158.081335 -108.248307 
L 154.028356 -110.83461 
L 147.842721 -111.924152 
L 146.781231 -112.340176 
L 142.880063 -113.051441 
L 139.566426 -113.901721 
L 138.427935 -114.173087 
L 132.492954 -115.708062 
L 128.612253 -117.116392 
L 125.86421 -118.284694 
L 120.42212 -117.244164 
L 116.489407 -116.105013 
L 112.135057 -117.539824 
L 109.359153 -117.813006 
L 103.289732 -120.080418 
L 102.647743 -120.246457 
L 102.551881 -120.080418 
L 98.493699 -113.051441 
L 95.732462 -108.268838 
L 100.507533 -109.563377 
L 105.012498 -110.284378 
L 108.686897 -109.454259 
L 112.539517 -109.263604 
L 116.76603 -109.518743 
L 121.490063 -110.708449 
L 125.340132 -108.725917 
L 127.823286 -107.619959 
L 134.755517 -106.022464 
L 134.991321 -105.977407 
L 135.042386 -105.979075 
L 139.075517 -106.022464 
L 143.103859 -106.074148 
L 143.157855 -106.064303 
L 143.264608 -106.022464 
L 149.974036 -103.812322 
L 153.725553 -101.734788 
L 156.239239 -100.606017 
L 163.218758 -99.350029 
L 163.616549 -99.325939 
L 164.192372 -98.993487 
L 169.626196 -95.676998 
L 173.751526 -95.164695 
L 176.758634 -93.972789 
L 179.355487 -91.96451 
L 181.921083 -88.856459 
L 186.37998 -84.935533 
L 187.345195 -84.193343 
L 188.636063 -83.441875 
L 187.773699 -84.935533 
L 183.715517 -91.96451 
L 179.657335 -98.993487 
M 56.83036 -40.888422 
L 59.910687 -35.732693 
L 61.970063 -35.732693 
L 63.099296 -35.732693 
L 62.48951 -36.632402 
L 58.816149 -42.76167 
L 58.57214 -43.905274 
L 57.911881 -42.76167 
" style="stroke: #2d708e"/>
    </defs>
    <g clip-path="url(#pa46373e38d)">
     <use xlink:href="#m1bf1fa87e7" x="0" y="211.269683" style="fill: #2d708e; stroke: #2d708e"/>
    </g>
   </g>
   <g id="PathCollection_4">
    <defs>
     <path id="mfb8f58c89b" d="M 188.636063 -83.441875 
L 187.345195 -84.193343 
L 186.37998 -84.935533 
L 181.921083 -88.856459 
L 179.355487 -91.96451 
L 176.758634 -93.972789 
L 173.751526 -95.164695 
L 169.626196 -95.676998 
L 164.192372 -98.993487 
L 163.616549 -99.325939 
L 163.218758 -99.350029 
L 156.239239 -100.606017 
L 153.725553 -101.734788 
L 149.974036 -103.812322 
L 143.264608 -106.022464 
L 143.157855 -106.064303 
L 143.103859 -106.074148 
L 139.075517 -106.022464 
L 135.042386 -105.979075 
L 134.991321 -105.977407 
L 134.755517 -106.022464 
L 127.823286 -107.619959 
L 125.340132 -108.725917 
L 121.490063 -110.708449 
L 116.76603 -109.518743 
L 112.539517 -109.263604 
L 108.686897 -109.454259 
L 105.012498 -110.284378 
L 100.507533 -109.563377 
L 95.732462 -108.268838 
L 94.435517 -106.022464 
L 90.791435 -99.71073 
L 95.968221 -103.367743 
L 102.148583 -105.323932 
L 103.012384 -105.22485 
L 109.252108 -103.569644 
L 111.962998 -103.779886 
L 117.672213 -104.095739 
L 119.96279 -103.981793 
L 124.968504 -102.675332 
L 130.796826 -99.274646 
L 131.089223 -99.218775 
L 138.799961 -99.470763 
L 139.354517 -99.476729 
L 142.264088 -98.993487 
L 146.82878 -98.364579 
L 147.958426 -97.665791 
L 152.860102 -94.75318 
L 158.388551 -91.96451 
L 159.185257 -91.650716 
L 159.764287 -91.275395 
L 165.660253 -88.807784 
L 169.539301 -88.402528 
L 173.314907 -88.00808 
L 175.743061 -84.935533 
L 177.395398 -81.017742 
L 182.903881 -77.906556 
L 183.531054 -77.587057 
L 184.391881 -70.877579 
L 183.683563 -63.903948 
L 183.635945 -63.848602 
L 183.605836 -63.658629 
L 182.36279 -56.819624 
L 180.373485 -55.579217 
L 176.538943 -49.790647 
L 175.922632 -49.230367 
L 175.044619 -48.830166 
L 169.841914 -45.704525 
L 165.167104 -42.76167 
L 163.765029 -42.172043 
L 163.006692 -42.037819 
L 156.753083 -40.259136 
L 153.501317 -39.63198 
L 149.470706 -38.814629 
L 143.319367 -36.05428 
L 143.020522 -35.92872 
L 142.266301 -35.732693 
L 143.133699 -35.732693 
L 148.291762 -35.732693 
L 150.641335 -36.78704 
L 152.020228 -37.06666 
L 157.937378 -38.207878 
L 161.357025 -39.180511 
L 165.108798 -39.844567 
L 171.379232 -42.48153 
L 171.66065 -42.554381 
L 172.317319 -42.76167 
L 178.128165 -45.41027 
L 182.946598 -49.790647 
L 183.357442 -50.410851 
L 184.476426 -51.108581 
L 189.413793 -53.978898 
L 191.195733 -56.819624 
L 193.751021 -60.524553 
L 196.361944 -63.848602 
L 194.654964 -68.738325 
L 192.54803 -70.877579 
L 194.26679 -73.689169 
L 191.831881 -77.906556 
M 58.57214 -43.905274 
L 58.816149 -42.76167 
L 62.48951 -36.632402 
L 63.099296 -35.732693 
L 66.628149 -35.732693 
L 64.112783 -39.443993 
L 62.12445 -42.76167 
L 60.987725 -48.089189 
" style="stroke: #26818e"/>
    </defs>
    <g clip-path="url(#pa46373e38d)">
     <use xlink:href="#mfb8f58c89b" x="0" y="211.269683" style="fill: #26818e; stroke: #26818e"/>
    </g>
   </g>
   <g id="PathCollection_5">
    <defs>
     <path id="m911eecd499" d="M 81.71071 -83.982451 
L 82.450828 -84.606692 
L 83.072608 -84.935533 
L 87.201367 -90.436471 
L 88.483517 -91.96451 
L 92.649917 -95.05726 
L 98.317256 -98.687879 
L 98.657335 -98.710061 
L 105.905517 -97.773179 
L 107.428244 -97.576355 
L 114.458433 -98.529309 
L 115.016296 -98.491417 
L 122.172631 -97.832739 
L 123.320223 -98.166549 
L 128.857595 -95.353481 
L 133.633864 -94.360752 
L 136.439595 -94.427936 
L 142.557537 -92.962451 
L 143.624952 -92.815386 
L 145.000463 -91.96451 
L 149.942615 -89.699944 
L 153.466233 -88.125991 
L 156.467725 -86.943812 
L 159.566009 -84.935533 
L 162.223717 -82.855529 
L 166.44223 -79.708858 
L 168.319528 -79.355829 
L 168.882163 -77.906556 
L 173.307474 -73.937251 
L 177.669654 -70.877579 
L 173.982479 -66.648763 
L 174.020972 -63.848602 
L 173.413979 -60.063768 
L 173.726146 -56.819624 
L 172.543581 -55.083054 
L 169.523747 -49.790647 
L 168.008398 -48.880268 
L 166.356972 -47.840673 
L 161.696409 -45.754999 
L 157.155417 -42.76167 
L 155.568789 -42.310394 
L 154.982405 -42.1973 
L 148.300076 -40.842219 
L 145.308672 -39.499857 
L 141.807918 -38.029012 
L 135.378306 -36.357912 
L 134.787232 -36.131243 
L 133.394063 -35.732693 
L 135.017335 -35.732693 
L 142.266301 -35.732693 
L 143.020522 -35.92872 
L 143.319367 -36.05428 
L 149.470706 -38.814629 
L 153.501317 -39.63198 
L 156.753083 -40.259136 
L 163.006692 -42.037819 
L 163.765029 -42.172043 
L 165.167104 -42.76167 
L 169.841914 -45.704525 
L 175.044619 -48.830166 
L 175.922632 -49.230367 
L 176.538943 -49.790647 
L 180.373485 -55.579217 
L 182.36279 -56.819624 
L 183.605836 -63.658629 
L 183.635945 -63.848602 
L 183.683563 -63.903948 
L 184.391881 -70.877579 
L 183.531054 -77.587057 
L 182.903881 -77.906556 
L 177.395398 -81.017742 
L 175.743061 -84.935533 
L 173.314907 -88.00808 
L 169.539301 -88.402528 
L 165.660253 -88.807784 
L 159.764287 -91.275395 
L 159.185257 -91.650716 
L 158.388551 -91.96451 
L 152.860102 -94.75318 
L 147.958426 -97.665791 
L 146.82878 -98.364579 
L 142.264088 -98.993487 
L 139.354517 -99.476729 
L 138.799961 -99.470763 
L 131.089223 -99.218775 
L 130.796826 -99.274646 
L 124.968504 -102.675332 
L 119.96279 -103.981793 
L 117.672213 -104.095739 
L 111.962998 -103.779886 
L 109.252108 -103.569644 
L 103.012384 -105.22485 
L 102.148583 -105.323932 
L 95.968221 -103.367743 
L 90.791435 -99.71073 
L 90.377335 -98.993487 
L 86.319153 -91.96451 
L 82.260972 -84.935533 
M 60.987725 -48.089189 
L 62.12445 -42.76167 
L 64.112783 -39.443993 
L 66.628149 -35.732693 
L 70.086426 -35.732693 
L 70.187042 -35.732693 
L 70.118892 -35.788925 
L 69.680608 -36.435591 
L 65.736055 -42.255584 
L 65.43275 -42.76167 
L 65.083668 -44.397725 
L 64.010617 -49.790647 
L 64.045799 -53.385929 
L 61.970063 -49.790647 
" style="stroke: #20918c"/>
    </defs>
    <g clip-path="url(#pa46373e38d)">
     <use xlink:href="#m911eecd499" x="0" y="211.269683" style="fill: #20918c; stroke: #20918c"/>
    </g>
   </g>
   <g id="PathCollection_6">
    <defs>
     <path id="m791d2d8ac4" d="M 64.045799 -53.385929 
L 64.010617 -49.790647 
L 65.083668 -44.397725 
L 65.43275 -42.76167 
L 65.736055 -42.255584 
L 69.680608 -36.435591 
L 70.118892 -35.788925 
L 70.187042 -35.732693 
L 75.217846 -35.732693 
L 71.742164 -38.600516 
L 68.921904 -42.76167 
L 68.12554 -46.394293 
L 67.449754 -49.790647 
L 67.493699 -54.281383 
L 67.603061 -56.819624 
L 70.950121 -62.352639 
L 72.01011 -63.848602 
L 74.914263 -69.544497 
L 75.469237 -70.877579 
L 78.793071 -76.884159 
L 79.942011 -77.906556 
L 84.230732 -81.523807 
L 90.243549 -84.703808 
L 90.471347 -84.772699 
L 90.681699 -84.935533 
L 95.272256 -90.515236 
L 101.871861 -90.786681 
L 103.165557 -90.901591 
L 109.74839 -90.371275 
L 111.429153 -90.646577 
L 117.929491 -90.483404 
L 119.746185 -90.299009 
L 126.604031 -91.450195 
L 127.296249 -91.279869 
L 133.595075 -89.501083 
L 137.191361 -88.198987 
L 140.449381 -87.315134 
L 146.841534 -85.542351 
L 147.395639 -85.288452 
L 148.185721 -84.935533 
L 153.481 -81.770653 
L 158.533979 -77.906556 
L 159.13342 -77.502978 
L 159.960306 -76.877925 
L 164.844972 -73.337721 
L 167.316015 -70.877579 
L 169.150105 -66.736476 
L 169.189803 -63.848602 
L 168.818713 -61.534715 
L 166.643948 -56.819624 
L 165.043321 -54.015931 
L 159.441578 -49.790647 
L 159.381856 -49.763921 
L 159.332035 -49.73108 
L 153.919919 -45.16632 
L 147.331217 -43.003009 
L 147.10969 -42.904029 
L 146.860601 -42.76167 
L 140.595314 -40.129304 
L 137.01908 -39.199817 
L 133.741309 -37.942835 
L 127.076145 -36.036102 
L 126.770297 -35.959029 
L 125.826747 -35.732693 
L 126.900972 -35.732693 
L 133.394063 -35.732693 
L 134.787232 -36.131243 
L 135.378306 -36.357912 
L 141.807918 -38.029012 
L 145.308672 -39.499857 
L 148.300076 -40.842219 
L 154.982405 -42.1973 
L 155.568789 -42.310394 
L 157.155417 -42.76167 
L 161.696409 -45.754999 
L 166.356972 -47.840673 
L 168.008398 -48.880268 
L 169.523747 -49.790647 
L 172.543581 -55.083054 
L 173.726146 -56.819624 
L 173.413979 -60.063768 
L 174.020972 -63.848602 
L 173.982479 -66.648763 
L 177.669654 -70.877579 
L 173.307474 -73.937251 
L 168.882163 -77.906556 
L 168.319528 -79.355829 
L 166.44223 -79.708858 
L 162.223717 -82.855529 
L 159.566009 -84.935533 
L 156.467725 -86.943812 
L 153.466233 -88.125991 
L 149.942615 -89.699944 
L 145.000463 -91.96451 
L 143.624952 -92.815386 
L 142.557537 -92.962451 
L 136.439595 -94.427936 
L 133.633864 -94.360752 
L 128.857595 -95.353481 
L 123.320223 -98.166549 
L 122.172631 -97.832739 
L 115.016296 -98.491417 
L 114.458433 -98.529309 
L 107.428244 -97.576355 
L 105.905517 -97.773179 
L 98.657335 -98.710061 
L 98.317256 -98.687879 
L 92.649917 -95.05726 
L 88.483517 -91.96451 
L 87.201367 -90.436471 
L 83.072608 -84.935533 
L 82.450828 -84.606692 
L 81.71071 -83.982451 
L 78.20279 -77.906556 
L 74.144608 -70.877579 
L 70.086426 -63.848602 
L 66.028244 -56.819624 
" style="stroke: #1fa287"/>
    </defs>
    <g clip-path="url(#pa46373e38d)">
     <use xlink:href="#m791d2d8ac4" x="0" y="211.269683" style="fill: #1fa287; stroke: #1fa287"/>
    </g>
   </g>
   <g id="PathCollection_7">
    <defs>
     <path id="m98afd8604a" d="M 80.893541 -35.732693 
L 78.933023 -36.997494 
L 76.341518 -38.95651 
L 73.365437 -41.412107 
L 72.450758 -42.76167 
L 71.413869 -47.491449 
L 71.083173 -49.790647 
L 71.00279 -51.377836 
L 71.237254 -56.819624 
L 72.724836 -59.278742 
L 75.962884 -63.848602 
L 77.013323 -65.908819 
L 79.081862 -70.877579 
L 80.637699 -73.689169 
L 85.377075 -77.906556 
L 86.010637 -78.440922 
L 86.898894 -78.910695 
L 92.821646 -80.701863 
L 98.29079 -84.935533 
L 98.410025 -85.08046 
L 98.581443 -85.087511 
L 106.134958 -85.758437 
L 107.042935 -85.68529 
L 113.667121 -86.770303 
L 115.755465 -86.717881 
L 122.190873 -86.064686 
L 123.63463 -86.307041 
L 129.208565 -84.935533 
L 130.763364 -84.596416 
L 131.280304 -84.379283 
L 137.456055 -82.130542 
L 141.926306 -79.997822 
L 143.973323 -79.360827 
L 146.740972 -77.906556 
L 150.45607 -76.531321 
L 153.235043 -74.468469 
L 156.22085 -72.458258 
L 158.311938 -70.877579 
L 161.054867 -66.773066 
L 162.370535 -63.848602 
L 161.067282 -60.902633 
L 159.062753 -56.819624 
L 156.579933 -54.616996 
L 153.967595 -49.790647 
L 152.140015 -48.249205 
L 149.943781 -47.528101 
L 145.568608 -45.573261 
L 140.649098 -42.76167 
L 139.38271 -42.229596 
L 138.659854 -42.041721 
L 132.695386 -39.754427 
L 128.535923 -38.564511 
L 125.681339 -37.845159 
L 119.09161 -36.264436 
L 118.512361 -36.204239 
L 110.979764 -36.272262 
L 110.373249 -36.24364 
L 109.368221 -35.732693 
L 110.668244 -35.732693 
L 118.784608 -35.732693 
L 125.826747 -35.732693 
L 126.770297 -35.959029 
L 127.076145 -36.036102 
L 133.741309 -37.942835 
L 137.01908 -39.199817 
L 140.595314 -40.129304 
L 146.860601 -42.76167 
L 147.10969 -42.904029 
L 147.331217 -43.003009 
L 153.919919 -45.16632 
L 159.332035 -49.73108 
L 159.381856 -49.763921 
L 159.441578 -49.790647 
L 165.043321 -54.015931 
L 166.643948 -56.819624 
L 168.818713 -61.534715 
L 169.189803 -63.848602 
L 169.150105 -66.736476 
L 167.316015 -70.877579 
L 164.844972 -73.337721 
L 159.960306 -76.877925 
L 159.13342 -77.502978 
L 158.533979 -77.906556 
L 153.481 -81.770653 
L 148.185721 -84.935533 
L 147.395639 -85.288452 
L 146.841534 -85.542351 
L 140.449381 -87.315134 
L 137.191361 -88.198987 
L 133.595075 -89.501083 
L 127.296249 -91.279869 
L 126.604031 -91.450195 
L 119.746185 -90.299009 
L 117.929491 -90.483404 
L 111.429153 -90.646577 
L 109.74839 -90.371275 
L 103.165557 -90.901591 
L 101.871861 -90.786681 
L 95.272256 -90.515236 
L 90.681699 -84.935533 
L 90.471347 -84.772699 
L 90.243549 -84.703808 
L 84.230732 -81.523807 
L 79.942011 -77.906556 
L 78.793071 -76.884159 
L 75.469237 -70.877579 
L 74.914263 -69.544497 
L 72.01011 -63.848602 
L 70.950121 -62.352639 
L 67.603061 -56.819624 
L 67.493699 -54.281383 
L 67.449754 -49.790647 
L 68.12554 -46.394293 
L 68.921904 -42.76167 
L 71.742164 -38.600516 
L 75.217846 -35.732693 
L 78.20279 -35.732693 
" style="stroke: #2bb17e"/>
    </defs>
    <g clip-path="url(#pa46373e38d)">
     <use xlink:href="#m98afd8604a" x="0" y="211.269683" style="fill: #2bb17e; stroke: #2bb17e"/>
    </g>
   </g>
   <g id="PathCollection_8">
    <defs>
     <path id="m4dc62e6e6e" d="M 87.907138 -35.732693 
L 86.650183 -36.306054 
L 85.612244 -36.957096 
L 80.728679 -40.107661 
L 77.217794 -42.76167 
L 75.922912 -45.841784 
L 75.354943 -49.790647 
L 75.081111 -55.197553 
L 75.326603 -56.819624 
L 79.29732 -61.952819 
L 79.932507 -63.848602 
L 82.544101 -70.387185 
L 83.304504 -70.877579 
L 88.364741 -74.363494 
L 93.30691 -75.951751 
L 95.082075 -76.786685 
L 96.475459 -77.906556 
L 100.565358 -81.347314 
L 104.687766 -81.606017 
L 108.6636 -81.378701 
L 113.139315 -82.186576 
L 116.717708 -81.486532 
L 120.51779 -80.908515 
L 125.364824 -80.567242 
L 128.093507 -79.972088 
L 133.011043 -77.906556 
L 134.542442 -77.084016 
L 135.600865 -76.895853 
L 141.245402 -74.63593 
L 146.238616 -72.528681 
L 147.80943 -71.947206 
L 149.250379 -70.877579 
L 151.765933 -64.742116 
L 152.377335 -63.848602 
L 151.877616 -62.761646 
L 150.958298 -56.819624 
L 149.16538 -53.401423 
L 147.492487 -49.790647 
L 144.027526 -48.242493 
L 141.359519 -46.717677 
L 137.632608 -45.260862 
L 134.767305 -42.76167 
L 131.649463 -41.56602 
L 129.9957 -41.09292 
L 124.592382 -39.731288 
L 120.530681 -38.756981 
L 117.236203 -38.414609 
L 112.242684 -38.459703 
L 109.177321 -38.315048 
L 104.097855 -35.732693 
L 109.368221 -35.732693 
L 110.373249 -36.24364 
L 110.979764 -36.272262 
L 118.512361 -36.204239 
L 119.09161 -36.264436 
L 125.681339 -37.845159 
L 128.535923 -38.564511 
L 132.695386 -39.754427 
L 138.659854 -42.041721 
L 139.38271 -42.229596 
L 140.649098 -42.76167 
L 145.568608 -45.573261 
L 149.943781 -47.528101 
L 152.140015 -48.249205 
L 153.967595 -49.790647 
L 156.579933 -54.616996 
L 159.062753 -56.819624 
L 161.067282 -60.902633 
L 162.370535 -63.848602 
L 161.054867 -66.773066 
L 158.311938 -70.877579 
L 156.22085 -72.458258 
L 153.235043 -74.468469 
L 150.45607 -76.531321 
L 146.740972 -77.906556 
L 143.973323 -79.360827 
L 141.926306 -79.997822 
L 137.456055 -82.130542 
L 131.280304 -84.379283 
L 130.763364 -84.596416 
L 129.208565 -84.935533 
L 123.63463 -86.307041 
L 122.190873 -86.064686 
L 115.755465 -86.717881 
L 113.667121 -86.770303 
L 107.042935 -85.68529 
L 106.134958 -85.758437 
L 98.581443 -85.087511 
L 98.410025 -85.08046 
L 98.29079 -84.935533 
L 92.821646 -80.701863 
L 86.898894 -78.910695 
L 86.010637 -78.440922 
L 85.377075 -77.906556 
L 80.637699 -73.689169 
L 79.081862 -70.877579 
L 77.013323 -65.908819 
L 75.962884 -63.848602 
L 72.724836 -59.278742 
L 71.237254 -56.819624 
L 71.00279 -51.377836 
L 71.083173 -49.790647 
L 71.413869 -47.491449 
L 72.450758 -42.76167 
L 73.365437 -41.412107 
L 76.341518 -38.95651 
L 78.933023 -36.997494 
L 80.893541 -35.732693 
L 86.319153 -35.732693 
" style="stroke: #47c06f"/>
    </defs>
    <g clip-path="url(#pa46373e38d)">
     <use xlink:href="#m4dc62e6e6e" x="0" y="211.269683" style="fill: #47c06f; stroke: #47c06f"/>
    </g>
   </g>
   <g id="PathCollection_9">
    <defs>
     <path id="ma2fc85a4cc" d="M 104.097855 -35.732693 
L 109.177321 -38.315048 
L 112.242684 -38.459703 
L 117.236203 -38.414609 
L 120.530681 -38.756981 
L 124.592382 -39.731288 
L 129.9957 -41.09292 
L 131.649463 -41.56602 
L 134.767305 -42.76167 
L 137.632608 -45.260862 
L 141.359519 -46.717677 
L 144.027526 -48.242493 
L 147.492487 -49.790647 
L 149.16538 -53.401423 
L 150.958298 -56.819624 
L 151.877616 -62.761646 
L 152.377335 -63.848602 
L 151.765933 -64.742116 
L 149.250379 -70.877579 
L 147.80943 -71.947206 
L 146.238616 -72.528681 
L 141.245402 -74.63593 
L 135.600865 -76.895853 
L 134.542442 -77.084016 
L 133.011043 -77.906556 
L 128.093507 -79.972088 
L 125.364824 -80.567242 
L 120.51779 -80.908515 
L 116.717708 -81.486532 
L 113.139315 -82.186576 
L 108.6636 -81.378701 
L 104.687766 -81.606017 
L 100.565358 -81.347314 
L 96.475459 -77.906556 
L 95.082075 -76.786685 
L 93.30691 -75.951751 
L 88.364741 -74.363494 
L 83.304504 -70.877579 
L 82.544101 -70.387185 
L 79.932507 -63.848602 
L 79.29732 -61.952819 
L 75.326603 -56.819624 
L 75.081111 -55.197553 
L 75.354943 -49.790647 
L 75.922912 -45.841784 
L 77.217794 -42.76167 
L 80.728679 -40.107661 
L 85.612244 -36.957096 
L 86.650183 -36.306054 
L 87.907138 -35.732693 
L 94.435517 -35.732693 
L 102.551881 -35.732693 
M 130.303286 -72.013575 
L 131.304531 -71.475789 
L 134.669491 -70.877579 
L 135.220244 -64.20005 
L 142.747205 -64.518028 
L 143.203069 -63.968755 
L 143.252186 -63.848602 
L 143.233901 -63.675047 
L 143.352403 -56.819624 
L 141.44055 -52.723267 
L 138.725674 -49.790647 
L 135.70014 -48.607994 
L 132.949223 -46.208573 
L 130.181081 -44.109331 
L 128.044121 -42.76167 
L 123.503424 -41.617418 
L 121.969753 -41.249526 
L 115.960045 -40.624979 
L 113.505604 -40.647144 
L 107.981393 -40.386456 
L 104.099245 -38.412807 
L 101.127486 -38.199818 
L 95.109003 -36.899204 
L 93.61547 -37.153056 
L 88.489239 -39.491391 
L 83.275517 -42.76167 
L 82.692276 -43.508711 
L 79.929676 -49.790647 
L 80.872646 -54.414974 
L 81.236576 -56.819624 
L 81.823159 -57.577937 
L 83.924161 -63.848602 
L 84.903509 -66.30057 
L 89.414377 -69.209686 
L 90.903396 -69.966415 
L 92.180972 -70.877579 
L 97.145557 -73.212629 
L 102.176123 -77.255725 
L 102.800849 -77.47533 
L 110.059517 -76.852209 
L 111.366148 -76.697751 
L 117.390889 -75.492564 
L 121.293302 -73.56137 
L 124.206339 -73.239315 
" style="stroke: #6cce5a"/>
    </defs>
    <g clip-path="url(#pa46373e38d)">
     <use xlink:href="#ma2fc85a4cc" x="0" y="211.269683" style="fill: #6cce5a; stroke: #6cce5a"/>
    </g>
   </g>
   <g id="PathCollection_10">
    <defs>
     <path id="m22c563a787" d="M 124.206339 -73.239315 
L 121.293302 -73.56137 
L 117.390889 -75.492564 
L 111.366148 -76.697751 
L 110.059517 -76.852209 
L 102.800849 -77.47533 
L 102.176123 -77.255725 
L 97.145557 -73.212629 
L 92.180972 -70.877579 
L 90.903396 -69.966415 
L 89.414377 -69.209686 
L 84.903509 -66.30057 
L 83.924161 -63.848602 
L 81.823159 -57.577937 
L 81.236576 -56.819624 
L 80.872646 -54.414974 
L 79.929676 -49.790647 
L 82.692276 -43.508711 
L 83.275517 -42.76167 
L 88.489239 -39.491391 
L 93.61547 -37.153056 
L 95.109003 -36.899204 
L 101.127486 -38.199818 
L 104.099245 -38.412807 
L 107.981393 -40.386456 
L 113.505604 -40.647144 
L 115.960045 -40.624979 
L 121.969753 -41.249526 
L 123.503424 -41.617418 
L 128.044121 -42.76167 
L 130.181081 -44.109331 
L 132.949223 -46.208573 
L 135.70014 -48.607994 
L 138.725674 -49.790647 
L 141.44055 -52.723267 
L 143.352403 -56.819624 
L 143.233901 -63.675047 
L 143.252186 -63.848602 
L 143.203069 -63.968755 
L 142.747205 -64.518028 
L 135.220244 -64.20005 
L 134.669491 -70.877579 
L 131.304531 -71.475789 
L 130.303286 -72.013575 
M 90.461443 -42.615992 
L 90.328294 -42.676728 
L 90.192872 -42.76167 
L 85.632987 -48.602173 
L 85.110333 -49.790647 
L 85.425843 -51.337906 
L 88.360542 -56.819624 
L 88.729954 -59.672972 
L 91.288356 -63.848602 
L 93.721578 -65.085181 
L 96.148972 -66.816392 
L 99.812608 -68.593161 
L 106.167352 -70.877579 
L 106.535372 -71.006946 
L 106.677699 -70.994728 
L 107.668719 -70.877579 
L 114.259968 -70.06965 
L 115.286175 -69.908065 
L 120.961744 -67.619512 
L 124.871881 -67.36309 
L 128.712061 -66.9855 
L 130.311739 -63.848602 
L 131.16594 -57.177789 
L 131.886738 -56.819624 
L 131.268348 -56.284083 
L 130.157537 -49.790647 
L 127.892633 -48.07304 
L 124.773699 -46.106103 
L 121.900141 -44.394385 
L 114.827881 -42.937395 
L 114.620191 -42.945675 
L 113.223396 -42.76167 
L 106.785465 -42.457864 
L 106.288911 -42.20542 
L 99.111833 -41.691031 
L 97.699331 -41.385785 
" style="stroke: #96d83f"/>
    </defs>
    <g clip-path="url(#pa46373e38d)">
     <use xlink:href="#m22c563a787" x="0" y="211.269683" style="fill: #96d83f; stroke: #96d83f"/>
    </g>
   </g>
   <g id="PathCollection_11">
    <defs>
     <path id="m88ec7dc3c4" d="M 97.699331 -41.385785 
L 99.111833 -41.691031 
L 106.288911 -42.20542 
L 106.785465 -42.457864 
L 113.223396 -42.76167 
L 114.620191 -42.945675 
L 114.827881 -42.937395 
L 121.900141 -44.394385 
L 124.773699 -46.106103 
L 127.892633 -48.07304 
L 130.157537 -49.790647 
L 131.268348 -56.284083 
L 131.886738 -56.819624 
L 131.16594 -57.177789 
L 130.311739 -63.848602 
L 128.712061 -66.9855 
L 124.871881 -67.36309 
L 120.961744 -67.619512 
L 115.286175 -69.908065 
L 114.259968 -70.06965 
L 107.668719 -70.877579 
L 106.677699 -70.994728 
L 106.535372 -71.006946 
L 106.167352 -70.877579 
L 99.812608 -68.593161 
L 96.148972 -66.816392 
L 93.721578 -65.085181 
L 91.288356 -63.848602 
L 88.729954 -59.672972 
L 88.360542 -56.819624 
L 85.425843 -51.337906 
L 85.110333 -49.790647 
L 85.632987 -48.602173 
L 90.192872 -42.76167 
L 90.328294 -42.676728 
L 90.461443 -42.615992 
M 94.012271 -49.057564 
L 93.390228 -49.790647 
L 93.887985 -50.739001 
L 95.76223 -52.088582 
L 97.140972 -49.790647 
L 95.005675 -48.803105 
M 104.222897 -60.954317 
L 109.962474 -63.848602 
L 110.560743 -64.0348 
L 110.761536 -64.010187 
L 111.787743 -63.848602 
L 117.431881 -61.505609 
L 120.698845 -60.533046 
L 124.466063 -59.631215 
L 124.179603 -56.819624 
L 123.848357 -55.077931 
L 121.594118 -49.790647 
L 119.503577 -48.545356 
L 117.871517 -48.209128 
L 111.433137 -48.465814 
L 109.777424 -48.247701 
L 106.494114 -49.790647 
L 104.019734 -52.333043 
L 101.483938 -56.819624 
" style="stroke: #c6e021"/>
    </defs>
    <g clip-path="url(#pa46373e38d)">
     <use xlink:href="#m88ec7dc3c4" x="0" y="211.269683" style="fill: #c6e021; stroke: #c6e021"/>
    </g>
   </g>
   <g id="PathCollection_12">
    <defs>
     <path id="mf5bbee4b24" d="M 95.005675 -48.803105 
L 97.140972 -49.790647 
L 95.76223 -52.088582 
L 93.887985 -50.739001 
L 93.390228 -49.790647 
L 94.012271 -49.057564 
M 101.483938 -56.819624 
L 104.019734 -52.333043 
L 106.494114 -49.790647 
L 109.777424 -48.247701 
L 111.433137 -48.465814 
L 117.871517 -48.209128 
L 119.503577 -48.545356 
L 121.594118 -49.790647 
L 123.848357 -55.077931 
L 124.179603 -56.819624 
L 124.466063 -59.631215 
L 120.698845 -60.533046 
L 117.431881 -61.505609 
L 111.787743 -63.848602 
L 110.761536 -64.010187 
L 110.560743 -64.0348 
L 109.962474 -63.848602 
L 104.222897 -60.954317 
" style="stroke: #f0e51c"/>
    </defs>
    <g clip-path="url(#pa46373e38d)">
     <use xlink:href="#mf5bbee4b24" x="0" y="211.269683" style="fill: #f0e51c; stroke: #f0e51c"/>
    </g>
   </g>
   <g id="line2d_1">
    <path d="M 53.853699 175.53699 
L 135.017335 34.957448 
" clip-path="url(#pa46373e38d)" style="fill: none; stroke: #000000; stroke-linecap: square"/>
   </g>
   <g id="line2d_2">
    <path d="M 135.017335 34.957448 
L 216.180972 175.53699 
" clip-path="url(#pa46373e38d)" style="fill: none; stroke: #000000; stroke-linecap: square"/>
   </g>
   <g id="line2d_3">
    <path d="M 53.853699 175.53699 
L 216.180972 175.53699 
" clip-path="url(#pa46373e38d)" style="fill: none; stroke: #000000; stroke-linecap: square"/>
   </g>
   <g id="line2d_4">
    <path d="M 216.180972 175.53699 
L 218.528549 179.603112 
" clip-path="url(#pa46373e38d)" style="fill: none; stroke: #000000; stroke-linecap: square"/>
   </g>
   <g id="line2d_5">
    <path d="M 183.715517 175.53699 
L 186.063094 179.603112 
" clip-path="url(#pa46373e38d)" style="fill: none; stroke: #000000; stroke-linecap: square"/>
   </g>
   <g id="line2d_6">
    <path d="M 151.250063 175.53699 
L 153.59764 179.603112 
" clip-path="url(#pa46373e38d)" style="fill: none; stroke: #000000; stroke-linecap: square"/>
   </g>
   <g id="line2d_7">
    <path d="M 118.784608 175.53699 
L 121.132185 179.603112 
" clip-path="url(#pa46373e38d)" style="fill: none; stroke: #000000; stroke-linecap: square"/>
   </g>
   <g id="line2d_8">
    <path d="M 86.319153 175.53699 
L 88.66673 179.603112 
" clip-path="url(#pa46373e38d)" style="fill: none; stroke: #000000; stroke-linecap: square"/>
   </g>
   <g id="line2d_9">
    <path d="M 53.853699 175.53699 
L 56.201276 179.603112 
" clip-path="url(#pa46373e38d)" style="fill: none; stroke: #000000; stroke-linecap: square"/>
   </g>
   <g id="line2d_10">
    <path d="M 53.853699 175.53699 
L 49.158545 175.53699 
" clip-path="url(#pa46373e38d)" style="fill: none; stroke: #000000; stroke-linecap: square"/>
   </g>
   <g id="line2d_11">
    <path d="M 70.086426 147.421081 
L 65.391272 147.421081 
" clip-path="url(#pa46373e38d)" style="fill: none; stroke: #000000; stroke-linecap: square"/>
   </g>
   <g id="line2d_12">
    <path d="M 86.319153 119.305173 
L 81.623999 119.305173 
" clip-path="url(#pa46373e38d)" style="fill: none; stroke: #000000; stroke-linecap: square"/>
   </g>
   <g id="line2d_13">
    <path d="M 102.551881 91.189265 
L 97.856727 91.189265 
" clip-path="url(#pa46373e38d)" style="fill: none; stroke: #000000; stroke-linecap: square"/>
   </g>
   <g id="line2d_14">
    <path d="M 118.784608 63.073356 
L 114.089454 63.073356 
" clip-path="url(#pa46373e38d)" style="fill: none; stroke: #000000; stroke-linecap: square"/>
   </g>
   <g id="line2d_15">
    <path d="M 135.017335 34.957448 
L 130.322181 34.957448 
" clip-path="url(#pa46373e38d)" style="fill: none; stroke: #000000; stroke-linecap: square"/>
   </g>
   <g id="line2d_16">
    <path d="M 135.017335 34.957448 
L 137.364912 30.891325 
" clip-path="url(#pa46373e38d)" style="fill: none; stroke: #000000; stroke-linecap: square"/>
   </g>
   <g id="line2d_17">
    <path d="M 151.250063 63.073356 
L 153.59764 59.007234 
" clip-path="url(#pa46373e38d)" style="fill: none; stroke: #000000; stroke-linecap: square"/>
   </g>
   <g id="line2d_18">
    <path d="M 167.48279 91.189265 
L 169.830367 87.123142 
" clip-path="url(#pa46373e38d)" style="fill: none; stroke: #000000; stroke-linecap: square"/>
   </g>
   <g id="line2d_19">
    <path d="M 183.715517 119.305173 
L 186.063094 115.23905 
" clip-path="url(#pa46373e38d)" style="fill: none; stroke: #000000; stroke-linecap: square"/>
   </g>
   <g id="line2d_20">
    <path d="M 199.948244 147.421081 
L 202.295821 143.354959 
" clip-path="url(#pa46373e38d)" style="fill: none; stroke: #000000; stroke-linecap: square"/>
   </g>
   <g id="line2d_21">
    <path d="M 216.180972 175.53699 
L 218.528549 171.470867 
" clip-path="url(#pa46373e38d)" style="fill: none; stroke: #000000; stroke-linecap: square"/>
   </g>
   <g id="matplotlib.axis_1">
    <g id="xtick_1"/>
    <g id="xtick_2"/>
    <g id="xtick_3"/>
    <g id="xtick_4"/>
    <g id="xtick_5"/>
   </g>
   <g id="matplotlib.axis_2">
    <g id="ytick_1"/>
    <g id="ytick_2"/>
    <g id="ytick_3"/>
    <g id="ytick_4"/>
    <g id="ytick_5"/>
   </g>
   <g id="text_1">
    <!-- 0 -->
    <g transform="translate(217.23329 188.523172) scale(0.12 -0.12)">
     <defs>
      <path id="DejaVuSans-30" d="M 2034 4250 
Q 1547 4250 1301 3770 
Q 1056 3291 1056 2328 
Q 1056 1369 1301 889 
Q 1547 409 2034 409 
Q 2525 409 2770 889 
Q 3016 1369 3016 2328 
Q 3016 3291 2770 3770 
Q 2525 4250 2034 4250 
z
M 2034 4750 
Q 2819 4750 3233 4129 
Q 3647 3509 3647 2328 
Q 3647 1150 3233 529 
Q 2819 -91 2034 -91 
Q 1250 -91 836 529 
Q 422 1150 422 2328 
Q 422 3509 836 4129 
Q 1250 4750 2034 4750 
z
" transform="scale(0.015625)"/>
     </defs>
     <use xlink:href="#DejaVuSans-30"/>
    </g>
   </g>
   <g id="text_2">
    <!-- 20 -->
    <g transform="translate(180.950335 188.523172) scale(0.12 -0.12)">
     <defs>
      <path id="DejaVuSans-32" d="M 1228 531 
L 3431 531 
L 3431 0 
L 469 0 
L 469 531 
Q 828 903 1448 1529 
Q 2069 2156 2228 2338 
Q 2531 2678 2651 2914 
Q 2772 3150 2772 3378 
Q 2772 3750 2511 3984 
Q 2250 4219 1831 4219 
Q 1534 4219 1204 4116 
Q 875 4013 500 3803 
L 500 4441 
Q 881 4594 1212 4672 
Q 1544 4750 1819 4750 
Q 2544 4750 2975 4387 
Q 3406 4025 3406 3419 
Q 3406 3131 3298 2873 
Q 3191 2616 2906 2266 
Q 2828 2175 2409 1742 
Q 1991 1309 1228 531 
z
" transform="scale(0.015625)"/>
     </defs>
     <use xlink:href="#DejaVuSans-32"/>
     <use xlink:href="#DejaVuSans-30" x="63.623047"/>
    </g>
   </g>
   <g id="text_3">
    <!-- 40 -->
    <g transform="translate(148.484881 188.523172) scale(0.12 -0.12)">
     <defs>
      <path id="DejaVuSans-34" d="M 2419 4116 
L 825 1625 
L 2419 1625 
L 2419 4116 
z
M 2253 4666 
L 3047 4666 
L 3047 1625 
L 3713 1625 
L 3713 1100 
L 3047 1100 
L 3047 0 
L 2419 0 
L 2419 1100 
L 313 1100 
L 313 1709 
L 2253 4666 
z
" transform="scale(0.015625)"/>
     </defs>
     <use xlink:href="#DejaVuSans-34"/>
     <use xlink:href="#DejaVuSans-30" x="63.623047"/>
    </g>
   </g>
   <g id="text_4">
    <!-- 60 -->
    <g transform="translate(116.019426 188.523172) scale(0.12 -0.12)">
     <defs>
      <path id="DejaVuSans-36" d="M 2113 2584 
Q 1688 2584 1439 2293 
Q 1191 2003 1191 1497 
Q 1191 994 1439 701 
Q 1688 409 2113 409 
Q 2538 409 2786 701 
Q 3034 994 3034 1497 
Q 3034 2003 2786 2293 
Q 2538 2584 2113 2584 
z
M 3366 4563 
L 3366 3988 
Q 3128 4100 2886 4159 
Q 2644 4219 2406 4219 
Q 1781 4219 1451 3797 
Q 1122 3375 1075 2522 
Q 1259 2794 1537 2939 
Q 1816 3084 2150 3084 
Q 2853 3084 3261 2657 
Q 3669 2231 3669 1497 
Q 3669 778 3244 343 
Q 2819 -91 2113 -91 
Q 1303 -91 875 529 
Q 447 1150 447 2328 
Q 447 3434 972 4092 
Q 1497 4750 2381 4750 
Q 2619 4750 2861 4703 
Q 3103 4656 3366 4563 
z
" transform="scale(0.015625)"/>
     </defs>
     <use xlink:href="#DejaVuSans-36"/>
     <use xlink:href="#DejaVuSans-30" x="63.623047"/>
    </g>
   </g>
   <g id="text_5">
    <!-- 80 -->
    <g transform="translate(83.553972 188.523172) scale(0.12 -0.12)">
     <defs>
      <path id="DejaVuSans-38" d="M 2034 2216 
Q 1584 2216 1326 1975 
Q 1069 1734 1069 1313 
Q 1069 891 1326 650 
Q 1584 409 2034 409 
Q 2484 409 2743 651 
Q 3003 894 3003 1313 
Q 3003 1734 2745 1975 
Q 2488 2216 2034 2216 
z
M 1403 2484 
Q 997 2584 770 2862 
Q 544 3141 544 3541 
Q 544 4100 942 4425 
Q 1341 4750 2034 4750 
Q 2731 4750 3128 4425 
Q 3525 4100 3525 3541 
Q 3525 3141 3298 2862 
Q 3072 2584 2669 2484 
Q 3125 2378 3379 2068 
Q 3634 1759 3634 1313 
Q 3634 634 3220 271 
Q 2806 -91 2034 -91 
Q 1263 -91 848 271 
Q 434 634 434 1313 
Q 434 1759 690 2068 
Q 947 2378 1403 2484 
z
M 1172 3481 
Q 1172 3119 1398 2916 
Q 1625 2713 2034 2713 
Q 2441 2713 2670 2916 
Q 2900 3119 2900 3481 
Q 2900 3844 2670 4047 
Q 2441 4250 2034 4250 
Q 1625 4250 1398 4047 
Q 1172 3844 1172 3481 
z
" transform="scale(0.015625)"/>
     </defs>
     <use xlink:href="#DejaVuSans-38"/>
     <use xlink:href="#DejaVuSans-30" x="63.623047"/>
    </g>
   </g>
   <g id="text_6">
    <!-- 100 -->
    <g transform="translate(47.271017 188.523172) scale(0.12 -0.12)">
     <defs>
      <path id="DejaVuSans-31" d="M 794 531 
L 1825 531 
L 1825 4091 
L 703 3866 
L 703 4441 
L 1819 4666 
L 2450 4666 
L 2450 531 
L 3481 531 
L 3481 0 
L 794 0 
L 794 531 
z
" transform="scale(0.015625)"/>
     </defs>
     <use xlink:href="#DejaVuSans-31"/>
     <use xlink:href="#DejaVuSans-30" x="63.623047"/>
     <use xlink:href="#DejaVuSans-30" x="127.246094"/>
    </g>
   </g>
   <g id="text_7">
    <!-- 0 -->
    <g transform="translate(41.348881 177.971899) scale(0.12 -0.12)">
     <use xlink:href="#DejaVuSans-30"/>
    </g>
   </g>
   <g id="text_8">
    <!-- 20 -->
    <g transform="translate(49.946608 149.85599) scale(0.12 -0.12)">
     <use xlink:href="#DejaVuSans-32"/>
     <use xlink:href="#DejaVuSans-30" x="63.623047"/>
    </g>
   </g>
   <g id="text_9">
    <!-- 40 -->
    <g transform="translate(66.179335 121.740082) scale(0.12 -0.12)">
     <use xlink:href="#DejaVuSans-34"/>
     <use xlink:href="#DejaVuSans-30" x="63.623047"/>
    </g>
   </g>
   <g id="text_10">
    <!-- 60 -->
    <g transform="translate(82.412063 93.624174) scale(0.12 -0.12)">
     <use xlink:href="#DejaVuSans-36"/>
     <use xlink:href="#DejaVuSans-30" x="63.623047"/>
    </g>
   </g>
   <g id="text_11">
    <!-- 80 -->
    <g transform="translate(98.64479 65.508265) scale(0.12 -0.12)">
     <use xlink:href="#DejaVuSans-38"/>
     <use xlink:href="#DejaVuSans-30" x="63.623047"/>
    </g>
   </g>
   <g id="text_12">
    <!-- 100 -->
    <g transform="translate(107.242517 37.392357) scale(0.12 -0.12)">
     <use xlink:href="#DejaVuSans-31"/>
     <use xlink:href="#DejaVuSans-30" x="63.623047"/>
     <use xlink:href="#DejaVuSans-30" x="127.246094"/>
    </g>
   </g>
   <g id="text_13">
    <!-- 0 -->
    <g transform="translate(137.452244 31.710902) scale(0.12 -0.12)">
     <use xlink:href="#DejaVuSans-30"/>
    </g>
   </g>
   <g id="text_14">
    <!-- 20 -->
    <g transform="translate(153.684972 59.826811) scale(0.12 -0.12)">
     <use xlink:href="#DejaVuSans-32"/>
     <use xlink:href="#DejaVuSans-30" x="63.623047"/>
    </g>
   </g>
   <g id="text_15">
    <!-- 40 -->
    <g transform="translate(169.917699 87.942719) scale(0.12 -0.12)">
     <use xlink:href="#DejaVuSans-34"/>
     <use xlink:href="#DejaVuSans-30" x="63.623047"/>
    </g>
   </g>
   <g id="text_16">
    <!-- 60 -->
    <g transform="translate(186.150426 116.058627) scale(0.12 -0.12)">
     <use xlink:href="#DejaVuSans-36"/>
     <use xlink:href="#DejaVuSans-30" x="63.623047"/>
    </g>
   </g>
   <g id="text_17">
    <!-- 80 -->
    <g transform="translate(202.383153 144.174536) scale(0.12 -0.12)">
     <use xlink:href="#DejaVuSans-38"/>
     <use xlink:href="#DejaVuSans-30" x="63.623047"/>
    </g>
   </g>
   <g id="text_18">
    <!-- 100 -->
    <g transform="translate(218.615881 172.290444) scale(0.12 -0.12)">
     <use xlink:href="#DejaVuSans-31"/>
     <use xlink:href="#DejaVuSans-30" x="63.623047"/>
     <use xlink:href="#DejaVuSans-30" x="127.246094"/>
    </g>
   </g>
   <g id="text_19">
    <!-- AgAu content (at.%) -->
    <g transform="translate(74.09296 201.574058) scale(0.12 -0.12)">
     <defs>
      <path id="DejaVuSans-41" d="M 2188 4044 
L 1331 1722 
L 3047 1722 
L 2188 4044 
z
M 1831 4666 
L 2547 4666 
L 4325 0 
L 3669 0 
L 3244 1197 
L 1141 1197 
L 716 0 
L 50 0 
L 1831 4666 
z
" transform="scale(0.015625)"/>
      <path id="DejaVuSans-67" d="M 2906 1791 
Q 2906 2416 2648 2759 
Q 2391 3103 1925 3103 
Q 1463 3103 1205 2759 
Q 947 2416 947 1791 
Q 947 1169 1205 825 
Q 1463 481 1925 481 
Q 2391 481 2648 825 
Q 2906 1169 2906 1791 
z
M 3481 434 
Q 3481 -459 3084 -895 
Q 2688 -1331 1869 -1331 
Q 1566 -1331 1297 -1286 
Q 1028 -1241 775 -1147 
L 775 -588 
Q 1028 -725 1275 -790 
Q 1522 -856 1778 -856 
Q 2344 -856 2625 -561 
Q 2906 -266 2906 331 
L 2906 616 
Q 2728 306 2450 153 
Q 2172 0 1784 0 
Q 1141 0 747 490 
Q 353 981 353 1791 
Q 353 2603 747 3093 
Q 1141 3584 1784 3584 
Q 2172 3584 2450 3431 
Q 2728 3278 2906 2969 
L 2906 3500 
L 3481 3500 
L 3481 434 
z
" transform="scale(0.015625)"/>
      <path id="DejaVuSans-75" d="M 544 1381 
L 544 3500 
L 1119 3500 
L 1119 1403 
Q 1119 906 1312 657 
Q 1506 409 1894 409 
Q 2359 409 2629 706 
Q 2900 1003 2900 1516 
L 2900 3500 
L 3475 3500 
L 3475 0 
L 2900 0 
L 2900 538 
Q 2691 219 2414 64 
Q 2138 -91 1772 -91 
Q 1169 -91 856 284 
Q 544 659 544 1381 
z
M 1991 3584 
L 1991 3584 
z
" transform="scale(0.015625)"/>
      <path id="DejaVuSans-20" transform="scale(0.015625)"/>
      <path id="DejaVuSans-63" d="M 3122 3366 
L 3122 2828 
Q 2878 2963 2633 3030 
Q 2388 3097 2138 3097 
Q 1578 3097 1268 2742 
Q 959 2388 959 1747 
Q 959 1106 1268 751 
Q 1578 397 2138 397 
Q 2388 397 2633 464 
Q 2878 531 3122 666 
L 3122 134 
Q 2881 22 2623 -34 
Q 2366 -91 2075 -91 
Q 1284 -91 818 406 
Q 353 903 353 1747 
Q 353 2603 823 3093 
Q 1294 3584 2113 3584 
Q 2378 3584 2631 3529 
Q 2884 3475 3122 3366 
z
" transform="scale(0.015625)"/>
      <path id="DejaVuSans-6f" d="M 1959 3097 
Q 1497 3097 1228 2736 
Q 959 2375 959 1747 
Q 959 1119 1226 758 
Q 1494 397 1959 397 
Q 2419 397 2687 759 
Q 2956 1122 2956 1747 
Q 2956 2369 2687 2733 
Q 2419 3097 1959 3097 
z
M 1959 3584 
Q 2709 3584 3137 3096 
Q 3566 2609 3566 1747 
Q 3566 888 3137 398 
Q 2709 -91 1959 -91 
Q 1206 -91 779 398 
Q 353 888 353 1747 
Q 353 2609 779 3096 
Q 1206 3584 1959 3584 
z
" transform="scale(0.015625)"/>
      <path id="DejaVuSans-6e" d="M 3513 2113 
L 3513 0 
L 2938 0 
L 2938 2094 
Q 2938 2591 2744 2837 
Q 2550 3084 2163 3084 
Q 1697 3084 1428 2787 
Q 1159 2491 1159 1978 
L 1159 0 
L 581 0 
L 581 3500 
L 1159 3500 
L 1159 2956 
Q 1366 3272 1645 3428 
Q 1925 3584 2291 3584 
Q 2894 3584 3203 3211 
Q 3513 2838 3513 2113 
z
" transform="scale(0.015625)"/>
      <path id="DejaVuSans-74" d="M 1172 4494 
L 1172 3500 
L 2356 3500 
L 2356 3053 
L 1172 3053 
L 1172 1153 
Q 1172 725 1289 603 
Q 1406 481 1766 481 
L 2356 481 
L 2356 0 
L 1766 0 
Q 1100 0 847 248 
Q 594 497 594 1153 
L 594 3053 
L 172 3053 
L 172 3500 
L 594 3500 
L 594 4494 
L 1172 4494 
z
" transform="scale(0.015625)"/>
      <path id="DejaVuSans-65" d="M 3597 1894 
L 3597 1613 
L 953 1613 
Q 991 1019 1311 708 
Q 1631 397 2203 397 
Q 2534 397 2845 478 
Q 3156 559 3463 722 
L 3463 178 
Q 3153 47 2828 -22 
Q 2503 -91 2169 -91 
Q 1331 -91 842 396 
Q 353 884 353 1716 
Q 353 2575 817 3079 
Q 1281 3584 2069 3584 
Q 2775 3584 3186 3129 
Q 3597 2675 3597 1894 
z
M 3022 2063 
Q 3016 2534 2758 2815 
Q 2500 3097 2075 3097 
Q 1594 3097 1305 2825 
Q 1016 2553 972 2059 
L 3022 2063 
z
" transform="scale(0.015625)"/>
      <path id="DejaVuSans-28" d="M 1984 4856 
Q 1566 4138 1362 3434 
Q 1159 2731 1159 2009 
Q 1159 1288 1364 580 
Q 1569 -128 1984 -844 
L 1484 -844 
Q 1016 -109 783 600 
Q 550 1309 550 2009 
Q 550 2706 781 3412 
Q 1013 4119 1484 4856 
L 1984 4856 
z
" transform="scale(0.015625)"/>
      <path id="DejaVuSans-61" d="M 2194 1759 
Q 1497 1759 1228 1600 
Q 959 1441 959 1056 
Q 959 750 1161 570 
Q 1363 391 1709 391 
Q 2188 391 2477 730 
Q 2766 1069 2766 1631 
L 2766 1759 
L 2194 1759 
z
M 3341 1997 
L 3341 0 
L 2766 0 
L 2766 531 
Q 2569 213 2275 61 
Q 1981 -91 1556 -91 
Q 1019 -91 701 211 
Q 384 513 384 1019 
Q 384 1609 779 1909 
Q 1175 2209 1959 2209 
L 2766 2209 
L 2766 2266 
Q 2766 2663 2505 2880 
Q 2244 3097 1772 3097 
Q 1472 3097 1187 3025 
Q 903 2953 641 2809 
L 641 3341 
Q 956 3463 1253 3523 
Q 1550 3584 1831 3584 
Q 2591 3584 2966 3190 
Q 3341 2797 3341 1997 
z
" transform="scale(0.015625)"/>
      <path id="DejaVuSans-2e" d="M 684 794 
L 1344 794 
L 1344 0 
L 684 0 
L 684 794 
z
" transform="scale(0.015625)"/>
      <path id="DejaVuSans-25" d="M 4653 2053 
Q 4381 2053 4226 1822 
Q 4072 1591 4072 1178 
Q 4072 772 4226 539 
Q 4381 306 4653 306 
Q 4919 306 5073 539 
Q 5228 772 5228 1178 
Q 5228 1588 5073 1820 
Q 4919 2053 4653 2053 
z
M 4653 2450 
Q 5147 2450 5437 2106 
Q 5728 1763 5728 1178 
Q 5728 594 5436 251 
Q 5144 -91 4653 -91 
Q 4153 -91 3862 251 
Q 3572 594 3572 1178 
Q 3572 1766 3864 2108 
Q 4156 2450 4653 2450 
z
M 1428 4353 
Q 1159 4353 1004 4120 
Q 850 3888 850 3481 
Q 850 3069 1003 2837 
Q 1156 2606 1428 2606 
Q 1700 2606 1854 2837 
Q 2009 3069 2009 3481 
Q 2009 3884 1853 4118 
Q 1697 4353 1428 4353 
z
M 4250 4750 
L 4750 4750 
L 1831 -91 
L 1331 -91 
L 4250 4750 
z
M 1428 4750 
Q 1922 4750 2215 4408 
Q 2509 4066 2509 3481 
Q 2509 2891 2217 2550 
Q 1925 2209 1428 2209 
Q 931 2209 642 2551 
Q 353 2894 353 3481 
Q 353 4063 643 4406 
Q 934 4750 1428 4750 
z
" transform="scale(0.015625)"/>
      <path id="DejaVuSans-29" d="M 513 4856 
L 1013 4856 
Q 1481 4119 1714 3412 
Q 1947 2706 1947 2009 
Q 1947 1309 1714 600 
Q 1481 -109 1013 -844 
L 513 -844 
Q 928 -128 1133 580 
Q 1338 1288 1338 2009 
Q 1338 2731 1133 3434 
Q 928 4138 513 4856 
z
" transform="scale(0.015625)"/>
     </defs>
     <use xlink:href="#DejaVuSans-41"/>
     <use xlink:href="#DejaVuSans-67" x="68.408203"/>
     <use xlink:href="#DejaVuSans-41" x="131.884766"/>
     <use xlink:href="#DejaVuSans-75" x="200.292969"/>
     <use xlink:href="#DejaVuSans-20" x="263.671875"/>
     <use xlink:href="#DejaVuSans-63" x="295.458984"/>
     <use xlink:href="#DejaVuSans-6f" x="350.439453"/>
     <use xlink:href="#DejaVuSans-6e" x="411.621094"/>
     <use xlink:href="#DejaVuSans-74" x="475"/>
     <use xlink:href="#DejaVuSans-65" x="514.208984"/>
     <use xlink:href="#DejaVuSans-6e" x="575.732422"/>
     <use xlink:href="#DejaVuSans-74" x="639.111328"/>
     <use xlink:href="#DejaVuSans-20" x="678.320312"/>
     <use xlink:href="#DejaVuSans-28" x="710.107422"/>
     <use xlink:href="#DejaVuSans-61" x="749.121094"/>
     <use xlink:href="#DejaVuSans-74" x="810.400391"/>
     <use xlink:href="#DejaVuSans-2e" x="849.609375"/>
     <use xlink:href="#DejaVuSans-25" x="881.396484"/>
     <use xlink:href="#DejaVuSans-29" x="976.416016"/>
    </g>
   </g>
   <g id="text_20">
    <!-- Cu content (at.%) -->
    <g transform="translate(170.532493 50.046277) rotate(-300) scale(0.12 -0.12)">
     <defs>
      <path id="DejaVuSans-43" d="M 4122 4306 
L 4122 3641 
Q 3803 3938 3442 4084 
Q 3081 4231 2675 4231 
Q 1875 4231 1450 3742 
Q 1025 3253 1025 2328 
Q 1025 1406 1450 917 
Q 1875 428 2675 428 
Q 3081 428 3442 575 
Q 3803 722 4122 1019 
L 4122 359 
Q 3791 134 3420 21 
Q 3050 -91 2638 -91 
Q 1578 -91 968 557 
Q 359 1206 359 2328 
Q 359 3453 968 4101 
Q 1578 4750 2638 4750 
Q 3056 4750 3426 4639 
Q 3797 4528 4122 4306 
z
" transform="scale(0.015625)"/>
     </defs>
     <use xlink:href="#DejaVuSans-43"/>
     <use xlink:href="#DejaVuSans-75" x="69.824219"/>
     <use xlink:href="#DejaVuSans-20" x="133.203125"/>
     <use xlink:href="#DejaVuSans-63" x="164.990234"/>
     <use xlink:href="#DejaVuSans-6f" x="219.970703"/>
     <use xlink:href="#DejaVuSans-6e" x="281.152344"/>
     <use xlink:href="#DejaVuSans-74" x="344.53125"/>
     <use xlink:href="#DejaVuSans-65" x="383.740234"/>
     <use xlink:href="#DejaVuSans-6e" x="445.263672"/>
     <use xlink:href="#DejaVuSans-74" x="508.642578"/>
     <use xlink:href="#DejaVuSans-20" x="547.851562"/>
     <use xlink:href="#DejaVuSans-28" x="579.638672"/>
     <use xlink:href="#DejaVuSans-61" x="618.652344"/>
     <use xlink:href="#DejaVuSans-74" x="679.931641"/>
     <use xlink:href="#DejaVuSans-2e" x="719.140625"/>
     <use xlink:href="#DejaVuSans-25" x="750.927734"/>
     <use xlink:href="#DejaVuSans-29" x="845.947266"/>
    </g>
   </g>
   <g id="text_21">
    <!-- Pd content (at.%) -->
    <g transform="translate(46.688584 141.522105) rotate(-60) scale(0.12 -0.12)">
     <defs>
      <path id="DejaVuSans-50" d="M 1259 4147 
L 1259 2394 
L 2053 2394 
Q 2494 2394 2734 2622 
Q 2975 2850 2975 3272 
Q 2975 3691 2734 3919 
Q 2494 4147 2053 4147 
L 1259 4147 
z
M 628 4666 
L 2053 4666 
Q 2838 4666 3239 4311 
Q 3641 3956 3641 3272 
Q 3641 2581 3239 2228 
Q 2838 1875 2053 1875 
L 1259 1875 
L 1259 0 
L 628 0 
L 628 4666 
z
" transform="scale(0.015625)"/>
      <path id="DejaVuSans-64" d="M 2906 2969 
L 2906 4863 
L 3481 4863 
L 3481 0 
L 2906 0 
L 2906 525 
Q 2725 213 2448 61 
Q 2172 -91 1784 -91 
Q 1150 -91 751 415 
Q 353 922 353 1747 
Q 353 2572 751 3078 
Q 1150 3584 1784 3584 
Q 2172 3584 2448 3432 
Q 2725 3281 2906 2969 
z
M 947 1747 
Q 947 1113 1208 752 
Q 1469 391 1925 391 
Q 2381 391 2643 752 
Q 2906 1113 2906 1747 
Q 2906 2381 2643 2742 
Q 2381 3103 1925 3103 
Q 1469 3103 1208 2742 
Q 947 2381 947 1747 
z
" transform="scale(0.015625)"/>
     </defs>
     <use xlink:href="#DejaVuSans-50"/>
     <use xlink:href="#DejaVuSans-64" x="60.302734"/>
     <use xlink:href="#DejaVuSans-20" x="123.779297"/>
     <use xlink:href="#DejaVuSans-63" x="155.566406"/>
     <use xlink:href="#DejaVuSans-6f" x="210.546875"/>
     <use xlink:href="#DejaVuSans-6e" x="271.728516"/>
     <use xlink:href="#DejaVuSans-74" x="335.107422"/>
     <use xlink:href="#DejaVuSans-65" x="374.316406"/>
     <use xlink:href="#DejaVuSans-6e" x="435.839844"/>
     <use xlink:href="#DejaVuSans-74" x="499.21875"/>
     <use xlink:href="#DejaVuSans-20" x="538.427734"/>
     <use xlink:href="#DejaVuSans-28" x="570.214844"/>
     <use xlink:href="#DejaVuSans-61" x="609.228516"/>
     <use xlink:href="#DejaVuSans-74" x="670.507812"/>
     <use xlink:href="#DejaVuSans-2e" x="709.716797"/>
     <use xlink:href="#DejaVuSans-25" x="741.503906"/>
     <use xlink:href="#DejaVuSans-29" x="836.523438"/>
    </g>
   </g>
   <g id="text_22">
    <!-- AgAu -->
    <g transform="translate(7.2 195.914439) scale(0.14 -0.14)">
     <use xlink:href="#DejaVuSans-41"/>
     <use xlink:href="#DejaVuSans-67" x="68.408203"/>
     <use xlink:href="#DejaVuSans-41" x="131.884766"/>
     <use xlink:href="#DejaVuSans-75" x="200.292969"/>
    </g>
   </g>
   <g id="text_23">
    <!-- Cu -->
    <g transform="translate(225.920608 195.914439) scale(0.14 -0.14)">
     <use xlink:href="#DejaVuSans-43"/>
     <use xlink:href="#DejaVuSans-75" x="69.824219"/>
    </g>
   </g>
   <g id="text_24">
    <!-- Pd -->
    <g transform="translate(126.352648 19.059703) scale(0.14 -0.14)">
     <use xlink:href="#DejaVuSans-50"/>
     <use xlink:href="#DejaVuSans-64" x="60.302734"/>
    </g>
   </g>
  </g>
  <g id="axes_2">
   <g id="patch_3">
    <path d="M 229.697335 121.879219 
L 235.241335 121.879219 
L 235.241335 10.999219 
L 229.697335 10.999219 
z
" style="fill: #ffffff"/>
   </g>
   <g id="QuadMesh_1">
    <path d="M 229.697335 121.879219 
L 235.241335 121.879219 
L 235.241335 112.639219 
L 229.697335 112.639219 
L 229.697335 121.879219 
" clip-path="url(#pb2295485fc)" style="fill: #3d4c8a; stroke: #3d4c8a"/>
    <path d="M 229.697335 112.639219 
L 235.241335 112.639219 
L 235.241335 103.399219 
L 229.697335 103.399219 
L 229.697335 112.639219 
" clip-path="url(#pb2295485fc)" style="fill: #34608d; stroke: #34608d"/>
    <path d="M 229.697335 103.399219 
L 235.241335 103.399219 
L 235.241335 94.159219 
L 229.697335 94.159219 
L 229.697335 103.399219 
" clip-path="url(#pb2295485fc)" style="fill: #2d708e; stroke: #2d708e"/>
    <path d="M 229.697335 94.159219 
L 235.241335 94.159219 
L 235.241335 84.919219 
L 229.697335 84.919219 
L 229.697335 94.159219 
" clip-path="url(#pb2295485fc)" style="fill: #26818e; stroke: #26818e"/>
    <path d="M 229.697335 84.919219 
L 235.241335 84.919219 
L 235.241335 75.679219 
L 229.697335 75.679219 
L 229.697335 84.919219 
" clip-path="url(#pb2295485fc)" style="fill: #20918c; stroke: #20918c"/>
    <path d="M 229.697335 75.679219 
L 235.241335 75.679219 
L 235.241335 66.439219 
L 229.697335 66.439219 
L 229.697335 75.679219 
" clip-path="url(#pb2295485fc)" style="fill: #1fa287; stroke: #1fa287"/>
    <path d="M 229.697335 66.439219 
L 235.241335 66.439219 
L 235.241335 57.199219 
L 229.697335 57.199219 
L 229.697335 66.439219 
" clip-path="url(#pb2295485fc)" style="fill: #2bb17e; stroke: #2bb17e"/>
    <path d="M 229.697335 57.199219 
L 235.241335 57.199219 
L 235.241335 47.959219 
L 229.697335 47.959219 
L 229.697335 57.199219 
" clip-path="url(#pb2295485fc)" style="fill: #47c06f; stroke: #47c06f"/>
    <path d="M 229.697335 47.959219 
L 235.241335 47.959219 
L 235.241335 38.719219 
L 229.697335 38.719219 
L 229.697335 47.959219 
" clip-path="url(#pb2295485fc)" style="fill: #6cce5a; stroke: #6cce5a"/>
    <path d="M 229.697335 38.719219 
L 235.241335 38.719219 
L 235.241335 29.479219 
L 229.697335 29.479219 
L 229.697335 38.719219 
" clip-path="url(#pb2295485fc)" style="fill: #96d83f; stroke: #96d83f"/>
    <path d="M 229.697335 29.479219 
L 235.241335 29.479219 
L 235.241335 20.239219 
L 229.697335 20.239219 
L 229.697335 29.479219 
" clip-path="url(#pb2295485fc)" style="fill: #c6e021; stroke: #c6e021"/>
    <path d="M 229.697335 20.239219 
L 235.241335 20.239219 
L 235.241335 10.999219 
L 229.697335 10.999219 
L 229.697335 20.239219 
" clip-path="url(#pb2295485fc)" style="fill: #f0e51c; stroke: #f0e51c"/>
   </g>
   <g id="matplotlib.axis_3"/>
   <g id="matplotlib.axis_4">
    <g id="ytick_6">
     <g id="line2d_22">
      <defs>
       <path id="m5fbf667a99" d="M 0 0 
L 3.5 0 
" style="stroke: #000000; stroke-width: 0.8"/>
      </defs>
      <g>
       <use xlink:href="#m5fbf667a99" x="235.241335" y="121.879219" style="stroke: #000000; stroke-width: 0.8"/>
      </g>
     </g>
     <g id="text_25">
      <!-- 0.00 -->
      <g transform="translate(242.241335 125.678438) scale(0.1 -0.1)">
       <use xlink:href="#DejaVuSans-30"/>
       <use xlink:href="#DejaVuSans-2e" x="63.623047"/>
       <use xlink:href="#DejaVuSans-30" x="95.410156"/>
       <use xlink:href="#DejaVuSans-30" x="159.033203"/>
      </g>
     </g>
    </g>
    <g id="ytick_7">
     <g id="line2d_23">
      <g>
       <use xlink:href="#m5fbf667a99" x="235.241335" y="103.399219" style="stroke: #000000; stroke-width: 0.8"/>
      </g>
     </g>
     <g id="text_26">
      <!-- 0.03 -->
      <g transform="translate(242.241335 107.198438) scale(0.1 -0.1)">
       <defs>
        <path id="DejaVuSans-33" d="M 2597 2516 
Q 3050 2419 3304 2112 
Q 3559 1806 3559 1356 
Q 3559 666 3084 287 
Q 2609 -91 1734 -91 
Q 1441 -91 1130 -33 
Q 819 25 488 141 
L 488 750 
Q 750 597 1062 519 
Q 1375 441 1716 441 
Q 2309 441 2620 675 
Q 2931 909 2931 1356 
Q 2931 1769 2642 2001 
Q 2353 2234 1838 2234 
L 1294 2234 
L 1294 2753 
L 1863 2753 
Q 2328 2753 2575 2939 
Q 2822 3125 2822 3475 
Q 2822 3834 2567 4026 
Q 2313 4219 1838 4219 
Q 1578 4219 1281 4162 
Q 984 4106 628 3988 
L 628 4550 
Q 988 4650 1302 4700 
Q 1616 4750 1894 4750 
Q 2613 4750 3031 4423 
Q 3450 4097 3450 3541 
Q 3450 3153 3228 2886 
Q 3006 2619 2597 2516 
z
" transform="scale(0.015625)"/>
       </defs>
       <use xlink:href="#DejaVuSans-30"/>
       <use xlink:href="#DejaVuSans-2e" x="63.623047"/>
       <use xlink:href="#DejaVuSans-30" x="95.410156"/>
       <use xlink:href="#DejaVuSans-33" x="159.033203"/>
      </g>
     </g>
    </g>
    <g id="ytick_8">
     <g id="line2d_24">
      <g>
       <use xlink:href="#m5fbf667a99" x="235.241335" y="84.919219" style="stroke: #000000; stroke-width: 0.8"/>
      </g>
     </g>
     <g id="text_27">
      <!-- 0.06 -->
      <g transform="translate(242.241335 88.718438) scale(0.1 -0.1)">
       <use xlink:href="#DejaVuSans-30"/>
       <use xlink:href="#DejaVuSans-2e" x="63.623047"/>
       <use xlink:href="#DejaVuSans-30" x="95.410156"/>
       <use xlink:href="#DejaVuSans-36" x="159.033203"/>
      </g>
     </g>
    </g>
    <g id="ytick_9">
     <g id="line2d_25">
      <g>
       <use xlink:href="#m5fbf667a99" x="235.241335" y="66.439219" style="stroke: #000000; stroke-width: 0.8"/>
      </g>
     </g>
     <g id="text_28">
      <!-- 0.09 -->
      <g transform="translate(242.241335 70.238438) scale(0.1 -0.1)">
       <defs>
        <path id="DejaVuSans-39" d="M 703 97 
L 703 672 
Q 941 559 1184 500 
Q 1428 441 1663 441 
Q 2288 441 2617 861 
Q 2947 1281 2994 2138 
Q 2813 1869 2534 1725 
Q 2256 1581 1919 1581 
Q 1219 1581 811 2004 
Q 403 2428 403 3163 
Q 403 3881 828 4315 
Q 1253 4750 1959 4750 
Q 2769 4750 3195 4129 
Q 3622 3509 3622 2328 
Q 3622 1225 3098 567 
Q 2575 -91 1691 -91 
Q 1453 -91 1209 -44 
Q 966 3 703 97 
z
M 1959 2075 
Q 2384 2075 2632 2365 
Q 2881 2656 2881 3163 
Q 2881 3666 2632 3958 
Q 2384 4250 1959 4250 
Q 1534 4250 1286 3958 
Q 1038 3666 1038 3163 
Q 1038 2656 1286 2365 
Q 1534 2075 1959 2075 
z
" transform="scale(0.015625)"/>
       </defs>
       <use xlink:href="#DejaVuSans-30"/>
       <use xlink:href="#DejaVuSans-2e" x="63.623047"/>
       <use xlink:href="#DejaVuSans-30" x="95.410156"/>
       <use xlink:href="#DejaVuSans-39" x="159.033203"/>
      </g>
     </g>
    </g>
    <g id="ytick_10">
     <g id="line2d_26">
      <g>
       <use xlink:href="#m5fbf667a99" x="235.241335" y="47.959219" style="stroke: #000000; stroke-width: 0.8"/>
      </g>
     </g>
     <g id="text_29">
      <!-- 0.12 -->
      <g transform="translate(242.241335 51.758438) scale(0.1 -0.1)">
       <use xlink:href="#DejaVuSans-30"/>
       <use xlink:href="#DejaVuSans-2e" x="63.623047"/>
       <use xlink:href="#DejaVuSans-31" x="95.410156"/>
       <use xlink:href="#DejaVuSans-32" x="159.033203"/>
      </g>
     </g>
    </g>
    <g id="ytick_11">
     <g id="line2d_27">
      <g>
       <use xlink:href="#m5fbf667a99" x="235.241335" y="29.479219" style="stroke: #000000; stroke-width: 0.8"/>
      </g>
     </g>
     <g id="text_30">
      <!-- 0.15 -->
      <g transform="translate(242.241335 33.278438) scale(0.1 -0.1)">
       <defs>
        <path id="DejaVuSans-35" d="M 691 4666 
L 3169 4666 
L 3169 4134 
L 1269 4134 
L 1269 2991 
Q 1406 3038 1543 3061 
Q 1681 3084 1819 3084 
Q 2600 3084 3056 2656 
Q 3513 2228 3513 1497 
Q 3513 744 3044 326 
Q 2575 -91 1722 -91 
Q 1428 -91 1123 -41 
Q 819 9 494 109 
L 494 744 
Q 775 591 1075 516 
Q 1375 441 1709 441 
Q 2250 441 2565 725 
Q 2881 1009 2881 1497 
Q 2881 1984 2565 2268 
Q 2250 2553 1709 2553 
Q 1456 2553 1204 2497 
Q 953 2441 691 2322 
L 691 4666 
z
" transform="scale(0.015625)"/>
       </defs>
       <use xlink:href="#DejaVuSans-30"/>
       <use xlink:href="#DejaVuSans-2e" x="63.623047"/>
       <use xlink:href="#DejaVuSans-31" x="95.410156"/>
       <use xlink:href="#DejaVuSans-35" x="159.033203"/>
      </g>
     </g>
    </g>
    <g id="ytick_12">
     <g id="line2d_28">
      <g>
       <use xlink:href="#m5fbf667a99" x="235.241335" y="10.999219" style="stroke: #000000; stroke-width: 0.8"/>
      </g>
     </g>
     <g id="text_31">
      <!-- 0.18 -->
      <g transform="translate(242.241335 14.798438) scale(0.1 -0.1)">
       <use xlink:href="#DejaVuSans-30"/>
       <use xlink:href="#DejaVuSans-2e" x="63.623047"/>
       <use xlink:href="#DejaVuSans-31" x="95.410156"/>
       <use xlink:href="#DejaVuSans-38" x="159.033203"/>
      </g>
     </g>
    </g>
   </g>
   <g id="LineCollection_1"/>
   <g id="patch_4">
    <path d="M 229.697335 121.879219 
L 232.469335 121.879219 
L 235.241335 121.879219 
L 235.241335 10.999219 
L 232.469335 10.999219 
L 229.697335 10.999219 
L 229.697335 121.879219 
z
" style="fill: none; stroke: #000000; stroke-width: 0.8; stroke-linejoin: miter; stroke-linecap: square"/>
   </g>
  </g>
 </g>
 <defs>
  <clipPath id="pa46373e38d">
   <rect x="45.737335" y="26.841084" width="178.56" height="156.812269"/>
  </clipPath>
  <clipPath id="pb2295485fc">
   <rect x="229.697335" y="10.999219" width="5.544" height="110.88"/>
  </clipPath>
 </defs>
</svg>
