<?xml version="1.0" encoding="utf-8" standalone="no"?>
<!DOCTYPE svg PUBLIC "-//W3C//DTD SVG 1.1//EN"
  "http://www.w3.org/Graphics/SVG/1.1/DTD/svg11.dtd">
<svg xmlns:xlink="http://www.w3.org/1999/xlink" width="271.70696pt" height="210.047792pt" viewBox="0 0 271.70696 210.047792" xmlns="http://www.w3.org/2000/svg" version="1.1">
 <metadata>
  <rdf:RDF xmlns:dc="http://purl.org/dc/elements/1.1/" xmlns:cc="http://creativecommons.org/ns#" xmlns:rdf="http://www.w3.org/1999/02/22-rdf-syntax-ns#">
   <cc:Work>
    <dc:type rdf:resource="http://purl.org/dc/dcmitype/StillImage"/>
    <dc:date>2024-01-11T13:13:53.426389</dc:date>
    <dc:format>image/svg+xml</dc:format>
    <dc:creator>
     <cc:Agent>
      <dc:title>Matplotlib v3.7.0, https://matplotlib.org/</dc:title>
     </cc:Agent>
    </dc:creator>
   </cc:Work>
  </rdf:RDF>
 </metadata>
 <defs>
  <style type="text/css">*{stroke-linejoin: round; stroke-linecap: butt}</style>
 </defs>
 <g id="figure_1">
  <g id="patch_1">
   <path d="M 0 210.047792 
L 271.70696 210.047792 
L 271.70696 0 
L 0 0 
z
" style="fill: #ffffff"/>
  </g>
  <g id="axes_1">
   <g id="patch_2">
    <path d="M 45.737335 182.431462 
L 224.297335 182.431462 
L 224.297335 25.619193 
L 45.737335 25.619193 
z
" style="fill: #ffffff"/>
   </g>
   <g id="PathCollection_1">
    <defs>
     <path id="mc5013ba341" d="M 215.555995 -36.815185 
L 208.127638 -35.841865 
L 207.997912 -35.848214 
L 207.24029 -35.732693 
L 208.064608 -35.732693 
L 216.180972 -35.732693 
M 110.054402 -133.075166 
L 112.046495 -131.751173 
L 114.231526 -134.138373 
L 117.056123 -137.132196 
L 120.689469 -137.437688 
L 125.136545 -137.19445 
L 127.878847 -135.832102 
L 134.46142 -135.101246 
L 135.845536 -135.572858 
L 137.916037 -134.138373 
L 140.324188 -129.272158 
L 144.565998 -131.657557 
L 148.504822 -129.383476 
L 155.139153 -127.402269 
L 155.432474 -127.324568 
L 155.805165 -127.109395 
L 161.72755 -124.170005 
L 165.310228 -123.843406 
L 163.424608 -127.109395 
L 159.366426 -134.138373 
L 155.308244 -141.16735 
L 151.250063 -148.196327 
L 147.191881 -155.225304 
L 143.133699 -162.254281 
L 139.075517 -169.283258 
L 135.017335 -176.312235 
L 130.959153 -169.283258 
L 126.900972 -162.254281 
L 122.84279 -155.225304 
L 118.784608 -148.196327 
L 114.726426 -141.16735 
L 110.668244 -134.138373 
M 56.626944 -35.732693 
L 55.29277 -38.225238 
L 53.853699 -35.732693 
" style="stroke: #3d4c8a"/>
    </defs>
    <g clip-path="url(#p331ef34fa8)">
     <use xlink:href="#mc5013ba341" x="0" y="210.047792" style="fill: #3d4c8a; stroke: #3d4c8a"/>
    </g>
   </g>
   <g id="PathCollection_2">
    <defs>
     <path id="ma0035ea1d8" d="M 214.931018 -37.897676 
L 208.854911 -37.101538 
L 207.228345 -37.181142 
L 200.162477 -36.103755 
L 199.759115 -36.060275 
L 198.334195 -35.732693 
L 199.948244 -35.732693 
L 207.24029 -35.732693 
L 207.997912 -35.848214 
L 208.127638 -35.841865 
L 215.555995 -36.815185 
M 165.310228 -123.843406 
L 161.72755 -124.170005 
L 155.805165 -127.109395 
L 155.432474 -127.324568 
L 155.139153 -127.402269 
L 148.504822 -129.383476 
L 144.565998 -131.657557 
L 140.324188 -129.272158 
L 137.916037 -134.138373 
L 135.845536 -135.572858 
L 134.46142 -135.101246 
L 127.878847 -135.832102 
L 125.136545 -137.19445 
L 120.689469 -137.437688 
L 117.056123 -137.132196 
L 114.231526 -134.138373 
L 112.046495 -131.751173 
L 110.054402 -133.075166 
L 106.610063 -127.109395 
L 103.728165 -122.117803 
L 108.385517 -124.034218 
L 112.104567 -122.568202 
L 118.288952 -120.938919 
L 120.033279 -122.243181 
L 124.147205 -124.850081 
L 129.783418 -125.072963 
L 133.091418 -123.416204 
L 135.685742 -121.238132 
L 142.866713 -120.542851 
L 143.453241 -120.633881 
L 144.7901 -120.080418 
L 149.885674 -117.717228 
L 152.865053 -117.283172 
L 156.959505 -115.911508 
L 161.740601 -115.968228 
L 164.991374 -115.76516 
L 171.410063 -113.051441 
L 171.515921 -113.008052 
L 171.565717 -113.008582 
L 171.540972 -113.051441 
L 167.48279 -120.080418 
M 55.29277 -38.225238 
L 56.626944 -35.732693 
L 59.400189 -35.732693 
L 56.731842 -40.717783 
" style="stroke: #355f8d"/>
    </defs>
    <g clip-path="url(#p331ef34fa8)">
     <use xlink:href="#ma0035ea1d8" x="0" y="210.047792" style="fill: #355f8d; stroke: #355f8d"/>
    </g>
   </g>
   <g id="PathCollection_3">
    <defs>
     <path id="m57842627bf" d="M 214.306042 -38.980167 
L 209.582184 -38.361211 
L 206.458779 -38.514071 
L 201.080618 -37.694022 
L 198.948559 -37.464199 
L 191.8954 -35.842712 
L 191.776458 -35.828688 
L 191.173797 -35.732693 
L 191.831881 -35.732693 
L 198.334195 -35.732693 
L 199.759115 -36.060275 
L 200.162477 -36.103755 
L 207.228345 -37.181142 
L 208.854911 -37.101538 
L 214.931018 -37.897676 
M 171.565717 -113.008582 
L 171.515921 -113.008052 
L 171.410063 -113.051441 
L 164.991374 -115.76516 
L 161.740601 -115.968228 
L 156.959505 -115.911508 
L 152.865053 -117.283172 
L 149.885674 -117.717228 
L 144.7901 -120.080418 
L 143.453241 -120.633881 
L 142.866713 -120.542851 
L 135.685742 -121.238132 
L 133.091418 -123.416204 
L 129.783418 -125.072963 
L 124.147205 -124.850081 
L 120.033279 -122.243181 
L 118.288952 -120.938919 
L 112.104567 -122.568202 
L 108.385517 -124.034218 
L 103.728165 -122.117803 
L 102.551881 -120.080418 
L 98.493699 -113.051441 
L 96.752131 -110.034957 
L 100.363991 -109.812 
L 106.335449 -112.575796 
L 106.831418 -112.668042 
L 110.262426 -113.051441 
L 114.270916 -113.840408 
L 115.034288 -113.584674 
L 122.315753 -113.964295 
L 123.706233 -114.546968 
L 130.751042 -113.411902 
L 131.087985 -113.274583 
L 138.191042 -114.583398 
L 139.868495 -114.42492 
L 141.654548 -113.051441 
L 145.479469 -110.085457 
L 149.066863 -109.803876 
L 153.20998 -109.417141 
L 157.675517 -108.951205 
L 161.079295 -108.98924 
L 167.03639 -106.795652 
L 167.758345 -106.49974 
L 175.277468 -106.579639 
M 56.731842 -40.717783 
L 59.400189 -35.732693 
L 61.970063 -35.732693 
L 62.233425 -35.732693 
L 62.085411 -35.932483 
L 58.455657 -42.76167 
L 58.376164 -43.565833 
L 57.911881 -42.76167 
" style="stroke: #2d6f8e"/>
    </defs>
    <g clip-path="url(#p331ef34fa8)">
     <use xlink:href="#m57842627bf" x="0" y="210.047792" style="fill: #2d6f8e; stroke: #2d6f8e"/>
    </g>
   </g>
   <g id="PathCollection_4">
    <defs>
     <path id="m76a0556133" d="M 213.681065 -40.062659 
L 210.309456 -39.620885 
L 205.689212 -39.847 
L 201.998759 -39.284288 
L 198.138003 -38.868122 
L 192.954056 -37.676358 
L 190.852744 -37.428607 
L 184.070978 -36.34837 
L 183.368911 -36.333033 
L 175.63825 -35.80041 
L 175.568959 -35.784992 
L 175.043238 -35.732693 
L 175.599153 -35.732693 
L 183.715517 -35.732693 
L 191.173797 -35.732693 
L 191.776458 -35.828688 
L 191.8954 -35.842712 
L 198.948559 -37.464199 
L 201.080618 -37.694022 
L 206.458779 -38.514071 
L 209.582184 -38.361211 
L 214.306042 -38.980167 
M 175.277468 -106.579639 
L 167.758345 -106.49974 
L 167.03639 -106.795652 
L 161.079295 -108.98924 
L 157.675517 -108.951205 
L 153.20998 -109.417141 
L 149.066863 -109.803876 
L 145.479469 -110.085457 
L 141.654548 -113.051441 
L 139.868495 -114.42492 
L 138.191042 -114.583398 
L 131.087985 -113.274583 
L 130.751042 -113.411902 
L 123.706233 -114.546968 
L 122.315753 -113.964295 
L 115.034288 -113.584674 
L 114.270916 -113.840408 
L 110.262426 -113.051441 
L 106.831418 -112.668042 
L 106.335449 -112.575796 
L 100.363991 -109.812 
L 96.752131 -110.034957 
L 94.435517 -106.022464 
L 93.783309 -104.892807 
L 94.727706 -105.516378 
L 101.808833 -104.735468 
L 103.211335 -104.880255 
L 109.146426 -106.022464 
L 110.520674 -106.278063 
L 110.836169 -106.313318 
L 118.319339 -106.828334 
L 119.278171 -106.87734 
L 120.758859 -106.022464 
L 126.030251 -104.514331 
L 128.009548 -104.102353 
L 131.446135 -106.022464 
L 134.077546 -107.650227 
L 136.133335 -107.955433 
L 138.816484 -106.022464 
L 142.406426 -104.762791 
L 144.000832 -104.520546 
L 150.190698 -104.187591 
L 152.820192 -103.302919 
L 157.53161 -102.844469 
L 160.693139 -103.724529 
L 165.686333 -102.910911 
L 170.094305 -101.499187 
L 173.001159 -101.522605 
L 179.570374 -99.144108 
L 175.599153 -106.022464 
M 58.376164 -43.565833 
L 58.455657 -42.76167 
L 62.085411 -35.932483 
L 62.233425 -35.732693 
L 65.824737 -35.732693 
L 63.65835 -38.656893 
L 61.476636 -42.76167 
L 60.955517 -48.033403 
" style="stroke: #277f8e"/>
    </defs>
    <g clip-path="url(#p331ef34fa8)">
     <use xlink:href="#m76a0556133" x="0" y="210.047792" style="fill: #277f8e; stroke: #277f8e"/>
    </g>
   </g>
   <g id="PathCollection_5">
    <defs>
     <path id="mbdc7ea692f" d="M 213.056088 -41.14515 
L 211.036729 -40.880558 
L 204.919645 -41.179928 
L 202.916899 -40.874554 
L 197.327448 -40.272046 
L 194.012712 -39.510004 
L 189.929031 -39.028526 
L 185.181794 -38.27236 
L 182.285766 -38.209094 
L 176.811134 -37.831906 
L 174.663114 -37.35396 
L 168.038334 -36.694924 
L 166.9529 -36.65049 
L 159.453699 -35.883854 
L 159.288384 -35.867866 
L 151.269859 -35.766981 
L 151.229805 -35.76778 
L 150.916513 -35.732693 
L 151.250063 -35.732693 
L 159.366426 -35.732693 
L 167.48279 -35.732693 
L 175.043238 -35.732693 
L 175.568959 -35.784992 
L 175.63825 -35.80041 
L 183.368911 -36.333033 
L 184.070978 -36.34837 
L 190.852744 -37.428607 
L 192.954056 -37.676358 
L 198.138003 -38.868122 
L 201.998759 -39.284288 
L 205.689212 -39.847 
L 210.309456 -39.620885 
L 213.681065 -40.062659 
M 179.570374 -99.144108 
L 173.001159 -101.522605 
L 170.094305 -101.499187 
L 165.686333 -102.910911 
L 160.693139 -103.724529 
L 157.53161 -102.844469 
L 152.820192 -103.302919 
L 150.190698 -104.187591 
L 144.000832 -104.520546 
L 142.406426 -104.762791 
L 138.816484 -106.022464 
L 136.133335 -107.955433 
L 134.077546 -107.650227 
L 131.446135 -106.022464 
L 128.009548 -104.102353 
L 126.030251 -104.514331 
L 120.758859 -106.022464 
L 119.278171 -106.87734 
L 118.319339 -106.828334 
L 110.836169 -106.313318 
L 110.520674 -106.278063 
L 109.146426 -106.022464 
L 103.211335 -104.880255 
L 101.808833 -104.735468 
L 94.727706 -105.516378 
L 93.783309 -104.892807 
L 90.377335 -98.993487 
L 86.319153 -91.96451 
L 82.260972 -84.935533 
L 81.194398 -83.088173 
L 82.762133 -84.067497 
L 84.069509 -84.935533 
L 87.323019 -90.225763 
L 88.931955 -91.96451 
L 92.446606 -95.409405 
L 97.456269 -97.196606 
L 99.24358 -97.694654 
L 106.218912 -98.315995 
L 107.105718 -98.134986 
L 108.492118 -98.993487 
L 113.634631 -100.884532 
L 115.88904 -101.007194 
L 121.649207 -101.060833 
L 123.697962 -100.474689 
L 130.814218 -98.993487 
L 130.946856 -98.972187 
L 130.981209 -98.955286 
L 131.060608 -98.993487 
L 137.342564 -101.99505 
L 140.224608 -100.983771 
L 146.60223 -100.014791 
L 147.74601 -99.953267 
L 150.598749 -98.993487 
L 154.639 -97.834322 
L 156.102972 -97.616979 
L 160.606426 -98.993487 
L 163.034398 -99.66935 
L 163.747712 -99.553119 
L 165.495109 -98.993487 
L 170.274958 -96.800686 
L 173.325594 -95.902431 
L 177.171699 -94.688239 
L 182.320517 -94.380721 
L 179.657335 -98.993487 
M 60.955517 -48.033403 
L 61.476636 -42.76167 
L 63.65835 -38.656893 
L 65.824737 -35.732693 
L 69.416048 -35.732693 
L 65.231289 -41.381303 
L 64.497615 -42.76167 
L 64.181407 -45.960486 
L 64.044751 -49.790647 
L 64.12968 -53.531214 
L 61.970063 -49.790647 
" style="stroke: #218e8d"/>
    </defs>
    <g clip-path="url(#p331ef34fa8)">
     <use xlink:href="#mbdc7ea692f" x="0" y="210.047792" style="fill: #218e8d; stroke: #218e8d"/>
    </g>
   </g>
   <g id="PathCollection_6">
    <defs>
     <path id="m06c8f2ab13" d="M 212.431112 -42.227641 
L 211.764002 -42.140231 
L 204.150079 -42.512857 
L 203.83504 -42.464821 
L 196.516892 -41.675969 
L 195.071368 -41.343651 
L 189.005317 -40.628445 
L 186.292611 -40.19635 
L 181.202622 -40.085156 
L 177.984019 -39.863402 
L 173.75727 -38.922928 
L 169.054573 -38.455102 
L 165.983589 -38.329385 
L 160.544608 -37.773364 
L 158.31286 -37.557524 
L 152.259659 -37.481366 
L 150.216948 -37.5221 
L 143.748575 -36.79769 
L 142.551881 -36.740432 
L 135.592912 -36.729622 
L 134.545176 -36.550498 
L 130.371011 -35.732693 
L 135.017335 -35.732693 
L 143.133699 -35.732693 
L 150.916513 -35.732693 
L 151.229805 -35.76778 
L 151.269859 -35.766981 
L 159.288384 -35.867866 
L 159.453699 -35.883854 
L 166.9529 -36.65049 
L 168.038334 -36.694924 
L 174.663114 -37.35396 
L 176.811134 -37.831906 
L 182.285766 -38.209094 
L 185.181794 -38.27236 
L 189.929031 -39.028526 
L 194.012712 -39.510004 
L 197.327448 -40.272046 
L 202.916899 -40.874554 
L 204.919645 -41.179928 
L 211.036729 -40.880558 
L 213.056088 -41.14515 
M 182.320517 -94.380721 
L 177.171699 -94.688239 
L 173.325594 -95.902431 
L 170.274958 -96.800686 
L 165.495109 -98.993487 
L 163.747712 -99.553119 
L 163.034398 -99.66935 
L 160.606426 -98.993487 
L 156.102972 -97.616979 
L 154.639 -97.834322 
L 150.598749 -98.993487 
L 147.74601 -99.953267 
L 146.60223 -100.014791 
L 140.224608 -100.983771 
L 137.342564 -101.99505 
L 131.060608 -98.993487 
L 130.981209 -98.955286 
L 130.946856 -98.972187 
L 130.814218 -98.993487 
L 123.697962 -100.474689 
L 121.649207 -101.060833 
L 115.88904 -101.007194 
L 113.634631 -100.884532 
L 108.492118 -98.993487 
L 107.105718 -98.134986 
L 106.218912 -98.315995 
L 99.24358 -97.694654 
L 97.456269 -97.196606 
L 92.446606 -95.409405 
L 88.931955 -91.96451 
L 87.323019 -90.225763 
L 84.069509 -84.935533 
L 82.762133 -84.067497 
L 81.194398 -83.088173 
L 78.20279 -77.906556 
L 75.874325 -73.873536 
L 78.799581 -76.872883 
L 79.816839 -77.906556 
L 84.595648 -80.891754 
L 90.185394 -84.603081 
L 90.505296 -84.713898 
L 90.743881 -84.935533 
L 95.475554 -90.163114 
L 102.551881 -91.96451 
L 110.058646 -90.908655 
L 111.227443 -90.99595 
L 114.175315 -91.96451 
L 117.479179 -94.22558 
L 120.108554 -94.257651 
L 124.249824 -96.556433 
L 129.102228 -95.777198 
L 134.289509 -93.225142 
L 136.305028 -94.194858 
L 140.946497 -95.752855 
L 144.826307 -94.896194 
L 149.499474 -94.996618 
L 152.503115 -94.134861 
L 158.639335 -93.223868 
L 160.405127 -93.763593 
L 167.154554 -92.53303 
L 167.673559 -92.294932 
L 168.795731 -91.96451 
L 174.828099 -90.629004 
L 176.562972 -90.295128 
L 182.558301 -89.960153 
L 185.308244 -89.205825 
L 183.715517 -91.96451 
M 64.12968 -53.531214 
L 64.044751 -49.790647 
L 64.181407 -45.960486 
L 64.497615 -42.76167 
L 65.231289 -41.381303 
L 69.416048 -35.732693 
L 70.086426 -35.732693 
L 73.851431 -35.732693 
L 71.311917 -37.855305 
L 67.715354 -42.76167 
L 67.617162 -45.513757 
L 67.464567 -49.790647 
L 67.563773 -54.160012 
L 67.803699 -56.819624 
L 71.02293 -62.22653 
L 71.72279 -63.848602 
L 73.099927 -69.068139 
L 70.086426 -63.848602 
L 66.028244 -56.819624 
" style="stroke: #1f9e89"/>
    </defs>
    <g clip-path="url(#p331ef34fa8)">
     <use xlink:href="#m06c8f2ab13" x="0" y="210.047792" style="fill: #1f9e89; stroke: #1f9e89"/>
    </g>
   </g>
   <g id="PathCollection_7">
    <defs>
     <path id="m25618e4145" d="M 211.4154 -43.986905 
L 205.033601 -44.540789 
L 202.838742 -44.784159 
L 196.300712 -43.472936 
L 195.538973 -43.369775 
L 192.604868 -42.76167 
L 188.081603 -42.228364 
L 187.403427 -42.12034 
L 180.119477 -41.961217 
L 179.156904 -41.894899 
L 172.851426 -40.491896 
L 170.070812 -40.21528 
L 165.014278 -40.008281 
L 161.635517 -39.662874 
L 157.337335 -39.247182 
L 153.249459 -39.19575 
L 149.204091 -39.27642 
L 144.901467 -38.794558 
L 141.460972 -38.629942 
L 136.68578 -38.622524 
L 133.64867 -38.103291 
L 127.583586 -36.915017 
L 126.265353 -36.833617 
L 118.981607 -36.073906 
L 118.597076 -36.057507 
L 110.932908 -36.191105 
L 110.360028 -36.26654 
L 109.435379 -35.732693 
L 110.668244 -35.732693 
L 118.784608 -35.732693 
L 126.900972 -35.732693 
L 130.371011 -35.732693 
L 134.545176 -36.550498 
L 135.592912 -36.729622 
L 142.551881 -36.740432 
L 143.748575 -36.79769 
L 150.216948 -37.5221 
L 152.259659 -37.481366 
L 158.31286 -37.557524 
L 160.544608 -37.773364 
L 165.983589 -38.329385 
L 169.054573 -38.455102 
L 173.75727 -38.922928 
L 177.984019 -39.863402 
L 181.202622 -40.085156 
L 186.292611 -40.19635 
L 189.005317 -40.628445 
L 195.071368 -41.343651 
L 196.516892 -41.675969 
L 203.83504 -42.464821 
L 204.150079 -42.512857 
L 211.764002 -42.140231 
L 212.431112 -42.227641 
L 212.12279 -42.76167 
M 185.308244 -89.205825 
L 182.558301 -89.960153 
L 176.562972 -90.295128 
L 174.828099 -90.629004 
L 168.795731 -91.96451 
L 167.673559 -92.294932 
L 167.154554 -92.53303 
L 160.405127 -93.763593 
L 158.639335 -93.223868 
L 152.503115 -94.134861 
L 149.499474 -94.996618 
L 144.826307 -94.896194 
L 140.946497 -95.752855 
L 136.305028 -94.194858 
L 134.289509 -93.225142 
L 129.102228 -95.777198 
L 124.249824 -96.556433 
L 120.108554 -94.257651 
L 117.479179 -94.22558 
L 114.175315 -91.96451 
L 111.227443 -90.99595 
L 110.058646 -90.908655 
L 102.551881 -91.96451 
L 95.475554 -90.163114 
L 90.743881 -84.935533 
L 90.505296 -84.713898 
L 90.185394 -84.603081 
L 84.595648 -80.891754 
L 79.816839 -77.906556 
L 78.799581 -76.872883 
L 75.874325 -73.873536 
L 74.144608 -70.877579 
L 73.099927 -69.068139 
L 71.72279 -63.848602 
L 71.02293 -62.22653 
L 67.803699 -56.819624 
L 67.563773 -54.160012 
L 67.464567 -49.790647 
L 67.617162 -45.513757 
L 67.715354 -42.76167 
L 71.311917 -37.855305 
L 73.851431 -35.732693 
L 78.20279 -35.732693 
L 78.816632 -35.732693 
L 78.337068 -35.96527 
L 77.943757 -36.181351 
L 72.818667 -40.465074 
L 71.13517 -42.76167 
L 70.936943 -48.317508 
L 71.0429 -49.790647 
L 71.138547 -51.612975 
L 71.608244 -56.819624 
L 72.895937 -58.982387 
L 74.995517 -63.848602 
L 76.001488 -67.661368 
L 79.830648 -70.877579 
L 81.357259 -72.442855 
L 85.730063 -76.88622 
L 86.467623 -77.649398 
L 87.306279 -77.906556 
L 93.247311 -79.96459 
L 98.372559 -84.725713 
L 98.526963 -84.877918 
L 98.818353 -84.935533 
L 105.626261 -86.639527 
L 107.446083 -86.383562 
L 113.624007 -86.844979 
L 116.345007 -87.738998 
L 121.196327 -87.787289 
L 125.131238 -91.96451 
L 126.471456 -92.708453 
L 127.2576 -92.582208 
L 128.513126 -91.96451 
L 133.51952 -89.370219 
L 136.955324 -88.607815 
L 141.739349 -89.549426 
L 144.295657 -89.95194 
L 150.151341 -90.061468 
L 152.514421 -89.774577 
L 157.586814 -88.882131 
L 162.320341 -86.84818 
L 164.331464 -86.506254 
L 169.9142 -87.753183 
L 172.799008 -87.114516 
L 179.099335 -85.902017 
L 180.18046 -85.841612 
L 183.483621 -84.935533 
L 187.196188 -83.935255 
L 188.420909 -83.814532 
L 187.773699 -84.935533 
" style="stroke: #27ad81"/>
    </defs>
    <g clip-path="url(#p331ef34fa8)">
     <use xlink:href="#m25618e4145" x="0" y="210.047792" style="fill: #27ad81; stroke: #27ad81"/>
    </g>
   </g>
   <g id="PathCollection_8">
    <defs>
     <path id="m42d2ba57ec" d="M 210.019237 -46.405131 
L 206.29652 -46.72823 
L 201.403064 -47.270825 
L 198.1124 -46.610872 
L 193.990049 -46.052591 
L 189.087026 -45.03642 
L 186.369484 -45.193842 
L 180.926439 -44.959823 
L 178.762454 -44.31165 
L 175.095196 -42.76167 
L 171.945582 -42.060865 
L 171.087051 -41.975457 
L 164.044967 -41.687177 
L 162.726426 -41.552384 
L 156.361811 -40.93684 
L 154.23926 -40.910135 
L 148.191233 -41.030741 
L 146.05436 -40.791427 
L 140.370063 -40.519452 
L 137.778647 -40.515426 
L 132.752165 -39.656084 
L 128.708775 -38.863901 
L 125.217629 -38.648327 
L 120.163602 -38.121181 
L 117.471887 -38.006392 
L 112.035675 -38.101153 
L 109.075793 -38.490899 
L 104.29844 -35.732693 
L 109.435379 -35.732693 
L 110.360028 -36.26654 
L 110.932908 -36.191105 
L 118.597076 -36.057507 
L 118.981607 -36.073906 
L 126.265353 -36.833617 
L 127.583586 -36.915017 
L 133.64867 -38.103291 
L 136.68578 -38.622524 
L 141.460972 -38.629942 
L 144.901467 -38.794558 
L 149.204091 -39.27642 
L 153.249459 -39.19575 
L 157.337335 -39.247182 
L 161.635517 -39.662874 
L 165.014278 -40.008281 
L 170.070812 -40.21528 
L 172.851426 -40.491896 
L 179.156904 -41.894899 
L 180.119477 -41.961217 
L 187.403427 -42.12034 
L 188.081603 -42.228364 
L 192.604868 -42.76167 
L 195.538973 -43.369775 
L 196.300712 -43.472936 
L 202.838742 -44.784159 
L 205.033601 -44.540789 
L 211.4154 -43.986905 
M 188.420909 -83.814532 
L 187.196188 -83.935255 
L 183.483621 -84.935533 
L 180.18046 -85.841612 
L 179.099335 -85.902017 
L 172.799008 -87.114516 
L 169.9142 -87.753183 
L 164.331464 -86.506254 
L 162.320341 -86.84818 
L 157.586814 -88.882131 
L 152.514421 -89.774577 
L 150.151341 -90.061468 
L 144.295657 -89.95194 
L 141.739349 -89.549426 
L 136.955324 -88.607815 
L 133.51952 -89.370219 
L 128.513126 -91.96451 
L 127.2576 -92.582208 
L 126.471456 -92.708453 
L 125.131238 -91.96451 
L 121.196327 -87.787289 
L 116.345007 -87.738998 
L 113.624007 -86.844979 
L 107.446083 -86.383562 
L 105.626261 -86.639527 
L 98.818353 -84.935533 
L 98.526963 -84.877918 
L 98.372559 -84.725713 
L 93.247311 -79.96459 
L 87.306279 -77.906556 
L 86.467623 -77.649398 
L 85.730063 -76.88622 
L 81.357259 -72.442855 
L 79.830648 -70.877579 
L 76.001488 -67.661368 
L 74.995517 -63.848602 
L 72.895937 -58.982387 
L 71.608244 -56.819624 
L 71.138547 -51.612975 
L 71.0429 -49.790647 
L 70.936943 -48.317508 
L 71.13517 -42.76167 
L 72.818667 -40.465074 
L 77.943757 -36.181351 
L 78.337068 -35.96527 
L 78.816632 -35.732693 
L 86.319153 -35.732693 
L 88.835855 -35.732693 
L 86.750875 -36.480457 
L 85.258191 -37.570334 
L 80.575036 -39.841544 
L 75.259833 -42.76167 
L 74.70651 -43.734913 
L 75.142074 -49.790647 
L 75.397133 -54.650187 
L 76.291794 -56.819624 
L 78.288526 -63.700102 
L 78.410902 -63.848602 
L 84.126581 -67.646248 
L 86.539707 -70.877579 
L 88.942125 -73.363436 
L 92.43002 -74.432933 
L 95.59695 -75.894896 
L 98.333206 -77.906556 
L 101.021747 -80.556826 
L 104.476379 -81.239885 
L 108.535339 -81.600855 
L 113.032031 -82.000754 
L 116.227397 -82.335774 
L 121.365387 -82.376596 
L 123.991881 -82.945249 
L 127.813276 -84.935533 
L 129.772551 -86.990789 
L 131.599245 -86.044204 
L 136.595517 -84.935533 
L 138.715517 -84.311995 
L 139.429803 -84.321892 
L 143.653979 -84.935533 
L 146.897056 -85.446185 
L 147.493143 -85.457335 
L 151.791153 -84.935533 
L 155.043137 -84.476353 
L 155.555927 -84.506534 
L 161.984608 -82.44138 
L 164.810943 -82.534329 
L 170.681059 -83.446121 
L 172.721157 -82.891392 
L 177.802619 -81.723071 
L 182.156321 -80.607163 
L 184.85493 -79.880076 
L 191.044733 -79.269935 
" style="stroke: #3fbd73"/>
    </defs>
    <g clip-path="url(#p331ef34fa8)">
     <use xlink:href="#m42d2ba57ec" x="0" y="210.047792" style="fill: #3fbd73; stroke: #3fbd73"/>
    </g>
   </g>
   <g id="PathCollection_9">
    <defs>
     <path id="m241dfd9134" d="M 208.623073 -48.823357 
L 207.55944 -48.915671 
L 199.967387 -49.757492 
L 199.924088 -49.748808 
L 192.441124 -48.735407 
L 191.057017 -48.448545 
L 184.263161 -48.8421 
L 183.139993 -48.793811 
L 177.201615 -47.015103 
L 172.962191 -45.223295 
L 170.494919 -44.573487 
L 164.172532 -44.057113 
L 162.548041 -44.279929 
L 156.783947 -42.76167 
L 155.386286 -42.626498 
L 155.22906 -42.62452 
L 148.351361 -42.76167 
L 147.219209 -42.809003 
L 147.165182 -42.807914 
L 146.65079 -42.76167 
L 139.279153 -42.408962 
L 138.871515 -42.408329 
L 131.855659 -41.208877 
L 129.833964 -40.812786 
L 124.169906 -40.463037 
L 121.345596 -40.168455 
L 116.346698 -39.955276 
L 113.138442 -40.011201 
L 107.791558 -40.715259 
L 104.247071 -38.668848 
L 101.516417 -37.526169 
L 95.1428 -36.957743 
L 93.433294 -37.468594 
L 88.36983 -39.28457 
L 83.607633 -42.76167 
L 82.91666 -43.897357 
L 79.543754 -49.790647 
L 82.480873 -56.438744 
L 82.615257 -56.819624 
L 86.846571 -62.935088 
L 87.48791 -63.848602 
L 91.300315 -69.27893 
L 94.467983 -70.877579 
L 97.646536 -72.344907 
L 100.590426 -74.509217 
L 103.524503 -76.221925 
L 109.98882 -76.729759 
L 111.312677 -76.790366 
L 118.550482 -77.501038 
L 119.021007 -77.497101 
L 120.355517 -77.906556 
L 126.173699 -79.166229 
L 128.253699 -80.249548 
L 133.264939 -80.941796 
L 136.260972 -80.060597 
L 141.845387 -80.137977 
L 144.657899 -80.546547 
L 150.385598 -79.403853 
L 151.984206 -79.17813 
L 158.413801 -79.55655 
L 160.020972 -79.040262 
L 166.701401 -79.259961 
L 168.418133 -79.526617 
L 174.37614 -77.906556 
L 175.345517 -77.467245 
L 175.847153 -77.477007 
L 182.445273 -75.706429 
L 185.43244 -74.932758 
L 189.80279 -74.392067 
L 194.133536 -70.877579 
L 195.466727 -70.14434 
L 196.669448 -69.527643 
L 195.890063 -70.877579 
L 191.831881 -77.906556 
L 191.044733 -79.269935 
L 184.85493 -79.880076 
L 182.156321 -80.607163 
L 177.802619 -81.723071 
L 172.721157 -82.891392 
L 170.681059 -83.446121 
L 164.810943 -82.534329 
L 161.984608 -82.44138 
L 155.555927 -84.506534 
L 155.043137 -84.476353 
L 151.791153 -84.935533 
L 147.493143 -85.457335 
L 146.897056 -85.446185 
L 143.653979 -84.935533 
L 139.429803 -84.321892 
L 138.715517 -84.311995 
L 136.595517 -84.935533 
L 131.599245 -86.044204 
L 129.772551 -86.990789 
L 127.813276 -84.935533 
L 123.991881 -82.945249 
L 121.365387 -82.376596 
L 116.227397 -82.335774 
L 113.032031 -82.000754 
L 108.535339 -81.600855 
L 104.476379 -81.239885 
L 101.021747 -80.556826 
L 98.333206 -77.906556 
L 95.59695 -75.894896 
L 92.43002 -74.432933 
L 88.942125 -73.363436 
L 86.539707 -70.877579 
L 84.126581 -67.646248 
L 78.410902 -63.848602 
L 78.288526 -63.700102 
L 76.291794 -56.819624 
L 75.397133 -54.650187 
L 75.142074 -49.790647 
L 74.70651 -43.734913 
L 75.259833 -42.76167 
L 80.575036 -39.841544 
L 85.258191 -37.570334 
L 86.750875 -36.480457 
L 88.835855 -35.732693 
L 94.435517 -35.732693 
L 102.551881 -35.732693 
L 104.29844 -35.732693 
L 109.075793 -38.490899 
L 112.035675 -38.101153 
L 117.471887 -38.006392 
L 120.163602 -38.121181 
L 125.217629 -38.648327 
L 128.708775 -38.863901 
L 132.752165 -39.656084 
L 137.778647 -40.515426 
L 140.370063 -40.519452 
L 146.05436 -40.791427 
L 148.191233 -41.030741 
L 154.23926 -40.910135 
L 156.361811 -40.93684 
L 162.726426 -41.552384 
L 164.044967 -41.687177 
L 171.087051 -41.975457 
L 171.945582 -42.060865 
L 175.095196 -42.76167 
L 178.762454 -44.31165 
L 180.926439 -44.959823 
L 186.369484 -45.193842 
L 189.087026 -45.03642 
L 193.990049 -46.052591 
L 198.1124 -46.610872 
L 201.403064 -47.270825 
L 206.29652 -46.72823 
L 210.019237 -46.405131 
" style="stroke: #5fc961"/>
    </defs>
    <g clip-path="url(#p331ef34fa8)">
     <use xlink:href="#m241dfd9134" x="0" y="210.047792" style="fill: #5fc961; stroke: #5fc961"/>
    </g>
   </g>
   <g id="PathCollection_10">
    <defs>
     <path id="m26771aa927" d="M 205.580007 -54.094103 
L 202.878054 -54.865226 
L 196.351772 -56.01992 
L 195.189104 -55.605528 
L 189.012838 -54.673372 
L 186.698684 -54.957644 
L 179.961699 -56.292451 
L 175.881462 -49.790647 
L 175.640776 -49.718555 
L 175.530661 -49.672015 
L 168.604461 -47.847856 
L 166.2501 -47.655566 
L 160.113132 -48.497316 
L 158.351881 -48.033403 
L 153.329343 -46.189228 
L 149.268795 -46.358992 
L 145.16279 -46.276159 
L 140.882445 -45.891361 
L 137.748176 -45.060692 
L 130.959153 -42.76167 
L 123.122183 -42.277748 
L 122.527591 -42.21573 
L 115.221509 -41.904161 
L 114.241209 -41.921249 
L 107.858734 -42.76167 
L 106.766146 -43.032016 
L 106.35774 -43.198705 
L 105.965053 -42.76167 
L 99.947532 -40.243557 
L 96.882021 -39.970162 
L 90.968811 -41.737204 
L 89.988786 -42.088683 
L 89.06707 -42.76167 
L 85.574858 -48.50149 
L 84.837035 -49.790647 
L 85.47953 -51.244918 
L 87.446426 -56.819624 
L 89.044142 -59.128783 
L 92.357728 -63.848602 
L 93.497887 -65.472625 
L 96.144225 -66.808171 
L 100.202407 -67.918009 
L 104.348125 -70.877579 
L 106.039905 -71.865121 
L 107.234398 -71.95896 
L 113.92524 -72.265274 
L 115.623909 -72.432064 
L 121.975994 -72.378914 
L 124.08279 -73.025322 
L 129.168112 -73.979753 
L 133.054554 -74.50692 
L 136.454203 -75.417827 
L 141.747978 -75.506417 
L 144.824608 -74.977815 
L 149.067833 -74.126823 
L 153.362541 -74.247636 
L 157.386825 -74.477786 
L 161.840927 -73.620594 
L 165.133316 -73.837148 
L 170.949974 -71.901216 
L 171.886839 -71.476639 
L 179.228972 -71.619526 
L 179.970772 -71.420467 
L 182.066881 -70.877579 
L 186.199404 -68.15082 
L 189.041881 -68.681023 
L 193.277061 -66.351727 
L 198.15881 -63.848602 
L 197.530604 -59.661126 
L 201.285057 -61.533174 
L 199.948244 -63.848602 
L 196.669448 -69.527643 
L 195.466727 -70.14434 
L 194.133536 -70.877579 
L 189.80279 -74.392067 
L 185.43244 -74.932758 
L 182.445273 -75.706429 
L 175.847153 -77.477007 
L 175.345517 -77.467245 
L 174.37614 -77.906556 
L 168.418133 -79.526617 
L 166.701401 -79.259961 
L 160.020972 -79.040262 
L 158.413801 -79.55655 
L 151.984206 -79.17813 
L 150.385598 -79.403853 
L 144.657899 -80.546547 
L 141.845387 -80.137977 
L 136.260972 -80.060597 
L 133.264939 -80.941796 
L 128.253699 -80.249548 
L 126.173699 -79.166229 
L 120.355517 -77.906556 
L 119.021007 -77.497101 
L 118.550482 -77.501038 
L 111.312677 -76.790366 
L 109.98882 -76.729759 
L 103.524503 -76.221925 
L 100.590426 -74.509217 
L 97.646536 -72.344907 
L 94.467983 -70.877579 
L 91.300315 -69.27893 
L 87.48791 -63.848602 
L 86.846571 -62.935088 
L 82.615257 -56.819624 
L 82.480873 -56.438744 
L 79.543754 -49.790647 
L 82.91666 -43.897357 
L 83.607633 -42.76167 
L 88.36983 -39.28457 
L 93.433294 -37.468594 
L 95.1428 -36.957743 
L 101.516417 -37.526169 
L 104.247071 -38.668848 
L 107.791558 -40.715259 
L 113.138442 -40.011201 
L 116.346698 -39.955276 
L 121.345596 -40.168455 
L 124.169906 -40.463037 
L 129.833964 -40.812786 
L 131.855659 -41.208877 
L 138.871515 -42.408329 
L 139.279153 -42.408962 
L 146.65079 -42.76167 
L 147.165182 -42.807914 
L 147.219209 -42.809003 
L 148.351361 -42.76167 
L 155.22906 -42.62452 
L 155.386286 -42.626498 
L 156.783947 -42.76167 
L 162.548041 -44.279929 
L 164.172532 -44.057113 
L 170.494919 -44.573487 
L 172.962191 -45.223295 
L 177.201615 -47.015103 
L 183.139993 -48.793811 
L 184.263161 -48.8421 
L 191.057017 -48.448545 
L 192.441124 -48.735407 
L 199.924088 -49.748808 
L 199.967387 -49.757492 
L 207.55944 -48.915671 
L 208.623073 -48.823357 
L 208.064608 -49.790647 
" style="stroke: #88d548"/>
    </defs>
    <g clip-path="url(#p331ef34fa8)">
     <use xlink:href="#m26771aa927" x="0" y="210.047792" style="fill: #88d548; stroke: #88d548"/>
    </g>
   </g>
   <g id="PathCollection_11">
    <defs>
     <path id="me18d88f83b" d="M 201.285057 -61.533174 
L 197.530604 -59.661126 
L 198.15881 -63.848602 
L 193.277061 -66.351727 
L 189.041881 -68.681023 
L 186.199404 -68.15082 
L 182.066881 -70.877579 
L 179.970772 -71.420467 
L 179.228972 -71.619526 
L 171.886839 -71.476639 
L 170.949974 -71.901216 
L 165.133316 -73.837148 
L 161.840927 -73.620594 
L 157.386825 -74.477786 
L 153.362541 -74.247636 
L 149.067833 -74.126823 
L 144.824608 -74.977815 
L 141.747978 -75.506417 
L 136.454203 -75.417827 
L 133.054554 -74.50692 
L 129.168112 -73.979753 
L 124.08279 -73.025322 
L 121.975994 -72.378914 
L 115.623909 -72.432064 
L 113.92524 -72.265274 
L 107.234398 -71.95896 
L 106.039905 -71.865121 
L 104.348125 -70.877579 
L 100.202407 -67.918009 
L 96.144225 -66.808171 
L 93.497887 -65.472625 
L 92.357728 -63.848602 
L 89.044142 -59.128783 
L 87.446426 -56.819624 
L 85.47953 -51.244918 
L 84.837035 -49.790647 
L 85.574858 -48.50149 
L 89.06707 -42.76167 
L 89.988786 -42.088683 
L 90.968811 -41.737204 
L 96.882021 -39.970162 
L 99.947532 -40.243557 
L 105.965053 -42.76167 
L 106.35774 -43.198705 
L 106.766146 -43.032016 
L 107.858734 -42.76167 
L 114.241209 -41.921249 
L 115.221509 -41.904161 
L 122.527591 -42.21573 
L 123.122183 -42.277748 
L 130.959153 -42.76167 
L 137.748176 -45.060692 
L 140.882445 -45.891361 
L 145.16279 -46.276159 
L 149.268795 -46.358992 
L 153.329343 -46.189228 
L 158.351881 -48.033403 
L 160.113132 -48.497316 
L 166.2501 -47.655566 
L 168.604461 -47.847856 
L 175.530661 -49.672015 
L 175.640776 -49.718555 
L 175.881462 -49.790647 
L 179.961699 -56.292451 
L 186.698684 -54.957644 
L 189.012838 -54.673372 
L 195.189104 -55.605528 
L 196.351772 -56.01992 
L 202.878054 -54.865226 
L 205.580007 -54.094103 
L 204.006426 -56.819624 
M 103.357958 -62.452435 
L 104.121044 -63.848602 
L 108.596346 -67.437235 
L 112.850644 -67.628629 
L 116.971378 -66.989208 
L 120.578751 -66.956149 
L 125.672838 -65.975792 
L 128.496496 -66.612131 
L 133.627032 -66.256677 
L 137.904888 -68.849989 
L 139.836426 -69.559645 
L 145.388244 -67.753589 
L 150.708972 -64.785799 
L 151.862618 -64.909579 
L 156.910158 -68.102982 
L 161.172972 -66.97763 
L 166.407545 -65.71098 
L 168.240643 -65.161242 
L 169.973951 -63.848602 
L 172.640063 -58.723306 
L 172.804597 -56.819624 
L 172.154418 -55.757105 
L 170.328182 -54.719011 
L 165.701861 -52.875306 
L 161.685387 -53.807206 
L 157.26667 -53.427531 
L 151.448993 -50.135205 
L 151.090292 -50.067379 
L 145.45266 -49.790647 
L 143.160397 -49.744404 
L 143.104077 -49.739341 
L 136.116199 -47.887359 
L 133.384362 -46.962254 
L 128.553117 -46.929048 
L 124.938564 -46.391658 
L 120.675799 -46.515008 
L 116.620244 -46.04186 
L 113.269643 -45.284893 
L 108.717195 -46.411331 
L 103.203713 -48.661641 
L 99.556556 -44.602593 
L 97.618405 -49.790647 
L 101.3063 -51.948056 
L 101.53191 -56.819624 
" style="stroke: #b5de2b"/>
    </defs>
    <g clip-path="url(#p331ef34fa8)">
     <use xlink:href="#me18d88f83b" x="0" y="210.047792" style="fill: #b5de2b; stroke: #b5de2b"/>
    </g>
   </g>
   <g id="PathCollection_12">
    <defs>
     <path id="m384b70f162" d="M 101.53191 -56.819624 
L 101.3063 -51.948056 
L 97.618405 -49.790647 
L 99.556556 -44.602593 
L 103.203713 -48.661641 
L 108.717195 -46.411331 
L 113.269643 -45.284893 
L 116.620244 -46.04186 
L 120.675799 -46.515008 
L 124.938564 -46.391658 
L 128.553117 -46.929048 
L 133.384362 -46.962254 
L 136.116199 -47.887359 
L 143.104077 -49.739341 
L 143.160397 -49.744404 
L 145.45266 -49.790647 
L 151.090292 -50.067379 
L 151.448993 -50.135205 
L 157.26667 -53.427531 
L 161.685387 -53.807206 
L 165.701861 -52.875306 
L 170.328182 -54.719011 
L 172.154418 -55.757105 
L 172.804597 -56.819624 
L 172.640063 -58.723306 
L 169.973951 -63.848602 
L 168.240643 -65.161242 
L 166.407545 -65.71098 
L 161.172972 -66.97763 
L 156.910158 -68.102982 
L 151.862618 -64.909579 
L 150.708972 -64.785799 
L 145.388244 -67.753589 
L 139.836426 -69.559645 
L 137.904888 -68.849989 
L 133.627032 -66.256677 
L 128.496496 -66.612131 
L 125.672838 -65.975792 
L 120.578751 -66.956149 
L 116.971378 -66.989208 
L 112.850644 -67.628629 
L 108.596346 -67.437235 
L 104.121044 -63.848602 
L 103.357958 -62.452435 
M 127.320784 -56.819624 
L 130.508244 -57.600622 
L 131.377855 -57.544836 
L 132.329449 -56.819624 
L 131.810063 -55.345807 
L 130.079881 -55.296679 
M 116.477852 -53.786066 
L 110.668244 -49.790647 
L 110.229522 -56.819624 
L 112.349491 -60.936597 
L 116.28143 -59.512971 
L 120.564512 -56.819624 
" style="stroke: #dee318"/>
    </defs>
    <g clip-path="url(#p331ef34fa8)">
     <use xlink:href="#m384b70f162" x="0" y="210.047792" style="fill: #dee318; stroke: #dee318"/>
    </g>
   </g>
   <g id="PathCollection_13">
    <defs>
     <path id="m4e7c21d7ad" d="M 130.079881 -55.296679 
L 131.810063 -55.345807 
L 132.329449 -56.819624 
L 131.377855 -57.544836 
L 130.508244 -57.600622 
L 127.320784 -56.819624 
M 120.564512 -56.819624 
L 116.28143 -59.512971 
L 112.349491 -60.936597 
L 110.229522 -56.819624 
L 110.668244 -49.790647 
L 116.477852 -53.786066 
" style="stroke: #fde725"/>
    </defs>
    <g clip-path="url(#p331ef34fa8)">
     <use xlink:href="#m4e7c21d7ad" x="0" y="210.047792" style="fill: #fde725; stroke: #fde725"/>
    </g>
   </g>
   <g id="line2d_1">
    <path d="M 53.853699 174.315099 
L 135.017335 33.735557 
" clip-path="url(#p331ef34fa8)" style="fill: none; stroke: #000000; stroke-linecap: square"/>
   </g>
   <g id="line2d_2">
    <path d="M 135.017335 33.735557 
L 216.180972 174.315099 
" clip-path="url(#p331ef34fa8)" style="fill: none; stroke: #000000; stroke-linecap: square"/>
   </g>
   <g id="line2d_3">
    <path d="M 53.853699 174.315099 
L 216.180972 174.315099 
" clip-path="url(#p331ef34fa8)" style="fill: none; stroke: #000000; stroke-linecap: square"/>
   </g>
   <g id="line2d_4">
    <path d="M 216.180972 174.315099 
L 218.528549 178.381221 
" clip-path="url(#p331ef34fa8)" style="fill: none; stroke: #000000; stroke-linecap: square"/>
   </g>
   <g id="line2d_5">
    <path d="M 183.715517 174.315099 
L 186.063094 178.381221 
" clip-path="url(#p331ef34fa8)" style="fill: none; stroke: #000000; stroke-linecap: square"/>
   </g>
   <g id="line2d_6">
    <path d="M 151.250063 174.315099 
L 153.59764 178.381221 
" clip-path="url(#p331ef34fa8)" style="fill: none; stroke: #000000; stroke-linecap: square"/>
   </g>
   <g id="line2d_7">
    <path d="M 118.784608 174.315099 
L 121.132185 178.381221 
" clip-path="url(#p331ef34fa8)" style="fill: none; stroke: #000000; stroke-linecap: square"/>
   </g>
   <g id="line2d_8">
    <path d="M 86.319153 174.315099 
L 88.66673 178.381221 
" clip-path="url(#p331ef34fa8)" style="fill: none; stroke: #000000; stroke-linecap: square"/>
   </g>
   <g id="line2d_9">
    <path d="M 53.853699 174.315099 
L 56.201276 178.381221 
" clip-path="url(#p331ef34fa8)" style="fill: none; stroke: #000000; stroke-linecap: square"/>
   </g>
   <g id="line2d_10">
    <path d="M 53.853699 174.315099 
L 49.158545 174.315099 
" clip-path="url(#p331ef34fa8)" style="fill: none; stroke: #000000; stroke-linecap: square"/>
   </g>
   <g id="line2d_11">
    <path d="M 70.086426 146.19919 
L 65.391272 146.19919 
" clip-path="url(#p331ef34fa8)" style="fill: none; stroke: #000000; stroke-linecap: square"/>
   </g>
   <g id="line2d_12">
    <path d="M 86.319153 118.083282 
L 81.623999 118.083282 
" clip-path="url(#p331ef34fa8)" style="fill: none; stroke: #000000; stroke-linecap: square"/>
   </g>
   <g id="line2d_13">
    <path d="M 102.551881 89.967374 
L 97.856727 89.967374 
" clip-path="url(#p331ef34fa8)" style="fill: none; stroke: #000000; stroke-linecap: square"/>
   </g>
   <g id="line2d_14">
    <path d="M 118.784608 61.851465 
L 114.089454 61.851465 
" clip-path="url(#p331ef34fa8)" style="fill: none; stroke: #000000; stroke-linecap: square"/>
   </g>
   <g id="line2d_15">
    <path d="M 135.017335 33.735557 
L 130.322181 33.735557 
" clip-path="url(#p331ef34fa8)" style="fill: none; stroke: #000000; stroke-linecap: square"/>
   </g>
   <g id="line2d_16">
    <path d="M 135.017335 33.735557 
L 137.364912 29.669434 
" clip-path="url(#p331ef34fa8)" style="fill: none; stroke: #000000; stroke-linecap: square"/>
   </g>
   <g id="line2d_17">
    <path d="M 151.250063 61.851465 
L 153.59764 57.785343 
" clip-path="url(#p331ef34fa8)" style="fill: none; stroke: #000000; stroke-linecap: square"/>
   </g>
   <g id="line2d_18">
    <path d="M 167.48279 89.967374 
L 169.830367 85.901251 
" clip-path="url(#p331ef34fa8)" style="fill: none; stroke: #000000; stroke-linecap: square"/>
   </g>
   <g id="line2d_19">
    <path d="M 183.715517 118.083282 
L 186.063094 114.017159 
" clip-path="url(#p331ef34fa8)" style="fill: none; stroke: #000000; stroke-linecap: square"/>
   </g>
   <g id="line2d_20">
    <path d="M 199.948244 146.19919 
L 202.295821 142.133068 
" clip-path="url(#p331ef34fa8)" style="fill: none; stroke: #000000; stroke-linecap: square"/>
   </g>
   <g id="line2d_21">
    <path d="M 216.180972 174.315099 
L 218.528549 170.248976 
" clip-path="url(#p331ef34fa8)" style="fill: none; stroke: #000000; stroke-linecap: square"/>
   </g>
   <g id="matplotlib.axis_1">
    <g id="xtick_1"/>
    <g id="xtick_2"/>
    <g id="xtick_3"/>
    <g id="xtick_4"/>
    <g id="xtick_5"/>
   </g>
   <g id="matplotlib.axis_2">
    <g id="ytick_1"/>
    <g id="ytick_2"/>
    <g id="ytick_3"/>
    <g id="ytick_4"/>
    <g id="ytick_5"/>
   </g>
   <g id="text_1">
    <!-- 0 -->
    <g transform="translate(217.23329 187.301281) scale(0.12 -0.12)">
     <defs>
      <path id="DejaVuSans-30" d="M 2034 4250 
Q 1547 4250 1301 3770 
Q 1056 3291 1056 2328 
Q 1056 1369 1301 889 
Q 1547 409 2034 409 
Q 2525 409 2770 889 
Q 3016 1369 3016 2328 
Q 3016 3291 2770 3770 
Q 2525 4250 2034 4250 
z
M 2034 4750 
Q 2819 4750 3233 4129 
Q 3647 3509 3647 2328 
Q 3647 1150 3233 529 
Q 2819 -91 2034 -91 
Q 1250 -91 836 529 
Q 422 1150 422 2328 
Q 422 3509 836 4129 
Q 1250 4750 2034 4750 
z
" transform="scale(0.015625)"/>
     </defs>
     <use xlink:href="#DejaVuSans-30"/>
    </g>
   </g>
   <g id="text_2">
    <!-- 20 -->
    <g transform="translate(180.950335 187.301281) scale(0.12 -0.12)">
     <defs>
      <path id="DejaVuSans-32" d="M 1228 531 
L 3431 531 
L 3431 0 
L 469 0 
L 469 531 
Q 828 903 1448 1529 
Q 2069 2156 2228 2338 
Q 2531 2678 2651 2914 
Q 2772 3150 2772 3378 
Q 2772 3750 2511 3984 
Q 2250 4219 1831 4219 
Q 1534 4219 1204 4116 
Q 875 4013 500 3803 
L 500 4441 
Q 881 4594 1212 4672 
Q 1544 4750 1819 4750 
Q 2544 4750 2975 4387 
Q 3406 4025 3406 3419 
Q 3406 3131 3298 2873 
Q 3191 2616 2906 2266 
Q 2828 2175 2409 1742 
Q 1991 1309 1228 531 
z
" transform="scale(0.015625)"/>
     </defs>
     <use xlink:href="#DejaVuSans-32"/>
     <use xlink:href="#DejaVuSans-30" x="63.623047"/>
    </g>
   </g>
   <g id="text_3">
    <!-- 40 -->
    <g transform="translate(148.484881 187.301281) scale(0.12 -0.12)">
     <defs>
      <path id="DejaVuSans-34" d="M 2419 4116 
L 825 1625 
L 2419 1625 
L 2419 4116 
z
M 2253 4666 
L 3047 4666 
L 3047 1625 
L 3713 1625 
L 3713 1100 
L 3047 1100 
L 3047 0 
L 2419 0 
L 2419 1100 
L 313 1100 
L 313 1709 
L 2253 4666 
z
" transform="scale(0.015625)"/>
     </defs>
     <use xlink:href="#DejaVuSans-34"/>
     <use xlink:href="#DejaVuSans-30" x="63.623047"/>
    </g>
   </g>
   <g id="text_4">
    <!-- 60 -->
    <g transform="translate(116.019426 187.301281) scale(0.12 -0.12)">
     <defs>
      <path id="DejaVuSans-36" d="M 2113 2584 
Q 1688 2584 1439 2293 
Q 1191 2003 1191 1497 
Q 1191 994 1439 701 
Q 1688 409 2113 409 
Q 2538 409 2786 701 
Q 3034 994 3034 1497 
Q 3034 2003 2786 2293 
Q 2538 2584 2113 2584 
z
M 3366 4563 
L 3366 3988 
Q 3128 4100 2886 4159 
Q 2644 4219 2406 4219 
Q 1781 4219 1451 3797 
Q 1122 3375 1075 2522 
Q 1259 2794 1537 2939 
Q 1816 3084 2150 3084 
Q 2853 3084 3261 2657 
Q 3669 2231 3669 1497 
Q 3669 778 3244 343 
Q 2819 -91 2113 -91 
Q 1303 -91 875 529 
Q 447 1150 447 2328 
Q 447 3434 972 4092 
Q 1497 4750 2381 4750 
Q 2619 4750 2861 4703 
Q 3103 4656 3366 4563 
z
" transform="scale(0.015625)"/>
     </defs>
     <use xlink:href="#DejaVuSans-36"/>
     <use xlink:href="#DejaVuSans-30" x="63.623047"/>
    </g>
   </g>
   <g id="text_5">
    <!-- 80 -->
    <g transform="translate(83.553972 187.301281) scale(0.12 -0.12)">
     <defs>
      <path id="DejaVuSans-38" d="M 2034 2216 
Q 1584 2216 1326 1975 
Q 1069 1734 1069 1313 
Q 1069 891 1326 650 
Q 1584 409 2034 409 
Q 2484 409 2743 651 
Q 3003 894 3003 1313 
Q 3003 1734 2745 1975 
Q 2488 2216 2034 2216 
z
M 1403 2484 
Q 997 2584 770 2862 
Q 544 3141 544 3541 
Q 544 4100 942 4425 
Q 1341 4750 2034 4750 
Q 2731 4750 3128 4425 
Q 3525 4100 3525 3541 
Q 3525 3141 3298 2862 
Q 3072 2584 2669 2484 
Q 3125 2378 3379 2068 
Q 3634 1759 3634 1313 
Q 3634 634 3220 271 
Q 2806 -91 2034 -91 
Q 1263 -91 848 271 
Q 434 634 434 1313 
Q 434 1759 690 2068 
Q 947 2378 1403 2484 
z
M 1172 3481 
Q 1172 3119 1398 2916 
Q 1625 2713 2034 2713 
Q 2441 2713 2670 2916 
Q 2900 3119 2900 3481 
Q 2900 3844 2670 4047 
Q 2441 4250 2034 4250 
Q 1625 4250 1398 4047 
Q 1172 3844 1172 3481 
z
" transform="scale(0.015625)"/>
     </defs>
     <use xlink:href="#DejaVuSans-38"/>
     <use xlink:href="#DejaVuSans-30" x="63.623047"/>
    </g>
   </g>
   <g id="text_6">
    <!-- 100 -->
    <g transform="translate(47.271017 187.301281) scale(0.12 -0.12)">
     <defs>
      <path id="DejaVuSans-31" d="M 794 531 
L 1825 531 
L 1825 4091 
L 703 3866 
L 703 4441 
L 1819 4666 
L 2450 4666 
L 2450 531 
L 3481 531 
L 3481 0 
L 794 0 
L 794 531 
z
" transform="scale(0.015625)"/>
     </defs>
     <use xlink:href="#DejaVuSans-31"/>
     <use xlink:href="#DejaVuSans-30" x="63.623047"/>
     <use xlink:href="#DejaVuSans-30" x="127.246094"/>
    </g>
   </g>
   <g id="text_7">
    <!-- 0 -->
    <g transform="translate(41.348881 176.750008) scale(0.12 -0.12)">
     <use xlink:href="#DejaVuSans-30"/>
    </g>
   </g>
   <g id="text_8">
    <!-- 20 -->
    <g transform="translate(49.946608 148.634099) scale(0.12 -0.12)">
     <use xlink:href="#DejaVuSans-32"/>
     <use xlink:href="#DejaVuSans-30" x="63.623047"/>
    </g>
   </g>
   <g id="text_9">
    <!-- 40 -->
    <g transform="translate(66.179335 120.518191) scale(0.12 -0.12)">
     <use xlink:href="#DejaVuSans-34"/>
     <use xlink:href="#DejaVuSans-30" x="63.623047"/>
    </g>
   </g>
   <g id="text_10">
    <!-- 60 -->
    <g transform="translate(82.412063 92.402283) scale(0.12 -0.12)">
     <use xlink:href="#DejaVuSans-36"/>
     <use xlink:href="#DejaVuSans-30" x="63.623047"/>
    </g>
   </g>
   <g id="text_11">
    <!-- 80 -->
    <g transform="translate(98.64479 64.286374) scale(0.12 -0.12)">
     <use xlink:href="#DejaVuSans-38"/>
     <use xlink:href="#DejaVuSans-30" x="63.623047"/>
    </g>
   </g>
   <g id="text_12">
    <!-- 100 -->
    <g transform="translate(107.242517 36.170466) scale(0.12 -0.12)">
     <use xlink:href="#DejaVuSans-31"/>
     <use xlink:href="#DejaVuSans-30" x="63.623047"/>
     <use xlink:href="#DejaVuSans-30" x="127.246094"/>
    </g>
   </g>
   <g id="text_13">
    <!-- 0 -->
    <g transform="translate(137.452244 30.489011) scale(0.12 -0.12)">
     <use xlink:href="#DejaVuSans-30"/>
    </g>
   </g>
   <g id="text_14">
    <!-- 20 -->
    <g transform="translate(153.684972 58.60492) scale(0.12 -0.12)">
     <use xlink:href="#DejaVuSans-32"/>
     <use xlink:href="#DejaVuSans-30" x="63.623047"/>
    </g>
   </g>
   <g id="text_15">
    <!-- 40 -->
    <g transform="translate(169.917699 86.720828) scale(0.12 -0.12)">
     <use xlink:href="#DejaVuSans-34"/>
     <use xlink:href="#DejaVuSans-30" x="63.623047"/>
    </g>
   </g>
   <g id="text_16">
    <!-- 60 -->
    <g transform="translate(186.150426 114.836737) scale(0.12 -0.12)">
     <use xlink:href="#DejaVuSans-36"/>
     <use xlink:href="#DejaVuSans-30" x="63.623047"/>
    </g>
   </g>
   <g id="text_17">
    <!-- 80 -->
    <g transform="translate(202.383153 142.952645) scale(0.12 -0.12)">
     <use xlink:href="#DejaVuSans-38"/>
     <use xlink:href="#DejaVuSans-30" x="63.623047"/>
    </g>
   </g>
   <g id="text_18">
    <!-- 100 -->
    <g transform="translate(218.615881 171.068553) scale(0.12 -0.12)">
     <use xlink:href="#DejaVuSans-31"/>
     <use xlink:href="#DejaVuSans-30" x="63.623047"/>
     <use xlink:href="#DejaVuSans-30" x="127.246094"/>
    </g>
   </g>
   <g id="text_19">
    <!-- AgAu content (at.%) -->
    <g transform="translate(74.09296 200.352167) scale(0.12 -0.12)">
     <defs>
      <path id="DejaVuSans-41" d="M 2188 4044 
L 1331 1722 
L 3047 1722 
L 2188 4044 
z
M 1831 4666 
L 2547 4666 
L 4325 0 
L 3669 0 
L 3244 1197 
L 1141 1197 
L 716 0 
L 50 0 
L 1831 4666 
z
" transform="scale(0.015625)"/>
      <path id="DejaVuSans-67" d="M 2906 1791 
Q 2906 2416 2648 2759 
Q 2391 3103 1925 3103 
Q 1463 3103 1205 2759 
Q 947 2416 947 1791 
Q 947 1169 1205 825 
Q 1463 481 1925 481 
Q 2391 481 2648 825 
Q 2906 1169 2906 1791 
z
M 3481 434 
Q 3481 -459 3084 -895 
Q 2688 -1331 1869 -1331 
Q 1566 -1331 1297 -1286 
Q 1028 -1241 775 -1147 
L 775 -588 
Q 1028 -725 1275 -790 
Q 1522 -856 1778 -856 
Q 2344 -856 2625 -561 
Q 2906 -266 2906 331 
L 2906 616 
Q 2728 306 2450 153 
Q 2172 0 1784 0 
Q 1141 0 747 490 
Q 353 981 353 1791 
Q 353 2603 747 3093 
Q 1141 3584 1784 3584 
Q 2172 3584 2450 3431 
Q 2728 3278 2906 2969 
L 2906 3500 
L 3481 3500 
L 3481 434 
z
" transform="scale(0.015625)"/>
      <path id="DejaVuSans-75" d="M 544 1381 
L 544 3500 
L 1119 3500 
L 1119 1403 
Q 1119 906 1312 657 
Q 1506 409 1894 409 
Q 2359 409 2629 706 
Q 2900 1003 2900 1516 
L 2900 3500 
L 3475 3500 
L 3475 0 
L 2900 0 
L 2900 538 
Q 2691 219 2414 64 
Q 2138 -91 1772 -91 
Q 1169 -91 856 284 
Q 544 659 544 1381 
z
M 1991 3584 
L 1991 3584 
z
" transform="scale(0.015625)"/>
      <path id="DejaVuSans-20" transform="scale(0.015625)"/>
      <path id="DejaVuSans-63" d="M 3122 3366 
L 3122 2828 
Q 2878 2963 2633 3030 
Q 2388 3097 2138 3097 
Q 1578 3097 1268 2742 
Q 959 2388 959 1747 
Q 959 1106 1268 751 
Q 1578 397 2138 397 
Q 2388 397 2633 464 
Q 2878 531 3122 666 
L 3122 134 
Q 2881 22 2623 -34 
Q 2366 -91 2075 -91 
Q 1284 -91 818 406 
Q 353 903 353 1747 
Q 353 2603 823 3093 
Q 1294 3584 2113 3584 
Q 2378 3584 2631 3529 
Q 2884 3475 3122 3366 
z
" transform="scale(0.015625)"/>
      <path id="DejaVuSans-6f" d="M 1959 3097 
Q 1497 3097 1228 2736 
Q 959 2375 959 1747 
Q 959 1119 1226 758 
Q 1494 397 1959 397 
Q 2419 397 2687 759 
Q 2956 1122 2956 1747 
Q 2956 2369 2687 2733 
Q 2419 3097 1959 3097 
z
M 1959 3584 
Q 2709 3584 3137 3096 
Q 3566 2609 3566 1747 
Q 3566 888 3137 398 
Q 2709 -91 1959 -91 
Q 1206 -91 779 398 
Q 353 888 353 1747 
Q 353 2609 779 3096 
Q 1206 3584 1959 3584 
z
" transform="scale(0.015625)"/>
      <path id="DejaVuSans-6e" d="M 3513 2113 
L 3513 0 
L 2938 0 
L 2938 2094 
Q 2938 2591 2744 2837 
Q 2550 3084 2163 3084 
Q 1697 3084 1428 2787 
Q 1159 2491 1159 1978 
L 1159 0 
L 581 0 
L 581 3500 
L 1159 3500 
L 1159 2956 
Q 1366 3272 1645 3428 
Q 1925 3584 2291 3584 
Q 2894 3584 3203 3211 
Q 3513 2838 3513 2113 
z
" transform="scale(0.015625)"/>
      <path id="DejaVuSans-74" d="M 1172 4494 
L 1172 3500 
L 2356 3500 
L 2356 3053 
L 1172 3053 
L 1172 1153 
Q 1172 725 1289 603 
Q 1406 481 1766 481 
L 2356 481 
L 2356 0 
L 1766 0 
Q 1100 0 847 248 
Q 594 497 594 1153 
L 594 3053 
L 172 3053 
L 172 3500 
L 594 3500 
L 594 4494 
L 1172 4494 
z
" transform="scale(0.015625)"/>
      <path id="DejaVuSans-65" d="M 3597 1894 
L 3597 1613 
L 953 1613 
Q 991 1019 1311 708 
Q 1631 397 2203 397 
Q 2534 397 2845 478 
Q 3156 559 3463 722 
L 3463 178 
Q 3153 47 2828 -22 
Q 2503 -91 2169 -91 
Q 1331 -91 842 396 
Q 353 884 353 1716 
Q 353 2575 817 3079 
Q 1281 3584 2069 3584 
Q 2775 3584 3186 3129 
Q 3597 2675 3597 1894 
z
M 3022 2063 
Q 3016 2534 2758 2815 
Q 2500 3097 2075 3097 
Q 1594 3097 1305 2825 
Q 1016 2553 972 2059 
L 3022 2063 
z
" transform="scale(0.015625)"/>
      <path id="DejaVuSans-28" d="M 1984 4856 
Q 1566 4138 1362 3434 
Q 1159 2731 1159 2009 
Q 1159 1288 1364 580 
Q 1569 -128 1984 -844 
L 1484 -844 
Q 1016 -109 783 600 
Q 550 1309 550 2009 
Q 550 2706 781 3412 
Q 1013 4119 1484 4856 
L 1984 4856 
z
" transform="scale(0.015625)"/>
      <path id="DejaVuSans-61" d="M 2194 1759 
Q 1497 1759 1228 1600 
Q 959 1441 959 1056 
Q 959 750 1161 570 
Q 1363 391 1709 391 
Q 2188 391 2477 730 
Q 2766 1069 2766 1631 
L 2766 1759 
L 2194 1759 
z
M 3341 1997 
L 3341 0 
L 2766 0 
L 2766 531 
Q 2569 213 2275 61 
Q 1981 -91 1556 -91 
Q 1019 -91 701 211 
Q 384 513 384 1019 
Q 384 1609 779 1909 
Q 1175 2209 1959 2209 
L 2766 2209 
L 2766 2266 
Q 2766 2663 2505 2880 
Q 2244 3097 1772 3097 
Q 1472 3097 1187 3025 
Q 903 2953 641 2809 
L 641 3341 
Q 956 3463 1253 3523 
Q 1550 3584 1831 3584 
Q 2591 3584 2966 3190 
Q 3341 2797 3341 1997 
z
" transform="scale(0.015625)"/>
      <path id="DejaVuSans-2e" d="M 684 794 
L 1344 794 
L 1344 0 
L 684 0 
L 684 794 
z
" transform="scale(0.015625)"/>
      <path id="DejaVuSans-25" d="M 4653 2053 
Q 4381 2053 4226 1822 
Q 4072 1591 4072 1178 
Q 4072 772 4226 539 
Q 4381 306 4653 306 
Q 4919 306 5073 539 
Q 5228 772 5228 1178 
Q 5228 1588 5073 1820 
Q 4919 2053 4653 2053 
z
M 4653 2450 
Q 5147 2450 5437 2106 
Q 5728 1763 5728 1178 
Q 5728 594 5436 251 
Q 5144 -91 4653 -91 
Q 4153 -91 3862 251 
Q 3572 594 3572 1178 
Q 3572 1766 3864 2108 
Q 4156 2450 4653 2450 
z
M 1428 4353 
Q 1159 4353 1004 4120 
Q 850 3888 850 3481 
Q 850 3069 1003 2837 
Q 1156 2606 1428 2606 
Q 1700 2606 1854 2837 
Q 2009 3069 2009 3481 
Q 2009 3884 1853 4118 
Q 1697 4353 1428 4353 
z
M 4250 4750 
L 4750 4750 
L 1831 -91 
L 1331 -91 
L 4250 4750 
z
M 1428 4750 
Q 1922 4750 2215 4408 
Q 2509 4066 2509 3481 
Q 2509 2891 2217 2550 
Q 1925 2209 1428 2209 
Q 931 2209 642 2551 
Q 353 2894 353 3481 
Q 353 4063 643 4406 
Q 934 4750 1428 4750 
z
" transform="scale(0.015625)"/>
      <path id="DejaVuSans-29" d="M 513 4856 
L 1013 4856 
Q 1481 4119 1714 3412 
Q 1947 2706 1947 2009 
Q 1947 1309 1714 600 
Q 1481 -109 1013 -844 
L 513 -844 
Q 928 -128 1133 580 
Q 1338 1288 1338 2009 
Q 1338 2731 1133 3434 
Q 928 4138 513 4856 
z
" transform="scale(0.015625)"/>
     </defs>
     <use xlink:href="#DejaVuSans-41"/>
     <use xlink:href="#DejaVuSans-67" x="68.408203"/>
     <use xlink:href="#DejaVuSans-41" x="131.884766"/>
     <use xlink:href="#DejaVuSans-75" x="200.292969"/>
     <use xlink:href="#DejaVuSans-20" x="263.671875"/>
     <use xlink:href="#DejaVuSans-63" x="295.458984"/>
     <use xlink:href="#DejaVuSans-6f" x="350.439453"/>
     <use xlink:href="#DejaVuSans-6e" x="411.621094"/>
     <use xlink:href="#DejaVuSans-74" x="475"/>
     <use xlink:href="#DejaVuSans-65" x="514.208984"/>
     <use xlink:href="#DejaVuSans-6e" x="575.732422"/>
     <use xlink:href="#DejaVuSans-74" x="639.111328"/>
     <use xlink:href="#DejaVuSans-20" x="678.320312"/>
     <use xlink:href="#DejaVuSans-28" x="710.107422"/>
     <use xlink:href="#DejaVuSans-61" x="749.121094"/>
     <use xlink:href="#DejaVuSans-74" x="810.400391"/>
     <use xlink:href="#DejaVuSans-2e" x="849.609375"/>
     <use xlink:href="#DejaVuSans-25" x="881.396484"/>
     <use xlink:href="#DejaVuSans-29" x="976.416016"/>
    </g>
   </g>
   <g id="text_20">
    <!-- Cu content (at.%) -->
    <g transform="translate(170.532493 48.824386) rotate(-300) scale(0.12 -0.12)">
     <defs>
      <path id="DejaVuSans-43" d="M 4122 4306 
L 4122 3641 
Q 3803 3938 3442 4084 
Q 3081 4231 2675 4231 
Q 1875 4231 1450 3742 
Q 1025 3253 1025 2328 
Q 1025 1406 1450 917 
Q 1875 428 2675 428 
Q 3081 428 3442 575 
Q 3803 722 4122 1019 
L 4122 359 
Q 3791 134 3420 21 
Q 3050 -91 2638 -91 
Q 1578 -91 968 557 
Q 359 1206 359 2328 
Q 359 3453 968 4101 
Q 1578 4750 2638 4750 
Q 3056 4750 3426 4639 
Q 3797 4528 4122 4306 
z
" transform="scale(0.015625)"/>
     </defs>
     <use xlink:href="#DejaVuSans-43"/>
     <use xlink:href="#DejaVuSans-75" x="69.824219"/>
     <use xlink:href="#DejaVuSans-20" x="133.203125"/>
     <use xlink:href="#DejaVuSans-63" x="164.990234"/>
     <use xlink:href="#DejaVuSans-6f" x="219.970703"/>
     <use xlink:href="#DejaVuSans-6e" x="281.152344"/>
     <use xlink:href="#DejaVuSans-74" x="344.53125"/>
     <use xlink:href="#DejaVuSans-65" x="383.740234"/>
     <use xlink:href="#DejaVuSans-6e" x="445.263672"/>
     <use xlink:href="#DejaVuSans-74" x="508.642578"/>
     <use xlink:href="#DejaVuSans-20" x="547.851562"/>
     <use xlink:href="#DejaVuSans-28" x="579.638672"/>
     <use xlink:href="#DejaVuSans-61" x="618.652344"/>
     <use xlink:href="#DejaVuSans-74" x="679.931641"/>
     <use xlink:href="#DejaVuSans-2e" x="719.140625"/>
     <use xlink:href="#DejaVuSans-25" x="750.927734"/>
     <use xlink:href="#DejaVuSans-29" x="845.947266"/>
    </g>
   </g>
   <g id="text_21">
    <!-- Pd content (at.%) -->
    <g transform="translate(46.688584 140.300214) rotate(-60) scale(0.12 -0.12)">
     <defs>
      <path id="DejaVuSans-50" d="M 1259 4147 
L 1259 2394 
L 2053 2394 
Q 2494 2394 2734 2622 
Q 2975 2850 2975 3272 
Q 2975 3691 2734 3919 
Q 2494 4147 2053 4147 
L 1259 4147 
z
M 628 4666 
L 2053 4666 
Q 2838 4666 3239 4311 
Q 3641 3956 3641 3272 
Q 3641 2581 3239 2228 
Q 2838 1875 2053 1875 
L 1259 1875 
L 1259 0 
L 628 0 
L 628 4666 
z
" transform="scale(0.015625)"/>
      <path id="DejaVuSans-64" d="M 2906 2969 
L 2906 4863 
L 3481 4863 
L 3481 0 
L 2906 0 
L 2906 525 
Q 2725 213 2448 61 
Q 2172 -91 1784 -91 
Q 1150 -91 751 415 
Q 353 922 353 1747 
Q 353 2572 751 3078 
Q 1150 3584 1784 3584 
Q 2172 3584 2448 3432 
Q 2725 3281 2906 2969 
z
M 947 1747 
Q 947 1113 1208 752 
Q 1469 391 1925 391 
Q 2381 391 2643 752 
Q 2906 1113 2906 1747 
Q 2906 2381 2643 2742 
Q 2381 3103 1925 3103 
Q 1469 3103 1208 2742 
Q 947 2381 947 1747 
z
" transform="scale(0.015625)"/>
     </defs>
     <use xlink:href="#DejaVuSans-50"/>
     <use xlink:href="#DejaVuSans-64" x="60.302734"/>
     <use xlink:href="#DejaVuSans-20" x="123.779297"/>
     <use xlink:href="#DejaVuSans-63" x="155.566406"/>
     <use xlink:href="#DejaVuSans-6f" x="210.546875"/>
     <use xlink:href="#DejaVuSans-6e" x="271.728516"/>
     <use xlink:href="#DejaVuSans-74" x="335.107422"/>
     <use xlink:href="#DejaVuSans-65" x="374.316406"/>
     <use xlink:href="#DejaVuSans-6e" x="435.839844"/>
     <use xlink:href="#DejaVuSans-74" x="499.21875"/>
     <use xlink:href="#DejaVuSans-20" x="538.427734"/>
     <use xlink:href="#DejaVuSans-28" x="570.214844"/>
     <use xlink:href="#DejaVuSans-61" x="609.228516"/>
     <use xlink:href="#DejaVuSans-74" x="670.507812"/>
     <use xlink:href="#DejaVuSans-2e" x="709.716797"/>
     <use xlink:href="#DejaVuSans-25" x="741.503906"/>
     <use xlink:href="#DejaVuSans-29" x="836.523438"/>
    </g>
   </g>
   <g id="text_22">
    <!-- AgAu -->
    <g transform="translate(7.2 194.692548) scale(0.14 -0.14)">
     <use xlink:href="#DejaVuSans-41"/>
     <use xlink:href="#DejaVuSans-67" x="68.408203"/>
     <use xlink:href="#DejaVuSans-41" x="131.884766"/>
     <use xlink:href="#DejaVuSans-75" x="200.292969"/>
    </g>
   </g>
   <g id="text_23">
    <!-- Cu -->
    <g transform="translate(225.920608 194.692548) scale(0.14 -0.14)">
     <use xlink:href="#DejaVuSans-43"/>
     <use xlink:href="#DejaVuSans-75" x="69.824219"/>
    </g>
   </g>
   <g id="text_24">
    <!-- Pd -->
    <g transform="translate(126.352648 17.837812) scale(0.14 -0.14)">
     <use xlink:href="#DejaVuSans-50"/>
     <use xlink:href="#DejaVuSans-64" x="60.302734"/>
    </g>
   </g>
  </g>
  <g id="axes_2">
   <g id="patch_3">
    <path d="M 229.697335 120.657328 
L 235.241335 120.657328 
L 235.241335 9.777328 
L 229.697335 9.777328 
z
" style="fill: #ffffff"/>
   </g>
   <g id="QuadMesh_1">
    <path d="M 229.697335 120.657328 
L 235.241335 120.657328 
L 235.241335 112.128097 
L 229.697335 112.128097 
L 229.697335 120.657328 
" clip-path="url(#p1eb3368c22)" style="fill: #3d4c8a; stroke: #3d4c8a"/>
    <path d="M 229.697335 112.128097 
L 235.241335 112.128097 
L 235.241335 103.598866 
L 229.697335 103.598866 
L 229.697335 112.128097 
" clip-path="url(#p1eb3368c22)" style="fill: #355f8d; stroke: #355f8d"/>
    <path d="M 229.697335 103.598866 
L 235.241335 103.598866 
L 235.241335 95.069635 
L 229.697335 95.069635 
L 229.697335 103.598866 
" clip-path="url(#p1eb3368c22)" style="fill: #2d6f8e; stroke: #2d6f8e"/>
    <path d="M 229.697335 95.069635 
L 235.241335 95.069635 
L 235.241335 86.540405 
L 229.697335 86.540405 
L 229.697335 95.069635 
" clip-path="url(#p1eb3368c22)" style="fill: #277f8e; stroke: #277f8e"/>
    <path d="M 229.697335 86.540405 
L 235.241335 86.540405 
L 235.241335 78.011174 
L 229.697335 78.011174 
L 229.697335 86.540405 
" clip-path="url(#p1eb3368c22)" style="fill: #218e8d; stroke: #218e8d"/>
    <path d="M 229.697335 78.011174 
L 235.241335 78.011174 
L 235.241335 69.481943 
L 229.697335 69.481943 
L 229.697335 78.011174 
" clip-path="url(#p1eb3368c22)" style="fill: #1f9e89; stroke: #1f9e89"/>
    <path d="M 229.697335 69.481943 
L 235.241335 69.481943 
L 235.241335 60.952712 
L 229.697335 60.952712 
L 229.697335 69.481943 
" clip-path="url(#p1eb3368c22)" style="fill: #27ad81; stroke: #27ad81"/>
    <path d="M 229.697335 60.952712 
L 235.241335 60.952712 
L 235.241335 52.423482 
L 229.697335 52.423482 
L 229.697335 60.952712 
" clip-path="url(#p1eb3368c22)" style="fill: #3fbd73; stroke: #3fbd73"/>
    <path d="M 229.697335 52.423482 
L 235.241335 52.423482 
L 235.241335 43.894251 
L 229.697335 43.894251 
L 229.697335 52.423482 
" clip-path="url(#p1eb3368c22)" style="fill: #5fc961; stroke: #5fc961"/>
    <path d="M 229.697335 43.894251 
L 235.241335 43.894251 
L 235.241335 35.36502 
L 229.697335 35.36502 
L 229.697335 43.894251 
" clip-path="url(#p1eb3368c22)" style="fill: #88d548; stroke: #88d548"/>
    <path d="M 229.697335 35.36502 
L 235.241335 35.36502 
L 235.241335 26.835789 
L 229.697335 26.835789 
L 229.697335 35.36502 
" clip-path="url(#p1eb3368c22)" style="fill: #b5de2b; stroke: #b5de2b"/>
    <path d="M 229.697335 26.835789 
L 235.241335 26.835789 
L 235.241335 18.306559 
L 229.697335 18.306559 
L 229.697335 26.835789 
" clip-path="url(#p1eb3368c22)" style="fill: #dee318; stroke: #dee318"/>
    <path d="M 229.697335 18.306559 
L 235.241335 18.306559 
L 235.241335 9.777328 
L 229.697335 9.777328 
L 229.697335 18.306559 
" clip-path="url(#p1eb3368c22)" style="fill: #fde725; stroke: #fde725"/>
   </g>
   <g id="matplotlib.axis_3"/>
   <g id="matplotlib.axis_4">
    <g id="ytick_6">
     <g id="line2d_22">
      <defs>
       <path id="m93facd0906" d="M 0 0 
L 3.5 0 
" style="stroke: #000000; stroke-width: 0.8"/>
      </defs>
      <g>
       <use xlink:href="#m93facd0906" x="235.241335" y="120.657328" style="stroke: #000000; stroke-width: 0.8"/>
      </g>
     </g>
     <g id="text_25">
      <!-- 0.00 -->
      <g transform="translate(242.241335 124.456547) scale(0.1 -0.1)">
       <use xlink:href="#DejaVuSans-30"/>
       <use xlink:href="#DejaVuSans-2e" x="63.623047"/>
       <use xlink:href="#DejaVuSans-30" x="95.410156"/>
       <use xlink:href="#DejaVuSans-30" x="159.033203"/>
      </g>
     </g>
    </g>
    <g id="ytick_7">
     <g id="line2d_23">
      <g>
       <use xlink:href="#m93facd0906" x="235.241335" y="103.598866" style="stroke: #000000; stroke-width: 0.8"/>
      </g>
     </g>
     <g id="text_26">
      <!-- 0.03 -->
      <g transform="translate(242.241335 107.398085) scale(0.1 -0.1)">
       <defs>
        <path id="DejaVuSans-33" d="M 2597 2516 
Q 3050 2419 3304 2112 
Q 3559 1806 3559 1356 
Q 3559 666 3084 287 
Q 2609 -91 1734 -91 
Q 1441 -91 1130 -33 
Q 819 25 488 141 
L 488 750 
Q 750 597 1062 519 
Q 1375 441 1716 441 
Q 2309 441 2620 675 
Q 2931 909 2931 1356 
Q 2931 1769 2642 2001 
Q 2353 2234 1838 2234 
L 1294 2234 
L 1294 2753 
L 1863 2753 
Q 2328 2753 2575 2939 
Q 2822 3125 2822 3475 
Q 2822 3834 2567 4026 
Q 2313 4219 1838 4219 
Q 1578 4219 1281 4162 
Q 984 4106 628 3988 
L 628 4550 
Q 988 4650 1302 4700 
Q 1616 4750 1894 4750 
Q 2613 4750 3031 4423 
Q 3450 4097 3450 3541 
Q 3450 3153 3228 2886 
Q 3006 2619 2597 2516 
z
" transform="scale(0.015625)"/>
       </defs>
       <use xlink:href="#DejaVuSans-30"/>
       <use xlink:href="#DejaVuSans-2e" x="63.623047"/>
       <use xlink:href="#DejaVuSans-30" x="95.410156"/>
       <use xlink:href="#DejaVuSans-33" x="159.033203"/>
      </g>
     </g>
    </g>
    <g id="ytick_8">
     <g id="line2d_24">
      <g>
       <use xlink:href="#m93facd0906" x="235.241335" y="86.540405" style="stroke: #000000; stroke-width: 0.8"/>
      </g>
     </g>
     <g id="text_27">
      <!-- 0.06 -->
      <g transform="translate(242.241335 90.339623) scale(0.1 -0.1)">
       <use xlink:href="#DejaVuSans-30"/>
       <use xlink:href="#DejaVuSans-2e" x="63.623047"/>
       <use xlink:href="#DejaVuSans-30" x="95.410156"/>
       <use xlink:href="#DejaVuSans-36" x="159.033203"/>
      </g>
     </g>
    </g>
    <g id="ytick_9">
     <g id="line2d_25">
      <g>
       <use xlink:href="#m93facd0906" x="235.241335" y="69.481943" style="stroke: #000000; stroke-width: 0.8"/>
      </g>
     </g>
     <g id="text_28">
      <!-- 0.09 -->
      <g transform="translate(242.241335 73.281162) scale(0.1 -0.1)">
       <defs>
        <path id="DejaVuSans-39" d="M 703 97 
L 703 672 
Q 941 559 1184 500 
Q 1428 441 1663 441 
Q 2288 441 2617 861 
Q 2947 1281 2994 2138 
Q 2813 1869 2534 1725 
Q 2256 1581 1919 1581 
Q 1219 1581 811 2004 
Q 403 2428 403 3163 
Q 403 3881 828 4315 
Q 1253 4750 1959 4750 
Q 2769 4750 3195 4129 
Q 3622 3509 3622 2328 
Q 3622 1225 3098 567 
Q 2575 -91 1691 -91 
Q 1453 -91 1209 -44 
Q 966 3 703 97 
z
M 1959 2075 
Q 2384 2075 2632 2365 
Q 2881 2656 2881 3163 
Q 2881 3666 2632 3958 
Q 2384 4250 1959 4250 
Q 1534 4250 1286 3958 
Q 1038 3666 1038 3163 
Q 1038 2656 1286 2365 
Q 1534 2075 1959 2075 
z
" transform="scale(0.015625)"/>
       </defs>
       <use xlink:href="#DejaVuSans-30"/>
       <use xlink:href="#DejaVuSans-2e" x="63.623047"/>
       <use xlink:href="#DejaVuSans-30" x="95.410156"/>
       <use xlink:href="#DejaVuSans-39" x="159.033203"/>
      </g>
     </g>
    </g>
    <g id="ytick_10">
     <g id="line2d_26">
      <g>
       <use xlink:href="#m93facd0906" x="235.241335" y="52.423482" style="stroke: #000000; stroke-width: 0.8"/>
      </g>
     </g>
     <g id="text_29">
      <!-- 0.12 -->
      <g transform="translate(242.241335 56.2227) scale(0.1 -0.1)">
       <use xlink:href="#DejaVuSans-30"/>
       <use xlink:href="#DejaVuSans-2e" x="63.623047"/>
       <use xlink:href="#DejaVuSans-31" x="95.410156"/>
       <use xlink:href="#DejaVuSans-32" x="159.033203"/>
      </g>
     </g>
    </g>
    <g id="ytick_11">
     <g id="line2d_27">
      <g>
       <use xlink:href="#m93facd0906" x="235.241335" y="35.36502" style="stroke: #000000; stroke-width: 0.8"/>
      </g>
     </g>
     <g id="text_30">
      <!-- 0.15 -->
      <g transform="translate(242.241335 39.164239) scale(0.1 -0.1)">
       <defs>
        <path id="DejaVuSans-35" d="M 691 4666 
L 3169 4666 
L 3169 4134 
L 1269 4134 
L 1269 2991 
Q 1406 3038 1543 3061 
Q 1681 3084 1819 3084 
Q 2600 3084 3056 2656 
Q 3513 2228 3513 1497 
Q 3513 744 3044 326 
Q 2575 -91 1722 -91 
Q 1428 -91 1123 -41 
Q 819 9 494 109 
L 494 744 
Q 775 591 1075 516 
Q 1375 441 1709 441 
Q 2250 441 2565 725 
Q 2881 1009 2881 1497 
Q 2881 1984 2565 2268 
Q 2250 2553 1709 2553 
Q 1456 2553 1204 2497 
Q 953 2441 691 2322 
L 691 4666 
z
" transform="scale(0.015625)"/>
       </defs>
       <use xlink:href="#DejaVuSans-30"/>
       <use xlink:href="#DejaVuSans-2e" x="63.623047"/>
       <use xlink:href="#DejaVuSans-31" x="95.410156"/>
       <use xlink:href="#DejaVuSans-35" x="159.033203"/>
      </g>
     </g>
    </g>
    <g id="ytick_12">
     <g id="line2d_28">
      <g>
       <use xlink:href="#m93facd0906" x="235.241335" y="18.306559" style="stroke: #000000; stroke-width: 0.8"/>
      </g>
     </g>
     <g id="text_31">
      <!-- 0.18 -->
      <g transform="translate(242.241335 22.105777) scale(0.1 -0.1)">
       <use xlink:href="#DejaVuSans-30"/>
       <use xlink:href="#DejaVuSans-2e" x="63.623047"/>
       <use xlink:href="#DejaVuSans-31" x="95.410156"/>
       <use xlink:href="#DejaVuSans-38" x="159.033203"/>
      </g>
     </g>
    </g>
   </g>
   <g id="LineCollection_1"/>
   <g id="patch_4">
    <path d="M 229.697335 120.657328 
L 232.469335 120.657328 
L 235.241335 120.657328 
L 235.241335 9.777328 
L 232.469335 9.777328 
L 229.697335 9.777328 
L 229.697335 120.657328 
z
" style="fill: none; stroke: #000000; stroke-width: 0.8; stroke-linejoin: miter; stroke-linecap: square"/>
   </g>
  </g>
 </g>
 <defs>
  <clipPath id="p331ef34fa8">
   <rect x="45.737335" y="25.619193" width="178.56" height="156.812269"/>
  </clipPath>
  <clipPath id="p1eb3368c22">
   <rect x="229.697335" y="9.777328" width="5.544" height="110.88"/>
  </clipPath>
 </defs>
</svg>
