<?xml version="1.0" encoding="utf-8" standalone="no"?>
<!DOCTYPE svg PUBLIC "-//W3C//DTD SVG 1.1//EN"
  "http://www.w3.org/Graphics/SVG/1.1/DTD/svg11.dtd">
<svg xmlns:xlink="http://www.w3.org/1999/xlink" width="259.002273pt" height="210.047792pt" viewBox="0 0 259.002273 210.047792" xmlns="http://www.w3.org/2000/svg" version="1.1">
 <metadata>
  <rdf:RDF xmlns:dc="http://purl.org/dc/elements/1.1/" xmlns:cc="http://creativecommons.org/ns#" xmlns:rdf="http://www.w3.org/1999/02/22-rdf-syntax-ns#">
   <cc:Work>
    <dc:type rdf:resource="http://purl.org/dc/dcmitype/StillImage"/>
    <dc:date>2024-01-12T09:43:11.682940</dc:date>
    <dc:format>image/svg+xml</dc:format>
    <dc:creator>
     <cc:Agent>
      <dc:title>Matplotlib v3.7.0, https://matplotlib.org/</dc:title>
     </cc:Agent>
    </dc:creator>
   </cc:Work>
  </rdf:RDF>
 </metadata>
 <defs>
  <style type="text/css">*{stroke-linejoin: round; stroke-linecap: butt}</style>
 </defs>
 <g id="figure_1">
  <g id="patch_1">
   <path d="M 0 210.047792 
L 259.002273 210.047792 
L 259.002273 0 
L 0 0 
z
" style="fill: #ffffff"/>
  </g>
  <g id="axes_1">
   <g id="patch_2">
    <path d="M 27.272648 182.431462 
L 205.832648 182.431462 
L 205.832648 25.619193 
L 27.272648 25.619193 
z
" style="fill: #ffffff"/>
   </g>
   <g id="PathCollection_1">
    <defs>
     <path id="m33c516fb47" d="M 113.719711 -171.405445 
L 114.995144 -169.283258 
L 118.126033 -164.979464 
L 120.192804 -162.254281 
L 122.658201 -158.771454 
L 126.209575 -155.225304 
L 127.837861 -153.684935 
L 131.108796 -151.100247 
L 128.727193 -155.225304 
L 124.669011 -162.254281 
L 120.61083 -169.283258 
L 116.552648 -176.312235 
M 45.60248 -35.732693 
L 45.003905 -38.328224 
L 43.194271 -42.76167 
L 42.810396 -48.586908 
L 39.447193 -42.76167 
L 35.389011 -35.732693 
L 43.505375 -35.732693 
" style="stroke: #f1fd0f"/>
    </defs>
    <g clip-path="url(#p0cd6864794)">
     <use xlink:href="#m33c516fb47" x="0" y="210.047792" style="fill: #f1fd0f; stroke: #f1fd0f"/>
    </g>
   </g>
   <g id="PathCollection_2">
    <defs>
     <path id="m2a7bfc03b9" d="M 131.108796 -151.100247 
L 127.837861 -153.684935 
L 126.209575 -155.225304 
L 122.658201 -158.771454 
L 120.192804 -162.254281 
L 118.126033 -164.979464 
L 114.995144 -169.283258 
L 113.719711 -171.405445 
L 112.494466 -169.283258 
L 110.417336 -165.685563 
L 113.179044 -162.254281 
L 115.09756 -159.733996 
L 118.578978 -155.225304 
L 119.844192 -153.897448 
L 122.623513 -151.739234 
L 125.269391 -149.236215 
L 126.585375 -148.196327 
L 130.490796 -144.221999 
L 136.230392 -141.16735 
L 136.720973 -140.955028 
L 137.194835 -140.558919 
L 136.843557 -141.16735 
L 132.785375 -148.196327 
M 42.810396 -48.586908 
L 43.194271 -42.76167 
L 45.003905 -38.328224 
L 45.60248 -35.732693 
L 51.621739 -35.732693 
L 55.081805 -35.732693 
L 56.189644 -41.878804 
L 56.324273 -42.76167 
L 56.400144 -44.009134 
L 55.058572 -49.790647 
L 54.133271 -54.140749 
L 53.608062 -56.819624 
L 53.015211 -61.435037 
L 52.537843 -63.848602 
L 52.140385 -64.746924 
L 51.621739 -63.848602 
L 47.563557 -56.819624 
L 43.505375 -49.790647 
" style="stroke: #cff734"/>
    </defs>
    <g clip-path="url(#p0cd6864794)">
     <use xlink:href="#m2a7bfc03b9" x="0" y="210.047792" style="fill: #cff734; stroke: #cff734"/>
    </g>
   </g>
   <g id="PathCollection_3">
    <defs>
     <path id="m11430e06cc" d="M 137.194835 -140.558919 
L 136.720973 -140.955028 
L 136.230392 -141.16735 
L 130.490796 -144.221999 
L 126.585375 -148.196327 
L 125.269391 -149.236215 
L 122.623513 -151.739234 
L 119.844192 -153.897448 
L 118.578978 -155.225304 
L 115.09756 -159.733996 
L 113.179044 -162.254281 
L 110.417336 -165.685563 
L 108.436284 -162.254281 
L 105.747922 -157.597901 
L 107.859203 -155.225304 
L 110.880269 -152.429433 
L 116.342923 -148.196327 
L 116.460625 -148.036939 
L 117.053658 -147.328552 
L 121.032074 -141.896966 
L 122.030194 -141.16735 
L 127.300655 -138.696513 
L 130.527843 -138.048532 
L 134.140253 -136.48509 
L 136.947613 -134.138373 
L 139.312716 -131.386104 
L 143.119841 -130.296507 
L 140.901739 -134.138373 
M 52.140385 -64.746924 
L 52.537843 -63.848602 
L 53.015211 -61.435037 
L 53.608062 -56.819624 
L 54.133271 -54.140749 
L 55.058572 -49.790647 
L 56.400144 -44.009134 
L 56.324273 -42.76167 
L 56.189644 -41.878804 
L 55.081805 -35.732693 
L 59.738102 -35.732693 
L 67.854466 -35.732693 
L 68.126193 -35.732693 
L 68.806896 -37.382351 
L 69.67468 -42.76167 
L 70.737499 -44.797088 
L 70.688263 -49.790647 
L 69.711942 -53.007891 
L 68.636042 -56.819624 
L 66.68729 -61.826993 
L 65.665405 -63.848602 
L 63.695111 -70.702341 
L 63.622362 -70.877579 
L 62.859781 -72.49965 
L 60.485007 -77.906556 
L 60.182429 -78.676152 
L 59.738102 -77.906556 
L 55.67992 -70.877579 
" style="stroke: #adf25a"/>
    </defs>
    <g clip-path="url(#p0cd6864794)">
     <use xlink:href="#m11430e06cc" x="0" y="210.047792" style="fill: #adf25a; stroke: #adf25a"/>
    </g>
   </g>
   <g id="PathCollection_4">
    <defs>
     <path id="m51af42898a" d="M 143.119841 -130.296507 
L 139.312716 -131.386104 
L 136.947613 -134.138373 
L 134.140253 -136.48509 
L 130.527843 -138.048532 
L 127.300655 -138.696513 
L 122.030194 -141.16735 
L 121.032074 -141.896966 
L 117.053658 -147.328552 
L 116.460625 -148.036939 
L 116.342923 -148.196327 
L 110.880269 -152.429433 
L 107.859203 -155.225304 
L 105.747922 -157.597901 
L 104.378102 -155.225304 
L 100.31992 -148.196327 
L 96.841479 -142.171489 
L 102.091803 -141.16735 
L 104.081885 -140.654286 
L 105.071809 -139.965815 
L 109.281013 -135.601486 
L 115.72874 -135.565422 
L 117.016158 -134.941196 
L 119.316917 -134.138373 
L 123.361774 -131.874171 
L 126.31032 -131.295542 
L 130.405577 -130.016442 
L 133.582518 -127.109395 
L 136.076254 -125.780387 
L 137.872392 -125.327401 
L 143.054728 -123.809505 
L 148.884224 -120.312302 
L 144.95992 -127.109395 
M 60.182429 -78.676152 
L 60.485007 -77.906556 
L 62.859781 -72.49965 
L 63.622362 -70.877579 
L 63.695111 -70.702341 
L 65.665405 -63.848602 
L 66.68729 -61.826993 
L 68.636042 -56.819624 
L 69.711942 -53.007891 
L 70.688263 -49.790647 
L 70.737499 -44.797088 
L 69.67468 -42.76167 
L 68.806896 -37.382351 
L 68.126193 -35.732693 
L 75.97083 -35.732693 
L 77.807478 -35.732693 
L 80.579657 -41.807924 
L 81.397359 -42.76167 
L 84.573381 -48.948545 
L 84.75336 -49.790647 
L 84.551798 -50.595367 
L 83.060909 -56.819624 
L 82.605273 -61.28184 
L 80.71618 -63.848602 
L 78.953349 -69.014476 
L 78.581228 -70.877579 
L 75.125375 -76.442186 
L 74.858999 -77.906556 
L 73.09778 -82.882823 
L 72.455934 -84.935533 
L 72.397865 -85.775954 
L 71.870463 -91.96451 
L 70.817188 -97.096094 
L 67.854466 -91.96451 
L 63.796284 -84.935533 
" style="stroke: #8ded7c"/>
    </defs>
    <g clip-path="url(#p0cd6864794)">
     <use xlink:href="#m51af42898a" x="0" y="210.047792" style="fill: #8ded7c; stroke: #8ded7c"/>
    </g>
   </g>
   <g id="PathCollection_5">
    <defs>
     <path id="ma9b50ab358" d="M 148.884224 -120.312302 
L 143.054728 -123.809505 
L 137.872392 -125.327401 
L 136.076254 -125.780387 
L 133.582518 -127.109395 
L 130.405577 -130.016442 
L 126.31032 -131.295542 
L 123.361774 -131.874171 
L 119.316917 -134.138373 
L 117.016158 -134.941196 
L 115.72874 -135.565422 
L 109.281013 -135.601486 
L 105.071809 -139.965815 
L 104.081885 -140.654286 
L 102.091803 -141.16735 
L 96.841479 -142.171489 
L 96.261739 -141.16735 
L 92.203557 -134.138373 
L 88.145375 -127.109395 
L 84.087193 -120.080418 
L 80.029011 -113.051441 
L 75.97083 -106.022464 
L 71.912648 -98.993487 
L 70.817188 -97.096094 
L 71.870463 -91.96451 
L 72.397865 -85.775954 
L 72.455934 -84.935533 
L 73.09778 -82.882823 
L 74.858999 -77.906556 
L 75.125375 -76.442186 
L 78.581228 -70.877579 
L 78.953349 -69.014476 
L 80.71618 -63.848602 
L 82.605273 -61.28184 
L 83.060909 -56.819624 
L 84.551798 -50.595367 
L 84.75336 -49.790647 
L 84.573381 -48.948545 
L 81.397359 -42.76167 
L 80.579657 -41.807924 
L 77.807478 -35.732693 
L 84.087193 -35.732693 
L 89.670318 -35.732693 
L 91.161591 -37.537431 
L 96.170544 -42.76167 
L 96.182786 -42.898421 
L 95.882196 -49.790647 
L 95.176411 -54.939782 
L 94.806172 -56.819624 
L 94.712557 -59.502885 
L 93.840009 -63.848602 
L 93.855658 -66.710125 
L 92.212886 -70.877579 
L 90.529967 -75.007813 
L 89.768648 -77.906556 
L 88.013402 -84.706948 
L 87.868681 -84.935533 
L 87.880711 -85.393944 
L 88.533099 -91.96451 
L 89.93481 -95.894096 
L 90.314904 -98.993487 
L 92.167644 -105.960261 
L 92.182904 -106.022464 
L 92.047473 -106.292809 
L 89.626463 -113.051441 
L 94.584556 -115.956406 
L 100.248724 -119.957103 
L 100.3486 -120.030744 
L 101.057772 -120.080418 
L 107.92259 -120.970162 
L 108.694767 -120.528124 
L 115.362508 -122.141801 
L 117.471197 -121.671393 
L 124.305724 -120.70965 
L 124.959387 -120.583364 
L 129.491778 -120.080418 
L 132.59536 -119.751302 
L 132.964037 -119.770967 
L 139.653778 -117.918888 
L 142.781171 -116.825146 
L 146.117816 -115.056974 
L 150.909386 -113.051441 
L 152.650679 -112.314272 
L 153.688232 -111.991516 
L 153.076284 -113.051441 
L 149.018102 -120.080418 
" style="stroke: #6ae7a2"/>
    </defs>
    <g clip-path="url(#p0cd6864794)">
     <use xlink:href="#ma9b50ab358" x="0" y="210.047792" style="fill: #6ae7a2; stroke: #6ae7a2"/>
    </g>
   </g>
   <g id="PathCollection_6">
    <defs>
     <path id="m6f504232f3" d="M 153.688232 -111.991516 
L 152.650679 -112.314272 
L 150.909386 -113.051441 
L 146.117816 -115.056974 
L 142.781171 -116.825146 
L 139.653778 -117.918888 
L 132.964037 -119.770967 
L 132.59536 -119.751302 
L 129.491778 -120.080418 
L 124.959387 -120.583364 
L 124.305724 -120.70965 
L 117.471197 -121.671393 
L 115.362508 -122.141801 
L 108.694767 -120.528124 
L 107.92259 -120.970162 
L 101.057772 -120.080418 
L 100.3486 -120.030744 
L 100.248724 -119.957103 
L 94.584556 -115.956406 
L 89.626463 -113.051441 
L 92.047473 -106.292809 
L 92.182904 -106.022464 
L 92.167644 -105.960261 
L 90.314904 -98.993487 
L 89.93481 -95.894096 
L 88.533099 -91.96451 
L 87.880711 -85.393944 
L 87.868681 -84.935533 
L 88.013402 -84.706948 
L 89.768648 -77.906556 
L 90.529967 -75.007813 
L 92.212886 -70.877579 
L 93.855658 -66.710125 
L 93.840009 -63.848602 
L 94.712557 -59.502885 
L 94.806172 -56.819624 
L 95.176411 -54.939782 
L 95.882196 -49.790647 
L 96.182786 -42.898421 
L 96.170544 -42.76167 
L 91.161591 -37.537431 
L 89.670318 -35.732693 
L 92.203557 -35.732693 
L 99.58 -35.732693 
L 100.013197 -36.263953 
L 100.919425 -36.771065 
L 105.884853 -40.151902 
L 107.700849 -42.76167 
L 108.382887 -49.698161 
L 108.355282 -49.790647 
L 108.377299 -49.892813 
L 108.71109 -56.819624 
L 109.468718 -62.060373 
L 109.586007 -63.848602 
L 109.226027 -65.216476 
L 106.99586 -70.877579 
L 106.590645 -74.709815 
L 105.295687 -77.906556 
L 106.713373 -80.890725 
L 107.116006 -84.935533 
L 108.454564 -91.932848 
L 108.465323 -91.96451 
L 108.481375 -92.04261 
L 108.021671 -98.993487 
L 110.806717 -101.916753 
L 116.122235 -106.022464 
L 116.42204 -106.248684 
L 116.776327 -106.409888 
L 123.089109 -108.758936 
L 126.290165 -108.830384 
L 131.599137 -108.077088 
L 134.128676 -108.349129 
L 138.319259 -110.49545 
L 142.558542 -108.892132 
L 147.954367 -107.864908 
L 149.663977 -107.141151 
L 153.26019 -106.022464 
L 156.480855 -104.890376 
L 157.93696 -104.632504 
L 157.134466 -106.022464 
" style="stroke: #4ae2c6"/>
    </defs>
    <g clip-path="url(#p0cd6864794)">
     <use xlink:href="#m6f504232f3" x="0" y="210.047792" style="fill: #4ae2c6; stroke: #4ae2c6"/>
    </g>
   </g>
   <g id="PathCollection_7">
    <defs>
     <path id="m3f80920c48" d="M 157.93696 -104.632504 
L 156.480855 -104.890376 
L 153.26019 -106.022464 
L 149.663977 -107.141151 
L 147.954367 -107.864908 
L 142.558542 -108.892132 
L 138.319259 -110.49545 
L 134.128676 -108.349129 
L 131.599137 -108.077088 
L 126.290165 -108.830384 
L 123.089109 -108.758936 
L 116.776327 -106.409888 
L 116.42204 -106.248684 
L 116.122235 -106.022464 
L 110.806717 -101.916753 
L 108.021671 -98.993487 
L 108.481375 -92.04261 
L 108.465323 -91.96451 
L 108.454564 -91.932848 
L 107.116006 -84.935533 
L 106.713373 -80.890725 
L 105.295687 -77.906556 
L 106.590645 -74.709815 
L 106.99586 -70.877579 
L 109.226027 -65.216476 
L 109.586007 -63.848602 
L 109.468718 -62.060373 
L 108.71109 -56.819624 
L 108.377299 -49.892813 
L 108.355282 -49.790647 
L 108.382887 -49.698161 
L 107.700849 -42.76167 
L 105.884853 -40.151902 
L 100.919425 -36.771065 
L 100.013197 -36.263953 
L 99.58 -35.732693 
L 100.31992 -35.732693 
L 108.436284 -35.732693 
L 116.552648 -35.732693 
L 117.042428 -35.732693 
L 120.803353 -42.428211 
L 120.981084 -42.76167 
L 121.197183 -43.777264 
L 119.91333 -49.790647 
L 119.498999 -54.893877 
L 119.747387 -56.819624 
L 119.629011 -58.520183 
L 119.641466 -63.848602 
L 119.287193 -68.584973 
L 119.04933 -70.877579 
L 119.847824 -72.199143 
L 121.756124 -77.906556 
L 120.253032 -84.315809 
L 119.831987 -84.935533 
L 120.062036 -85.886071 
L 121.956145 -91.96451 
L 123.740122 -93.573394 
L 126.255865 -94.71302 
L 130.152433 -96.5249 
L 136.000774 -97.533745 
L 137.46169 -97.922848 
L 143.171569 -98.993487 
L 144.744588 -99.366453 
L 145.121502 -99.273354 
L 152.932687 -99.242205 
L 153.17143 -99.158285 
L 154.101978 -98.993487 
L 160.089655 -97.083047 
L 162.011494 -97.575204 
L 161.192648 -98.993487 
" style="stroke: #3accd4"/>
    </defs>
    <g clip-path="url(#p0cd6864794)">
     <use xlink:href="#m3f80920c48" x="0" y="210.047792" style="fill: #3accd4; stroke: #3accd4"/>
    </g>
   </g>
   <g id="PathCollection_8">
    <defs>
     <path id="m87884c1b58" d="M 162.011494 -97.575204 
L 160.089655 -97.083047 
L 154.101978 -98.993487 
L 153.17143 -99.158285 
L 152.932687 -99.242205 
L 145.121502 -99.273354 
L 144.744588 -99.366453 
L 143.171569 -98.993487 
L 137.46169 -97.922848 
L 136.000774 -97.533745 
L 130.152433 -96.5249 
L 126.255865 -94.71302 
L 123.740122 -93.573394 
L 121.956145 -91.96451 
L 120.062036 -85.886071 
L 119.831987 -84.935533 
L 120.253032 -84.315809 
L 121.756124 -77.906556 
L 119.847824 -72.199143 
L 119.04933 -70.877579 
L 119.287193 -68.584973 
L 119.641466 -63.848602 
L 119.629011 -58.520183 
L 119.747387 -56.819624 
L 119.498999 -54.893877 
L 119.91333 -49.790647 
L 121.197183 -43.777264 
L 120.981084 -42.76167 
L 120.803353 -42.428211 
L 117.042428 -35.732693 
L 124.669011 -35.732693 
L 125.185888 -35.732693 
L 128.764153 -42.697654 
L 128.827148 -42.76167 
L 128.866172 -43.002389 
L 131.187041 -49.790647 
L 130.550205 -53.662076 
L 130.288032 -56.819624 
L 132.954466 -63.555728 
L 133.016956 -63.848602 
L 133.233911 -64.625489 
L 131.608192 -70.877579 
L 135.263297 -73.614669 
L 136.512994 -77.906556 
L 137.335111 -84.084136 
L 138.562787 -84.935533 
L 143.51057 -87.445882 
L 146.748651 -88.033705 
L 150.816816 -88.849046 
L 154.721493 -87.785118 
L 158.928508 -88.857137 
L 164.171593 -90.095217 
L 166.295934 -90.154337 
L 165.25083 -91.96451 
" style="stroke: #33b4d9"/>
    </defs>
    <g clip-path="url(#p0cd6864794)">
     <use xlink:href="#m87884c1b58" x="0" y="210.047792" style="fill: #33b4d9; stroke: #33b4d9"/>
    </g>
   </g>
   <g id="PathCollection_9">
    <defs>
     <path id="mc4c5848188" d="M 166.295934 -90.154337 
L 164.171593 -90.095217 
L 158.928508 -88.857137 
L 154.721493 -87.785118 
L 150.816816 -88.849046 
L 146.748651 -88.033705 
L 143.51057 -87.445882 
L 138.562787 -84.935533 
L 137.335111 -84.084136 
L 136.512994 -77.906556 
L 135.263297 -73.614669 
L 131.608192 -70.877579 
L 133.233911 -64.625489 
L 133.016956 -63.848602 
L 132.954466 -63.555728 
L 130.288032 -56.819624 
L 130.550205 -53.662076 
L 131.187041 -49.790647 
L 128.866172 -43.002389 
L 128.827148 -42.76167 
L 128.764153 -42.697654 
L 125.185888 -35.732693 
L 132.785375 -35.732693 
L 140.901739 -35.732693 
L 142.751891 -35.732693 
L 142.241428 -38.053102 
L 141.627056 -42.76167 
L 142.730326 -46.62344 
L 144.830679 -49.790647 
L 146.792057 -53.646271 
L 146.973906 -56.819624 
L 147.977156 -62.04563 
L 145.38155 -63.848602 
L 147.528663 -66.428386 
L 150.036337 -65.612236 
L 154.047231 -69.195849 
L 155.67655 -70.877579 
L 155.230886 -74.609458 
L 153.799978 -77.906556 
L 156.118525 -79.666217 
L 158.58268 -80.414936 
L 163.292149 -81.29909 
L 167.27661 -81.415311 
L 171.086275 -81.857222 
L 169.309011 -84.935533 
" style="stroke: #2c99df"/>
    </defs>
    <g clip-path="url(#p0cd6864794)">
     <use xlink:href="#mc4c5848188" x="0" y="210.047792" style="fill: #2c99df; stroke: #2c99df"/>
    </g>
   </g>
   <g id="PathCollection_10">
    <defs>
     <path id="m6e10727dcf" d="M 171.086275 -81.857222 
L 167.27661 -81.415311 
L 163.292149 -81.29909 
L 158.58268 -80.414936 
L 156.118525 -79.666217 
L 153.799978 -77.906556 
L 155.230886 -74.609458 
L 155.67655 -70.877579 
L 154.047231 -69.195849 
L 150.036337 -65.612236 
L 147.528663 -66.428386 
L 145.38155 -63.848602 
L 147.977156 -62.04563 
L 146.973906 -56.819624 
L 146.792057 -53.646271 
L 144.830679 -49.790647 
L 142.730326 -46.62344 
L 141.627056 -42.76167 
L 142.241428 -38.053102 
L 142.751891 -35.732693 
L 149.018102 -35.732693 
L 157.134466 -35.732693 
L 152.11005 -41.088104 
L 151.717084 -42.76167 
L 152.432615 -43.876538 
L 156.527761 -49.790647 
L 156.370373 -51.114095 
L 155.986773 -56.819624 
L 158.330475 -61.777053 
L 159.949951 -63.848602 
L 163.508874 -66.865757 
L 167.28738 -67.376011 
L 170.605907 -68.63129 
L 175.778231 -70.877579 
L 176.835871 -71.89863 
L 173.367193 -77.906556 
" style="stroke: #247fe4"/>
    </defs>
    <g clip-path="url(#p0cd6864794)">
     <use xlink:href="#m6e10727dcf" x="0" y="210.047792" style="fill: #247fe4; stroke: #247fe4"/>
    </g>
   </g>
   <g id="PathCollection_11">
    <defs>
     <path id="m8460d414d6" d="M 176.835871 -71.89863 
L 175.778231 -70.877579 
L 170.605907 -68.63129 
L 167.28738 -67.376011 
L 163.508874 -66.865757 
L 159.949951 -63.848602 
L 158.330475 -61.777053 
L 155.986773 -56.819624 
L 156.370373 -51.114095 
L 156.527761 -49.790647 
L 152.432615 -43.876538 
L 151.717084 -42.76167 
L 152.11005 -41.088104 
L 157.134466 -35.732693 
L 165.150628 -35.732693 
L 165.119497 -35.960168 
L 167.528921 -42.76167 
L 168.237039 -44.618381 
L 169.134734 -49.790647 
L 170.90915 -54.048104 
L 175.297084 -56.819624 
L 176.576323 -58.290226 
L 177.923156 -57.681807 
L 184.366642 -58.854951 
L 181.483557 -63.848602 
L 177.425375 -70.877579 
" style="stroke: #1d65ea"/>
    </defs>
    <g clip-path="url(#p0cd6864794)">
     <use xlink:href="#m8460d414d6" x="0" y="210.047792" style="fill: #1d65ea; stroke: #1d65ea"/>
    </g>
   </g>
   <g id="PathCollection_12">
    <defs>
     <path id="m9d56d5be61" d="M 184.366642 -58.854951 
L 177.923156 -57.681807 
L 176.576323 -58.290226 
L 175.297084 -56.819624 
L 170.90915 -54.048104 
L 169.134734 -49.790647 
L 168.237039 -44.618381 
L 167.528921 -42.76167 
L 165.119497 -35.960168 
L 165.150628 -35.732693 
L 165.25083 -35.732693 
L 173.367193 -35.732693 
L 181.483557 -35.732693 
L 185.099258 -35.732693 
L 187.277231 -39.755709 
L 193.59084 -42.645168 
L 193.718975 -42.656236 
L 193.658102 -42.76167 
L 189.59992 -49.790647 
L 185.541739 -56.819624 
" style="stroke: #164bef"/>
    </defs>
    <g clip-path="url(#p0cd6864794)">
     <use xlink:href="#m9d56d5be61" x="0" y="210.047792" style="fill: #164bef; stroke: #164bef"/>
    </g>
   </g>
   <g id="PathCollection_13">
    <defs>
     <path id="m32f4fce357" d="M 193.718975 -42.656236 
L 193.59084 -42.645168 
L 187.277231 -39.755709 
L 185.099258 -35.732693 
L 189.59992 -35.732693 
L 197.716284 -35.732693 
" style="stroke: #0e30f5"/>
    </defs>
    <g clip-path="url(#p0cd6864794)">
     <use xlink:href="#m32f4fce357" x="0" y="210.047792" style="fill: #0e30f5; stroke: #0e30f5"/>
    </g>
   </g>
   <g id="line2d_1">
    <path d="M 35.389011 174.315099 
L 116.552648 33.735557 
" clip-path="url(#p0cd6864794)" style="fill: none; stroke: #000000; stroke-linecap: square"/>
   </g>
   <g id="line2d_2">
    <path d="M 116.552648 33.735557 
L 197.716284 174.315099 
" clip-path="url(#p0cd6864794)" style="fill: none; stroke: #000000; stroke-linecap: square"/>
   </g>
   <g id="line2d_3">
    <path d="M 35.389011 174.315099 
L 197.716284 174.315099 
" clip-path="url(#p0cd6864794)" style="fill: none; stroke: #000000; stroke-linecap: square"/>
   </g>
   <g id="line2d_4">
    <path d="M 197.716284 174.315099 
L 200.063861 178.381221 
" clip-path="url(#p0cd6864794)" style="fill: none; stroke: #000000; stroke-linecap: square"/>
   </g>
   <g id="line2d_5">
    <path d="M 165.25083 174.315099 
L 167.598407 178.381221 
" clip-path="url(#p0cd6864794)" style="fill: none; stroke: #000000; stroke-linecap: square"/>
   </g>
   <g id="line2d_6">
    <path d="M 132.785375 174.315099 
L 135.132952 178.381221 
" clip-path="url(#p0cd6864794)" style="fill: none; stroke: #000000; stroke-linecap: square"/>
   </g>
   <g id="line2d_7">
    <path d="M 100.31992 174.315099 
L 102.667497 178.381221 
" clip-path="url(#p0cd6864794)" style="fill: none; stroke: #000000; stroke-linecap: square"/>
   </g>
   <g id="line2d_8">
    <path d="M 67.854466 174.315099 
L 70.202043 178.381221 
" clip-path="url(#p0cd6864794)" style="fill: none; stroke: #000000; stroke-linecap: square"/>
   </g>
   <g id="line2d_9">
    <path d="M 35.389011 174.315099 
L 37.736588 178.381221 
" clip-path="url(#p0cd6864794)" style="fill: none; stroke: #000000; stroke-linecap: square"/>
   </g>
   <g id="line2d_10">
    <path d="M 35.389011 174.315099 
L 30.693857 174.315099 
" clip-path="url(#p0cd6864794)" style="fill: none; stroke: #000000; stroke-linecap: square"/>
   </g>
   <g id="line2d_11">
    <path d="M 51.621739 146.19919 
L 46.926585 146.19919 
" clip-path="url(#p0cd6864794)" style="fill: none; stroke: #000000; stroke-linecap: square"/>
   </g>
   <g id="line2d_12">
    <path d="M 67.854466 118.083282 
L 63.159312 118.083282 
" clip-path="url(#p0cd6864794)" style="fill: none; stroke: #000000; stroke-linecap: square"/>
   </g>
   <g id="line2d_13">
    <path d="M 84.087193 89.967374 
L 79.392039 89.967374 
" clip-path="url(#p0cd6864794)" style="fill: none; stroke: #000000; stroke-linecap: square"/>
   </g>
   <g id="line2d_14">
    <path d="M 100.31992 61.851465 
L 95.624766 61.851465 
" clip-path="url(#p0cd6864794)" style="fill: none; stroke: #000000; stroke-linecap: square"/>
   </g>
   <g id="line2d_15">
    <path d="M 116.552648 33.735557 
L 111.857494 33.735557 
" clip-path="url(#p0cd6864794)" style="fill: none; stroke: #000000; stroke-linecap: square"/>
   </g>
   <g id="line2d_16">
    <path d="M 116.552648 33.735557 
L 118.900225 29.669434 
" clip-path="url(#p0cd6864794)" style="fill: none; stroke: #000000; stroke-linecap: square"/>
   </g>
   <g id="line2d_17">
    <path d="M 132.785375 61.851465 
L 135.132952 57.785343 
" clip-path="url(#p0cd6864794)" style="fill: none; stroke: #000000; stroke-linecap: square"/>
   </g>
   <g id="line2d_18">
    <path d="M 149.018102 89.967374 
L 151.365679 85.901251 
" clip-path="url(#p0cd6864794)" style="fill: none; stroke: #000000; stroke-linecap: square"/>
   </g>
   <g id="line2d_19">
    <path d="M 165.25083 118.083282 
L 167.598407 114.017159 
" clip-path="url(#p0cd6864794)" style="fill: none; stroke: #000000; stroke-linecap: square"/>
   </g>
   <g id="line2d_20">
    <path d="M 181.483557 146.19919 
L 183.831134 142.133068 
" clip-path="url(#p0cd6864794)" style="fill: none; stroke: #000000; stroke-linecap: square"/>
   </g>
   <g id="line2d_21">
    <path d="M 197.716284 174.315099 
L 200.063861 170.248976 
" clip-path="url(#p0cd6864794)" style="fill: none; stroke: #000000; stroke-linecap: square"/>
   </g>
   <g id="matplotlib.axis_1">
    <g id="xtick_1"/>
    <g id="xtick_2"/>
    <g id="xtick_3"/>
    <g id="xtick_4"/>
    <g id="xtick_5"/>
   </g>
   <g id="matplotlib.axis_2">
    <g id="ytick_1"/>
    <g id="ytick_2"/>
    <g id="ytick_3"/>
    <g id="ytick_4"/>
    <g id="ytick_5"/>
   </g>
   <g id="text_1">
    <!-- 0 -->
    <g transform="translate(198.768602 187.301281) scale(0.12 -0.12)">
     <defs>
      <path id="DejaVuSans-30" d="M 2034 4250 
Q 1547 4250 1301 3770 
Q 1056 3291 1056 2328 
Q 1056 1369 1301 889 
Q 1547 409 2034 409 
Q 2525 409 2770 889 
Q 3016 1369 3016 2328 
Q 3016 3291 2770 3770 
Q 2525 4250 2034 4250 
z
M 2034 4750 
Q 2819 4750 3233 4129 
Q 3647 3509 3647 2328 
Q 3647 1150 3233 529 
Q 2819 -91 2034 -91 
Q 1250 -91 836 529 
Q 422 1150 422 2328 
Q 422 3509 836 4129 
Q 1250 4750 2034 4750 
z
" transform="scale(0.015625)"/>
     </defs>
     <use xlink:href="#DejaVuSans-30"/>
    </g>
   </g>
   <g id="text_2">
    <!-- 20 -->
    <g transform="translate(162.485648 187.301281) scale(0.12 -0.12)">
     <defs>
      <path id="DejaVuSans-32" d="M 1228 531 
L 3431 531 
L 3431 0 
L 469 0 
L 469 531 
Q 828 903 1448 1529 
Q 2069 2156 2228 2338 
Q 2531 2678 2651 2914 
Q 2772 3150 2772 3378 
Q 2772 3750 2511 3984 
Q 2250 4219 1831 4219 
Q 1534 4219 1204 4116 
Q 875 4013 500 3803 
L 500 4441 
Q 881 4594 1212 4672 
Q 1544 4750 1819 4750 
Q 2544 4750 2975 4387 
Q 3406 4025 3406 3419 
Q 3406 3131 3298 2873 
Q 3191 2616 2906 2266 
Q 2828 2175 2409 1742 
Q 1991 1309 1228 531 
z
" transform="scale(0.015625)"/>
     </defs>
     <use xlink:href="#DejaVuSans-32"/>
     <use xlink:href="#DejaVuSans-30" x="63.623047"/>
    </g>
   </g>
   <g id="text_3">
    <!-- 40 -->
    <g transform="translate(130.020193 187.301281) scale(0.12 -0.12)">
     <defs>
      <path id="DejaVuSans-34" d="M 2419 4116 
L 825 1625 
L 2419 1625 
L 2419 4116 
z
M 2253 4666 
L 3047 4666 
L 3047 1625 
L 3713 1625 
L 3713 1100 
L 3047 1100 
L 3047 0 
L 2419 0 
L 2419 1100 
L 313 1100 
L 313 1709 
L 2253 4666 
z
" transform="scale(0.015625)"/>
     </defs>
     <use xlink:href="#DejaVuSans-34"/>
     <use xlink:href="#DejaVuSans-30" x="63.623047"/>
    </g>
   </g>
   <g id="text_4">
    <!-- 60 -->
    <g transform="translate(97.554739 187.301281) scale(0.12 -0.12)">
     <defs>
      <path id="DejaVuSans-36" d="M 2113 2584 
Q 1688 2584 1439 2293 
Q 1191 2003 1191 1497 
Q 1191 994 1439 701 
Q 1688 409 2113 409 
Q 2538 409 2786 701 
Q 3034 994 3034 1497 
Q 3034 2003 2786 2293 
Q 2538 2584 2113 2584 
z
M 3366 4563 
L 3366 3988 
Q 3128 4100 2886 4159 
Q 2644 4219 2406 4219 
Q 1781 4219 1451 3797 
Q 1122 3375 1075 2522 
Q 1259 2794 1537 2939 
Q 1816 3084 2150 3084 
Q 2853 3084 3261 2657 
Q 3669 2231 3669 1497 
Q 3669 778 3244 343 
Q 2819 -91 2113 -91 
Q 1303 -91 875 529 
Q 447 1150 447 2328 
Q 447 3434 972 4092 
Q 1497 4750 2381 4750 
Q 2619 4750 2861 4703 
Q 3103 4656 3366 4563 
z
" transform="scale(0.015625)"/>
     </defs>
     <use xlink:href="#DejaVuSans-36"/>
     <use xlink:href="#DejaVuSans-30" x="63.623047"/>
    </g>
   </g>
   <g id="text_5">
    <!-- 80 -->
    <g transform="translate(65.089284 187.301281) scale(0.12 -0.12)">
     <defs>
      <path id="DejaVuSans-38" d="M 2034 2216 
Q 1584 2216 1326 1975 
Q 1069 1734 1069 1313 
Q 1069 891 1326 650 
Q 1584 409 2034 409 
Q 2484 409 2743 651 
Q 3003 894 3003 1313 
Q 3003 1734 2745 1975 
Q 2488 2216 2034 2216 
z
M 1403 2484 
Q 997 2584 770 2862 
Q 544 3141 544 3541 
Q 544 4100 942 4425 
Q 1341 4750 2034 4750 
Q 2731 4750 3128 4425 
Q 3525 4100 3525 3541 
Q 3525 3141 3298 2862 
Q 3072 2584 2669 2484 
Q 3125 2378 3379 2068 
Q 3634 1759 3634 1313 
Q 3634 634 3220 271 
Q 2806 -91 2034 -91 
Q 1263 -91 848 271 
Q 434 634 434 1313 
Q 434 1759 690 2068 
Q 947 2378 1403 2484 
z
M 1172 3481 
Q 1172 3119 1398 2916 
Q 1625 2713 2034 2713 
Q 2441 2713 2670 2916 
Q 2900 3119 2900 3481 
Q 2900 3844 2670 4047 
Q 2441 4250 2034 4250 
Q 1625 4250 1398 4047 
Q 1172 3844 1172 3481 
z
" transform="scale(0.015625)"/>
     </defs>
     <use xlink:href="#DejaVuSans-38"/>
     <use xlink:href="#DejaVuSans-30" x="63.623047"/>
    </g>
   </g>
   <g id="text_6">
    <!-- 100 -->
    <g transform="translate(28.80633 187.301281) scale(0.12 -0.12)">
     <defs>
      <path id="DejaVuSans-31" d="M 794 531 
L 1825 531 
L 1825 4091 
L 703 3866 
L 703 4441 
L 1819 4666 
L 2450 4666 
L 2450 531 
L 3481 531 
L 3481 0 
L 794 0 
L 794 531 
z
" transform="scale(0.015625)"/>
     </defs>
     <use xlink:href="#DejaVuSans-31"/>
     <use xlink:href="#DejaVuSans-30" x="63.623047"/>
     <use xlink:href="#DejaVuSans-30" x="127.246094"/>
    </g>
   </g>
   <g id="text_7">
    <!-- 0 -->
    <g transform="translate(22.884193 176.750008) scale(0.12 -0.12)">
     <use xlink:href="#DejaVuSans-30"/>
    </g>
   </g>
   <g id="text_8">
    <!-- 20 -->
    <g transform="translate(31.48192 148.634099) scale(0.12 -0.12)">
     <use xlink:href="#DejaVuSans-32"/>
     <use xlink:href="#DejaVuSans-30" x="63.623047"/>
    </g>
   </g>
   <g id="text_9">
    <!-- 40 -->
    <g transform="translate(47.714648 120.518191) scale(0.12 -0.12)">
     <use xlink:href="#DejaVuSans-34"/>
     <use xlink:href="#DejaVuSans-30" x="63.623047"/>
    </g>
   </g>
   <g id="text_10">
    <!-- 60 -->
    <g transform="translate(63.947375 92.402283) scale(0.12 -0.12)">
     <use xlink:href="#DejaVuSans-36"/>
     <use xlink:href="#DejaVuSans-30" x="63.623047"/>
    </g>
   </g>
   <g id="text_11">
    <!-- 80 -->
    <g transform="translate(80.180102 64.286374) scale(0.12 -0.12)">
     <use xlink:href="#DejaVuSans-38"/>
     <use xlink:href="#DejaVuSans-30" x="63.623047"/>
    </g>
   </g>
   <g id="text_12">
    <!-- 100 -->
    <g transform="translate(88.77783 36.170466) scale(0.12 -0.12)">
     <use xlink:href="#DejaVuSans-31"/>
     <use xlink:href="#DejaVuSans-30" x="63.623047"/>
     <use xlink:href="#DejaVuSans-30" x="127.246094"/>
    </g>
   </g>
   <g id="text_13">
    <!-- 0 -->
    <g transform="translate(118.987557 30.489011) scale(0.12 -0.12)">
     <use xlink:href="#DejaVuSans-30"/>
    </g>
   </g>
   <g id="text_14">
    <!-- 20 -->
    <g transform="translate(135.220284 58.60492) scale(0.12 -0.12)">
     <use xlink:href="#DejaVuSans-32"/>
     <use xlink:href="#DejaVuSans-30" x="63.623047"/>
    </g>
   </g>
   <g id="text_15">
    <!-- 40 -->
    <g transform="translate(151.453011 86.720828) scale(0.12 -0.12)">
     <use xlink:href="#DejaVuSans-34"/>
     <use xlink:href="#DejaVuSans-30" x="63.623047"/>
    </g>
   </g>
   <g id="text_16">
    <!-- 60 -->
    <g transform="translate(167.685739 114.836737) scale(0.12 -0.12)">
     <use xlink:href="#DejaVuSans-36"/>
     <use xlink:href="#DejaVuSans-30" x="63.623047"/>
    </g>
   </g>
   <g id="text_17">
    <!-- 80 -->
    <g transform="translate(183.918466 142.952645) scale(0.12 -0.12)">
     <use xlink:href="#DejaVuSans-38"/>
     <use xlink:href="#DejaVuSans-30" x="63.623047"/>
    </g>
   </g>
   <g id="text_18">
    <!-- 100 -->
    <g transform="translate(200.151193 171.068553) scale(0.12 -0.12)">
     <use xlink:href="#DejaVuSans-31"/>
     <use xlink:href="#DejaVuSans-30" x="63.623047"/>
     <use xlink:href="#DejaVuSans-30" x="127.246094"/>
    </g>
   </g>
   <g id="text_19">
    <!-- Au content (at.%) -->
    <g transform="translate(63.54171 200.352167) scale(0.12 -0.12)">
     <defs>
      <path id="DejaVuSans-41" d="M 2188 4044 
L 1331 1722 
L 3047 1722 
L 2188 4044 
z
M 1831 4666 
L 2547 4666 
L 4325 0 
L 3669 0 
L 3244 1197 
L 1141 1197 
L 716 0 
L 50 0 
L 1831 4666 
z
" transform="scale(0.015625)"/>
      <path id="DejaVuSans-75" d="M 544 1381 
L 544 3500 
L 1119 3500 
L 1119 1403 
Q 1119 906 1312 657 
Q 1506 409 1894 409 
Q 2359 409 2629 706 
Q 2900 1003 2900 1516 
L 2900 3500 
L 3475 3500 
L 3475 0 
L 2900 0 
L 2900 538 
Q 2691 219 2414 64 
Q 2138 -91 1772 -91 
Q 1169 -91 856 284 
Q 544 659 544 1381 
z
M 1991 3584 
L 1991 3584 
z
" transform="scale(0.015625)"/>
      <path id="DejaVuSans-20" transform="scale(0.015625)"/>
      <path id="DejaVuSans-63" d="M 3122 3366 
L 3122 2828 
Q 2878 2963 2633 3030 
Q 2388 3097 2138 3097 
Q 1578 3097 1268 2742 
Q 959 2388 959 1747 
Q 959 1106 1268 751 
Q 1578 397 2138 397 
Q 2388 397 2633 464 
Q 2878 531 3122 666 
L 3122 134 
Q 2881 22 2623 -34 
Q 2366 -91 2075 -91 
Q 1284 -91 818 406 
Q 353 903 353 1747 
Q 353 2603 823 3093 
Q 1294 3584 2113 3584 
Q 2378 3584 2631 3529 
Q 2884 3475 3122 3366 
z
" transform="scale(0.015625)"/>
      <path id="DejaVuSans-6f" d="M 1959 3097 
Q 1497 3097 1228 2736 
Q 959 2375 959 1747 
Q 959 1119 1226 758 
Q 1494 397 1959 397 
Q 2419 397 2687 759 
Q 2956 1122 2956 1747 
Q 2956 2369 2687 2733 
Q 2419 3097 1959 3097 
z
M 1959 3584 
Q 2709 3584 3137 3096 
Q 3566 2609 3566 1747 
Q 3566 888 3137 398 
Q 2709 -91 1959 -91 
Q 1206 -91 779 398 
Q 353 888 353 1747 
Q 353 2609 779 3096 
Q 1206 3584 1959 3584 
z
" transform="scale(0.015625)"/>
      <path id="DejaVuSans-6e" d="M 3513 2113 
L 3513 0 
L 2938 0 
L 2938 2094 
Q 2938 2591 2744 2837 
Q 2550 3084 2163 3084 
Q 1697 3084 1428 2787 
Q 1159 2491 1159 1978 
L 1159 0 
L 581 0 
L 581 3500 
L 1159 3500 
L 1159 2956 
Q 1366 3272 1645 3428 
Q 1925 3584 2291 3584 
Q 2894 3584 3203 3211 
Q 3513 2838 3513 2113 
z
" transform="scale(0.015625)"/>
      <path id="DejaVuSans-74" d="M 1172 4494 
L 1172 3500 
L 2356 3500 
L 2356 3053 
L 1172 3053 
L 1172 1153 
Q 1172 725 1289 603 
Q 1406 481 1766 481 
L 2356 481 
L 2356 0 
L 1766 0 
Q 1100 0 847 248 
Q 594 497 594 1153 
L 594 3053 
L 172 3053 
L 172 3500 
L 594 3500 
L 594 4494 
L 1172 4494 
z
" transform="scale(0.015625)"/>
      <path id="DejaVuSans-65" d="M 3597 1894 
L 3597 1613 
L 953 1613 
Q 991 1019 1311 708 
Q 1631 397 2203 397 
Q 2534 397 2845 478 
Q 3156 559 3463 722 
L 3463 178 
Q 3153 47 2828 -22 
Q 2503 -91 2169 -91 
Q 1331 -91 842 396 
Q 353 884 353 1716 
Q 353 2575 817 3079 
Q 1281 3584 2069 3584 
Q 2775 3584 3186 3129 
Q 3597 2675 3597 1894 
z
M 3022 2063 
Q 3016 2534 2758 2815 
Q 2500 3097 2075 3097 
Q 1594 3097 1305 2825 
Q 1016 2553 972 2059 
L 3022 2063 
z
" transform="scale(0.015625)"/>
      <path id="DejaVuSans-28" d="M 1984 4856 
Q 1566 4138 1362 3434 
Q 1159 2731 1159 2009 
Q 1159 1288 1364 580 
Q 1569 -128 1984 -844 
L 1484 -844 
Q 1016 -109 783 600 
Q 550 1309 550 2009 
Q 550 2706 781 3412 
Q 1013 4119 1484 4856 
L 1984 4856 
z
" transform="scale(0.015625)"/>
      <path id="DejaVuSans-61" d="M 2194 1759 
Q 1497 1759 1228 1600 
Q 959 1441 959 1056 
Q 959 750 1161 570 
Q 1363 391 1709 391 
Q 2188 391 2477 730 
Q 2766 1069 2766 1631 
L 2766 1759 
L 2194 1759 
z
M 3341 1997 
L 3341 0 
L 2766 0 
L 2766 531 
Q 2569 213 2275 61 
Q 1981 -91 1556 -91 
Q 1019 -91 701 211 
Q 384 513 384 1019 
Q 384 1609 779 1909 
Q 1175 2209 1959 2209 
L 2766 2209 
L 2766 2266 
Q 2766 2663 2505 2880 
Q 2244 3097 1772 3097 
Q 1472 3097 1187 3025 
Q 903 2953 641 2809 
L 641 3341 
Q 956 3463 1253 3523 
Q 1550 3584 1831 3584 
Q 2591 3584 2966 3190 
Q 3341 2797 3341 1997 
z
" transform="scale(0.015625)"/>
      <path id="DejaVuSans-2e" d="M 684 794 
L 1344 794 
L 1344 0 
L 684 0 
L 684 794 
z
" transform="scale(0.015625)"/>
      <path id="DejaVuSans-25" d="M 4653 2053 
Q 4381 2053 4226 1822 
Q 4072 1591 4072 1178 
Q 4072 772 4226 539 
Q 4381 306 4653 306 
Q 4919 306 5073 539 
Q 5228 772 5228 1178 
Q 5228 1588 5073 1820 
Q 4919 2053 4653 2053 
z
M 4653 2450 
Q 5147 2450 5437 2106 
Q 5728 1763 5728 1178 
Q 5728 594 5436 251 
Q 5144 -91 4653 -91 
Q 4153 -91 3862 251 
Q 3572 594 3572 1178 
Q 3572 1766 3864 2108 
Q 4156 2450 4653 2450 
z
M 1428 4353 
Q 1159 4353 1004 4120 
Q 850 3888 850 3481 
Q 850 3069 1003 2837 
Q 1156 2606 1428 2606 
Q 1700 2606 1854 2837 
Q 2009 3069 2009 3481 
Q 2009 3884 1853 4118 
Q 1697 4353 1428 4353 
z
M 4250 4750 
L 4750 4750 
L 1831 -91 
L 1331 -91 
L 4250 4750 
z
M 1428 4750 
Q 1922 4750 2215 4408 
Q 2509 4066 2509 3481 
Q 2509 2891 2217 2550 
Q 1925 2209 1428 2209 
Q 931 2209 642 2551 
Q 353 2894 353 3481 
Q 353 4063 643 4406 
Q 934 4750 1428 4750 
z
" transform="scale(0.015625)"/>
      <path id="DejaVuSans-29" d="M 513 4856 
L 1013 4856 
Q 1481 4119 1714 3412 
Q 1947 2706 1947 2009 
Q 1947 1309 1714 600 
Q 1481 -109 1013 -844 
L 513 -844 
Q 928 -128 1133 580 
Q 1338 1288 1338 2009 
Q 1338 2731 1133 3434 
Q 928 4138 513 4856 
z
" transform="scale(0.015625)"/>
     </defs>
     <use xlink:href="#DejaVuSans-41"/>
     <use xlink:href="#DejaVuSans-75" x="68.408203"/>
     <use xlink:href="#DejaVuSans-20" x="131.787109"/>
     <use xlink:href="#DejaVuSans-63" x="163.574219"/>
     <use xlink:href="#DejaVuSans-6f" x="218.554688"/>
     <use xlink:href="#DejaVuSans-6e" x="279.736328"/>
     <use xlink:href="#DejaVuSans-74" x="343.115234"/>
     <use xlink:href="#DejaVuSans-65" x="382.324219"/>
     <use xlink:href="#DejaVuSans-6e" x="443.847656"/>
     <use xlink:href="#DejaVuSans-74" x="507.226562"/>
     <use xlink:href="#DejaVuSans-20" x="546.435547"/>
     <use xlink:href="#DejaVuSans-28" x="578.222656"/>
     <use xlink:href="#DejaVuSans-61" x="617.236328"/>
     <use xlink:href="#DejaVuSans-74" x="678.515625"/>
     <use xlink:href="#DejaVuSans-2e" x="717.724609"/>
     <use xlink:href="#DejaVuSans-25" x="749.511719"/>
     <use xlink:href="#DejaVuSans-29" x="844.53125"/>
    </g>
   </g>
   <g id="text_20">
    <!-- Cu content (at.%) -->
    <g transform="translate(152.067805 48.824386) rotate(-300) scale(0.12 -0.12)">
     <defs>
      <path id="DejaVuSans-43" d="M 4122 4306 
L 4122 3641 
Q 3803 3938 3442 4084 
Q 3081 4231 2675 4231 
Q 1875 4231 1450 3742 
Q 1025 3253 1025 2328 
Q 1025 1406 1450 917 
Q 1875 428 2675 428 
Q 3081 428 3442 575 
Q 3803 722 4122 1019 
L 4122 359 
Q 3791 134 3420 21 
Q 3050 -91 2638 -91 
Q 1578 -91 968 557 
Q 359 1206 359 2328 
Q 359 3453 968 4101 
Q 1578 4750 2638 4750 
Q 3056 4750 3426 4639 
Q 3797 4528 4122 4306 
z
" transform="scale(0.015625)"/>
     </defs>
     <use xlink:href="#DejaVuSans-43"/>
     <use xlink:href="#DejaVuSans-75" x="69.824219"/>
     <use xlink:href="#DejaVuSans-20" x="133.203125"/>
     <use xlink:href="#DejaVuSans-63" x="164.990234"/>
     <use xlink:href="#DejaVuSans-6f" x="219.970703"/>
     <use xlink:href="#DejaVuSans-6e" x="281.152344"/>
     <use xlink:href="#DejaVuSans-74" x="344.53125"/>
     <use xlink:href="#DejaVuSans-65" x="383.740234"/>
     <use xlink:href="#DejaVuSans-6e" x="445.263672"/>
     <use xlink:href="#DejaVuSans-74" x="508.642578"/>
     <use xlink:href="#DejaVuSans-20" x="547.851562"/>
     <use xlink:href="#DejaVuSans-28" x="579.638672"/>
     <use xlink:href="#DejaVuSans-61" x="618.652344"/>
     <use xlink:href="#DejaVuSans-74" x="679.931641"/>
     <use xlink:href="#DejaVuSans-2e" x="719.140625"/>
     <use xlink:href="#DejaVuSans-25" x="750.927734"/>
     <use xlink:href="#DejaVuSans-29" x="845.947266"/>
    </g>
   </g>
   <g id="text_21">
    <!-- Pd content (at.%) -->
    <g transform="translate(28.223897 140.300214) rotate(-60) scale(0.12 -0.12)">
     <defs>
      <path id="DejaVuSans-50" d="M 1259 4147 
L 1259 2394 
L 2053 2394 
Q 2494 2394 2734 2622 
Q 2975 2850 2975 3272 
Q 2975 3691 2734 3919 
Q 2494 4147 2053 4147 
L 1259 4147 
z
M 628 4666 
L 2053 4666 
Q 2838 4666 3239 4311 
Q 3641 3956 3641 3272 
Q 3641 2581 3239 2228 
Q 2838 1875 2053 1875 
L 1259 1875 
L 1259 0 
L 628 0 
L 628 4666 
z
" transform="scale(0.015625)"/>
      <path id="DejaVuSans-64" d="M 2906 2969 
L 2906 4863 
L 3481 4863 
L 3481 0 
L 2906 0 
L 2906 525 
Q 2725 213 2448 61 
Q 2172 -91 1784 -91 
Q 1150 -91 751 415 
Q 353 922 353 1747 
Q 353 2572 751 3078 
Q 1150 3584 1784 3584 
Q 2172 3584 2448 3432 
Q 2725 3281 2906 2969 
z
M 947 1747 
Q 947 1113 1208 752 
Q 1469 391 1925 391 
Q 2381 391 2643 752 
Q 2906 1113 2906 1747 
Q 2906 2381 2643 2742 
Q 2381 3103 1925 3103 
Q 1469 3103 1208 2742 
Q 947 2381 947 1747 
z
" transform="scale(0.015625)"/>
     </defs>
     <use xlink:href="#DejaVuSans-50"/>
     <use xlink:href="#DejaVuSans-64" x="60.302734"/>
     <use xlink:href="#DejaVuSans-20" x="123.779297"/>
     <use xlink:href="#DejaVuSans-63" x="155.566406"/>
     <use xlink:href="#DejaVuSans-6f" x="210.546875"/>
     <use xlink:href="#DejaVuSans-6e" x="271.728516"/>
     <use xlink:href="#DejaVuSans-74" x="335.107422"/>
     <use xlink:href="#DejaVuSans-65" x="374.316406"/>
     <use xlink:href="#DejaVuSans-6e" x="435.839844"/>
     <use xlink:href="#DejaVuSans-74" x="499.21875"/>
     <use xlink:href="#DejaVuSans-20" x="538.427734"/>
     <use xlink:href="#DejaVuSans-28" x="570.214844"/>
     <use xlink:href="#DejaVuSans-61" x="609.228516"/>
     <use xlink:href="#DejaVuSans-74" x="670.507812"/>
     <use xlink:href="#DejaVuSans-2e" x="709.716797"/>
     <use xlink:href="#DejaVuSans-25" x="741.503906"/>
     <use xlink:href="#DejaVuSans-29" x="836.523438"/>
    </g>
   </g>
   <g id="text_22">
    <!-- Au -->
    <g transform="translate(7.2 194.692548) scale(0.14 -0.14)">
     <use xlink:href="#DejaVuSans-41"/>
     <use xlink:href="#DejaVuSans-75" x="68.408203"/>
    </g>
   </g>
   <g id="text_23">
    <!-- Cu -->
    <g transform="translate(207.45592 194.692548) scale(0.14 -0.14)">
     <use xlink:href="#DejaVuSans-43"/>
     <use xlink:href="#DejaVuSans-75" x="69.824219"/>
    </g>
   </g>
   <g id="text_24">
    <!-- Pd -->
    <g transform="translate(107.88796 17.837812) scale(0.14 -0.14)">
     <use xlink:href="#DejaVuSans-50"/>
     <use xlink:href="#DejaVuSans-64" x="60.302734"/>
    </g>
   </g>
  </g>
  <g id="axes_2">
   <g id="patch_3">
    <path d="M 216.992648 120.657328 
L 222.536648 120.657328 
L 222.536648 9.777328 
L 216.992648 9.777328 
z
" style="fill: #ffffff"/>
   </g>
   <g id="QuadMesh_1">
    <path d="M 216.992648 120.657328 
L 222.536648 120.657328 
L 222.536648 112.128097 
L 216.992648 112.128097 
L 216.992648 120.657328 
" clip-path="url(#pb20822f54d)" style="fill: #f1fd0f; stroke: #f1fd0f"/>
    <path d="M 216.992648 112.128097 
L 222.536648 112.128097 
L 222.536648 103.598866 
L 216.992648 103.598866 
L 216.992648 112.128097 
" clip-path="url(#pb20822f54d)" style="fill: #cff734; stroke: #cff734"/>
    <path d="M 216.992648 103.598866 
L 222.536648 103.598866 
L 222.536648 95.069635 
L 216.992648 95.069635 
L 216.992648 103.598866 
" clip-path="url(#pb20822f54d)" style="fill: #adf25a; stroke: #adf25a"/>
    <path d="M 216.992648 95.069635 
L 222.536648 95.069635 
L 222.536648 86.540405 
L 216.992648 86.540405 
L 216.992648 95.069635 
" clip-path="url(#pb20822f54d)" style="fill: #8ded7c; stroke: #8ded7c"/>
    <path d="M 216.992648 86.540405 
L 222.536648 86.540405 
L 222.536648 78.011174 
L 216.992648 78.011174 
L 216.992648 86.540405 
" clip-path="url(#pb20822f54d)" style="fill: #6ae7a2; stroke: #6ae7a2"/>
    <path d="M 216.992648 78.011174 
L 222.536648 78.011174 
L 222.536648 69.481943 
L 216.992648 69.481943 
L 216.992648 78.011174 
" clip-path="url(#pb20822f54d)" style="fill: #4ae2c6; stroke: #4ae2c6"/>
    <path d="M 216.992648 69.481943 
L 222.536648 69.481943 
L 222.536648 60.952712 
L 216.992648 60.952712 
L 216.992648 69.481943 
" clip-path="url(#pb20822f54d)" style="fill: #3accd4; stroke: #3accd4"/>
    <path d="M 216.992648 60.952712 
L 222.536648 60.952712 
L 222.536648 52.423482 
L 216.992648 52.423482 
L 216.992648 60.952712 
" clip-path="url(#pb20822f54d)" style="fill: #33b4d9; stroke: #33b4d9"/>
    <path d="M 216.992648 52.423482 
L 222.536648 52.423482 
L 222.536648 43.894251 
L 216.992648 43.894251 
L 216.992648 52.423482 
" clip-path="url(#pb20822f54d)" style="fill: #2c99df; stroke: #2c99df"/>
    <path d="M 216.992648 43.894251 
L 222.536648 43.894251 
L 222.536648 35.36502 
L 216.992648 35.36502 
L 216.992648 43.894251 
" clip-path="url(#pb20822f54d)" style="fill: #247fe4; stroke: #247fe4"/>
    <path d="M 216.992648 35.36502 
L 222.536648 35.36502 
L 222.536648 26.835789 
L 216.992648 26.835789 
L 216.992648 35.36502 
" clip-path="url(#pb20822f54d)" style="fill: #1d65ea; stroke: #1d65ea"/>
    <path d="M 216.992648 26.835789 
L 222.536648 26.835789 
L 222.536648 18.306559 
L 216.992648 18.306559 
L 216.992648 26.835789 
" clip-path="url(#pb20822f54d)" style="fill: #164bef; stroke: #164bef"/>
    <path d="M 216.992648 18.306559 
L 222.536648 18.306559 
L 222.536648 9.777328 
L 216.992648 9.777328 
L 216.992648 18.306559 
" clip-path="url(#pb20822f54d)" style="fill: #0e30f5; stroke: #0e30f5"/>
   </g>
   <g id="matplotlib.axis_3"/>
   <g id="matplotlib.axis_4">
    <g id="ytick_6">
     <g id="line2d_22">
      <defs>
       <path id="m2647ae42dd" d="M 0 0 
L 3.5 0 
" style="stroke: #000000; stroke-width: 0.8"/>
      </defs>
      <g>
       <use xlink:href="#m2647ae42dd" x="222.536648" y="120.657328" style="stroke: #000000; stroke-width: 0.8"/>
      </g>
     </g>
     <g id="text_25">
      <!-- 0.00 -->
      <g transform="translate(229.536648 124.456547) scale(0.1 -0.1)">
       <use xlink:href="#DejaVuSans-30"/>
       <use xlink:href="#DejaVuSans-2e" x="63.623047"/>
       <use xlink:href="#DejaVuSans-30" x="95.410156"/>
       <use xlink:href="#DejaVuSans-30" x="159.033203"/>
      </g>
     </g>
    </g>
    <g id="ytick_7">
     <g id="line2d_23">
      <g>
       <use xlink:href="#m2647ae42dd" x="222.536648" y="103.598866" style="stroke: #000000; stroke-width: 0.8"/>
      </g>
     </g>
     <g id="text_26">
      <!-- 0.16 -->
      <g transform="translate(229.536648 107.398085) scale(0.1 -0.1)">
       <use xlink:href="#DejaVuSans-30"/>
       <use xlink:href="#DejaVuSans-2e" x="63.623047"/>
       <use xlink:href="#DejaVuSans-31" x="95.410156"/>
       <use xlink:href="#DejaVuSans-36" x="159.033203"/>
      </g>
     </g>
    </g>
    <g id="ytick_8">
     <g id="line2d_24">
      <g>
       <use xlink:href="#m2647ae42dd" x="222.536648" y="86.540405" style="stroke: #000000; stroke-width: 0.8"/>
      </g>
     </g>
     <g id="text_27">
      <!-- 0.32 -->
      <g transform="translate(229.536648 90.339623) scale(0.1 -0.1)">
       <defs>
        <path id="DejaVuSans-33" d="M 2597 2516 
Q 3050 2419 3304 2112 
Q 3559 1806 3559 1356 
Q 3559 666 3084 287 
Q 2609 -91 1734 -91 
Q 1441 -91 1130 -33 
Q 819 25 488 141 
L 488 750 
Q 750 597 1062 519 
Q 1375 441 1716 441 
Q 2309 441 2620 675 
Q 2931 909 2931 1356 
Q 2931 1769 2642 2001 
Q 2353 2234 1838 2234 
L 1294 2234 
L 1294 2753 
L 1863 2753 
Q 2328 2753 2575 2939 
Q 2822 3125 2822 3475 
Q 2822 3834 2567 4026 
Q 2313 4219 1838 4219 
Q 1578 4219 1281 4162 
Q 984 4106 628 3988 
L 628 4550 
Q 988 4650 1302 4700 
Q 1616 4750 1894 4750 
Q 2613 4750 3031 4423 
Q 3450 4097 3450 3541 
Q 3450 3153 3228 2886 
Q 3006 2619 2597 2516 
z
" transform="scale(0.015625)"/>
       </defs>
       <use xlink:href="#DejaVuSans-30"/>
       <use xlink:href="#DejaVuSans-2e" x="63.623047"/>
       <use xlink:href="#DejaVuSans-33" x="95.410156"/>
       <use xlink:href="#DejaVuSans-32" x="159.033203"/>
      </g>
     </g>
    </g>
    <g id="ytick_9">
     <g id="line2d_25">
      <g>
       <use xlink:href="#m2647ae42dd" x="222.536648" y="69.481943" style="stroke: #000000; stroke-width: 0.8"/>
      </g>
     </g>
     <g id="text_28">
      <!-- 0.48 -->
      <g transform="translate(229.536648 73.281162) scale(0.1 -0.1)">
       <use xlink:href="#DejaVuSans-30"/>
       <use xlink:href="#DejaVuSans-2e" x="63.623047"/>
       <use xlink:href="#DejaVuSans-34" x="95.410156"/>
       <use xlink:href="#DejaVuSans-38" x="159.033203"/>
      </g>
     </g>
    </g>
    <g id="ytick_10">
     <g id="line2d_26">
      <g>
       <use xlink:href="#m2647ae42dd" x="222.536648" y="52.423482" style="stroke: #000000; stroke-width: 0.8"/>
      </g>
     </g>
     <g id="text_29">
      <!-- 0.64 -->
      <g transform="translate(229.536648 56.2227) scale(0.1 -0.1)">
       <use xlink:href="#DejaVuSans-30"/>
       <use xlink:href="#DejaVuSans-2e" x="63.623047"/>
       <use xlink:href="#DejaVuSans-36" x="95.410156"/>
       <use xlink:href="#DejaVuSans-34" x="159.033203"/>
      </g>
     </g>
    </g>
    <g id="ytick_11">
     <g id="line2d_27">
      <g>
       <use xlink:href="#m2647ae42dd" x="222.536648" y="35.36502" style="stroke: #000000; stroke-width: 0.8"/>
      </g>
     </g>
     <g id="text_30">
      <!-- 0.80 -->
      <g transform="translate(229.536648 39.164239) scale(0.1 -0.1)">
       <use xlink:href="#DejaVuSans-30"/>
       <use xlink:href="#DejaVuSans-2e" x="63.623047"/>
       <use xlink:href="#DejaVuSans-38" x="95.410156"/>
       <use xlink:href="#DejaVuSans-30" x="159.033203"/>
      </g>
     </g>
    </g>
    <g id="ytick_12">
     <g id="line2d_28">
      <g>
       <use xlink:href="#m2647ae42dd" x="222.536648" y="18.306559" style="stroke: #000000; stroke-width: 0.8"/>
      </g>
     </g>
     <g id="text_31">
      <!-- 0.96 -->
      <g transform="translate(229.536648 22.105777) scale(0.1 -0.1)">
       <defs>
        <path id="DejaVuSans-39" d="M 703 97 
L 703 672 
Q 941 559 1184 500 
Q 1428 441 1663 441 
Q 2288 441 2617 861 
Q 2947 1281 2994 2138 
Q 2813 1869 2534 1725 
Q 2256 1581 1919 1581 
Q 1219 1581 811 2004 
Q 403 2428 403 3163 
Q 403 3881 828 4315 
Q 1253 4750 1959 4750 
Q 2769 4750 3195 4129 
Q 3622 3509 3622 2328 
Q 3622 1225 3098 567 
Q 2575 -91 1691 -91 
Q 1453 -91 1209 -44 
Q 966 3 703 97 
z
M 1959 2075 
Q 2384 2075 2632 2365 
Q 2881 2656 2881 3163 
Q 2881 3666 2632 3958 
Q 2384 4250 1959 4250 
Q 1534 4250 1286 3958 
Q 1038 3666 1038 3163 
Q 1038 2656 1286 2365 
Q 1534 2075 1959 2075 
z
" transform="scale(0.015625)"/>
       </defs>
       <use xlink:href="#DejaVuSans-30"/>
       <use xlink:href="#DejaVuSans-2e" x="63.623047"/>
       <use xlink:href="#DejaVuSans-39" x="95.410156"/>
       <use xlink:href="#DejaVuSans-36" x="159.033203"/>
      </g>
     </g>
    </g>
   </g>
   <g id="LineCollection_1"/>
   <g id="patch_4">
    <path d="M 216.992648 120.657328 
L 219.764648 120.657328 
L 222.536648 120.657328 
L 222.536648 9.777328 
L 219.764648 9.777328 
L 216.992648 9.777328 
L 216.992648 120.657328 
z
" style="fill: none; stroke: #000000; stroke-width: 0.8; stroke-linejoin: miter; stroke-linecap: square"/>
   </g>
  </g>
 </g>
 <defs>
  <clipPath id="p0cd6864794">
   <rect x="27.272648" y="25.619193" width="178.56" height="156.812269"/>
  </clipPath>
  <clipPath id="pb20822f54d">
   <rect x="216.992648" y="9.777328" width="5.544" height="110.88"/>
  </clipPath>
 </defs>
</svg>
