<?xml version="1.0" encoding="utf-8" standalone="no"?>
<!DOCTYPE svg PUBLIC "-//W3C//DTD SVG 1.1//EN"
  "http://www.w3.org/Graphics/SVG/1.1/DTD/svg11.dtd">
<svg xmlns:xlink="http://www.w3.org/1999/xlink" width="259.002273pt" height="210.047792pt" viewBox="0 0 259.002273 210.047792" xmlns="http://www.w3.org/2000/svg" version="1.1">
 <metadata>
  <rdf:RDF xmlns:dc="http://purl.org/dc/elements/1.1/" xmlns:cc="http://creativecommons.org/ns#" xmlns:rdf="http://www.w3.org/1999/02/22-rdf-syntax-ns#">
   <cc:Work>
    <dc:type rdf:resource="http://purl.org/dc/dcmitype/StillImage"/>
    <dc:date>2024-01-12T09:43:12.980714</dc:date>
    <dc:format>image/svg+xml</dc:format>
    <dc:creator>
     <cc:Agent>
      <dc:title>Matplotlib v3.7.0, https://matplotlib.org/</dc:title>
     </cc:Agent>
    </dc:creator>
   </cc:Work>
  </rdf:RDF>
 </metadata>
 <defs>
  <style type="text/css">*{stroke-linejoin: round; stroke-linecap: butt}</style>
 </defs>
 <g id="figure_1">
  <g id="patch_1">
   <path d="M 0 210.047792 
L 259.002273 210.047792 
L 259.002273 0 
L 0 0 
z
" style="fill: #ffffff"/>
  </g>
  <g id="axes_1">
   <g id="patch_2">
    <path d="M 27.272648 182.431462 
L 205.832648 182.431462 
L 205.832648 25.619193 
L 27.272648 25.619193 
z
" style="fill: #ffffff"/>
   </g>
   <g id="PathCollection_1">
    <defs>
     <path id="m08843d99dc" d="M 183.886322 -59.68689 
L 179.332145 -60.122247 
L 175.056612 -60.922441 
L 171.631907 -60.842998 
L 167.067265 -60.702444 
L 163.461739 -60.749805 
L 158.744557 -61.059843 
L 155.612648 -61.212735 
L 150.220527 -61.765942 
L 147.821587 -61.776176 
L 141.387227 -63.007712 
L 140.453384 -63.072029 
L 133.727984 -62.215954 
L 131.732022 -62.02414 
L 125.520875 -62.373131 
L 123.814657 -62.368817 
L 117.69671 -61.867028 
L 115.367614 -61.796063 
L 109.005853 -63.848602 
L 108.506708 -63.970579 
L 108.35512 -63.989181 
L 107.722758 -63.848602 
L 101.372511 -62.025461 
L 99.473616 -62.38276 
L 92.328424 -63.632325 
L 92.065523 -63.609521 
L 84.498148 -63.136806 
L 83.691273 -63.162848 
L 76.908955 -62.223721 
L 74.994672 -62.157848 
L 68.607288 -62.544675 
L 66.896076 -62.188622 
L 60.552872 -62.437378 
L 59.050723 -62.658026 
L 53.415508 -60.741701 
L 49.835785 -60.755239 
L 47.563557 -56.819624 
L 43.505375 -49.790647 
L 39.447193 -42.76167 
L 35.389011 -35.732693 
L 43.505375 -35.732693 
L 51.621739 -35.732693 
L 59.738102 -35.732693 
L 67.854466 -35.732693 
L 75.97083 -35.732693 
L 84.087193 -35.732693 
L 92.203557 -35.732693 
L 100.31992 -35.732693 
L 108.436284 -35.732693 
L 116.552648 -35.732693 
L 124.669011 -35.732693 
L 132.785375 -35.732693 
L 140.901739 -35.732693 
L 149.018102 -35.732693 
L 157.134466 -35.732693 
L 165.25083 -35.732693 
L 173.367193 -35.732693 
L 181.483557 -35.732693 
L 189.59992 -35.732693 
L 197.716284 -35.732693 
L 193.658102 -42.76167 
L 189.59992 -49.790647 
L 185.541739 -56.819624 
" style="stroke: #f5ea26"/>
    </defs>
    <g clip-path="url(#pedb99e4629)">
     <use xlink:href="#m08843d99dc" x="0" y="210.047792" style="fill: #f5ea26; stroke: #f5ea26"/>
    </g>
   </g>
   <g id="PathCollection_2">
    <defs>
     <path id="m00eec4e77d" d="M 177.252003 -71.177867 
L 170.324814 -72.637 
L 168.003673 -73.138492 
L 162.169216 -72.569044 
L 160.178102 -72.634823 
L 154.466343 -73.285232 
L 151.541739 -73.535489 
L 146.547595 -73.627512 
L 143.005332 -74.263026 
L 139.05361 -74.705504 
L 134.698625 -74.59271 
L 131.018548 -74.846321 
L 126.250509 -75.167322 
L 122.906031 -74.852984 
L 118.076761 -75.266714 
L 115.239474 -75.632072 
L 109.572912 -75.937859 
L 107.427344 -76.15902 
L 101.112346 -76.534034 
L 99.175305 -75.924024 
L 93.314586 -75.982196 
L 91.34108 -76.412702 
L 84.89883 -76.50076 
L 83.286476 -76.519672 
L 77.462176 -75.323469 
L 74.21594 -74.866998 
L 69.618893 -74.850479 
L 66.287888 -75.193164 
L 61.55219 -74.764463 
L 57.520068 -74.064807 
L 55.67992 -70.877579 
L 51.621739 -63.848602 
L 49.835785 -60.755239 
L 53.415508 -60.741701 
L 59.050723 -62.658026 
L 60.552872 -62.437378 
L 66.896076 -62.188622 
L 68.607288 -62.544675 
L 74.994672 -62.157848 
L 76.908955 -62.223721 
L 83.691273 -63.162848 
L 84.498148 -63.136806 
L 92.065523 -63.609521 
L 92.328424 -63.632325 
L 99.473616 -62.38276 
L 101.372511 -62.025461 
L 107.722758 -63.848602 
L 108.35512 -63.989181 
L 108.506708 -63.970579 
L 109.005853 -63.848602 
L 115.367614 -61.796063 
L 117.69671 -61.867028 
L 123.814657 -62.368817 
L 125.520875 -62.373131 
L 131.732022 -62.02414 
L 133.727984 -62.215954 
L 140.453384 -63.072029 
L 141.387227 -63.007712 
L 147.821587 -61.776176 
L 150.220527 -61.765942 
L 155.612648 -61.212735 
L 158.744557 -61.059843 
L 163.461739 -60.749805 
L 167.067265 -60.702444 
L 171.631907 -60.842998 
L 175.056612 -60.922441 
L 179.332145 -60.122247 
L 183.886322 -59.68689 
L 181.483557 -63.848602 
L 177.425375 -70.877579 
" style="stroke: #fdc826"/>
    </defs>
    <g clip-path="url(#pedb99e4629)">
     <use xlink:href="#m00eec4e77d" x="0" y="210.047792" style="fill: #fdc826; stroke: #fdc826"/>
    </g>
   </g>
   <g id="PathCollection_3">
    <defs>
     <path id="m0a7ba34f32" d="M 172.000448 -80.273828 
L 167.253151 -81.374679 
L 162.849311 -82.066109 
L 159.589262 -82.158387 
L 154.403662 -82.636447 
L 151.868267 -82.843186 
L 145.927927 -84.935533 
L 145.114405 -85.203107 
L 144.800776 -85.211179 
L 143.201375 -84.935533 
L 137.426843 -83.925252 
L 136.245643 -83.899916 
L 129.907755 -84.935533 
L 128.836874 -85.125505 
L 128.582902 -85.185452 
L 121.195144 -85.947595 
L 119.961164 -86.060786 
L 113.287346 -86.308841 
L 111.72424 -86.269604 
L 105.549011 -86.963607 
L 103.185826 -87.000616 
L 97.479927 -87.045497 
L 94.834497 -87.407588 
L 89.406702 -87.120215 
L 86.73116 -87.385025 
L 81.988975 -88.330289 
L 78.586501 -87.434034 
L 73.351294 -87.427342 
L 70.42568 -87.511036 
L 64.825427 -86.718061 
L 63.796284 -84.935533 
L 59.738102 -77.906556 
L 57.520068 -74.064807 
L 61.55219 -74.764463 
L 66.287888 -75.193164 
L 69.618893 -74.850479 
L 74.21594 -74.866998 
L 77.462176 -75.323469 
L 83.286476 -76.519672 
L 84.89883 -76.50076 
L 91.34108 -76.412702 
L 93.314586 -75.982196 
L 99.175305 -75.924024 
L 101.112346 -76.534034 
L 107.427344 -76.15902 
L 109.572912 -75.937859 
L 115.239474 -75.632072 
L 118.076761 -75.266714 
L 122.906031 -74.852984 
L 126.250509 -75.167322 
L 131.018548 -74.846321 
L 134.698625 -74.59271 
L 139.05361 -74.705504 
L 143.005332 -74.263026 
L 146.547595 -73.627512 
L 151.541739 -73.535489 
L 154.466343 -73.285232 
L 160.178102 -72.634823 
L 162.169216 -72.569044 
L 168.003673 -73.138492 
L 170.324814 -72.637 
L 177.252003 -71.177867 
L 173.367193 -77.906556 
" style="stroke: #fca934"/>
    </defs>
    <g clip-path="url(#pedb99e4629)">
     <use xlink:href="#m0a7ba34f32" x="0" y="210.047792" style="fill: #fca934; stroke: #fca934"/>
    </g>
   </g>
   <g id="PathCollection_4">
    <defs>
     <path id="m94553cf3f9" d="M 166.65877 -89.525885 
L 164.075393 -89.928594 
L 157.755875 -90.888198 
L 156.571149 -90.988816 
L 153.834036 -91.96451 
L 149.729279 -93.196304 
L 148.251497 -93.292309 
L 141.753069 -93.439057 
L 139.90852 -93.684815 
L 134.035764 -94.130247 
L 131.349304 -94.451857 
L 126.58552 -95.284001 
L 122.507011 -95.709205 
L 118.845685 -95.936168 
L 114.290266 -95.883071 
L 110.664414 -95.823744 
L 105.650173 -96.790196 
L 103.127339 -96.827102 
L 97.294597 -97.204524 
L 95.360631 -97.432722 
L 89.233569 -97.10868 
L 87.129426 -97.233812 
L 80.852584 -97.567018 
L 78.911189 -97.057362 
L 72.512801 -97.95399 
L 71.341966 -98.005037 
L 67.854466 -91.96451 
L 64.825427 -86.718061 
L 70.42568 -87.511036 
L 73.351294 -87.427342 
L 78.586501 -87.434034 
L 81.988975 -88.330289 
L 86.73116 -87.385025 
L 89.406702 -87.120215 
L 94.834497 -87.407588 
L 97.479927 -87.045497 
L 103.185826 -87.000616 
L 105.549011 -86.963607 
L 111.72424 -86.269604 
L 113.287346 -86.308841 
L 119.961164 -86.060786 
L 121.195144 -85.947595 
L 128.582902 -85.185452 
L 128.836874 -85.125505 
L 129.907755 -84.935533 
L 136.245643 -83.899916 
L 137.426843 -83.925252 
L 143.201375 -84.935533 
L 144.800776 -85.211179 
L 145.114405 -85.203107 
L 145.927927 -84.935533 
L 151.868267 -82.843186 
L 154.403662 -82.636447 
L 159.589262 -82.158387 
L 162.849311 -82.066109 
L 167.253151 -81.374679 
L 172.000448 -80.273828 
L 169.309011 -84.935533 
" style="stroke: #f68f44"/>
    </defs>
    <g clip-path="url(#pedb99e4629)">
     <use xlink:href="#m94553cf3f9" x="0" y="210.047792" style="fill: #f68f44; stroke: #f68f44"/>
    </g>
   </g>
   <g id="PathCollection_5">
    <defs>
     <path id="m200c4107a9" d="M 162.321045 -97.039046 
L 160.214297 -97.298934 
L 156.021365 -98.993487 
L 153.527984 -99.775853 
L 152.524476 -99.949247 
L 145.720063 -100.310093 
L 143.893788 -100.840083 
L 138.315205 -101.542457 
L 134.165157 -103.632612 
L 131.644011 -104.045564 
L 125.873328 -103.936527 
L 123.62926 -104.221562 
L 116.569522 -105.993238 
L 116.535416 -105.992617 
L 116.39032 -106.022464 
L 108.987882 -106.977859 
L 107.667035 -107.354843 
L 100.900846 -107.028657 
L 99.87744 -106.788864 
L 93.352866 -108.013127 
L 90.624987 -108.756627 
L 85.728169 -108.864718 
L 82.87527 -108.121576 
L 76.75703 -107.384203 
L 75.97083 -106.022464 
L 71.912648 -98.993487 
L 71.341966 -98.005037 
L 72.512801 -97.95399 
L 78.911189 -97.057362 
L 80.852584 -97.567018 
L 87.129426 -97.233812 
L 89.233569 -97.10868 
L 95.360631 -97.432722 
L 97.294597 -97.204524 
L 103.127339 -96.827102 
L 105.650173 -96.790196 
L 110.664414 -95.823744 
L 114.290266 -95.883071 
L 118.845685 -95.936168 
L 122.507011 -95.709205 
L 126.58552 -95.284001 
L 131.349304 -94.451857 
L 134.035764 -94.130247 
L 139.90852 -93.684815 
L 141.753069 -93.439057 
L 148.251497 -93.292309 
L 149.729279 -93.196304 
L 153.834036 -91.96451 
L 156.571149 -90.988816 
L 157.755875 -90.888198 
L 164.075393 -89.928594 
L 166.65877 -89.525885 
L 165.25083 -91.96451 
" style="stroke: #eb7655"/>
    </defs>
    <g clip-path="url(#pedb99e4629)">
     <use xlink:href="#m200c4107a9" x="0" y="210.047792" style="fill: #eb7655; stroke: #eb7655"/>
    </g>
   </g>
   <g id="PathCollection_6">
    <defs>
     <path id="m6a93e3f078" d="M 158.232381 -104.120819 
L 156.373335 -104.704146 
L 149.048517 -105.969784 
L 148.989495 -105.972914 
L 148.818753 -106.022464 
L 142.238438 -108.337696 
L 138.740485 -109.765866 
L 135.732225 -111.126559 
L 129.527753 -111.664832 
L 127.914535 -111.643875 
L 123.646477 -113.051441 
L 121.138949 -113.966171 
L 120.036273 -114.046602 
L 113.448381 -114.703671 
L 111.013439 -115.616656 
L 106.622177 -116.938292 
L 101.984654 -117.197014 
L 98.138545 -116.302165 
L 94.21921 -116.589205 
L 90.840735 -117.719941 
L 84.504466 -119.357681 
L 83.360992 -118.822601 
L 80.029011 -113.051441 
L 76.75703 -107.384203 
L 82.87527 -108.121576 
L 85.728169 -108.864718 
L 90.624987 -108.756627 
L 93.352866 -108.013127 
L 99.87744 -106.788864 
L 100.900846 -107.028657 
L 107.667035 -107.354843 
L 108.987882 -106.977859 
L 116.39032 -106.022464 
L 116.535416 -105.992617 
L 116.569522 -105.993238 
L 123.62926 -104.221562 
L 125.873328 -103.936527 
L 131.644011 -104.045564 
L 134.165157 -103.632612 
L 138.315205 -101.542457 
L 143.893788 -100.840083 
L 145.720063 -100.310093 
L 152.524476 -99.949247 
L 153.527984 -99.775853 
L 156.021365 -98.993487 
L 160.214297 -97.298934 
L 162.321045 -97.039046 
L 161.192648 -98.993487 
" style="stroke: #dc5d67"/>
    </defs>
    <g clip-path="url(#pedb99e4629)">
     <use xlink:href="#m6a93e3f078" x="0" y="210.047792" style="fill: #dc5d67; stroke: #dc5d67"/>
    </g>
   </g>
   <g id="PathCollection_7">
    <defs>
     <path id="mbbbbd36165" d="M 153.552998 -112.225748 
L 152.712865 -112.421981 
L 151.047193 -113.051441 
L 145.750607 -114.420951 
L 143.279187 -115.962557 
L 139.387355 -117.457429 
L 133.430018 -118.963864 
L 132.214183 -119.091085 
L 129.629011 -120.080418 
L 125.413011 -121.369064 
L 123.53793 -122.039508 
L 117.949011 -122.498991 
L 114.020523 -124.466187 
L 111.620695 -125.595979 
L 105.034878 -125.971827 
L 103.766154 -126.04947 
L 100.046335 -127.109395 
L 96.783146 -128.012499 
L 95.578515 -128.292773 
L 89.502494 -129.459995 
L 88.145375 -127.109395 
L 84.087193 -120.080418 
L 83.360992 -118.822601 
L 84.504466 -119.357681 
L 90.840735 -117.719941 
L 94.21921 -116.589205 
L 98.138545 -116.302165 
L 101.984654 -117.197014 
L 106.622177 -116.938292 
L 111.013439 -115.616656 
L 113.448381 -114.703671 
L 120.036273 -114.046602 
L 121.138949 -113.966171 
L 123.646477 -113.051441 
L 127.914535 -111.643875 
L 129.527753 -111.664832 
L 135.732225 -111.126559 
L 138.740485 -109.765866 
L 142.238438 -108.337696 
L 148.818753 -106.022464 
L 148.989495 -105.972914 
L 149.048517 -105.969784 
L 156.373335 -104.704146 
L 158.232381 -104.120819 
L 157.134466 -106.022464 
" style="stroke: #cb4679"/>
    </defs>
    <g clip-path="url(#pedb99e4629)">
     <use xlink:href="#mbbbbd36165" x="0" y="210.047792" style="fill: #cb4679; stroke: #cb4679"/>
    </g>
   </g>
   <g id="PathCollection_8">
    <defs>
     <path id="m2a0d0af3ab" d="M 149.780438 -118.760014 
L 148.453809 -119.103034 
L 146.886919 -120.080418 
L 142.346907 -122.583524 
L 137.781596 -125.484665 
L 136.159103 -125.923886 
L 131.288182 -127.109395 
L 128.995537 -127.57418 
L 127.971371 -128.418517 
L 122.91479 -131.099971 
L 117.576558 -134.138373 
L 116.741937 -134.466232 
L 116.279885 -134.610812 
L 109.692153 -136.313602 
L 106.04083 -138.287421 
L 102.643083 -138.162207 
L 96.394251 -140.937832 
L 96.180167 -141.026064 
L 92.203557 -134.138373 
L 89.502494 -129.459995 
L 95.578515 -128.292773 
L 96.783146 -128.012499 
L 100.046335 -127.109395 
L 103.766154 -126.04947 
L 105.034878 -125.971827 
L 111.620695 -125.595979 
L 114.020523 -124.466187 
L 117.949011 -122.498991 
L 123.53793 -122.039508 
L 125.413011 -121.369064 
L 129.629011 -120.080418 
L 132.214183 -119.091085 
L 133.430018 -118.963864 
L 139.387355 -117.457429 
L 143.279187 -115.962557 
L 145.750607 -114.420951 
L 151.047193 -113.051441 
L 152.712865 -112.421981 
L 153.552998 -112.225748 
L 153.076284 -113.051441 
" style="stroke: #b7318b"/>
    </defs>
    <g clip-path="url(#pedb99e4629)">
     <use xlink:href="#m2a0d0af3ab" x="0" y="210.047792" style="fill: #b7318b; stroke: #b7318b"/>
    </g>
   </g>
   <g id="PathCollection_9">
    <defs>
     <path id="m2a1ea0ad09" d="M 145.24596 -126.613961 
L 144.812014 -126.853214 
L 144.40888 -127.109395 
L 138.7634 -130.434662 
L 133.401675 -133.070909 
L 132.298228 -133.294609 
L 131.274758 -134.138373 
L 126.836736 -137.892981 
L 120.889189 -140.685218 
L 120.435391 -140.86348 
L 119.46428 -141.16735 
L 113.841362 -143.500243 
L 110.090132 -148.196327 
L 109.075918 -149.304205 
L 107.204336 -150.330123 
L 102.641608 -152.217607 
L 100.31992 -148.196327 
L 96.261739 -141.16735 
L 96.180167 -141.026064 
L 96.394251 -140.937832 
L 102.643083 -138.162207 
L 106.04083 -138.287421 
L 109.692153 -136.313602 
L 116.279885 -134.610812 
L 116.741937 -134.466232 
L 117.576558 -134.138373 
L 122.91479 -131.099971 
L 127.971371 -128.418517 
L 128.995537 -127.57418 
L 131.288182 -127.109395 
L 136.159103 -125.923886 
L 137.781596 -125.484665 
L 142.346907 -122.583524 
L 146.886919 -120.080418 
L 148.453809 -119.103034 
L 149.780438 -118.760014 
L 149.018102 -120.080418 
" style="stroke: #9f1a9c"/>
    </defs>
    <g clip-path="url(#pedb99e4629)">
     <use xlink:href="#m2a1ea0ad09" x="0" y="210.047792" style="fill: #9f1a9c; stroke: #9f1a9c"/>
    </g>
   </g>
   <g id="PathCollection_10">
    <defs>
     <path id="mc5bef66994" d="M 140.341404 -135.108901 
L 135.315247 -138.520239 
L 132.455182 -141.16735 
L 129.769279 -142.972296 
L 126.13055 -145.664867 
L 123.83537 -146.752418 
L 121.663516 -148.196327 
L 118.443456 -151.471302 
L 114.923451 -155.225304 
L 113.22825 -156.496254 
L 109.023986 -162.254281 
L 108.690468 -162.694541 
L 108.436284 -162.254281 
L 104.378102 -155.225304 
L 102.641608 -152.217607 
L 107.204336 -150.330123 
L 109.075918 -149.304205 
L 110.090132 -148.196327 
L 113.841362 -143.500243 
L 119.46428 -141.16735 
L 120.435391 -140.86348 
L 120.889189 -140.685218 
L 126.836736 -137.892981 
L 131.274758 -134.138373 
L 132.298228 -133.294609 
L 133.401675 -133.070909 
L 138.7634 -130.434662 
L 144.40888 -127.109395 
L 144.812014 -126.853214 
L 145.24596 -126.613961 
L 144.95992 -127.109395 
L 140.901739 -134.138373 
" style="stroke: #8405a7"/>
    </defs>
    <g clip-path="url(#pedb99e4629)">
     <use xlink:href="#mc5bef66994" x="0" y="210.047792" style="fill: #8405a7; stroke: #8405a7"/>
    </g>
   </g>
   <g id="PathCollection_11">
    <defs>
     <path id="m8c4d40d46b" d="M 134.223632 -145.705192 
L 132.151191 -147.097888 
L 130.666765 -148.196327 
L 126.741055 -151.785212 
L 124.007618 -155.225304 
L 121.857656 -157.384871 
L 117.017605 -162.254281 
L 116.748845 -162.594104 
L 114.702117 -165.459494 
L 112.196457 -168.767091 
L 108.690468 -162.694541 
L 109.023986 -162.254281 
L 113.22825 -156.496254 
L 114.923451 -155.225304 
L 118.443456 -151.471302 
L 121.663516 -148.196327 
L 123.83537 -146.752418 
L 126.13055 -145.664867 
L 129.769279 -142.972296 
L 132.455182 -141.16735 
L 135.315247 -138.520239 
L 140.341404 -135.108901 
L 136.843557 -141.16735 
" style="stroke: #6700a8"/>
    </defs>
    <g clip-path="url(#pedb99e4629)">
     <use xlink:href="#m8c4d40d46b" x="0" y="210.047792" style="fill: #6700a8; stroke: #6700a8"/>
    </g>
   </g>
   <g id="PathCollection_12">
    <defs>
     <path id="m05fbfbdd13" d="M 126.224648 -159.55984 
L 124.255401 -161.537886 
L 123.543325 -162.254281 
L 119.502488 -167.363554 
L 118.131257 -169.283258 
L 115.118661 -173.828498 
L 112.494466 -169.283258 
L 112.196457 -168.767091 
L 114.702117 -165.459494 
L 116.748845 -162.594104 
L 117.017605 -162.254281 
L 121.857656 -157.384871 
L 124.007618 -155.225304 
L 126.741055 -151.785212 
L 130.666765 -148.196327 
L 132.151191 -147.097888 
L 134.223632 -145.705192 
L 132.785375 -148.196327 
L 128.727193 -155.225304 
" style="stroke: #47039f"/>
    </defs>
    <g clip-path="url(#pedb99e4629)">
     <use xlink:href="#m05fbfbdd13" x="0" y="210.047792" style="fill: #47039f; stroke: #47039f"/>
    </g>
   </g>
   <g id="PathCollection_13">
    <defs>
     <path id="m1723fb0953" d="M 115.118661 -173.828498 
L 118.131257 -169.283258 
L 119.502488 -167.363554 
L 123.543325 -162.254281 
L 124.255401 -161.537886 
L 126.224648 -159.55984 
L 124.669011 -162.254281 
L 120.61083 -169.283258 
L 116.552648 -176.312235 
" style="stroke: #230690"/>
    </defs>
    <g clip-path="url(#pedb99e4629)">
     <use xlink:href="#m1723fb0953" x="0" y="210.047792" style="fill: #230690; stroke: #230690"/>
    </g>
   </g>
   <g id="line2d_1">
    <path d="M 35.389011 174.315099 
L 116.552648 33.735557 
" clip-path="url(#pedb99e4629)" style="fill: none; stroke: #000000; stroke-linecap: square"/>
   </g>
   <g id="line2d_2">
    <path d="M 116.552648 33.735557 
L 197.716284 174.315099 
" clip-path="url(#pedb99e4629)" style="fill: none; stroke: #000000; stroke-linecap: square"/>
   </g>
   <g id="line2d_3">
    <path d="M 35.389011 174.315099 
L 197.716284 174.315099 
" clip-path="url(#pedb99e4629)" style="fill: none; stroke: #000000; stroke-linecap: square"/>
   </g>
   <g id="line2d_4">
    <path d="M 197.716284 174.315099 
L 200.063861 178.381221 
" clip-path="url(#pedb99e4629)" style="fill: none; stroke: #000000; stroke-linecap: square"/>
   </g>
   <g id="line2d_5">
    <path d="M 165.25083 174.315099 
L 167.598407 178.381221 
" clip-path="url(#pedb99e4629)" style="fill: none; stroke: #000000; stroke-linecap: square"/>
   </g>
   <g id="line2d_6">
    <path d="M 132.785375 174.315099 
L 135.132952 178.381221 
" clip-path="url(#pedb99e4629)" style="fill: none; stroke: #000000; stroke-linecap: square"/>
   </g>
   <g id="line2d_7">
    <path d="M 100.31992 174.315099 
L 102.667497 178.381221 
" clip-path="url(#pedb99e4629)" style="fill: none; stroke: #000000; stroke-linecap: square"/>
   </g>
   <g id="line2d_8">
    <path d="M 67.854466 174.315099 
L 70.202043 178.381221 
" clip-path="url(#pedb99e4629)" style="fill: none; stroke: #000000; stroke-linecap: square"/>
   </g>
   <g id="line2d_9">
    <path d="M 35.389011 174.315099 
L 37.736588 178.381221 
" clip-path="url(#pedb99e4629)" style="fill: none; stroke: #000000; stroke-linecap: square"/>
   </g>
   <g id="line2d_10">
    <path d="M 35.389011 174.315099 
L 30.693857 174.315099 
" clip-path="url(#pedb99e4629)" style="fill: none; stroke: #000000; stroke-linecap: square"/>
   </g>
   <g id="line2d_11">
    <path d="M 51.621739 146.19919 
L 46.926585 146.19919 
" clip-path="url(#pedb99e4629)" style="fill: none; stroke: #000000; stroke-linecap: square"/>
   </g>
   <g id="line2d_12">
    <path d="M 67.854466 118.083282 
L 63.159312 118.083282 
" clip-path="url(#pedb99e4629)" style="fill: none; stroke: #000000; stroke-linecap: square"/>
   </g>
   <g id="line2d_13">
    <path d="M 84.087193 89.967374 
L 79.392039 89.967374 
" clip-path="url(#pedb99e4629)" style="fill: none; stroke: #000000; stroke-linecap: square"/>
   </g>
   <g id="line2d_14">
    <path d="M 100.31992 61.851465 
L 95.624766 61.851465 
" clip-path="url(#pedb99e4629)" style="fill: none; stroke: #000000; stroke-linecap: square"/>
   </g>
   <g id="line2d_15">
    <path d="M 116.552648 33.735557 
L 111.857494 33.735557 
" clip-path="url(#pedb99e4629)" style="fill: none; stroke: #000000; stroke-linecap: square"/>
   </g>
   <g id="line2d_16">
    <path d="M 116.552648 33.735557 
L 118.900225 29.669434 
" clip-path="url(#pedb99e4629)" style="fill: none; stroke: #000000; stroke-linecap: square"/>
   </g>
   <g id="line2d_17">
    <path d="M 132.785375 61.851465 
L 135.132952 57.785343 
" clip-path="url(#pedb99e4629)" style="fill: none; stroke: #000000; stroke-linecap: square"/>
   </g>
   <g id="line2d_18">
    <path d="M 149.018102 89.967374 
L 151.365679 85.901251 
" clip-path="url(#pedb99e4629)" style="fill: none; stroke: #000000; stroke-linecap: square"/>
   </g>
   <g id="line2d_19">
    <path d="M 165.25083 118.083282 
L 167.598407 114.017159 
" clip-path="url(#pedb99e4629)" style="fill: none; stroke: #000000; stroke-linecap: square"/>
   </g>
   <g id="line2d_20">
    <path d="M 181.483557 146.19919 
L 183.831134 142.133068 
" clip-path="url(#pedb99e4629)" style="fill: none; stroke: #000000; stroke-linecap: square"/>
   </g>
   <g id="line2d_21">
    <path d="M 197.716284 174.315099 
L 200.063861 170.248976 
" clip-path="url(#pedb99e4629)" style="fill: none; stroke: #000000; stroke-linecap: square"/>
   </g>
   <g id="matplotlib.axis_1">
    <g id="xtick_1"/>
    <g id="xtick_2"/>
    <g id="xtick_3"/>
    <g id="xtick_4"/>
    <g id="xtick_5"/>
   </g>
   <g id="matplotlib.axis_2">
    <g id="ytick_1"/>
    <g id="ytick_2"/>
    <g id="ytick_3"/>
    <g id="ytick_4"/>
    <g id="ytick_5"/>
   </g>
   <g id="text_1">
    <!-- 0 -->
    <g transform="translate(198.768602 187.301281) scale(0.12 -0.12)">
     <defs>
      <path id="DejaVuSans-30" d="M 2034 4250 
Q 1547 4250 1301 3770 
Q 1056 3291 1056 2328 
Q 1056 1369 1301 889 
Q 1547 409 2034 409 
Q 2525 409 2770 889 
Q 3016 1369 3016 2328 
Q 3016 3291 2770 3770 
Q 2525 4250 2034 4250 
z
M 2034 4750 
Q 2819 4750 3233 4129 
Q 3647 3509 3647 2328 
Q 3647 1150 3233 529 
Q 2819 -91 2034 -91 
Q 1250 -91 836 529 
Q 422 1150 422 2328 
Q 422 3509 836 4129 
Q 1250 4750 2034 4750 
z
" transform="scale(0.015625)"/>
     </defs>
     <use xlink:href="#DejaVuSans-30"/>
    </g>
   </g>
   <g id="text_2">
    <!-- 20 -->
    <g transform="translate(162.485648 187.301281) scale(0.12 -0.12)">
     <defs>
      <path id="DejaVuSans-32" d="M 1228 531 
L 3431 531 
L 3431 0 
L 469 0 
L 469 531 
Q 828 903 1448 1529 
Q 2069 2156 2228 2338 
Q 2531 2678 2651 2914 
Q 2772 3150 2772 3378 
Q 2772 3750 2511 3984 
Q 2250 4219 1831 4219 
Q 1534 4219 1204 4116 
Q 875 4013 500 3803 
L 500 4441 
Q 881 4594 1212 4672 
Q 1544 4750 1819 4750 
Q 2544 4750 2975 4387 
Q 3406 4025 3406 3419 
Q 3406 3131 3298 2873 
Q 3191 2616 2906 2266 
Q 2828 2175 2409 1742 
Q 1991 1309 1228 531 
z
" transform="scale(0.015625)"/>
     </defs>
     <use xlink:href="#DejaVuSans-32"/>
     <use xlink:href="#DejaVuSans-30" x="63.623047"/>
    </g>
   </g>
   <g id="text_3">
    <!-- 40 -->
    <g transform="translate(130.020193 187.301281) scale(0.12 -0.12)">
     <defs>
      <path id="DejaVuSans-34" d="M 2419 4116 
L 825 1625 
L 2419 1625 
L 2419 4116 
z
M 2253 4666 
L 3047 4666 
L 3047 1625 
L 3713 1625 
L 3713 1100 
L 3047 1100 
L 3047 0 
L 2419 0 
L 2419 1100 
L 313 1100 
L 313 1709 
L 2253 4666 
z
" transform="scale(0.015625)"/>
     </defs>
     <use xlink:href="#DejaVuSans-34"/>
     <use xlink:href="#DejaVuSans-30" x="63.623047"/>
    </g>
   </g>
   <g id="text_4">
    <!-- 60 -->
    <g transform="translate(97.554739 187.301281) scale(0.12 -0.12)">
     <defs>
      <path id="DejaVuSans-36" d="M 2113 2584 
Q 1688 2584 1439 2293 
Q 1191 2003 1191 1497 
Q 1191 994 1439 701 
Q 1688 409 2113 409 
Q 2538 409 2786 701 
Q 3034 994 3034 1497 
Q 3034 2003 2786 2293 
Q 2538 2584 2113 2584 
z
M 3366 4563 
L 3366 3988 
Q 3128 4100 2886 4159 
Q 2644 4219 2406 4219 
Q 1781 4219 1451 3797 
Q 1122 3375 1075 2522 
Q 1259 2794 1537 2939 
Q 1816 3084 2150 3084 
Q 2853 3084 3261 2657 
Q 3669 2231 3669 1497 
Q 3669 778 3244 343 
Q 2819 -91 2113 -91 
Q 1303 -91 875 529 
Q 447 1150 447 2328 
Q 447 3434 972 4092 
Q 1497 4750 2381 4750 
Q 2619 4750 2861 4703 
Q 3103 4656 3366 4563 
z
" transform="scale(0.015625)"/>
     </defs>
     <use xlink:href="#DejaVuSans-36"/>
     <use xlink:href="#DejaVuSans-30" x="63.623047"/>
    </g>
   </g>
   <g id="text_5">
    <!-- 80 -->
    <g transform="translate(65.089284 187.301281) scale(0.12 -0.12)">
     <defs>
      <path id="DejaVuSans-38" d="M 2034 2216 
Q 1584 2216 1326 1975 
Q 1069 1734 1069 1313 
Q 1069 891 1326 650 
Q 1584 409 2034 409 
Q 2484 409 2743 651 
Q 3003 894 3003 1313 
Q 3003 1734 2745 1975 
Q 2488 2216 2034 2216 
z
M 1403 2484 
Q 997 2584 770 2862 
Q 544 3141 544 3541 
Q 544 4100 942 4425 
Q 1341 4750 2034 4750 
Q 2731 4750 3128 4425 
Q 3525 4100 3525 3541 
Q 3525 3141 3298 2862 
Q 3072 2584 2669 2484 
Q 3125 2378 3379 2068 
Q 3634 1759 3634 1313 
Q 3634 634 3220 271 
Q 2806 -91 2034 -91 
Q 1263 -91 848 271 
Q 434 634 434 1313 
Q 434 1759 690 2068 
Q 947 2378 1403 2484 
z
M 1172 3481 
Q 1172 3119 1398 2916 
Q 1625 2713 2034 2713 
Q 2441 2713 2670 2916 
Q 2900 3119 2900 3481 
Q 2900 3844 2670 4047 
Q 2441 4250 2034 4250 
Q 1625 4250 1398 4047 
Q 1172 3844 1172 3481 
z
" transform="scale(0.015625)"/>
     </defs>
     <use xlink:href="#DejaVuSans-38"/>
     <use xlink:href="#DejaVuSans-30" x="63.623047"/>
    </g>
   </g>
   <g id="text_6">
    <!-- 100 -->
    <g transform="translate(28.80633 187.301281) scale(0.12 -0.12)">
     <defs>
      <path id="DejaVuSans-31" d="M 794 531 
L 1825 531 
L 1825 4091 
L 703 3866 
L 703 4441 
L 1819 4666 
L 2450 4666 
L 2450 531 
L 3481 531 
L 3481 0 
L 794 0 
L 794 531 
z
" transform="scale(0.015625)"/>
     </defs>
     <use xlink:href="#DejaVuSans-31"/>
     <use xlink:href="#DejaVuSans-30" x="63.623047"/>
     <use xlink:href="#DejaVuSans-30" x="127.246094"/>
    </g>
   </g>
   <g id="text_7">
    <!-- 0 -->
    <g transform="translate(22.884193 176.750008) scale(0.12 -0.12)">
     <use xlink:href="#DejaVuSans-30"/>
    </g>
   </g>
   <g id="text_8">
    <!-- 20 -->
    <g transform="translate(31.48192 148.634099) scale(0.12 -0.12)">
     <use xlink:href="#DejaVuSans-32"/>
     <use xlink:href="#DejaVuSans-30" x="63.623047"/>
    </g>
   </g>
   <g id="text_9">
    <!-- 40 -->
    <g transform="translate(47.714648 120.518191) scale(0.12 -0.12)">
     <use xlink:href="#DejaVuSans-34"/>
     <use xlink:href="#DejaVuSans-30" x="63.623047"/>
    </g>
   </g>
   <g id="text_10">
    <!-- 60 -->
    <g transform="translate(63.947375 92.402283) scale(0.12 -0.12)">
     <use xlink:href="#DejaVuSans-36"/>
     <use xlink:href="#DejaVuSans-30" x="63.623047"/>
    </g>
   </g>
   <g id="text_11">
    <!-- 80 -->
    <g transform="translate(80.180102 64.286374) scale(0.12 -0.12)">
     <use xlink:href="#DejaVuSans-38"/>
     <use xlink:href="#DejaVuSans-30" x="63.623047"/>
    </g>
   </g>
   <g id="text_12">
    <!-- 100 -->
    <g transform="translate(88.77783 36.170466) scale(0.12 -0.12)">
     <use xlink:href="#DejaVuSans-31"/>
     <use xlink:href="#DejaVuSans-30" x="63.623047"/>
     <use xlink:href="#DejaVuSans-30" x="127.246094"/>
    </g>
   </g>
   <g id="text_13">
    <!-- 0 -->
    <g transform="translate(118.987557 30.489011) scale(0.12 -0.12)">
     <use xlink:href="#DejaVuSans-30"/>
    </g>
   </g>
   <g id="text_14">
    <!-- 20 -->
    <g transform="translate(135.220284 58.60492) scale(0.12 -0.12)">
     <use xlink:href="#DejaVuSans-32"/>
     <use xlink:href="#DejaVuSans-30" x="63.623047"/>
    </g>
   </g>
   <g id="text_15">
    <!-- 40 -->
    <g transform="translate(151.453011 86.720828) scale(0.12 -0.12)">
     <use xlink:href="#DejaVuSans-34"/>
     <use xlink:href="#DejaVuSans-30" x="63.623047"/>
    </g>
   </g>
   <g id="text_16">
    <!-- 60 -->
    <g transform="translate(167.685739 114.836737) scale(0.12 -0.12)">
     <use xlink:href="#DejaVuSans-36"/>
     <use xlink:href="#DejaVuSans-30" x="63.623047"/>
    </g>
   </g>
   <g id="text_17">
    <!-- 80 -->
    <g transform="translate(183.918466 142.952645) scale(0.12 -0.12)">
     <use xlink:href="#DejaVuSans-38"/>
     <use xlink:href="#DejaVuSans-30" x="63.623047"/>
    </g>
   </g>
   <g id="text_18">
    <!-- 100 -->
    <g transform="translate(200.151193 171.068553) scale(0.12 -0.12)">
     <use xlink:href="#DejaVuSans-31"/>
     <use xlink:href="#DejaVuSans-30" x="63.623047"/>
     <use xlink:href="#DejaVuSans-30" x="127.246094"/>
    </g>
   </g>
   <g id="text_19">
    <!-- Au content (at.%) -->
    <g transform="translate(63.54171 200.352167) scale(0.12 -0.12)">
     <defs>
      <path id="DejaVuSans-41" d="M 2188 4044 
L 1331 1722 
L 3047 1722 
L 2188 4044 
z
M 1831 4666 
L 2547 4666 
L 4325 0 
L 3669 0 
L 3244 1197 
L 1141 1197 
L 716 0 
L 50 0 
L 1831 4666 
z
" transform="scale(0.015625)"/>
      <path id="DejaVuSans-75" d="M 544 1381 
L 544 3500 
L 1119 3500 
L 1119 1403 
Q 1119 906 1312 657 
Q 1506 409 1894 409 
Q 2359 409 2629 706 
Q 2900 1003 2900 1516 
L 2900 3500 
L 3475 3500 
L 3475 0 
L 2900 0 
L 2900 538 
Q 2691 219 2414 64 
Q 2138 -91 1772 -91 
Q 1169 -91 856 284 
Q 544 659 544 1381 
z
M 1991 3584 
L 1991 3584 
z
" transform="scale(0.015625)"/>
      <path id="DejaVuSans-20" transform="scale(0.015625)"/>
      <path id="DejaVuSans-63" d="M 3122 3366 
L 3122 2828 
Q 2878 2963 2633 3030 
Q 2388 3097 2138 3097 
Q 1578 3097 1268 2742 
Q 959 2388 959 1747 
Q 959 1106 1268 751 
Q 1578 397 2138 397 
Q 2388 397 2633 464 
Q 2878 531 3122 666 
L 3122 134 
Q 2881 22 2623 -34 
Q 2366 -91 2075 -91 
Q 1284 -91 818 406 
Q 353 903 353 1747 
Q 353 2603 823 3093 
Q 1294 3584 2113 3584 
Q 2378 3584 2631 3529 
Q 2884 3475 3122 3366 
z
" transform="scale(0.015625)"/>
      <path id="DejaVuSans-6f" d="M 1959 3097 
Q 1497 3097 1228 2736 
Q 959 2375 959 1747 
Q 959 1119 1226 758 
Q 1494 397 1959 397 
Q 2419 397 2687 759 
Q 2956 1122 2956 1747 
Q 2956 2369 2687 2733 
Q 2419 3097 1959 3097 
z
M 1959 3584 
Q 2709 3584 3137 3096 
Q 3566 2609 3566 1747 
Q 3566 888 3137 398 
Q 2709 -91 1959 -91 
Q 1206 -91 779 398 
Q 353 888 353 1747 
Q 353 2609 779 3096 
Q 1206 3584 1959 3584 
z
" transform="scale(0.015625)"/>
      <path id="DejaVuSans-6e" d="M 3513 2113 
L 3513 0 
L 2938 0 
L 2938 2094 
Q 2938 2591 2744 2837 
Q 2550 3084 2163 3084 
Q 1697 3084 1428 2787 
Q 1159 2491 1159 1978 
L 1159 0 
L 581 0 
L 581 3500 
L 1159 3500 
L 1159 2956 
Q 1366 3272 1645 3428 
Q 1925 3584 2291 3584 
Q 2894 3584 3203 3211 
Q 3513 2838 3513 2113 
z
" transform="scale(0.015625)"/>
      <path id="DejaVuSans-74" d="M 1172 4494 
L 1172 3500 
L 2356 3500 
L 2356 3053 
L 1172 3053 
L 1172 1153 
Q 1172 725 1289 603 
Q 1406 481 1766 481 
L 2356 481 
L 2356 0 
L 1766 0 
Q 1100 0 847 248 
Q 594 497 594 1153 
L 594 3053 
L 172 3053 
L 172 3500 
L 594 3500 
L 594 4494 
L 1172 4494 
z
" transform="scale(0.015625)"/>
      <path id="DejaVuSans-65" d="M 3597 1894 
L 3597 1613 
L 953 1613 
Q 991 1019 1311 708 
Q 1631 397 2203 397 
Q 2534 397 2845 478 
Q 3156 559 3463 722 
L 3463 178 
Q 3153 47 2828 -22 
Q 2503 -91 2169 -91 
Q 1331 -91 842 396 
Q 353 884 353 1716 
Q 353 2575 817 3079 
Q 1281 3584 2069 3584 
Q 2775 3584 3186 3129 
Q 3597 2675 3597 1894 
z
M 3022 2063 
Q 3016 2534 2758 2815 
Q 2500 3097 2075 3097 
Q 1594 3097 1305 2825 
Q 1016 2553 972 2059 
L 3022 2063 
z
" transform="scale(0.015625)"/>
      <path id="DejaVuSans-28" d="M 1984 4856 
Q 1566 4138 1362 3434 
Q 1159 2731 1159 2009 
Q 1159 1288 1364 580 
Q 1569 -128 1984 -844 
L 1484 -844 
Q 1016 -109 783 600 
Q 550 1309 550 2009 
Q 550 2706 781 3412 
Q 1013 4119 1484 4856 
L 1984 4856 
z
" transform="scale(0.015625)"/>
      <path id="DejaVuSans-61" d="M 2194 1759 
Q 1497 1759 1228 1600 
Q 959 1441 959 1056 
Q 959 750 1161 570 
Q 1363 391 1709 391 
Q 2188 391 2477 730 
Q 2766 1069 2766 1631 
L 2766 1759 
L 2194 1759 
z
M 3341 1997 
L 3341 0 
L 2766 0 
L 2766 531 
Q 2569 213 2275 61 
Q 1981 -91 1556 -91 
Q 1019 -91 701 211 
Q 384 513 384 1019 
Q 384 1609 779 1909 
Q 1175 2209 1959 2209 
L 2766 2209 
L 2766 2266 
Q 2766 2663 2505 2880 
Q 2244 3097 1772 3097 
Q 1472 3097 1187 3025 
Q 903 2953 641 2809 
L 641 3341 
Q 956 3463 1253 3523 
Q 1550 3584 1831 3584 
Q 2591 3584 2966 3190 
Q 3341 2797 3341 1997 
z
" transform="scale(0.015625)"/>
      <path id="DejaVuSans-2e" d="M 684 794 
L 1344 794 
L 1344 0 
L 684 0 
L 684 794 
z
" transform="scale(0.015625)"/>
      <path id="DejaVuSans-25" d="M 4653 2053 
Q 4381 2053 4226 1822 
Q 4072 1591 4072 1178 
Q 4072 772 4226 539 
Q 4381 306 4653 306 
Q 4919 306 5073 539 
Q 5228 772 5228 1178 
Q 5228 1588 5073 1820 
Q 4919 2053 4653 2053 
z
M 4653 2450 
Q 5147 2450 5437 2106 
Q 5728 1763 5728 1178 
Q 5728 594 5436 251 
Q 5144 -91 4653 -91 
Q 4153 -91 3862 251 
Q 3572 594 3572 1178 
Q 3572 1766 3864 2108 
Q 4156 2450 4653 2450 
z
M 1428 4353 
Q 1159 4353 1004 4120 
Q 850 3888 850 3481 
Q 850 3069 1003 2837 
Q 1156 2606 1428 2606 
Q 1700 2606 1854 2837 
Q 2009 3069 2009 3481 
Q 2009 3884 1853 4118 
Q 1697 4353 1428 4353 
z
M 4250 4750 
L 4750 4750 
L 1831 -91 
L 1331 -91 
L 4250 4750 
z
M 1428 4750 
Q 1922 4750 2215 4408 
Q 2509 4066 2509 3481 
Q 2509 2891 2217 2550 
Q 1925 2209 1428 2209 
Q 931 2209 642 2551 
Q 353 2894 353 3481 
Q 353 4063 643 4406 
Q 934 4750 1428 4750 
z
" transform="scale(0.015625)"/>
      <path id="DejaVuSans-29" d="M 513 4856 
L 1013 4856 
Q 1481 4119 1714 3412 
Q 1947 2706 1947 2009 
Q 1947 1309 1714 600 
Q 1481 -109 1013 -844 
L 513 -844 
Q 928 -128 1133 580 
Q 1338 1288 1338 2009 
Q 1338 2731 1133 3434 
Q 928 4138 513 4856 
z
" transform="scale(0.015625)"/>
     </defs>
     <use xlink:href="#DejaVuSans-41"/>
     <use xlink:href="#DejaVuSans-75" x="68.408203"/>
     <use xlink:href="#DejaVuSans-20" x="131.787109"/>
     <use xlink:href="#DejaVuSans-63" x="163.574219"/>
     <use xlink:href="#DejaVuSans-6f" x="218.554688"/>
     <use xlink:href="#DejaVuSans-6e" x="279.736328"/>
     <use xlink:href="#DejaVuSans-74" x="343.115234"/>
     <use xlink:href="#DejaVuSans-65" x="382.324219"/>
     <use xlink:href="#DejaVuSans-6e" x="443.847656"/>
     <use xlink:href="#DejaVuSans-74" x="507.226562"/>
     <use xlink:href="#DejaVuSans-20" x="546.435547"/>
     <use xlink:href="#DejaVuSans-28" x="578.222656"/>
     <use xlink:href="#DejaVuSans-61" x="617.236328"/>
     <use xlink:href="#DejaVuSans-74" x="678.515625"/>
     <use xlink:href="#DejaVuSans-2e" x="717.724609"/>
     <use xlink:href="#DejaVuSans-25" x="749.511719"/>
     <use xlink:href="#DejaVuSans-29" x="844.53125"/>
    </g>
   </g>
   <g id="text_20">
    <!-- Cu content (at.%) -->
    <g transform="translate(152.067805 48.824386) rotate(-300) scale(0.12 -0.12)">
     <defs>
      <path id="DejaVuSans-43" d="M 4122 4306 
L 4122 3641 
Q 3803 3938 3442 4084 
Q 3081 4231 2675 4231 
Q 1875 4231 1450 3742 
Q 1025 3253 1025 2328 
Q 1025 1406 1450 917 
Q 1875 428 2675 428 
Q 3081 428 3442 575 
Q 3803 722 4122 1019 
L 4122 359 
Q 3791 134 3420 21 
Q 3050 -91 2638 -91 
Q 1578 -91 968 557 
Q 359 1206 359 2328 
Q 359 3453 968 4101 
Q 1578 4750 2638 4750 
Q 3056 4750 3426 4639 
Q 3797 4528 4122 4306 
z
" transform="scale(0.015625)"/>
     </defs>
     <use xlink:href="#DejaVuSans-43"/>
     <use xlink:href="#DejaVuSans-75" x="69.824219"/>
     <use xlink:href="#DejaVuSans-20" x="133.203125"/>
     <use xlink:href="#DejaVuSans-63" x="164.990234"/>
     <use xlink:href="#DejaVuSans-6f" x="219.970703"/>
     <use xlink:href="#DejaVuSans-6e" x="281.152344"/>
     <use xlink:href="#DejaVuSans-74" x="344.53125"/>
     <use xlink:href="#DejaVuSans-65" x="383.740234"/>
     <use xlink:href="#DejaVuSans-6e" x="445.263672"/>
     <use xlink:href="#DejaVuSans-74" x="508.642578"/>
     <use xlink:href="#DejaVuSans-20" x="547.851562"/>
     <use xlink:href="#DejaVuSans-28" x="579.638672"/>
     <use xlink:href="#DejaVuSans-61" x="618.652344"/>
     <use xlink:href="#DejaVuSans-74" x="679.931641"/>
     <use xlink:href="#DejaVuSans-2e" x="719.140625"/>
     <use xlink:href="#DejaVuSans-25" x="750.927734"/>
     <use xlink:href="#DejaVuSans-29" x="845.947266"/>
    </g>
   </g>
   <g id="text_21">
    <!-- Pd content (at.%) -->
    <g transform="translate(28.223897 140.300214) rotate(-60) scale(0.12 -0.12)">
     <defs>
      <path id="DejaVuSans-50" d="M 1259 4147 
L 1259 2394 
L 2053 2394 
Q 2494 2394 2734 2622 
Q 2975 2850 2975 3272 
Q 2975 3691 2734 3919 
Q 2494 4147 2053 4147 
L 1259 4147 
z
M 628 4666 
L 2053 4666 
Q 2838 4666 3239 4311 
Q 3641 3956 3641 3272 
Q 3641 2581 3239 2228 
Q 2838 1875 2053 1875 
L 1259 1875 
L 1259 0 
L 628 0 
L 628 4666 
z
" transform="scale(0.015625)"/>
      <path id="DejaVuSans-64" d="M 2906 2969 
L 2906 4863 
L 3481 4863 
L 3481 0 
L 2906 0 
L 2906 525 
Q 2725 213 2448 61 
Q 2172 -91 1784 -91 
Q 1150 -91 751 415 
Q 353 922 353 1747 
Q 353 2572 751 3078 
Q 1150 3584 1784 3584 
Q 2172 3584 2448 3432 
Q 2725 3281 2906 2969 
z
M 947 1747 
Q 947 1113 1208 752 
Q 1469 391 1925 391 
Q 2381 391 2643 752 
Q 2906 1113 2906 1747 
Q 2906 2381 2643 2742 
Q 2381 3103 1925 3103 
Q 1469 3103 1208 2742 
Q 947 2381 947 1747 
z
" transform="scale(0.015625)"/>
     </defs>
     <use xlink:href="#DejaVuSans-50"/>
     <use xlink:href="#DejaVuSans-64" x="60.302734"/>
     <use xlink:href="#DejaVuSans-20" x="123.779297"/>
     <use xlink:href="#DejaVuSans-63" x="155.566406"/>
     <use xlink:href="#DejaVuSans-6f" x="210.546875"/>
     <use xlink:href="#DejaVuSans-6e" x="271.728516"/>
     <use xlink:href="#DejaVuSans-74" x="335.107422"/>
     <use xlink:href="#DejaVuSans-65" x="374.316406"/>
     <use xlink:href="#DejaVuSans-6e" x="435.839844"/>
     <use xlink:href="#DejaVuSans-74" x="499.21875"/>
     <use xlink:href="#DejaVuSans-20" x="538.427734"/>
     <use xlink:href="#DejaVuSans-28" x="570.214844"/>
     <use xlink:href="#DejaVuSans-61" x="609.228516"/>
     <use xlink:href="#DejaVuSans-74" x="670.507812"/>
     <use xlink:href="#DejaVuSans-2e" x="709.716797"/>
     <use xlink:href="#DejaVuSans-25" x="741.503906"/>
     <use xlink:href="#DejaVuSans-29" x="836.523438"/>
    </g>
   </g>
   <g id="text_22">
    <!-- Au -->
    <g transform="translate(7.2 194.692548) scale(0.14 -0.14)">
     <use xlink:href="#DejaVuSans-41"/>
     <use xlink:href="#DejaVuSans-75" x="68.408203"/>
    </g>
   </g>
   <g id="text_23">
    <!-- Cu -->
    <g transform="translate(207.45592 194.692548) scale(0.14 -0.14)">
     <use xlink:href="#DejaVuSans-43"/>
     <use xlink:href="#DejaVuSans-75" x="69.824219"/>
    </g>
   </g>
   <g id="text_24">
    <!-- Pd -->
    <g transform="translate(107.88796 17.837812) scale(0.14 -0.14)">
     <use xlink:href="#DejaVuSans-50"/>
     <use xlink:href="#DejaVuSans-64" x="60.302734"/>
    </g>
   </g>
  </g>
  <g id="axes_2">
   <g id="patch_3">
    <path d="M 216.992648 120.657328 
L 222.536648 120.657328 
L 222.536648 9.777328 
L 216.992648 9.777328 
z
" style="fill: #ffffff"/>
   </g>
   <g id="QuadMesh_1">
    <path d="M 216.992648 120.657328 
L 222.536648 120.657328 
L 222.536648 112.128097 
L 216.992648 112.128097 
L 216.992648 120.657328 
" clip-path="url(#pa06040630f)" style="fill: #f5ea26; stroke: #f5ea26"/>
    <path d="M 216.992648 112.128097 
L 222.536648 112.128097 
L 222.536648 103.598866 
L 216.992648 103.598866 
L 216.992648 112.128097 
" clip-path="url(#pa06040630f)" style="fill: #fdc826; stroke: #fdc826"/>
    <path d="M 216.992648 103.598866 
L 222.536648 103.598866 
L 222.536648 95.069635 
L 216.992648 95.069635 
L 216.992648 103.598866 
" clip-path="url(#pa06040630f)" style="fill: #fca934; stroke: #fca934"/>
    <path d="M 216.992648 95.069635 
L 222.536648 95.069635 
L 222.536648 86.540405 
L 216.992648 86.540405 
L 216.992648 95.069635 
" clip-path="url(#pa06040630f)" style="fill: #f68f44; stroke: #f68f44"/>
    <path d="M 216.992648 86.540405 
L 222.536648 86.540405 
L 222.536648 78.011174 
L 216.992648 78.011174 
L 216.992648 86.540405 
" clip-path="url(#pa06040630f)" style="fill: #eb7655; stroke: #eb7655"/>
    <path d="M 216.992648 78.011174 
L 222.536648 78.011174 
L 222.536648 69.481943 
L 216.992648 69.481943 
L 216.992648 78.011174 
" clip-path="url(#pa06040630f)" style="fill: #dc5d67; stroke: #dc5d67"/>
    <path d="M 216.992648 69.481943 
L 222.536648 69.481943 
L 222.536648 60.952712 
L 216.992648 60.952712 
L 216.992648 69.481943 
" clip-path="url(#pa06040630f)" style="fill: #cb4679; stroke: #cb4679"/>
    <path d="M 216.992648 60.952712 
L 222.536648 60.952712 
L 222.536648 52.423482 
L 216.992648 52.423482 
L 216.992648 60.952712 
" clip-path="url(#pa06040630f)" style="fill: #b7318b; stroke: #b7318b"/>
    <path d="M 216.992648 52.423482 
L 222.536648 52.423482 
L 222.536648 43.894251 
L 216.992648 43.894251 
L 216.992648 52.423482 
" clip-path="url(#pa06040630f)" style="fill: #9f1a9c; stroke: #9f1a9c"/>
    <path d="M 216.992648 43.894251 
L 222.536648 43.894251 
L 222.536648 35.36502 
L 216.992648 35.36502 
L 216.992648 43.894251 
" clip-path="url(#pa06040630f)" style="fill: #8405a7; stroke: #8405a7"/>
    <path d="M 216.992648 35.36502 
L 222.536648 35.36502 
L 222.536648 26.835789 
L 216.992648 26.835789 
L 216.992648 35.36502 
" clip-path="url(#pa06040630f)" style="fill: #6700a8; stroke: #6700a8"/>
    <path d="M 216.992648 26.835789 
L 222.536648 26.835789 
L 222.536648 18.306559 
L 216.992648 18.306559 
L 216.992648 26.835789 
" clip-path="url(#pa06040630f)" style="fill: #47039f; stroke: #47039f"/>
    <path d="M 216.992648 18.306559 
L 222.536648 18.306559 
L 222.536648 9.777328 
L 216.992648 9.777328 
L 216.992648 18.306559 
" clip-path="url(#pa06040630f)" style="fill: #230690; stroke: #230690"/>
   </g>
   <g id="matplotlib.axis_3"/>
   <g id="matplotlib.axis_4">
    <g id="ytick_6">
     <g id="line2d_22">
      <defs>
       <path id="m6962e43313" d="M 0 0 
L 3.5 0 
" style="stroke: #000000; stroke-width: 0.8"/>
      </defs>
      <g>
       <use xlink:href="#m6962e43313" x="222.536648" y="120.657328" style="stroke: #000000; stroke-width: 0.8"/>
      </g>
     </g>
     <g id="text_25">
      <!-- 0.00 -->
      <g transform="translate(229.536648 124.456547) scale(0.1 -0.1)">
       <use xlink:href="#DejaVuSans-30"/>
       <use xlink:href="#DejaVuSans-2e" x="63.623047"/>
       <use xlink:href="#DejaVuSans-30" x="95.410156"/>
       <use xlink:href="#DejaVuSans-30" x="159.033203"/>
      </g>
     </g>
    </g>
    <g id="ytick_7">
     <g id="line2d_23">
      <g>
       <use xlink:href="#m6962e43313" x="222.536648" y="103.598866" style="stroke: #000000; stroke-width: 0.8"/>
      </g>
     </g>
     <g id="text_26">
      <!-- 0.16 -->
      <g transform="translate(229.536648 107.398085) scale(0.1 -0.1)">
       <use xlink:href="#DejaVuSans-30"/>
       <use xlink:href="#DejaVuSans-2e" x="63.623047"/>
       <use xlink:href="#DejaVuSans-31" x="95.410156"/>
       <use xlink:href="#DejaVuSans-36" x="159.033203"/>
      </g>
     </g>
    </g>
    <g id="ytick_8">
     <g id="line2d_24">
      <g>
       <use xlink:href="#m6962e43313" x="222.536648" y="86.540405" style="stroke: #000000; stroke-width: 0.8"/>
      </g>
     </g>
     <g id="text_27">
      <!-- 0.32 -->
      <g transform="translate(229.536648 90.339623) scale(0.1 -0.1)">
       <defs>
        <path id="DejaVuSans-33" d="M 2597 2516 
Q 3050 2419 3304 2112 
Q 3559 1806 3559 1356 
Q 3559 666 3084 287 
Q 2609 -91 1734 -91 
Q 1441 -91 1130 -33 
Q 819 25 488 141 
L 488 750 
Q 750 597 1062 519 
Q 1375 441 1716 441 
Q 2309 441 2620 675 
Q 2931 909 2931 1356 
Q 2931 1769 2642 2001 
Q 2353 2234 1838 2234 
L 1294 2234 
L 1294 2753 
L 1863 2753 
Q 2328 2753 2575 2939 
Q 2822 3125 2822 3475 
Q 2822 3834 2567 4026 
Q 2313 4219 1838 4219 
Q 1578 4219 1281 4162 
Q 984 4106 628 3988 
L 628 4550 
Q 988 4650 1302 4700 
Q 1616 4750 1894 4750 
Q 2613 4750 3031 4423 
Q 3450 4097 3450 3541 
Q 3450 3153 3228 2886 
Q 3006 2619 2597 2516 
z
" transform="scale(0.015625)"/>
       </defs>
       <use xlink:href="#DejaVuSans-30"/>
       <use xlink:href="#DejaVuSans-2e" x="63.623047"/>
       <use xlink:href="#DejaVuSans-33" x="95.410156"/>
       <use xlink:href="#DejaVuSans-32" x="159.033203"/>
      </g>
     </g>
    </g>
    <g id="ytick_9">
     <g id="line2d_25">
      <g>
       <use xlink:href="#m6962e43313" x="222.536648" y="69.481943" style="stroke: #000000; stroke-width: 0.8"/>
      </g>
     </g>
     <g id="text_28">
      <!-- 0.48 -->
      <g transform="translate(229.536648 73.281162) scale(0.1 -0.1)">
       <use xlink:href="#DejaVuSans-30"/>
       <use xlink:href="#DejaVuSans-2e" x="63.623047"/>
       <use xlink:href="#DejaVuSans-34" x="95.410156"/>
       <use xlink:href="#DejaVuSans-38" x="159.033203"/>
      </g>
     </g>
    </g>
    <g id="ytick_10">
     <g id="line2d_26">
      <g>
       <use xlink:href="#m6962e43313" x="222.536648" y="52.423482" style="stroke: #000000; stroke-width: 0.8"/>
      </g>
     </g>
     <g id="text_29">
      <!-- 0.64 -->
      <g transform="translate(229.536648 56.2227) scale(0.1 -0.1)">
       <use xlink:href="#DejaVuSans-30"/>
       <use xlink:href="#DejaVuSans-2e" x="63.623047"/>
       <use xlink:href="#DejaVuSans-36" x="95.410156"/>
       <use xlink:href="#DejaVuSans-34" x="159.033203"/>
      </g>
     </g>
    </g>
    <g id="ytick_11">
     <g id="line2d_27">
      <g>
       <use xlink:href="#m6962e43313" x="222.536648" y="35.36502" style="stroke: #000000; stroke-width: 0.8"/>
      </g>
     </g>
     <g id="text_30">
      <!-- 0.80 -->
      <g transform="translate(229.536648 39.164239) scale(0.1 -0.1)">
       <use xlink:href="#DejaVuSans-30"/>
       <use xlink:href="#DejaVuSans-2e" x="63.623047"/>
       <use xlink:href="#DejaVuSans-38" x="95.410156"/>
       <use xlink:href="#DejaVuSans-30" x="159.033203"/>
      </g>
     </g>
    </g>
    <g id="ytick_12">
     <g id="line2d_28">
      <g>
       <use xlink:href="#m6962e43313" x="222.536648" y="18.306559" style="stroke: #000000; stroke-width: 0.8"/>
      </g>
     </g>
     <g id="text_31">
      <!-- 0.96 -->
      <g transform="translate(229.536648 22.105777) scale(0.1 -0.1)">
       <defs>
        <path id="DejaVuSans-39" d="M 703 97 
L 703 672 
Q 941 559 1184 500 
Q 1428 441 1663 441 
Q 2288 441 2617 861 
Q 2947 1281 2994 2138 
Q 2813 1869 2534 1725 
Q 2256 1581 1919 1581 
Q 1219 1581 811 2004 
Q 403 2428 403 3163 
Q 403 3881 828 4315 
Q 1253 4750 1959 4750 
Q 2769 4750 3195 4129 
Q 3622 3509 3622 2328 
Q 3622 1225 3098 567 
Q 2575 -91 1691 -91 
Q 1453 -91 1209 -44 
Q 966 3 703 97 
z
M 1959 2075 
Q 2384 2075 2632 2365 
Q 2881 2656 2881 3163 
Q 2881 3666 2632 3958 
Q 2384 4250 1959 4250 
Q 1534 4250 1286 3958 
Q 1038 3666 1038 3163 
Q 1038 2656 1286 2365 
Q 1534 2075 1959 2075 
z
" transform="scale(0.015625)"/>
       </defs>
       <use xlink:href="#DejaVuSans-30"/>
       <use xlink:href="#DejaVuSans-2e" x="63.623047"/>
       <use xlink:href="#DejaVuSans-39" x="95.410156"/>
       <use xlink:href="#DejaVuSans-36" x="159.033203"/>
      </g>
     </g>
    </g>
   </g>
   <g id="LineCollection_1"/>
   <g id="patch_4">
    <path d="M 216.992648 120.657328 
L 219.764648 120.657328 
L 222.536648 120.657328 
L 222.536648 9.777328 
L 219.764648 9.777328 
L 216.992648 9.777328 
L 216.992648 120.657328 
z
" style="fill: none; stroke: #000000; stroke-width: 0.8; stroke-linejoin: miter; stroke-linecap: square"/>
   </g>
  </g>
 </g>
 <defs>
  <clipPath id="pedb99e4629">
   <rect x="27.272648" y="25.619193" width="178.56" height="156.812269"/>
  </clipPath>
  <clipPath id="pa06040630f">
   <rect x="216.992648" y="9.777328" width="5.544" height="110.88"/>
  </clipPath>
 </defs>
</svg>
