<?xml version="1.0" encoding="utf-8" standalone="no"?>
<!DOCTYPE svg PUBLIC "-//W3C//DTD SVG 1.1//EN"
  "http://www.w3.org/Graphics/SVG/1.1/DTD/svg11.dtd">
<svg xmlns:xlink="http://www.w3.org/1999/xlink" width="259.002273pt" height="210.047792pt" viewBox="0 0 259.002273 210.047792" xmlns="http://www.w3.org/2000/svg" version="1.1">
 <metadata>
  <rdf:RDF xmlns:dc="http://purl.org/dc/elements/1.1/" xmlns:cc="http://creativecommons.org/ns#" xmlns:rdf="http://www.w3.org/1999/02/22-rdf-syntax-ns#">
   <cc:Work>
    <dc:type rdf:resource="http://purl.org/dc/dcmitype/StillImage"/>
    <dc:date>2024-01-12T09:43:13.168637</dc:date>
    <dc:format>image/svg+xml</dc:format>
    <dc:creator>
     <cc:Agent>
      <dc:title>Matplotlib v3.7.0, https://matplotlib.org/</dc:title>
     </cc:Agent>
    </dc:creator>
   </cc:Work>
  </rdf:RDF>
 </metadata>
 <defs>
  <style type="text/css">*{stroke-linejoin: round; stroke-linecap: butt}</style>
 </defs>
 <g id="figure_1">
  <g id="patch_1">
   <path d="M 0 210.047792 
L 259.002273 210.047792 
L 259.002273 0 
L 0 0 
z
" style="fill: #ffffff"/>
  </g>
  <g id="axes_1">
   <g id="patch_2">
    <path d="M 27.272648 182.431462 
L 205.832648 182.431462 
L 205.832648 25.619193 
L 27.272648 25.619193 
z
" style="fill: #ffffff"/>
   </g>
   <g id="PathCollection_1">
    <defs>
     <path id="mb0fac63193" d="M 112.35887 -169.0484 
L 112.844094 -168.677685 
L 118.977758 -166.454696 
L 121.627511 -162.254281 
L 123.54209 -160.302396 
L 127.755081 -155.225304 
L 128.468684 -154.777553 
L 130.188139 -152.694872 
L 128.727193 -155.225304 
L 124.669011 -162.254281 
L 120.61083 -169.283258 
L 116.552648 -176.312235 
L 112.494466 -169.283258 
M 81.381739 -35.732693 
L 77.282565 -38.004686 
L 74.495127 -38.288685 
L 69.768703 -39.048248 
L 65.128821 -42.76167 
L 64.001055 -43.116343 
L 63.520729 -43.238946 
L 59.332284 -42.76167 
L 55.976861 -42.247355 
L 55.434795 -42.337101 
L 52.75803 -42.76167 
L 47.793808 -43.160477 
L 47.303833 -43.211525 
L 40.610209 -44.776072 
L 39.447193 -42.76167 
L 35.389011 -35.732693 
L 43.505375 -35.732693 
L 51.621739 -35.732693 
L 59.738102 -35.732693 
L 67.854466 -35.732693 
L 75.97083 -35.732693 
" style="stroke: #f1fd0f"/>
    </defs>
    <g clip-path="url(#pfbca7b06c8)">
     <use xlink:href="#mb0fac63193" x="0" y="210.047792" style="fill: #f1fd0f; stroke: #f1fd0f"/>
    </g>
   </g>
   <g id="PathCollection_2">
    <defs>
     <path id="md6e0311ca4" d="M 130.188139 -152.694872 
L 128.468684 -154.777553 
L 127.755081 -155.225304 
L 123.54209 -160.302396 
L 121.627511 -162.254281 
L 118.977758 -166.454696 
L 112.844094 -168.677685 
L 112.35887 -169.0484 
L 111.390331 -167.370839 
L 115.341437 -164.35216 
L 117.344687 -163.626134 
L 118.210095 -162.254281 
L 122.275887 -158.109268 
L 124.669011 -155.225304 
L 127.64802 -153.356122 
L 131.90793 -148.196327 
L 132.353026 -147.447477 
L 133.944856 -146.188048 
L 132.785375 -148.196327 
M 40.610209 -44.776072 
L 47.303833 -43.211525 
L 47.793808 -43.160477 
L 52.75803 -42.76167 
L 55.434795 -42.337101 
L 55.976861 -42.247355 
L 59.332284 -42.76167 
L 63.520729 -43.238946 
L 64.001055 -43.116343 
L 65.128821 -42.76167 
L 69.768703 -39.048248 
L 74.495127 -38.288685 
L 77.282565 -38.004686 
L 81.381739 -35.732693 
L 84.087193 -35.732693 
L 92.203557 -35.732693 
L 100.31992 -35.732693 
L 108.436284 -35.732693 
L 116.552648 -35.732693 
L 124.669011 -35.732693 
L 132.785375 -35.732693 
L 137.036804 -35.732693 
L 138.387821 -40.086927 
L 143.329711 -39.938064 
L 145.757683 -35.732693 
L 149.018102 -35.732693 
L 157.134466 -35.732693 
L 161.061739 -35.732693 
L 162.800607 -39.976604 
L 162.328939 -42.76167 
L 163.129507 -46.116409 
L 162.505589 -49.790647 
L 158.764985 -52.61479 
L 156.7353 -56.819624 
L 153.744548 -57.977091 
L 149.188973 -63.848602 
L 149.071266 -63.940684 
L 148.955022 -63.95786 
L 148.649177 -63.848602 
L 148.540669 -63.021663 
L 148.612284 -56.819624 
L 150.286284 -51.987203 
L 151.916804 -49.790647 
L 155.718821 -47.338679 
L 159.569375 -42.76167 
L 156.066523 -37.582424 
L 150.474091 -38.25454 
L 147.871898 -42.76167 
L 147.609011 -47.35003 
L 143.945375 -49.790647 
L 141.916284 -51.547892 
L 140.267648 -50.888925 
L 134.5921 -52.919986 
L 130.920805 -56.819624 
L 129.670956 -58.45427 
L 128.031505 -58.024592 
L 125.828492 -56.819624 
L 121.899899 -54.586891 
L 117.796762 -49.790647 
L 117.098941 -48.844439 
L 115.968937 -48.77963 
L 112.395486 -49.790647 
L 109.09083 -50.924353 
L 107.730513 -51.013078 
L 101.054591 -51.063135 
L 99.790592 -50.70747 
L 94.033717 -52.960578 
L 88.25969 -56.819624 
L 88.23081 -56.967603 
L 88.080444 -56.932088 
L 87.903095 -56.819624 
L 82.384206 -52.740307 
L 78.729594 -54.568967 
L 74.698036 -51.99519 
L 68.24629 -49.790647 
L 68.042594 -49.464801 
L 67.724157 -49.564946 
L 66.83992 -49.790647 
L 60.275537 -50.721512 
L 59.037923 -51.003393 
L 56.279826 -49.790647 
L 52.663918 -47.98554 
L 50.671951 -48.145568 
L 44.057288 -48.834706 
L 43.08471 -49.062034 
M 170.126095 -55.404394 
L 170.131616 -56.819624 
L 170.042418 -58.089922 
L 167.685739 -59.631215 
L 166.798796 -56.819624 
L 167.011927 -52.840958 
" style="stroke: #cff734"/>
    </defs>
    <g clip-path="url(#pfbca7b06c8)">
     <use xlink:href="#md6e0311ca4" x="0" y="210.047792" style="fill: #cff734; stroke: #cff734"/>
    </g>
   </g>
   <g id="PathCollection_3">
    <defs>
     <path id="ma6079dfbe0" d="M 184.08961 -59.334786 
L 180.434813 -56.819624 
L 179.551089 -53.137779 
L 175.603334 -53.663757 
L 175.615645 -56.819624 
L 175.365067 -60.388182 
L 175.327372 -63.848602 
L 177.504559 -70.740428 
L 177.425375 -70.877579 
L 177.365914 -70.980567 
L 175.879401 -70.877579 
L 170.160729 -69.402361 
L 168.907912 -70.182854 
L 162.812775 -68.071437 
L 159.874606 -63.848602 
L 158.646713 -61.229313 
L 156.174597 -62.186059 
L 154.884667 -63.848602 
L 150.843398 -67.010107 
L 146.852337 -67.599817 
L 142.084044 -65.896414 
L 138.830667 -67.435804 
L 135.168377 -67.976082 
L 129.369739 -69.764657 
L 127.685228 -69.072841 
L 123.817103 -65.32415 
L 118.010075 -66.37294 
L 115.662763 -65.389927 
L 108.74496 -64.383244 
L 107.510256 -65.452529 
L 105.972388 -63.848602 
L 102.049637 -60.852644 
L 98.026166 -59.875701 
L 96.897886 -63.848602 
L 93.201776 -65.577568 
L 91.602137 -64.890292 
L 84.538754 -64.630728 
L 83.56726 -64.749153 
L 81.847193 -63.848602 
L 78.40333 -59.635387 
L 75.405766 -56.819624 
L 72.853408 -55.19018 
L 70.50948 -54.389266 
L 65.360106 -54.111006 
L 62.469149 -54.520959 
L 56.180048 -55.953377 
L 54.839469 -55.363919 
L 49.607678 -53.279103 
L 45.736031 -53.654257 
L 43.505375 -49.790647 
L 43.08471 -49.062034 
L 44.057288 -48.834706 
L 50.671951 -48.145568 
L 52.663918 -47.98554 
L 56.279826 -49.790647 
L 59.037923 -51.003393 
L 60.275537 -50.721512 
L 66.83992 -49.790647 
L 67.724157 -49.564946 
L 68.042594 -49.464801 
L 68.24629 -49.790647 
L 74.698036 -51.99519 
L 78.729594 -54.568967 
L 82.384206 -52.740307 
L 87.903095 -56.819624 
L 88.080444 -56.932088 
L 88.23081 -56.967603 
L 88.25969 -56.819624 
L 94.033717 -52.960578 
L 99.790592 -50.70747 
L 101.054591 -51.063135 
L 107.730513 -51.013078 
L 109.09083 -50.924353 
L 112.395486 -49.790647 
L 115.968937 -48.77963 
L 117.098941 -48.844439 
L 117.796762 -49.790647 
L 121.899899 -54.586891 
L 125.828492 -56.819624 
L 128.031505 -58.024592 
L 129.670956 -58.45427 
L 130.920805 -56.819624 
L 134.5921 -52.919986 
L 140.267648 -50.888925 
L 141.916284 -51.547892 
L 143.945375 -49.790647 
L 147.609011 -47.35003 
L 147.871898 -42.76167 
L 150.474091 -38.25454 
L 156.066523 -37.582424 
L 159.569375 -42.76167 
L 155.718821 -47.338679 
L 151.916804 -49.790647 
L 150.286284 -51.987203 
L 148.612284 -56.819624 
L 148.540669 -63.021663 
L 148.649177 -63.848602 
L 148.955022 -63.95786 
L 149.071266 -63.940684 
L 149.188973 -63.848602 
L 153.744548 -57.977091 
L 156.7353 -56.819624 
L 158.764985 -52.61479 
L 162.505589 -49.790647 
L 163.129507 -46.116409 
L 162.328939 -42.76167 
L 162.800607 -39.976604 
L 161.061739 -35.732693 
L 165.25083 -35.732693 
L 173.367193 -35.732693 
L 174.224556 -35.732693 
L 177.549289 -42.547045 
L 177.763557 -42.76167 
L 183.085471 -47.016051 
L 183.667332 -49.790647 
L 187.194525 -53.956914 
L 185.541739 -56.819624 
M 133.944856 -146.188048 
L 132.353026 -147.447477 
L 131.90793 -148.196327 
L 127.64802 -153.356122 
L 124.669011 -155.225304 
L 122.275887 -158.109268 
L 118.210095 -162.254281 
L 117.344687 -163.626134 
L 115.341437 -164.35216 
L 111.390331 -167.370839 
L 110.421791 -165.693279 
L 114.923046 -162.254281 
L 115.982398 -161.26658 
L 119.070676 -157.892928 
L 121.009684 -155.916139 
L 121.582942 -155.225304 
L 126.827357 -151.934691 
L 129.913738 -148.196327 
L 131.370416 -145.745545 
L 136.580039 -141.623777 
M 145.757683 -35.732693 
L 143.329711 -39.938064 
L 138.387821 -40.086927 
L 137.036804 -35.732693 
L 140.901739 -35.732693 
M 167.011927 -52.840958 
L 166.798796 -56.819624 
L 167.685739 -59.631215 
L 170.042418 -58.089922 
L 170.131616 -56.819624 
L 170.126095 -55.404394 
" style="stroke: #adf25a"/>
    </defs>
    <g clip-path="url(#pfbca7b06c8)">
     <use xlink:href="#ma6079dfbe0" x="0" y="210.047792" style="fill: #adf25a; stroke: #adf25a"/>
    </g>
   </g>
   <g id="PathCollection_4">
    <defs>
     <path id="mb1b6ab28b3" d="M 187.194525 -53.956914 
L 183.667332 -49.790647 
L 183.085471 -47.016051 
L 177.763557 -42.76167 
L 177.549289 -42.547045 
L 174.224556 -35.732693 
L 181.483557 -35.732693 
L 187.720342 -35.732693 
L 188.913151 -36.922212 
L 192.1824 -42.76167 
L 192.061441 -45.527169 
L 189.59992 -49.790647 
M 181.496522 -63.826145 
L 181.453496 -63.796535 
L 181.452929 -63.848602 
L 181.463761 -63.882889 
L 177.504559 -70.740428 
L 175.327372 -63.848602 
L 175.365067 -60.388182 
L 175.615645 -56.819624 
L 175.603334 -53.663757 
L 179.551089 -53.137779 
L 180.434813 -56.819624 
L 184.08961 -59.334786 
M 174.392887 -76.130001 
L 172.256024 -75.981955 
L 168.37954 -72.48747 
L 161.744743 -71.833835 
L 159.985152 -72.969023 
L 155.908841 -70.877579 
L 154.296084 -68.764823 
L 152.61553 -70.079529 
L 147.214466 -70.877579 
L 151.982888 -72.771396 
L 152.111095 -77.906556 
L 150.390293 -80.28326 
L 148.147168 -79.415058 
L 143.839789 -77.906556 
L 144.148284 -72.283374 
L 139.348368 -75.216038 
L 135.73678 -72.794572 
L 130.1263 -73.300902 
L 124.942597 -77.906556 
L 124.747811 -78.043041 
L 124.58095 -78.059083 
L 121.310516 -77.906556 
L 122.105949 -73.467202 
L 120.913035 -70.877579 
L 120.719254 -70.689782 
L 120.522881 -70.725248 
L 114.128479 -68.047386 
L 110.560701 -67.5282 
L 106.693172 -70.877579 
L 104.829011 -71.658576 
L 103.606412 -72.214185 
L 101.139178 -70.877579 
L 98.339528 -67.278742 
L 95.067607 -68.809282 
L 90.477986 -66.837377 
L 85.711639 -66.662224 
L 82.216783 -67.088247 
L 76.029011 -63.848602 
L 75.994914 -63.806887 
L 75.889666 -63.708022 
L 67.975006 -63.63982 
L 67.705996 -63.591444 
L 62.720457 -58.683011 
L 57.42367 -59.839888 
L 53.825073 -60.032315 
L 48.562494 -58.549834 
L 47.563557 -56.819624 
L 45.736031 -53.654257 
L 49.607678 -53.279103 
L 54.839469 -55.363919 
L 56.180048 -55.953377 
L 62.469149 -54.520959 
L 65.360106 -54.111006 
L 70.50948 -54.389266 
L 72.853408 -55.19018 
L 75.405766 -56.819624 
L 78.40333 -59.635387 
L 81.847193 -63.848602 
L 83.56726 -64.749153 
L 84.538754 -64.630728 
L 91.602137 -64.890292 
L 93.201776 -65.577568 
L 96.897886 -63.848602 
L 98.026166 -59.875701 
L 102.049637 -60.852644 
L 105.972388 -63.848602 
L 107.510256 -65.452529 
L 108.74496 -64.383244 
L 115.662763 -65.389927 
L 118.010075 -66.37294 
L 123.817103 -65.32415 
L 127.685228 -69.072841 
L 129.369739 -69.764657 
L 135.168377 -67.976082 
L 138.830667 -67.435804 
L 142.084044 -65.896414 
L 146.852337 -67.599817 
L 150.843398 -67.010107 
L 154.884667 -63.848602 
L 156.174597 -62.186059 
L 158.646713 -61.229313 
L 159.874606 -63.848602 
L 162.812775 -68.071437 
L 168.907912 -70.182854 
L 170.160729 -69.402361 
L 175.879401 -70.877579 
L 177.365914 -70.980567 
M 136.580039 -141.623777 
L 131.370416 -145.745545 
L 129.913738 -148.196327 
L 126.827357 -151.934691 
L 121.582942 -155.225304 
L 121.009684 -155.916139 
L 119.070676 -157.892928 
L 115.982398 -161.26658 
L 114.923046 -162.254281 
L 110.421791 -165.693279 
L 109.453251 -164.015719 
L 111.758772 -162.254281 
L 114.875118 -159.348715 
L 118.649733 -155.225304 
L 119.509897 -153.318433 
L 121.811631 -153.145455 
L 126.006693 -150.51326 
L 127.919545 -148.196327 
L 130.387805 -144.043614 
L 134.023199 -141.16735 
L 135.866989 -139.475885 
L 140.459758 -134.903905 
L 136.843557 -141.16735 
" style="stroke: #8ded7c"/>
    </defs>
    <g clip-path="url(#pfbca7b06c8)">
     <use xlink:href="#mb1b6ab28b3" x="0" y="210.047792" style="fill: #8ded7c; stroke: #8ded7c"/>
    </g>
   </g>
   <g id="PathCollection_5">
    <defs>
     <path id="m8373c07e10" d="M 192.061441 -45.527169 
L 192.1824 -42.76167 
L 188.913151 -36.922212 
L 187.720342 -35.732693 
L 189.59992 -35.732693 
L 197.716284 -35.732693 
L 193.658102 -42.76167 
M 181.463761 -63.882889 
L 181.452929 -63.848602 
L 181.453496 -63.796535 
L 181.496522 -63.826145 
L 181.483557 -63.848602 
M 170.258294 -83.291328 
L 171.423421 -77.906556 
L 167.363725 -74.246913 
L 162.883083 -73.805498 
L 157.49547 -77.281279 
L 156.469566 -76.754915 
L 156.498318 -77.906556 
L 152.336663 -83.654472 
L 146.911801 -81.554777 
L 142.018669 -79.841137 
L 140.232808 -79.065178 
L 137.212482 -77.906556 
L 134.020847 -75.766656 
L 131.672274 -75.978608 
L 129.502352 -77.906556 
L 126.061138 -80.317791 
L 123.113253 -80.601209 
L 117.969914 -80.361332 
L 114.975902 -80.63756 
L 114.312384 -77.906556 
L 112.763631 -71.343786 
L 113.006664 -70.877579 
L 112.594194 -70.704844 
L 112.376443 -70.673157 
L 112.140396 -70.877579 
L 105.889974 -73.496217 
L 101.790671 -75.359141 
L 97.51041 -73.040341 
L 95.727572 -71.802782 
L 94.225578 -70.877579 
L 89.353836 -68.784462 
L 86.884524 -68.69372 
L 80.866307 -69.42734 
L 78.466233 -68.170768 
L 74.165167 -66.976101 
L 69.655056 -66.967314 
L 66.242648 -66.640353 
L 60.452042 -63.848602 
L 59.996845 -63.400445 
L 59.537307 -63.500814 
L 53.03328 -63.848602 
L 51.675136 -63.941088 
L 51.621739 -63.848602 
L 48.562494 -58.549834 
L 53.825073 -60.032315 
L 57.42367 -59.839888 
L 62.720457 -58.683011 
L 67.705996 -63.591444 
L 67.975006 -63.63982 
L 75.889666 -63.708022 
L 75.994914 -63.806887 
L 76.029011 -63.848602 
L 82.216783 -67.088247 
L 85.711639 -66.662224 
L 90.477986 -66.837377 
L 95.067607 -68.809282 
L 98.339528 -67.278742 
L 101.139178 -70.877579 
L 103.606412 -72.214185 
L 104.829011 -71.658576 
L 106.693172 -70.877579 
L 110.560701 -67.5282 
L 114.128479 -68.047386 
L 120.522881 -70.725248 
L 120.719254 -70.689782 
L 120.913035 -70.877579 
L 122.105949 -73.467202 
L 121.310516 -77.906556 
L 124.58095 -78.059083 
L 124.747811 -78.043041 
L 124.942597 -77.906556 
L 130.1263 -73.300902 
L 135.73678 -72.794572 
L 139.348368 -75.216038 
L 144.148284 -72.283374 
L 143.839789 -77.906556 
L 148.147168 -79.415058 
L 150.390293 -80.28326 
L 152.111095 -77.906556 
L 151.982888 -72.771396 
L 147.214466 -70.877579 
L 152.61553 -70.079529 
L 154.296084 -68.764823 
L 155.908841 -70.877579 
L 159.985152 -72.969023 
L 161.744743 -71.833835 
L 168.37954 -72.48747 
L 172.256024 -75.981955 
L 174.392887 -76.130001 
L 173.367193 -77.906556 
M 140.459758 -134.903905 
L 135.866989 -139.475885 
L 134.023199 -141.16735 
L 130.387805 -144.043614 
L 127.919545 -148.196327 
L 126.006693 -150.51326 
L 121.811631 -153.145455 
L 119.509897 -153.318433 
L 118.649733 -155.225304 
L 114.875118 -159.348715 
L 111.758772 -162.254281 
L 109.453251 -164.015719 
L 108.484711 -162.338159 
L 108.594498 -162.254281 
L 113.767838 -157.430849 
L 115.786818 -155.225304 
L 117.902696 -150.534679 
L 123.564625 -150.10918 
L 125.186029 -149.091828 
L 125.925353 -148.196327 
L 129.405195 -142.341682 
L 130.889468 -141.16735 
L 134.781914 -137.596479 
L 138.255745 -134.138373 
L 140.088274 -132.729411 
L 142.064953 -132.123625 
L 140.901739 -134.138373 
" style="stroke: #6ae7a2"/>
    </defs>
    <g clip-path="url(#pfbca7b06c8)">
     <use xlink:href="#m8373c07e10" x="0" y="210.047792" style="fill: #6ae7a2; stroke: #6ae7a2"/>
    </g>
   </g>
   <g id="PathCollection_6">
    <defs>
     <path id="m8fa1c02a57" d="M 167.802494 -87.544898 
L 162.01622 -86.362002 
L 160.43992 -86.239295 
L 154.254772 -86.976735 
L 151.1845 -88.212199 
L 148.88283 -84.935533 
L 145.676434 -83.694496 
L 143.880221 -83.065438 
L 139.117922 -80.996216 
L 133.275156 -78.754881 
L 131.917977 -79.408933 
L 127.374466 -82.59254 
L 121.645556 -83.143334 
L 119.518838 -83.044148 
L 113.252682 -83.622263 
L 111.864009 -77.906556 
L 110.869455 -73.69218 
L 106.950936 -75.333858 
L 101.2898 -77.906556 
L 100.689731 -78.547086 
L 100.019314 -78.427221 
L 99.334547 -77.906556 
L 94.243776 -74.372792 
L 88.569575 -70.877579 
L 88.229686 -70.731547 
L 88.057409 -70.725216 
L 86.807513 -70.877579 
L 82.14149 -74.536498 
L 79.25988 -72.209754 
L 75.014022 -70.877579 
L 72.341265 -70.135192 
L 71.483065 -70.13352 
L 64.606284 -69.474618 
L 62.361427 -68.392333 
L 57.124113 -68.376163 
L 54.344992 -68.565415 
L 51.675136 -63.941088 
L 53.03328 -63.848602 
L 59.537307 -63.500814 
L 59.996845 -63.400445 
L 60.452042 -63.848602 
L 66.242648 -66.640353 
L 69.655056 -66.967314 
L 74.165167 -66.976101 
L 78.466233 -68.170768 
L 80.866307 -69.42734 
L 86.884524 -68.69372 
L 89.353836 -68.784462 
L 94.225578 -70.877579 
L 95.727572 -71.802782 
L 97.51041 -73.040341 
L 101.790671 -75.359141 
L 105.889974 -73.496217 
L 112.140396 -70.877579 
L 112.376443 -70.673157 
L 112.594194 -70.704844 
L 113.006664 -70.877579 
L 112.763631 -71.343786 
L 114.312384 -77.906556 
L 114.975902 -80.63756 
L 117.969914 -80.361332 
L 123.113253 -80.601209 
L 126.061138 -80.317791 
L 129.502352 -77.906556 
L 131.672274 -75.978608 
L 134.020847 -75.766656 
L 137.212482 -77.906556 
L 140.232808 -79.065178 
L 142.018669 -79.841137 
L 146.911801 -81.554777 
L 152.336663 -83.654472 
L 156.498318 -77.906556 
L 156.469566 -76.754915 
L 157.49547 -77.281279 
L 162.883083 -73.805498 
L 167.363725 -74.246913 
L 171.423421 -77.906556 
L 170.258294 -83.291328 
L 169.309011 -84.935533 
M 142.064953 -132.123625 
L 140.088274 -132.729411 
L 138.255745 -134.138373 
L 134.781914 -137.596479 
L 130.889468 -141.16735 
L 129.405195 -142.341682 
L 125.925353 -148.196327 
L 125.186029 -149.091828 
L 123.564625 -150.10918 
L 117.902696 -150.534679 
L 115.786818 -155.225304 
L 113.767838 -157.430849 
L 108.594498 -162.254281 
L 108.484711 -162.338159 
L 108.436284 -162.254281 
L 106.752759 -159.33833 
L 111.941077 -156.183801 
L 112.660558 -155.512984 
L 112.923903 -155.225304 
L 114.458102 -151.824186 
L 116.162086 -148.196327 
L 116.223884 -147.626891 
L 117.122217 -147.209804 
L 123.556769 -146.269866 
L 126.776749 -141.16735 
L 128.402539 -140.605031 
L 129.821138 -139.272582 
L 133.696838 -135.717073 
L 135.282718 -134.138373 
L 139.174269 -131.146308 
L 143.371936 -129.859865 
M 168.455829 -77.906556 
L 166.34791 -76.006357 
L 164.021422 -75.77716 
L 160.720766 -77.906556 
L 162.175155 -83.233781 
L 167.582125 -81.944479 
" style="stroke: #4ae2c6"/>
    </defs>
    <g clip-path="url(#pfbca7b06c8)">
     <use xlink:href="#m8fa1c02a57" x="0" y="210.047792" style="fill: #4ae2c6; stroke: #4ae2c6"/>
    </g>
   </g>
   <g id="PathCollection_7">
    <defs>
     <path id="m49c040bc2a" d="M 165.919347 -90.806604 
L 164.403386 -90.496694 
L 158.258102 -90.018315 
L 156.15556 -90.268996 
L 151.94201 -91.96451 
L 149.408441 -92.640597 
L 148.78059 -92.375893 
L 147.976622 -91.96451 
L 144.246767 -86.170751 
L 142.625076 -84.935533 
L 138.003037 -82.927254 
L 135.024372 -81.784612 
L 128.820129 -84.774564 
L 128.687793 -84.86729 
L 127.97799 -84.935533 
L 128.561553 -85.22243 
L 127.269937 -91.96451 
L 126.018548 -94.301976 
L 123.988627 -93.142971 
L 121.988901 -91.96451 
L 119.916822 -86.13759 
L 113.636467 -86.913536 
L 110.465375 -88.450021 
L 109.370642 -84.935533 
L 110.127193 -80.835296 
L 109.415634 -77.906556 
L 109.131476 -76.702448 
L 108.011899 -77.171499 
L 106.394432 -77.906556 
L 102.636101 -81.918298 
L 98.437177 -81.167563 
L 94.148372 -77.906556 
L 92.75998 -76.942802 
L 91.032927 -75.878966 
L 89.234155 -77.906556 
L 90.28932 -81.222111 
L 90.044468 -84.935533 
L 88.821739 -86.107029 
L 87.624936 -85.836959 
L 86.307708 -84.935533 
L 82.822053 -80.097844 
L 79.949439 -77.906556 
L 77.235849 -75.715478 
L 74.146108 -74.746044 
L 69.45849 -75.128304 
L 65.83547 -74.409552 
L 62.116463 -73.787114 
L 57.349954 -73.770162 
L 55.67992 -70.877579 
L 54.344992 -68.565415 
L 57.124113 -68.376163 
L 62.361427 -68.392333 
L 64.606284 -69.474618 
L 71.483065 -70.13352 
L 72.341265 -70.135192 
L 75.014022 -70.877579 
L 79.25988 -72.209754 
L 82.14149 -74.536498 
L 86.807513 -70.877579 
L 88.057409 -70.725216 
L 88.229686 -70.731547 
L 88.569575 -70.877579 
L 94.243776 -74.372792 
L 99.334547 -77.906556 
L 100.019314 -78.427221 
L 100.689731 -78.547086 
L 101.2898 -77.906556 
L 106.950936 -75.333858 
L 110.869455 -73.69218 
L 111.864009 -77.906556 
L 113.252682 -83.622263 
L 119.518838 -83.044148 
L 121.645556 -83.143334 
L 127.374466 -82.59254 
L 131.917977 -79.408933 
L 133.275156 -78.754881 
L 139.117922 -80.996216 
L 143.880221 -83.065438 
L 145.676434 -83.694496 
L 148.88283 -84.935533 
L 151.1845 -88.212199 
L 154.254772 -86.976735 
L 160.43992 -86.239295 
L 162.01622 -86.362002 
L 167.802494 -87.544898 
M 160.296424 -100.545792 
L 160.053284 -98.993487 
L 159.311511 -95.735263 
L 163.450011 -95.083619 
L 161.192648 -98.993487 
M 143.371936 -129.859865 
L 139.174269 -131.146308 
L 135.282718 -134.138373 
L 133.696838 -135.717073 
L 129.821138 -139.272582 
L 128.402539 -140.605031 
L 126.776749 -141.16735 
L 123.556769 -146.269866 
L 117.122217 -147.209804 
L 116.223884 -147.626891 
L 116.162086 -148.196327 
L 114.458102 -151.824186 
L 112.923903 -155.225304 
L 112.660558 -155.512984 
L 111.941077 -156.183801 
L 106.752759 -159.33833 
L 104.980627 -156.268907 
L 106.697063 -155.225304 
L 111.350368 -153.243668 
L 113.721074 -148.196327 
L 114.169108 -144.067915 
L 120.416426 -141.16735 
L 120.581894 -141.117232 
L 120.642227 -141.112967 
L 127.355266 -138.791102 
L 132.308818 -134.138373 
L 132.629103 -133.867702 
L 133.165088 -133.48069 
L 138.260264 -129.563205 
L 144.678919 -127.596104 
M 167.582125 -81.944479 
L 162.175155 -83.233781 
L 160.720766 -77.906556 
L 164.021422 -75.77716 
L 166.34791 -76.006357 
L 168.455829 -77.906556 
M 165.488237 -77.906556 
L 165.332095 -77.7658 
L 165.159762 -77.748823 
L 164.915269 -77.906556 
L 165.023002 -78.301165 
L 165.423518 -78.205661 
M 149.67397 -107.15846 
L 148.269311 -107.319409 
L 148.299499 -106.022464 
L 148.583158 -105.269119 
L 149.709908 -104.824221 
L 151.151982 -106.022464 
M 103.750548 -91.96451 
L 101.108477 -93.33033 
L 99.703678 -93.031873 
L 98.99414 -91.96451 
L 99.387789 -90.350011 
L 101.594905 -89.756172 
" style="stroke: #3accd4"/>
    </defs>
    <g clip-path="url(#pfbca7b06c8)">
     <use xlink:href="#m49c040bc2a" x="0" y="210.047792" style="fill: #3accd4; stroke: #3accd4"/>
    </g>
   </g>
   <g id="PathCollection_8">
    <defs>
     <path id="mabc6362847" d="M 163.450011 -95.083619 
L 159.311511 -95.735263 
L 160.053284 -98.993487 
L 160.296424 -100.545792 
L 158.282438 -104.034118 
L 157.492917 -98.993487 
L 156.243869 -93.507068 
L 150.754439 -94.971933 
L 147.961583 -93.794456 
L 144.385311 -91.96451 
L 142.548783 -89.111745 
L 137.065923 -84.935533 
L 136.888152 -84.858291 
L 136.773588 -84.814344 
L 136.522117 -84.935533 
L 131.41418 -89.589531 
L 130.959193 -91.96451 
L 127.932785 -97.617532 
L 123.023542 -94.814547 
L 118.187325 -91.96451 
L 117.564252 -90.212359 
L 115.675754 -90.445686 
L 112.541112 -91.96451 
L 108.951609 -92.857078 
L 106.869968 -94.677448 
L 103.031786 -96.661599 
L 98.200648 -95.635198 
L 95.760529 -91.96451 
L 97.114298 -86.412209 
L 102.602648 -84.935533 
L 96.85504 -83.907905 
L 94.73992 -82.299666 
L 94.566119 -84.935533 
L 90.432128 -88.896306 
L 86.385797 -87.983211 
L 81.93231 -84.935533 
L 80.875682 -83.469056 
L 77.849617 -81.160712 
L 75.228479 -79.192344 
L 68.787381 -79.522413 
L 67.046063 -79.30675 
L 60.242059 -78.779435 
L 59.738102 -77.906556 
L 57.349954 -73.770162 
L 62.116463 -73.787114 
L 65.83547 -74.409552 
L 69.45849 -75.128304 
L 74.146108 -74.746044 
L 77.235849 -75.715478 
L 79.949439 -77.906556 
L 82.822053 -80.097844 
L 86.307708 -84.935533 
L 87.624936 -85.836959 
L 88.821739 -86.107029 
L 90.044468 -84.935533 
L 90.28932 -81.222111 
L 89.234155 -77.906556 
L 91.032927 -75.878966 
L 92.75998 -76.942802 
L 94.148372 -77.906556 
L 98.437177 -81.167563 
L 102.636101 -81.918298 
L 106.394432 -77.906556 
L 108.011899 -77.171499 
L 109.131476 -76.702448 
L 109.415634 -77.906556 
L 110.127193 -80.835296 
L 109.370642 -84.935533 
L 110.465375 -88.450021 
L 113.636467 -86.913536 
L 119.916822 -86.13759 
L 121.988901 -91.96451 
L 123.988627 -93.142971 
L 126.018548 -94.301976 
L 127.269937 -91.96451 
L 128.561553 -85.22243 
L 127.97799 -84.935533 
L 128.687793 -84.86729 
L 128.820129 -84.774564 
L 135.024372 -81.784612 
L 138.003037 -82.927254 
L 142.625076 -84.935533 
L 144.246767 -86.170751 
L 147.976622 -91.96451 
L 148.78059 -92.375893 
L 149.408441 -92.640597 
L 151.94201 -91.96451 
L 156.15556 -90.268996 
L 158.258102 -90.018315 
L 164.403386 -90.496694 
L 165.919347 -90.806604 
L 165.25083 -91.96451 
M 144.678919 -127.596104 
L 138.260264 -129.563205 
L 133.165088 -133.48069 
L 132.629103 -133.867702 
L 132.308818 -134.138373 
L 127.355266 -138.791102 
L 120.642227 -141.112967 
L 120.581894 -141.117232 
L 120.416426 -141.16735 
L 114.169108 -144.067915 
L 113.721074 -148.196327 
L 111.350368 -153.243668 
L 106.697063 -155.225304 
L 104.980627 -156.268907 
L 104.378102 -155.225304 
L 102.709317 -152.334883 
L 105.845719 -152.683318 
L 110.004371 -150.912333 
L 111.280063 -148.196327 
L 111.938345 -142.13058 
L 111.68283 -141.16735 
L 112.286498 -140.807139 
L 112.875564 -140.507268 
L 119.135127 -138.611358 
L 122.212124 -138.393827 
L 126.307993 -136.977172 
L 129.330336 -134.138373 
L 131.652405 -132.176011 
L 135.538294 -129.370178 
L 137.34626 -127.980102 
L 140.187377 -127.109395 
L 144.101249 -125.622132 
L 146.304086 -124.781232 
L 144.95992 -127.109395 
M 165.423518 -78.205661 
L 165.023002 -78.301165 
L 164.915269 -77.906556 
L 165.159762 -77.748823 
L 165.332095 -77.7658 
L 165.488237 -77.906556 
M 151.151982 -106.022464 
L 149.709908 -104.824221 
L 148.583158 -105.269119 
L 148.299499 -106.022464 
L 148.269311 -107.319409 
L 149.67397 -107.15846 
M 101.594905 -89.756172 
L 99.387789 -90.350011 
L 98.99414 -91.96451 
L 99.703678 -93.031873 
L 101.108477 -93.33033 
L 103.750548 -91.96451 
M 150.845162 -109.187025 
L 146.932183 -109.635382 
L 147.01628 -106.022464 
L 147.806473 -103.92386 
L 150.945275 -102.684502 
L 154.962481 -106.022464 
" style="stroke: #33b4d9"/>
    </defs>
    <g clip-path="url(#pfbca7b06c8)">
     <use xlink:href="#mabc6362847" x="0" y="210.047792" style="fill: #33b4d9; stroke: #33b4d9"/>
    </g>
   </g>
   <g id="PathCollection_9">
    <defs>
     <path id="mc0bda16f71" d="M 155.827336 -108.286479 
L 152.016355 -111.21559 
L 145.595056 -111.951354 
L 145.73306 -106.022464 
L 147.029787 -102.578602 
L 152.180643 -100.544783 
L 155.623628 -103.405616 
L 154.93255 -98.993487 
L 154.407588 -96.687601 
L 152.100436 -97.303269 
L 147.142575 -95.213018 
L 140.946913 -92.042755 
L 140.871302 -92.017227 
L 133.243337 -92.757724 
L 129.76958 -98.993487 
L 130.410907 -101.909765 
L 128.177011 -99.946431 
L 126.44994 -98.993487 
L 122.058457 -96.486123 
L 117.670118 -93.900025 
L 115.661255 -93.508447 
L 110.122801 -94.885643 
L 105.425375 -98.993487 
L 105.206303 -100.427972 
L 103.815768 -99.967479 
L 100.251138 -98.993487 
L 96.697617 -98.238523 
L 92.526918 -91.96451 
L 92.763306 -90.994996 
L 92.042518 -91.685582 
L 85.146657 -90.129464 
L 81.64371 -87.732274 
L 78.479773 -87.618892 
L 76.33083 -84.935533 
L 73.248878 -82.621114 
L 70.653212 -82.754126 
L 65.429258 -82.10714 
L 62.01033 -81.84217 
L 60.242059 -78.779435 
L 67.046063 -79.30675 
L 68.787381 -79.522413 
L 75.228479 -79.192344 
L 77.849617 -81.160712 
L 80.875682 -83.469056 
L 81.93231 -84.935533 
L 86.385797 -87.983211 
L 90.432128 -88.896306 
L 94.566119 -84.935533 
L 94.73992 -82.299666 
L 96.85504 -83.907905 
L 102.602648 -84.935533 
L 97.114298 -86.412209 
L 95.760529 -91.96451 
L 98.200648 -95.635198 
L 103.031786 -96.661599 
L 106.869968 -94.677448 
L 108.951609 -92.857078 
L 112.541112 -91.96451 
L 115.675754 -90.445686 
L 117.564252 -90.212359 
L 118.187325 -91.96451 
L 123.023542 -94.814547 
L 127.932785 -97.617532 
L 130.959193 -91.96451 
L 131.41418 -89.589531 
L 136.522117 -84.935533 
L 136.773588 -84.814344 
L 136.888152 -84.858291 
L 137.065923 -84.935533 
L 142.548783 -89.111745 
L 144.385311 -91.96451 
L 147.961583 -93.794456 
L 150.754439 -94.971933 
L 156.243869 -93.507068 
L 157.492917 -98.993487 
L 158.282438 -104.034118 
L 157.134466 -106.022464 
M 146.304086 -124.781232 
L 144.101249 -125.622132 
L 140.187377 -127.109395 
L 137.34626 -127.980102 
L 135.538294 -129.370178 
L 131.652405 -132.176011 
L 129.330336 -134.138373 
L 126.307993 -136.977172 
L 122.212124 -138.393827 
L 119.135127 -138.611358 
L 112.875564 -140.507268 
L 112.286498 -140.807139 
L 111.68283 -141.16735 
L 111.938345 -142.13058 
L 111.280063 -148.196327 
L 110.004371 -150.912333 
L 105.845719 -152.683318 
L 102.709317 -152.334883 
L 100.31992 -148.196327 
L 99.82392 -147.33723 
L 100.62992 -147.659391 
L 102.349011 -148.196327 
L 108.06938 -148.831823 
L 108.658374 -148.580997 
L 108.839051 -148.196327 
L 108.932284 -147.33723 
L 107.295606 -141.16735 
L 111.162348 -138.860054 
L 114.935555 -136.939259 
L 117.68836 -136.105484 
L 123.78202 -135.674687 
L 125.26072 -135.163243 
L 126.351854 -134.138373 
L 130.675706 -130.484319 
L 135.349748 -127.109395 
L 135.794027 -125.291557 
L 137.612475 -125.777589 
L 143.007399 -123.727529 
L 148.016399 -121.815419 
M 154.962481 -106.022464 
L 150.945275 -102.684502 
L 147.806473 -103.92386 
L 147.01628 -106.022464 
L 146.932183 -109.635382 
L 150.845162 -109.187025 
" style="stroke: #2c99df"/>
    </defs>
    <g clip-path="url(#pfbca7b06c8)">
     <use xlink:href="#mc0bda16f71" x="0" y="210.047792" style="fill: #2c99df; stroke: #2c99df"/>
    </g>
   </g>
   <g id="PathCollection_10">
    <defs>
     <path id="mfc363a75d0" d="M 148.016399 -121.815419 
L 143.007399 -123.727529 
L 137.612475 -125.777589 
L 135.794027 -125.291557 
L 135.349748 -127.109395 
L 130.675706 -130.484319 
L 126.351854 -134.138373 
L 125.26072 -135.163243 
L 123.78202 -135.674687 
L 117.68836 -136.105484 
L 114.935555 -136.939259 
L 111.162348 -138.860054 
L 107.295606 -141.16735 
L 108.932284 -147.33723 
L 108.839051 -148.196327 
L 108.658374 -148.580997 
L 108.06938 -148.831823 
L 102.349011 -148.196327 
L 100.62992 -147.659391 
L 99.82392 -147.33723 
L 96.261739 -141.16735 
L 92.203557 -134.138373 
L 91.699515 -133.265347 
L 92.627871 -133.403439 
L 93.710881 -134.138373 
L 97.943382 -138.254657 
L 103.235673 -139.188604 
L 105.15054 -139.829448 
L 110.038198 -136.912969 
L 115.488612 -134.138373 
L 115.790631 -132.818521 
L 118.818905 -130.2131 
L 121.751145 -129.08448 
L 125.903493 -132.000187 
L 129.699008 -128.792628 
L 132.030171 -127.109395 
L 133.461739 -121.251915 
L 139.321184 -122.81802 
L 141.913549 -121.832926 
L 146.504452 -120.080418 
L 143.490579 -115.596416 
L 137.35083 -113.051441 
L 144.312338 -111.929796 
L 144.449841 -106.022464 
L 146.253102 -101.233343 
L 151.925769 -98.993487 
L 146.323568 -96.631581 
L 142.452732 -94.650909 
L 139.856757 -93.774472 
L 134.150194 -94.328445 
L 131.551438 -98.993487 
L 133.011188 -105.631345 
L 133.268492 -106.022464 
L 136.167193 -111.879945 
L 131.074094 -108.986491 
L 132.296437 -106.022464 
L 127.236528 -101.575394 
L 122.5572 -98.993487 
L 121.093372 -98.157699 
L 119.630592 -97.295666 
L 114.097409 -96.217109 
L 111.293994 -96.914208 
L 108.916284 -98.993487 
L 107.966971 -105.209589 
L 101.941319 -103.21412 
L 98.091141 -102.162105 
L 95.088089 -101.026307 
L 93.436926 -98.993487 
L 90.565726 -94.801317 
L 84.486133 -92.655494 
L 81.635375 -96.211184 
L 77.887193 -95.283749 
L 75.635931 -92.544571 
L 69.355993 -94.565231 
L 67.854466 -91.96451 
L 63.86811 -85.05994 
L 64.038564 -84.935533 
L 63.812452 -84.907529 
L 63.778601 -84.904905 
L 62.01033 -81.84217 
L 65.429258 -82.10714 
L 70.653212 -82.754126 
L 73.248878 -82.621114 
L 76.33083 -84.935533 
L 78.479773 -87.618892 
L 81.64371 -87.732274 
L 85.146657 -90.129464 
L 92.042518 -91.685582 
L 92.763306 -90.994996 
L 92.526918 -91.96451 
L 96.697617 -98.238523 
L 100.251138 -98.993487 
L 103.815768 -99.967479 
L 105.206303 -100.427972 
L 105.425375 -98.993487 
L 110.122801 -94.885643 
L 115.661255 -93.508447 
L 117.670118 -93.900025 
L 122.058457 -96.486123 
L 126.44994 -98.993487 
L 128.177011 -99.946431 
L 130.410907 -101.909765 
L 129.76958 -98.993487 
L 133.243337 -92.757724 
L 140.871302 -92.017227 
L 140.946913 -92.042755 
L 147.142575 -95.213018 
L 152.100436 -97.303269 
L 154.407588 -96.687601 
L 154.93255 -98.993487 
L 155.623628 -103.405616 
L 152.180643 -100.544783 
L 147.029787 -102.578602 
L 145.73306 -106.022464 
L 145.595056 -111.951354 
L 152.016355 -111.21559 
L 155.827336 -108.286479 
L 153.076284 -113.051441 
L 149.018102 -120.080418 
M 115.633262 -118.487995 
L 118.448881 -116.796045 
L 118.882207 -120.080418 
L 119.888431 -125.858164 
L 114.695113 -123.297764 
L 113.358991 -120.080418 
M 87.890855 -112.610599 
L 88.344414 -112.706696 
L 89.00984 -113.051441 
L 88.364079 -113.430248 
L 87.674102 -113.86771 
L 87.581303 -113.051441 
" style="stroke: #247fe4"/>
    </defs>
    <g clip-path="url(#pfbca7b06c8)">
     <use xlink:href="#mfc363a75d0" x="0" y="210.047792" style="fill: #247fe4; stroke: #247fe4"/>
    </g>
   </g>
   <g id="PathCollection_11">
    <defs>
     <path id="m78f8741d3d" d="M 89.114686 -128.788291 
L 94.80384 -129.634551 
L 99.597913 -132.887818 
L 101.642249 -131.848032 
L 102.384609 -134.138373 
L 107.456325 -135.835711 
L 108.914048 -134.965884 
L 110.53961 -134.138373 
L 111.920582 -128.103392 
L 110.958938 -127.109395 
L 111.47992 -125.352151 
L 109.290638 -120.080418 
L 114.462069 -116.45943 
L 120.133396 -113.051441 
L 116.130597 -106.753478 
L 109.778233 -108.346787 
L 105.27357 -111.500446 
L 101.800608 -108.587091 
L 100.404466 -113.051441 
L 102.107453 -116.984321 
L 104.121255 -120.080418 
L 101.867887 -122.761575 
L 99.441834 -121.601308 
L 98.35714 -120.080418 
L 95.056582 -115.138834 
L 90.794128 -117.639217 
L 86.94379 -120.080418 
L 85.939841 -123.289299 
L 84.087193 -120.080418 
L 81.628872 -115.82248 
L 81.313841 -113.051441 
L 85.062854 -107.712358 
L 90.555957 -108.876191 
L 95.257441 -111.311947 
L 99.074796 -106.022464 
L 93.435062 -103.889434 
L 89.458316 -98.993487 
L 88.745913 -97.953325 
L 87.237443 -97.420902 
L 85.97663 -98.993487 
L 82.967135 -104.082466 
L 76.101039 -105.796935 
L 74.53853 -103.541649 
L 71.912648 -98.993487 
L 69.355993 -94.565231 
L 75.635931 -92.544571 
L 77.887193 -95.283749 
L 81.635375 -96.211184 
L 84.486133 -92.655494 
L 90.565726 -94.801317 
L 93.436926 -98.993487 
L 95.088089 -101.026307 
L 98.091141 -102.162105 
L 101.941319 -103.21412 
L 107.966971 -105.209589 
L 108.916284 -98.993487 
L 111.293994 -96.914208 
L 114.097409 -96.217109 
L 119.630592 -97.295666 
L 121.093372 -98.157699 
L 122.5572 -98.993487 
L 127.236528 -101.575394 
L 132.296437 -106.022464 
L 131.074094 -108.986491 
L 136.167193 -111.879945 
L 133.268492 -106.022464 
L 133.011188 -105.631345 
L 131.551438 -98.993487 
L 134.150194 -94.328445 
L 139.856757 -93.774472 
L 142.452732 -94.650909 
L 146.323568 -96.631581 
L 151.925769 -98.993487 
L 146.253102 -101.233343 
L 144.449841 -106.022464 
L 144.312338 -111.929796 
L 137.35083 -113.051441 
L 143.490579 -115.596416 
L 146.504452 -120.080418 
L 141.913549 -121.832926 
L 139.321184 -122.81802 
L 133.461739 -121.251915 
L 132.030171 -127.109395 
L 129.699008 -128.792628 
L 125.903493 -132.000187 
L 121.751145 -129.08448 
L 118.818905 -130.2131 
L 115.790631 -132.818521 
L 115.488612 -134.138373 
L 110.038198 -136.912969 
L 105.15054 -139.829448 
L 103.235673 -139.188604 
L 97.943382 -138.254657 
L 93.710881 -134.138373 
L 92.627871 -133.403439 
L 91.699515 -133.265347 
M 63.778601 -84.904905 
L 63.812452 -84.907529 
L 64.038564 -84.935533 
L 63.86811 -85.05994 
L 63.796284 -84.935533 
M 113.358991 -120.080418 
L 114.695113 -123.297764 
L 119.888431 -125.858164 
L 118.882207 -120.080418 
L 118.448881 -116.796045 
L 115.633262 -118.487995 
M 87.581303 -113.051441 
L 87.674102 -113.86771 
L 88.364079 -113.430248 
L 89.00984 -113.051441 
L 88.344414 -112.706696 
L 87.890855 -112.610599 
M 143.958551 -97.259064 
L 138.842211 -95.531716 
L 135.05705 -95.899166 
L 133.333296 -98.993487 
L 134.301548 -103.396376 
L 136.02916 -106.022464 
L 138.278042 -110.566839 
L 143.078848 -109.793329 
L 143.166621 -106.022464 
L 145.476416 -99.888084 
L 147.742076 -98.993487 
L 145.50456 -98.050143 
M 126.923557 -116.175431 
L 121.014724 -113.751008 
L 121.849799 -120.080418 
L 122.503128 -123.831839 
L 128.705946 -127.072594 
L 129.313918 -120.080418 
M 117.374825 -106.022464 
L 120.843042 -112.649238 
L 127.488551 -110.906051 
L 129.502508 -106.022464 
L 126.296046 -103.204357 
L 121.520736 -100.569491 
M 112.880959 -98.993487 
L 112.533562 -98.92577 
L 112.465186 -98.942773 
L 112.407193 -98.993487 
L 112.375806 -99.199013 
L 112.955623 -99.792234 
" style="stroke: #1d65ea"/>
    </defs>
    <g clip-path="url(#pfbca7b06c8)">
     <use xlink:href="#m78f8741d3d" x="0" y="210.047792" style="fill: #1d65ea; stroke: #1d65ea"/>
    </g>
   </g>
   <g id="PathCollection_12">
    <defs>
     <path id="m9ec04a16ec" d="M 85.939841 -123.289299 
L 86.94379 -120.080418 
L 90.794128 -117.639217 
L 95.056582 -115.138834 
L 98.35714 -120.080418 
L 99.441834 -121.601308 
L 101.867887 -122.761575 
L 104.121255 -120.080418 
L 102.107453 -116.984321 
L 100.404466 -113.051441 
L 101.800608 -108.587091 
L 105.27357 -111.500446 
L 109.778233 -108.346787 
L 116.130597 -106.753478 
L 120.133396 -113.051441 
L 114.462069 -116.45943 
L 109.290638 -120.080418 
L 111.47992 -125.352151 
L 110.958938 -127.109395 
L 111.920582 -128.103392 
L 110.53961 -134.138373 
L 108.914048 -134.965884 
L 107.456325 -135.835711 
L 102.384609 -134.138373 
L 101.642249 -131.848032 
L 99.597913 -132.887818 
L 94.80384 -129.634551 
L 89.114686 -128.788291 
L 88.145375 -127.109395 
M 74.53853 -103.541649 
L 76.101039 -105.796935 
L 82.967135 -104.082466 
L 85.97663 -98.993487 
L 87.237443 -97.420902 
L 88.745913 -97.953325 
L 89.458316 -98.993487 
L 93.435062 -103.889434 
L 99.074796 -106.022464 
L 95.257441 -111.311947 
L 90.555957 -108.876191 
L 85.062854 -107.712358 
L 81.313841 -113.051441 
L 81.628872 -115.82248 
L 80.029011 -113.051441 
L 75.97083 -106.022464 
M 145.50456 -98.050143 
L 147.742076 -98.993487 
L 145.476416 -99.888084 
L 143.166621 -106.022464 
L 143.078848 -109.793329 
L 138.278042 -110.566839 
L 136.02916 -106.022464 
L 134.301548 -103.396376 
L 133.333296 -98.993487 
L 135.05705 -95.899166 
L 138.842211 -95.531716 
L 143.958551 -97.259064 
M 129.313918 -120.080418 
L 128.705946 -127.072594 
L 122.503128 -123.831839 
L 121.849799 -120.080418 
L 121.014724 -113.751008 
L 126.923557 -116.175431 
M 121.520736 -100.569491 
L 126.296046 -103.204357 
L 129.502508 -106.022464 
L 127.488551 -110.906051 
L 120.843042 -112.649238 
L 117.374825 -106.022464 
M 112.955623 -99.792234 
L 112.375806 -99.199013 
L 112.407193 -98.993487 
L 112.465186 -98.942773 
L 112.533562 -98.92577 
L 112.880959 -98.993487 
M 113.290877 -114.430865 
L 115.586414 -113.051441 
L 113.966233 -110.502266 
L 111.395038 -111.147177 
L 108.675001 -113.051441 
L 110.617212 -116.302941 
M 121.591118 -106.022464 
L 123.054585 -108.818733 
L 125.858759 -108.083168 
L 126.70858 -106.022464 
L 125.355564 -104.833321 
L 123.340548 -103.721499 
M 142.876409 -98.993487 
L 137.827666 -97.28896 
L 135.963906 -97.469888 
L 135.115154 -98.993487 
L 135.591908 -101.161407 
L 138.789828 -106.022464 
L 139.764556 -107.992123 
L 141.845358 -107.656862 
L 141.883402 -106.022464 
L 143.72402 -101.13413 
" style="stroke: #164bef"/>
    </defs>
    <g clip-path="url(#pfbca7b06c8)">
     <use xlink:href="#m9ec04a16ec" x="0" y="210.047792" style="fill: #164bef; stroke: #164bef"/>
    </g>
   </g>
   <g id="PathCollection_13">
    <defs>
     <path id="md9b2f6b2ff" d="M 110.617212 -116.302941 
L 108.675001 -113.051441 
L 111.395038 -111.147177 
L 113.966233 -110.502266 
L 115.586414 -113.051441 
L 113.290877 -114.430865 
M 123.340548 -103.721499 
L 125.355564 -104.833321 
L 126.70858 -106.022464 
L 125.858759 -108.083168 
L 123.054585 -108.818733 
L 121.591118 -106.022464 
M 143.72402 -101.13413 
L 141.883402 -106.022464 
L 141.845358 -107.656862 
L 139.764556 -107.992123 
L 138.789828 -106.022464 
L 135.591908 -101.161407 
L 135.115154 -98.993487 
L 135.963906 -97.469888 
L 137.827666 -97.28896 
L 142.876409 -98.993487 
" style="stroke: #0e30f5"/>
    </defs>
    <g clip-path="url(#pfbca7b06c8)">
     <use xlink:href="#md9b2f6b2ff" x="0" y="210.047792" style="fill: #0e30f5; stroke: #0e30f5"/>
    </g>
   </g>
   <g id="line2d_1">
    <path d="M 35.389011 174.315099 
L 116.552648 33.735557 
" clip-path="url(#pfbca7b06c8)" style="fill: none; stroke: #000000; stroke-linecap: square"/>
   </g>
   <g id="line2d_2">
    <path d="M 116.552648 33.735557 
L 197.716284 174.315099 
" clip-path="url(#pfbca7b06c8)" style="fill: none; stroke: #000000; stroke-linecap: square"/>
   </g>
   <g id="line2d_3">
    <path d="M 35.389011 174.315099 
L 197.716284 174.315099 
" clip-path="url(#pfbca7b06c8)" style="fill: none; stroke: #000000; stroke-linecap: square"/>
   </g>
   <g id="line2d_4">
    <path d="M 197.716284 174.315099 
L 200.063861 178.381221 
" clip-path="url(#pfbca7b06c8)" style="fill: none; stroke: #000000; stroke-linecap: square"/>
   </g>
   <g id="line2d_5">
    <path d="M 165.25083 174.315099 
L 167.598407 178.381221 
" clip-path="url(#pfbca7b06c8)" style="fill: none; stroke: #000000; stroke-linecap: square"/>
   </g>
   <g id="line2d_6">
    <path d="M 132.785375 174.315099 
L 135.132952 178.381221 
" clip-path="url(#pfbca7b06c8)" style="fill: none; stroke: #000000; stroke-linecap: square"/>
   </g>
   <g id="line2d_7">
    <path d="M 100.31992 174.315099 
L 102.667497 178.381221 
" clip-path="url(#pfbca7b06c8)" style="fill: none; stroke: #000000; stroke-linecap: square"/>
   </g>
   <g id="line2d_8">
    <path d="M 67.854466 174.315099 
L 70.202043 178.381221 
" clip-path="url(#pfbca7b06c8)" style="fill: none; stroke: #000000; stroke-linecap: square"/>
   </g>
   <g id="line2d_9">
    <path d="M 35.389011 174.315099 
L 37.736588 178.381221 
" clip-path="url(#pfbca7b06c8)" style="fill: none; stroke: #000000; stroke-linecap: square"/>
   </g>
   <g id="line2d_10">
    <path d="M 35.389011 174.315099 
L 30.693857 174.315099 
" clip-path="url(#pfbca7b06c8)" style="fill: none; stroke: #000000; stroke-linecap: square"/>
   </g>
   <g id="line2d_11">
    <path d="M 51.621739 146.19919 
L 46.926585 146.19919 
" clip-path="url(#pfbca7b06c8)" style="fill: none; stroke: #000000; stroke-linecap: square"/>
   </g>
   <g id="line2d_12">
    <path d="M 67.854466 118.083282 
L 63.159312 118.083282 
" clip-path="url(#pfbca7b06c8)" style="fill: none; stroke: #000000; stroke-linecap: square"/>
   </g>
   <g id="line2d_13">
    <path d="M 84.087193 89.967374 
L 79.392039 89.967374 
" clip-path="url(#pfbca7b06c8)" style="fill: none; stroke: #000000; stroke-linecap: square"/>
   </g>
   <g id="line2d_14">
    <path d="M 100.31992 61.851465 
L 95.624766 61.851465 
" clip-path="url(#pfbca7b06c8)" style="fill: none; stroke: #000000; stroke-linecap: square"/>
   </g>
   <g id="line2d_15">
    <path d="M 116.552648 33.735557 
L 111.857494 33.735557 
" clip-path="url(#pfbca7b06c8)" style="fill: none; stroke: #000000; stroke-linecap: square"/>
   </g>
   <g id="line2d_16">
    <path d="M 116.552648 33.735557 
L 118.900225 29.669434 
" clip-path="url(#pfbca7b06c8)" style="fill: none; stroke: #000000; stroke-linecap: square"/>
   </g>
   <g id="line2d_17">
    <path d="M 132.785375 61.851465 
L 135.132952 57.785343 
" clip-path="url(#pfbca7b06c8)" style="fill: none; stroke: #000000; stroke-linecap: square"/>
   </g>
   <g id="line2d_18">
    <path d="M 149.018102 89.967374 
L 151.365679 85.901251 
" clip-path="url(#pfbca7b06c8)" style="fill: none; stroke: #000000; stroke-linecap: square"/>
   </g>
   <g id="line2d_19">
    <path d="M 165.25083 118.083282 
L 167.598407 114.017159 
" clip-path="url(#pfbca7b06c8)" style="fill: none; stroke: #000000; stroke-linecap: square"/>
   </g>
   <g id="line2d_20">
    <path d="M 181.483557 146.19919 
L 183.831134 142.133068 
" clip-path="url(#pfbca7b06c8)" style="fill: none; stroke: #000000; stroke-linecap: square"/>
   </g>
   <g id="line2d_21">
    <path d="M 197.716284 174.315099 
L 200.063861 170.248976 
" clip-path="url(#pfbca7b06c8)" style="fill: none; stroke: #000000; stroke-linecap: square"/>
   </g>
   <g id="matplotlib.axis_1">
    <g id="xtick_1"/>
    <g id="xtick_2"/>
    <g id="xtick_3"/>
    <g id="xtick_4"/>
    <g id="xtick_5"/>
   </g>
   <g id="matplotlib.axis_2">
    <g id="ytick_1"/>
    <g id="ytick_2"/>
    <g id="ytick_3"/>
    <g id="ytick_4"/>
    <g id="ytick_5"/>
   </g>
   <g id="text_1">
    <!-- 0 -->
    <g transform="translate(198.768602 187.301281) scale(0.12 -0.12)">
     <defs>
      <path id="DejaVuSans-30" d="M 2034 4250 
Q 1547 4250 1301 3770 
Q 1056 3291 1056 2328 
Q 1056 1369 1301 889 
Q 1547 409 2034 409 
Q 2525 409 2770 889 
Q 3016 1369 3016 2328 
Q 3016 3291 2770 3770 
Q 2525 4250 2034 4250 
z
M 2034 4750 
Q 2819 4750 3233 4129 
Q 3647 3509 3647 2328 
Q 3647 1150 3233 529 
Q 2819 -91 2034 -91 
Q 1250 -91 836 529 
Q 422 1150 422 2328 
Q 422 3509 836 4129 
Q 1250 4750 2034 4750 
z
" transform="scale(0.015625)"/>
     </defs>
     <use xlink:href="#DejaVuSans-30"/>
    </g>
   </g>
   <g id="text_2">
    <!-- 20 -->
    <g transform="translate(162.485648 187.301281) scale(0.12 -0.12)">
     <defs>
      <path id="DejaVuSans-32" d="M 1228 531 
L 3431 531 
L 3431 0 
L 469 0 
L 469 531 
Q 828 903 1448 1529 
Q 2069 2156 2228 2338 
Q 2531 2678 2651 2914 
Q 2772 3150 2772 3378 
Q 2772 3750 2511 3984 
Q 2250 4219 1831 4219 
Q 1534 4219 1204 4116 
Q 875 4013 500 3803 
L 500 4441 
Q 881 4594 1212 4672 
Q 1544 4750 1819 4750 
Q 2544 4750 2975 4387 
Q 3406 4025 3406 3419 
Q 3406 3131 3298 2873 
Q 3191 2616 2906 2266 
Q 2828 2175 2409 1742 
Q 1991 1309 1228 531 
z
" transform="scale(0.015625)"/>
     </defs>
     <use xlink:href="#DejaVuSans-32"/>
     <use xlink:href="#DejaVuSans-30" x="63.623047"/>
    </g>
   </g>
   <g id="text_3">
    <!-- 40 -->
    <g transform="translate(130.020193 187.301281) scale(0.12 -0.12)">
     <defs>
      <path id="DejaVuSans-34" d="M 2419 4116 
L 825 1625 
L 2419 1625 
L 2419 4116 
z
M 2253 4666 
L 3047 4666 
L 3047 1625 
L 3713 1625 
L 3713 1100 
L 3047 1100 
L 3047 0 
L 2419 0 
L 2419 1100 
L 313 1100 
L 313 1709 
L 2253 4666 
z
" transform="scale(0.015625)"/>
     </defs>
     <use xlink:href="#DejaVuSans-34"/>
     <use xlink:href="#DejaVuSans-30" x="63.623047"/>
    </g>
   </g>
   <g id="text_4">
    <!-- 60 -->
    <g transform="translate(97.554739 187.301281) scale(0.12 -0.12)">
     <defs>
      <path id="DejaVuSans-36" d="M 2113 2584 
Q 1688 2584 1439 2293 
Q 1191 2003 1191 1497 
Q 1191 994 1439 701 
Q 1688 409 2113 409 
Q 2538 409 2786 701 
Q 3034 994 3034 1497 
Q 3034 2003 2786 2293 
Q 2538 2584 2113 2584 
z
M 3366 4563 
L 3366 3988 
Q 3128 4100 2886 4159 
Q 2644 4219 2406 4219 
Q 1781 4219 1451 3797 
Q 1122 3375 1075 2522 
Q 1259 2794 1537 2939 
Q 1816 3084 2150 3084 
Q 2853 3084 3261 2657 
Q 3669 2231 3669 1497 
Q 3669 778 3244 343 
Q 2819 -91 2113 -91 
Q 1303 -91 875 529 
Q 447 1150 447 2328 
Q 447 3434 972 4092 
Q 1497 4750 2381 4750 
Q 2619 4750 2861 4703 
Q 3103 4656 3366 4563 
z
" transform="scale(0.015625)"/>
     </defs>
     <use xlink:href="#DejaVuSans-36"/>
     <use xlink:href="#DejaVuSans-30" x="63.623047"/>
    </g>
   </g>
   <g id="text_5">
    <!-- 80 -->
    <g transform="translate(65.089284 187.301281) scale(0.12 -0.12)">
     <defs>
      <path id="DejaVuSans-38" d="M 2034 2216 
Q 1584 2216 1326 1975 
Q 1069 1734 1069 1313 
Q 1069 891 1326 650 
Q 1584 409 2034 409 
Q 2484 409 2743 651 
Q 3003 894 3003 1313 
Q 3003 1734 2745 1975 
Q 2488 2216 2034 2216 
z
M 1403 2484 
Q 997 2584 770 2862 
Q 544 3141 544 3541 
Q 544 4100 942 4425 
Q 1341 4750 2034 4750 
Q 2731 4750 3128 4425 
Q 3525 4100 3525 3541 
Q 3525 3141 3298 2862 
Q 3072 2584 2669 2484 
Q 3125 2378 3379 2068 
Q 3634 1759 3634 1313 
Q 3634 634 3220 271 
Q 2806 -91 2034 -91 
Q 1263 -91 848 271 
Q 434 634 434 1313 
Q 434 1759 690 2068 
Q 947 2378 1403 2484 
z
M 1172 3481 
Q 1172 3119 1398 2916 
Q 1625 2713 2034 2713 
Q 2441 2713 2670 2916 
Q 2900 3119 2900 3481 
Q 2900 3844 2670 4047 
Q 2441 4250 2034 4250 
Q 1625 4250 1398 4047 
Q 1172 3844 1172 3481 
z
" transform="scale(0.015625)"/>
     </defs>
     <use xlink:href="#DejaVuSans-38"/>
     <use xlink:href="#DejaVuSans-30" x="63.623047"/>
    </g>
   </g>
   <g id="text_6">
    <!-- 100 -->
    <g transform="translate(28.80633 187.301281) scale(0.12 -0.12)">
     <defs>
      <path id="DejaVuSans-31" d="M 794 531 
L 1825 531 
L 1825 4091 
L 703 3866 
L 703 4441 
L 1819 4666 
L 2450 4666 
L 2450 531 
L 3481 531 
L 3481 0 
L 794 0 
L 794 531 
z
" transform="scale(0.015625)"/>
     </defs>
     <use xlink:href="#DejaVuSans-31"/>
     <use xlink:href="#DejaVuSans-30" x="63.623047"/>
     <use xlink:href="#DejaVuSans-30" x="127.246094"/>
    </g>
   </g>
   <g id="text_7">
    <!-- 0 -->
    <g transform="translate(22.884193 176.750008) scale(0.12 -0.12)">
     <use xlink:href="#DejaVuSans-30"/>
    </g>
   </g>
   <g id="text_8">
    <!-- 20 -->
    <g transform="translate(31.48192 148.634099) scale(0.12 -0.12)">
     <use xlink:href="#DejaVuSans-32"/>
     <use xlink:href="#DejaVuSans-30" x="63.623047"/>
    </g>
   </g>
   <g id="text_9">
    <!-- 40 -->
    <g transform="translate(47.714648 120.518191) scale(0.12 -0.12)">
     <use xlink:href="#DejaVuSans-34"/>
     <use xlink:href="#DejaVuSans-30" x="63.623047"/>
    </g>
   </g>
   <g id="text_10">
    <!-- 60 -->
    <g transform="translate(63.947375 92.402283) scale(0.12 -0.12)">
     <use xlink:href="#DejaVuSans-36"/>
     <use xlink:href="#DejaVuSans-30" x="63.623047"/>
    </g>
   </g>
   <g id="text_11">
    <!-- 80 -->
    <g transform="translate(80.180102 64.286374) scale(0.12 -0.12)">
     <use xlink:href="#DejaVuSans-38"/>
     <use xlink:href="#DejaVuSans-30" x="63.623047"/>
    </g>
   </g>
   <g id="text_12">
    <!-- 100 -->
    <g transform="translate(88.77783 36.170466) scale(0.12 -0.12)">
     <use xlink:href="#DejaVuSans-31"/>
     <use xlink:href="#DejaVuSans-30" x="63.623047"/>
     <use xlink:href="#DejaVuSans-30" x="127.246094"/>
    </g>
   </g>
   <g id="text_13">
    <!-- 0 -->
    <g transform="translate(118.987557 30.489011) scale(0.12 -0.12)">
     <use xlink:href="#DejaVuSans-30"/>
    </g>
   </g>
   <g id="text_14">
    <!-- 20 -->
    <g transform="translate(135.220284 58.60492) scale(0.12 -0.12)">
     <use xlink:href="#DejaVuSans-32"/>
     <use xlink:href="#DejaVuSans-30" x="63.623047"/>
    </g>
   </g>
   <g id="text_15">
    <!-- 40 -->
    <g transform="translate(151.453011 86.720828) scale(0.12 -0.12)">
     <use xlink:href="#DejaVuSans-34"/>
     <use xlink:href="#DejaVuSans-30" x="63.623047"/>
    </g>
   </g>
   <g id="text_16">
    <!-- 60 -->
    <g transform="translate(167.685739 114.836737) scale(0.12 -0.12)">
     <use xlink:href="#DejaVuSans-36"/>
     <use xlink:href="#DejaVuSans-30" x="63.623047"/>
    </g>
   </g>
   <g id="text_17">
    <!-- 80 -->
    <g transform="translate(183.918466 142.952645) scale(0.12 -0.12)">
     <use xlink:href="#DejaVuSans-38"/>
     <use xlink:href="#DejaVuSans-30" x="63.623047"/>
    </g>
   </g>
   <g id="text_18">
    <!-- 100 -->
    <g transform="translate(200.151193 171.068553) scale(0.12 -0.12)">
     <use xlink:href="#DejaVuSans-31"/>
     <use xlink:href="#DejaVuSans-30" x="63.623047"/>
     <use xlink:href="#DejaVuSans-30" x="127.246094"/>
    </g>
   </g>
   <g id="text_19">
    <!-- Au content (at.%) -->
    <g transform="translate(63.54171 200.352167) scale(0.12 -0.12)">
     <defs>
      <path id="DejaVuSans-41" d="M 2188 4044 
L 1331 1722 
L 3047 1722 
L 2188 4044 
z
M 1831 4666 
L 2547 4666 
L 4325 0 
L 3669 0 
L 3244 1197 
L 1141 1197 
L 716 0 
L 50 0 
L 1831 4666 
z
" transform="scale(0.015625)"/>
      <path id="DejaVuSans-75" d="M 544 1381 
L 544 3500 
L 1119 3500 
L 1119 1403 
Q 1119 906 1312 657 
Q 1506 409 1894 409 
Q 2359 409 2629 706 
Q 2900 1003 2900 1516 
L 2900 3500 
L 3475 3500 
L 3475 0 
L 2900 0 
L 2900 538 
Q 2691 219 2414 64 
Q 2138 -91 1772 -91 
Q 1169 -91 856 284 
Q 544 659 544 1381 
z
M 1991 3584 
L 1991 3584 
z
" transform="scale(0.015625)"/>
      <path id="DejaVuSans-20" transform="scale(0.015625)"/>
      <path id="DejaVuSans-63" d="M 3122 3366 
L 3122 2828 
Q 2878 2963 2633 3030 
Q 2388 3097 2138 3097 
Q 1578 3097 1268 2742 
Q 959 2388 959 1747 
Q 959 1106 1268 751 
Q 1578 397 2138 397 
Q 2388 397 2633 464 
Q 2878 531 3122 666 
L 3122 134 
Q 2881 22 2623 -34 
Q 2366 -91 2075 -91 
Q 1284 -91 818 406 
Q 353 903 353 1747 
Q 353 2603 823 3093 
Q 1294 3584 2113 3584 
Q 2378 3584 2631 3529 
Q 2884 3475 3122 3366 
z
" transform="scale(0.015625)"/>
      <path id="DejaVuSans-6f" d="M 1959 3097 
Q 1497 3097 1228 2736 
Q 959 2375 959 1747 
Q 959 1119 1226 758 
Q 1494 397 1959 397 
Q 2419 397 2687 759 
Q 2956 1122 2956 1747 
Q 2956 2369 2687 2733 
Q 2419 3097 1959 3097 
z
M 1959 3584 
Q 2709 3584 3137 3096 
Q 3566 2609 3566 1747 
Q 3566 888 3137 398 
Q 2709 -91 1959 -91 
Q 1206 -91 779 398 
Q 353 888 353 1747 
Q 353 2609 779 3096 
Q 1206 3584 1959 3584 
z
" transform="scale(0.015625)"/>
      <path id="DejaVuSans-6e" d="M 3513 2113 
L 3513 0 
L 2938 0 
L 2938 2094 
Q 2938 2591 2744 2837 
Q 2550 3084 2163 3084 
Q 1697 3084 1428 2787 
Q 1159 2491 1159 1978 
L 1159 0 
L 581 0 
L 581 3500 
L 1159 3500 
L 1159 2956 
Q 1366 3272 1645 3428 
Q 1925 3584 2291 3584 
Q 2894 3584 3203 3211 
Q 3513 2838 3513 2113 
z
" transform="scale(0.015625)"/>
      <path id="DejaVuSans-74" d="M 1172 4494 
L 1172 3500 
L 2356 3500 
L 2356 3053 
L 1172 3053 
L 1172 1153 
Q 1172 725 1289 603 
Q 1406 481 1766 481 
L 2356 481 
L 2356 0 
L 1766 0 
Q 1100 0 847 248 
Q 594 497 594 1153 
L 594 3053 
L 172 3053 
L 172 3500 
L 594 3500 
L 594 4494 
L 1172 4494 
z
" transform="scale(0.015625)"/>
      <path id="DejaVuSans-65" d="M 3597 1894 
L 3597 1613 
L 953 1613 
Q 991 1019 1311 708 
Q 1631 397 2203 397 
Q 2534 397 2845 478 
Q 3156 559 3463 722 
L 3463 178 
Q 3153 47 2828 -22 
Q 2503 -91 2169 -91 
Q 1331 -91 842 396 
Q 353 884 353 1716 
Q 353 2575 817 3079 
Q 1281 3584 2069 3584 
Q 2775 3584 3186 3129 
Q 3597 2675 3597 1894 
z
M 3022 2063 
Q 3016 2534 2758 2815 
Q 2500 3097 2075 3097 
Q 1594 3097 1305 2825 
Q 1016 2553 972 2059 
L 3022 2063 
z
" transform="scale(0.015625)"/>
      <path id="DejaVuSans-28" d="M 1984 4856 
Q 1566 4138 1362 3434 
Q 1159 2731 1159 2009 
Q 1159 1288 1364 580 
Q 1569 -128 1984 -844 
L 1484 -844 
Q 1016 -109 783 600 
Q 550 1309 550 2009 
Q 550 2706 781 3412 
Q 1013 4119 1484 4856 
L 1984 4856 
z
" transform="scale(0.015625)"/>
      <path id="DejaVuSans-61" d="M 2194 1759 
Q 1497 1759 1228 1600 
Q 959 1441 959 1056 
Q 959 750 1161 570 
Q 1363 391 1709 391 
Q 2188 391 2477 730 
Q 2766 1069 2766 1631 
L 2766 1759 
L 2194 1759 
z
M 3341 1997 
L 3341 0 
L 2766 0 
L 2766 531 
Q 2569 213 2275 61 
Q 1981 -91 1556 -91 
Q 1019 -91 701 211 
Q 384 513 384 1019 
Q 384 1609 779 1909 
Q 1175 2209 1959 2209 
L 2766 2209 
L 2766 2266 
Q 2766 2663 2505 2880 
Q 2244 3097 1772 3097 
Q 1472 3097 1187 3025 
Q 903 2953 641 2809 
L 641 3341 
Q 956 3463 1253 3523 
Q 1550 3584 1831 3584 
Q 2591 3584 2966 3190 
Q 3341 2797 3341 1997 
z
" transform="scale(0.015625)"/>
      <path id="DejaVuSans-2e" d="M 684 794 
L 1344 794 
L 1344 0 
L 684 0 
L 684 794 
z
" transform="scale(0.015625)"/>
      <path id="DejaVuSans-25" d="M 4653 2053 
Q 4381 2053 4226 1822 
Q 4072 1591 4072 1178 
Q 4072 772 4226 539 
Q 4381 306 4653 306 
Q 4919 306 5073 539 
Q 5228 772 5228 1178 
Q 5228 1588 5073 1820 
Q 4919 2053 4653 2053 
z
M 4653 2450 
Q 5147 2450 5437 2106 
Q 5728 1763 5728 1178 
Q 5728 594 5436 251 
Q 5144 -91 4653 -91 
Q 4153 -91 3862 251 
Q 3572 594 3572 1178 
Q 3572 1766 3864 2108 
Q 4156 2450 4653 2450 
z
M 1428 4353 
Q 1159 4353 1004 4120 
Q 850 3888 850 3481 
Q 850 3069 1003 2837 
Q 1156 2606 1428 2606 
Q 1700 2606 1854 2837 
Q 2009 3069 2009 3481 
Q 2009 3884 1853 4118 
Q 1697 4353 1428 4353 
z
M 4250 4750 
L 4750 4750 
L 1831 -91 
L 1331 -91 
L 4250 4750 
z
M 1428 4750 
Q 1922 4750 2215 4408 
Q 2509 4066 2509 3481 
Q 2509 2891 2217 2550 
Q 1925 2209 1428 2209 
Q 931 2209 642 2551 
Q 353 2894 353 3481 
Q 353 4063 643 4406 
Q 934 4750 1428 4750 
z
" transform="scale(0.015625)"/>
      <path id="DejaVuSans-29" d="M 513 4856 
L 1013 4856 
Q 1481 4119 1714 3412 
Q 1947 2706 1947 2009 
Q 1947 1309 1714 600 
Q 1481 -109 1013 -844 
L 513 -844 
Q 928 -128 1133 580 
Q 1338 1288 1338 2009 
Q 1338 2731 1133 3434 
Q 928 4138 513 4856 
z
" transform="scale(0.015625)"/>
     </defs>
     <use xlink:href="#DejaVuSans-41"/>
     <use xlink:href="#DejaVuSans-75" x="68.408203"/>
     <use xlink:href="#DejaVuSans-20" x="131.787109"/>
     <use xlink:href="#DejaVuSans-63" x="163.574219"/>
     <use xlink:href="#DejaVuSans-6f" x="218.554688"/>
     <use xlink:href="#DejaVuSans-6e" x="279.736328"/>
     <use xlink:href="#DejaVuSans-74" x="343.115234"/>
     <use xlink:href="#DejaVuSans-65" x="382.324219"/>
     <use xlink:href="#DejaVuSans-6e" x="443.847656"/>
     <use xlink:href="#DejaVuSans-74" x="507.226562"/>
     <use xlink:href="#DejaVuSans-20" x="546.435547"/>
     <use xlink:href="#DejaVuSans-28" x="578.222656"/>
     <use xlink:href="#DejaVuSans-61" x="617.236328"/>
     <use xlink:href="#DejaVuSans-74" x="678.515625"/>
     <use xlink:href="#DejaVuSans-2e" x="717.724609"/>
     <use xlink:href="#DejaVuSans-25" x="749.511719"/>
     <use xlink:href="#DejaVuSans-29" x="844.53125"/>
    </g>
   </g>
   <g id="text_20">
    <!-- Cu content (at.%) -->
    <g transform="translate(152.067805 48.824386) rotate(-300) scale(0.12 -0.12)">
     <defs>
      <path id="DejaVuSans-43" d="M 4122 4306 
L 4122 3641 
Q 3803 3938 3442 4084 
Q 3081 4231 2675 4231 
Q 1875 4231 1450 3742 
Q 1025 3253 1025 2328 
Q 1025 1406 1450 917 
Q 1875 428 2675 428 
Q 3081 428 3442 575 
Q 3803 722 4122 1019 
L 4122 359 
Q 3791 134 3420 21 
Q 3050 -91 2638 -91 
Q 1578 -91 968 557 
Q 359 1206 359 2328 
Q 359 3453 968 4101 
Q 1578 4750 2638 4750 
Q 3056 4750 3426 4639 
Q 3797 4528 4122 4306 
z
" transform="scale(0.015625)"/>
     </defs>
     <use xlink:href="#DejaVuSans-43"/>
     <use xlink:href="#DejaVuSans-75" x="69.824219"/>
     <use xlink:href="#DejaVuSans-20" x="133.203125"/>
     <use xlink:href="#DejaVuSans-63" x="164.990234"/>
     <use xlink:href="#DejaVuSans-6f" x="219.970703"/>
     <use xlink:href="#DejaVuSans-6e" x="281.152344"/>
     <use xlink:href="#DejaVuSans-74" x="344.53125"/>
     <use xlink:href="#DejaVuSans-65" x="383.740234"/>
     <use xlink:href="#DejaVuSans-6e" x="445.263672"/>
     <use xlink:href="#DejaVuSans-74" x="508.642578"/>
     <use xlink:href="#DejaVuSans-20" x="547.851562"/>
     <use xlink:href="#DejaVuSans-28" x="579.638672"/>
     <use xlink:href="#DejaVuSans-61" x="618.652344"/>
     <use xlink:href="#DejaVuSans-74" x="679.931641"/>
     <use xlink:href="#DejaVuSans-2e" x="719.140625"/>
     <use xlink:href="#DejaVuSans-25" x="750.927734"/>
     <use xlink:href="#DejaVuSans-29" x="845.947266"/>
    </g>
   </g>
   <g id="text_21">
    <!-- Pd content (at.%) -->
    <g transform="translate(28.223897 140.300214) rotate(-60) scale(0.12 -0.12)">
     <defs>
      <path id="DejaVuSans-50" d="M 1259 4147 
L 1259 2394 
L 2053 2394 
Q 2494 2394 2734 2622 
Q 2975 2850 2975 3272 
Q 2975 3691 2734 3919 
Q 2494 4147 2053 4147 
L 1259 4147 
z
M 628 4666 
L 2053 4666 
Q 2838 4666 3239 4311 
Q 3641 3956 3641 3272 
Q 3641 2581 3239 2228 
Q 2838 1875 2053 1875 
L 1259 1875 
L 1259 0 
L 628 0 
L 628 4666 
z
" transform="scale(0.015625)"/>
      <path id="DejaVuSans-64" d="M 2906 2969 
L 2906 4863 
L 3481 4863 
L 3481 0 
L 2906 0 
L 2906 525 
Q 2725 213 2448 61 
Q 2172 -91 1784 -91 
Q 1150 -91 751 415 
Q 353 922 353 1747 
Q 353 2572 751 3078 
Q 1150 3584 1784 3584 
Q 2172 3584 2448 3432 
Q 2725 3281 2906 2969 
z
M 947 1747 
Q 947 1113 1208 752 
Q 1469 391 1925 391 
Q 2381 391 2643 752 
Q 2906 1113 2906 1747 
Q 2906 2381 2643 2742 
Q 2381 3103 1925 3103 
Q 1469 3103 1208 2742 
Q 947 2381 947 1747 
z
" transform="scale(0.015625)"/>
     </defs>
     <use xlink:href="#DejaVuSans-50"/>
     <use xlink:href="#DejaVuSans-64" x="60.302734"/>
     <use xlink:href="#DejaVuSans-20" x="123.779297"/>
     <use xlink:href="#DejaVuSans-63" x="155.566406"/>
     <use xlink:href="#DejaVuSans-6f" x="210.546875"/>
     <use xlink:href="#DejaVuSans-6e" x="271.728516"/>
     <use xlink:href="#DejaVuSans-74" x="335.107422"/>
     <use xlink:href="#DejaVuSans-65" x="374.316406"/>
     <use xlink:href="#DejaVuSans-6e" x="435.839844"/>
     <use xlink:href="#DejaVuSans-74" x="499.21875"/>
     <use xlink:href="#DejaVuSans-20" x="538.427734"/>
     <use xlink:href="#DejaVuSans-28" x="570.214844"/>
     <use xlink:href="#DejaVuSans-61" x="609.228516"/>
     <use xlink:href="#DejaVuSans-74" x="670.507812"/>
     <use xlink:href="#DejaVuSans-2e" x="709.716797"/>
     <use xlink:href="#DejaVuSans-25" x="741.503906"/>
     <use xlink:href="#DejaVuSans-29" x="836.523438"/>
    </g>
   </g>
   <g id="text_22">
    <!-- Au -->
    <g transform="translate(7.2 194.692548) scale(0.14 -0.14)">
     <use xlink:href="#DejaVuSans-41"/>
     <use xlink:href="#DejaVuSans-75" x="68.408203"/>
    </g>
   </g>
   <g id="text_23">
    <!-- Cu -->
    <g transform="translate(207.45592 194.692548) scale(0.14 -0.14)">
     <use xlink:href="#DejaVuSans-43"/>
     <use xlink:href="#DejaVuSans-75" x="69.824219"/>
    </g>
   </g>
   <g id="text_24">
    <!-- Pd -->
    <g transform="translate(107.88796 17.837812) scale(0.14 -0.14)">
     <use xlink:href="#DejaVuSans-50"/>
     <use xlink:href="#DejaVuSans-64" x="60.302734"/>
    </g>
   </g>
  </g>
  <g id="axes_2">
   <g id="patch_3">
    <path d="M 216.992648 120.657328 
L 222.536648 120.657328 
L 222.536648 9.777328 
L 216.992648 9.777328 
z
" style="fill: #ffffff"/>
   </g>
   <g id="QuadMesh_1">
    <path d="M 216.992648 120.657328 
L 222.536648 120.657328 
L 222.536648 112.128097 
L 216.992648 112.128097 
L 216.992648 120.657328 
" clip-path="url(#p98772be332)" style="fill: #f1fd0f; stroke: #f1fd0f"/>
    <path d="M 216.992648 112.128097 
L 222.536648 112.128097 
L 222.536648 103.598866 
L 216.992648 103.598866 
L 216.992648 112.128097 
" clip-path="url(#p98772be332)" style="fill: #cff734; stroke: #cff734"/>
    <path d="M 216.992648 103.598866 
L 222.536648 103.598866 
L 222.536648 95.069635 
L 216.992648 95.069635 
L 216.992648 103.598866 
" clip-path="url(#p98772be332)" style="fill: #adf25a; stroke: #adf25a"/>
    <path d="M 216.992648 95.069635 
L 222.536648 95.069635 
L 222.536648 86.540405 
L 216.992648 86.540405 
L 216.992648 95.069635 
" clip-path="url(#p98772be332)" style="fill: #8ded7c; stroke: #8ded7c"/>
    <path d="M 216.992648 86.540405 
L 222.536648 86.540405 
L 222.536648 78.011174 
L 216.992648 78.011174 
L 216.992648 86.540405 
" clip-path="url(#p98772be332)" style="fill: #6ae7a2; stroke: #6ae7a2"/>
    <path d="M 216.992648 78.011174 
L 222.536648 78.011174 
L 222.536648 69.481943 
L 216.992648 69.481943 
L 216.992648 78.011174 
" clip-path="url(#p98772be332)" style="fill: #4ae2c6; stroke: #4ae2c6"/>
    <path d="M 216.992648 69.481943 
L 222.536648 69.481943 
L 222.536648 60.952712 
L 216.992648 60.952712 
L 216.992648 69.481943 
" clip-path="url(#p98772be332)" style="fill: #3accd4; stroke: #3accd4"/>
    <path d="M 216.992648 60.952712 
L 222.536648 60.952712 
L 222.536648 52.423482 
L 216.992648 52.423482 
L 216.992648 60.952712 
" clip-path="url(#p98772be332)" style="fill: #33b4d9; stroke: #33b4d9"/>
    <path d="M 216.992648 52.423482 
L 222.536648 52.423482 
L 222.536648 43.894251 
L 216.992648 43.894251 
L 216.992648 52.423482 
" clip-path="url(#p98772be332)" style="fill: #2c99df; stroke: #2c99df"/>
    <path d="M 216.992648 43.894251 
L 222.536648 43.894251 
L 222.536648 35.36502 
L 216.992648 35.36502 
L 216.992648 43.894251 
" clip-path="url(#p98772be332)" style="fill: #247fe4; stroke: #247fe4"/>
    <path d="M 216.992648 35.36502 
L 222.536648 35.36502 
L 222.536648 26.835789 
L 216.992648 26.835789 
L 216.992648 35.36502 
" clip-path="url(#p98772be332)" style="fill: #1d65ea; stroke: #1d65ea"/>
    <path d="M 216.992648 26.835789 
L 222.536648 26.835789 
L 222.536648 18.306559 
L 216.992648 18.306559 
L 216.992648 26.835789 
" clip-path="url(#p98772be332)" style="fill: #164bef; stroke: #164bef"/>
    <path d="M 216.992648 18.306559 
L 222.536648 18.306559 
L 222.536648 9.777328 
L 216.992648 9.777328 
L 216.992648 18.306559 
" clip-path="url(#p98772be332)" style="fill: #0e30f5; stroke: #0e30f5"/>
   </g>
   <g id="matplotlib.axis_3"/>
   <g id="matplotlib.axis_4">
    <g id="ytick_6">
     <g id="line2d_22">
      <defs>
       <path id="m2ee8bd72a3" d="M 0 0 
L 3.5 0 
" style="stroke: #000000; stroke-width: 0.8"/>
      </defs>
      <g>
       <use xlink:href="#m2ee8bd72a3" x="222.536648" y="120.657328" style="stroke: #000000; stroke-width: 0.8"/>
      </g>
     </g>
     <g id="text_25">
      <!-- 0.00 -->
      <g transform="translate(229.536648 124.456547) scale(0.1 -0.1)">
       <use xlink:href="#DejaVuSans-30"/>
       <use xlink:href="#DejaVuSans-2e" x="63.623047"/>
       <use xlink:href="#DejaVuSans-30" x="95.410156"/>
       <use xlink:href="#DejaVuSans-30" x="159.033203"/>
      </g>
     </g>
    </g>
    <g id="ytick_7">
     <g id="line2d_23">
      <g>
       <use xlink:href="#m2ee8bd72a3" x="222.536648" y="103.598866" style="stroke: #000000; stroke-width: 0.8"/>
      </g>
     </g>
     <g id="text_26">
      <!-- 0.04 -->
      <g transform="translate(229.536648 107.398085) scale(0.1 -0.1)">
       <use xlink:href="#DejaVuSans-30"/>
       <use xlink:href="#DejaVuSans-2e" x="63.623047"/>
       <use xlink:href="#DejaVuSans-30" x="95.410156"/>
       <use xlink:href="#DejaVuSans-34" x="159.033203"/>
      </g>
     </g>
    </g>
    <g id="ytick_8">
     <g id="line2d_24">
      <g>
       <use xlink:href="#m2ee8bd72a3" x="222.536648" y="86.540405" style="stroke: #000000; stroke-width: 0.8"/>
      </g>
     </g>
     <g id="text_27">
      <!-- 0.08 -->
      <g transform="translate(229.536648 90.339623) scale(0.1 -0.1)">
       <use xlink:href="#DejaVuSans-30"/>
       <use xlink:href="#DejaVuSans-2e" x="63.623047"/>
       <use xlink:href="#DejaVuSans-30" x="95.410156"/>
       <use xlink:href="#DejaVuSans-38" x="159.033203"/>
      </g>
     </g>
    </g>
    <g id="ytick_9">
     <g id="line2d_25">
      <g>
       <use xlink:href="#m2ee8bd72a3" x="222.536648" y="69.481943" style="stroke: #000000; stroke-width: 0.8"/>
      </g>
     </g>
     <g id="text_28">
      <!-- 0.12 -->
      <g transform="translate(229.536648 73.281162) scale(0.1 -0.1)">
       <use xlink:href="#DejaVuSans-30"/>
       <use xlink:href="#DejaVuSans-2e" x="63.623047"/>
       <use xlink:href="#DejaVuSans-31" x="95.410156"/>
       <use xlink:href="#DejaVuSans-32" x="159.033203"/>
      </g>
     </g>
    </g>
    <g id="ytick_10">
     <g id="line2d_26">
      <g>
       <use xlink:href="#m2ee8bd72a3" x="222.536648" y="52.423482" style="stroke: #000000; stroke-width: 0.8"/>
      </g>
     </g>
     <g id="text_29">
      <!-- 0.16 -->
      <g transform="translate(229.536648 56.2227) scale(0.1 -0.1)">
       <use xlink:href="#DejaVuSans-30"/>
       <use xlink:href="#DejaVuSans-2e" x="63.623047"/>
       <use xlink:href="#DejaVuSans-31" x="95.410156"/>
       <use xlink:href="#DejaVuSans-36" x="159.033203"/>
      </g>
     </g>
    </g>
    <g id="ytick_11">
     <g id="line2d_27">
      <g>
       <use xlink:href="#m2ee8bd72a3" x="222.536648" y="35.36502" style="stroke: #000000; stroke-width: 0.8"/>
      </g>
     </g>
     <g id="text_30">
      <!-- 0.20 -->
      <g transform="translate(229.536648 39.164239) scale(0.1 -0.1)">
       <use xlink:href="#DejaVuSans-30"/>
       <use xlink:href="#DejaVuSans-2e" x="63.623047"/>
       <use xlink:href="#DejaVuSans-32" x="95.410156"/>
       <use xlink:href="#DejaVuSans-30" x="159.033203"/>
      </g>
     </g>
    </g>
    <g id="ytick_12">
     <g id="line2d_28">
      <g>
       <use xlink:href="#m2ee8bd72a3" x="222.536648" y="18.306559" style="stroke: #000000; stroke-width: 0.8"/>
      </g>
     </g>
     <g id="text_31">
      <!-- 0.24 -->
      <g transform="translate(229.536648 22.105777) scale(0.1 -0.1)">
       <use xlink:href="#DejaVuSans-30"/>
       <use xlink:href="#DejaVuSans-2e" x="63.623047"/>
       <use xlink:href="#DejaVuSans-32" x="95.410156"/>
       <use xlink:href="#DejaVuSans-34" x="159.033203"/>
      </g>
     </g>
    </g>
   </g>
   <g id="LineCollection_1"/>
   <g id="patch_4">
    <path d="M 216.992648 120.657328 
L 219.764648 120.657328 
L 222.536648 120.657328 
L 222.536648 9.777328 
L 219.764648 9.777328 
L 216.992648 9.777328 
L 216.992648 120.657328 
z
" style="fill: none; stroke: #000000; stroke-width: 0.8; stroke-linejoin: miter; stroke-linecap: square"/>
   </g>
  </g>
 </g>
 <defs>
  <clipPath id="pfbca7b06c8">
   <rect x="27.272648" y="25.619193" width="178.56" height="156.812269"/>
  </clipPath>
  <clipPath id="p98772be332">
   <rect x="216.992648" y="9.777328" width="5.544" height="110.88"/>
  </clipPath>
 </defs>
</svg>
