<?xml version="1.0" encoding="utf-8" standalone="no"?>
<!DOCTYPE svg PUBLIC "-//W3C//DTD SVG 1.1//EN"
  "http://www.w3.org/Graphics/SVG/1.1/DTD/svg11.dtd">
<svg xmlns:xlink="http://www.w3.org/1999/xlink" width="259.002273pt" height="210.047792pt" viewBox="0 0 259.002273 210.047792" xmlns="http://www.w3.org/2000/svg" version="1.1">
 <metadata>
  <rdf:RDF xmlns:dc="http://purl.org/dc/elements/1.1/" xmlns:cc="http://creativecommons.org/ns#" xmlns:rdf="http://www.w3.org/1999/02/22-rdf-syntax-ns#">
   <cc:Work>
    <dc:type rdf:resource="http://purl.org/dc/dcmitype/StillImage"/>
    <dc:date>2024-01-12T09:43:11.491786</dc:date>
    <dc:format>image/svg+xml</dc:format>
    <dc:creator>
     <cc:Agent>
      <dc:title>Matplotlib v3.7.0, https://matplotlib.org/</dc:title>
     </cc:Agent>
    </dc:creator>
   </cc:Work>
  </rdf:RDF>
 </metadata>
 <defs>
  <style type="text/css">*{stroke-linejoin: round; stroke-linecap: butt}</style>
 </defs>
 <g id="figure_1">
  <g id="patch_1">
   <path d="M 0 210.047792 
L 259.002273 210.047792 
L 259.002273 0 
L 0 0 
z
" style="fill: #ffffff"/>
  </g>
  <g id="axes_1">
   <g id="patch_2">
    <path d="M 27.272648 182.431462 
L 205.832648 182.431462 
L 205.832648 25.619193 
L 27.272648 25.619193 
z
" style="fill: #ffffff"/>
   </g>
   <g id="PathCollection_1">
    <defs>
     <path id="md80a320b58" d="M 183.537948 -60.290291 
L 179.777944 -60.894394 
L 174.626629 -61.667195 
L 171.82704 -61.180978 
L 166.775722 -61.20741 
L 163.957219 -61.608002 
L 158.556819 -61.385014 
L 155.705106 -61.372878 
L 150.289595 -61.646311 
L 147.86956 -61.859268 
L 141.721896 -62.428047 
L 140.011482 -62.306632 
L 133.099645 -63.30427 
L 132.467898 -63.298716 
L 125.722365 -62.02414 
L 123.667642 -62.114179 
L 117.128958 -62.850404 
L 115.905496 -62.727702 
L 109.06062 -62.76722 
L 107.956396 -63.017411 
L 100.871915 -62.892519 
L 99.659855 -62.705334 
L 93.136601 -62.232521 
L 91.201089 -62.112277 
L 85.277442 -61.78703 
L 83.052948 -62.057236 
L 76.874931 -62.282652 
L 74.861761 -61.927639 
L 68.36931 -62.956866 
L 67.358142 -62.988942 
L 60.983226 -61.691984 
L 58.527374 -61.751559 
L 52.824579 -61.765221 
L 50.16948 -61.333215 
L 47.563557 -56.819624 
L 43.505375 -49.790647 
L 39.447193 -42.76167 
L 35.389011 -35.732693 
L 43.505375 -35.732693 
L 51.621739 -35.732693 
L 59.738102 -35.732693 
L 67.854466 -35.732693 
L 75.97083 -35.732693 
L 84.087193 -35.732693 
L 92.203557 -35.732693 
L 100.31992 -35.732693 
L 108.436284 -35.732693 
L 116.552648 -35.732693 
L 124.669011 -35.732693 
L 132.785375 -35.732693 
L 140.901739 -35.732693 
L 149.018102 -35.732693 
L 157.134466 -35.732693 
L 165.25083 -35.732693 
L 173.367193 -35.732693 
L 181.483557 -35.732693 
L 189.59992 -35.732693 
L 197.716284 -35.732693 
L 193.658102 -42.76167 
L 189.59992 -49.790647 
L 185.541739 -56.819624 
" style="stroke: #f5ea26"/>
    </defs>
    <g clip-path="url(#p650669d67e)">
     <use xlink:href="#md80a320b58" x="0" y="210.047792" style="fill: #f5ea26; stroke: #f5ea26"/>
    </g>
   </g>
   <g id="PathCollection_2">
    <defs>
     <path id="mcb9542e2f4" d="M 177.152026 -71.351033 
L 169.671716 -71.505801 
L 168.906233 -71.575211 
L 162.196079 -72.615573 
L 159.680401 -73.496867 
L 154.822953 -73.902899 
L 151.606564 -73.423208 
L 146.867509 -74.181619 
L 142.708562 -74.777047 
L 139.062419 -74.72076 
L 134.126184 -75.584206 
L 131.405041 -75.515747 
L 125.99987 -75.601441 
L 123.410798 -75.727266 
L 118.009642 -75.382968 
L 114.987728 -75.196035 
L 110.054365 -75.103957 
L 106.845341 -75.150961 
L 100.653821 -77.328222 
L 100.01497 -77.378367 
L 93.220478 -76.145196 
L 91.16474 -76.107272 
L 85.237323 -75.914472 
L 83.053743 -76.116568 
L 77.594102 -75.094965 
L 73.907347 -74.3325 
L 69.723117 -74.669957 
L 66.064889 -74.806918 
L 61.814565 -74.310017 
L 57.811565 -74.569695 
L 55.67992 -70.877579 
L 51.621739 -63.848602 
L 50.16948 -61.333215 
L 52.824579 -61.765221 
L 58.527374 -61.751559 
L 60.983226 -61.691984 
L 67.358142 -62.988942 
L 68.36931 -62.956866 
L 74.861761 -61.927639 
L 76.874931 -62.282652 
L 83.052948 -62.057236 
L 85.277442 -61.78703 
L 91.201089 -62.112277 
L 93.136601 -62.232521 
L 99.659855 -62.705334 
L 100.871915 -62.892519 
L 107.956396 -63.017411 
L 109.06062 -62.76722 
L 115.905496 -62.727702 
L 117.128958 -62.850404 
L 123.667642 -62.114179 
L 125.722365 -62.02414 
L 132.467898 -63.298716 
L 133.099645 -63.30427 
L 140.011482 -62.306632 
L 141.721896 -62.428047 
L 147.86956 -61.859268 
L 150.289595 -61.646311 
L 155.705106 -61.372878 
L 158.556819 -61.385014 
L 163.957219 -61.608002 
L 166.775722 -61.20741 
L 171.82704 -61.180978 
L 174.626629 -61.667195 
L 179.777944 -60.894394 
L 183.537948 -60.290291 
L 181.483557 -63.848602 
L 177.425375 -70.877579 
" style="stroke: #fdc826"/>
    </defs>
    <g clip-path="url(#p650669d67e)">
     <use xlink:href="#mcb9542e2f4" x="0" y="210.047792" style="fill: #fdc826; stroke: #fdc826"/>
    </g>
   </g>
   <g id="PathCollection_3">
    <defs>
     <path id="mc4f9b995fb" d="M 171.831346 -80.566722 
L 166.986165 -80.912244 
L 162.77083 -82.202042 
L 160.074858 -82.999465 
L 153.81583 -83.654601 
L 152.221552 -83.455093 
L 145.803273 -83.474804 
L 144.245925 -83.698856 
L 137.093719 -84.50224 
L 136.630591 -84.566665 
L 135.238122 -84.935533 
L 129.644367 -86.524125 
L 127.710908 -86.695791 
L 121.409038 -86.318071 
L 119.69086 -86.528966 
L 113.578278 -86.81275 
L 111.525457 -86.613906 
L 105.484879 -86.852527 
L 103.044939 -87.244639 
L 97.458946 -87.009157 
L 95.13768 -86.882459 
L 88.899303 -86.241375 
L 87.612615 -85.8583 
L 81.411688 -87.3304 
L 78.371023 -87.807254 
L 73.276573 -87.297921 
L 70.469897 -87.434451 
L 63.893164 -85.103333 
L 63.796284 -84.935533 
L 59.738102 -77.906556 
L 57.811565 -74.569695 
L 61.814565 -74.310017 
L 66.064889 -74.806918 
L 69.723117 -74.669957 
L 73.907347 -74.3325 
L 77.594102 -75.094965 
L 83.053743 -76.116568 
L 85.237323 -75.914472 
L 91.16474 -76.107272 
L 93.220478 -76.145196 
L 100.01497 -77.378367 
L 100.653821 -77.328222 
L 106.845341 -75.150961 
L 110.054365 -75.103957 
L 114.987728 -75.196035 
L 118.009642 -75.382968 
L 123.410798 -75.727266 
L 125.99987 -75.601441 
L 131.405041 -75.515747 
L 134.126184 -75.584206 
L 139.062419 -74.72076 
L 142.708562 -74.777047 
L 146.867509 -74.181619 
L 151.606564 -73.423208 
L 154.822953 -73.902899 
L 159.680401 -73.496867 
L 162.196079 -72.615573 
L 168.906233 -71.575211 
L 169.671716 -71.505801 
L 177.152026 -71.351033 
L 173.367193 -77.906556 
" style="stroke: #fca934"/>
    </defs>
    <g clip-path="url(#p650669d67e)">
     <use xlink:href="#mc4f9b995fb" x="0" y="210.047792" style="fill: #fca934; stroke: #fca934"/>
    </g>
   </g>
   <g id="PathCollection_4">
    <defs>
     <path id="mca1a1e7cd6" d="M 166.969441 -88.987787 
L 163.974203 -89.753328 
L 157.5658 -91.217418 
L 156.751313 -91.30087 
L 152.80167 -91.96451 
L 149.31238 -92.474214 
L 148.62187 -92.650804 
L 141.61411 -93.198374 
L 140.017635 -93.495823 
L 134.435042 -94.821818 
L 130.526647 -95.876742 
L 127.116055 -96.202913 
L 122.443755 -95.818768 
L 118.957701 -96.130184 
L 113.819971 -96.697645 
L 111.035733 -96.466887 
L 105.450225 -97.136517 
L 103.47998 -97.437894 
L 97.425572 -96.977669 
L 95.043008 -96.882584 
L 88.641642 -98.133928 
L 87.373574 -97.656688 
L 80.664318 -97.893104 
L 79.585148 -98.224693 
L 72.856955 -97.357898 
L 71.024691 -97.455501 
L 67.854466 -91.96451 
L 63.893164 -85.103333 
L 70.469897 -87.434451 
L 73.276573 -87.297921 
L 78.371023 -87.807254 
L 81.411688 -87.3304 
L 87.612615 -85.8583 
L 88.899303 -86.241375 
L 95.13768 -86.882459 
L 97.458946 -87.009157 
L 103.044939 -87.244639 
L 105.484879 -86.852527 
L 111.525457 -86.613906 
L 113.578278 -86.81275 
L 119.69086 -86.528966 
L 121.409038 -86.318071 
L 127.710908 -86.695791 
L 129.644367 -86.524125 
L 135.238122 -84.935533 
L 136.630591 -84.566665 
L 137.093719 -84.50224 
L 144.245925 -83.698856 
L 145.803273 -83.474804 
L 152.221552 -83.455093 
L 153.81583 -83.654601 
L 160.074858 -82.999465 
L 162.77083 -82.202042 
L 166.986165 -80.912244 
L 171.831346 -80.566722 
L 169.309011 -84.935533 
" style="stroke: #f68f44"/>
    </defs>
    <g clip-path="url(#p650669d67e)">
     <use xlink:href="#mca1a1e7cd6" x="0" y="210.047792" style="fill: #f68f44; stroke: #f68f44"/>
    </g>
   </g>
   <g id="PathCollection_5">
    <defs>
     <path id="m584523b441" d="M 162.572531 -96.603458 
L 160.09288 -97.088634 
L 153.280653 -98.993487 
L 153.104834 -99.042937 
L 153.036664 -99.06211 
L 145.943066 -100.696345 
L 143.45468 -101.60064 
L 138.810172 -102.399765 
L 134.705184 -102.697257 
L 131.296764 -103.444115 
L 125.538622 -104.516255 
L 123.71962 -104.37807 
L 116.838753 -105.526915 
L 116.306697 -105.596466 
L 113.498966 -106.022464 
L 108.776265 -106.611328 
L 108.027873 -106.729853 
L 101.35993 -107.823814 
L 98.98327 -108.337611 
L 92.922193 -107.267179 
L 91.431867 -107.359071 
L 84.895238 -107.422039 
L 83.293201 -107.397699 
L 77.61498 -108.870217 
L 75.97083 -106.022464 
L 71.912648 -98.993487 
L 71.024691 -97.455501 
L 72.856955 -97.357898 
L 79.585148 -98.224693 
L 80.664318 -97.893104 
L 87.373574 -97.656688 
L 88.641642 -98.133928 
L 95.043008 -96.882584 
L 97.425572 -96.977669 
L 103.47998 -97.437894 
L 105.450225 -97.136517 
L 111.035733 -96.466887 
L 113.819971 -96.697645 
L 118.957701 -96.130184 
L 122.443755 -95.818768 
L 127.116055 -96.202913 
L 130.526647 -95.876742 
L 134.435042 -94.821818 
L 140.017635 -93.495823 
L 141.61411 -93.198374 
L 148.62187 -92.650804 
L 149.31238 -92.474214 
L 152.80167 -91.96451 
L 156.751313 -91.30087 
L 157.5658 -91.217418 
L 163.974203 -89.753328 
L 166.969441 -88.987787 
L 165.25083 -91.96451 
" style="stroke: #eb7655"/>
    </defs>
    <g clip-path="url(#p650669d67e)">
     <use xlink:href="#m584523b441" x="0" y="210.047792" style="fill: #eb7655; stroke: #eb7655"/>
    </g>
   </g>
   <g id="PathCollection_6">
    <defs>
     <path id="m30b5de5ddf" d="M 158.198536 -104.179441 
L 156.367694 -104.694376 
L 151.645702 -106.022464 
L 149.328414 -106.559939 
L 148.472973 -106.966655 
L 142.594347 -108.954148 
L 138.388089 -110.376234 
L 135.425973 -110.596114 
L 129.248428 -112.148637 
L 128.330997 -112.365209 
L 123.992648 -113.051441 
L 120.87607 -113.510851 
L 120.211402 -113.74327 
L 113.286132 -114.422648 
L 111.5789 -114.637247 
L 105.934395 -115.74702 
L 101.806474 -117.505633 
L 99.294144 -118.303721 
L 93.267998 -118.236752 
L 91.199471 -118.34129 
L 84.778929 -118.882297 
L 83.384816 -118.863865 
L 80.029011 -113.051441 
L 77.61498 -108.870217 
L 83.293201 -107.397699 
L 84.895238 -107.422039 
L 91.431867 -107.359071 
L 92.922193 -107.267179 
L 98.98327 -108.337611 
L 101.35993 -107.823814 
L 108.027873 -106.729853 
L 108.776265 -106.611328 
L 113.498966 -106.022464 
L 116.306697 -105.596466 
L 116.838753 -105.526915 
L 123.71962 -104.37807 
L 125.538622 -104.516255 
L 131.296764 -103.444115 
L 134.705184 -102.697257 
L 138.810172 -102.399765 
L 143.45468 -101.60064 
L 145.943066 -100.696345 
L 153.036664 -99.06211 
L 153.104834 -99.042937 
L 153.280653 -98.993487 
L 160.09288 -97.088634 
L 162.572531 -96.603458 
L 161.192648 -98.993487 
" style="stroke: #dc5d67"/>
    </defs>
    <g clip-path="url(#p650669d67e)">
     <use xlink:href="#m30b5de5ddf" x="0" y="210.047792" style="fill: #dc5d67; stroke: #dc5d67"/>
    </g>
   </g>
   <g id="PathCollection_7">
    <defs>
     <path id="m35053d87c8" d="M 154.371833 -110.807485 
L 152.086736 -111.337494 
L 148.481814 -113.051441 
L 145.70392 -114.340087 
L 143.61128 -115.387355 
L 139.084397 -116.93269 
L 133.42515 -118.972295 
L 132.287858 -119.218693 
L 128.358268 -120.080418 
L 125.163912 -120.937611 
L 124.071186 -121.115883 
L 118.216794 -122.962805 
L 114.22786 -124.107069 
L 110.9591 -124.450064 
L 106.297841 -127.109395 
L 104.788072 -127.819484 
L 103.762754 -128.17521 
L 97.178561 -128.697378 
L 95.00028 -129.294306 
L 89.227557 -128.983789 
L 88.145375 -127.109395 
L 84.087193 -120.080418 
L 83.384816 -118.863865 
L 84.778929 -118.882297 
L 91.199471 -118.34129 
L 93.267998 -118.236752 
L 99.294144 -118.303721 
L 101.806474 -117.505633 
L 105.934395 -115.74702 
L 111.5789 -114.637247 
L 113.286132 -114.422648 
L 120.211402 -113.74327 
L 120.87607 -113.510851 
L 123.992648 -113.051441 
L 128.330997 -112.365209 
L 129.248428 -112.148637 
L 135.425973 -110.596114 
L 138.388089 -110.376234 
L 142.594347 -108.954148 
L 148.472973 -106.966655 
L 149.328414 -106.559939 
L 151.645702 -106.022464 
L 156.367694 -104.694376 
L 158.198536 -104.179441 
L 157.134466 -106.022464 
" style="stroke: #cb4679"/>
    </defs>
    <g clip-path="url(#p650669d67e)">
     <use xlink:href="#m35053d87c8" x="0" y="210.047792" style="fill: #cb4679; stroke: #cb4679"/>
    </g>
   </g>
   <g id="PathCollection_8">
    <defs>
     <path id="m7f82b6c436" d="M 150.072175 -118.25471 
L 148.409375 -119.026072 
L 146.30259 -120.080418 
L 142.249447 -122.414717 
L 138.829229 -123.67011 
L 135.506423 -124.793412 
L 131.600783 -127.109395 
L 129.621611 -128.658572 
L 127.388705 -129.427725 
L 122.422308 -130.246968 
L 117.079982 -133.225003 
L 116.236782 -133.591278 
L 113.941789 -134.138373 
L 109.030912 -135.168298 
L 105.360943 -139.465019 
L 104.0547 -140.6072 
L 100.184648 -141.16735 
L 96.479275 -141.544134 
L 96.261739 -141.16735 
L 92.203557 -134.138373 
L 89.227557 -128.983789 
L 95.00028 -129.294306 
L 97.178561 -128.697378 
L 103.762754 -128.17521 
L 104.788072 -127.819484 
L 106.297841 -127.109395 
L 110.9591 -124.450064 
L 114.22786 -124.107069 
L 118.216794 -122.962805 
L 124.071186 -121.115883 
L 125.163912 -120.937611 
L 128.358268 -120.080418 
L 132.287858 -119.218693 
L 133.42515 -118.972295 
L 139.084397 -116.93269 
L 143.61128 -115.387355 
L 145.70392 -114.340087 
L 148.481814 -113.051441 
L 152.086736 -111.337494 
L 154.371833 -110.807485 
L 153.076284 -113.051441 
" style="stroke: #b7318b"/>
    </defs>
    <g clip-path="url(#p650669d67e)">
     <use xlink:href="#m7f82b6c436" x="0" y="210.047792" style="fill: #b7318b; stroke: #b7318b"/>
    </g>
   </g>
   <g id="PathCollection_9">
    <defs>
     <path id="m50c7141e41" d="M 144.543697 -127.830316 
L 138.446486 -129.88575 
L 134.097601 -134.138373 
L 133.210398 -134.874534 
L 131.98089 -135.531782 
L 126.428679 -137.186207 
L 121.368778 -139.854545 
L 120.152494 -140.373489 
L 118.256839 -141.16735 
L 114.231575 -144.17611 
L 110.760515 -148.196327 
L 109.215752 -149.546405 
L 106.012915 -152.393725 
L 103.453316 -153.623526 
L 100.31992 -148.196327 
L 96.479275 -141.544134 
L 100.184648 -141.16735 
L 104.0547 -140.6072 
L 105.360943 -139.465019 
L 109.030912 -135.168298 
L 113.941789 -134.138373 
L 116.236782 -133.591278 
L 117.079982 -133.225003 
L 122.422308 -130.246968 
L 127.388705 -129.427725 
L 129.621611 -128.658572 
L 131.600783 -127.109395 
L 135.506423 -124.793412 
L 138.829229 -123.67011 
L 142.249447 -122.414717 
L 146.30259 -120.080418 
L 148.409375 -119.026072 
L 150.072175 -118.25471 
L 149.018102 -120.080418 
L 144.95992 -127.109395 
" style="stroke: #9f1a9c"/>
    </defs>
    <g clip-path="url(#p650669d67e)">
     <use xlink:href="#m50c7141e41" x="0" y="210.047792" style="fill: #9f1a9c; stroke: #9f1a9c"/>
    </g>
   </g>
   <g id="PathCollection_10">
    <defs>
     <path id="mf942cf4945" d="M 140.007866 -135.686605 
L 135.729052 -139.236971 
L 132.117911 -141.16735 
L 129.604451 -142.686805 
L 125.773674 -146.282995 
L 124.186499 -147.360591 
L 123.341895 -148.196327 
L 118.666556 -151.857723 
L 115.550837 -155.225304 
L 113.684161 -157.285916 
L 109.517025 -162.254281 
L 108.895354 -163.049414 
L 108.436284 -162.254281 
L 104.378102 -155.225304 
L 103.453316 -153.623526 
L 106.012915 -152.393725 
L 109.215752 -149.546405 
L 110.760515 -148.196327 
L 114.231575 -144.17611 
L 118.256839 -141.16735 
L 120.152494 -140.373489 
L 121.368778 -139.854545 
L 126.428679 -137.186207 
L 131.98089 -135.531782 
L 133.210398 -134.874534 
L 134.097601 -134.138373 
L 138.446486 -129.88575 
L 144.543697 -127.830316 
L 140.901739 -134.138373 
" style="stroke: #8405a7"/>
    </defs>
    <g clip-path="url(#p650669d67e)">
     <use xlink:href="#mf942cf4945" x="0" y="210.047792" style="fill: #8405a7; stroke: #8405a7"/>
    </g>
   </g>
   <g id="PathCollection_11">
    <defs>
     <path id="mc46df5d8ee" d="M 133.651407 -146.696316 
L 132.367469 -147.472492 
L 131.596416 -148.196327 
L 126.846346 -151.967582 
L 123.589079 -155.225304 
L 121.724778 -157.15472 
L 117.670336 -162.254281 
L 117.024677 -163.071859 
L 112.607586 -169.283258 
L 112.547863 -169.375745 
L 112.494466 -169.283258 
L 108.895354 -163.049414 
L 109.517025 -162.254281 
L 113.684161 -157.285916 
L 115.550837 -155.225304 
L 118.666556 -151.857723 
L 123.341895 -148.196327 
L 124.186499 -147.360591 
L 125.773674 -146.282995 
L 129.604451 -142.686805 
L 132.117911 -141.16735 
L 135.729052 -139.236971 
L 140.007866 -135.686605 
L 136.843557 -141.16735 
" style="stroke: #6700a8"/>
    </defs>
    <g clip-path="url(#p650669d67e)">
     <use xlink:href="#mc46df5d8ee" x="0" y="210.047792" style="fill: #6700a8; stroke: #6700a8"/>
    </g>
   </g>
   <g id="PathCollection_12">
    <defs>
     <path id="ma22a01fab9" d="M 126.33487 -159.368929 
L 124.249308 -161.527334 
L 123.671344 -162.254281 
L 119.55906 -167.46154 
L 118.263588 -169.283258 
L 115.217719 -174.000072 
L 112.547863 -169.375745 
L 112.607586 -169.283258 
L 117.024677 -163.071859 
L 117.670336 -162.254281 
L 121.724778 -157.15472 
L 123.589079 -155.225304 
L 126.846346 -151.967582 
L 131.596416 -148.196327 
L 132.367469 -147.472492 
L 133.651407 -146.696316 
L 132.785375 -148.196327 
L 128.727193 -155.225304 
" style="stroke: #47039f"/>
    </defs>
    <g clip-path="url(#p650669d67e)">
     <use xlink:href="#ma22a01fab9" x="0" y="210.047792" style="fill: #47039f; stroke: #47039f"/>
    </g>
   </g>
   <g id="PathCollection_13">
    <defs>
     <path id="m3914141f27" d="M 115.217719 -174.000072 
L 118.263588 -169.283258 
L 119.55906 -167.46154 
L 123.671344 -162.254281 
L 124.249308 -161.527334 
L 126.33487 -159.368929 
L 124.669011 -162.254281 
L 120.61083 -169.283258 
L 116.552648 -176.312235 
" style="stroke: #230690"/>
    </defs>
    <g clip-path="url(#p650669d67e)">
     <use xlink:href="#m3914141f27" x="0" y="210.047792" style="fill: #230690; stroke: #230690"/>
    </g>
   </g>
   <g id="line2d_1">
    <path d="M 35.389011 174.315099 
L 116.552648 33.735557 
" clip-path="url(#p650669d67e)" style="fill: none; stroke: #000000; stroke-linecap: square"/>
   </g>
   <g id="line2d_2">
    <path d="M 116.552648 33.735557 
L 197.716284 174.315099 
" clip-path="url(#p650669d67e)" style="fill: none; stroke: #000000; stroke-linecap: square"/>
   </g>
   <g id="line2d_3">
    <path d="M 35.389011 174.315099 
L 197.716284 174.315099 
" clip-path="url(#p650669d67e)" style="fill: none; stroke: #000000; stroke-linecap: square"/>
   </g>
   <g id="line2d_4">
    <path d="M 197.716284 174.315099 
L 200.063861 178.381221 
" clip-path="url(#p650669d67e)" style="fill: none; stroke: #000000; stroke-linecap: square"/>
   </g>
   <g id="line2d_5">
    <path d="M 165.25083 174.315099 
L 167.598407 178.381221 
" clip-path="url(#p650669d67e)" style="fill: none; stroke: #000000; stroke-linecap: square"/>
   </g>
   <g id="line2d_6">
    <path d="M 132.785375 174.315099 
L 135.132952 178.381221 
" clip-path="url(#p650669d67e)" style="fill: none; stroke: #000000; stroke-linecap: square"/>
   </g>
   <g id="line2d_7">
    <path d="M 100.31992 174.315099 
L 102.667497 178.381221 
" clip-path="url(#p650669d67e)" style="fill: none; stroke: #000000; stroke-linecap: square"/>
   </g>
   <g id="line2d_8">
    <path d="M 67.854466 174.315099 
L 70.202043 178.381221 
" clip-path="url(#p650669d67e)" style="fill: none; stroke: #000000; stroke-linecap: square"/>
   </g>
   <g id="line2d_9">
    <path d="M 35.389011 174.315099 
L 37.736588 178.381221 
" clip-path="url(#p650669d67e)" style="fill: none; stroke: #000000; stroke-linecap: square"/>
   </g>
   <g id="line2d_10">
    <path d="M 35.389011 174.315099 
L 30.693857 174.315099 
" clip-path="url(#p650669d67e)" style="fill: none; stroke: #000000; stroke-linecap: square"/>
   </g>
   <g id="line2d_11">
    <path d="M 51.621739 146.19919 
L 46.926585 146.19919 
" clip-path="url(#p650669d67e)" style="fill: none; stroke: #000000; stroke-linecap: square"/>
   </g>
   <g id="line2d_12">
    <path d="M 67.854466 118.083282 
L 63.159312 118.083282 
" clip-path="url(#p650669d67e)" style="fill: none; stroke: #000000; stroke-linecap: square"/>
   </g>
   <g id="line2d_13">
    <path d="M 84.087193 89.967374 
L 79.392039 89.967374 
" clip-path="url(#p650669d67e)" style="fill: none; stroke: #000000; stroke-linecap: square"/>
   </g>
   <g id="line2d_14">
    <path d="M 100.31992 61.851465 
L 95.624766 61.851465 
" clip-path="url(#p650669d67e)" style="fill: none; stroke: #000000; stroke-linecap: square"/>
   </g>
   <g id="line2d_15">
    <path d="M 116.552648 33.735557 
L 111.857494 33.735557 
" clip-path="url(#p650669d67e)" style="fill: none; stroke: #000000; stroke-linecap: square"/>
   </g>
   <g id="line2d_16">
    <path d="M 116.552648 33.735557 
L 118.900225 29.669434 
" clip-path="url(#p650669d67e)" style="fill: none; stroke: #000000; stroke-linecap: square"/>
   </g>
   <g id="line2d_17">
    <path d="M 132.785375 61.851465 
L 135.132952 57.785343 
" clip-path="url(#p650669d67e)" style="fill: none; stroke: #000000; stroke-linecap: square"/>
   </g>
   <g id="line2d_18">
    <path d="M 149.018102 89.967374 
L 151.365679 85.901251 
" clip-path="url(#p650669d67e)" style="fill: none; stroke: #000000; stroke-linecap: square"/>
   </g>
   <g id="line2d_19">
    <path d="M 165.25083 118.083282 
L 167.598407 114.017159 
" clip-path="url(#p650669d67e)" style="fill: none; stroke: #000000; stroke-linecap: square"/>
   </g>
   <g id="line2d_20">
    <path d="M 181.483557 146.19919 
L 183.831134 142.133068 
" clip-path="url(#p650669d67e)" style="fill: none; stroke: #000000; stroke-linecap: square"/>
   </g>
   <g id="line2d_21">
    <path d="M 197.716284 174.315099 
L 200.063861 170.248976 
" clip-path="url(#p650669d67e)" style="fill: none; stroke: #000000; stroke-linecap: square"/>
   </g>
   <g id="matplotlib.axis_1">
    <g id="xtick_1"/>
    <g id="xtick_2"/>
    <g id="xtick_3"/>
    <g id="xtick_4"/>
    <g id="xtick_5"/>
   </g>
   <g id="matplotlib.axis_2">
    <g id="ytick_1"/>
    <g id="ytick_2"/>
    <g id="ytick_3"/>
    <g id="ytick_4"/>
    <g id="ytick_5"/>
   </g>
   <g id="text_1">
    <!-- 0 -->
    <g transform="translate(198.768602 187.301281) scale(0.12 -0.12)">
     <defs>
      <path id="DejaVuSans-30" d="M 2034 4250 
Q 1547 4250 1301 3770 
Q 1056 3291 1056 2328 
Q 1056 1369 1301 889 
Q 1547 409 2034 409 
Q 2525 409 2770 889 
Q 3016 1369 3016 2328 
Q 3016 3291 2770 3770 
Q 2525 4250 2034 4250 
z
M 2034 4750 
Q 2819 4750 3233 4129 
Q 3647 3509 3647 2328 
Q 3647 1150 3233 529 
Q 2819 -91 2034 -91 
Q 1250 -91 836 529 
Q 422 1150 422 2328 
Q 422 3509 836 4129 
Q 1250 4750 2034 4750 
z
" transform="scale(0.015625)"/>
     </defs>
     <use xlink:href="#DejaVuSans-30"/>
    </g>
   </g>
   <g id="text_2">
    <!-- 20 -->
    <g transform="translate(162.485648 187.301281) scale(0.12 -0.12)">
     <defs>
      <path id="DejaVuSans-32" d="M 1228 531 
L 3431 531 
L 3431 0 
L 469 0 
L 469 531 
Q 828 903 1448 1529 
Q 2069 2156 2228 2338 
Q 2531 2678 2651 2914 
Q 2772 3150 2772 3378 
Q 2772 3750 2511 3984 
Q 2250 4219 1831 4219 
Q 1534 4219 1204 4116 
Q 875 4013 500 3803 
L 500 4441 
Q 881 4594 1212 4672 
Q 1544 4750 1819 4750 
Q 2544 4750 2975 4387 
Q 3406 4025 3406 3419 
Q 3406 3131 3298 2873 
Q 3191 2616 2906 2266 
Q 2828 2175 2409 1742 
Q 1991 1309 1228 531 
z
" transform="scale(0.015625)"/>
     </defs>
     <use xlink:href="#DejaVuSans-32"/>
     <use xlink:href="#DejaVuSans-30" x="63.623047"/>
    </g>
   </g>
   <g id="text_3">
    <!-- 40 -->
    <g transform="translate(130.020193 187.301281) scale(0.12 -0.12)">
     <defs>
      <path id="DejaVuSans-34" d="M 2419 4116 
L 825 1625 
L 2419 1625 
L 2419 4116 
z
M 2253 4666 
L 3047 4666 
L 3047 1625 
L 3713 1625 
L 3713 1100 
L 3047 1100 
L 3047 0 
L 2419 0 
L 2419 1100 
L 313 1100 
L 313 1709 
L 2253 4666 
z
" transform="scale(0.015625)"/>
     </defs>
     <use xlink:href="#DejaVuSans-34"/>
     <use xlink:href="#DejaVuSans-30" x="63.623047"/>
    </g>
   </g>
   <g id="text_4">
    <!-- 60 -->
    <g transform="translate(97.554739 187.301281) scale(0.12 -0.12)">
     <defs>
      <path id="DejaVuSans-36" d="M 2113 2584 
Q 1688 2584 1439 2293 
Q 1191 2003 1191 1497 
Q 1191 994 1439 701 
Q 1688 409 2113 409 
Q 2538 409 2786 701 
Q 3034 994 3034 1497 
Q 3034 2003 2786 2293 
Q 2538 2584 2113 2584 
z
M 3366 4563 
L 3366 3988 
Q 3128 4100 2886 4159 
Q 2644 4219 2406 4219 
Q 1781 4219 1451 3797 
Q 1122 3375 1075 2522 
Q 1259 2794 1537 2939 
Q 1816 3084 2150 3084 
Q 2853 3084 3261 2657 
Q 3669 2231 3669 1497 
Q 3669 778 3244 343 
Q 2819 -91 2113 -91 
Q 1303 -91 875 529 
Q 447 1150 447 2328 
Q 447 3434 972 4092 
Q 1497 4750 2381 4750 
Q 2619 4750 2861 4703 
Q 3103 4656 3366 4563 
z
" transform="scale(0.015625)"/>
     </defs>
     <use xlink:href="#DejaVuSans-36"/>
     <use xlink:href="#DejaVuSans-30" x="63.623047"/>
    </g>
   </g>
   <g id="text_5">
    <!-- 80 -->
    <g transform="translate(65.089284 187.301281) scale(0.12 -0.12)">
     <defs>
      <path id="DejaVuSans-38" d="M 2034 2216 
Q 1584 2216 1326 1975 
Q 1069 1734 1069 1313 
Q 1069 891 1326 650 
Q 1584 409 2034 409 
Q 2484 409 2743 651 
Q 3003 894 3003 1313 
Q 3003 1734 2745 1975 
Q 2488 2216 2034 2216 
z
M 1403 2484 
Q 997 2584 770 2862 
Q 544 3141 544 3541 
Q 544 4100 942 4425 
Q 1341 4750 2034 4750 
Q 2731 4750 3128 4425 
Q 3525 4100 3525 3541 
Q 3525 3141 3298 2862 
Q 3072 2584 2669 2484 
Q 3125 2378 3379 2068 
Q 3634 1759 3634 1313 
Q 3634 634 3220 271 
Q 2806 -91 2034 -91 
Q 1263 -91 848 271 
Q 434 634 434 1313 
Q 434 1759 690 2068 
Q 947 2378 1403 2484 
z
M 1172 3481 
Q 1172 3119 1398 2916 
Q 1625 2713 2034 2713 
Q 2441 2713 2670 2916 
Q 2900 3119 2900 3481 
Q 2900 3844 2670 4047 
Q 2441 4250 2034 4250 
Q 1625 4250 1398 4047 
Q 1172 3844 1172 3481 
z
" transform="scale(0.015625)"/>
     </defs>
     <use xlink:href="#DejaVuSans-38"/>
     <use xlink:href="#DejaVuSans-30" x="63.623047"/>
    </g>
   </g>
   <g id="text_6">
    <!-- 100 -->
    <g transform="translate(28.80633 187.301281) scale(0.12 -0.12)">
     <defs>
      <path id="DejaVuSans-31" d="M 794 531 
L 1825 531 
L 1825 4091 
L 703 3866 
L 703 4441 
L 1819 4666 
L 2450 4666 
L 2450 531 
L 3481 531 
L 3481 0 
L 794 0 
L 794 531 
z
" transform="scale(0.015625)"/>
     </defs>
     <use xlink:href="#DejaVuSans-31"/>
     <use xlink:href="#DejaVuSans-30" x="63.623047"/>
     <use xlink:href="#DejaVuSans-30" x="127.246094"/>
    </g>
   </g>
   <g id="text_7">
    <!-- 0 -->
    <g transform="translate(22.884193 176.750008) scale(0.12 -0.12)">
     <use xlink:href="#DejaVuSans-30"/>
    </g>
   </g>
   <g id="text_8">
    <!-- 20 -->
    <g transform="translate(31.48192 148.634099) scale(0.12 -0.12)">
     <use xlink:href="#DejaVuSans-32"/>
     <use xlink:href="#DejaVuSans-30" x="63.623047"/>
    </g>
   </g>
   <g id="text_9">
    <!-- 40 -->
    <g transform="translate(47.714648 120.518191) scale(0.12 -0.12)">
     <use xlink:href="#DejaVuSans-34"/>
     <use xlink:href="#DejaVuSans-30" x="63.623047"/>
    </g>
   </g>
   <g id="text_10">
    <!-- 60 -->
    <g transform="translate(63.947375 92.402283) scale(0.12 -0.12)">
     <use xlink:href="#DejaVuSans-36"/>
     <use xlink:href="#DejaVuSans-30" x="63.623047"/>
    </g>
   </g>
   <g id="text_11">
    <!-- 80 -->
    <g transform="translate(80.180102 64.286374) scale(0.12 -0.12)">
     <use xlink:href="#DejaVuSans-38"/>
     <use xlink:href="#DejaVuSans-30" x="63.623047"/>
    </g>
   </g>
   <g id="text_12">
    <!-- 100 -->
    <g transform="translate(88.77783 36.170466) scale(0.12 -0.12)">
     <use xlink:href="#DejaVuSans-31"/>
     <use xlink:href="#DejaVuSans-30" x="63.623047"/>
     <use xlink:href="#DejaVuSans-30" x="127.246094"/>
    </g>
   </g>
   <g id="text_13">
    <!-- 0 -->
    <g transform="translate(118.987557 30.489011) scale(0.12 -0.12)">
     <use xlink:href="#DejaVuSans-30"/>
    </g>
   </g>
   <g id="text_14">
    <!-- 20 -->
    <g transform="translate(135.220284 58.60492) scale(0.12 -0.12)">
     <use xlink:href="#DejaVuSans-32"/>
     <use xlink:href="#DejaVuSans-30" x="63.623047"/>
    </g>
   </g>
   <g id="text_15">
    <!-- 40 -->
    <g transform="translate(151.453011 86.720828) scale(0.12 -0.12)">
     <use xlink:href="#DejaVuSans-34"/>
     <use xlink:href="#DejaVuSans-30" x="63.623047"/>
    </g>
   </g>
   <g id="text_16">
    <!-- 60 -->
    <g transform="translate(167.685739 114.836737) scale(0.12 -0.12)">
     <use xlink:href="#DejaVuSans-36"/>
     <use xlink:href="#DejaVuSans-30" x="63.623047"/>
    </g>
   </g>
   <g id="text_17">
    <!-- 80 -->
    <g transform="translate(183.918466 142.952645) scale(0.12 -0.12)">
     <use xlink:href="#DejaVuSans-38"/>
     <use xlink:href="#DejaVuSans-30" x="63.623047"/>
    </g>
   </g>
   <g id="text_18">
    <!-- 100 -->
    <g transform="translate(200.151193 171.068553) scale(0.12 -0.12)">
     <use xlink:href="#DejaVuSans-31"/>
     <use xlink:href="#DejaVuSans-30" x="63.623047"/>
     <use xlink:href="#DejaVuSans-30" x="127.246094"/>
    </g>
   </g>
   <g id="text_19">
    <!-- Au content (at.%) -->
    <g transform="translate(63.54171 200.352167) scale(0.12 -0.12)">
     <defs>
      <path id="DejaVuSans-41" d="M 2188 4044 
L 1331 1722 
L 3047 1722 
L 2188 4044 
z
M 1831 4666 
L 2547 4666 
L 4325 0 
L 3669 0 
L 3244 1197 
L 1141 1197 
L 716 0 
L 50 0 
L 1831 4666 
z
" transform="scale(0.015625)"/>
      <path id="DejaVuSans-75" d="M 544 1381 
L 544 3500 
L 1119 3500 
L 1119 1403 
Q 1119 906 1312 657 
Q 1506 409 1894 409 
Q 2359 409 2629 706 
Q 2900 1003 2900 1516 
L 2900 3500 
L 3475 3500 
L 3475 0 
L 2900 0 
L 2900 538 
Q 2691 219 2414 64 
Q 2138 -91 1772 -91 
Q 1169 -91 856 284 
Q 544 659 544 1381 
z
M 1991 3584 
L 1991 3584 
z
" transform="scale(0.015625)"/>
      <path id="DejaVuSans-20" transform="scale(0.015625)"/>
      <path id="DejaVuSans-63" d="M 3122 3366 
L 3122 2828 
Q 2878 2963 2633 3030 
Q 2388 3097 2138 3097 
Q 1578 3097 1268 2742 
Q 959 2388 959 1747 
Q 959 1106 1268 751 
Q 1578 397 2138 397 
Q 2388 397 2633 464 
Q 2878 531 3122 666 
L 3122 134 
Q 2881 22 2623 -34 
Q 2366 -91 2075 -91 
Q 1284 -91 818 406 
Q 353 903 353 1747 
Q 353 2603 823 3093 
Q 1294 3584 2113 3584 
Q 2378 3584 2631 3529 
Q 2884 3475 3122 3366 
z
" transform="scale(0.015625)"/>
      <path id="DejaVuSans-6f" d="M 1959 3097 
Q 1497 3097 1228 2736 
Q 959 2375 959 1747 
Q 959 1119 1226 758 
Q 1494 397 1959 397 
Q 2419 397 2687 759 
Q 2956 1122 2956 1747 
Q 2956 2369 2687 2733 
Q 2419 3097 1959 3097 
z
M 1959 3584 
Q 2709 3584 3137 3096 
Q 3566 2609 3566 1747 
Q 3566 888 3137 398 
Q 2709 -91 1959 -91 
Q 1206 -91 779 398 
Q 353 888 353 1747 
Q 353 2609 779 3096 
Q 1206 3584 1959 3584 
z
" transform="scale(0.015625)"/>
      <path id="DejaVuSans-6e" d="M 3513 2113 
L 3513 0 
L 2938 0 
L 2938 2094 
Q 2938 2591 2744 2837 
Q 2550 3084 2163 3084 
Q 1697 3084 1428 2787 
Q 1159 2491 1159 1978 
L 1159 0 
L 581 0 
L 581 3500 
L 1159 3500 
L 1159 2956 
Q 1366 3272 1645 3428 
Q 1925 3584 2291 3584 
Q 2894 3584 3203 3211 
Q 3513 2838 3513 2113 
z
" transform="scale(0.015625)"/>
      <path id="DejaVuSans-74" d="M 1172 4494 
L 1172 3500 
L 2356 3500 
L 2356 3053 
L 1172 3053 
L 1172 1153 
Q 1172 725 1289 603 
Q 1406 481 1766 481 
L 2356 481 
L 2356 0 
L 1766 0 
Q 1100 0 847 248 
Q 594 497 594 1153 
L 594 3053 
L 172 3053 
L 172 3500 
L 594 3500 
L 594 4494 
L 1172 4494 
z
" transform="scale(0.015625)"/>
      <path id="DejaVuSans-65" d="M 3597 1894 
L 3597 1613 
L 953 1613 
Q 991 1019 1311 708 
Q 1631 397 2203 397 
Q 2534 397 2845 478 
Q 3156 559 3463 722 
L 3463 178 
Q 3153 47 2828 -22 
Q 2503 -91 2169 -91 
Q 1331 -91 842 396 
Q 353 884 353 1716 
Q 353 2575 817 3079 
Q 1281 3584 2069 3584 
Q 2775 3584 3186 3129 
Q 3597 2675 3597 1894 
z
M 3022 2063 
Q 3016 2534 2758 2815 
Q 2500 3097 2075 3097 
Q 1594 3097 1305 2825 
Q 1016 2553 972 2059 
L 3022 2063 
z
" transform="scale(0.015625)"/>
      <path id="DejaVuSans-28" d="M 1984 4856 
Q 1566 4138 1362 3434 
Q 1159 2731 1159 2009 
Q 1159 1288 1364 580 
Q 1569 -128 1984 -844 
L 1484 -844 
Q 1016 -109 783 600 
Q 550 1309 550 2009 
Q 550 2706 781 3412 
Q 1013 4119 1484 4856 
L 1984 4856 
z
" transform="scale(0.015625)"/>
      <path id="DejaVuSans-61" d="M 2194 1759 
Q 1497 1759 1228 1600 
Q 959 1441 959 1056 
Q 959 750 1161 570 
Q 1363 391 1709 391 
Q 2188 391 2477 730 
Q 2766 1069 2766 1631 
L 2766 1759 
L 2194 1759 
z
M 3341 1997 
L 3341 0 
L 2766 0 
L 2766 531 
Q 2569 213 2275 61 
Q 1981 -91 1556 -91 
Q 1019 -91 701 211 
Q 384 513 384 1019 
Q 384 1609 779 1909 
Q 1175 2209 1959 2209 
L 2766 2209 
L 2766 2266 
Q 2766 2663 2505 2880 
Q 2244 3097 1772 3097 
Q 1472 3097 1187 3025 
Q 903 2953 641 2809 
L 641 3341 
Q 956 3463 1253 3523 
Q 1550 3584 1831 3584 
Q 2591 3584 2966 3190 
Q 3341 2797 3341 1997 
z
" transform="scale(0.015625)"/>
      <path id="DejaVuSans-2e" d="M 684 794 
L 1344 794 
L 1344 0 
L 684 0 
L 684 794 
z
" transform="scale(0.015625)"/>
      <path id="DejaVuSans-25" d="M 4653 2053 
Q 4381 2053 4226 1822 
Q 4072 1591 4072 1178 
Q 4072 772 4226 539 
Q 4381 306 4653 306 
Q 4919 306 5073 539 
Q 5228 772 5228 1178 
Q 5228 1588 5073 1820 
Q 4919 2053 4653 2053 
z
M 4653 2450 
Q 5147 2450 5437 2106 
Q 5728 1763 5728 1178 
Q 5728 594 5436 251 
Q 5144 -91 4653 -91 
Q 4153 -91 3862 251 
Q 3572 594 3572 1178 
Q 3572 1766 3864 2108 
Q 4156 2450 4653 2450 
z
M 1428 4353 
Q 1159 4353 1004 4120 
Q 850 3888 850 3481 
Q 850 3069 1003 2837 
Q 1156 2606 1428 2606 
Q 1700 2606 1854 2837 
Q 2009 3069 2009 3481 
Q 2009 3884 1853 4118 
Q 1697 4353 1428 4353 
z
M 4250 4750 
L 4750 4750 
L 1831 -91 
L 1331 -91 
L 4250 4750 
z
M 1428 4750 
Q 1922 4750 2215 4408 
Q 2509 4066 2509 3481 
Q 2509 2891 2217 2550 
Q 1925 2209 1428 2209 
Q 931 2209 642 2551 
Q 353 2894 353 3481 
Q 353 4063 643 4406 
Q 934 4750 1428 4750 
z
" transform="scale(0.015625)"/>
      <path id="DejaVuSans-29" d="M 513 4856 
L 1013 4856 
Q 1481 4119 1714 3412 
Q 1947 2706 1947 2009 
Q 1947 1309 1714 600 
Q 1481 -109 1013 -844 
L 513 -844 
Q 928 -128 1133 580 
Q 1338 1288 1338 2009 
Q 1338 2731 1133 3434 
Q 928 4138 513 4856 
z
" transform="scale(0.015625)"/>
     </defs>
     <use xlink:href="#DejaVuSans-41"/>
     <use xlink:href="#DejaVuSans-75" x="68.408203"/>
     <use xlink:href="#DejaVuSans-20" x="131.787109"/>
     <use xlink:href="#DejaVuSans-63" x="163.574219"/>
     <use xlink:href="#DejaVuSans-6f" x="218.554688"/>
     <use xlink:href="#DejaVuSans-6e" x="279.736328"/>
     <use xlink:href="#DejaVuSans-74" x="343.115234"/>
     <use xlink:href="#DejaVuSans-65" x="382.324219"/>
     <use xlink:href="#DejaVuSans-6e" x="443.847656"/>
     <use xlink:href="#DejaVuSans-74" x="507.226562"/>
     <use xlink:href="#DejaVuSans-20" x="546.435547"/>
     <use xlink:href="#DejaVuSans-28" x="578.222656"/>
     <use xlink:href="#DejaVuSans-61" x="617.236328"/>
     <use xlink:href="#DejaVuSans-74" x="678.515625"/>
     <use xlink:href="#DejaVuSans-2e" x="717.724609"/>
     <use xlink:href="#DejaVuSans-25" x="749.511719"/>
     <use xlink:href="#DejaVuSans-29" x="844.53125"/>
    </g>
   </g>
   <g id="text_20">
    <!-- Cu content (at.%) -->
    <g transform="translate(152.067805 48.824386) rotate(-300) scale(0.12 -0.12)">
     <defs>
      <path id="DejaVuSans-43" d="M 4122 4306 
L 4122 3641 
Q 3803 3938 3442 4084 
Q 3081 4231 2675 4231 
Q 1875 4231 1450 3742 
Q 1025 3253 1025 2328 
Q 1025 1406 1450 917 
Q 1875 428 2675 428 
Q 3081 428 3442 575 
Q 3803 722 4122 1019 
L 4122 359 
Q 3791 134 3420 21 
Q 3050 -91 2638 -91 
Q 1578 -91 968 557 
Q 359 1206 359 2328 
Q 359 3453 968 4101 
Q 1578 4750 2638 4750 
Q 3056 4750 3426 4639 
Q 3797 4528 4122 4306 
z
" transform="scale(0.015625)"/>
     </defs>
     <use xlink:href="#DejaVuSans-43"/>
     <use xlink:href="#DejaVuSans-75" x="69.824219"/>
     <use xlink:href="#DejaVuSans-20" x="133.203125"/>
     <use xlink:href="#DejaVuSans-63" x="164.990234"/>
     <use xlink:href="#DejaVuSans-6f" x="219.970703"/>
     <use xlink:href="#DejaVuSans-6e" x="281.152344"/>
     <use xlink:href="#DejaVuSans-74" x="344.53125"/>
     <use xlink:href="#DejaVuSans-65" x="383.740234"/>
     <use xlink:href="#DejaVuSans-6e" x="445.263672"/>
     <use xlink:href="#DejaVuSans-74" x="508.642578"/>
     <use xlink:href="#DejaVuSans-20" x="547.851562"/>
     <use xlink:href="#DejaVuSans-28" x="579.638672"/>
     <use xlink:href="#DejaVuSans-61" x="618.652344"/>
     <use xlink:href="#DejaVuSans-74" x="679.931641"/>
     <use xlink:href="#DejaVuSans-2e" x="719.140625"/>
     <use xlink:href="#DejaVuSans-25" x="750.927734"/>
     <use xlink:href="#DejaVuSans-29" x="845.947266"/>
    </g>
   </g>
   <g id="text_21">
    <!-- Pd content (at.%) -->
    <g transform="translate(28.223897 140.300214) rotate(-60) scale(0.12 -0.12)">
     <defs>
      <path id="DejaVuSans-50" d="M 1259 4147 
L 1259 2394 
L 2053 2394 
Q 2494 2394 2734 2622 
Q 2975 2850 2975 3272 
Q 2975 3691 2734 3919 
Q 2494 4147 2053 4147 
L 1259 4147 
z
M 628 4666 
L 2053 4666 
Q 2838 4666 3239 4311 
Q 3641 3956 3641 3272 
Q 3641 2581 3239 2228 
Q 2838 1875 2053 1875 
L 1259 1875 
L 1259 0 
L 628 0 
L 628 4666 
z
" transform="scale(0.015625)"/>
      <path id="DejaVuSans-64" d="M 2906 2969 
L 2906 4863 
L 3481 4863 
L 3481 0 
L 2906 0 
L 2906 525 
Q 2725 213 2448 61 
Q 2172 -91 1784 -91 
Q 1150 -91 751 415 
Q 353 922 353 1747 
Q 353 2572 751 3078 
Q 1150 3584 1784 3584 
Q 2172 3584 2448 3432 
Q 2725 3281 2906 2969 
z
M 947 1747 
Q 947 1113 1208 752 
Q 1469 391 1925 391 
Q 2381 391 2643 752 
Q 2906 1113 2906 1747 
Q 2906 2381 2643 2742 
Q 2381 3103 1925 3103 
Q 1469 3103 1208 2742 
Q 947 2381 947 1747 
z
" transform="scale(0.015625)"/>
     </defs>
     <use xlink:href="#DejaVuSans-50"/>
     <use xlink:href="#DejaVuSans-64" x="60.302734"/>
     <use xlink:href="#DejaVuSans-20" x="123.779297"/>
     <use xlink:href="#DejaVuSans-63" x="155.566406"/>
     <use xlink:href="#DejaVuSans-6f" x="210.546875"/>
     <use xlink:href="#DejaVuSans-6e" x="271.728516"/>
     <use xlink:href="#DejaVuSans-74" x="335.107422"/>
     <use xlink:href="#DejaVuSans-65" x="374.316406"/>
     <use xlink:href="#DejaVuSans-6e" x="435.839844"/>
     <use xlink:href="#DejaVuSans-74" x="499.21875"/>
     <use xlink:href="#DejaVuSans-20" x="538.427734"/>
     <use xlink:href="#DejaVuSans-28" x="570.214844"/>
     <use xlink:href="#DejaVuSans-61" x="609.228516"/>
     <use xlink:href="#DejaVuSans-74" x="670.507812"/>
     <use xlink:href="#DejaVuSans-2e" x="709.716797"/>
     <use xlink:href="#DejaVuSans-25" x="741.503906"/>
     <use xlink:href="#DejaVuSans-29" x="836.523438"/>
    </g>
   </g>
   <g id="text_22">
    <!-- Au -->
    <g transform="translate(7.2 194.692548) scale(0.14 -0.14)">
     <use xlink:href="#DejaVuSans-41"/>
     <use xlink:href="#DejaVuSans-75" x="68.408203"/>
    </g>
   </g>
   <g id="text_23">
    <!-- Cu -->
    <g transform="translate(207.45592 194.692548) scale(0.14 -0.14)">
     <use xlink:href="#DejaVuSans-43"/>
     <use xlink:href="#DejaVuSans-75" x="69.824219"/>
    </g>
   </g>
   <g id="text_24">
    <!-- Pd -->
    <g transform="translate(107.88796 17.837812) scale(0.14 -0.14)">
     <use xlink:href="#DejaVuSans-50"/>
     <use xlink:href="#DejaVuSans-64" x="60.302734"/>
    </g>
   </g>
  </g>
  <g id="axes_2">
   <g id="patch_3">
    <path d="M 216.992648 120.657328 
L 222.536648 120.657328 
L 222.536648 9.777328 
L 216.992648 9.777328 
z
" style="fill: #ffffff"/>
   </g>
   <g id="QuadMesh_1">
    <path d="M 216.992648 120.657328 
L 222.536648 120.657328 
L 222.536648 112.128097 
L 216.992648 112.128097 
L 216.992648 120.657328 
" clip-path="url(#p9f5c6520b7)" style="fill: #f5ea26; stroke: #f5ea26"/>
    <path d="M 216.992648 112.128097 
L 222.536648 112.128097 
L 222.536648 103.598866 
L 216.992648 103.598866 
L 216.992648 112.128097 
" clip-path="url(#p9f5c6520b7)" style="fill: #fdc826; stroke: #fdc826"/>
    <path d="M 216.992648 103.598866 
L 222.536648 103.598866 
L 222.536648 95.069635 
L 216.992648 95.069635 
L 216.992648 103.598866 
" clip-path="url(#p9f5c6520b7)" style="fill: #fca934; stroke: #fca934"/>
    <path d="M 216.992648 95.069635 
L 222.536648 95.069635 
L 222.536648 86.540405 
L 216.992648 86.540405 
L 216.992648 95.069635 
" clip-path="url(#p9f5c6520b7)" style="fill: #f68f44; stroke: #f68f44"/>
    <path d="M 216.992648 86.540405 
L 222.536648 86.540405 
L 222.536648 78.011174 
L 216.992648 78.011174 
L 216.992648 86.540405 
" clip-path="url(#p9f5c6520b7)" style="fill: #eb7655; stroke: #eb7655"/>
    <path d="M 216.992648 78.011174 
L 222.536648 78.011174 
L 222.536648 69.481943 
L 216.992648 69.481943 
L 216.992648 78.011174 
" clip-path="url(#p9f5c6520b7)" style="fill: #dc5d67; stroke: #dc5d67"/>
    <path d="M 216.992648 69.481943 
L 222.536648 69.481943 
L 222.536648 60.952712 
L 216.992648 60.952712 
L 216.992648 69.481943 
" clip-path="url(#p9f5c6520b7)" style="fill: #cb4679; stroke: #cb4679"/>
    <path d="M 216.992648 60.952712 
L 222.536648 60.952712 
L 222.536648 52.423482 
L 216.992648 52.423482 
L 216.992648 60.952712 
" clip-path="url(#p9f5c6520b7)" style="fill: #b7318b; stroke: #b7318b"/>
    <path d="M 216.992648 52.423482 
L 222.536648 52.423482 
L 222.536648 43.894251 
L 216.992648 43.894251 
L 216.992648 52.423482 
" clip-path="url(#p9f5c6520b7)" style="fill: #9f1a9c; stroke: #9f1a9c"/>
    <path d="M 216.992648 43.894251 
L 222.536648 43.894251 
L 222.536648 35.36502 
L 216.992648 35.36502 
L 216.992648 43.894251 
" clip-path="url(#p9f5c6520b7)" style="fill: #8405a7; stroke: #8405a7"/>
    <path d="M 216.992648 35.36502 
L 222.536648 35.36502 
L 222.536648 26.835789 
L 216.992648 26.835789 
L 216.992648 35.36502 
" clip-path="url(#p9f5c6520b7)" style="fill: #6700a8; stroke: #6700a8"/>
    <path d="M 216.992648 26.835789 
L 222.536648 26.835789 
L 222.536648 18.306559 
L 216.992648 18.306559 
L 216.992648 26.835789 
" clip-path="url(#p9f5c6520b7)" style="fill: #47039f; stroke: #47039f"/>
    <path d="M 216.992648 18.306559 
L 222.536648 18.306559 
L 222.536648 9.777328 
L 216.992648 9.777328 
L 216.992648 18.306559 
" clip-path="url(#p9f5c6520b7)" style="fill: #230690; stroke: #230690"/>
   </g>
   <g id="matplotlib.axis_3"/>
   <g id="matplotlib.axis_4">
    <g id="ytick_6">
     <g id="line2d_22">
      <defs>
       <path id="ma9df02b4e1" d="M 0 0 
L 3.5 0 
" style="stroke: #000000; stroke-width: 0.8"/>
      </defs>
      <g>
       <use xlink:href="#ma9df02b4e1" x="222.536648" y="120.657328" style="stroke: #000000; stroke-width: 0.8"/>
      </g>
     </g>
     <g id="text_25">
      <!-- 0.00 -->
      <g transform="translate(229.536648 124.456547) scale(0.1 -0.1)">
       <use xlink:href="#DejaVuSans-30"/>
       <use xlink:href="#DejaVuSans-2e" x="63.623047"/>
       <use xlink:href="#DejaVuSans-30" x="95.410156"/>
       <use xlink:href="#DejaVuSans-30" x="159.033203"/>
      </g>
     </g>
    </g>
    <g id="ytick_7">
     <g id="line2d_23">
      <g>
       <use xlink:href="#ma9df02b4e1" x="222.536648" y="103.598866" style="stroke: #000000; stroke-width: 0.8"/>
      </g>
     </g>
     <g id="text_26">
      <!-- 0.16 -->
      <g transform="translate(229.536648 107.398085) scale(0.1 -0.1)">
       <use xlink:href="#DejaVuSans-30"/>
       <use xlink:href="#DejaVuSans-2e" x="63.623047"/>
       <use xlink:href="#DejaVuSans-31" x="95.410156"/>
       <use xlink:href="#DejaVuSans-36" x="159.033203"/>
      </g>
     </g>
    </g>
    <g id="ytick_8">
     <g id="line2d_24">
      <g>
       <use xlink:href="#ma9df02b4e1" x="222.536648" y="86.540405" style="stroke: #000000; stroke-width: 0.8"/>
      </g>
     </g>
     <g id="text_27">
      <!-- 0.32 -->
      <g transform="translate(229.536648 90.339623) scale(0.1 -0.1)">
       <defs>
        <path id="DejaVuSans-33" d="M 2597 2516 
Q 3050 2419 3304 2112 
Q 3559 1806 3559 1356 
Q 3559 666 3084 287 
Q 2609 -91 1734 -91 
Q 1441 -91 1130 -33 
Q 819 25 488 141 
L 488 750 
Q 750 597 1062 519 
Q 1375 441 1716 441 
Q 2309 441 2620 675 
Q 2931 909 2931 1356 
Q 2931 1769 2642 2001 
Q 2353 2234 1838 2234 
L 1294 2234 
L 1294 2753 
L 1863 2753 
Q 2328 2753 2575 2939 
Q 2822 3125 2822 3475 
Q 2822 3834 2567 4026 
Q 2313 4219 1838 4219 
Q 1578 4219 1281 4162 
Q 984 4106 628 3988 
L 628 4550 
Q 988 4650 1302 4700 
Q 1616 4750 1894 4750 
Q 2613 4750 3031 4423 
Q 3450 4097 3450 3541 
Q 3450 3153 3228 2886 
Q 3006 2619 2597 2516 
z
" transform="scale(0.015625)"/>
       </defs>
       <use xlink:href="#DejaVuSans-30"/>
       <use xlink:href="#DejaVuSans-2e" x="63.623047"/>
       <use xlink:href="#DejaVuSans-33" x="95.410156"/>
       <use xlink:href="#DejaVuSans-32" x="159.033203"/>
      </g>
     </g>
    </g>
    <g id="ytick_9">
     <g id="line2d_25">
      <g>
       <use xlink:href="#ma9df02b4e1" x="222.536648" y="69.481943" style="stroke: #000000; stroke-width: 0.8"/>
      </g>
     </g>
     <g id="text_28">
      <!-- 0.48 -->
      <g transform="translate(229.536648 73.281162) scale(0.1 -0.1)">
       <use xlink:href="#DejaVuSans-30"/>
       <use xlink:href="#DejaVuSans-2e" x="63.623047"/>
       <use xlink:href="#DejaVuSans-34" x="95.410156"/>
       <use xlink:href="#DejaVuSans-38" x="159.033203"/>
      </g>
     </g>
    </g>
    <g id="ytick_10">
     <g id="line2d_26">
      <g>
       <use xlink:href="#ma9df02b4e1" x="222.536648" y="52.423482" style="stroke: #000000; stroke-width: 0.8"/>
      </g>
     </g>
     <g id="text_29">
      <!-- 0.64 -->
      <g transform="translate(229.536648 56.2227) scale(0.1 -0.1)">
       <use xlink:href="#DejaVuSans-30"/>
       <use xlink:href="#DejaVuSans-2e" x="63.623047"/>
       <use xlink:href="#DejaVuSans-36" x="95.410156"/>
       <use xlink:href="#DejaVuSans-34" x="159.033203"/>
      </g>
     </g>
    </g>
    <g id="ytick_11">
     <g id="line2d_27">
      <g>
       <use xlink:href="#ma9df02b4e1" x="222.536648" y="35.36502" style="stroke: #000000; stroke-width: 0.8"/>
      </g>
     </g>
     <g id="text_30">
      <!-- 0.80 -->
      <g transform="translate(229.536648 39.164239) scale(0.1 -0.1)">
       <use xlink:href="#DejaVuSans-30"/>
       <use xlink:href="#DejaVuSans-2e" x="63.623047"/>
       <use xlink:href="#DejaVuSans-38" x="95.410156"/>
       <use xlink:href="#DejaVuSans-30" x="159.033203"/>
      </g>
     </g>
    </g>
    <g id="ytick_12">
     <g id="line2d_28">
      <g>
       <use xlink:href="#ma9df02b4e1" x="222.536648" y="18.306559" style="stroke: #000000; stroke-width: 0.8"/>
      </g>
     </g>
     <g id="text_31">
      <!-- 0.96 -->
      <g transform="translate(229.536648 22.105777) scale(0.1 -0.1)">
       <defs>
        <path id="DejaVuSans-39" d="M 703 97 
L 703 672 
Q 941 559 1184 500 
Q 1428 441 1663 441 
Q 2288 441 2617 861 
Q 2947 1281 2994 2138 
Q 2813 1869 2534 1725 
Q 2256 1581 1919 1581 
Q 1219 1581 811 2004 
Q 403 2428 403 3163 
Q 403 3881 828 4315 
Q 1253 4750 1959 4750 
Q 2769 4750 3195 4129 
Q 3622 3509 3622 2328 
Q 3622 1225 3098 567 
Q 2575 -91 1691 -91 
Q 1453 -91 1209 -44 
Q 966 3 703 97 
z
M 1959 2075 
Q 2384 2075 2632 2365 
Q 2881 2656 2881 3163 
Q 2881 3666 2632 3958 
Q 2384 4250 1959 4250 
Q 1534 4250 1286 3958 
Q 1038 3666 1038 3163 
Q 1038 2656 1286 2365 
Q 1534 2075 1959 2075 
z
" transform="scale(0.015625)"/>
       </defs>
       <use xlink:href="#DejaVuSans-30"/>
       <use xlink:href="#DejaVuSans-2e" x="63.623047"/>
       <use xlink:href="#DejaVuSans-39" x="95.410156"/>
       <use xlink:href="#DejaVuSans-36" x="159.033203"/>
      </g>
     </g>
    </g>
   </g>
   <g id="LineCollection_1"/>
   <g id="patch_4">
    <path d="M 216.992648 120.657328 
L 219.764648 120.657328 
L 222.536648 120.657328 
L 222.536648 9.777328 
L 219.764648 9.777328 
L 216.992648 9.777328 
L 216.992648 120.657328 
z
" style="fill: none; stroke: #000000; stroke-width: 0.8; stroke-linejoin: miter; stroke-linecap: square"/>
   </g>
  </g>
 </g>
 <defs>
  <clipPath id="p650669d67e">
   <rect x="27.272648" y="25.619193" width="178.56" height="156.812269"/>
  </clipPath>
  <clipPath id="p9f5c6520b7">
   <rect x="216.992648" y="9.777328" width="5.544" height="110.88"/>
  </clipPath>
 </defs>
</svg>
