<?xml version="1.0" encoding="utf-8" standalone="no"?>
<!DOCTYPE svg PUBLIC "-//W3C//DTD SVG 1.1//EN"
  "http://www.w3.org/Graphics/SVG/1.1/DTD/svg11.dtd">
<svg xmlns:xlink="http://www.w3.org/1999/xlink" width="265.364773pt" height="210.047792pt" viewBox="0 0 265.364773 210.047792" xmlns="http://www.w3.org/2000/svg" version="1.1">
 <metadata>
  <rdf:RDF xmlns:dc="http://purl.org/dc/elements/1.1/" xmlns:cc="http://creativecommons.org/ns#" xmlns:rdf="http://www.w3.org/1999/02/22-rdf-syntax-ns#">
   <cc:Work>
    <dc:type rdf:resource="http://purl.org/dc/dcmitype/StillImage"/>
    <dc:date>2024-01-12T09:43:12.296922</dc:date>
    <dc:format>image/svg+xml</dc:format>
    <dc:creator>
     <cc:Agent>
      <dc:title>Matplotlib v3.7.0, https://matplotlib.org/</dc:title>
     </cc:Agent>
    </dc:creator>
   </cc:Work>
  </rdf:RDF>
 </metadata>
 <defs>
  <style type="text/css">*{stroke-linejoin: round; stroke-linecap: butt}</style>
 </defs>
 <g id="figure_1">
  <g id="patch_1">
   <path d="M 0 210.047792 
L 265.364773 210.047792 
L 265.364773 0 
L 0 0 
z
" style="fill: #ffffff"/>
  </g>
  <g id="axes_1">
   <g id="patch_2">
    <path d="M 27.272648 182.431462 
L 205.832648 182.431462 
L 205.832648 25.619193 
L 27.272648 25.619193 
z
" style="fill: #ffffff"/>
   </g>
   <g id="PathCollection_1">
    <defs>
     <path id="mec5d6c7132" d="M 183.154573 -60.954317 
L 182.643037 -56.819624 
L 179.483045 -53.255636 
L 177.745758 -49.790647 
L 176.392383 -44.550864 
L 175.058102 -42.76167 
L 171.817706 -38.416484 
L 167.218433 -39.140682 
L 164.413011 -37.183837 
L 162.158881 -35.732693 
L 165.25083 -35.732693 
L 173.367193 -35.732693 
L 181.483557 -35.732693 
L 189.59992 -35.732693 
L 197.716284 -35.732693 
L 193.658102 -42.76167 
L 189.59992 -49.790647 
L 185.541739 -56.819624 
M 166.318772 -90.114779 
L 167.587358 -84.935533 
L 168.421284 -83.397944 
L 170.590542 -77.906556 
L 172.322513 -76.097116 
L 176.072648 -73.220571 
L 173.367193 -77.906556 
L 169.309011 -84.935533 
M 157.35992 -105.631965 
L 158.93071 -98.993487 
L 160.607994 -97.980838 
L 164.328515 -93.562005 
L 161.192648 -98.993487 
M 93.975439 -137.207363 
L 98.759081 -136.841825 
L 102.679328 -138.224987 
L 105.151089 -134.138373 
L 107.551809 -132.606416 
L 110.004218 -131.422631 
L 114.180172 -130.029124 
L 120.313889 -127.623711 
L 120.828232 -127.485948 
L 121.450453 -127.109395 
L 125.088823 -120.807554 
L 125.683557 -120.080418 
L 131.794424 -118.36404 
L 135.028054 -116.195984 
L 138.75992 -116.37068 
L 142.362684 -113.051441 
L 144.452648 -112.172819 
L 146.505894 -110.373736 
L 150.052541 -107.814164 
L 157.03041 -106.202694 
L 153.076284 -113.051441 
L 149.018102 -120.080418 
L 144.95992 -127.109395 
L 140.901739 -134.138373 
L 136.843557 -141.16735 
L 132.785375 -148.196327 
L 128.727193 -155.225304 
L 124.669011 -162.254281 
L 120.61083 -169.283258 
L 116.552648 -176.312235 
L 112.494466 -169.283258 
L 108.436284 -162.254281 
L 104.378102 -155.225304 
L 100.31992 -148.196327 
L 96.261739 -141.16735 
M 46.21083 -35.732693 
L 44.241199 -37.007178 
L 40.769522 -42.76167 
L 40.293864 -44.228148 
L 39.447193 -42.76167 
L 35.389011 -35.732693 
L 43.505375 -35.732693 
" style="stroke: #3e4b89"/>
    </defs>
    <g clip-path="url(#pfc8cac6ddb)">
     <use xlink:href="#mec5d6c7132" x="0" y="210.047792" style="fill: #3e4b89; stroke: #3e4b89"/>
    </g>
   </g>
   <g id="PathCollection_2">
    <defs>
     <path id="m0ab1bf94d8" d="M 176.072648 -73.220571 
L 172.322513 -76.097116 
L 170.590542 -77.906556 
L 168.421284 -83.397944 
L 167.587358 -84.935533 
L 166.318772 -90.114779 
L 165.25083 -91.96451 
L 164.328515 -93.562005 
L 160.607994 -97.980838 
L 158.93071 -98.993487 
L 157.35992 -105.631965 
L 157.134466 -106.022464 
L 157.03041 -106.202694 
L 150.052541 -107.814164 
L 146.505894 -110.373736 
L 144.452648 -112.172819 
L 142.362684 -113.051441 
L 138.75992 -116.37068 
L 135.028054 -116.195984 
L 131.794424 -118.36404 
L 125.683557 -120.080418 
L 125.088823 -120.807554 
L 121.450453 -127.109395 
L 120.828232 -127.485948 
L 120.313889 -127.623711 
L 114.180172 -130.029124 
L 110.004218 -131.422631 
L 107.551809 -132.606416 
L 105.151089 -134.138373 
L 102.679328 -138.224987 
L 98.759081 -136.841825 
L 93.975439 -137.207363 
L 92.203557 -134.138373 
L 88.145375 -127.109395 
L 87.324619 -125.687805 
L 88.82806 -125.926951 
L 95.371786 -125.567953 
L 96.966284 -125.889087 
L 103.819367 -126.141638 
L 105.889974 -124.490757 
L 109.96407 -122.726621 
L 115.523813 -121.862413 
L 117.321566 -121.412225 
L 118.090485 -120.080418 
L 121.197011 -114.066738 
L 124.379141 -113.051441 
L 128.232293 -112.194249 
L 129.67833 -111.404025 
L 134.56083 -109.097642 
L 138.233345 -106.022464 
L 139.937418 -104.352212 
L 143.336648 -101.805078 
L 145.742221 -100.348471 
L 147.457263 -98.993487 
L 151.272648 -95.869497 
L 155.639346 -94.554133 
L 157.856685 -93.21543 
L 158.90992 -91.96451 
L 158.873687 -88.952091 
L 158.825375 -84.935533 
L 159.329876 -81.709117 
L 161.385894 -77.906556 
L 164.045429 -75.818741 
L 168.77504 -70.877579 
L 168.745375 -69.901332 
L 169.743817 -63.848602 
L 169.868761 -57.789139 
L 169.985375 -56.819624 
L 169.686517 -56.165766 
L 169.506971 -49.790647 
L 167.211524 -46.394625 
L 165.114037 -42.76167 
L 162.318466 -40.811696 
L 158.734876 -38.504684 
L 156.350817 -37.090013 
L 153.527193 -35.732693 
L 157.134466 -35.732693 
L 162.158881 -35.732693 
L 164.413011 -37.183837 
L 167.218433 -39.140682 
L 171.817706 -38.416484 
L 175.058102 -42.76167 
L 176.392383 -44.550864 
L 177.745758 -49.790647 
L 179.483045 -53.255636 
L 182.643037 -56.819624 
L 183.154573 -60.954317 
L 181.483557 -63.848602 
L 177.425375 -70.877579 
M 40.293864 -44.228148 
L 40.769522 -42.76167 
L 44.241199 -37.007178 
L 46.21083 -35.732693 
L 51.621739 -35.732693 
L 52.746779 -35.732693 
L 51.872023 -36.166198 
L 50.937226 -36.918304 
L 46.025015 -40.096838 
L 44.417326 -42.76167 
L 42.629508 -48.273602 
" style="stroke: #37598c"/>
    </defs>
    <g clip-path="url(#pfc8cac6ddb)">
     <use xlink:href="#m0ab1bf94d8" x="0" y="210.047792" style="fill: #37598c; stroke: #37598c"/>
    </g>
   </g>
   <g id="PathCollection_3">
    <defs>
     <path id="m5b5a8230e0" d="M 83.840412 -119.652981 
L 84.391557 -119.553245 
L 88.145375 -120.080418 
L 91.862214 -120.671641 
L 92.52394 -120.635338 
L 99.22083 -121.9841 
L 101.466798 -122.066868 
L 103.95829 -120.080418 
L 106.488357 -116.706509 
L 112.043557 -113.832439 
L 112.852541 -113.671645 
L 113.161564 -113.051441 
L 118.889955 -110.070799 
L 123.472916 -108.094163 
L 125.592825 -107.622556 
L 128.520845 -106.022464 
L 131.880313 -104.454851 
L 136.624196 -98.993487 
L 136.736763 -98.808514 
L 139.992706 -91.96451 
L 140.490039 -91.251425 
L 141.659266 -90.652434 
L 147.538557 -89.401862 
L 151.742087 -84.935533 
L 152.629512 -84.161701 
L 154.485375 -77.906556 
L 156.275301 -76.418439 
L 160.795652 -70.877579 
L 160.741739 -70.096581 
L 161.964038 -63.848602 
L 161.69992 -57.698247 
L 161.87716 -56.819624 
L 161.838268 -55.701378 
L 162.904693 -49.790647 
L 160.01958 -44.793484 
L 157.134466 -42.76167 
L 154.11182 -40.968069 
L 151.245153 -39.590059 
L 148.030977 -37.442444 
L 143.566813 -35.732693 
L 149.018102 -35.732693 
L 153.527193 -35.732693 
L 156.350817 -37.090013 
L 158.734876 -38.504684 
L 162.318466 -40.811696 
L 165.114037 -42.76167 
L 167.211524 -46.394625 
L 169.506971 -49.790647 
L 169.686517 -56.165766 
L 169.985375 -56.819624 
L 169.868761 -57.789139 
L 169.743817 -63.848602 
L 168.745375 -69.901332 
L 168.77504 -70.877579 
L 164.045429 -75.818741 
L 161.385894 -77.906556 
L 159.329876 -81.709117 
L 158.825375 -84.935533 
L 158.873687 -88.952091 
L 158.90992 -91.96451 
L 157.856685 -93.21543 
L 155.639346 -94.554133 
L 151.272648 -95.869497 
L 147.457263 -98.993487 
L 145.742221 -100.348471 
L 143.336648 -101.805078 
L 139.937418 -104.352212 
L 138.233345 -106.022464 
L 134.56083 -109.097642 
L 129.67833 -111.404025 
L 128.232293 -112.194249 
L 124.379141 -113.051441 
L 121.197011 -114.066738 
L 118.090485 -120.080418 
L 117.321566 -121.412225 
L 115.523813 -121.862413 
L 109.96407 -122.726621 
L 105.889974 -124.490757 
L 103.819367 -126.141638 
L 96.966284 -125.889087 
L 95.371786 -125.567953 
L 88.82806 -125.926951 
L 87.324619 -125.687805 
L 84.087193 -120.080418 
M 42.629508 -48.273602 
L 44.417326 -42.76167 
L 46.025015 -40.096838 
L 50.937226 -36.918304 
L 51.872023 -36.166198 
L 52.746779 -35.732693 
L 59.175582 -35.732693 
L 53.302219 -38.643371 
L 48.183557 -42.76167 
L 47.802273 -43.17514 
L 45.301031 -49.790647 
L 44.471609 -51.464213 
L 43.505375 -49.790647 
" style="stroke: #31678e"/>
    </defs>
    <g clip-path="url(#pfc8cac6ddb)">
     <use xlink:href="#m5b5a8230e0" x="0" y="210.047792" style="fill: #31678e; stroke: #31678e"/>
    </g>
   </g>
   <g id="PathCollection_4">
    <defs>
     <path id="m3a98af2a71" d="M 81.6468 -115.853533 
L 87.097011 -114.86726 
L 89.378744 -115.187699 
L 94.43713 -116.211757 
L 98.639259 -117.169428 
L 101.735565 -113.051441 
L 103.721287 -111.913803 
L 105.201501 -111.625272 
L 110.862371 -110.22457 
L 116.027471 -106.932096 
L 116.835179 -106.511823 
L 117.969791 -106.022464 
L 122.967193 -103.074829 
L 127.30683 -101.453629 
L 129.544669 -100.409396 
L 130.774564 -98.993487 
L 133.888916 -93.875898 
L 134.798233 -91.96451 
L 138.13747 -87.176656 
L 142.512128 -84.935533 
L 144.300899 -83.794075 
L 147.101739 -81.225795 
L 149.65103 -79.002818 
L 149.976284 -77.906556 
L 154.812893 -73.885474 
L 157.266798 -70.877579 
L 156.819267 -64.394542 
L 156.767625 -63.848602 
L 156.806532 -63.280603 
L 157.579876 -56.819624 
L 157.665894 -50.711109 
L 157.831966 -49.790647 
L 157.483216 -49.186595 
L 156.307799 -48.358819 
L 152.33055 -44.05332 
L 149.687899 -42.76167 
L 146.276088 -40.482002 
L 142.896438 -39.187614 
L 139.891547 -37.482396 
L 133.600717 -37.144908 
L 132.124042 -36.878156 
L 128.680547 -35.732693 
L 132.785375 -35.732693 
L 140.901739 -35.732693 
L 143.566813 -35.732693 
L 148.030977 -37.442444 
L 151.245153 -39.590059 
L 154.11182 -40.968069 
L 157.134466 -42.76167 
L 160.01958 -44.793484 
L 162.904693 -49.790647 
L 161.838268 -55.701378 
L 161.87716 -56.819624 
L 161.69992 -57.698247 
L 161.964038 -63.848602 
L 160.741739 -70.096581 
L 160.795652 -70.877579 
L 156.275301 -76.418439 
L 154.485375 -77.906556 
L 152.629512 -84.161701 
L 151.742087 -84.935533 
L 147.538557 -89.401862 
L 141.659266 -90.652434 
L 140.490039 -91.251425 
L 139.992706 -91.96451 
L 136.736763 -98.808514 
L 136.624196 -98.993487 
L 131.880313 -104.454851 
L 128.520845 -106.022464 
L 125.592825 -107.622556 
L 123.472916 -108.094163 
L 118.889955 -110.070799 
L 113.161564 -113.051441 
L 112.852541 -113.671645 
L 112.043557 -113.832439 
L 106.488357 -116.706509 
L 103.95829 -120.080418 
L 101.466798 -122.066868 
L 99.22083 -121.9841 
L 92.52394 -120.635338 
L 91.862214 -120.671641 
L 88.145375 -120.080418 
L 84.391557 -119.553245 
L 83.840412 -119.652981 
M 44.471609 -51.464213 
L 45.301031 -49.790647 
L 47.802273 -43.17514 
L 48.183557 -42.76167 
L 53.302219 -38.643371 
L 59.175582 -35.732693 
L 59.738102 -35.732693 
L 64.594615 -35.732693 
L 60.937484 -37.810083 
L 57.386933 -39.805037 
L 54.732415 -41.120543 
L 52.692648 -42.76167 
L 49.538394 -46.182189 
L 48.17408 -49.790647 
L 46.017583 -54.141919 
" style="stroke: #2b748e"/>
    </defs>
    <g clip-path="url(#pfc8cac6ddb)">
     <use xlink:href="#m3a98af2a71" x="0" y="210.047792" style="fill: #2b748e; stroke: #2b748e"/>
    </g>
   </g>
   <g id="PathCollection_5">
    <defs>
     <path id="m28f96422c2" d="M 79.159401 -111.545232 
L 80.757403 -111.78983 
L 86.773989 -110.676132 
L 89.445054 -110.800331 
L 95.553167 -111.82416 
L 97.287946 -111.273999 
L 101.844671 -108.663409 
L 107.554071 -107.550503 
L 109.097944 -107.168493 
L 110.895788 -106.022464 
L 114.199584 -101.946839 
L 119.491331 -98.993487 
L 120.411655 -98.648507 
L 121.14305 -98.071654 
L 126.717427 -95.51247 
L 128.886338 -91.96451 
L 131.786124 -90.233757 
L 135.272648 -84.935533 
L 136.268381 -83.9393 
L 139.549011 -80.249548 
L 141.526074 -78.987937 
L 142.705375 -77.906556 
L 147.242648 -74.831378 
L 152.295865 -72.229305 
L 153.350486 -71.35251 
L 153.737944 -70.877579 
L 153.667281 -69.853941 
L 153.099212 -63.848602 
L 153.527193 -57.600622 
L 153.620674 -56.819624 
L 153.634284 -55.85314 
L 154.023193 -49.790647 
L 150.943137 -46.456389 
L 145.57949 -43.834797 
L 144.575259 -43.427924 
L 143.548379 -42.76167 
L 138.49818 -39.895778 
L 135.083158 -39.712571 
L 130.921617 -38.960816 
L 125.489518 -37.153852 
L 124.226083 -36.499868 
L 122.187148 -35.732693 
L 124.669011 -35.732693 
L 128.680547 -35.732693 
L 132.124042 -36.878156 
L 133.600717 -37.144908 
L 139.891547 -37.482396 
L 142.896438 -39.187614 
L 146.276088 -40.482002 
L 149.687899 -42.76167 
L 152.33055 -44.05332 
L 156.307799 -48.358819 
L 157.483216 -49.186595 
L 157.831966 -49.790647 
L 157.665894 -50.711109 
L 157.579876 -56.819624 
L 156.806532 -63.280603 
L 156.767625 -63.848602 
L 156.819267 -64.394542 
L 157.266798 -70.877579 
L 154.812893 -73.885474 
L 149.976284 -77.906556 
L 149.65103 -79.002818 
L 147.101739 -81.225795 
L 144.300899 -83.794075 
L 142.512128 -84.935533 
L 138.13747 -87.176656 
L 134.798233 -91.96451 
L 133.888916 -93.875898 
L 130.774564 -98.993487 
L 129.544669 -100.409396 
L 127.30683 -101.453629 
L 122.967193 -103.074829 
L 117.969791 -106.022464 
L 116.835179 -106.511823 
L 116.027471 -106.932096 
L 110.862371 -110.22457 
L 105.201501 -111.625272 
L 103.721287 -111.913803 
L 101.735565 -113.051441 
L 98.639259 -117.169428 
L 94.43713 -116.211757 
L 89.378744 -115.187699 
L 87.097011 -114.86726 
L 81.6468 -115.853533 
L 80.029011 -113.051441 
M 46.017583 -54.141919 
L 48.17408 -49.790647 
L 49.538394 -46.182189 
L 52.692648 -42.76167 
L 54.732415 -41.120543 
L 57.386933 -39.805037 
L 60.937484 -37.810083 
L 64.594615 -35.732693 
L 67.854466 -35.732693 
L 72.268629 -35.732693 
L 68.28383 -36.476373 
L 66.848037 -37.47588 
L 62.251875 -40.086675 
L 57.49101 -42.76167 
L 56.425301 -44.052707 
L 53.13176 -47.175214 
L 51.274515 -49.189238 
L 51.047129 -49.790647 
L 47.563557 -56.819624 
" style="stroke: #26828e"/>
    </defs>
    <g clip-path="url(#pfc8cac6ddb)">
     <use xlink:href="#m28f96422c2" x="0" y="210.047792" style="fill: #26828e; stroke: #26828e"/>
    </g>
   </g>
   <g id="PathCollection_6">
    <defs>
     <path id="ma136175a86" d="M 75.853767 -105.819705 
L 76.042026 -105.899149 
L 77.252361 -106.022464 
L 83.532228 -106.983692 
L 84.534993 -106.798075 
L 91.566979 -107.125049 
L 92.976544 -107.361317 
L 97.198242 -106.022464 
L 99.858763 -105.223717 
L 100.941071 -104.9466 
L 106.910652 -103.379992 
L 110.339679 -98.993487 
L 111.985071 -98.111189 
L 113.653946 -96.985208 
L 118.419909 -95.198702 
L 122.520562 -91.96451 
L 124.060284 -90.910163 
L 125.798608 -90.007991 
L 130.154694 -87.408037 
L 131.781739 -84.935533 
L 134.990214 -81.725449 
L 138.385666 -77.906556 
L 139.534308 -75.538096 
L 144.895505 -70.98915 
L 144.988102 -70.926391 
L 145.082896 -70.877579 
L 149.511665 -64.703477 
L 149.430799 -63.848602 
L 149.486354 -63.037566 
L 150.31752 -56.819624 
L 150.276139 -51.96963 
L 150.41592 -49.790647 
L 149.555725 -48.859458 
L 148.057769 -48.127302 
L 143.036612 -46.092939 
L 137.902213 -42.76167 
L 137.104813 -42.309161 
L 136.565599 -42.280233 
L 129.719193 -41.043476 
L 127.263587 -40.226629 
L 123.2684 -38.158623 
L 116.820957 -35.732693 
L 122.187148 -35.732693 
L 124.226083 -36.499868 
L 125.489518 -37.153852 
L 130.921617 -38.960816 
L 135.083158 -39.712571 
L 138.49818 -39.895778 
L 143.548379 -42.76167 
L 144.575259 -43.427924 
L 145.57949 -43.834797 
L 150.943137 -46.456389 
L 154.023193 -49.790647 
L 153.634284 -55.85314 
L 153.620674 -56.819624 
L 153.527193 -57.600622 
L 153.099212 -63.848602 
L 153.667281 -69.853941 
L 153.737944 -70.877579 
L 153.350486 -71.35251 
L 152.295865 -72.229305 
L 147.242648 -74.831378 
L 142.705375 -77.906556 
L 141.526074 -78.987937 
L 139.549011 -80.249548 
L 136.268381 -83.9393 
L 135.272648 -84.935533 
L 131.786124 -90.233757 
L 128.886338 -91.96451 
L 126.717427 -95.51247 
L 121.14305 -98.071654 
L 120.411655 -98.648507 
L 119.491331 -98.993487 
L 114.199584 -101.946839 
L 110.895788 -106.022464 
L 109.097944 -107.168493 
L 107.554071 -107.550503 
L 101.844671 -108.663409 
L 97.287946 -111.273999 
L 95.553167 -111.82416 
L 89.445054 -110.800331 
L 86.773989 -110.676132 
L 80.757403 -111.78983 
L 79.159401 -111.545232 
L 75.97083 -106.022464 
M 47.563557 -56.819624 
L 51.047129 -49.790647 
L 51.274515 -49.189238 
L 53.13176 -47.175214 
L 56.425301 -44.052707 
L 57.49101 -42.76167 
L 62.251875 -40.086675 
L 66.848037 -37.47588 
L 68.28383 -36.476373 
L 72.268629 -35.732693 
L 75.97083 -35.732693 
L 84.087193 -35.732693 
L 90.39992 -35.732693 
L 84.504947 -36.456264 
L 83.689332 -36.421809 
L 76.553654 -36.742174 
L 75.042263 -37.341018 
L 69.391866 -38.395548 
L 64.2508 -41.974425 
L 63.566266 -42.363267 
L 62.857201 -42.76167 
L 58.633835 -47.878001 
L 56.616424 -49.790647 
L 52.926883 -52.051223 
L 50.583599 -56.819624 
L 49.473289 -60.127378 
M 115.992899 -35.732693 
L 109.16433 -36.993706 
L 107.88843 -36.681605 
L 101.251306 -35.732693 
L 108.436284 -35.732693 
" style="stroke: #218e8d"/>
    </defs>
    <g clip-path="url(#pfc8cac6ddb)">
     <use xlink:href="#ma136175a86" x="0" y="210.047792" style="fill: #218e8d; stroke: #218e8d"/>
    </g>
   </g>
   <g id="PathCollection_7">
    <defs>
     <path id="m22b41ae725" d="M 72.732088 -100.4128 
L 77.94059 -102.610738 
L 82.378485 -103.062895 
L 85.571328 -103.451867 
L 90.842729 -103.665442 
L 94.647193 -101.789962 
L 97.399259 -100.963731 
L 104.253872 -99.20866 
L 104.46964 -99.152035 
L 104.593581 -98.993487 
L 110.626683 -95.758393 
L 116.249798 -91.96451 
L 116.416467 -91.728638 
L 116.812788 -91.513934 
L 122.256648 -87.786174 
L 127.749318 -84.935533 
L 128.463675 -84.479106 
L 129.323985 -83.90186 
L 133.712046 -79.511598 
L 135.13912 -77.906556 
L 137.769881 -72.482019 
L 139.660807 -70.877579 
L 139.887193 -65.605846 
L 140.303691 -63.848602 
L 140.014011 -62.311013 
L 141.737247 -62.401459 
L 146.713055 -59.856143 
L 147.118953 -56.819624 
L 147.087511 -53.13453 
L 144.04683 -49.790647 
L 141.497964 -48.757954 
L 139.591284 -47.520874 
L 135.163418 -45.671756 
L 129.263179 -43.690026 
L 128.504391 -43.147575 
L 127.998802 -42.76167 
L 122.310717 -39.817379 
L 117.967427 -38.183162 
L 115.283422 -37.931056 
L 110.242917 -38.861872 
L 107.076793 -38.087401 
L 101.193806 -37.246308 
L 99.497011 -37.158014 
L 92.999279 -37.110924 
L 91.240598 -37.400586 
L 85.459814 -38.110141 
L 82.779936 -37.99693 
L 77.417096 -38.237701 
L 73.666608 -39.723723 
L 70.499902 -40.314723 
L 66.984856 -42.76167 
L 64.550763 -44.068466 
L 60.724894 -49.790647 
L 60.22704 -50.637512 
L 58.029394 -52.750217 
L 54.558312 -54.876942 
L 53.603641 -56.819624 
L 51.383022 -63.435132 
L 49.473289 -60.127378 
L 50.583599 -56.819624 
L 52.926883 -52.051223 
L 56.616424 -49.790647 
L 58.633835 -47.878001 
L 62.857201 -42.76167 
L 63.566266 -42.363267 
L 64.2508 -41.974425 
L 69.391866 -38.395548 
L 75.042263 -37.341018 
L 76.553654 -36.742174 
L 83.689332 -36.421809 
L 84.504947 -36.456264 
L 90.39992 -35.732693 
L 92.203557 -35.732693 
L 100.31992 -35.732693 
L 101.251306 -35.732693 
L 107.88843 -36.681605 
L 109.16433 -36.993706 
L 115.992899 -35.732693 
L 116.552648 -35.732693 
L 116.820957 -35.732693 
L 123.2684 -38.158623 
L 127.263587 -40.226629 
L 129.719193 -41.043476 
L 136.565599 -42.280233 
L 137.104813 -42.309161 
L 137.902213 -42.76167 
L 143.036612 -46.092939 
L 148.057769 -48.127302 
L 149.555725 -48.859458 
L 150.41592 -49.790647 
L 150.276139 -51.96963 
L 150.31752 -56.819624 
L 149.486354 -63.037566 
L 149.430799 -63.848602 
L 149.511665 -64.703477 
L 145.082896 -70.877579 
L 144.988102 -70.926391 
L 144.895505 -70.98915 
L 139.534308 -75.538096 
L 138.385666 -77.906556 
L 134.990214 -81.725449 
L 131.781739 -84.935533 
L 130.154694 -87.408037 
L 125.798608 -90.007991 
L 124.060284 -90.910163 
L 122.520562 -91.96451 
L 118.419909 -95.198702 
L 113.653946 -96.985208 
L 111.985071 -98.111189 
L 110.339679 -98.993487 
L 106.910652 -103.379992 
L 100.941071 -104.9466 
L 99.858763 -105.223717 
L 97.198242 -106.022464 
L 92.976544 -107.361317 
L 91.566979 -107.125049 
L 84.534993 -106.798075 
L 83.532228 -106.983692 
L 77.252361 -106.022464 
L 76.042026 -105.899149 
L 75.853767 -105.819705 
" style="stroke: #1e9b8a"/>
    </defs>
    <g clip-path="url(#pfc8cac6ddb)">
     <use xlink:href="#m22b41ae725" x="0" y="210.047792" style="fill: #1e9b8a; stroke: #1e9b8a"/>
    </g>
   </g>
   <g id="PathCollection_8">
    <defs>
     <path id="mcd572ce55b" d="M 69.310118 -94.485773 
L 74.729503 -94.11455 
L 79.059893 -98.993487 
L 79.839155 -99.322328 
L 80.2426 -99.363433 
L 87.426497 -100.23862 
L 88.89869 -100.298267 
L 91.545473 -98.993487 
L 95.229183 -97.205049 
L 97.593814 -96.686266 
L 102.484284 -95.713298 
L 106.858102 -94.698001 
L 109.268296 -93.405597 
L 111.404208 -91.96451 
L 114.237578 -87.954691 
L 119.810625 -84.935533 
L 120.458102 -84.671001 
L 121.010932 -84.242535 
L 126.355528 -80.827689 
L 130.709096 -77.906556 
L 131.578889 -75.81686 
L 133.416648 -70.877579 
L 135.692729 -68.884287 
L 136.886275 -63.848602 
L 135.877323 -58.49319 
L 135.513005 -56.819624 
L 133.944856 -51.798927 
L 134.382037 -49.790647 
L 133.095555 -49.253401 
L 132.325958 -48.994914 
L 127.231236 -45.352744 
L 123.836564 -42.76167 
L 121.353034 -41.476135 
L 119.456668 -40.762603 
L 113.947395 -40.245123 
L 111.321503 -40.730039 
L 106.265157 -39.493196 
L 102.151489 -38.905063 
L 98.595193 -38.720008 
L 93.908675 -38.686045 
L 90.140075 -39.306749 
L 86.41468 -39.764018 
L 81.870539 -39.57205 
L 78.280539 -39.733228 
L 72.290953 -42.106427 
L 71.607938 -42.233897 
L 70.849791 -42.76167 
L 65.465283 -45.652461 
L 62.698478 -49.790647 
L 61.204915 -52.331242 
L 56.536077 -56.819624 
L 56.415098 -58.09299 
L 54.726359 -63.848602 
L 54.676284 -69.139229 
L 51.621739 -63.848602 
L 51.383022 -63.435132 
L 53.603641 -56.819624 
L 54.558312 -54.876942 
L 58.029394 -52.750217 
L 60.22704 -50.637512 
L 60.724894 -49.790647 
L 64.550763 -44.068466 
L 66.984856 -42.76167 
L 70.499902 -40.314723 
L 73.666608 -39.723723 
L 77.417096 -38.237701 
L 82.779936 -37.99693 
L 85.459814 -38.110141 
L 91.240598 -37.400586 
L 92.999279 -37.110924 
L 99.497011 -37.158014 
L 101.193806 -37.246308 
L 107.076793 -38.087401 
L 110.242917 -38.861872 
L 115.283422 -37.931056 
L 117.967427 -38.183162 
L 122.310717 -39.817379 
L 127.998802 -42.76167 
L 128.504391 -43.147575 
L 129.263179 -43.690026 
L 135.163418 -45.671756 
L 139.591284 -47.520874 
L 141.497964 -48.757954 
L 144.04683 -49.790647 
L 147.087511 -53.13453 
L 147.118953 -56.819624 
L 146.713055 -59.856143 
L 141.737247 -62.401459 
L 140.014011 -62.311013 
L 140.303691 -63.848602 
L 139.887193 -65.605846 
L 139.660807 -70.877579 
L 137.769881 -72.482019 
L 135.13912 -77.906556 
L 133.712046 -79.511598 
L 129.323985 -83.90186 
L 128.463675 -84.479106 
L 127.749318 -84.935533 
L 122.256648 -87.786174 
L 116.812788 -91.513934 
L 116.416467 -91.728638 
L 116.249798 -91.96451 
L 110.626683 -95.758393 
L 104.593581 -98.993487 
L 104.46964 -99.152035 
L 104.253872 -99.20866 
L 97.399259 -100.963731 
L 94.647193 -101.789962 
L 90.842729 -103.665442 
L 85.571328 -103.451867 
L 82.378485 -103.062895 
L 77.94059 -102.610738 
L 72.732088 -100.4128 
L 71.912648 -98.993487 
" style="stroke: #23a884"/>
    </defs>
    <g clip-path="url(#pfc8cac6ddb)">
     <use xlink:href="#mcd572ce55b" x="0" y="210.047792" style="fill: #23a884; stroke: #23a884"/>
    </g>
   </g>
   <g id="PathCollection_9">
    <defs>
     <path id="m15164bf7d4" d="M 54.676284 -69.139229 
L 54.726359 -63.848602 
L 56.415098 -58.09299 
L 56.536077 -56.819624 
L 61.204915 -52.331242 
L 62.698478 -49.790647 
L 65.465283 -45.652461 
L 70.849791 -42.76167 
L 71.607938 -42.233897 
L 72.290953 -42.106427 
L 78.280539 -39.733228 
L 81.870539 -39.57205 
L 86.41468 -39.764018 
L 90.140075 -39.306749 
L 93.908675 -38.686045 
L 98.595193 -38.720008 
L 102.151489 -38.905063 
L 106.265157 -39.493196 
L 111.321503 -40.730039 
L 113.947395 -40.245123 
L 119.456668 -40.762603 
L 121.353034 -41.476135 
L 123.836564 -42.76167 
L 127.231236 -45.352744 
L 132.325958 -48.994914 
L 133.095555 -49.253401 
L 134.382037 -49.790647 
L 133.944856 -51.798927 
L 135.513005 -56.819624 
L 135.877323 -58.49319 
L 136.886275 -63.848602 
L 135.692729 -68.884287 
L 133.416648 -70.877579 
L 131.578889 -75.81686 
L 130.709096 -77.906556 
L 126.355528 -80.827689 
L 121.010932 -84.242535 
L 120.458102 -84.671001 
L 119.810625 -84.935533 
L 114.237578 -87.954691 
L 111.404208 -91.96451 
L 109.268296 -93.405597 
L 106.858102 -94.698001 
L 102.484284 -95.713298 
L 97.593814 -96.686266 
L 95.229183 -97.205049 
L 91.545473 -98.993487 
L 88.89869 -100.298267 
L 87.426497 -100.23862 
L 80.2426 -99.363433 
L 79.839155 -99.322328 
L 79.059893 -98.993487 
L 74.729503 -94.11455 
L 69.310118 -94.485773 
L 67.854466 -91.96451 
L 63.796284 -84.935533 
L 59.738102 -77.906556 
L 55.67992 -70.877579 
M 103.109172 -40.563819 
L 97.693375 -40.282003 
L 94.818072 -40.261166 
L 89.039551 -41.212913 
L 87.369546 -41.417895 
L 80.961143 -41.147171 
L 79.143982 -41.228755 
L 75.275141 -42.76167 
L 73.113538 -44.841674 
L 70.65396 -44.941781 
L 66.379803 -47.236456 
L 64.672062 -49.790647 
L 62.18279 -54.024971 
L 59.275778 -56.819624 
L 58.767667 -62.167759 
L 58.274496 -63.848602 
L 58.250102 -66.425893 
L 58.553416 -70.877579 
L 60.189011 -77.125558 
L 60.414466 -77.906556 
L 65.023637 -82.809696 
L 67.551617 -84.935533 
L 69.457277 -89.188359 
L 74.231609 -88.952091 
L 77.019355 -90.148411 
L 84.010139 -91.831048 
L 84.183056 -91.798471 
L 84.584113 -91.96451 
L 90.238542 -95.368015 
L 93.308151 -93.877723 
L 100.072093 -92.39376 
L 100.516681 -92.305309 
L 101.984816 -91.96451 
L 107.524664 -90.385537 
L 111.438679 -84.935533 
L 112.150916 -84.340487 
L 113.059083 -83.957588 
L 118.712648 -81.647785 
L 123.539778 -77.906556 
L 124.244626 -77.171499 
L 127.349871 -70.877579 
L 127.853123 -69.363645 
L 131.309673 -66.404593 
L 133.269934 -64.687882 
L 133.468858 -63.848602 
L 133.3007 -62.956033 
L 131.964868 -56.819624 
L 130.828238 -53.180509 
L 129.081263 -49.790647 
L 125.958081 -47.557913 
L 121.348681 -44.039666 
L 120.173421 -43.519285 
L 114.767048 -42.76167 
L 112.611368 -42.559189 
L 112.40009 -42.598206 
L 105.45352 -40.898991 
" style="stroke: #32b57b"/>
    </defs>
    <g clip-path="url(#pfc8cac6ddb)">
     <use xlink:href="#m15164bf7d4" x="0" y="210.047792" style="fill: #32b57b; stroke: #32b57b"/>
    </g>
   </g>
   <g id="PathCollection_10">
    <defs>
     <path id="m9a166c52d7" d="M 105.45352 -40.898991 
L 112.40009 -42.598206 
L 112.611368 -42.559189 
L 114.767048 -42.76167 
L 120.173421 -43.519285 
L 121.348681 -44.039666 
L 125.958081 -47.557913 
L 129.081263 -49.790647 
L 130.828238 -53.180509 
L 131.964868 -56.819624 
L 133.3007 -62.956033 
L 133.468858 -63.848602 
L 133.269934 -64.687882 
L 131.309673 -66.404593 
L 127.853123 -69.363645 
L 127.349871 -70.877579 
L 124.244626 -77.171499 
L 123.539778 -77.906556 
L 118.712648 -81.647785 
L 113.059083 -83.957588 
L 112.150916 -84.340487 
L 111.438679 -84.935533 
L 107.524664 -90.385537 
L 101.984816 -91.96451 
L 100.516681 -92.305309 
L 100.072093 -92.39376 
L 93.308151 -93.877723 
L 90.238542 -95.368015 
L 84.584113 -91.96451 
L 84.183056 -91.798471 
L 84.010139 -91.831048 
L 77.019355 -90.148411 
L 74.231609 -88.952091 
L 69.457277 -89.188359 
L 67.551617 -84.935533 
L 65.023637 -82.809696 
L 60.414466 -77.906556 
L 60.189011 -77.125558 
L 58.553416 -70.877579 
L 58.250102 -66.425893 
L 58.274496 -63.848602 
L 58.767667 -62.167759 
L 59.275778 -56.819624 
L 62.18279 -54.024971 
L 64.672062 -49.790647 
L 66.379803 -47.236456 
L 70.65396 -44.941781 
L 73.113538 -44.841674 
L 75.275141 -42.76167 
L 79.143982 -41.228755 
L 80.961143 -41.147171 
L 87.369546 -41.417895 
L 89.039551 -41.212913 
L 94.818072 -40.261166 
L 97.693375 -40.282003 
L 103.109172 -40.563819 
M 87.752648 -43.441894 
L 80.983878 -42.76167 
L 80.051746 -42.722292 
L 80.007425 -42.724282 
L 79.913063 -42.76167 
L 74.769939 -47.710644 
L 68.91784 -47.94883 
L 67.294323 -48.820451 
L 66.645646 -49.790647 
L 63.160665 -55.7187 
L 62.015479 -56.819624 
L 61.664714 -60.511612 
L 61.411212 -63.848602 
L 62.424504 -68.501586 
L 62.586391 -70.877579 
L 62.963837 -72.31942 
L 64.576704 -77.906556 
L 66.607317 -80.06668 
L 71.455388 -84.143535 
L 72.082624 -84.641125 
L 72.694948 -84.935533 
L 78.572726 -87.457893 
L 81.955363 -88.272073 
L 86.739391 -87.370769 
L 90.434606 -88.900597 
L 92.911137 -90.738945 
L 99.06589 -89.792466 
L 103.271325 -86.852527 
L 105.172094 -86.310767 
L 106.159743 -84.935533 
L 110.433167 -81.365259 
L 115.882166 -79.067865 
L 116.967193 -78.62457 
L 117.893612 -77.906556 
L 122.122701 -73.496217 
L 123.414664 -70.877579 
L 125.355781 -65.038121 
L 126.74529 -63.848602 
L 127.747632 -58.516274 
L 128.365317 -56.819624 
L 125.176284 -50.66927 
L 124.723484 -49.790647 
L 124.684926 -49.763083 
L 124.62802 -49.719648 
L 118.229382 -46.886459 
L 114.580714 -46.375159 
L 111.309477 -44.814132 
L 106.509673 -42.76167 
L 104.641884 -42.304787 
L 104.066855 -42.222575 
L 96.791557 -41.843998 
L 95.727468 -41.836287 
L 90.109011 -42.76167 
L 88.459152 -43.305148 
" style="stroke: #47c06f"/>
    </defs>
    <g clip-path="url(#pfc8cac6ddb)">
     <use xlink:href="#m9a166c52d7" x="0" y="210.047792" style="fill: #47c06f; stroke: #47c06f"/>
    </g>
   </g>
   <g id="PathCollection_11">
    <defs>
     <path id="m54951c7b24" d="M 88.459152 -43.305148 
L 90.109011 -42.76167 
L 95.727468 -41.836287 
L 96.791557 -41.843998 
L 104.066855 -42.222575 
L 104.641884 -42.304787 
L 106.509673 -42.76167 
L 111.309477 -44.814132 
L 114.580714 -46.375159 
L 118.229382 -46.886459 
L 124.62802 -49.719648 
L 124.684926 -49.763083 
L 124.723484 -49.790647 
L 125.176284 -50.66927 
L 128.365317 -56.819624 
L 127.747632 -58.516274 
L 126.74529 -63.848602 
L 125.355781 -65.038121 
L 123.414664 -70.877579 
L 122.122701 -73.496217 
L 117.893612 -77.906556 
L 116.967193 -78.62457 
L 115.882166 -79.067865 
L 110.433167 -81.365259 
L 106.159743 -84.935533 
L 105.172094 -86.310767 
L 103.271325 -86.852527 
L 99.06589 -89.792466 
L 92.911137 -90.738945 
L 90.434606 -88.900597 
L 86.739391 -87.370769 
L 81.955363 -88.272073 
L 78.572726 -87.457893 
L 72.694948 -84.935533 
L 72.082624 -84.641125 
L 71.455388 -84.143535 
L 66.607317 -80.06668 
L 64.576704 -77.906556 
L 62.963837 -72.31942 
L 62.586391 -70.877579 
L 62.424504 -68.501586 
L 61.411212 -63.848602 
L 61.664714 -60.511612 
L 62.015479 -56.819624 
L 63.160665 -55.7187 
L 66.645646 -49.790647 
L 67.294323 -48.820451 
L 68.91784 -47.94883 
L 74.769939 -47.710644 
L 79.913063 -42.76167 
L 80.007425 -42.724282 
L 80.051746 -42.722292 
L 80.983878 -42.76167 
L 87.752648 -43.441894 
M 85.658102 -47.069753 
L 82.322766 -46.73457 
L 78.148391 -49.790647 
L 76.376648 -50.493545 
L 75.22683 -51.079293 
L 68.829688 -51.479781 
L 65.59992 -56.819624 
L 64.67713 -58.345294 
L 64.259059 -63.848602 
L 65.243788 -68.370428 
L 70.682896 -70.877579 
L 70.409617 -73.480904 
L 69.004284 -77.906556 
L 73.782386 -81.697051 
L 79.841133 -84.610117 
L 80.167045 -84.696452 
L 87.324619 -83.513942 
L 89.112889 -83.25975 
L 90.642718 -84.935533 
L 94.576032 -87.855262 
L 97.672523 -87.379083 
L 101.167899 -84.935533 
L 103.050426 -82.635929 
L 107.636945 -79.291051 
L 108.715418 -78.39003 
L 109.862132 -77.906556 
L 114.572255 -74.476415 
L 118.465124 -70.877579 
L 119.686689 -69.276921 
L 121.207621 -63.848602 
L 122.830148 -60.663596 
L 124.22959 -56.819624 
L 122.517358 -53.51742 
L 117.103759 -50.7452 
L 116.238282 -50.335146 
L 115.725981 -49.790647 
L 110.010859 -47.063404 
L 105.829373 -45.275344 
L 103.354075 -44.535337 
L 96.955625 -43.963516 
L 95.247193 -44.518915 
L 90.132629 -46.203695 
" style="stroke: #64cb5e"/>
    </defs>
    <g clip-path="url(#pfc8cac6ddb)">
     <use xlink:href="#m54951c7b24" x="0" y="210.047792" style="fill: #64cb5e; stroke: #64cb5e"/>
    </g>
   </g>
   <g id="PathCollection_12">
    <defs>
     <path id="mced3a3363a" d="M 90.132629 -46.203695 
L 95.247193 -44.518915 
L 96.955625 -43.963516 
L 103.354075 -44.535337 
L 105.829373 -45.275344 
L 110.010859 -47.063404 
L 115.725981 -49.790647 
L 116.238282 -50.335146 
L 117.103759 -50.7452 
L 122.517358 -53.51742 
L 124.22959 -56.819624 
L 122.830148 -60.663596 
L 121.207621 -63.848602 
L 119.686689 -69.276921 
L 118.465124 -70.877579 
L 114.572255 -74.476415 
L 109.862132 -77.906556 
L 108.715418 -78.39003 
L 107.636945 -79.291051 
L 103.050426 -82.635929 
L 101.167899 -84.935533 
L 97.672523 -87.379083 
L 94.576032 -87.855262 
L 90.642718 -84.935533 
L 89.112889 -83.25975 
L 87.324619 -83.513942 
L 80.167045 -84.696452 
L 79.841133 -84.610117 
L 73.782386 -81.697051 
L 69.004284 -77.906556 
L 70.409617 -73.480904 
L 70.682896 -70.877579 
L 65.243788 -68.370428 
L 64.259059 -63.848602 
L 64.67713 -58.345294 
L 65.59992 -56.819624 
L 68.829688 -51.479781 
L 75.22683 -51.079293 
L 76.376648 -50.493545 
L 78.148391 -49.790647 
L 82.322766 -46.73457 
L 85.658102 -47.069753 
M 88.249431 -49.790647 
L 84.692892 -50.839748 
L 83.499051 -50.80934 
L 77.85235 -53.049537 
L 72.521375 -55.765278 
L 71.34639 -55.838837 
L 70.753167 -56.819624 
L 67.193832 -62.704349 
L 67.106906 -63.848602 
L 67.311652 -64.788783 
L 68.790969 -65.470673 
L 74.871739 -65.752283 
L 74.542951 -70.877579 
L 74.967193 -76.168207 
L 74.415193 -77.906556 
L 75.482148 -78.752977 
L 76.835072 -79.403468 
L 82.375579 -80.871158 
L 85.500717 -80.354851 
L 91.262919 -79.535789 
L 96.192368 -84.935533 
L 96.240927 -84.971579 
L 96.279156 -84.9657 
L 96.322309 -84.935533 
L 101.046385 -79.164829 
L 102.771739 -77.906556 
L 106.836883 -75.136312 
L 111.40319 -70.877579 
L 111.962245 -69.955746 
L 116.402345 -63.848602 
L 116.399509 -63.583357 
L 119.280278 -56.819624 
L 113.951982 -54.295133 
L 109.71386 -49.790647 
L 108.71224 -49.312677 
L 107.979403 -48.999306 
L 101.836998 -47.162992 
L 98.637773 -46.877082 
L 92.787689 -48.778901 
L 91.806106 -49.102242 
" style="stroke: #84d44b"/>
    </defs>
    <g clip-path="url(#pfc8cac6ddb)">
     <use xlink:href="#mced3a3363a" x="0" y="210.047792" style="fill: #84d44b; stroke: #84d44b"/>
    </g>
   </g>
   <g id="PathCollection_13">
    <defs>
     <path id="ma0781650bc" d="M 91.806106 -49.102242 
L 92.787689 -48.778901 
L 98.637773 -46.877082 
L 101.836998 -47.162992 
L 107.979403 -48.999306 
L 108.71224 -49.312677 
L 109.71386 -49.790647 
L 113.951982 -54.295133 
L 119.280278 -56.819624 
L 116.399509 -63.583357 
L 116.402345 -63.848602 
L 111.962245 -69.955746 
L 111.40319 -70.877579 
L 106.836883 -75.136312 
L 102.771739 -77.906556 
L 101.046385 -79.164829 
L 96.322309 -84.935533 
L 96.279156 -84.9657 
L 96.240927 -84.971579 
L 96.192368 -84.935533 
L 91.262919 -79.535789 
L 85.500717 -80.354851 
L 82.375579 -80.871158 
L 76.835072 -79.403468 
L 75.482148 -78.752977 
L 74.415193 -77.906556 
L 74.967193 -76.168207 
L 74.542951 -70.877579 
L 74.871739 -65.752283 
L 68.790969 -65.470673 
L 67.311652 -64.788783 
L 67.106906 -63.848602 
L 67.193832 -62.704349 
L 70.753167 -56.819624 
L 71.34639 -55.838837 
L 72.521375 -55.765278 
L 77.85235 -53.049537 
L 83.499051 -50.80934 
L 84.692892 -50.839748 
L 88.249431 -49.790647 
M 110.390223 -63.848602 
L 110.354697 -60.525812 
L 110.499766 -56.819624 
L 106.754275 -52.703973 
L 100.31992 -49.790647 
L 100.31992 -49.790647 
L 94.356158 -53.519061 
L 89.597777 -54.303991 
L 87.115687 -55.036153 
L 81.146482 -54.884109 
L 79.328053 -55.605528 
L 76.944793 -56.819624 
L 78.352806 -59.722898 
L 78.028499 -63.848602 
L 77.797011 -67.011641 
L 77.549011 -70.877579 
L 77.85145 -74.649225 
L 83.217583 -76.400346 
L 84.776318 -76.712956 
L 90.830488 -75.52833 
L 94.638466 -73.689169 
L 97.764769 -73.480904 
L 103.116775 -73.062261 
L 104.92715 -71.828558 
L 105.946811 -70.877579 
L 109.301143 -65.34658 
" style="stroke: #a6db35"/>
    </defs>
    <g clip-path="url(#pfc8cac6ddb)">
     <use xlink:href="#ma0781650bc" x="0" y="210.047792" style="fill: #a6db35; stroke: #a6db35"/>
    </g>
   </g>
   <g id="PathCollection_14">
    <defs>
     <path id="mee057964b3" d="M 109.301143 -65.34658 
L 105.946811 -70.877579 
L 104.92715 -71.828558 
L 103.116775 -73.062261 
L 97.764769 -73.480904 
L 94.638466 -73.689169 
L 90.830488 -75.52833 
L 84.776318 -76.712956 
L 83.217583 -76.400346 
L 77.85145 -74.649225 
L 77.549011 -70.877579 
L 77.797011 -67.011641 
L 78.028499 -63.848602 
L 78.352806 -59.722898 
L 76.944793 -56.819624 
L 79.328053 -55.605528 
L 81.146482 -54.884109 
L 87.115687 -55.036153 
L 89.597777 -54.303991 
L 94.356158 -53.519061 
L 100.31992 -49.790647 
L 100.31992 -49.790647 
L 106.754275 -52.703973 
L 110.499766 -56.819624 
L 110.354697 -60.525812 
L 110.390223 -63.848602 
M 93.66034 -66.371824 
L 94.700899 -63.848602 
L 94.307799 -60.203947 
L 90.668029 -61.188989 
L 86.651964 -59.406288 
L 81.437636 -59.259435 
L 81.076899 -63.848602 
L 80.63992 -69.819453 
L 85.19397 -70.877579 
L 87.839097 -71.408067 
L 88.389476 -71.300374 
L 89.264873 -70.877579 
M 104.997147 -56.819624 
L 104.618389 -56.403435 
L 103.967724 -56.108829 
L 102.291037 -56.819624 
L 103.87083 -57.698247 
L 104.957843 -57.823764 
" style="stroke: #cce11e"/>
    </defs>
    <g clip-path="url(#pfc8cac6ddb)">
     <use xlink:href="#mee057964b3" x="0" y="210.047792" style="fill: #cce11e; stroke: #cce11e"/>
    </g>
   </g>
   <g id="PathCollection_15">
    <defs>
     <path id="mb43ad5d666" d="M 89.264873 -70.877579 
L 88.389476 -71.300374 
L 87.839097 -71.408067 
L 85.19397 -70.877579 
L 80.63992 -69.819453 
L 81.076899 -63.848602 
L 81.437636 -59.259435 
L 86.651964 -59.406288 
L 90.668029 -61.188989 
L 94.307799 -60.203947 
L 94.700899 -63.848602 
L 93.66034 -66.371824 
M 104.957843 -57.823764 
L 103.87083 -57.698247 
L 102.291037 -56.819624 
L 103.967724 -56.108829 
L 104.618389 -56.403435 
L 104.997147 -56.819624 
" style="stroke: #eee51b"/>
    </defs>
    <g clip-path="url(#pfc8cac6ddb)">
     <use xlink:href="#mb43ad5d666" x="0" y="210.047792" style="fill: #eee51b; stroke: #eee51b"/>
    </g>
   </g>
   <g id="line2d_1">
    <path d="M 35.389011 174.315099 
L 116.552648 33.735557 
" clip-path="url(#pfc8cac6ddb)" style="fill: none; stroke: #000000; stroke-linecap: square"/>
   </g>
   <g id="line2d_2">
    <path d="M 116.552648 33.735557 
L 197.716284 174.315099 
" clip-path="url(#pfc8cac6ddb)" style="fill: none; stroke: #000000; stroke-linecap: square"/>
   </g>
   <g id="line2d_3">
    <path d="M 35.389011 174.315099 
L 197.716284 174.315099 
" clip-path="url(#pfc8cac6ddb)" style="fill: none; stroke: #000000; stroke-linecap: square"/>
   </g>
   <g id="line2d_4">
    <path d="M 197.716284 174.315099 
L 200.063861 178.381221 
" clip-path="url(#pfc8cac6ddb)" style="fill: none; stroke: #000000; stroke-linecap: square"/>
   </g>
   <g id="line2d_5">
    <path d="M 165.25083 174.315099 
L 167.598407 178.381221 
" clip-path="url(#pfc8cac6ddb)" style="fill: none; stroke: #000000; stroke-linecap: square"/>
   </g>
   <g id="line2d_6">
    <path d="M 132.785375 174.315099 
L 135.132952 178.381221 
" clip-path="url(#pfc8cac6ddb)" style="fill: none; stroke: #000000; stroke-linecap: square"/>
   </g>
   <g id="line2d_7">
    <path d="M 100.31992 174.315099 
L 102.667497 178.381221 
" clip-path="url(#pfc8cac6ddb)" style="fill: none; stroke: #000000; stroke-linecap: square"/>
   </g>
   <g id="line2d_8">
    <path d="M 67.854466 174.315099 
L 70.202043 178.381221 
" clip-path="url(#pfc8cac6ddb)" style="fill: none; stroke: #000000; stroke-linecap: square"/>
   </g>
   <g id="line2d_9">
    <path d="M 35.389011 174.315099 
L 37.736588 178.381221 
" clip-path="url(#pfc8cac6ddb)" style="fill: none; stroke: #000000; stroke-linecap: square"/>
   </g>
   <g id="line2d_10">
    <path d="M 35.389011 174.315099 
L 30.693857 174.315099 
" clip-path="url(#pfc8cac6ddb)" style="fill: none; stroke: #000000; stroke-linecap: square"/>
   </g>
   <g id="line2d_11">
    <path d="M 51.621739 146.19919 
L 46.926585 146.19919 
" clip-path="url(#pfc8cac6ddb)" style="fill: none; stroke: #000000; stroke-linecap: square"/>
   </g>
   <g id="line2d_12">
    <path d="M 67.854466 118.083282 
L 63.159312 118.083282 
" clip-path="url(#pfc8cac6ddb)" style="fill: none; stroke: #000000; stroke-linecap: square"/>
   </g>
   <g id="line2d_13">
    <path d="M 84.087193 89.967374 
L 79.392039 89.967374 
" clip-path="url(#pfc8cac6ddb)" style="fill: none; stroke: #000000; stroke-linecap: square"/>
   </g>
   <g id="line2d_14">
    <path d="M 100.31992 61.851465 
L 95.624766 61.851465 
" clip-path="url(#pfc8cac6ddb)" style="fill: none; stroke: #000000; stroke-linecap: square"/>
   </g>
   <g id="line2d_15">
    <path d="M 116.552648 33.735557 
L 111.857494 33.735557 
" clip-path="url(#pfc8cac6ddb)" style="fill: none; stroke: #000000; stroke-linecap: square"/>
   </g>
   <g id="line2d_16">
    <path d="M 116.552648 33.735557 
L 118.900225 29.669434 
" clip-path="url(#pfc8cac6ddb)" style="fill: none; stroke: #000000; stroke-linecap: square"/>
   </g>
   <g id="line2d_17">
    <path d="M 132.785375 61.851465 
L 135.132952 57.785343 
" clip-path="url(#pfc8cac6ddb)" style="fill: none; stroke: #000000; stroke-linecap: square"/>
   </g>
   <g id="line2d_18">
    <path d="M 149.018102 89.967374 
L 151.365679 85.901251 
" clip-path="url(#pfc8cac6ddb)" style="fill: none; stroke: #000000; stroke-linecap: square"/>
   </g>
   <g id="line2d_19">
    <path d="M 165.25083 118.083282 
L 167.598407 114.017159 
" clip-path="url(#pfc8cac6ddb)" style="fill: none; stroke: #000000; stroke-linecap: square"/>
   </g>
   <g id="line2d_20">
    <path d="M 181.483557 146.19919 
L 183.831134 142.133068 
" clip-path="url(#pfc8cac6ddb)" style="fill: none; stroke: #000000; stroke-linecap: square"/>
   </g>
   <g id="line2d_21">
    <path d="M 197.716284 174.315099 
L 200.063861 170.248976 
" clip-path="url(#pfc8cac6ddb)" style="fill: none; stroke: #000000; stroke-linecap: square"/>
   </g>
   <g id="matplotlib.axis_1">
    <g id="xtick_1"/>
    <g id="xtick_2"/>
    <g id="xtick_3"/>
    <g id="xtick_4"/>
    <g id="xtick_5"/>
   </g>
   <g id="matplotlib.axis_2">
    <g id="ytick_1"/>
    <g id="ytick_2"/>
    <g id="ytick_3"/>
    <g id="ytick_4"/>
    <g id="ytick_5"/>
   </g>
   <g id="text_1">
    <!-- 0 -->
    <g transform="translate(198.768602 187.301281) scale(0.12 -0.12)">
     <defs>
      <path id="DejaVuSans-30" d="M 2034 4250 
Q 1547 4250 1301 3770 
Q 1056 3291 1056 2328 
Q 1056 1369 1301 889 
Q 1547 409 2034 409 
Q 2525 409 2770 889 
Q 3016 1369 3016 2328 
Q 3016 3291 2770 3770 
Q 2525 4250 2034 4250 
z
M 2034 4750 
Q 2819 4750 3233 4129 
Q 3647 3509 3647 2328 
Q 3647 1150 3233 529 
Q 2819 -91 2034 -91 
Q 1250 -91 836 529 
Q 422 1150 422 2328 
Q 422 3509 836 4129 
Q 1250 4750 2034 4750 
z
" transform="scale(0.015625)"/>
     </defs>
     <use xlink:href="#DejaVuSans-30"/>
    </g>
   </g>
   <g id="text_2">
    <!-- 20 -->
    <g transform="translate(162.485648 187.301281) scale(0.12 -0.12)">
     <defs>
      <path id="DejaVuSans-32" d="M 1228 531 
L 3431 531 
L 3431 0 
L 469 0 
L 469 531 
Q 828 903 1448 1529 
Q 2069 2156 2228 2338 
Q 2531 2678 2651 2914 
Q 2772 3150 2772 3378 
Q 2772 3750 2511 3984 
Q 2250 4219 1831 4219 
Q 1534 4219 1204 4116 
Q 875 4013 500 3803 
L 500 4441 
Q 881 4594 1212 4672 
Q 1544 4750 1819 4750 
Q 2544 4750 2975 4387 
Q 3406 4025 3406 3419 
Q 3406 3131 3298 2873 
Q 3191 2616 2906 2266 
Q 2828 2175 2409 1742 
Q 1991 1309 1228 531 
z
" transform="scale(0.015625)"/>
     </defs>
     <use xlink:href="#DejaVuSans-32"/>
     <use xlink:href="#DejaVuSans-30" x="63.623047"/>
    </g>
   </g>
   <g id="text_3">
    <!-- 40 -->
    <g transform="translate(130.020193 187.301281) scale(0.12 -0.12)">
     <defs>
      <path id="DejaVuSans-34" d="M 2419 4116 
L 825 1625 
L 2419 1625 
L 2419 4116 
z
M 2253 4666 
L 3047 4666 
L 3047 1625 
L 3713 1625 
L 3713 1100 
L 3047 1100 
L 3047 0 
L 2419 0 
L 2419 1100 
L 313 1100 
L 313 1709 
L 2253 4666 
z
" transform="scale(0.015625)"/>
     </defs>
     <use xlink:href="#DejaVuSans-34"/>
     <use xlink:href="#DejaVuSans-30" x="63.623047"/>
    </g>
   </g>
   <g id="text_4">
    <!-- 60 -->
    <g transform="translate(97.554739 187.301281) scale(0.12 -0.12)">
     <defs>
      <path id="DejaVuSans-36" d="M 2113 2584 
Q 1688 2584 1439 2293 
Q 1191 2003 1191 1497 
Q 1191 994 1439 701 
Q 1688 409 2113 409 
Q 2538 409 2786 701 
Q 3034 994 3034 1497 
Q 3034 2003 2786 2293 
Q 2538 2584 2113 2584 
z
M 3366 4563 
L 3366 3988 
Q 3128 4100 2886 4159 
Q 2644 4219 2406 4219 
Q 1781 4219 1451 3797 
Q 1122 3375 1075 2522 
Q 1259 2794 1537 2939 
Q 1816 3084 2150 3084 
Q 2853 3084 3261 2657 
Q 3669 2231 3669 1497 
Q 3669 778 3244 343 
Q 2819 -91 2113 -91 
Q 1303 -91 875 529 
Q 447 1150 447 2328 
Q 447 3434 972 4092 
Q 1497 4750 2381 4750 
Q 2619 4750 2861 4703 
Q 3103 4656 3366 4563 
z
" transform="scale(0.015625)"/>
     </defs>
     <use xlink:href="#DejaVuSans-36"/>
     <use xlink:href="#DejaVuSans-30" x="63.623047"/>
    </g>
   </g>
   <g id="text_5">
    <!-- 80 -->
    <g transform="translate(65.089284 187.301281) scale(0.12 -0.12)">
     <defs>
      <path id="DejaVuSans-38" d="M 2034 2216 
Q 1584 2216 1326 1975 
Q 1069 1734 1069 1313 
Q 1069 891 1326 650 
Q 1584 409 2034 409 
Q 2484 409 2743 651 
Q 3003 894 3003 1313 
Q 3003 1734 2745 1975 
Q 2488 2216 2034 2216 
z
M 1403 2484 
Q 997 2584 770 2862 
Q 544 3141 544 3541 
Q 544 4100 942 4425 
Q 1341 4750 2034 4750 
Q 2731 4750 3128 4425 
Q 3525 4100 3525 3541 
Q 3525 3141 3298 2862 
Q 3072 2584 2669 2484 
Q 3125 2378 3379 2068 
Q 3634 1759 3634 1313 
Q 3634 634 3220 271 
Q 2806 -91 2034 -91 
Q 1263 -91 848 271 
Q 434 634 434 1313 
Q 434 1759 690 2068 
Q 947 2378 1403 2484 
z
M 1172 3481 
Q 1172 3119 1398 2916 
Q 1625 2713 2034 2713 
Q 2441 2713 2670 2916 
Q 2900 3119 2900 3481 
Q 2900 3844 2670 4047 
Q 2441 4250 2034 4250 
Q 1625 4250 1398 4047 
Q 1172 3844 1172 3481 
z
" transform="scale(0.015625)"/>
     </defs>
     <use xlink:href="#DejaVuSans-38"/>
     <use xlink:href="#DejaVuSans-30" x="63.623047"/>
    </g>
   </g>
   <g id="text_6">
    <!-- 100 -->
    <g transform="translate(28.80633 187.301281) scale(0.12 -0.12)">
     <defs>
      <path id="DejaVuSans-31" d="M 794 531 
L 1825 531 
L 1825 4091 
L 703 3866 
L 703 4441 
L 1819 4666 
L 2450 4666 
L 2450 531 
L 3481 531 
L 3481 0 
L 794 0 
L 794 531 
z
" transform="scale(0.015625)"/>
     </defs>
     <use xlink:href="#DejaVuSans-31"/>
     <use xlink:href="#DejaVuSans-30" x="63.623047"/>
     <use xlink:href="#DejaVuSans-30" x="127.246094"/>
    </g>
   </g>
   <g id="text_7">
    <!-- 0 -->
    <g transform="translate(22.884193 176.750008) scale(0.12 -0.12)">
     <use xlink:href="#DejaVuSans-30"/>
    </g>
   </g>
   <g id="text_8">
    <!-- 20 -->
    <g transform="translate(31.48192 148.634099) scale(0.12 -0.12)">
     <use xlink:href="#DejaVuSans-32"/>
     <use xlink:href="#DejaVuSans-30" x="63.623047"/>
    </g>
   </g>
   <g id="text_9">
    <!-- 40 -->
    <g transform="translate(47.714648 120.518191) scale(0.12 -0.12)">
     <use xlink:href="#DejaVuSans-34"/>
     <use xlink:href="#DejaVuSans-30" x="63.623047"/>
    </g>
   </g>
   <g id="text_10">
    <!-- 60 -->
    <g transform="translate(63.947375 92.402283) scale(0.12 -0.12)">
     <use xlink:href="#DejaVuSans-36"/>
     <use xlink:href="#DejaVuSans-30" x="63.623047"/>
    </g>
   </g>
   <g id="text_11">
    <!-- 80 -->
    <g transform="translate(80.180102 64.286374) scale(0.12 -0.12)">
     <use xlink:href="#DejaVuSans-38"/>
     <use xlink:href="#DejaVuSans-30" x="63.623047"/>
    </g>
   </g>
   <g id="text_12">
    <!-- 100 -->
    <g transform="translate(88.77783 36.170466) scale(0.12 -0.12)">
     <use xlink:href="#DejaVuSans-31"/>
     <use xlink:href="#DejaVuSans-30" x="63.623047"/>
     <use xlink:href="#DejaVuSans-30" x="127.246094"/>
    </g>
   </g>
   <g id="text_13">
    <!-- 0 -->
    <g transform="translate(118.987557 30.489011) scale(0.12 -0.12)">
     <use xlink:href="#DejaVuSans-30"/>
    </g>
   </g>
   <g id="text_14">
    <!-- 20 -->
    <g transform="translate(135.220284 58.60492) scale(0.12 -0.12)">
     <use xlink:href="#DejaVuSans-32"/>
     <use xlink:href="#DejaVuSans-30" x="63.623047"/>
    </g>
   </g>
   <g id="text_15">
    <!-- 40 -->
    <g transform="translate(151.453011 86.720828) scale(0.12 -0.12)">
     <use xlink:href="#DejaVuSans-34"/>
     <use xlink:href="#DejaVuSans-30" x="63.623047"/>
    </g>
   </g>
   <g id="text_16">
    <!-- 60 -->
    <g transform="translate(167.685739 114.836737) scale(0.12 -0.12)">
     <use xlink:href="#DejaVuSans-36"/>
     <use xlink:href="#DejaVuSans-30" x="63.623047"/>
    </g>
   </g>
   <g id="text_17">
    <!-- 80 -->
    <g transform="translate(183.918466 142.952645) scale(0.12 -0.12)">
     <use xlink:href="#DejaVuSans-38"/>
     <use xlink:href="#DejaVuSans-30" x="63.623047"/>
    </g>
   </g>
   <g id="text_18">
    <!-- 100 -->
    <g transform="translate(200.151193 171.068553) scale(0.12 -0.12)">
     <use xlink:href="#DejaVuSans-31"/>
     <use xlink:href="#DejaVuSans-30" x="63.623047"/>
     <use xlink:href="#DejaVuSans-30" x="127.246094"/>
    </g>
   </g>
   <g id="text_19">
    <!-- Au content (at.%) -->
    <g transform="translate(63.54171 200.352167) scale(0.12 -0.12)">
     <defs>
      <path id="DejaVuSans-41" d="M 2188 4044 
L 1331 1722 
L 3047 1722 
L 2188 4044 
z
M 1831 4666 
L 2547 4666 
L 4325 0 
L 3669 0 
L 3244 1197 
L 1141 1197 
L 716 0 
L 50 0 
L 1831 4666 
z
" transform="scale(0.015625)"/>
      <path id="DejaVuSans-75" d="M 544 1381 
L 544 3500 
L 1119 3500 
L 1119 1403 
Q 1119 906 1312 657 
Q 1506 409 1894 409 
Q 2359 409 2629 706 
Q 2900 1003 2900 1516 
L 2900 3500 
L 3475 3500 
L 3475 0 
L 2900 0 
L 2900 538 
Q 2691 219 2414 64 
Q 2138 -91 1772 -91 
Q 1169 -91 856 284 
Q 544 659 544 1381 
z
M 1991 3584 
L 1991 3584 
z
" transform="scale(0.015625)"/>
      <path id="DejaVuSans-20" transform="scale(0.015625)"/>
      <path id="DejaVuSans-63" d="M 3122 3366 
L 3122 2828 
Q 2878 2963 2633 3030 
Q 2388 3097 2138 3097 
Q 1578 3097 1268 2742 
Q 959 2388 959 1747 
Q 959 1106 1268 751 
Q 1578 397 2138 397 
Q 2388 397 2633 464 
Q 2878 531 3122 666 
L 3122 134 
Q 2881 22 2623 -34 
Q 2366 -91 2075 -91 
Q 1284 -91 818 406 
Q 353 903 353 1747 
Q 353 2603 823 3093 
Q 1294 3584 2113 3584 
Q 2378 3584 2631 3529 
Q 2884 3475 3122 3366 
z
" transform="scale(0.015625)"/>
      <path id="DejaVuSans-6f" d="M 1959 3097 
Q 1497 3097 1228 2736 
Q 959 2375 959 1747 
Q 959 1119 1226 758 
Q 1494 397 1959 397 
Q 2419 397 2687 759 
Q 2956 1122 2956 1747 
Q 2956 2369 2687 2733 
Q 2419 3097 1959 3097 
z
M 1959 3584 
Q 2709 3584 3137 3096 
Q 3566 2609 3566 1747 
Q 3566 888 3137 398 
Q 2709 -91 1959 -91 
Q 1206 -91 779 398 
Q 353 888 353 1747 
Q 353 2609 779 3096 
Q 1206 3584 1959 3584 
z
" transform="scale(0.015625)"/>
      <path id="DejaVuSans-6e" d="M 3513 2113 
L 3513 0 
L 2938 0 
L 2938 2094 
Q 2938 2591 2744 2837 
Q 2550 3084 2163 3084 
Q 1697 3084 1428 2787 
Q 1159 2491 1159 1978 
L 1159 0 
L 581 0 
L 581 3500 
L 1159 3500 
L 1159 2956 
Q 1366 3272 1645 3428 
Q 1925 3584 2291 3584 
Q 2894 3584 3203 3211 
Q 3513 2838 3513 2113 
z
" transform="scale(0.015625)"/>
      <path id="DejaVuSans-74" d="M 1172 4494 
L 1172 3500 
L 2356 3500 
L 2356 3053 
L 1172 3053 
L 1172 1153 
Q 1172 725 1289 603 
Q 1406 481 1766 481 
L 2356 481 
L 2356 0 
L 1766 0 
Q 1100 0 847 248 
Q 594 497 594 1153 
L 594 3053 
L 172 3053 
L 172 3500 
L 594 3500 
L 594 4494 
L 1172 4494 
z
" transform="scale(0.015625)"/>
      <path id="DejaVuSans-65" d="M 3597 1894 
L 3597 1613 
L 953 1613 
Q 991 1019 1311 708 
Q 1631 397 2203 397 
Q 2534 397 2845 478 
Q 3156 559 3463 722 
L 3463 178 
Q 3153 47 2828 -22 
Q 2503 -91 2169 -91 
Q 1331 -91 842 396 
Q 353 884 353 1716 
Q 353 2575 817 3079 
Q 1281 3584 2069 3584 
Q 2775 3584 3186 3129 
Q 3597 2675 3597 1894 
z
M 3022 2063 
Q 3016 2534 2758 2815 
Q 2500 3097 2075 3097 
Q 1594 3097 1305 2825 
Q 1016 2553 972 2059 
L 3022 2063 
z
" transform="scale(0.015625)"/>
      <path id="DejaVuSans-28" d="M 1984 4856 
Q 1566 4138 1362 3434 
Q 1159 2731 1159 2009 
Q 1159 1288 1364 580 
Q 1569 -128 1984 -844 
L 1484 -844 
Q 1016 -109 783 600 
Q 550 1309 550 2009 
Q 550 2706 781 3412 
Q 1013 4119 1484 4856 
L 1984 4856 
z
" transform="scale(0.015625)"/>
      <path id="DejaVuSans-61" d="M 2194 1759 
Q 1497 1759 1228 1600 
Q 959 1441 959 1056 
Q 959 750 1161 570 
Q 1363 391 1709 391 
Q 2188 391 2477 730 
Q 2766 1069 2766 1631 
L 2766 1759 
L 2194 1759 
z
M 3341 1997 
L 3341 0 
L 2766 0 
L 2766 531 
Q 2569 213 2275 61 
Q 1981 -91 1556 -91 
Q 1019 -91 701 211 
Q 384 513 384 1019 
Q 384 1609 779 1909 
Q 1175 2209 1959 2209 
L 2766 2209 
L 2766 2266 
Q 2766 2663 2505 2880 
Q 2244 3097 1772 3097 
Q 1472 3097 1187 3025 
Q 903 2953 641 2809 
L 641 3341 
Q 956 3463 1253 3523 
Q 1550 3584 1831 3584 
Q 2591 3584 2966 3190 
Q 3341 2797 3341 1997 
z
" transform="scale(0.015625)"/>
      <path id="DejaVuSans-2e" d="M 684 794 
L 1344 794 
L 1344 0 
L 684 0 
L 684 794 
z
" transform="scale(0.015625)"/>
      <path id="DejaVuSans-25" d="M 4653 2053 
Q 4381 2053 4226 1822 
Q 4072 1591 4072 1178 
Q 4072 772 4226 539 
Q 4381 306 4653 306 
Q 4919 306 5073 539 
Q 5228 772 5228 1178 
Q 5228 1588 5073 1820 
Q 4919 2053 4653 2053 
z
M 4653 2450 
Q 5147 2450 5437 2106 
Q 5728 1763 5728 1178 
Q 5728 594 5436 251 
Q 5144 -91 4653 -91 
Q 4153 -91 3862 251 
Q 3572 594 3572 1178 
Q 3572 1766 3864 2108 
Q 4156 2450 4653 2450 
z
M 1428 4353 
Q 1159 4353 1004 4120 
Q 850 3888 850 3481 
Q 850 3069 1003 2837 
Q 1156 2606 1428 2606 
Q 1700 2606 1854 2837 
Q 2009 3069 2009 3481 
Q 2009 3884 1853 4118 
Q 1697 4353 1428 4353 
z
M 4250 4750 
L 4750 4750 
L 1831 -91 
L 1331 -91 
L 4250 4750 
z
M 1428 4750 
Q 1922 4750 2215 4408 
Q 2509 4066 2509 3481 
Q 2509 2891 2217 2550 
Q 1925 2209 1428 2209 
Q 931 2209 642 2551 
Q 353 2894 353 3481 
Q 353 4063 643 4406 
Q 934 4750 1428 4750 
z
" transform="scale(0.015625)"/>
      <path id="DejaVuSans-29" d="M 513 4856 
L 1013 4856 
Q 1481 4119 1714 3412 
Q 1947 2706 1947 2009 
Q 1947 1309 1714 600 
Q 1481 -109 1013 -844 
L 513 -844 
Q 928 -128 1133 580 
Q 1338 1288 1338 2009 
Q 1338 2731 1133 3434 
Q 928 4138 513 4856 
z
" transform="scale(0.015625)"/>
     </defs>
     <use xlink:href="#DejaVuSans-41"/>
     <use xlink:href="#DejaVuSans-75" x="68.408203"/>
     <use xlink:href="#DejaVuSans-20" x="131.787109"/>
     <use xlink:href="#DejaVuSans-63" x="163.574219"/>
     <use xlink:href="#DejaVuSans-6f" x="218.554688"/>
     <use xlink:href="#DejaVuSans-6e" x="279.736328"/>
     <use xlink:href="#DejaVuSans-74" x="343.115234"/>
     <use xlink:href="#DejaVuSans-65" x="382.324219"/>
     <use xlink:href="#DejaVuSans-6e" x="443.847656"/>
     <use xlink:href="#DejaVuSans-74" x="507.226562"/>
     <use xlink:href="#DejaVuSans-20" x="546.435547"/>
     <use xlink:href="#DejaVuSans-28" x="578.222656"/>
     <use xlink:href="#DejaVuSans-61" x="617.236328"/>
     <use xlink:href="#DejaVuSans-74" x="678.515625"/>
     <use xlink:href="#DejaVuSans-2e" x="717.724609"/>
     <use xlink:href="#DejaVuSans-25" x="749.511719"/>
     <use xlink:href="#DejaVuSans-29" x="844.53125"/>
    </g>
   </g>
   <g id="text_20">
    <!-- Cu content (at.%) -->
    <g transform="translate(152.067805 48.824386) rotate(-300) scale(0.12 -0.12)">
     <defs>
      <path id="DejaVuSans-43" d="M 4122 4306 
L 4122 3641 
Q 3803 3938 3442 4084 
Q 3081 4231 2675 4231 
Q 1875 4231 1450 3742 
Q 1025 3253 1025 2328 
Q 1025 1406 1450 917 
Q 1875 428 2675 428 
Q 3081 428 3442 575 
Q 3803 722 4122 1019 
L 4122 359 
Q 3791 134 3420 21 
Q 3050 -91 2638 -91 
Q 1578 -91 968 557 
Q 359 1206 359 2328 
Q 359 3453 968 4101 
Q 1578 4750 2638 4750 
Q 3056 4750 3426 4639 
Q 3797 4528 4122 4306 
z
" transform="scale(0.015625)"/>
     </defs>
     <use xlink:href="#DejaVuSans-43"/>
     <use xlink:href="#DejaVuSans-75" x="69.824219"/>
     <use xlink:href="#DejaVuSans-20" x="133.203125"/>
     <use xlink:href="#DejaVuSans-63" x="164.990234"/>
     <use xlink:href="#DejaVuSans-6f" x="219.970703"/>
     <use xlink:href="#DejaVuSans-6e" x="281.152344"/>
     <use xlink:href="#DejaVuSans-74" x="344.53125"/>
     <use xlink:href="#DejaVuSans-65" x="383.740234"/>
     <use xlink:href="#DejaVuSans-6e" x="445.263672"/>
     <use xlink:href="#DejaVuSans-74" x="508.642578"/>
     <use xlink:href="#DejaVuSans-20" x="547.851562"/>
     <use xlink:href="#DejaVuSans-28" x="579.638672"/>
     <use xlink:href="#DejaVuSans-61" x="618.652344"/>
     <use xlink:href="#DejaVuSans-74" x="679.931641"/>
     <use xlink:href="#DejaVuSans-2e" x="719.140625"/>
     <use xlink:href="#DejaVuSans-25" x="750.927734"/>
     <use xlink:href="#DejaVuSans-29" x="845.947266"/>
    </g>
   </g>
   <g id="text_21">
    <!-- Pd content (at.%) -->
    <g transform="translate(28.223897 140.300214) rotate(-60) scale(0.12 -0.12)">
     <defs>
      <path id="DejaVuSans-50" d="M 1259 4147 
L 1259 2394 
L 2053 2394 
Q 2494 2394 2734 2622 
Q 2975 2850 2975 3272 
Q 2975 3691 2734 3919 
Q 2494 4147 2053 4147 
L 1259 4147 
z
M 628 4666 
L 2053 4666 
Q 2838 4666 3239 4311 
Q 3641 3956 3641 3272 
Q 3641 2581 3239 2228 
Q 2838 1875 2053 1875 
L 1259 1875 
L 1259 0 
L 628 0 
L 628 4666 
z
" transform="scale(0.015625)"/>
      <path id="DejaVuSans-64" d="M 2906 2969 
L 2906 4863 
L 3481 4863 
L 3481 0 
L 2906 0 
L 2906 525 
Q 2725 213 2448 61 
Q 2172 -91 1784 -91 
Q 1150 -91 751 415 
Q 353 922 353 1747 
Q 353 2572 751 3078 
Q 1150 3584 1784 3584 
Q 2172 3584 2448 3432 
Q 2725 3281 2906 2969 
z
M 947 1747 
Q 947 1113 1208 752 
Q 1469 391 1925 391 
Q 2381 391 2643 752 
Q 2906 1113 2906 1747 
Q 2906 2381 2643 2742 
Q 2381 3103 1925 3103 
Q 1469 3103 1208 2742 
Q 947 2381 947 1747 
z
" transform="scale(0.015625)"/>
     </defs>
     <use xlink:href="#DejaVuSans-50"/>
     <use xlink:href="#DejaVuSans-64" x="60.302734"/>
     <use xlink:href="#DejaVuSans-20" x="123.779297"/>
     <use xlink:href="#DejaVuSans-63" x="155.566406"/>
     <use xlink:href="#DejaVuSans-6f" x="210.546875"/>
     <use xlink:href="#DejaVuSans-6e" x="271.728516"/>
     <use xlink:href="#DejaVuSans-74" x="335.107422"/>
     <use xlink:href="#DejaVuSans-65" x="374.316406"/>
     <use xlink:href="#DejaVuSans-6e" x="435.839844"/>
     <use xlink:href="#DejaVuSans-74" x="499.21875"/>
     <use xlink:href="#DejaVuSans-20" x="538.427734"/>
     <use xlink:href="#DejaVuSans-28" x="570.214844"/>
     <use xlink:href="#DejaVuSans-61" x="609.228516"/>
     <use xlink:href="#DejaVuSans-74" x="670.507812"/>
     <use xlink:href="#DejaVuSans-2e" x="709.716797"/>
     <use xlink:href="#DejaVuSans-25" x="741.503906"/>
     <use xlink:href="#DejaVuSans-29" x="836.523438"/>
    </g>
   </g>
   <g id="text_22">
    <!-- Au -->
    <g transform="translate(7.2 194.692548) scale(0.14 -0.14)">
     <use xlink:href="#DejaVuSans-41"/>
     <use xlink:href="#DejaVuSans-75" x="68.408203"/>
    </g>
   </g>
   <g id="text_23">
    <!-- Cu -->
    <g transform="translate(207.45592 194.692548) scale(0.14 -0.14)">
     <use xlink:href="#DejaVuSans-43"/>
     <use xlink:href="#DejaVuSans-75" x="69.824219"/>
    </g>
   </g>
   <g id="text_24">
    <!-- Pd -->
    <g transform="translate(107.88796 17.837812) scale(0.14 -0.14)">
     <use xlink:href="#DejaVuSans-50"/>
     <use xlink:href="#DejaVuSans-64" x="60.302734"/>
    </g>
   </g>
  </g>
  <g id="axes_2">
   <g id="patch_3">
    <path d="M 216.992648 120.657328 
L 222.536648 120.657328 
L 222.536648 9.777328 
L 216.992648 9.777328 
z
" style="fill: #ffffff"/>
   </g>
   <g id="QuadMesh_1">
    <path d="M 216.992648 120.657328 
L 222.536648 120.657328 
L 222.536648 113.265328 
L 216.992648 113.265328 
L 216.992648 120.657328 
" clip-path="url(#p12f9cefe31)" style="fill: #3e4b89; stroke: #3e4b89"/>
    <path d="M 216.992648 113.265328 
L 222.536648 113.265328 
L 222.536648 105.873328 
L 216.992648 105.873328 
L 216.992648 113.265328 
" clip-path="url(#p12f9cefe31)" style="fill: #37598c; stroke: #37598c"/>
    <path d="M 216.992648 105.873328 
L 222.536648 105.873328 
L 222.536648 98.481328 
L 216.992648 98.481328 
L 216.992648 105.873328 
" clip-path="url(#p12f9cefe31)" style="fill: #31678e; stroke: #31678e"/>
    <path d="M 216.992648 98.481328 
L 222.536648 98.481328 
L 222.536648 91.089328 
L 216.992648 91.089328 
L 216.992648 98.481328 
" clip-path="url(#p12f9cefe31)" style="fill: #2b748e; stroke: #2b748e"/>
    <path d="M 216.992648 91.089328 
L 222.536648 91.089328 
L 222.536648 83.697328 
L 216.992648 83.697328 
L 216.992648 91.089328 
" clip-path="url(#p12f9cefe31)" style="fill: #26828e; stroke: #26828e"/>
    <path d="M 216.992648 83.697328 
L 222.536648 83.697328 
L 222.536648 76.305328 
L 216.992648 76.305328 
L 216.992648 83.697328 
" clip-path="url(#p12f9cefe31)" style="fill: #218e8d; stroke: #218e8d"/>
    <path d="M 216.992648 76.305328 
L 222.536648 76.305328 
L 222.536648 68.913328 
L 216.992648 68.913328 
L 216.992648 76.305328 
" clip-path="url(#p12f9cefe31)" style="fill: #1e9b8a; stroke: #1e9b8a"/>
    <path d="M 216.992648 68.913328 
L 222.536648 68.913328 
L 222.536648 61.521328 
L 216.992648 61.521328 
L 216.992648 68.913328 
" clip-path="url(#p12f9cefe31)" style="fill: #23a884; stroke: #23a884"/>
    <path d="M 216.992648 61.521328 
L 222.536648 61.521328 
L 222.536648 54.129328 
L 216.992648 54.129328 
L 216.992648 61.521328 
" clip-path="url(#p12f9cefe31)" style="fill: #32b57b; stroke: #32b57b"/>
    <path d="M 216.992648 54.129328 
L 222.536648 54.129328 
L 222.536648 46.737328 
L 216.992648 46.737328 
L 216.992648 54.129328 
" clip-path="url(#p12f9cefe31)" style="fill: #47c06f; stroke: #47c06f"/>
    <path d="M 216.992648 46.737328 
L 222.536648 46.737328 
L 222.536648 39.345328 
L 216.992648 39.345328 
L 216.992648 46.737328 
" clip-path="url(#p12f9cefe31)" style="fill: #64cb5e; stroke: #64cb5e"/>
    <path d="M 216.992648 39.345328 
L 222.536648 39.345328 
L 222.536648 31.953328 
L 216.992648 31.953328 
L 216.992648 39.345328 
" clip-path="url(#p12f9cefe31)" style="fill: #84d44b; stroke: #84d44b"/>
    <path d="M 216.992648 31.953328 
L 222.536648 31.953328 
L 222.536648 24.561328 
L 216.992648 24.561328 
L 216.992648 31.953328 
" clip-path="url(#p12f9cefe31)" style="fill: #a6db35; stroke: #a6db35"/>
    <path d="M 216.992648 24.561328 
L 222.536648 24.561328 
L 222.536648 17.169328 
L 216.992648 17.169328 
L 216.992648 24.561328 
" clip-path="url(#p12f9cefe31)" style="fill: #cce11e; stroke: #cce11e"/>
    <path d="M 216.992648 17.169328 
L 222.536648 17.169328 
L 222.536648 9.777328 
L 216.992648 9.777328 
L 216.992648 17.169328 
" clip-path="url(#p12f9cefe31)" style="fill: #eee51b; stroke: #eee51b"/>
   </g>
   <g id="matplotlib.axis_3"/>
   <g id="matplotlib.axis_4">
    <g id="ytick_6">
     <g id="line2d_22">
      <defs>
       <path id="md2160c06cc" d="M 0 0 
L 3.5 0 
" style="stroke: #000000; stroke-width: 0.8"/>
      </defs>
      <g>
       <use xlink:href="#md2160c06cc" x="222.536648" y="120.657328" style="stroke: #000000; stroke-width: 0.8"/>
      </g>
     </g>
     <g id="text_25">
      <!-- 0.000 -->
      <g transform="translate(229.536648 124.456547) scale(0.1 -0.1)">
       <use xlink:href="#DejaVuSans-30"/>
       <use xlink:href="#DejaVuSans-2e" x="63.623047"/>
       <use xlink:href="#DejaVuSans-30" x="95.410156"/>
       <use xlink:href="#DejaVuSans-30" x="159.033203"/>
       <use xlink:href="#DejaVuSans-30" x="222.65625"/>
      </g>
     </g>
    </g>
    <g id="ytick_7">
     <g id="line2d_23">
      <g>
       <use xlink:href="#md2160c06cc" x="222.536648" y="105.873328" style="stroke: #000000; stroke-width: 0.8"/>
      </g>
     </g>
     <g id="text_26">
      <!-- 0.016 -->
      <g transform="translate(229.536648 109.672547) scale(0.1 -0.1)">
       <use xlink:href="#DejaVuSans-30"/>
       <use xlink:href="#DejaVuSans-2e" x="63.623047"/>
       <use xlink:href="#DejaVuSans-30" x="95.410156"/>
       <use xlink:href="#DejaVuSans-31" x="159.033203"/>
       <use xlink:href="#DejaVuSans-36" x="222.65625"/>
      </g>
     </g>
    </g>
    <g id="ytick_8">
     <g id="line2d_24">
      <g>
       <use xlink:href="#md2160c06cc" x="222.536648" y="91.089328" style="stroke: #000000; stroke-width: 0.8"/>
      </g>
     </g>
     <g id="text_27">
      <!-- 0.032 -->
      <g transform="translate(229.536648 94.888547) scale(0.1 -0.1)">
       <defs>
        <path id="DejaVuSans-33" d="M 2597 2516 
Q 3050 2419 3304 2112 
Q 3559 1806 3559 1356 
Q 3559 666 3084 287 
Q 2609 -91 1734 -91 
Q 1441 -91 1130 -33 
Q 819 25 488 141 
L 488 750 
Q 750 597 1062 519 
Q 1375 441 1716 441 
Q 2309 441 2620 675 
Q 2931 909 2931 1356 
Q 2931 1769 2642 2001 
Q 2353 2234 1838 2234 
L 1294 2234 
L 1294 2753 
L 1863 2753 
Q 2328 2753 2575 2939 
Q 2822 3125 2822 3475 
Q 2822 3834 2567 4026 
Q 2313 4219 1838 4219 
Q 1578 4219 1281 4162 
Q 984 4106 628 3988 
L 628 4550 
Q 988 4650 1302 4700 
Q 1616 4750 1894 4750 
Q 2613 4750 3031 4423 
Q 3450 4097 3450 3541 
Q 3450 3153 3228 2886 
Q 3006 2619 2597 2516 
z
" transform="scale(0.015625)"/>
       </defs>
       <use xlink:href="#DejaVuSans-30"/>
       <use xlink:href="#DejaVuSans-2e" x="63.623047"/>
       <use xlink:href="#DejaVuSans-30" x="95.410156"/>
       <use xlink:href="#DejaVuSans-33" x="159.033203"/>
       <use xlink:href="#DejaVuSans-32" x="222.65625"/>
      </g>
     </g>
    </g>
    <g id="ytick_9">
     <g id="line2d_25">
      <g>
       <use xlink:href="#md2160c06cc" x="222.536648" y="76.305328" style="stroke: #000000; stroke-width: 0.8"/>
      </g>
     </g>
     <g id="text_28">
      <!-- 0.048 -->
      <g transform="translate(229.536648 80.104547) scale(0.1 -0.1)">
       <use xlink:href="#DejaVuSans-30"/>
       <use xlink:href="#DejaVuSans-2e" x="63.623047"/>
       <use xlink:href="#DejaVuSans-30" x="95.410156"/>
       <use xlink:href="#DejaVuSans-34" x="159.033203"/>
       <use xlink:href="#DejaVuSans-38" x="222.65625"/>
      </g>
     </g>
    </g>
    <g id="ytick_10">
     <g id="line2d_26">
      <g>
       <use xlink:href="#md2160c06cc" x="222.536648" y="61.521328" style="stroke: #000000; stroke-width: 0.8"/>
      </g>
     </g>
     <g id="text_29">
      <!-- 0.064 -->
      <g transform="translate(229.536648 65.320547) scale(0.1 -0.1)">
       <use xlink:href="#DejaVuSans-30"/>
       <use xlink:href="#DejaVuSans-2e" x="63.623047"/>
       <use xlink:href="#DejaVuSans-30" x="95.410156"/>
       <use xlink:href="#DejaVuSans-36" x="159.033203"/>
       <use xlink:href="#DejaVuSans-34" x="222.65625"/>
      </g>
     </g>
    </g>
    <g id="ytick_11">
     <g id="line2d_27">
      <g>
       <use xlink:href="#md2160c06cc" x="222.536648" y="46.737328" style="stroke: #000000; stroke-width: 0.8"/>
      </g>
     </g>
     <g id="text_30">
      <!-- 0.080 -->
      <g transform="translate(229.536648 50.536547) scale(0.1 -0.1)">
       <use xlink:href="#DejaVuSans-30"/>
       <use xlink:href="#DejaVuSans-2e" x="63.623047"/>
       <use xlink:href="#DejaVuSans-30" x="95.410156"/>
       <use xlink:href="#DejaVuSans-38" x="159.033203"/>
       <use xlink:href="#DejaVuSans-30" x="222.65625"/>
      </g>
     </g>
    </g>
    <g id="ytick_12">
     <g id="line2d_28">
      <g>
       <use xlink:href="#md2160c06cc" x="222.536648" y="31.953328" style="stroke: #000000; stroke-width: 0.8"/>
      </g>
     </g>
     <g id="text_31">
      <!-- 0.096 -->
      <g transform="translate(229.536648 35.752547) scale(0.1 -0.1)">
       <defs>
        <path id="DejaVuSans-39" d="M 703 97 
L 703 672 
Q 941 559 1184 500 
Q 1428 441 1663 441 
Q 2288 441 2617 861 
Q 2947 1281 2994 2138 
Q 2813 1869 2534 1725 
Q 2256 1581 1919 1581 
Q 1219 1581 811 2004 
Q 403 2428 403 3163 
Q 403 3881 828 4315 
Q 1253 4750 1959 4750 
Q 2769 4750 3195 4129 
Q 3622 3509 3622 2328 
Q 3622 1225 3098 567 
Q 2575 -91 1691 -91 
Q 1453 -91 1209 -44 
Q 966 3 703 97 
z
M 1959 2075 
Q 2384 2075 2632 2365 
Q 2881 2656 2881 3163 
Q 2881 3666 2632 3958 
Q 2384 4250 1959 4250 
Q 1534 4250 1286 3958 
Q 1038 3666 1038 3163 
Q 1038 2656 1286 2365 
Q 1534 2075 1959 2075 
z
" transform="scale(0.015625)"/>
       </defs>
       <use xlink:href="#DejaVuSans-30"/>
       <use xlink:href="#DejaVuSans-2e" x="63.623047"/>
       <use xlink:href="#DejaVuSans-30" x="95.410156"/>
       <use xlink:href="#DejaVuSans-39" x="159.033203"/>
       <use xlink:href="#DejaVuSans-36" x="222.65625"/>
      </g>
     </g>
    </g>
    <g id="ytick_13">
     <g id="line2d_29">
      <g>
       <use xlink:href="#md2160c06cc" x="222.536648" y="17.169328" style="stroke: #000000; stroke-width: 0.8"/>
      </g>
     </g>
     <g id="text_32">
      <!-- 0.112 -->
      <g transform="translate(229.536648 20.968547) scale(0.1 -0.1)">
       <use xlink:href="#DejaVuSans-30"/>
       <use xlink:href="#DejaVuSans-2e" x="63.623047"/>
       <use xlink:href="#DejaVuSans-31" x="95.410156"/>
       <use xlink:href="#DejaVuSans-31" x="159.033203"/>
       <use xlink:href="#DejaVuSans-32" x="222.65625"/>
      </g>
     </g>
    </g>
   </g>
   <g id="LineCollection_1"/>
   <g id="patch_4">
    <path d="M 216.992648 120.657328 
L 219.764648 120.657328 
L 222.536648 120.657328 
L 222.536648 9.777328 
L 219.764648 9.777328 
L 216.992648 9.777328 
L 216.992648 120.657328 
z
" style="fill: none; stroke: #000000; stroke-width: 0.8; stroke-linejoin: miter; stroke-linecap: square"/>
   </g>
  </g>
 </g>
 <defs>
  <clipPath id="pfc8cac6ddb">
   <rect x="27.272648" y="25.619193" width="178.56" height="156.812269"/>
  </clipPath>
  <clipPath id="p12f9cefe31">
   <rect x="216.992648" y="9.777328" width="5.544" height="110.88"/>
  </clipPath>
 </defs>
</svg>
