<?xml version="1.0" encoding="utf-8" standalone="no"?>
<!DOCTYPE svg PUBLIC "-//W3C//DTD SVG 1.1//EN"
  "http://www.w3.org/Graphics/SVG/1.1/DTD/svg11.dtd">
<svg xmlns:xlink="http://www.w3.org/1999/xlink" width="252.639773pt" height="211.269683pt" viewBox="0 0 252.639773 211.269683" xmlns="http://www.w3.org/2000/svg" version="1.1">
 <metadata>
  <rdf:RDF xmlns:dc="http://purl.org/dc/elements/1.1/" xmlns:cc="http://creativecommons.org/ns#" xmlns:rdf="http://www.w3.org/1999/02/22-rdf-syntax-ns#">
   <cc:Work>
    <dc:type rdf:resource="http://purl.org/dc/dcmitype/StillImage"/>
    <dc:date>2024-01-12T09:43:13.583168</dc:date>
    <dc:format>image/svg+xml</dc:format>
    <dc:creator>
     <cc:Agent>
      <dc:title>Matplotlib v3.7.0, https://matplotlib.org/</dc:title>
     </cc:Agent>
    </dc:creator>
   </cc:Work>
  </rdf:RDF>
 </metadata>
 <defs>
  <style type="text/css">*{stroke-linejoin: round; stroke-linecap: butt}</style>
 </defs>
 <g id="figure_1">
  <g id="patch_1">
   <path d="M 0 211.269683 
L 252.639773 211.269683 
L 252.639773 0 
L 0 0 
z
" style="fill: #ffffff"/>
  </g>
  <g id="axes_1">
   <g id="patch_2">
    <path d="M 27.272648 183.653353 
L 205.832648 183.653353 
L 205.832648 26.841084 
L 27.272648 26.841084 
z
" style="fill: #ffffff"/>
   </g>
   <g id="PathCollection_1">
    <defs>
     <path id="md14bcad89e" d="M 86.901872 -124.955585 
L 90.90986 -122.321167 
L 92.737882 -121.005897 
L 99.076444 -122.234182 
L 101.228017 -121.653288 
L 107.482303 -121.732761 
L 109.234192 -121.462435 
L 112.113454 -120.080418 
L 115.556221 -118.354557 
L 117.483195 -118.468664 
L 123.35355 -117.801973 
L 126.569443 -116.788774 
L 130.615658 -116.322358 
L 135.152439 -115.980544 
L 137.972665 -115.007113 
L 144.548455 -113.051441 
L 144.8868 -112.924793 
L 145.03848 -112.915372 
L 151.563388 -110.431028 
L 155.216312 -109.344804 
L 153.076284 -113.051441 
L 149.018102 -120.080418 
L 144.95992 -127.109395 
L 140.901739 -134.138373 
L 136.843557 -141.16735 
L 132.785375 -148.196327 
L 128.727193 -155.225304 
L 124.669011 -162.254281 
L 120.61083 -169.283258 
L 116.552648 -176.312235 
L 112.494466 -169.283258 
L 108.436284 -162.254281 
L 104.378102 -155.225304 
L 100.31992 -148.196327 
L 96.261739 -141.16735 
L 92.203557 -134.138373 
L 88.145375 -127.109395 
M 37.012284 -35.732693 
L 39.774872 -42.194113 
L 41.07038 -42.76167 
L 40.233363 -44.123357 
L 39.447193 -42.76167 
L 35.389011 -35.732693 
" style="stroke: #00285a"/>
    </defs>
    <g clip-path="url(#p36863e23b1)">
     <use xlink:href="#md14bcad89e" x="0" y="211.269683" style="fill: #00285a; stroke: #00285a"/>
    </g>
   </g>
   <g id="PathCollection_2">
    <defs>
     <path id="m180f67b2a2" d="M 155.216312 -109.344804 
L 151.563388 -110.431028 
L 145.03848 -112.915372 
L 144.8868 -112.924793 
L 144.548455 -113.051441 
L 137.972665 -115.007113 
L 135.152439 -115.980544 
L 130.615658 -116.322358 
L 126.569443 -116.788774 
L 123.35355 -117.801973 
L 117.483195 -118.468664 
L 115.556221 -118.354557 
L 112.113454 -120.080418 
L 109.234192 -121.462435 
L 107.482303 -121.732761 
L 101.228017 -121.653288 
L 99.076444 -122.234182 
L 92.737882 -121.005897 
L 90.90986 -122.321167 
L 86.901872 -124.955585 
L 84.087193 -120.080418 
L 80.029011 -113.051441 
L 75.97083 -106.022464 
L 72.003376 -99.150632 
L 79.334359 -100.196659 
L 81.500223 -101.541701 
L 86.479171 -101.879436 
L 90.124955 -106.022464 
L 91.960829 -106.442881 
L 92.409502 -106.379171 
L 99.228659 -106.022464 
L 100.231936 -105.870071 
L 100.361939 -105.949687 
L 108.266607 -105.728575 
L 108.826975 -105.345768 
L 116.050197 -105.152193 
L 116.812365 -105.57262 
L 122.956738 -103.05672 
L 126.440447 -102.954248 
L 132.028907 -104.712223 
L 136.428968 -99.711576 
L 136.921092 -99.127782 
L 144.087023 -100.505391 
L 145.79811 -100.445274 
L 151.687099 -101.399625 
L 154.231034 -100.993572 
L 160.822825 -99.634038 
L 157.134466 -106.022464 
M 40.233363 -44.123357 
L 41.07038 -42.76167 
L 39.774872 -42.194113 
L 37.012284 -35.732693 
L 38.635557 -35.732693 
L 40.707498 -40.578758 
L 45.69022 -42.76167 
L 42.470925 -47.998927 
" style="stroke: #033271"/>
    </defs>
    <g clip-path="url(#p36863e23b1)">
     <use xlink:href="#m180f67b2a2" x="0" y="211.269683" style="fill: #033271; stroke: #033271"/>
    </g>
   </g>
   <g id="PathCollection_3">
    <defs>
     <path id="mad37cac12f" d="M 160.822825 -99.634038 
L 154.231034 -100.993572 
L 151.687099 -101.399625 
L 145.79811 -100.445274 
L 144.087023 -100.505391 
L 136.921092 -99.127782 
L 136.428968 -99.711576 
L 132.028907 -104.712223 
L 126.440447 -102.954248 
L 122.956738 -103.05672 
L 116.812365 -105.57262 
L 116.050197 -105.152193 
L 108.826975 -105.345768 
L 108.266607 -105.728575 
L 100.361939 -105.949687 
L 100.231936 -105.870071 
L 99.228659 -106.022464 
L 92.409502 -106.379171 
L 91.960829 -106.442881 
L 90.124955 -106.022464 
L 86.479171 -101.879436 
L 81.500223 -101.541701 
L 79.334359 -100.196659 
L 72.003376 -99.150632 
L 71.912648 -98.993487 
L 67.854466 -91.96451 
L 63.796284 -84.935533 
L 59.738102 -77.906556 
L 55.67992 -70.877579 
L 51.621739 -63.848602 
L 47.563557 -56.819624 
L 43.505375 -49.790647 
L 42.470925 -47.998927 
L 45.69022 -42.76167 
L 40.707498 -40.578758 
L 38.635557 -35.732693 
L 40.25883 -35.732693 
L 41.640124 -38.963403 
L 46.633669 -41.151057 
L 49.31399 -39.729832 
L 49.646322 -42.76167 
L 49.114526 -45.448028 
L 46.417229 -49.790647 
L 48.131149 -55.836527 
L 49.041946 -56.819624 
L 52.337337 -62.609149 
L 52.554054 -63.848602 
L 56.547592 -69.374727 
L 58.880096 -70.877579 
L 61.797159 -74.340165 
L 66.958882 -76.355358 
L 68.286205 -77.158762 
L 69.131314 -77.906556 
L 70.61302 -82.684512 
L 69.689913 -84.935533 
L 71.633183 -85.41958 
L 72.511753 -85.973213 
L 77.69514 -88.977917 
L 82.967141 -90.024522 
L 85.886805 -88.847491 
L 90.829767 -91.96451 
L 92.039067 -92.249414 
L 92.40569 -92.314616 
L 100.162353 -92.237425 
L 100.567633 -92.393561 
L 107.142995 -94.204553 
L 109.319524 -93.494327 
L 115.215581 -94.280378 
L 118.226295 -94.863352 
L 123.239103 -94.441183 
L 126.055846 -94.366579 
L 131.425324 -94.320187 
L 133.702313 -93.552693 
L 140.323493 -92.966061 
L 141.563549 -93.1108 
L 147.930667 -93.848002 
L 150.276722 -94.144503 
L 156.767573 -92.599987 
L 157.41442 -92.449405 
L 162.281966 -91.96451 
L 165.117251 -91.733145 
L 165.371639 -91.755262 
L 165.25083 -91.96451 
L 161.192648 -98.993487 
" style="stroke: #273e6e"/>
    </defs>
    <g clip-path="url(#p36863e23b1)">
     <use xlink:href="#mad37cac12f" x="0" y="211.269683" style="fill: #273e6e; stroke: #273e6e"/>
    </g>
   </g>
   <g id="PathCollection_4">
    <defs>
     <path id="m0ef353e1a1" d="M 165.371639 -91.755262 
L 165.117251 -91.733145 
L 162.281966 -91.96451 
L 157.41442 -92.449405 
L 156.767573 -92.599987 
L 150.276722 -94.144503 
L 147.930667 -93.848002 
L 141.563549 -93.1108 
L 140.323493 -92.966061 
L 133.702313 -93.552693 
L 131.425324 -94.320187 
L 126.055846 -94.366579 
L 123.239103 -94.441183 
L 118.226295 -94.863352 
L 115.215581 -94.280378 
L 109.319524 -93.494327 
L 107.142995 -94.204553 
L 100.567633 -92.393561 
L 100.162353 -92.237425 
L 92.40569 -92.314616 
L 92.039067 -92.249414 
L 90.829767 -91.96451 
L 85.886805 -88.847491 
L 82.967141 -90.024522 
L 77.69514 -88.977917 
L 72.511753 -85.973213 
L 71.633183 -85.41958 
L 69.689913 -84.935533 
L 70.61302 -82.684512 
L 69.131314 -77.906556 
L 68.286205 -77.158762 
L 66.958882 -76.355358 
L 61.797159 -74.340165 
L 58.880096 -70.877579 
L 56.547592 -69.374727 
L 52.554054 -63.848602 
L 52.337337 -62.609149 
L 49.041946 -56.819624 
L 48.131149 -55.836527 
L 46.417229 -49.790647 
L 49.114526 -45.448028 
L 49.646322 -42.76167 
L 49.31399 -39.729832 
L 46.633669 -41.151057 
L 41.640124 -38.963403 
L 40.25883 -35.732693 
L 41.882102 -35.732693 
L 42.572749 -37.348048 
L 45.069522 -38.441875 
L 50.17883 -35.732693 
L 51.621739 -35.732693 
L 52.253285 -35.732693 
L 52.556744 -37.35217 
L 53.149702 -42.76167 
L 51.829456 -49.43087 
L 52.134516 -49.790647 
L 57.061926 -54.42592 
L 59.129764 -56.819624 
L 58.33598 -61.420055 
L 58.760609 -63.848602 
L 59.303987 -64.60051 
L 60.6865 -65.491274 
L 65.800953 -67.40539 
L 70.083466 -70.877579 
L 71.438958 -71.698033 
L 73.375813 -73.411855 
L 77.094397 -75.960481 
L 83.347617 -76.625572 
L 84.569776 -77.070699 
L 86.744886 -77.906556 
L 91.00355 -79.985029 
L 94.223366 -81.404968 
L 97.614406 -82.592644 
L 104.002212 -84.284472 
L 104.656299 -84.453682 
L 112.327097 -84.645641 
L 112.660543 -84.647878 
L 113.947029 -84.935533 
L 119.709493 -86.496694 
L 121.423705 -86.343474 
L 127.700839 -86.713231 
L 129.74421 -86.697058 
L 136.394804 -85.712796 
L 137.231933 -85.608219 
L 143.455042 -87.542059 
L 146.648297 -87.859886 
L 152.017668 -86.769109 
L 153.918423 -86.394161 
L 160.60941 -85.945731 
L 161.723402 -85.854827 
L 168.441048 -86.438889 
" style="stroke: #3a496c"/>
    </defs>
    <g clip-path="url(#p36863e23b1)">
     <use xlink:href="#m0ef353e1a1" x="0" y="211.269683" style="fill: #3a496c; stroke: #3a496c"/>
    </g>
   </g>
   <g id="PathCollection_5">
    <defs>
     <path id="mefbca368f8" d="M 168.441048 -86.438889 
L 161.723402 -85.854827 
L 160.60941 -85.945731 
L 153.918423 -86.394161 
L 152.017668 -86.769109 
L 146.648297 -87.859886 
L 143.455042 -87.542059 
L 137.231933 -85.608219 
L 136.394804 -85.712796 
L 129.74421 -86.697058 
L 127.700839 -86.713231 
L 121.423705 -86.343474 
L 119.709493 -86.496694 
L 113.947029 -84.935533 
L 112.660543 -84.647878 
L 112.327097 -84.645641 
L 104.656299 -84.453682 
L 104.002212 -84.284472 
L 97.614406 -82.592644 
L 94.223366 -81.404968 
L 91.00355 -79.985029 
L 86.744886 -77.906556 
L 84.569776 -77.070699 
L 83.347617 -76.625572 
L 77.094397 -75.960481 
L 73.375813 -73.411855 
L 71.438958 -71.698033 
L 70.083466 -70.877579 
L 65.800953 -67.40539 
L 60.6865 -65.491274 
L 59.303987 -64.60051 
L 58.760609 -63.848602 
L 58.33598 -61.420055 
L 59.129764 -56.819624 
L 57.061926 -54.42592 
L 52.134516 -49.790647 
L 51.829456 -49.43087 
L 53.149702 -42.76167 
L 52.556744 -37.35217 
L 52.253285 -35.732693 
L 55.17419 -35.732693 
L 56.292476 -41.700693 
L 57.109571 -42.76167 
L 60.733563 -48.066458 
L 62.140942 -49.790647 
L 65.308563 -54.200281 
L 66.879636 -56.819624 
L 69.177618 -61.556834 
L 74.17246 -63.848602 
L 75.417818 -64.806446 
L 77.212768 -65.999703 
L 81.519897 -68.29529 
L 85.473036 -70.877579 
L 87.681072 -71.681774 
L 88.874446 -72.140367 
L 94.632934 -73.69875 
L 98.539954 -74.823563 
L 101.458059 -75.935242 
L 108.007898 -77.164569 
L 108.771661 -77.325666 
L 116.23798 -77.361535 
L 116.893696 -77.315842 
L 119.642567 -77.906556 
L 123.995201 -79.07363 
L 125.387837 -79.151598 
L 131.531331 -80.078623 
L 133.889774 -79.819431 
L 139.134722 -80.967118 
L 143.258645 -81.988837 
L 147.479039 -80.572291 
L 150.198325 -79.950762 
L 155.858966 -80.115787 
L 158.316085 -79.95318 
L 163.872762 -80.293438 
L 166.780223 -80.555543 
L 171.403644 -81.307523 
L 169.309011 -84.935533 
M 43.505375 -35.732693 
L 50.17883 -35.732693 
L 45.069522 -38.441875 
L 42.572749 -37.348048 
L 41.882102 -35.732693 
" style="stroke: #4b546c"/>
    </defs>
    <g clip-path="url(#p36863e23b1)">
     <use xlink:href="#mefbca368f8" x="0" y="211.269683" style="fill: #4b546c; stroke: #4b546c"/>
    </g>
   </g>
   <g id="PathCollection_6">
    <defs>
     <path id="md8e93dc522" d="M 171.403644 -81.307523 
L 166.780223 -80.555543 
L 163.872762 -80.293438 
L 158.316085 -79.95318 
L 155.858966 -80.115787 
L 150.198325 -79.950762 
L 147.479039 -80.572291 
L 143.258645 -81.988837 
L 139.134722 -80.967118 
L 133.889774 -79.819431 
L 131.531331 -80.078623 
L 125.387837 -79.151598 
L 123.995201 -79.07363 
L 119.642567 -77.906556 
L 116.893696 -77.315842 
L 116.23798 -77.361535 
L 108.771661 -77.325666 
L 108.007898 -77.164569 
L 101.458059 -75.935242 
L 98.539954 -74.823563 
L 94.632934 -73.69875 
L 88.874446 -72.140367 
L 87.681072 -71.681774 
L 85.473036 -70.877579 
L 81.519897 -68.29529 
L 77.212768 -65.999703 
L 75.417818 -64.806446 
L 74.17246 -63.848602 
L 69.177618 -61.556834 
L 66.879636 -56.819624 
L 65.308563 -54.200281 
L 62.140942 -49.790647 
L 60.733563 -48.066458 
L 57.109571 -42.76167 
L 56.292476 -41.700693 
L 55.17419 -35.732693 
L 58.095094 -35.732693 
L 58.497677 -37.881173 
L 62.256314 -42.76167 
L 63.09093 -43.983379 
L 67.831145 -49.790647 
L 67.844074 -49.808646 
L 68.399417 -50.734531 
L 71.987142 -56.690597 
L 79.099727 -55.210056 
L 80.777474 -55.523249 
L 82.415048 -56.819624 
L 85.389954 -61.592153 
L 90.612946 -63.848602 
L 91.716099 -64.692903 
L 92.918478 -65.086881 
L 97.91759 -68.00956 
L 103.986348 -70.199041 
L 104.584681 -70.519774 
L 106.784701 -70.877579 
L 111.874628 -71.951169 
L 113.117751 -71.957141 
L 120.275515 -71.45836 
L 121.041133 -71.622886 
L 126.686467 -74.41222 
L 131.007656 -74.827457 
L 134.486949 -74.959344 
L 139.905637 -76.181258 
L 141.84658 -76.270043 
L 147.339979 -74.999961 
L 150.435776 -75.451073 
L 155.76651 -75.537186 
L 158.48473 -75.567829 
L 164.026437 -75.785845 
L 166.267184 -76.146178 
L 172.709674 -76.767699 
L 174.045051 -76.732472 
L 173.367193 -77.906556 
M 43.505375 -35.732693 
M 68.053183 -35.732693 
L 68.143847 -36.233916 
L 66.960728 -37.280693 
L 66.794369 -35.732693 
L 67.854466 -35.732693 
" style="stroke: #5a5f6e"/>
    </defs>
    <g clip-path="url(#p36863e23b1)">
     <use xlink:href="#md8e93dc522" x="0" y="211.269683" style="fill: #5a5f6e; stroke: #5a5f6e"/>
    </g>
   </g>
   <g id="PathCollection_7">
    <defs>
     <path id="me3756d92dc" d="M 174.045051 -76.732472 
L 172.709674 -76.767699 
L 166.267184 -76.146178 
L 164.026437 -75.785845 
L 158.48473 -75.567829 
L 155.76651 -75.537186 
L 150.435776 -75.451073 
L 147.339979 -74.999961 
L 141.84658 -76.270043 
L 139.905637 -76.181258 
L 134.486949 -74.959344 
L 131.007656 -74.827457 
L 126.686467 -74.41222 
L 121.041133 -71.622886 
L 120.275515 -71.45836 
L 113.117751 -71.957141 
L 111.874628 -71.951169 
L 106.784701 -70.877579 
L 104.584681 -70.519774 
L 103.986348 -70.199041 
L 97.91759 -68.00956 
L 92.918478 -65.086881 
L 91.716099 -64.692903 
L 90.612946 -63.848602 
L 85.389954 -61.592153 
L 82.415048 -56.819624 
L 80.777474 -55.523249 
L 79.099727 -55.210056 
L 71.987142 -56.690597 
L 68.399417 -50.734531 
L 67.844074 -49.808646 
L 67.831145 -49.790647 
L 63.09093 -43.983379 
L 62.256314 -42.76167 
L 58.497677 -37.881173 
L 58.095094 -35.732693 
L 59.738102 -35.732693 
L 66.794369 -35.732693 
L 66.960728 -37.280693 
L 68.143847 -36.233916 
L 68.053183 -35.732693 
L 70.404664 -35.732693 
L 71.568187 -42.165048 
L 70.893855 -42.76167 
L 71.540352 -43.406505 
L 73.591893 -49.790647 
L 74.806583 -51.807182 
L 76.885261 -51.374489 
L 82.561045 -52.434014 
L 88.100923 -56.819624 
L 88.124 -56.856647 
L 88.180956 -56.881253 
L 94.192148 -60.404261 
L 99.559758 -62.531962 
L 100.982996 -62.70012 
L 102.520985 -63.848602 
L 107.038253 -66.270062 
L 110.124068 -66.771929 
L 115.105476 -66.355177 
L 117.891524 -66.167603 
L 122.408905 -67.76322 
L 128.240209 -70.034098 
L 129.196276 -70.065103 
L 136.565 -70.395103 
L 137.025728 -70.562049 
L 144.913512 -70.797198 
L 144.999334 -70.809313 
L 145.527354 -70.877579 
L 152.490476 -71.892228 
L 153.673122 -71.911333 
L 160.551044 -71.988868 
L 161.864075 -72.040524 
L 168.062136 -73.03723 
L 170.702977 -73.291997 
L 176.113819 -73.149261 
" style="stroke: #686b71"/>
    </defs>
    <g clip-path="url(#p36863e23b1)">
     <use xlink:href="#me3756d92dc" x="0" y="211.269683" style="fill: #686b71; stroke: #686b71"/>
    </g>
   </g>
   <g id="PathCollection_8">
    <defs>
     <path id="mb805bc9ed3" d="M 176.113819 -73.149261 
L 170.702977 -73.291997 
L 168.062136 -73.03723 
L 161.864075 -72.040524 
L 160.551044 -71.988868 
L 153.673122 -71.911333 
L 152.490476 -71.892228 
L 145.527354 -70.877579 
L 144.999334 -70.809313 
L 144.913512 -70.797198 
L 137.025728 -70.562049 
L 136.565 -70.395103 
L 129.196276 -70.065103 
L 128.240209 -70.034098 
L 122.408905 -67.76322 
L 117.891524 -66.167603 
L 115.105476 -66.355177 
L 110.124068 -66.771929 
L 107.038253 -66.270062 
L 102.520985 -63.848602 
L 100.982996 -62.70012 
L 99.559758 -62.531962 
L 94.192148 -60.404261 
L 88.180956 -56.881253 
L 88.124 -56.856647 
L 88.100923 -56.819624 
L 82.561045 -52.434014 
L 76.885261 -51.374489 
L 74.806583 -51.807182 
L 73.591893 -49.790647 
L 71.540352 -43.406505 
L 70.893855 -42.76167 
L 71.568187 -42.165048 
L 70.404664 -35.732693 
L 72.756146 -35.732693 
L 73.523046 -39.972379 
L 76.656358 -42.76167 
L 77.913247 -46.426281 
L 83.339901 -48.496299 
L 84.445243 -49.170488 
L 84.901291 -49.790647 
L 89.906122 -53.769921 
L 96.025165 -56.409868 
L 96.44633 -56.499903 
L 100.186609 -56.819624 
L 104.110438 -57.283232 
L 105.051479 -57.985947 
L 111.519833 -58.507738 
L 113.291392 -58.199942 
L 117.698877 -61.863274 
L 123.109713 -63.848602 
L 124.404887 -64.306079 
L 125.086355 -64.571463 
L 132.234197 -64.803271 
L 133.365813 -64.853949 
L 139.117937 -66.938237 
L 142.748021 -67.046457 
L 146.838431 -67.623903 
L 151.549417 -68.232967 
L 154.836173 -67.829362 
L 159.468725 -67.891657 
L 162.634375 -68.380434 
L 168.512977 -69.498807 
L 170.009115 -69.664964 
L 176.613966 -69.472176 
L 178.486959 -69.038862 
L 177.425375 -70.877579 
" style="stroke: #767676"/>
    </defs>
    <g clip-path="url(#p36863e23b1)">
     <use xlink:href="#mb805bc9ed3" x="0" y="211.269683" style="fill: #767676; stroke: #767676"/>
    </g>
   </g>
   <g id="PathCollection_9">
    <defs>
     <path id="m285c523330" d="M 178.486959 -69.038862 
L 176.613966 -69.472176 
L 170.009115 -69.664964 
L 168.512977 -69.498807 
L 162.634375 -68.380434 
L 159.468725 -67.891657 
L 154.836173 -67.829362 
L 151.549417 -68.232967 
L 146.838431 -67.623903 
L 142.748021 -67.046457 
L 139.117937 -66.938237 
L 133.365813 -64.853949 
L 132.234197 -64.803271 
L 125.086355 -64.571463 
L 124.404887 -64.306079 
L 123.109713 -63.848602 
L 117.698877 -61.863274 
L 113.291392 -58.199942 
L 111.519833 -58.507738 
L 105.051479 -57.985947 
L 104.110438 -57.283232 
L 100.186609 -56.819624 
L 96.44633 -56.499903 
L 96.025165 -56.409868 
L 89.906122 -53.769921 
L 84.901291 -49.790647 
L 84.445243 -49.170488 
L 83.339901 -48.496299 
L 77.913247 -46.426281 
L 76.656358 -42.76167 
L 73.523046 -39.972379 
L 72.756146 -35.732693 
L 75.107627 -35.732693 
L 75.313554 -36.871127 
L 78.01817 -39.278791 
L 82.221085 -38.964888 
L 83.463364 -42.76167 
L 86.926013 -44.873667 
L 90.541823 -49.790647 
L 91.680743 -50.696187 
L 93.073218 -51.296944 
L 98.74965 -52.510435 
L 102.05323 -52.792828 
L 105.858298 -54.255851 
L 111.067152 -54.347444 
L 113.988019 -54.232715 
L 117.983078 -56.819624 
L 119.75874 -58.295487 
L 121.920964 -59.088843 
L 126.756903 -60.232267 
L 130.756572 -60.334612 
L 134.054336 -61.650696 
L 140.594438 -63.316342 
L 141.19672 -63.337679 
L 144.498965 -63.848602 
L 148.677529 -64.438492 
L 149.41362 -64.533659 
L 154.992381 -63.848602 
L 157.034841 -63.676046 
L 157.234425 -63.675467 
L 158.830786 -63.848602 
L 164.725369 -64.758727 
L 165.905965 -64.983329 
L 172.301954 -65.69365 
L 174.397125 -65.632495 
L 181.387297 -64.015328 
" style="stroke: #848279"/>
    </defs>
    <g clip-path="url(#p36863e23b1)">
     <use xlink:href="#m285c523330" x="0" y="211.269683" style="fill: #848279; stroke: #848279"/>
    </g>
   </g>
   <g id="PathCollection_10">
    <defs>
     <path id="m6721d72dc7" d="M 181.387297 -64.015328 
L 174.397125 -65.632495 
L 172.301954 -65.69365 
L 165.905965 -64.983329 
L 164.725369 -64.758727 
L 158.830786 -63.848602 
L 157.234425 -63.675467 
L 157.034841 -63.676046 
L 154.992381 -63.848602 
L 149.41362 -64.533659 
L 148.677529 -64.438492 
L 144.498965 -63.848602 
L 141.19672 -63.337679 
L 140.594438 -63.316342 
L 134.054336 -61.650696 
L 130.756572 -60.334612 
L 126.756903 -60.232267 
L 121.920964 -59.088843 
L 119.75874 -58.295487 
L 117.983078 -56.819624 
L 113.988019 -54.232715 
L 111.067152 -54.347444 
L 105.858298 -54.255851 
L 102.05323 -52.792828 
L 98.74965 -52.510435 
L 93.073218 -51.296944 
L 91.680743 -50.696187 
L 90.541823 -49.790647 
L 86.926013 -44.873667 
L 83.463364 -42.76167 
L 82.221085 -38.964888 
L 78.01817 -39.278791 
L 75.313554 -36.871127 
L 75.107627 -35.732693 
L 75.97083 -35.732693 
L 84.087193 -35.732693 
L 86.644776 -35.732693 
L 89.169524 -40.987793 
L 90.974111 -42.76167 
L 93.932334 -46.796317 
L 99.301932 -48.02744 
L 100.861681 -48.852291 
L 103.155838 -49.790647 
L 107.477033 -51.452119 
L 109.415212 -51.4862 
L 115.716623 -51.238685 
L 118.386989 -52.96782 
L 121.621291 -55.069453 
L 128.350033 -56.166365 
L 129.038304 -56.280765 
L 130.227224 -56.819624 
L 135.604559 -58.965632 
L 138.509734 -59.705527 
L 143.197855 -59.871611 
L 147.067667 -60.470348 
L 150.366044 -61.513898 
L 155.534426 -61.077251 
L 158.739876 -61.067949 
L 163.973109 -61.635525 
L 166.425439 -61.814119 
L 172.451729 -62.262971 
L 174.368941 -62.113523 
L 179.974746 -61.235264 
L 182.743166 -61.666895 
L 181.483557 -63.848602 
" style="stroke: #928d78"/>
    </defs>
    <g clip-path="url(#p36863e23b1)">
     <use xlink:href="#m6721d72dc7" x="0" y="211.269683" style="fill: #928d78; stroke: #928d78"/>
    </g>
   </g>
   <g id="PathCollection_11">
    <defs>
     <path id="m293e8d6710" d="M 182.743166 -61.666895 
L 179.974746 -61.235264 
L 174.368941 -62.113523 
L 172.451729 -62.262971 
L 166.425439 -61.814119 
L 163.973109 -61.635525 
L 158.739876 -61.067949 
L 155.534426 -61.077251 
L 150.366044 -61.513898 
L 147.067667 -60.470348 
L 143.197855 -59.871611 
L 138.509734 -59.705527 
L 135.604559 -58.965632 
L 130.227224 -56.819624 
L 129.038304 -56.280765 
L 128.350033 -56.166365 
L 121.621291 -55.069453 
L 118.386989 -52.96782 
L 115.716623 -51.238685 
L 109.415212 -51.4862 
L 107.477033 -51.452119 
L 103.155838 -49.790647 
L 100.861681 -48.852291 
L 99.301932 -48.02744 
L 93.932334 -46.796317 
L 90.974111 -42.76167 
L 89.169524 -40.987793 
L 86.644776 -35.732693 
L 90.335003 -35.732693 
L 91.183683 -37.499166 
L 95.900138 -42.13536 
L 96.444852 -42.444509 
L 96.622207 -42.76167 
L 102.563948 -45.903877 
L 107.313961 -47.846727 
L 109.154972 -48.545844 
L 115.682953 -48.284293 
L 117.491364 -48.164743 
L 119.814478 -49.790647 
L 123.344638 -52.084529 
L 126.268583 -52.561186 
L 130.755245 -53.306935 
L 136.25453 -55.7994 
L 137.391525 -55.870515 
L 144.614981 -56.222171 
L 145.239115 -56.336045 
L 146.239504 -56.819624 
L 152.020336 -58.64858 
L 154.034011 -58.478456 
L 160.245327 -58.460431 
L 162.26653 -58.679643 
L 167.994298 -59.096775 
L 170.741877 -59.301421 
L 176.239948 -58.872844 
L 178.414139 -58.532215 
L 184.046015 -59.410294 
" style="stroke: #a49a74"/>
    </defs>
    <g clip-path="url(#p36863e23b1)">
     <use xlink:href="#m293e8d6710" x="0" y="211.269683" style="fill: #a49a74; stroke: #a49a74"/>
    </g>
   </g>
   <g id="PathCollection_12">
    <defs>
     <path id="m9a86f252f6" d="M 184.046015 -59.410294 
L 178.414139 -58.532215 
L 176.239948 -58.872844 
L 170.741877 -59.301421 
L 167.994298 -59.096775 
L 162.26653 -58.679643 
L 160.245327 -58.460431 
L 154.034011 -58.478456 
L 152.020336 -58.64858 
L 146.239504 -56.819624 
L 145.239115 -56.336045 
L 144.614981 -56.222171 
L 137.391525 -55.870515 
L 136.25453 -55.7994 
L 130.755245 -53.306935 
L 126.268583 -52.561186 
L 123.344638 -52.084529 
L 119.814478 -49.790647 
L 117.491364 -48.164743 
L 115.682953 -48.284293 
L 109.154972 -48.545844 
L 107.313961 -47.846727 
L 102.563948 -45.903877 
L 96.622207 -42.76167 
L 96.444852 -42.444509 
L 95.900138 -42.13536 
L 91.183683 -37.499166 
L 90.335003 -35.732693 
L 92.203557 -35.732693 
L 99.598029 -35.732693 
L 100.141756 -36.041282 
L 103.899765 -42.76167 
L 104.266216 -42.955463 
L 104.559168 -43.075286 
L 110.919024 -45.490417 
L 113.998669 -45.367027 
L 119.309318 -45.015954 
L 123.677368 -48.073071 
L 125.118495 -49.012118 
L 129.208589 -49.790647 
L 132.472187 -50.333105 
L 133.320561 -50.717617 
L 140.12098 -51.142961 
L 141.727656 -51.221178 
L 147.57612 -52.288233 
L 151.576548 -54.222006 
L 153.82877 -55.516281 
L 160.424899 -55.489845 
L 162.028241 -55.372334 
L 168.896021 -56.104304 
L 169.726139 -56.097138 
L 176.590185 -55.373033 
L 178.136053 -55.588695 
L 183.206196 -56.819624 
L 185.348864 -57.153693 
" style="stroke: #b4a76f"/>
    </defs>
    <g clip-path="url(#p36863e23b1)">
     <use xlink:href="#m9a86f252f6" x="0" y="211.269683" style="fill: #b4a76f; stroke: #b4a76f"/>
    </g>
   </g>
   <g id="PathCollection_13">
    <defs>
     <path id="me8b4b7d3c5" d="M 185.348864 -57.153693 
L 183.206196 -56.819624 
L 178.136053 -55.588695 
L 176.590185 -55.373033 
L 169.726139 -56.097138 
L 168.896021 -56.104304 
L 162.028241 -55.372334 
L 160.424899 -55.489845 
L 153.82877 -55.516281 
L 151.576548 -54.222006 
L 147.57612 -52.288233 
L 141.727656 -51.221178 
L 140.12098 -51.142961 
L 133.320561 -50.717617 
L 132.472187 -50.333105 
L 129.208589 -49.790647 
L 125.118495 -49.012118 
L 123.677368 -48.073071 
L 119.309318 -45.015954 
L 113.998669 -45.367027 
L 110.919024 -45.490417 
L 104.559168 -43.075286 
L 104.266216 -42.955463 
L 103.899765 -42.76167 
L 100.141756 -36.041282 
L 99.598029 -35.732693 
L 100.31992 -35.732693 
L 108.436284 -35.732693 
L 114.083571 -35.732693 
L 113.821776 -40.462702 
L 118.323702 -38.800249 
L 121.674436 -40.919451 
L 122.628453 -42.76167 
L 127.060017 -45.649304 
L 130.806042 -46.362342 
L 134.730146 -46.422206 
L 139.093654 -46.658953 
L 142.178052 -47.580008 
L 148.216604 -48.402411 
L 150.224431 -47.701224 
L 152.216358 -49.790647 
L 155.909231 -51.912816 
L 158.354043 -51.903017 
L 164.282096 -51.468543 
L 166.346601 -51.688579 
L 172.301099 -51.637176 
L 174.310879 -51.425159 
L 180.075554 -52.22938 
L 183.350624 -53.024502 
L 188.811772 -49.790647 
L 189.305586 -49.280845 
L 189.927983 -49.222427 
L 189.59992 -49.790647 
L 185.541739 -56.819624 
" style="stroke: #c4b568"/>
    </defs>
    <g clip-path="url(#p36863e23b1)">
     <use xlink:href="#me8b4b7d3c5" x="0" y="211.269683" style="fill: #c4b568; stroke: #c4b568"/>
    </g>
   </g>
   <g id="PathCollection_14">
    <defs>
     <path id="m6391c9ae4b" d="M 189.927983 -49.222427 
L 189.305586 -49.280845 
L 188.811772 -49.790647 
L 183.350624 -53.024502 
L 180.075554 -52.22938 
L 174.310879 -51.425159 
L 172.301099 -51.637176 
L 166.346601 -51.688579 
L 164.282096 -51.468543 
L 158.354043 -51.903017 
L 155.909231 -51.912816 
L 152.216358 -49.790647 
L 150.224431 -47.701224 
L 148.216604 -48.402411 
L 142.178052 -47.580008 
L 139.093654 -46.658953 
L 134.730146 -46.422206 
L 130.806042 -46.362342 
L 127.060017 -45.649304 
L 122.628453 -42.76167 
L 121.674436 -40.919451 
L 118.323702 -38.800249 
L 113.821776 -40.462702 
L 114.083571 -35.732693 
L 116.552648 -35.732693 
L 124.669011 -35.732693 
L 128.940549 -35.732693 
L 130.510914 -39.672175 
L 135.292129 -40.074518 
L 140.724189 -36.040218 
L 138.199184 -42.76167 
L 143.965729 -44.48366 
L 146.123802 -44.777573 
L 151.896276 -42.76167 
L 152.743605 -42.185453 
L 153.337026 -42.310052 
L 153.750191 -42.76167 
L 158.280285 -47.80603 
L 163.818085 -47.309061 
L 167.625712 -45.67723 
L 170.965469 -45.630738 
L 176.017881 -45.199521 
L 179.583143 -46.499034 
L 185.500802 -42.76167 
L 185.49309 -42.677408 
L 187.17924 -35.732693 
L 189.59992 -35.732693 
L 197.716284 -35.732693 
L 193.658102 -42.76167 
" style="stroke: #d6c35e"/>
    </defs>
    <g clip-path="url(#p36863e23b1)">
     <use xlink:href="#m6391c9ae4b" x="0" y="211.269683" style="fill: #d6c35e; stroke: #d6c35e"/>
    </g>
   </g>
   <g id="PathCollection_15">
    <defs>
     <path id="m0f6dbae5a0" d="M 148.560223 -35.732693 
L 148.538533 -36.563331 
L 149.227262 -36.094968 
L 156.09301 -37.536547 
L 160.873229 -42.76167 
L 161.067654 -42.978166 
L 161.305327 -42.956837 
L 161.76072 -42.76167 
L 166.717683 -38.273357 
L 169.16532 -35.732693 
L 173.367193 -35.732693 
L 181.483557 -35.732693 
L 187.17924 -35.732693 
L 185.49309 -42.677408 
L 185.500802 -42.76167 
L 179.583143 -46.499034 
L 176.017881 -45.199521 
L 170.965469 -45.630738 
L 167.625712 -45.67723 
L 163.818085 -47.309061 
L 158.280285 -47.80603 
L 153.750191 -42.76167 
L 153.337026 -42.310052 
L 152.743605 -42.185453 
L 151.896276 -42.76167 
L 146.123802 -44.777573 
L 143.965729 -44.48366 
L 138.199184 -42.76167 
L 140.724189 -36.040218 
L 135.292129 -40.074518 
L 130.510914 -39.672175 
L 128.940549 -35.732693 
L 132.785375 -35.732693 
L 140.901739 -35.732693 
" style="stroke: #e7d150"/>
    </defs>
    <g clip-path="url(#p36863e23b1)">
     <use xlink:href="#m0f6dbae5a0" x="0" y="211.269683" style="fill: #e7d150; stroke: #e7d150"/>
    </g>
   </g>
   <g id="PathCollection_16">
    <defs>
     <path id="m4e3d55e0a6" d="M 169.16532 -35.732693 
L 166.717683 -38.273357 
L 161.76072 -42.76167 
L 161.305327 -42.956837 
L 161.067654 -42.978166 
L 160.873229 -42.76167 
L 156.09301 -37.536547 
L 149.227262 -36.094968 
L 148.538533 -36.563331 
L 148.560223 -35.732693 
L 149.018102 -35.732693 
L 157.134466 -35.732693 
L 165.25083 -35.732693 
" style="stroke: #fae039"/>
    </defs>
    <g clip-path="url(#p36863e23b1)">
     <use xlink:href="#m4e3d55e0a6" x="0" y="211.269683" style="fill: #fae039; stroke: #fae039"/>
    </g>
   </g>
   <g id="line2d_1">
    <path d="M 35.389011 175.53699 
L 116.552648 34.957448 
" clip-path="url(#p36863e23b1)" style="fill: none; stroke: #000000; stroke-linecap: square"/>
   </g>
   <g id="line2d_2">
    <path d="M 116.552648 34.957448 
L 197.716284 175.53699 
" clip-path="url(#p36863e23b1)" style="fill: none; stroke: #000000; stroke-linecap: square"/>
   </g>
   <g id="line2d_3">
    <path d="M 35.389011 175.53699 
L 197.716284 175.53699 
" clip-path="url(#p36863e23b1)" style="fill: none; stroke: #000000; stroke-linecap: square"/>
   </g>
   <g id="line2d_4">
    <path d="M 197.716284 175.53699 
L 200.063861 179.603112 
" clip-path="url(#p36863e23b1)" style="fill: none; stroke: #000000; stroke-linecap: square"/>
   </g>
   <g id="line2d_5">
    <path d="M 165.25083 175.53699 
L 167.598407 179.603112 
" clip-path="url(#p36863e23b1)" style="fill: none; stroke: #000000; stroke-linecap: square"/>
   </g>
   <g id="line2d_6">
    <path d="M 132.785375 175.53699 
L 135.132952 179.603112 
" clip-path="url(#p36863e23b1)" style="fill: none; stroke: #000000; stroke-linecap: square"/>
   </g>
   <g id="line2d_7">
    <path d="M 100.31992 175.53699 
L 102.667497 179.603112 
" clip-path="url(#p36863e23b1)" style="fill: none; stroke: #000000; stroke-linecap: square"/>
   </g>
   <g id="line2d_8">
    <path d="M 67.854466 175.53699 
L 70.202043 179.603112 
" clip-path="url(#p36863e23b1)" style="fill: none; stroke: #000000; stroke-linecap: square"/>
   </g>
   <g id="line2d_9">
    <path d="M 35.389011 175.53699 
L 37.736588 179.603112 
" clip-path="url(#p36863e23b1)" style="fill: none; stroke: #000000; stroke-linecap: square"/>
   </g>
   <g id="line2d_10">
    <path d="M 35.389011 175.53699 
L 30.693857 175.53699 
" clip-path="url(#p36863e23b1)" style="fill: none; stroke: #000000; stroke-linecap: square"/>
   </g>
   <g id="line2d_11">
    <path d="M 51.621739 147.421081 
L 46.926585 147.421081 
" clip-path="url(#p36863e23b1)" style="fill: none; stroke: #000000; stroke-linecap: square"/>
   </g>
   <g id="line2d_12">
    <path d="M 67.854466 119.305173 
L 63.159312 119.305173 
" clip-path="url(#p36863e23b1)" style="fill: none; stroke: #000000; stroke-linecap: square"/>
   </g>
   <g id="line2d_13">
    <path d="M 84.087193 91.189265 
L 79.392039 91.189265 
" clip-path="url(#p36863e23b1)" style="fill: none; stroke: #000000; stroke-linecap: square"/>
   </g>
   <g id="line2d_14">
    <path d="M 100.31992 63.073356 
L 95.624766 63.073356 
" clip-path="url(#p36863e23b1)" style="fill: none; stroke: #000000; stroke-linecap: square"/>
   </g>
   <g id="line2d_15">
    <path d="M 116.552648 34.957448 
L 111.857494 34.957448 
" clip-path="url(#p36863e23b1)" style="fill: none; stroke: #000000; stroke-linecap: square"/>
   </g>
   <g id="line2d_16">
    <path d="M 116.552648 34.957448 
L 118.900225 30.891325 
" clip-path="url(#p36863e23b1)" style="fill: none; stroke: #000000; stroke-linecap: square"/>
   </g>
   <g id="line2d_17">
    <path d="M 132.785375 63.073356 
L 135.132952 59.007234 
" clip-path="url(#p36863e23b1)" style="fill: none; stroke: #000000; stroke-linecap: square"/>
   </g>
   <g id="line2d_18">
    <path d="M 149.018102 91.189265 
L 151.365679 87.123142 
" clip-path="url(#p36863e23b1)" style="fill: none; stroke: #000000; stroke-linecap: square"/>
   </g>
   <g id="line2d_19">
    <path d="M 165.25083 119.305173 
L 167.598407 115.23905 
" clip-path="url(#p36863e23b1)" style="fill: none; stroke: #000000; stroke-linecap: square"/>
   </g>
   <g id="line2d_20">
    <path d="M 181.483557 147.421081 
L 183.831134 143.354959 
" clip-path="url(#p36863e23b1)" style="fill: none; stroke: #000000; stroke-linecap: square"/>
   </g>
   <g id="line2d_21">
    <path d="M 197.716284 175.53699 
L 200.063861 171.470867 
" clip-path="url(#p36863e23b1)" style="fill: none; stroke: #000000; stroke-linecap: square"/>
   </g>
   <g id="matplotlib.axis_1">
    <g id="xtick_1"/>
    <g id="xtick_2"/>
    <g id="xtick_3"/>
    <g id="xtick_4"/>
    <g id="xtick_5"/>
   </g>
   <g id="matplotlib.axis_2">
    <g id="ytick_1"/>
    <g id="ytick_2"/>
    <g id="ytick_3"/>
    <g id="ytick_4"/>
    <g id="ytick_5"/>
   </g>
   <g id="text_1">
    <!-- 0 -->
    <g transform="translate(198.768602 188.523172) scale(0.12 -0.12)">
     <defs>
      <path id="DejaVuSans-30" d="M 2034 4250 
Q 1547 4250 1301 3770 
Q 1056 3291 1056 2328 
Q 1056 1369 1301 889 
Q 1547 409 2034 409 
Q 2525 409 2770 889 
Q 3016 1369 3016 2328 
Q 3016 3291 2770 3770 
Q 2525 4250 2034 4250 
z
M 2034 4750 
Q 2819 4750 3233 4129 
Q 3647 3509 3647 2328 
Q 3647 1150 3233 529 
Q 2819 -91 2034 -91 
Q 1250 -91 836 529 
Q 422 1150 422 2328 
Q 422 3509 836 4129 
Q 1250 4750 2034 4750 
z
" transform="scale(0.015625)"/>
     </defs>
     <use xlink:href="#DejaVuSans-30"/>
    </g>
   </g>
   <g id="text_2">
    <!-- 20 -->
    <g transform="translate(162.485648 188.523172) scale(0.12 -0.12)">
     <defs>
      <path id="DejaVuSans-32" d="M 1228 531 
L 3431 531 
L 3431 0 
L 469 0 
L 469 531 
Q 828 903 1448 1529 
Q 2069 2156 2228 2338 
Q 2531 2678 2651 2914 
Q 2772 3150 2772 3378 
Q 2772 3750 2511 3984 
Q 2250 4219 1831 4219 
Q 1534 4219 1204 4116 
Q 875 4013 500 3803 
L 500 4441 
Q 881 4594 1212 4672 
Q 1544 4750 1819 4750 
Q 2544 4750 2975 4387 
Q 3406 4025 3406 3419 
Q 3406 3131 3298 2873 
Q 3191 2616 2906 2266 
Q 2828 2175 2409 1742 
Q 1991 1309 1228 531 
z
" transform="scale(0.015625)"/>
     </defs>
     <use xlink:href="#DejaVuSans-32"/>
     <use xlink:href="#DejaVuSans-30" x="63.623047"/>
    </g>
   </g>
   <g id="text_3">
    <!-- 40 -->
    <g transform="translate(130.020193 188.523172) scale(0.12 -0.12)">
     <defs>
      <path id="DejaVuSans-34" d="M 2419 4116 
L 825 1625 
L 2419 1625 
L 2419 4116 
z
M 2253 4666 
L 3047 4666 
L 3047 1625 
L 3713 1625 
L 3713 1100 
L 3047 1100 
L 3047 0 
L 2419 0 
L 2419 1100 
L 313 1100 
L 313 1709 
L 2253 4666 
z
" transform="scale(0.015625)"/>
     </defs>
     <use xlink:href="#DejaVuSans-34"/>
     <use xlink:href="#DejaVuSans-30" x="63.623047"/>
    </g>
   </g>
   <g id="text_4">
    <!-- 60 -->
    <g transform="translate(97.554739 188.523172) scale(0.12 -0.12)">
     <defs>
      <path id="DejaVuSans-36" d="M 2113 2584 
Q 1688 2584 1439 2293 
Q 1191 2003 1191 1497 
Q 1191 994 1439 701 
Q 1688 409 2113 409 
Q 2538 409 2786 701 
Q 3034 994 3034 1497 
Q 3034 2003 2786 2293 
Q 2538 2584 2113 2584 
z
M 3366 4563 
L 3366 3988 
Q 3128 4100 2886 4159 
Q 2644 4219 2406 4219 
Q 1781 4219 1451 3797 
Q 1122 3375 1075 2522 
Q 1259 2794 1537 2939 
Q 1816 3084 2150 3084 
Q 2853 3084 3261 2657 
Q 3669 2231 3669 1497 
Q 3669 778 3244 343 
Q 2819 -91 2113 -91 
Q 1303 -91 875 529 
Q 447 1150 447 2328 
Q 447 3434 972 4092 
Q 1497 4750 2381 4750 
Q 2619 4750 2861 4703 
Q 3103 4656 3366 4563 
z
" transform="scale(0.015625)"/>
     </defs>
     <use xlink:href="#DejaVuSans-36"/>
     <use xlink:href="#DejaVuSans-30" x="63.623047"/>
    </g>
   </g>
   <g id="text_5">
    <!-- 80 -->
    <g transform="translate(65.089284 188.523172) scale(0.12 -0.12)">
     <defs>
      <path id="DejaVuSans-38" d="M 2034 2216 
Q 1584 2216 1326 1975 
Q 1069 1734 1069 1313 
Q 1069 891 1326 650 
Q 1584 409 2034 409 
Q 2484 409 2743 651 
Q 3003 894 3003 1313 
Q 3003 1734 2745 1975 
Q 2488 2216 2034 2216 
z
M 1403 2484 
Q 997 2584 770 2862 
Q 544 3141 544 3541 
Q 544 4100 942 4425 
Q 1341 4750 2034 4750 
Q 2731 4750 3128 4425 
Q 3525 4100 3525 3541 
Q 3525 3141 3298 2862 
Q 3072 2584 2669 2484 
Q 3125 2378 3379 2068 
Q 3634 1759 3634 1313 
Q 3634 634 3220 271 
Q 2806 -91 2034 -91 
Q 1263 -91 848 271 
Q 434 634 434 1313 
Q 434 1759 690 2068 
Q 947 2378 1403 2484 
z
M 1172 3481 
Q 1172 3119 1398 2916 
Q 1625 2713 2034 2713 
Q 2441 2713 2670 2916 
Q 2900 3119 2900 3481 
Q 2900 3844 2670 4047 
Q 2441 4250 2034 4250 
Q 1625 4250 1398 4047 
Q 1172 3844 1172 3481 
z
" transform="scale(0.015625)"/>
     </defs>
     <use xlink:href="#DejaVuSans-38"/>
     <use xlink:href="#DejaVuSans-30" x="63.623047"/>
    </g>
   </g>
   <g id="text_6">
    <!-- 100 -->
    <g transform="translate(28.80633 188.523172) scale(0.12 -0.12)">
     <defs>
      <path id="DejaVuSans-31" d="M 794 531 
L 1825 531 
L 1825 4091 
L 703 3866 
L 703 4441 
L 1819 4666 
L 2450 4666 
L 2450 531 
L 3481 531 
L 3481 0 
L 794 0 
L 794 531 
z
" transform="scale(0.015625)"/>
     </defs>
     <use xlink:href="#DejaVuSans-31"/>
     <use xlink:href="#DejaVuSans-30" x="63.623047"/>
     <use xlink:href="#DejaVuSans-30" x="127.246094"/>
    </g>
   </g>
   <g id="text_7">
    <!-- 0 -->
    <g transform="translate(22.884193 177.971899) scale(0.12 -0.12)">
     <use xlink:href="#DejaVuSans-30"/>
    </g>
   </g>
   <g id="text_8">
    <!-- 20 -->
    <g transform="translate(31.48192 149.85599) scale(0.12 -0.12)">
     <use xlink:href="#DejaVuSans-32"/>
     <use xlink:href="#DejaVuSans-30" x="63.623047"/>
    </g>
   </g>
   <g id="text_9">
    <!-- 40 -->
    <g transform="translate(47.714648 121.740082) scale(0.12 -0.12)">
     <use xlink:href="#DejaVuSans-34"/>
     <use xlink:href="#DejaVuSans-30" x="63.623047"/>
    </g>
   </g>
   <g id="text_10">
    <!-- 60 -->
    <g transform="translate(63.947375 93.624174) scale(0.12 -0.12)">
     <use xlink:href="#DejaVuSans-36"/>
     <use xlink:href="#DejaVuSans-30" x="63.623047"/>
    </g>
   </g>
   <g id="text_11">
    <!-- 80 -->
    <g transform="translate(80.180102 65.508265) scale(0.12 -0.12)">
     <use xlink:href="#DejaVuSans-38"/>
     <use xlink:href="#DejaVuSans-30" x="63.623047"/>
    </g>
   </g>
   <g id="text_12">
    <!-- 100 -->
    <g transform="translate(88.77783 37.392357) scale(0.12 -0.12)">
     <use xlink:href="#DejaVuSans-31"/>
     <use xlink:href="#DejaVuSans-30" x="63.623047"/>
     <use xlink:href="#DejaVuSans-30" x="127.246094"/>
    </g>
   </g>
   <g id="text_13">
    <!-- 0 -->
    <g transform="translate(118.987557 31.710902) scale(0.12 -0.12)">
     <use xlink:href="#DejaVuSans-30"/>
    </g>
   </g>
   <g id="text_14">
    <!-- 20 -->
    <g transform="translate(135.220284 59.826811) scale(0.12 -0.12)">
     <use xlink:href="#DejaVuSans-32"/>
     <use xlink:href="#DejaVuSans-30" x="63.623047"/>
    </g>
   </g>
   <g id="text_15">
    <!-- 40 -->
    <g transform="translate(151.453011 87.942719) scale(0.12 -0.12)">
     <use xlink:href="#DejaVuSans-34"/>
     <use xlink:href="#DejaVuSans-30" x="63.623047"/>
    </g>
   </g>
   <g id="text_16">
    <!-- 60 -->
    <g transform="translate(167.685739 116.058627) scale(0.12 -0.12)">
     <use xlink:href="#DejaVuSans-36"/>
     <use xlink:href="#DejaVuSans-30" x="63.623047"/>
    </g>
   </g>
   <g id="text_17">
    <!-- 80 -->
    <g transform="translate(183.918466 144.174536) scale(0.12 -0.12)">
     <use xlink:href="#DejaVuSans-38"/>
     <use xlink:href="#DejaVuSans-30" x="63.623047"/>
    </g>
   </g>
   <g id="text_18">
    <!-- 100 -->
    <g transform="translate(200.151193 172.290444) scale(0.12 -0.12)">
     <use xlink:href="#DejaVuSans-31"/>
     <use xlink:href="#DejaVuSans-30" x="63.623047"/>
     <use xlink:href="#DejaVuSans-30" x="127.246094"/>
    </g>
   </g>
   <g id="text_19">
    <!-- Au content (at.%) -->
    <g transform="translate(63.54171 201.574058) scale(0.12 -0.12)">
     <defs>
      <path id="DejaVuSans-41" d="M 2188 4044 
L 1331 1722 
L 3047 1722 
L 2188 4044 
z
M 1831 4666 
L 2547 4666 
L 4325 0 
L 3669 0 
L 3244 1197 
L 1141 1197 
L 716 0 
L 50 0 
L 1831 4666 
z
" transform="scale(0.015625)"/>
      <path id="DejaVuSans-75" d="M 544 1381 
L 544 3500 
L 1119 3500 
L 1119 1403 
Q 1119 906 1312 657 
Q 1506 409 1894 409 
Q 2359 409 2629 706 
Q 2900 1003 2900 1516 
L 2900 3500 
L 3475 3500 
L 3475 0 
L 2900 0 
L 2900 538 
Q 2691 219 2414 64 
Q 2138 -91 1772 -91 
Q 1169 -91 856 284 
Q 544 659 544 1381 
z
M 1991 3584 
L 1991 3584 
z
" transform="scale(0.015625)"/>
      <path id="DejaVuSans-20" transform="scale(0.015625)"/>
      <path id="DejaVuSans-63" d="M 3122 3366 
L 3122 2828 
Q 2878 2963 2633 3030 
Q 2388 3097 2138 3097 
Q 1578 3097 1268 2742 
Q 959 2388 959 1747 
Q 959 1106 1268 751 
Q 1578 397 2138 397 
Q 2388 397 2633 464 
Q 2878 531 3122 666 
L 3122 134 
Q 2881 22 2623 -34 
Q 2366 -91 2075 -91 
Q 1284 -91 818 406 
Q 353 903 353 1747 
Q 353 2603 823 3093 
Q 1294 3584 2113 3584 
Q 2378 3584 2631 3529 
Q 2884 3475 3122 3366 
z
" transform="scale(0.015625)"/>
      <path id="DejaVuSans-6f" d="M 1959 3097 
Q 1497 3097 1228 2736 
Q 959 2375 959 1747 
Q 959 1119 1226 758 
Q 1494 397 1959 397 
Q 2419 397 2687 759 
Q 2956 1122 2956 1747 
Q 2956 2369 2687 2733 
Q 2419 3097 1959 3097 
z
M 1959 3584 
Q 2709 3584 3137 3096 
Q 3566 2609 3566 1747 
Q 3566 888 3137 398 
Q 2709 -91 1959 -91 
Q 1206 -91 779 398 
Q 353 888 353 1747 
Q 353 2609 779 3096 
Q 1206 3584 1959 3584 
z
" transform="scale(0.015625)"/>
      <path id="DejaVuSans-6e" d="M 3513 2113 
L 3513 0 
L 2938 0 
L 2938 2094 
Q 2938 2591 2744 2837 
Q 2550 3084 2163 3084 
Q 1697 3084 1428 2787 
Q 1159 2491 1159 1978 
L 1159 0 
L 581 0 
L 581 3500 
L 1159 3500 
L 1159 2956 
Q 1366 3272 1645 3428 
Q 1925 3584 2291 3584 
Q 2894 3584 3203 3211 
Q 3513 2838 3513 2113 
z
" transform="scale(0.015625)"/>
      <path id="DejaVuSans-74" d="M 1172 4494 
L 1172 3500 
L 2356 3500 
L 2356 3053 
L 1172 3053 
L 1172 1153 
Q 1172 725 1289 603 
Q 1406 481 1766 481 
L 2356 481 
L 2356 0 
L 1766 0 
Q 1100 0 847 248 
Q 594 497 594 1153 
L 594 3053 
L 172 3053 
L 172 3500 
L 594 3500 
L 594 4494 
L 1172 4494 
z
" transform="scale(0.015625)"/>
      <path id="DejaVuSans-65" d="M 3597 1894 
L 3597 1613 
L 953 1613 
Q 991 1019 1311 708 
Q 1631 397 2203 397 
Q 2534 397 2845 478 
Q 3156 559 3463 722 
L 3463 178 
Q 3153 47 2828 -22 
Q 2503 -91 2169 -91 
Q 1331 -91 842 396 
Q 353 884 353 1716 
Q 353 2575 817 3079 
Q 1281 3584 2069 3584 
Q 2775 3584 3186 3129 
Q 3597 2675 3597 1894 
z
M 3022 2063 
Q 3016 2534 2758 2815 
Q 2500 3097 2075 3097 
Q 1594 3097 1305 2825 
Q 1016 2553 972 2059 
L 3022 2063 
z
" transform="scale(0.015625)"/>
      <path id="DejaVuSans-28" d="M 1984 4856 
Q 1566 4138 1362 3434 
Q 1159 2731 1159 2009 
Q 1159 1288 1364 580 
Q 1569 -128 1984 -844 
L 1484 -844 
Q 1016 -109 783 600 
Q 550 1309 550 2009 
Q 550 2706 781 3412 
Q 1013 4119 1484 4856 
L 1984 4856 
z
" transform="scale(0.015625)"/>
      <path id="DejaVuSans-61" d="M 2194 1759 
Q 1497 1759 1228 1600 
Q 959 1441 959 1056 
Q 959 750 1161 570 
Q 1363 391 1709 391 
Q 2188 391 2477 730 
Q 2766 1069 2766 1631 
L 2766 1759 
L 2194 1759 
z
M 3341 1997 
L 3341 0 
L 2766 0 
L 2766 531 
Q 2569 213 2275 61 
Q 1981 -91 1556 -91 
Q 1019 -91 701 211 
Q 384 513 384 1019 
Q 384 1609 779 1909 
Q 1175 2209 1959 2209 
L 2766 2209 
L 2766 2266 
Q 2766 2663 2505 2880 
Q 2244 3097 1772 3097 
Q 1472 3097 1187 3025 
Q 903 2953 641 2809 
L 641 3341 
Q 956 3463 1253 3523 
Q 1550 3584 1831 3584 
Q 2591 3584 2966 3190 
Q 3341 2797 3341 1997 
z
" transform="scale(0.015625)"/>
      <path id="DejaVuSans-2e" d="M 684 794 
L 1344 794 
L 1344 0 
L 684 0 
L 684 794 
z
" transform="scale(0.015625)"/>
      <path id="DejaVuSans-25" d="M 4653 2053 
Q 4381 2053 4226 1822 
Q 4072 1591 4072 1178 
Q 4072 772 4226 539 
Q 4381 306 4653 306 
Q 4919 306 5073 539 
Q 5228 772 5228 1178 
Q 5228 1588 5073 1820 
Q 4919 2053 4653 2053 
z
M 4653 2450 
Q 5147 2450 5437 2106 
Q 5728 1763 5728 1178 
Q 5728 594 5436 251 
Q 5144 -91 4653 -91 
Q 4153 -91 3862 251 
Q 3572 594 3572 1178 
Q 3572 1766 3864 2108 
Q 4156 2450 4653 2450 
z
M 1428 4353 
Q 1159 4353 1004 4120 
Q 850 3888 850 3481 
Q 850 3069 1003 2837 
Q 1156 2606 1428 2606 
Q 1700 2606 1854 2837 
Q 2009 3069 2009 3481 
Q 2009 3884 1853 4118 
Q 1697 4353 1428 4353 
z
M 4250 4750 
L 4750 4750 
L 1831 -91 
L 1331 -91 
L 4250 4750 
z
M 1428 4750 
Q 1922 4750 2215 4408 
Q 2509 4066 2509 3481 
Q 2509 2891 2217 2550 
Q 1925 2209 1428 2209 
Q 931 2209 642 2551 
Q 353 2894 353 3481 
Q 353 4063 643 4406 
Q 934 4750 1428 4750 
z
" transform="scale(0.015625)"/>
      <path id="DejaVuSans-29" d="M 513 4856 
L 1013 4856 
Q 1481 4119 1714 3412 
Q 1947 2706 1947 2009 
Q 1947 1309 1714 600 
Q 1481 -109 1013 -844 
L 513 -844 
Q 928 -128 1133 580 
Q 1338 1288 1338 2009 
Q 1338 2731 1133 3434 
Q 928 4138 513 4856 
z
" transform="scale(0.015625)"/>
     </defs>
     <use xlink:href="#DejaVuSans-41"/>
     <use xlink:href="#DejaVuSans-75" x="68.408203"/>
     <use xlink:href="#DejaVuSans-20" x="131.787109"/>
     <use xlink:href="#DejaVuSans-63" x="163.574219"/>
     <use xlink:href="#DejaVuSans-6f" x="218.554688"/>
     <use xlink:href="#DejaVuSans-6e" x="279.736328"/>
     <use xlink:href="#DejaVuSans-74" x="343.115234"/>
     <use xlink:href="#DejaVuSans-65" x="382.324219"/>
     <use xlink:href="#DejaVuSans-6e" x="443.847656"/>
     <use xlink:href="#DejaVuSans-74" x="507.226562"/>
     <use xlink:href="#DejaVuSans-20" x="546.435547"/>
     <use xlink:href="#DejaVuSans-28" x="578.222656"/>
     <use xlink:href="#DejaVuSans-61" x="617.236328"/>
     <use xlink:href="#DejaVuSans-74" x="678.515625"/>
     <use xlink:href="#DejaVuSans-2e" x="717.724609"/>
     <use xlink:href="#DejaVuSans-25" x="749.511719"/>
     <use xlink:href="#DejaVuSans-29" x="844.53125"/>
    </g>
   </g>
   <g id="text_20">
    <!-- Cu content (at.%) -->
    <g transform="translate(152.067805 50.046277) rotate(-300) scale(0.12 -0.12)">
     <defs>
      <path id="DejaVuSans-43" d="M 4122 4306 
L 4122 3641 
Q 3803 3938 3442 4084 
Q 3081 4231 2675 4231 
Q 1875 4231 1450 3742 
Q 1025 3253 1025 2328 
Q 1025 1406 1450 917 
Q 1875 428 2675 428 
Q 3081 428 3442 575 
Q 3803 722 4122 1019 
L 4122 359 
Q 3791 134 3420 21 
Q 3050 -91 2638 -91 
Q 1578 -91 968 557 
Q 359 1206 359 2328 
Q 359 3453 968 4101 
Q 1578 4750 2638 4750 
Q 3056 4750 3426 4639 
Q 3797 4528 4122 4306 
z
" transform="scale(0.015625)"/>
     </defs>
     <use xlink:href="#DejaVuSans-43"/>
     <use xlink:href="#DejaVuSans-75" x="69.824219"/>
     <use xlink:href="#DejaVuSans-20" x="133.203125"/>
     <use xlink:href="#DejaVuSans-63" x="164.990234"/>
     <use xlink:href="#DejaVuSans-6f" x="219.970703"/>
     <use xlink:href="#DejaVuSans-6e" x="281.152344"/>
     <use xlink:href="#DejaVuSans-74" x="344.53125"/>
     <use xlink:href="#DejaVuSans-65" x="383.740234"/>
     <use xlink:href="#DejaVuSans-6e" x="445.263672"/>
     <use xlink:href="#DejaVuSans-74" x="508.642578"/>
     <use xlink:href="#DejaVuSans-20" x="547.851562"/>
     <use xlink:href="#DejaVuSans-28" x="579.638672"/>
     <use xlink:href="#DejaVuSans-61" x="618.652344"/>
     <use xlink:href="#DejaVuSans-74" x="679.931641"/>
     <use xlink:href="#DejaVuSans-2e" x="719.140625"/>
     <use xlink:href="#DejaVuSans-25" x="750.927734"/>
     <use xlink:href="#DejaVuSans-29" x="845.947266"/>
    </g>
   </g>
   <g id="text_21">
    <!-- Pd content (at.%) -->
    <g transform="translate(28.223897 141.522105) rotate(-60) scale(0.12 -0.12)">
     <defs>
      <path id="DejaVuSans-50" d="M 1259 4147 
L 1259 2394 
L 2053 2394 
Q 2494 2394 2734 2622 
Q 2975 2850 2975 3272 
Q 2975 3691 2734 3919 
Q 2494 4147 2053 4147 
L 1259 4147 
z
M 628 4666 
L 2053 4666 
Q 2838 4666 3239 4311 
Q 3641 3956 3641 3272 
Q 3641 2581 3239 2228 
Q 2838 1875 2053 1875 
L 1259 1875 
L 1259 0 
L 628 0 
L 628 4666 
z
" transform="scale(0.015625)"/>
      <path id="DejaVuSans-64" d="M 2906 2969 
L 2906 4863 
L 3481 4863 
L 3481 0 
L 2906 0 
L 2906 525 
Q 2725 213 2448 61 
Q 2172 -91 1784 -91 
Q 1150 -91 751 415 
Q 353 922 353 1747 
Q 353 2572 751 3078 
Q 1150 3584 1784 3584 
Q 2172 3584 2448 3432 
Q 2725 3281 2906 2969 
z
M 947 1747 
Q 947 1113 1208 752 
Q 1469 391 1925 391 
Q 2381 391 2643 752 
Q 2906 1113 2906 1747 
Q 2906 2381 2643 2742 
Q 2381 3103 1925 3103 
Q 1469 3103 1208 2742 
Q 947 2381 947 1747 
z
" transform="scale(0.015625)"/>
     </defs>
     <use xlink:href="#DejaVuSans-50"/>
     <use xlink:href="#DejaVuSans-64" x="60.302734"/>
     <use xlink:href="#DejaVuSans-20" x="123.779297"/>
     <use xlink:href="#DejaVuSans-63" x="155.566406"/>
     <use xlink:href="#DejaVuSans-6f" x="210.546875"/>
     <use xlink:href="#DejaVuSans-6e" x="271.728516"/>
     <use xlink:href="#DejaVuSans-74" x="335.107422"/>
     <use xlink:href="#DejaVuSans-65" x="374.316406"/>
     <use xlink:href="#DejaVuSans-6e" x="435.839844"/>
     <use xlink:href="#DejaVuSans-74" x="499.21875"/>
     <use xlink:href="#DejaVuSans-20" x="538.427734"/>
     <use xlink:href="#DejaVuSans-28" x="570.214844"/>
     <use xlink:href="#DejaVuSans-61" x="609.228516"/>
     <use xlink:href="#DejaVuSans-74" x="670.507812"/>
     <use xlink:href="#DejaVuSans-2e" x="709.716797"/>
     <use xlink:href="#DejaVuSans-25" x="741.503906"/>
     <use xlink:href="#DejaVuSans-29" x="836.523438"/>
    </g>
   </g>
   <g id="text_22">
    <!-- Au -->
    <g transform="translate(7.2 195.914439) scale(0.14 -0.14)">
     <use xlink:href="#DejaVuSans-41"/>
     <use xlink:href="#DejaVuSans-75" x="68.408203"/>
    </g>
   </g>
   <g id="text_23">
    <!-- Cu -->
    <g transform="translate(207.45592 195.914439) scale(0.14 -0.14)">
     <use xlink:href="#DejaVuSans-43"/>
     <use xlink:href="#DejaVuSans-75" x="69.824219"/>
    </g>
   </g>
   <g id="text_24">
    <!-- Pd -->
    <g transform="translate(107.88796 19.059703) scale(0.14 -0.14)">
     <use xlink:href="#DejaVuSans-50"/>
     <use xlink:href="#DejaVuSans-64" x="60.302734"/>
    </g>
   </g>
  </g>
  <g id="axes_2">
   <g id="patch_3">
    <path d="M 216.992648 121.879219 
L 222.536648 121.879219 
L 222.536648 10.999219 
L 216.992648 10.999219 
z
" style="fill: #ffffff"/>
   </g>
   <g id="QuadMesh_1">
    <path d="M 216.992648 121.879219 
L 222.536648 121.879219 
L 222.536648 114.949219 
L 216.992648 114.949219 
L 216.992648 121.879219 
" clip-path="url(#p281c33af72)" style="fill: #00285a; stroke: #00285a"/>
    <path d="M 216.992648 114.949219 
L 222.536648 114.949219 
L 222.536648 108.019219 
L 216.992648 108.019219 
L 216.992648 114.949219 
" clip-path="url(#p281c33af72)" style="fill: #033271; stroke: #033271"/>
    <path d="M 216.992648 108.019219 
L 222.536648 108.019219 
L 222.536648 101.089219 
L 216.992648 101.089219 
L 216.992648 108.019219 
" clip-path="url(#p281c33af72)" style="fill: #273e6e; stroke: #273e6e"/>
    <path d="M 216.992648 101.089219 
L 222.536648 101.089219 
L 222.536648 94.159219 
L 216.992648 94.159219 
L 216.992648 101.089219 
" clip-path="url(#p281c33af72)" style="fill: #3a496c; stroke: #3a496c"/>
    <path d="M 216.992648 94.159219 
L 222.536648 94.159219 
L 222.536648 87.229219 
L 216.992648 87.229219 
L 216.992648 94.159219 
" clip-path="url(#p281c33af72)" style="fill: #4b546c; stroke: #4b546c"/>
    <path d="M 216.992648 87.229219 
L 222.536648 87.229219 
L 222.536648 80.299219 
L 216.992648 80.299219 
L 216.992648 87.229219 
" clip-path="url(#p281c33af72)" style="fill: #5a5f6e; stroke: #5a5f6e"/>
    <path d="M 216.992648 80.299219 
L 222.536648 80.299219 
L 222.536648 73.369219 
L 216.992648 73.369219 
L 216.992648 80.299219 
" clip-path="url(#p281c33af72)" style="fill: #686b71; stroke: #686b71"/>
    <path d="M 216.992648 73.369219 
L 222.536648 73.369219 
L 222.536648 66.439219 
L 216.992648 66.439219 
L 216.992648 73.369219 
" clip-path="url(#p281c33af72)" style="fill: #767676; stroke: #767676"/>
    <path d="M 216.992648 66.439219 
L 222.536648 66.439219 
L 222.536648 59.509219 
L 216.992648 59.509219 
L 216.992648 66.439219 
" clip-path="url(#p281c33af72)" style="fill: #848279; stroke: #848279"/>
    <path d="M 216.992648 59.509219 
L 222.536648 59.509219 
L 222.536648 52.579219 
L 216.992648 52.579219 
L 216.992648 59.509219 
" clip-path="url(#p281c33af72)" style="fill: #928d78; stroke: #928d78"/>
    <path d="M 216.992648 52.579219 
L 222.536648 52.579219 
L 222.536648 45.649219 
L 216.992648 45.649219 
L 216.992648 52.579219 
" clip-path="url(#p281c33af72)" style="fill: #a49a74; stroke: #a49a74"/>
    <path d="M 216.992648 45.649219 
L 222.536648 45.649219 
L 222.536648 38.719219 
L 216.992648 38.719219 
L 216.992648 45.649219 
" clip-path="url(#p281c33af72)" style="fill: #b4a76f; stroke: #b4a76f"/>
    <path d="M 216.992648 38.719219 
L 222.536648 38.719219 
L 222.536648 31.789219 
L 216.992648 31.789219 
L 216.992648 38.719219 
" clip-path="url(#p281c33af72)" style="fill: #c4b568; stroke: #c4b568"/>
    <path d="M 216.992648 31.789219 
L 222.536648 31.789219 
L 222.536648 24.859219 
L 216.992648 24.859219 
L 216.992648 31.789219 
" clip-path="url(#p281c33af72)" style="fill: #d6c35e; stroke: #d6c35e"/>
    <path d="M 216.992648 24.859219 
L 222.536648 24.859219 
L 222.536648 17.929219 
L 216.992648 17.929219 
L 216.992648 24.859219 
" clip-path="url(#p281c33af72)" style="fill: #e7d150; stroke: #e7d150"/>
    <path d="M 216.992648 17.929219 
L 222.536648 17.929219 
L 222.536648 10.999219 
L 216.992648 10.999219 
L 216.992648 17.929219 
" clip-path="url(#p281c33af72)" style="fill: #fae039; stroke: #fae039"/>
   </g>
   <g id="matplotlib.axis_3"/>
   <g id="matplotlib.axis_4">
    <g id="ytick_6">
     <g id="line2d_22">
      <defs>
       <path id="m04ee5a470d" d="M 0 0 
L 3.5 0 
" style="stroke: #000000; stroke-width: 0.8"/>
      </defs>
      <g>
       <use xlink:href="#m04ee5a470d" x="222.536648" y="121.879219" style="stroke: #000000; stroke-width: 0.8"/>
      </g>
     </g>
     <g id="text_25">
      <!-- 0.0 -->
      <g transform="translate(229.536648 125.678438) scale(0.1 -0.1)">
       <use xlink:href="#DejaVuSans-30"/>
       <use xlink:href="#DejaVuSans-2e" x="63.623047"/>
       <use xlink:href="#DejaVuSans-30" x="95.410156"/>
      </g>
     </g>
    </g>
    <g id="ytick_7">
     <g id="line2d_23">
      <g>
       <use xlink:href="#m04ee5a470d" x="222.536648" y="108.019219" style="stroke: #000000; stroke-width: 0.8"/>
      </g>
     </g>
     <g id="text_26">
      <!-- 0.1 -->
      <g transform="translate(229.536648 111.818438) scale(0.1 -0.1)">
       <use xlink:href="#DejaVuSans-30"/>
       <use xlink:href="#DejaVuSans-2e" x="63.623047"/>
       <use xlink:href="#DejaVuSans-31" x="95.410156"/>
      </g>
     </g>
    </g>
    <g id="ytick_8">
     <g id="line2d_24">
      <g>
       <use xlink:href="#m04ee5a470d" x="222.536648" y="94.159219" style="stroke: #000000; stroke-width: 0.8"/>
      </g>
     </g>
     <g id="text_27">
      <!-- 0.2 -->
      <g transform="translate(229.536648 97.958438) scale(0.1 -0.1)">
       <use xlink:href="#DejaVuSans-30"/>
       <use xlink:href="#DejaVuSans-2e" x="63.623047"/>
       <use xlink:href="#DejaVuSans-32" x="95.410156"/>
      </g>
     </g>
    </g>
    <g id="ytick_9">
     <g id="line2d_25">
      <g>
       <use xlink:href="#m04ee5a470d" x="222.536648" y="80.299219" style="stroke: #000000; stroke-width: 0.8"/>
      </g>
     </g>
     <g id="text_28">
      <!-- 0.3 -->
      <g transform="translate(229.536648 84.098438) scale(0.1 -0.1)">
       <defs>
        <path id="DejaVuSans-33" d="M 2597 2516 
Q 3050 2419 3304 2112 
Q 3559 1806 3559 1356 
Q 3559 666 3084 287 
Q 2609 -91 1734 -91 
Q 1441 -91 1130 -33 
Q 819 25 488 141 
L 488 750 
Q 750 597 1062 519 
Q 1375 441 1716 441 
Q 2309 441 2620 675 
Q 2931 909 2931 1356 
Q 2931 1769 2642 2001 
Q 2353 2234 1838 2234 
L 1294 2234 
L 1294 2753 
L 1863 2753 
Q 2328 2753 2575 2939 
Q 2822 3125 2822 3475 
Q 2822 3834 2567 4026 
Q 2313 4219 1838 4219 
Q 1578 4219 1281 4162 
Q 984 4106 628 3988 
L 628 4550 
Q 988 4650 1302 4700 
Q 1616 4750 1894 4750 
Q 2613 4750 3031 4423 
Q 3450 4097 3450 3541 
Q 3450 3153 3228 2886 
Q 3006 2619 2597 2516 
z
" transform="scale(0.015625)"/>
       </defs>
       <use xlink:href="#DejaVuSans-30"/>
       <use xlink:href="#DejaVuSans-2e" x="63.623047"/>
       <use xlink:href="#DejaVuSans-33" x="95.410156"/>
      </g>
     </g>
    </g>
    <g id="ytick_10">
     <g id="line2d_26">
      <g>
       <use xlink:href="#m04ee5a470d" x="222.536648" y="66.439219" style="stroke: #000000; stroke-width: 0.8"/>
      </g>
     </g>
     <g id="text_29">
      <!-- 0.4 -->
      <g transform="translate(229.536648 70.238438) scale(0.1 -0.1)">
       <use xlink:href="#DejaVuSans-30"/>
       <use xlink:href="#DejaVuSans-2e" x="63.623047"/>
       <use xlink:href="#DejaVuSans-34" x="95.410156"/>
      </g>
     </g>
    </g>
    <g id="ytick_11">
     <g id="line2d_27">
      <g>
       <use xlink:href="#m04ee5a470d" x="222.536648" y="52.579219" style="stroke: #000000; stroke-width: 0.8"/>
      </g>
     </g>
     <g id="text_30">
      <!-- 0.5 -->
      <g transform="translate(229.536648 56.378438) scale(0.1 -0.1)">
       <defs>
        <path id="DejaVuSans-35" d="M 691 4666 
L 3169 4666 
L 3169 4134 
L 1269 4134 
L 1269 2991 
Q 1406 3038 1543 3061 
Q 1681 3084 1819 3084 
Q 2600 3084 3056 2656 
Q 3513 2228 3513 1497 
Q 3513 744 3044 326 
Q 2575 -91 1722 -91 
Q 1428 -91 1123 -41 
Q 819 9 494 109 
L 494 744 
Q 775 591 1075 516 
Q 1375 441 1709 441 
Q 2250 441 2565 725 
Q 2881 1009 2881 1497 
Q 2881 1984 2565 2268 
Q 2250 2553 1709 2553 
Q 1456 2553 1204 2497 
Q 953 2441 691 2322 
L 691 4666 
z
" transform="scale(0.015625)"/>
       </defs>
       <use xlink:href="#DejaVuSans-30"/>
       <use xlink:href="#DejaVuSans-2e" x="63.623047"/>
       <use xlink:href="#DejaVuSans-35" x="95.410156"/>
      </g>
     </g>
    </g>
    <g id="ytick_12">
     <g id="line2d_28">
      <g>
       <use xlink:href="#m04ee5a470d" x="222.536648" y="38.719219" style="stroke: #000000; stroke-width: 0.8"/>
      </g>
     </g>
     <g id="text_31">
      <!-- 0.6 -->
      <g transform="translate(229.536648 42.518438) scale(0.1 -0.1)">
       <use xlink:href="#DejaVuSans-30"/>
       <use xlink:href="#DejaVuSans-2e" x="63.623047"/>
       <use xlink:href="#DejaVuSans-36" x="95.410156"/>
      </g>
     </g>
    </g>
    <g id="ytick_13">
     <g id="line2d_29">
      <g>
       <use xlink:href="#m04ee5a470d" x="222.536648" y="24.859219" style="stroke: #000000; stroke-width: 0.8"/>
      </g>
     </g>
     <g id="text_32">
      <!-- 0.7 -->
      <g transform="translate(229.536648 28.658438) scale(0.1 -0.1)">
       <defs>
        <path id="DejaVuSans-37" d="M 525 4666 
L 3525 4666 
L 3525 4397 
L 1831 0 
L 1172 0 
L 2766 4134 
L 525 4134 
L 525 4666 
z
" transform="scale(0.015625)"/>
       </defs>
       <use xlink:href="#DejaVuSans-30"/>
       <use xlink:href="#DejaVuSans-2e" x="63.623047"/>
       <use xlink:href="#DejaVuSans-37" x="95.410156"/>
      </g>
     </g>
    </g>
    <g id="ytick_14">
     <g id="line2d_30">
      <g>
       <use xlink:href="#m04ee5a470d" x="222.536648" y="10.999219" style="stroke: #000000; stroke-width: 0.8"/>
      </g>
     </g>
     <g id="text_33">
      <!-- 0.8 -->
      <g transform="translate(229.536648 14.798438) scale(0.1 -0.1)">
       <use xlink:href="#DejaVuSans-30"/>
       <use xlink:href="#DejaVuSans-2e" x="63.623047"/>
       <use xlink:href="#DejaVuSans-38" x="95.410156"/>
      </g>
     </g>
    </g>
   </g>
   <g id="LineCollection_1"/>
   <g id="patch_4">
    <path d="M 216.992648 121.879219 
L 219.764648 121.879219 
L 222.536648 121.879219 
L 222.536648 10.999219 
L 219.764648 10.999219 
L 216.992648 10.999219 
L 216.992648 121.879219 
z
" style="fill: none; stroke: #000000; stroke-width: 0.8; stroke-linejoin: miter; stroke-linecap: square"/>
   </g>
  </g>
 </g>
 <defs>
  <clipPath id="p36863e23b1">
   <rect x="27.272648" y="26.841084" width="178.56" height="156.812269"/>
  </clipPath>
  <clipPath id="p281c33af72">
   <rect x="216.992648" y="10.999219" width="5.544" height="110.88"/>
  </clipPath>
 </defs>
</svg>
