<?xml version="1.0" encoding="utf-8" standalone="no"?>
<!DOCTYPE svg PUBLIC "-//W3C//DTD SVG 1.1//EN"
  "http://www.w3.org/Graphics/SVG/1.1/DTD/svg11.dtd">
<svg xmlns:xlink="http://www.w3.org/1999/xlink" width="259.002273pt" height="211.269683pt" viewBox="0 0 259.002273 211.269683" xmlns="http://www.w3.org/2000/svg" version="1.1">
 <metadata>
  <rdf:RDF xmlns:dc="http://purl.org/dc/elements/1.1/" xmlns:cc="http://creativecommons.org/ns#" xmlns:rdf="http://www.w3.org/1999/02/22-rdf-syntax-ns#">
   <cc:Work>
    <dc:type rdf:resource="http://purl.org/dc/dcmitype/StillImage"/>
    <dc:date>2024-01-12T09:43:11.857812</dc:date>
    <dc:format>image/svg+xml</dc:format>
    <dc:creator>
     <cc:Agent>
      <dc:title>Matplotlib v3.7.0, https://matplotlib.org/</dc:title>
     </cc:Agent>
    </dc:creator>
   </cc:Work>
  </rdf:RDF>
 </metadata>
 <defs>
  <style type="text/css">*{stroke-linejoin: round; stroke-linecap: butt}</style>
 </defs>
 <g id="figure_1">
  <g id="patch_1">
   <path d="M 0 211.269683 
L 259.002273 211.269683 
L 259.002273 0 
L 0 0 
z
" style="fill: #ffffff"/>
  </g>
  <g id="axes_1">
   <g id="patch_2">
    <path d="M 27.272648 183.653353 
L 205.832648 183.653353 
L 205.832648 26.841084 
L 27.272648 26.841084 
z
" style="fill: #ffffff"/>
   </g>
   <g id="PathCollection_1">
    <defs>
     <path id="m07a7c262e1" d="M 183.154573 -60.954317 
L 182.643037 -56.819624 
L 179.483045 -53.255636 
L 177.745758 -49.790647 
L 176.392383 -44.550864 
L 175.058102 -42.76167 
L 171.772907 -38.494077 
L 167.218433 -39.140682 
L 164.390818 -37.222278 
L 162.083468 -35.732693 
L 165.25083 -35.732693 
L 173.367193 -35.732693 
L 181.483557 -35.732693 
L 189.59992 -35.732693 
L 197.716284 -35.732693 
L 193.658102 -42.76167 
L 189.59992 -49.790647 
L 185.541739 -56.819624 
M 166.105184 -90.484725 
L 167.436004 -84.935533 
L 168.357875 -83.288116 
L 170.55352 -77.906556 
L 172.312066 -76.079022 
L 176.072648 -73.220571 
L 173.367193 -77.906556 
L 169.309011 -84.935533 
M 157.35992 -105.631965 
L 158.93071 -98.993487 
L 160.602997 -97.972183 
L 164.477843 -93.303363 
L 161.192648 -98.993487 
M 93.942778 -137.150791 
L 98.798102 -136.774239 
L 102.638881 -138.154931 
L 104.957843 -134.138373 
L 107.499781 -132.516301 
L 110.059557 -131.326782 
L 114.180172 -130.029124 
L 120.40792 -127.460844 
L 120.7584 -127.364995 
L 121.19057 -127.109395 
L 124.958881 -120.582488 
L 125.374782 -120.080418 
L 131.746085 -118.280314 
L 135.088667 -116.090999 
L 138.698726 -116.264688 
L 142.03803 -113.051441 
L 144.398018 -112.078198 
L 146.699141 -110.039022 
L 149.992066 -107.709419 
L 157.03041 -106.202694 
L 153.076284 -113.051441 
L 149.018102 -120.080418 
L 144.95992 -127.109395 
L 140.901739 -134.138373 
L 136.843557 -141.16735 
L 132.785375 -148.196327 
L 128.727193 -155.225304 
L 124.669011 -162.254281 
L 120.61083 -169.283258 
L 116.552648 -176.312235 
L 112.494466 -169.283258 
L 108.436284 -162.254281 
L 104.378102 -155.225304 
L 100.31992 -148.196327 
L 96.261739 -141.16735 
M 46.43396 -35.732693 
L 44.317011 -37.138489 
L 40.918581 -42.76167 
L 40.407526 -44.425016 
L 39.447193 -42.76167 
L 35.389011 -35.732693 
L 43.505375 -35.732693 
" style="stroke: #088466"/>
    </defs>
    <g clip-path="url(#p77a4fa53b2)">
     <use xlink:href="#m07a7c262e1" x="0" y="211.269683" style="fill: #088466; stroke: #088466"/>
    </g>
   </g>
   <g id="PathCollection_2">
    <defs>
     <path id="m2272a39800" d="M 176.072648 -73.220571 
L 172.312066 -76.079022 
L 170.55352 -77.906556 
L 168.357875 -83.288116 
L 167.436004 -84.935533 
L 166.105184 -90.484725 
L 165.25083 -91.96451 
L 164.477843 -93.303363 
L 160.602997 -97.972183 
L 158.93071 -98.993487 
L 157.35992 -105.631965 
L 157.134466 -106.022464 
L 157.03041 -106.202694 
L 149.992066 -107.709419 
L 146.699141 -110.039022 
L 144.398018 -112.078198 
L 142.03803 -113.051441 
L 138.698726 -116.264688 
L 135.088667 -116.090999 
L 131.746085 -118.280314 
L 125.374782 -120.080418 
L 124.958881 -120.582488 
L 121.19057 -127.109395 
L 120.7584 -127.364995 
L 120.40792 -127.460844 
L 114.180172 -130.029124 
L 110.059557 -131.326782 
L 107.499781 -132.516301 
L 104.957843 -134.138373 
L 102.638881 -138.154931 
L 98.798102 -136.774239 
L 93.942778 -137.150791 
L 92.203557 -134.138373 
L 88.145375 -127.109395 
L 87.232284 -125.527876 
L 88.890755 -125.818359 
L 95.295505 -125.435829 
L 97.002283 -125.826735 
L 103.763226 -126.044399 
L 105.938941 -124.405943 
L 109.96407 -122.726621 
L 115.657461 -121.630928 
L 117.207193 -121.214124 
L 117.861739 -120.080418 
L 121.19057 -114.055581 
L 123.908102 -113.051441 
L 128.084648 -111.93852 
L 129.878021 -111.058149 
L 134.524596 -109.034883 
L 138.196284 -106.022464 
L 139.876514 -104.246723 
L 143.399081 -101.69694 
L 145.693327 -100.263784 
L 147.347086 -98.993487 
L 151.226986 -95.790409 
L 155.685115 -94.474859 
L 157.828172 -93.166044 
L 158.825375 -91.96451 
L 158.757739 -89.152919 
L 158.682432 -84.935533 
L 159.093588 -81.299855 
L 160.986299 -77.906556 
L 163.980086 -75.705563 
L 168.650928 -70.877579 
L 168.592862 -69.637171 
L 169.459314 -63.848602 
L 169.309011 -56.819624 
L 169.309011 -49.790647 
L 167.112819 -46.565587 
L 164.916626 -42.76167 
L 162.240787 -40.946239 
L 158.898893 -38.78877 
L 156.294842 -37.186964 
L 153.32992 -35.732693 
L 157.134466 -35.732693 
L 162.083468 -35.732693 
L 164.390818 -37.222278 
L 167.218433 -39.140682 
L 171.772907 -38.494077 
L 175.058102 -42.76167 
L 176.392383 -44.550864 
L 177.745758 -49.790647 
L 179.483045 -53.255636 
L 182.643037 -56.819624 
L 183.154573 -60.954317 
L 181.483557 -63.848602 
L 177.425375 -70.877579 
M 40.407526 -44.425016 
L 40.918581 -42.76167 
L 44.317011 -37.138489 
L 46.43396 -35.732693 
L 51.621739 -35.732693 
L 53.143557 -35.732693 
L 51.978067 -36.349872 
L 50.685235 -37.354765 
L 46.17218 -40.351735 
L 44.71571 -42.76167 
L 42.885805 -48.717521 
" style="stroke: #1a8d66"/>
    </defs>
    <g clip-path="url(#p77a4fa53b2)">
     <use xlink:href="#m2272a39800" x="0" y="211.269683" style="fill: #1a8d66; stroke: #1a8d66"/>
    </g>
   </g>
   <g id="PathCollection_3">
    <defs>
     <path id="maad36f8305" d="M 83.593631 -119.225543 
L 84.701036 -119.017212 
L 92.203557 -120.080418 
L 99.372024 -121.722223 
L 101.303722 -121.784413 
L 103.566466 -120.080418 
L 106.318972 -116.413126 
L 111.818102 -113.051441 
L 112.40378 -112.894369 
L 112.681049 -112.72827 
L 118.798175 -109.911831 
L 123.700582 -107.699834 
L 125.379193 -107.252535 
L 127.884929 -106.022464 
L 131.754726 -104.237327 
L 136.13436 -98.993487 
L 136.520339 -98.433657 
L 139.878668 -91.96451 
L 140.454145 -91.189255 
L 141.783952 -90.436471 
L 147.368072 -89.106574 
L 151.501467 -84.935533 
L 152.564086 -84.04838 
L 154.162276 -77.906556 
L 156.166459 -76.229919 
L 160.645477 -70.877579 
L 160.58392 -69.823232 
L 161.733739 -63.848602 
L 161.342951 -57.079957 
L 161.390608 -56.819624 
L 161.3814 -56.492695 
L 162.710594 -49.790647 
L 159.92253 -44.961579 
L 156.814083 -42.76167 
L 154.055845 -41.065021 
L 151.322749 -39.724458 
L 147.975218 -37.539022 
L 143.184466 -35.732693 
L 149.018102 -35.732693 
L 153.32992 -35.732693 
L 156.294842 -37.186964 
L 158.898893 -38.78877 
L 162.240787 -40.946239 
L 164.916626 -42.76167 
L 167.112819 -46.565587 
L 169.309011 -49.790647 
L 169.309011 -56.819624 
L 169.459314 -63.848602 
L 168.592862 -69.637171 
L 168.650928 -70.877579 
L 163.980086 -75.705563 
L 160.986299 -77.906556 
L 159.093588 -81.299855 
L 158.682432 -84.935533 
L 158.757739 -89.152919 
L 158.825375 -91.96451 
L 157.828172 -93.166044 
L 155.685115 -94.474859 
L 151.226986 -95.790409 
L 147.347086 -98.993487 
L 145.693327 -100.263784 
L 143.399081 -101.69694 
L 139.876514 -104.246723 
L 138.196284 -106.022464 
L 134.524596 -109.034883 
L 129.878021 -111.058149 
L 128.084648 -111.93852 
L 123.908102 -113.051441 
L 121.19057 -114.055581 
L 117.861739 -120.080418 
L 117.207193 -121.214124 
L 115.657461 -121.630928 
L 109.96407 -122.726621 
L 105.938941 -124.405943 
L 103.763226 -126.044399 
L 97.002283 -125.826735 
L 95.295505 -125.435829 
L 88.890755 -125.818359 
L 87.232284 -125.527876 
L 84.087193 -120.080418 
M 42.885805 -48.717521 
L 44.71571 -42.76167 
L 46.17218 -40.351735 
L 50.685235 -37.354765 
L 51.978067 -36.349872 
L 53.143557 -35.732693 
L 59.738102 -35.732693 
L 59.884343 -35.732693 
L 59.772936 -35.793028 
L 59.66364 -35.861665 
L 53.561748 -39.092887 
L 48.841724 -42.76167 
L 48.077251 -43.651414 
L 45.964879 -49.790647 
L 44.888846 -52.18689 
L 43.505375 -49.790647 
" style="stroke: #2c9666"/>
    </defs>
    <g clip-path="url(#p77a4fa53b2)">
     <use xlink:href="#maad36f8305" x="0" y="211.269683" style="fill: #2c9666; stroke: #2c9666"/>
    </g>
   </g>
   <g id="PathCollection_4">
    <defs>
     <path id="m8ac2375aff" d="M 81.400019 -115.426096 
L 87.429225 -114.291849 
L 88.989155 -114.512912 
L 94.909011 -115.394434 
L 98.106367 -116.246431 
L 100.533509 -113.051441 
L 103.498015 -111.527085 
L 105.493328 -111.119814 
L 110.590068 -109.752927 
L 116.41271 -106.264843 
L 116.633811 -106.163044 
L 116.945375 -106.022464 
L 122.604936 -102.447381 
L 127.948912 -100.34151 
L 129.178102 -99.774484 
L 129.830388 -98.993487 
L 133.64729 -93.45739 
L 134.422289 -91.96451 
L 138.066979 -87.054563 
L 141.810287 -84.935533 
L 144.050328 -83.360072 
L 147.89083 -79.859049 
L 149.412101 -78.588981 
L 149.589677 -77.906556 
L 154.677218 -73.650478 
L 156.997673 -70.877579 
L 156.637546 -64.709293 
L 156.558156 -63.848602 
L 156.627193 -62.969979 
L 157.284769 -56.819624 
L 157.595623 -50.589395 
L 157.754036 -49.790647 
L 157.444251 -49.254084 
L 156.396615 -48.512652 
L 152.268239 -44.161245 
L 149.349382 -42.76167 
L 146.161505 -40.680465 
L 143.089628 -39.522229 
L 139.783484 -37.669567 
L 133.738 -37.382688 
L 132.001942 -37.089639 
L 128.173805 -35.732693 
L 132.785375 -35.732693 
L 140.901739 -35.732693 
L 143.184466 -35.732693 
L 147.975218 -37.539022 
L 151.322749 -39.724458 
L 154.055845 -41.065021 
L 156.814083 -42.76167 
L 159.92253 -44.961579 
L 162.710594 -49.790647 
L 161.3814 -56.492695 
L 161.390608 -56.819624 
L 161.342951 -57.079957 
L 161.733739 -63.848602 
L 160.58392 -69.823232 
L 160.645477 -70.877579 
L 156.166459 -76.229919 
L 154.162276 -77.906556 
L 152.564086 -84.04838 
L 151.501467 -84.935533 
L 147.368072 -89.106574 
L 141.783952 -90.436471 
L 140.454145 -91.189255 
L 139.878668 -91.96451 
L 136.520339 -98.433657 
L 136.13436 -98.993487 
L 131.754726 -104.237327 
L 127.884929 -106.022464 
L 125.379193 -107.252535 
L 123.700582 -107.699834 
L 118.798175 -109.911831 
L 112.681049 -112.72827 
L 112.40378 -112.894369 
L 111.818102 -113.051441 
L 106.318972 -116.413126 
L 103.566466 -120.080418 
L 101.303722 -121.784413 
L 99.372024 -121.722223 
L 92.203557 -120.080418 
L 84.701036 -119.017212 
L 83.593631 -119.225543 
M 44.888846 -52.18689 
L 45.964879 -49.790647 
L 48.077251 -43.651414 
L 48.841724 -42.76167 
L 53.561748 -39.092887 
L 59.66364 -35.861665 
L 59.772936 -35.793028 
L 59.884343 -35.732693 
L 65.733975 -35.732693 
L 61.166304 -38.20641 
L 56.685158 -41.020548 
L 55.145428 -41.835903 
L 53.954394 -42.76167 
L 50.132026 -47.21039 
L 49.244218 -49.790647 
L 46.733474 -55.381879 
" style="stroke: #409f66"/>
    </defs>
    <g clip-path="url(#p77a4fa53b2)">
     <use xlink:href="#m8ac2375aff" x="0" y="211.269683" style="fill: #409f66; stroke: #409f66"/>
    </g>
   </g>
   <g id="PathCollection_5">
    <defs>
     <path id="m603f4722af" d="M 78.676284 -110.708449 
L 81.166819 -111.0807 
L 86.38484 -110.002106 
L 89.843479 -110.110238 
L 94.931187 -110.746859 
L 98.065375 -109.927451 
L 101.542264 -108.139626 
L 107.971607 -106.827309 
L 108.776355 -106.611485 
L 109.759604 -106.022464 
L 113.83543 -101.316106 
L 117.550561 -98.993487 
L 119.988575 -97.915711 
L 121.963557 -96.650495 
L 126.335765 -94.851411 
L 128.329332 -91.96451 
L 131.556952 -89.83682 
L 134.959401 -84.935533 
L 136.167193 -83.764037 
L 140.073538 -79.341041 
L 141.251582 -78.512502 
L 141.916284 -77.906556 
L 146.989011 -74.392067 
L 152.755901 -71.432498 
L 153.187977 -71.071037 
L 153.349869 -70.877579 
L 153.324744 -70.447233 
L 152.71609 -63.848602 
L 153.245375 -57.112499 
L 153.276688 -56.819624 
L 153.295645 -56.43968 
L 153.811978 -49.790647 
L 150.831715 -46.649379 
L 145.815943 -44.244345 
L 144.425428 -43.687438 
L 142.967722 -42.76167 
L 138.340575 -40.168759 
L 135.2622 -40.022679 
L 130.74845 -39.260751 
L 125.665758 -37.459109 
L 124.12792 -36.66989 
L 121.704774 -35.732693 
L 124.669011 -35.732693 
L 128.173805 -35.732693 
L 132.001942 -37.089639 
L 133.738 -37.382688 
L 139.783484 -37.669567 
L 143.089628 -39.522229 
L 146.161505 -40.680465 
L 149.349382 -42.76167 
L 152.268239 -44.161245 
L 156.396615 -48.512652 
L 157.444251 -49.254084 
L 157.754036 -49.790647 
L 157.595623 -50.589395 
L 157.284769 -56.819624 
L 156.627193 -62.969979 
L 156.558156 -63.848602 
L 156.637546 -64.709293 
L 156.997673 -70.877579 
L 154.677218 -73.650478 
L 149.589677 -77.906556 
L 149.412101 -78.588981 
L 147.89083 -79.859049 
L 144.050328 -83.360072 
L 141.810287 -84.935533 
L 138.066979 -87.054563 
L 134.422289 -91.96451 
L 133.64729 -93.45739 
L 129.830388 -98.993487 
L 129.178102 -99.774484 
L 127.948912 -100.34151 
L 122.604936 -102.447381 
L 116.945375 -106.022464 
L 116.633811 -106.163044 
L 116.41271 -106.264843 
L 110.590068 -109.752927 
L 105.493328 -111.119814 
L 103.498015 -111.527085 
L 100.533509 -113.051441 
L 98.106367 -116.246431 
L 94.909011 -115.394434 
L 88.989155 -114.512912 
L 87.429225 -114.291849 
L 81.400019 -115.426096 
L 80.029011 -113.051441 
M 46.733474 -55.381879 
L 49.244218 -49.790647 
L 50.132026 -47.21039 
L 53.954394 -42.76167 
L 55.145428 -41.835903 
L 56.685158 -41.020548 
L 61.166304 -38.20641 
L 65.733975 -35.732693 
L 67.854466 -35.732693 
L 75.116475 -35.732693 
L 68.629624 -37.075307 
L 66.158013 -38.671036 
L 62.559671 -40.619793 
L 59.149011 -42.76167 
L 57.184002 -45.366816 
L 53.216024 -49.790647 
L 52.09412 -50.608835 
L 49.256069 -56.819624 
L 48.708172 -58.802156 
L 47.563557 -56.819624 
" style="stroke: #52a866"/>
    </defs>
    <g clip-path="url(#p77a4fa53b2)">
     <use xlink:href="#m603f4722af" x="0" y="211.269683" style="fill: #52a866; stroke: #52a866"/>
    </g>
   </g>
   <g id="PathCollection_6">
    <defs>
     <path id="mccd00eda94" d="M 75.027066 -104.387818 
L 76.519232 -105.072602 
L 83.994258 -105.861495 
L 84.17058 -105.878033 
L 88.957011 -106.022464 
L 92.145994 -106.122166 
L 92.270084 -106.137693 
L 92.71083 -106.022464 
L 99.31376 -104.279743 
L 101.703392 -103.626222 
L 106.291716 -102.307964 
L 109.085593 -98.993487 
L 111.671067 -97.567318 
L 114.409563 -95.676442 
L 117.824211 -94.166923 
L 121.262143 -91.96451 
L 123.842795 -90.533461 
L 126.331399 -89.08517 
L 129.802063 -86.797262 
L 131.094466 -84.935533 
L 134.779781 -81.360968 
L 137.830682 -77.906556 
L 139.287689 -75.11094 
L 144.260234 -70.877579 
L 144.345044 -69.812582 
L 148.605406 -63.848602 
L 148.91992 -63.678546 
L 149.945098 -56.819624 
L 149.896678 -51.312385 
L 150.014849 -49.790647 
L 149.39519 -49.137512 
L 148.352307 -48.637456 
L 142.841748 -46.430453 
L 137.064912 -42.76167 
L 136.897666 -42.667951 
L 136.786399 -42.662671 
L 129.494957 -41.431864 
L 127.564322 -40.747519 
L 123.097271 -38.455027 
L 116.694684 -35.978707 
L 116.428599 -35.947553 
L 109.344409 -37.305611 
L 107.724712 -36.965171 
L 100.437739 -35.93676 
L 100.208568 -35.925561 
L 92.266183 -35.841165 
L 92.125214 -35.868388 
L 84.754657 -36.888775 
L 83.443037 -36.848404 
L 76.856686 -37.267042 
L 74.540804 -38.209571 
L 69.845559 -39.181367 
L 64.300058 -42.76167 
L 63.915254 -42.967731 
L 61.873987 -46.091186 
L 59.454313 -49.299111 
L 59.013427 -49.790647 
L 53.811869 -53.584064 
L 52.333363 -56.819624 
L 50.789291 -62.40676 
L 48.708172 -58.802156 
L 49.256069 -56.819624 
L 52.09412 -50.608835 
L 53.216024 -49.790647 
L 57.184002 -45.366816 
L 59.149011 -42.76167 
L 62.559671 -40.619793 
L 66.158013 -38.671036 
L 68.629624 -37.075307 
L 75.116475 -35.732693 
L 75.97083 -35.732693 
L 84.087193 -35.732693 
L 92.203557 -35.732693 
L 100.31992 -35.732693 
L 108.436284 -35.732693 
L 116.552648 -35.732693 
L 121.704774 -35.732693 
L 124.12792 -36.66989 
L 125.665758 -37.459109 
L 130.74845 -39.260751 
L 135.2622 -40.022679 
L 138.340575 -40.168759 
L 142.967722 -42.76167 
L 144.425428 -43.687438 
L 145.815943 -44.244345 
L 150.831715 -46.649379 
L 153.811978 -49.790647 
L 153.295645 -56.43968 
L 153.276688 -56.819624 
L 153.245375 -57.112499 
L 152.71609 -63.848602 
L 153.324744 -70.447233 
L 153.349869 -70.877579 
L 153.187977 -71.071037 
L 152.755901 -71.432498 
L 146.989011 -74.392067 
L 141.916284 -77.906556 
L 141.251582 -78.512502 
L 140.073538 -79.341041 
L 136.167193 -83.764037 
L 134.959401 -84.935533 
L 131.556952 -89.83682 
L 128.329332 -91.96451 
L 126.335765 -94.851411 
L 121.963557 -96.650495 
L 119.988575 -97.915711 
L 117.550561 -98.993487 
L 113.83543 -101.316106 
L 109.759604 -106.022464 
L 108.776355 -106.611485 
L 107.971607 -106.827309 
L 101.542264 -108.139626 
L 98.065375 -109.927451 
L 94.931187 -110.746859 
L 89.843479 -110.110238 
L 86.38484 -110.002106 
L 81.166819 -111.0807 
L 78.676284 -110.708449 
L 75.97083 -106.022464 
" style="stroke: #64b166"/>
    </defs>
    <g clip-path="url(#p77a4fa53b2)">
     <use xlink:href="#mccd00eda94" x="0" y="211.269683" style="fill: #64b166; stroke: #64b166"/>
    </g>
   </g>
   <g id="PathCollection_7">
    <defs>
     <path id="m45136fbcf9" d="M 71.228135 -97.807876 
L 72.589011 -97.821991 
L 73.745375 -98.993487 
L 78.712844 -101.273155 
L 81.515979 -101.56899 
L 86.394242 -102.026539 
L 89.958605 -102.134094 
L 95.760166 -99.862237 
L 96.630664 -99.632485 
L 98.967193 -98.993487 
L 103.740388 -97.888933 
L 105.212495 -97.548277 
L 110.102687 -94.850805 
L 114.282817 -91.96451 
L 115.629062 -90.364812 
L 118.109857 -89.267344 
L 121.898756 -87.166286 
L 125.731869 -84.935533 
L 127.834969 -83.390155 
L 130.633309 -81.634044 
L 133.392368 -78.957898 
L 134.320903 -77.906556 
L 137.443061 -71.91595 
L 138.662742 -70.877579 
L 138.953811 -67.222511 
L 139.775769 -63.848602 
L 139.064071 -60.665669 
L 142.400144 -61.253287 
L 146.301739 -59.143722 
L 146.649113 -56.819624 
L 146.623775 -53.937744 
L 142.79907 -49.790647 
L 141.258067 -49.173469 
L 140.13282 -48.458841 
L 134.746376 -46.394095 
L 129.948588 -44.877188 
L 128.211605 -43.654696 
L 126.97992 -42.76167 
L 122.066622 -40.240164 
L 118.317957 -38.790298 
L 115.010893 -38.403091 
L 110.479564 -39.271759 
L 106.835248 -38.505769 
L 101.485011 -37.75069 
L 99.218767 -37.639946 
L 93.268203 -37.576715 
L 90.871721 -38.0395 
L 85.8226 -38.738506 
L 82.412388 -38.633541 
L 77.814369 -38.925798 
L 72.99483 -40.887276 
L 71.061493 -41.287428 
L 68.778052 -42.76167 
L 64.97276 -44.799387 
L 61.71083 -49.790647 
L 60.734849 -51.517063 
L 56.048846 -56.180627 
L 55.529617 -56.559292 
L 55.410657 -56.819624 
L 55.163425 -57.714222 
L 53.926978 -63.848602 
L 53.629911 -67.326858 
L 51.621739 -63.848602 
L 50.789291 -62.40676 
L 52.333363 -56.819624 
L 53.811869 -53.584064 
L 59.013427 -49.790647 
L 59.454313 -49.299111 
L 61.873987 -46.091186 
L 63.915254 -42.967731 
L 64.300058 -42.76167 
L 69.845559 -39.181367 
L 74.540804 -38.209571 
L 76.856686 -37.267042 
L 83.443037 -36.848404 
L 84.754657 -36.888775 
L 92.125214 -35.868388 
L 92.266183 -35.841165 
L 100.208568 -35.925561 
L 100.437739 -35.93676 
L 107.724712 -36.965171 
L 109.344409 -37.305611 
L 116.428599 -35.947553 
L 116.694684 -35.978707 
L 123.097271 -38.455027 
L 127.564322 -40.747519 
L 129.494957 -41.431864 
L 136.786399 -42.662671 
L 136.897666 -42.667951 
L 137.064912 -42.76167 
L 142.841748 -46.430453 
L 148.352307 -48.637456 
L 149.39519 -49.137512 
L 150.014849 -49.790647 
L 149.896678 -51.312385 
L 149.945098 -56.819624 
L 148.91992 -63.678546 
L 148.605406 -63.848602 
L 144.345044 -69.812582 
L 144.260234 -70.877579 
L 139.287689 -75.11094 
L 137.830682 -77.906556 
L 134.779781 -81.360968 
L 131.094466 -84.935533 
L 129.802063 -86.797262 
L 126.331399 -89.08517 
L 123.842795 -90.533461 
L 121.262143 -91.96451 
L 117.824211 -94.166923 
L 114.409563 -95.676442 
L 111.671067 -97.567318 
L 109.085593 -98.993487 
L 106.291716 -102.307964 
L 101.703392 -103.626222 
L 99.31376 -104.279743 
L 92.71083 -106.022464 
L 92.270084 -106.137693 
L 92.145994 -106.122166 
L 88.957011 -106.022464 
L 84.17058 -105.878033 
L 83.994258 -105.861495 
L 76.519232 -105.072602 
L 75.027066 -104.387818 
L 71.912648 -98.993487 
" style="stroke: #76ba66"/>
    </defs>
    <g clip-path="url(#p77a4fa53b2)">
     <use xlink:href="#m45136fbcf9" x="0" y="211.269683" style="fill: #76ba66; stroke: #76ba66"/>
    </g>
   </g>
   <g id="PathCollection_8">
    <defs>
     <path id="m5c42133617" d="M 60.396186 -79.04639 
L 64.503046 -83.711385 
L 65.793167 -84.935533 
L 68.275598 -91.235088 
L 75.584336 -91.295084 
L 76.195038 -91.576169 
L 78.225375 -91.96451 
L 82.268008 -95.115431 
L 86.540978 -96.214589 
L 88.849345 -97.774175 
L 94.394975 -95.760158 
L 98.878697 -94.460782 
L 101.421427 -93.872375 
L 108.246649 -92.292967 
L 108.534308 -92.134292 
L 108.780198 -91.96451 
L 113.390065 -86.486755 
L 116.896561 -84.935533 
L 119.946763 -83.785337 
L 122.533126 -81.606017 
L 125.532454 -79.402083 
L 127.915557 -77.906556 
L 129.886674 -72.885858 
L 130.756284 -70.877579 
L 135.061916 -67.791686 
L 136.022537 -63.848602 
L 135.11883 -59.80694 
L 134.504944 -56.819624 
L 132.543095 -50.210288 
L 132.324872 -49.790647 
L 126.881053 -45.959279 
L 122.47083 -42.76167 
L 121.035972 -42.025301 
L 119.94123 -41.601889 
L 113.593188 -40.858628 
L 111.61472 -41.237906 
L 105.945783 -40.046367 
L 102.532284 -39.564619 
L 98.228967 -39.354331 
L 94.270223 -39.312265 
L 89.618229 -40.210613 
L 86.890542 -40.588237 
L 81.381739 -40.418678 
L 78.772052 -40.584553 
L 73.422669 -42.76167 
L 72.482217 -43.748193 
L 71.311436 -43.803 
L 66.030267 -46.631042 
L 63.965375 -49.790647 
L 61.873987 -53.490109 
L 58.528452 -56.819624 
L 58.278581 -61.320636 
L 57.769044 -63.848602 
L 57.427193 -67.851214 
L 57.427193 -70.877579 
L 59.080019 -76.766722 
L 55.67992 -70.877579 
L 53.629911 -67.326858 
L 53.926978 -63.848602 
L 55.163425 -57.714222 
L 55.410657 -56.819624 
L 55.529617 -56.559292 
L 56.048846 -56.180627 
L 60.734849 -51.517063 
L 61.71083 -49.790647 
L 64.97276 -44.799387 
L 68.778052 -42.76167 
L 71.061493 -41.287428 
L 72.99483 -40.887276 
L 77.814369 -38.925798 
L 82.412388 -38.633541 
L 85.8226 -38.738506 
L 90.871721 -38.0395 
L 93.268203 -37.576715 
L 99.218767 -37.639946 
L 101.485011 -37.75069 
L 106.835248 -38.505769 
L 110.479564 -39.271759 
L 115.010893 -38.403091 
L 118.317957 -38.790298 
L 122.066622 -40.240164 
L 126.97992 -42.76167 
L 128.211605 -43.654696 
L 129.948588 -44.877188 
L 134.746376 -46.394095 
L 140.13282 -48.458841 
L 141.258067 -49.173469 
L 142.79907 -49.790647 
L 146.623775 -53.937744 
L 146.649113 -56.819624 
L 146.301739 -59.143722 
L 142.400144 -61.253287 
L 139.064071 -60.665669 
L 139.775769 -63.848602 
L 138.953811 -67.222511 
L 138.662742 -70.877579 
L 137.443061 -71.91595 
L 134.320903 -77.906556 
L 133.392368 -78.957898 
L 130.633309 -81.634044 
L 127.834969 -83.390155 
L 125.731869 -84.935533 
L 121.898756 -87.166286 
L 118.109857 -89.267344 
L 115.629062 -90.364812 
L 114.282817 -91.96451 
L 110.102687 -94.850805 
L 105.212495 -97.548277 
L 103.740388 -97.888933 
L 98.967193 -98.993487 
L 96.630664 -99.632485 
L 95.760166 -99.862237 
L 89.958605 -102.134094 
L 86.394242 -102.026539 
L 81.515979 -101.56899 
L 78.712844 -101.273155 
L 73.745375 -98.993487 
L 72.589011 -97.821991 
L 71.228135 -97.807876 
L 67.854466 -91.96451 
L 63.796284 -84.935533 
" style="stroke: #89c466"/>
    </defs>
    <g clip-path="url(#p77a4fa53b2)">
     <use xlink:href="#m5c42133617" x="0" y="211.269683" style="fill: #89c466; stroke: #89c466"/>
    </g>
   </g>
   <g id="PathCollection_9">
    <defs>
     <path id="m117a77191e" d="M 59.080019 -76.766722 
L 57.427193 -70.877579 
L 57.427193 -67.851214 
L 57.769044 -63.848602 
L 58.278581 -61.320636 
L 58.528452 -56.819624 
L 61.873987 -53.490109 
L 63.965375 -49.790647 
L 66.030267 -46.631042 
L 71.311436 -43.803 
L 72.482217 -43.748193 
L 73.422669 -42.76167 
L 78.772052 -40.584553 
L 81.381739 -40.418678 
L 86.890542 -40.588237 
L 89.618229 -40.210613 
L 94.270223 -39.312265 
L 98.228967 -39.354331 
L 102.532284 -39.564619 
L 105.945783 -40.046367 
L 111.61472 -41.237906 
L 113.593188 -40.858628 
L 119.94123 -41.601889 
L 121.035972 -42.025301 
L 122.47083 -42.76167 
L 126.881053 -45.959279 
L 132.324872 -49.790647 
L 132.543095 -50.210288 
L 134.504944 -56.819624 
L 135.11883 -59.80694 
L 136.022537 -63.848602 
L 135.061916 -67.791686 
L 130.756284 -70.877579 
L 129.886674 -72.885858 
L 127.915557 -77.906556 
L 125.532454 -79.402083 
L 122.533126 -81.606017 
L 119.946763 -83.785337 
L 116.896561 -84.935533 
L 113.390065 -86.486755 
L 108.780198 -91.96451 
L 108.534308 -92.134292 
L 108.246649 -92.292967 
L 101.421427 -93.872375 
L 98.878697 -94.460782 
L 94.394975 -95.760158 
L 88.849345 -97.774175 
L 86.540978 -96.214589 
L 82.268008 -95.115431 
L 78.225375 -91.96451 
L 76.195038 -91.576169 
L 75.584336 -91.295084 
L 68.275598 -91.235088 
L 65.793167 -84.935533 
L 64.503046 -83.711385 
L 60.396186 -79.04639 
L 59.738102 -77.906556 
M 103.579557 -41.378549 
L 97.239167 -41.068715 
L 95.272244 -41.047815 
L 88.364736 -42.381726 
L 87.958485 -42.437967 
L 80.351089 -42.203815 
L 79.729735 -42.243309 
L 78.456073 -42.76167 
L 74.380782 -47.036604 
L 69.307395 -47.2741 
L 67.087774 -48.462697 
L 66.21992 -49.790647 
L 63.013126 -55.463155 
L 61.65013 -56.819624 
L 61.421816 -60.932324 
L 61.238283 -63.848602 
L 61.936284 -67.655964 
L 61.936284 -70.877579 
L 62.544695 -73.045394 
L 63.997754 -77.906556 
L 66.326948 -80.552294 
L 70.946414 -84.935533 
L 71.338377 -85.930199 
L 72.492388 -85.939672 
L 77.98871 -88.469438 
L 82.57587 -89.346822 
L 85.840328 -88.927992 
L 92.055987 -91.96451 
L 92.162147 -92.036234 
L 92.230611 -92.01137 
L 92.392309 -91.96451 
L 99.519716 -90.578514 
L 102.095375 -88.889332 
L 106.076876 -87.877895 
L 108.675001 -84.935533 
L 111.368496 -82.985296 
L 114.332133 -81.7526 
L 117.97916 -80.377348 
L 120.911436 -77.906556 
L 123.22994 -75.414011 
L 125.438209 -70.877579 
L 126.761511 -67.472918 
L 131.625894 -63.848602 
L 132.002217 -62.492132 
L 130.836531 -56.819624 
L 130.1203 -54.406692 
L 127.719843 -49.790647 
L 125.550502 -48.263861 
L 122.518175 -46.06529 
L 119.447814 -44.776072 
L 113.035557 -43.698867 
L 112.143277 -43.369947 
L 110.645168 -42.76167 
L 105.056319 -41.586965 
" style="stroke: #9bcd66"/>
    </defs>
    <g clip-path="url(#p77a4fa53b2)">
     <use xlink:href="#m117a77191e" x="0" y="211.269683" style="fill: #9bcd66; stroke: #9bcd66"/>
    </g>
   </g>
   <g id="PathCollection_10">
    <defs>
     <path id="maa33093ce3" d="M 105.056319 -41.586965 
L 110.645168 -42.76167 
L 112.143277 -43.369947 
L 113.035557 -43.698867 
L 119.447814 -44.776072 
L 122.518175 -46.06529 
L 125.550502 -48.263861 
L 127.719843 -49.790647 
L 130.1203 -54.406692 
L 130.836531 -56.819624 
L 132.002217 -62.492132 
L 131.625894 -63.848602 
L 126.761511 -67.472918 
L 125.438209 -70.877579 
L 123.22994 -75.414011 
L 120.911436 -77.906556 
L 117.97916 -80.377348 
L 114.332133 -81.7526 
L 111.368496 -82.985296 
L 108.675001 -84.935533 
L 106.076876 -87.877895 
L 102.095375 -88.889332 
L 99.519716 -90.578514 
L 92.392309 -91.96451 
L 92.230611 -92.01137 
L 92.162147 -92.036234 
L 92.055987 -91.96451 
L 85.840328 -88.927992 
L 82.57587 -89.346822 
L 77.98871 -88.469438 
L 72.492388 -85.939672 
L 71.338377 -85.930199 
L 70.946414 -84.935533 
L 66.326948 -80.552294 
L 63.997754 -77.906556 
L 62.544695 -73.045394 
L 61.936284 -70.877579 
L 61.936284 -67.655964 
L 61.238283 -63.848602 
L 61.421816 -60.932324 
L 61.65013 -56.819624 
L 63.013126 -55.463155 
L 66.21992 -49.790647 
L 67.087774 -48.462697 
L 69.307395 -47.2741 
L 74.380782 -47.036604 
L 78.456073 -42.76167 
L 79.729735 -42.243309 
L 80.351089 -42.203815 
L 87.958485 -42.437967 
L 88.364736 -42.381726 
L 95.272244 -41.047815 
L 97.239167 -41.068715 
L 103.579557 -41.378549 
M 86.218469 -46.09917 
L 81.772761 -45.781934 
L 77.197722 -49.790647 
L 76.265558 -50.301132 
L 75.463557 -50.66927 
L 68.644554 -51.159121 
L 65.5455 -56.819624 
L 64.663417 -58.321543 
L 64.315577 -63.848602 
L 65.168475 -68.500874 
L 68.686913 -70.877579 
L 69.053474 -75.829813 
L 68.771968 -77.906556 
L 73.49218 -82.199703 
L 78.854275 -84.935533 
L 79.782382 -85.362708 
L 80.336873 -85.468766 
L 84.493011 -84.935533 
L 87.893488 -84.499252 
L 88.432963 -84.437416 
L 88.875848 -84.935533 
L 94.089418 -88.698103 
L 97.995516 -87.938523 
L 102.574466 -84.935533 
L 103.635055 -83.648537 
L 105.864197 -82.361541 
L 109.491881 -79.734902 
L 113.887573 -77.906556 
L 115.748323 -76.513425 
L 119.258102 -73.220571 
L 120.927425 -71.425939 
L 121.194359 -70.877579 
L 122.39643 -67.784829 
L 123.801614 -63.848602 
L 124.207104 -63.048555 
L 126.797428 -56.819624 
L 123.863343 -51.186106 
L 121.24492 -49.790647 
L 117.468213 -48.204842 
L 115.440405 -47.864187 
L 110.582438 -46.0734 
L 104.975819 -43.796946 
L 103.974409 -43.460888 
L 96.285196 -42.8023 
L 96.220747 -42.83267 
L 89.778546 -45.590405 
" style="stroke: #add666"/>
    </defs>
    <g clip-path="url(#p77a4fa53b2)">
     <use xlink:href="#maa33093ce3" x="0" y="211.269683" style="fill: #add666; stroke: #add666"/>
    </g>
   </g>
   <g id="PathCollection_11">
    <defs>
     <path id="m2c4668a74d" d="M 89.778546 -45.590405 
L 96.220747 -42.83267 
L 96.285196 -42.8023 
L 103.974409 -43.460888 
L 104.975819 -43.796946 
L 110.582438 -46.0734 
L 115.440405 -47.864187 
L 117.468213 -48.204842 
L 121.24492 -49.790647 
L 123.863343 -51.186106 
L 126.797428 -56.819624 
L 124.207104 -63.048555 
L 123.801614 -63.848602 
L 122.39643 -67.784829 
L 121.194359 -70.877579 
L 120.927425 -71.425939 
L 119.258102 -73.220571 
L 115.748323 -76.513425 
L 113.887573 -77.906556 
L 109.491881 -79.734902 
L 105.864197 -82.361541 
L 103.635055 -83.648537 
L 102.574466 -84.935533 
L 97.995516 -87.938523 
L 94.089418 -88.698103 
L 88.875848 -84.935533 
L 88.432963 -84.437416 
L 87.893488 -84.499252 
L 84.493011 -84.935533 
L 80.336873 -85.468766 
L 79.782382 -85.362708 
L 78.854275 -84.935533 
L 73.49218 -82.199703 
L 68.771968 -77.906556 
L 69.053474 -75.829813 
L 68.686913 -70.877579 
L 65.168475 -68.500874 
L 64.315577 -63.848602 
L 64.663417 -58.321543 
L 65.5455 -56.819624 
L 68.644554 -51.159121 
L 75.463557 -50.66927 
L 76.265558 -50.301132 
L 77.197722 -49.790647 
L 81.772761 -45.781934 
L 86.218469 -46.09917 
M 86.359775 -49.790647 
L 84.33638 -50.222251 
L 83.781739 -50.31971 
L 78.07927 -53.442574 
L 72.341878 -56.076175 
L 71.517603 -56.135388 
L 71.142993 -56.819624 
L 67.438242 -63.127681 
L 67.392872 -63.848602 
L 67.504119 -64.45542 
L 68.652797 -65.231351 
L 74.674466 -66.093969 
L 74.224868 -70.877579 
L 74.713365 -75.728563 
L 74.418134 -77.906556 
L 75.436219 -78.832529 
L 76.951928 -79.605869 
L 82.269128 -81.055537 
L 85.654491 -80.621195 
L 90.989298 -80.009714 
L 95.368939 -84.935533 
L 95.99915 -85.390349 
L 96.471316 -85.298532 
L 97.024816 -84.935533 
L 101.348755 -79.68855 
L 104.43526 -77.906556 
L 107.53732 -76.349504 
L 111.664383 -72.315324 
L 112.823508 -71.447496 
L 113.430969 -70.877579 
L 117.969183 -66.302112 
L 118.845056 -63.848602 
L 121.567637 -58.476863 
L 122.256805 -56.819624 
L 121.476177 -55.320798 
L 118.976284 -53.988509 
L 114.980559 -52.513584 
L 111.771776 -49.790647 
L 109.021599 -48.776853 
L 107.492521 -48.156002 
L 102.274647 -46.404962 
L 98.161812 -46.052694 
L 92.941408 -48.512652 
L 91.758147 -49.019174 
" style="stroke: #bfdf66"/>
    </defs>
    <g clip-path="url(#p77a4fa53b2)">
     <use xlink:href="#m2c4668a74d" x="0" y="211.269683" style="fill: #bfdf66; stroke: #bfdf66"/>
    </g>
   </g>
   <g id="PathCollection_12">
    <defs>
     <path id="m795088b30a" d="M 91.758147 -49.019174 
L 92.941408 -48.512652 
L 98.161812 -46.052694 
L 102.274647 -46.404962 
L 107.492521 -48.156002 
L 109.021599 -48.776853 
L 111.771776 -49.790647 
L 114.980559 -52.513584 
L 118.976284 -53.988509 
L 121.476177 -55.320798 
L 122.256805 -56.819624 
L 121.567637 -58.476863 
L 118.845056 -63.848602 
L 117.969183 -66.302112 
L 113.430969 -70.877579 
L 112.823508 -71.447496 
L 111.664383 -72.315324 
L 107.53732 -76.349504 
L 104.43526 -77.906556 
L 101.348755 -79.68855 
L 97.024816 -84.935533 
L 96.471316 -85.298532 
L 95.99915 -85.390349 
L 95.368939 -84.935533 
L 90.989298 -80.009714 
L 85.654491 -80.621195 
L 82.269128 -81.055537 
L 76.951928 -79.605869 
L 75.436219 -78.832529 
L 74.418134 -77.906556 
L 74.713365 -75.728563 
L 74.224868 -70.877579 
L 74.674466 -66.093969 
L 68.652797 -65.231351 
L 67.504119 -64.45542 
L 67.392872 -63.848602 
L 67.438242 -63.127681 
L 71.142993 -56.819624 
L 71.517603 -56.135388 
L 72.341878 -56.076175 
L 78.07927 -53.442574 
L 83.781739 -50.31971 
L 84.33638 -50.222251 
L 86.359775 -49.790647 
M 112.586697 -63.848602 
L 111.640112 -58.299409 
L 111.566881 -56.819624 
L 107.017339 -52.248332 
L 101.89083 -49.790647 
L 100.574885 -49.349036 
L 100.038428 -49.303088 
L 99.003753 -49.790647 
L 94.533254 -53.825801 
L 89.376509 -54.687238 
L 87.184227 -55.154867 
L 80.29083 -56.366142 
L 79.892983 -56.584016 
L 79.379702 -56.819624 
L 79.642518 -57.489051 
L 78.660555 -63.848602 
L 78.283993 -67.855119 
L 77.99992 -70.877579 
L 78.301271 -73.870113 
L 82.633516 -75.388713 
L 84.99744 -76.329963 
L 90.840008 -75.544819 
L 94.538401 -73.862487 
L 97.93912 -73.782889 
L 102.372334 -74.351671 
L 105.482544 -72.790528 
L 107.439538 -70.877579 
L 110.010579 -66.57536 
" style="stroke: #d3e966"/>
    </defs>
    <g clip-path="url(#p77a4fa53b2)">
     <use xlink:href="#m795088b30a" x="0" y="211.269683" style="fill: #d3e966; stroke: #d3e966"/>
    </g>
   </g>
   <g id="PathCollection_13">
    <defs>
     <path id="m6837580367" d="M 110.010579 -66.57536 
L 107.439538 -70.877579 
L 105.482544 -72.790528 
L 102.372334 -74.351671 
L 97.93912 -73.782889 
L 94.538401 -73.862487 
L 90.840008 -75.544819 
L 84.99744 -76.329963 
L 82.633516 -75.388713 
L 78.301271 -73.870113 
L 77.99992 -70.877579 
L 78.283993 -67.855119 
L 78.660555 -63.848602 
L 79.642518 -57.489051 
L 79.379702 -56.819624 
L 79.892983 -56.584016 
L 80.29083 -56.366142 
L 87.184227 -55.154867 
L 89.376509 -54.687238 
L 94.533254 -53.825801 
L 99.003753 -49.790647 
L 100.038428 -49.303088 
L 100.574885 -49.349036 
L 101.89083 -49.790647 
L 107.017339 -52.248332 
L 111.566881 -56.819624 
L 111.640112 -58.299409 
L 112.586697 -63.848602 
M 92.203557 -63.848602 
L 85.701243 -61.052986 
L 82.784107 -61.591591 
L 82.435608 -63.848602 
L 82.114466 -67.265465 
L 87.536648 -70.877579 
L 88.031594 -71.074653 
L 88.242771 -71.046274 
L 88.613627 -70.877579 
L 92.203557 -63.848602 
M 105.382985 -56.819624 
L 104.747028 -56.180627 
L 103.726789 -55.691517 
L 102.133151 -56.819624 
L 103.46851 -58.395085 
L 105.477193 -58.723306 
" style="stroke: #e5f266"/>
    </defs>
    <g clip-path="url(#p77a4fa53b2)">
     <use xlink:href="#m6837580367" x="0" y="211.269683" style="fill: #e5f266; stroke: #e5f266"/>
    </g>
   </g>
   <g id="PathCollection_14">
    <defs>
     <path id="m9c00bd744f" d="M 92.203557 -63.848602 
L 88.613627 -70.877579 
L 88.242771 -71.046274 
L 88.031594 -71.074653 
L 87.536648 -70.877579 
L 82.114466 -67.265465 
L 82.435608 -63.848602 
L 82.784107 -61.591591 
L 85.701243 -61.052986 
L 92.203557 -63.848602 
M 105.477193 -58.723306 
L 103.46851 -58.395085 
L 102.133151 -56.819624 
L 103.726789 -55.691517 
L 104.747028 -56.180627 
L 105.382985 -56.819624 
" style="stroke: #f7fb66"/>
    </defs>
    <g clip-path="url(#p77a4fa53b2)">
     <use xlink:href="#m9c00bd744f" x="0" y="211.269683" style="fill: #f7fb66; stroke: #f7fb66"/>
    </g>
   </g>
   <g id="line2d_1">
    <path d="M 35.389011 175.53699 
L 116.552648 34.957448 
" clip-path="url(#p77a4fa53b2)" style="fill: none; stroke: #000000; stroke-linecap: square"/>
   </g>
   <g id="line2d_2">
    <path d="M 116.552648 34.957448 
L 197.716284 175.53699 
" clip-path="url(#p77a4fa53b2)" style="fill: none; stroke: #000000; stroke-linecap: square"/>
   </g>
   <g id="line2d_3">
    <path d="M 35.389011 175.53699 
L 197.716284 175.53699 
" clip-path="url(#p77a4fa53b2)" style="fill: none; stroke: #000000; stroke-linecap: square"/>
   </g>
   <g id="line2d_4">
    <path d="M 197.716284 175.53699 
L 200.063861 179.603112 
" clip-path="url(#p77a4fa53b2)" style="fill: none; stroke: #000000; stroke-linecap: square"/>
   </g>
   <g id="line2d_5">
    <path d="M 165.25083 175.53699 
L 167.598407 179.603112 
" clip-path="url(#p77a4fa53b2)" style="fill: none; stroke: #000000; stroke-linecap: square"/>
   </g>
   <g id="line2d_6">
    <path d="M 132.785375 175.53699 
L 135.132952 179.603112 
" clip-path="url(#p77a4fa53b2)" style="fill: none; stroke: #000000; stroke-linecap: square"/>
   </g>
   <g id="line2d_7">
    <path d="M 100.31992 175.53699 
L 102.667497 179.603112 
" clip-path="url(#p77a4fa53b2)" style="fill: none; stroke: #000000; stroke-linecap: square"/>
   </g>
   <g id="line2d_8">
    <path d="M 67.854466 175.53699 
L 70.202043 179.603112 
" clip-path="url(#p77a4fa53b2)" style="fill: none; stroke: #000000; stroke-linecap: square"/>
   </g>
   <g id="line2d_9">
    <path d="M 35.389011 175.53699 
L 37.736588 179.603112 
" clip-path="url(#p77a4fa53b2)" style="fill: none; stroke: #000000; stroke-linecap: square"/>
   </g>
   <g id="line2d_10">
    <path d="M 35.389011 175.53699 
L 30.693857 175.53699 
" clip-path="url(#p77a4fa53b2)" style="fill: none; stroke: #000000; stroke-linecap: square"/>
   </g>
   <g id="line2d_11">
    <path d="M 51.621739 147.421081 
L 46.926585 147.421081 
" clip-path="url(#p77a4fa53b2)" style="fill: none; stroke: #000000; stroke-linecap: square"/>
   </g>
   <g id="line2d_12">
    <path d="M 67.854466 119.305173 
L 63.159312 119.305173 
" clip-path="url(#p77a4fa53b2)" style="fill: none; stroke: #000000; stroke-linecap: square"/>
   </g>
   <g id="line2d_13">
    <path d="M 84.087193 91.189265 
L 79.392039 91.189265 
" clip-path="url(#p77a4fa53b2)" style="fill: none; stroke: #000000; stroke-linecap: square"/>
   </g>
   <g id="line2d_14">
    <path d="M 100.31992 63.073356 
L 95.624766 63.073356 
" clip-path="url(#p77a4fa53b2)" style="fill: none; stroke: #000000; stroke-linecap: square"/>
   </g>
   <g id="line2d_15">
    <path d="M 116.552648 34.957448 
L 111.857494 34.957448 
" clip-path="url(#p77a4fa53b2)" style="fill: none; stroke: #000000; stroke-linecap: square"/>
   </g>
   <g id="line2d_16">
    <path d="M 116.552648 34.957448 
L 118.900225 30.891325 
" clip-path="url(#p77a4fa53b2)" style="fill: none; stroke: #000000; stroke-linecap: square"/>
   </g>
   <g id="line2d_17">
    <path d="M 132.785375 63.073356 
L 135.132952 59.007234 
" clip-path="url(#p77a4fa53b2)" style="fill: none; stroke: #000000; stroke-linecap: square"/>
   </g>
   <g id="line2d_18">
    <path d="M 149.018102 91.189265 
L 151.365679 87.123142 
" clip-path="url(#p77a4fa53b2)" style="fill: none; stroke: #000000; stroke-linecap: square"/>
   </g>
   <g id="line2d_19">
    <path d="M 165.25083 119.305173 
L 167.598407 115.23905 
" clip-path="url(#p77a4fa53b2)" style="fill: none; stroke: #000000; stroke-linecap: square"/>
   </g>
   <g id="line2d_20">
    <path d="M 181.483557 147.421081 
L 183.831134 143.354959 
" clip-path="url(#p77a4fa53b2)" style="fill: none; stroke: #000000; stroke-linecap: square"/>
   </g>
   <g id="line2d_21">
    <path d="M 197.716284 175.53699 
L 200.063861 171.470867 
" clip-path="url(#p77a4fa53b2)" style="fill: none; stroke: #000000; stroke-linecap: square"/>
   </g>
   <g id="matplotlib.axis_1">
    <g id="xtick_1"/>
    <g id="xtick_2"/>
    <g id="xtick_3"/>
    <g id="xtick_4"/>
    <g id="xtick_5"/>
   </g>
   <g id="matplotlib.axis_2">
    <g id="ytick_1"/>
    <g id="ytick_2"/>
    <g id="ytick_3"/>
    <g id="ytick_4"/>
    <g id="ytick_5"/>
   </g>
   <g id="text_1">
    <!-- 0 -->
    <g transform="translate(198.768602 188.523172) scale(0.12 -0.12)">
     <defs>
      <path id="DejaVuSans-30" d="M 2034 4250 
Q 1547 4250 1301 3770 
Q 1056 3291 1056 2328 
Q 1056 1369 1301 889 
Q 1547 409 2034 409 
Q 2525 409 2770 889 
Q 3016 1369 3016 2328 
Q 3016 3291 2770 3770 
Q 2525 4250 2034 4250 
z
M 2034 4750 
Q 2819 4750 3233 4129 
Q 3647 3509 3647 2328 
Q 3647 1150 3233 529 
Q 2819 -91 2034 -91 
Q 1250 -91 836 529 
Q 422 1150 422 2328 
Q 422 3509 836 4129 
Q 1250 4750 2034 4750 
z
" transform="scale(0.015625)"/>
     </defs>
     <use xlink:href="#DejaVuSans-30"/>
    </g>
   </g>
   <g id="text_2">
    <!-- 20 -->
    <g transform="translate(162.485648 188.523172) scale(0.12 -0.12)">
     <defs>
      <path id="DejaVuSans-32" d="M 1228 531 
L 3431 531 
L 3431 0 
L 469 0 
L 469 531 
Q 828 903 1448 1529 
Q 2069 2156 2228 2338 
Q 2531 2678 2651 2914 
Q 2772 3150 2772 3378 
Q 2772 3750 2511 3984 
Q 2250 4219 1831 4219 
Q 1534 4219 1204 4116 
Q 875 4013 500 3803 
L 500 4441 
Q 881 4594 1212 4672 
Q 1544 4750 1819 4750 
Q 2544 4750 2975 4387 
Q 3406 4025 3406 3419 
Q 3406 3131 3298 2873 
Q 3191 2616 2906 2266 
Q 2828 2175 2409 1742 
Q 1991 1309 1228 531 
z
" transform="scale(0.015625)"/>
     </defs>
     <use xlink:href="#DejaVuSans-32"/>
     <use xlink:href="#DejaVuSans-30" x="63.623047"/>
    </g>
   </g>
   <g id="text_3">
    <!-- 40 -->
    <g transform="translate(130.020193 188.523172) scale(0.12 -0.12)">
     <defs>
      <path id="DejaVuSans-34" d="M 2419 4116 
L 825 1625 
L 2419 1625 
L 2419 4116 
z
M 2253 4666 
L 3047 4666 
L 3047 1625 
L 3713 1625 
L 3713 1100 
L 3047 1100 
L 3047 0 
L 2419 0 
L 2419 1100 
L 313 1100 
L 313 1709 
L 2253 4666 
z
" transform="scale(0.015625)"/>
     </defs>
     <use xlink:href="#DejaVuSans-34"/>
     <use xlink:href="#DejaVuSans-30" x="63.623047"/>
    </g>
   </g>
   <g id="text_4">
    <!-- 60 -->
    <g transform="translate(97.554739 188.523172) scale(0.12 -0.12)">
     <defs>
      <path id="DejaVuSans-36" d="M 2113 2584 
Q 1688 2584 1439 2293 
Q 1191 2003 1191 1497 
Q 1191 994 1439 701 
Q 1688 409 2113 409 
Q 2538 409 2786 701 
Q 3034 994 3034 1497 
Q 3034 2003 2786 2293 
Q 2538 2584 2113 2584 
z
M 3366 4563 
L 3366 3988 
Q 3128 4100 2886 4159 
Q 2644 4219 2406 4219 
Q 1781 4219 1451 3797 
Q 1122 3375 1075 2522 
Q 1259 2794 1537 2939 
Q 1816 3084 2150 3084 
Q 2853 3084 3261 2657 
Q 3669 2231 3669 1497 
Q 3669 778 3244 343 
Q 2819 -91 2113 -91 
Q 1303 -91 875 529 
Q 447 1150 447 2328 
Q 447 3434 972 4092 
Q 1497 4750 2381 4750 
Q 2619 4750 2861 4703 
Q 3103 4656 3366 4563 
z
" transform="scale(0.015625)"/>
     </defs>
     <use xlink:href="#DejaVuSans-36"/>
     <use xlink:href="#DejaVuSans-30" x="63.623047"/>
    </g>
   </g>
   <g id="text_5">
    <!-- 80 -->
    <g transform="translate(65.089284 188.523172) scale(0.12 -0.12)">
     <defs>
      <path id="DejaVuSans-38" d="M 2034 2216 
Q 1584 2216 1326 1975 
Q 1069 1734 1069 1313 
Q 1069 891 1326 650 
Q 1584 409 2034 409 
Q 2484 409 2743 651 
Q 3003 894 3003 1313 
Q 3003 1734 2745 1975 
Q 2488 2216 2034 2216 
z
M 1403 2484 
Q 997 2584 770 2862 
Q 544 3141 544 3541 
Q 544 4100 942 4425 
Q 1341 4750 2034 4750 
Q 2731 4750 3128 4425 
Q 3525 4100 3525 3541 
Q 3525 3141 3298 2862 
Q 3072 2584 2669 2484 
Q 3125 2378 3379 2068 
Q 3634 1759 3634 1313 
Q 3634 634 3220 271 
Q 2806 -91 2034 -91 
Q 1263 -91 848 271 
Q 434 634 434 1313 
Q 434 1759 690 2068 
Q 947 2378 1403 2484 
z
M 1172 3481 
Q 1172 3119 1398 2916 
Q 1625 2713 2034 2713 
Q 2441 2713 2670 2916 
Q 2900 3119 2900 3481 
Q 2900 3844 2670 4047 
Q 2441 4250 2034 4250 
Q 1625 4250 1398 4047 
Q 1172 3844 1172 3481 
z
" transform="scale(0.015625)"/>
     </defs>
     <use xlink:href="#DejaVuSans-38"/>
     <use xlink:href="#DejaVuSans-30" x="63.623047"/>
    </g>
   </g>
   <g id="text_6">
    <!-- 100 -->
    <g transform="translate(28.80633 188.523172) scale(0.12 -0.12)">
     <defs>
      <path id="DejaVuSans-31" d="M 794 531 
L 1825 531 
L 1825 4091 
L 703 3866 
L 703 4441 
L 1819 4666 
L 2450 4666 
L 2450 531 
L 3481 531 
L 3481 0 
L 794 0 
L 794 531 
z
" transform="scale(0.015625)"/>
     </defs>
     <use xlink:href="#DejaVuSans-31"/>
     <use xlink:href="#DejaVuSans-30" x="63.623047"/>
     <use xlink:href="#DejaVuSans-30" x="127.246094"/>
    </g>
   </g>
   <g id="text_7">
    <!-- 0 -->
    <g transform="translate(22.884193 177.971899) scale(0.12 -0.12)">
     <use xlink:href="#DejaVuSans-30"/>
    </g>
   </g>
   <g id="text_8">
    <!-- 20 -->
    <g transform="translate(31.48192 149.85599) scale(0.12 -0.12)">
     <use xlink:href="#DejaVuSans-32"/>
     <use xlink:href="#DejaVuSans-30" x="63.623047"/>
    </g>
   </g>
   <g id="text_9">
    <!-- 40 -->
    <g transform="translate(47.714648 121.740082) scale(0.12 -0.12)">
     <use xlink:href="#DejaVuSans-34"/>
     <use xlink:href="#DejaVuSans-30" x="63.623047"/>
    </g>
   </g>
   <g id="text_10">
    <!-- 60 -->
    <g transform="translate(63.947375 93.624174) scale(0.12 -0.12)">
     <use xlink:href="#DejaVuSans-36"/>
     <use xlink:href="#DejaVuSans-30" x="63.623047"/>
    </g>
   </g>
   <g id="text_11">
    <!-- 80 -->
    <g transform="translate(80.180102 65.508265) scale(0.12 -0.12)">
     <use xlink:href="#DejaVuSans-38"/>
     <use xlink:href="#DejaVuSans-30" x="63.623047"/>
    </g>
   </g>
   <g id="text_12">
    <!-- 100 -->
    <g transform="translate(88.77783 37.392357) scale(0.12 -0.12)">
     <use xlink:href="#DejaVuSans-31"/>
     <use xlink:href="#DejaVuSans-30" x="63.623047"/>
     <use xlink:href="#DejaVuSans-30" x="127.246094"/>
    </g>
   </g>
   <g id="text_13">
    <!-- 0 -->
    <g transform="translate(118.987557 31.710902) scale(0.12 -0.12)">
     <use xlink:href="#DejaVuSans-30"/>
    </g>
   </g>
   <g id="text_14">
    <!-- 20 -->
    <g transform="translate(135.220284 59.826811) scale(0.12 -0.12)">
     <use xlink:href="#DejaVuSans-32"/>
     <use xlink:href="#DejaVuSans-30" x="63.623047"/>
    </g>
   </g>
   <g id="text_15">
    <!-- 40 -->
    <g transform="translate(151.453011 87.942719) scale(0.12 -0.12)">
     <use xlink:href="#DejaVuSans-34"/>
     <use xlink:href="#DejaVuSans-30" x="63.623047"/>
    </g>
   </g>
   <g id="text_16">
    <!-- 60 -->
    <g transform="translate(167.685739 116.058627) scale(0.12 -0.12)">
     <use xlink:href="#DejaVuSans-36"/>
     <use xlink:href="#DejaVuSans-30" x="63.623047"/>
    </g>
   </g>
   <g id="text_17">
    <!-- 80 -->
    <g transform="translate(183.918466 144.174536) scale(0.12 -0.12)">
     <use xlink:href="#DejaVuSans-38"/>
     <use xlink:href="#DejaVuSans-30" x="63.623047"/>
    </g>
   </g>
   <g id="text_18">
    <!-- 100 -->
    <g transform="translate(200.151193 172.290444) scale(0.12 -0.12)">
     <use xlink:href="#DejaVuSans-31"/>
     <use xlink:href="#DejaVuSans-30" x="63.623047"/>
     <use xlink:href="#DejaVuSans-30" x="127.246094"/>
    </g>
   </g>
   <g id="text_19">
    <!-- Au content (at.%) -->
    <g transform="translate(63.54171 201.574058) scale(0.12 -0.12)">
     <defs>
      <path id="DejaVuSans-41" d="M 2188 4044 
L 1331 1722 
L 3047 1722 
L 2188 4044 
z
M 1831 4666 
L 2547 4666 
L 4325 0 
L 3669 0 
L 3244 1197 
L 1141 1197 
L 716 0 
L 50 0 
L 1831 4666 
z
" transform="scale(0.015625)"/>
      <path id="DejaVuSans-75" d="M 544 1381 
L 544 3500 
L 1119 3500 
L 1119 1403 
Q 1119 906 1312 657 
Q 1506 409 1894 409 
Q 2359 409 2629 706 
Q 2900 1003 2900 1516 
L 2900 3500 
L 3475 3500 
L 3475 0 
L 2900 0 
L 2900 538 
Q 2691 219 2414 64 
Q 2138 -91 1772 -91 
Q 1169 -91 856 284 
Q 544 659 544 1381 
z
M 1991 3584 
L 1991 3584 
z
" transform="scale(0.015625)"/>
      <path id="DejaVuSans-20" transform="scale(0.015625)"/>
      <path id="DejaVuSans-63" d="M 3122 3366 
L 3122 2828 
Q 2878 2963 2633 3030 
Q 2388 3097 2138 3097 
Q 1578 3097 1268 2742 
Q 959 2388 959 1747 
Q 959 1106 1268 751 
Q 1578 397 2138 397 
Q 2388 397 2633 464 
Q 2878 531 3122 666 
L 3122 134 
Q 2881 22 2623 -34 
Q 2366 -91 2075 -91 
Q 1284 -91 818 406 
Q 353 903 353 1747 
Q 353 2603 823 3093 
Q 1294 3584 2113 3584 
Q 2378 3584 2631 3529 
Q 2884 3475 3122 3366 
z
" transform="scale(0.015625)"/>
      <path id="DejaVuSans-6f" d="M 1959 3097 
Q 1497 3097 1228 2736 
Q 959 2375 959 1747 
Q 959 1119 1226 758 
Q 1494 397 1959 397 
Q 2419 397 2687 759 
Q 2956 1122 2956 1747 
Q 2956 2369 2687 2733 
Q 2419 3097 1959 3097 
z
M 1959 3584 
Q 2709 3584 3137 3096 
Q 3566 2609 3566 1747 
Q 3566 888 3137 398 
Q 2709 -91 1959 -91 
Q 1206 -91 779 398 
Q 353 888 353 1747 
Q 353 2609 779 3096 
Q 1206 3584 1959 3584 
z
" transform="scale(0.015625)"/>
      <path id="DejaVuSans-6e" d="M 3513 2113 
L 3513 0 
L 2938 0 
L 2938 2094 
Q 2938 2591 2744 2837 
Q 2550 3084 2163 3084 
Q 1697 3084 1428 2787 
Q 1159 2491 1159 1978 
L 1159 0 
L 581 0 
L 581 3500 
L 1159 3500 
L 1159 2956 
Q 1366 3272 1645 3428 
Q 1925 3584 2291 3584 
Q 2894 3584 3203 3211 
Q 3513 2838 3513 2113 
z
" transform="scale(0.015625)"/>
      <path id="DejaVuSans-74" d="M 1172 4494 
L 1172 3500 
L 2356 3500 
L 2356 3053 
L 1172 3053 
L 1172 1153 
Q 1172 725 1289 603 
Q 1406 481 1766 481 
L 2356 481 
L 2356 0 
L 1766 0 
Q 1100 0 847 248 
Q 594 497 594 1153 
L 594 3053 
L 172 3053 
L 172 3500 
L 594 3500 
L 594 4494 
L 1172 4494 
z
" transform="scale(0.015625)"/>
      <path id="DejaVuSans-65" d="M 3597 1894 
L 3597 1613 
L 953 1613 
Q 991 1019 1311 708 
Q 1631 397 2203 397 
Q 2534 397 2845 478 
Q 3156 559 3463 722 
L 3463 178 
Q 3153 47 2828 -22 
Q 2503 -91 2169 -91 
Q 1331 -91 842 396 
Q 353 884 353 1716 
Q 353 2575 817 3079 
Q 1281 3584 2069 3584 
Q 2775 3584 3186 3129 
Q 3597 2675 3597 1894 
z
M 3022 2063 
Q 3016 2534 2758 2815 
Q 2500 3097 2075 3097 
Q 1594 3097 1305 2825 
Q 1016 2553 972 2059 
L 3022 2063 
z
" transform="scale(0.015625)"/>
      <path id="DejaVuSans-28" d="M 1984 4856 
Q 1566 4138 1362 3434 
Q 1159 2731 1159 2009 
Q 1159 1288 1364 580 
Q 1569 -128 1984 -844 
L 1484 -844 
Q 1016 -109 783 600 
Q 550 1309 550 2009 
Q 550 2706 781 3412 
Q 1013 4119 1484 4856 
L 1984 4856 
z
" transform="scale(0.015625)"/>
      <path id="DejaVuSans-61" d="M 2194 1759 
Q 1497 1759 1228 1600 
Q 959 1441 959 1056 
Q 959 750 1161 570 
Q 1363 391 1709 391 
Q 2188 391 2477 730 
Q 2766 1069 2766 1631 
L 2766 1759 
L 2194 1759 
z
M 3341 1997 
L 3341 0 
L 2766 0 
L 2766 531 
Q 2569 213 2275 61 
Q 1981 -91 1556 -91 
Q 1019 -91 701 211 
Q 384 513 384 1019 
Q 384 1609 779 1909 
Q 1175 2209 1959 2209 
L 2766 2209 
L 2766 2266 
Q 2766 2663 2505 2880 
Q 2244 3097 1772 3097 
Q 1472 3097 1187 3025 
Q 903 2953 641 2809 
L 641 3341 
Q 956 3463 1253 3523 
Q 1550 3584 1831 3584 
Q 2591 3584 2966 3190 
Q 3341 2797 3341 1997 
z
" transform="scale(0.015625)"/>
      <path id="DejaVuSans-2e" d="M 684 794 
L 1344 794 
L 1344 0 
L 684 0 
L 684 794 
z
" transform="scale(0.015625)"/>
      <path id="DejaVuSans-25" d="M 4653 2053 
Q 4381 2053 4226 1822 
Q 4072 1591 4072 1178 
Q 4072 772 4226 539 
Q 4381 306 4653 306 
Q 4919 306 5073 539 
Q 5228 772 5228 1178 
Q 5228 1588 5073 1820 
Q 4919 2053 4653 2053 
z
M 4653 2450 
Q 5147 2450 5437 2106 
Q 5728 1763 5728 1178 
Q 5728 594 5436 251 
Q 5144 -91 4653 -91 
Q 4153 -91 3862 251 
Q 3572 594 3572 1178 
Q 3572 1766 3864 2108 
Q 4156 2450 4653 2450 
z
M 1428 4353 
Q 1159 4353 1004 4120 
Q 850 3888 850 3481 
Q 850 3069 1003 2837 
Q 1156 2606 1428 2606 
Q 1700 2606 1854 2837 
Q 2009 3069 2009 3481 
Q 2009 3884 1853 4118 
Q 1697 4353 1428 4353 
z
M 4250 4750 
L 4750 4750 
L 1831 -91 
L 1331 -91 
L 4250 4750 
z
M 1428 4750 
Q 1922 4750 2215 4408 
Q 2509 4066 2509 3481 
Q 2509 2891 2217 2550 
Q 1925 2209 1428 2209 
Q 931 2209 642 2551 
Q 353 2894 353 3481 
Q 353 4063 643 4406 
Q 934 4750 1428 4750 
z
" transform="scale(0.015625)"/>
      <path id="DejaVuSans-29" d="M 513 4856 
L 1013 4856 
Q 1481 4119 1714 3412 
Q 1947 2706 1947 2009 
Q 1947 1309 1714 600 
Q 1481 -109 1013 -844 
L 513 -844 
Q 928 -128 1133 580 
Q 1338 1288 1338 2009 
Q 1338 2731 1133 3434 
Q 928 4138 513 4856 
z
" transform="scale(0.015625)"/>
     </defs>
     <use xlink:href="#DejaVuSans-41"/>
     <use xlink:href="#DejaVuSans-75" x="68.408203"/>
     <use xlink:href="#DejaVuSans-20" x="131.787109"/>
     <use xlink:href="#DejaVuSans-63" x="163.574219"/>
     <use xlink:href="#DejaVuSans-6f" x="218.554688"/>
     <use xlink:href="#DejaVuSans-6e" x="279.736328"/>
     <use xlink:href="#DejaVuSans-74" x="343.115234"/>
     <use xlink:href="#DejaVuSans-65" x="382.324219"/>
     <use xlink:href="#DejaVuSans-6e" x="443.847656"/>
     <use xlink:href="#DejaVuSans-74" x="507.226562"/>
     <use xlink:href="#DejaVuSans-20" x="546.435547"/>
     <use xlink:href="#DejaVuSans-28" x="578.222656"/>
     <use xlink:href="#DejaVuSans-61" x="617.236328"/>
     <use xlink:href="#DejaVuSans-74" x="678.515625"/>
     <use xlink:href="#DejaVuSans-2e" x="717.724609"/>
     <use xlink:href="#DejaVuSans-25" x="749.511719"/>
     <use xlink:href="#DejaVuSans-29" x="844.53125"/>
    </g>
   </g>
   <g id="text_20">
    <!-- Cu content (at.%) -->
    <g transform="translate(152.067805 50.046277) rotate(-300) scale(0.12 -0.12)">
     <defs>
      <path id="DejaVuSans-43" d="M 4122 4306 
L 4122 3641 
Q 3803 3938 3442 4084 
Q 3081 4231 2675 4231 
Q 1875 4231 1450 3742 
Q 1025 3253 1025 2328 
Q 1025 1406 1450 917 
Q 1875 428 2675 428 
Q 3081 428 3442 575 
Q 3803 722 4122 1019 
L 4122 359 
Q 3791 134 3420 21 
Q 3050 -91 2638 -91 
Q 1578 -91 968 557 
Q 359 1206 359 2328 
Q 359 3453 968 4101 
Q 1578 4750 2638 4750 
Q 3056 4750 3426 4639 
Q 3797 4528 4122 4306 
z
" transform="scale(0.015625)"/>
     </defs>
     <use xlink:href="#DejaVuSans-43"/>
     <use xlink:href="#DejaVuSans-75" x="69.824219"/>
     <use xlink:href="#DejaVuSans-20" x="133.203125"/>
     <use xlink:href="#DejaVuSans-63" x="164.990234"/>
     <use xlink:href="#DejaVuSans-6f" x="219.970703"/>
     <use xlink:href="#DejaVuSans-6e" x="281.152344"/>
     <use xlink:href="#DejaVuSans-74" x="344.53125"/>
     <use xlink:href="#DejaVuSans-65" x="383.740234"/>
     <use xlink:href="#DejaVuSans-6e" x="445.263672"/>
     <use xlink:href="#DejaVuSans-74" x="508.642578"/>
     <use xlink:href="#DejaVuSans-20" x="547.851562"/>
     <use xlink:href="#DejaVuSans-28" x="579.638672"/>
     <use xlink:href="#DejaVuSans-61" x="618.652344"/>
     <use xlink:href="#DejaVuSans-74" x="679.931641"/>
     <use xlink:href="#DejaVuSans-2e" x="719.140625"/>
     <use xlink:href="#DejaVuSans-25" x="750.927734"/>
     <use xlink:href="#DejaVuSans-29" x="845.947266"/>
    </g>
   </g>
   <g id="text_21">
    <!-- Pd content (at.%) -->
    <g transform="translate(28.223897 141.522105) rotate(-60) scale(0.12 -0.12)">
     <defs>
      <path id="DejaVuSans-50" d="M 1259 4147 
L 1259 2394 
L 2053 2394 
Q 2494 2394 2734 2622 
Q 2975 2850 2975 3272 
Q 2975 3691 2734 3919 
Q 2494 4147 2053 4147 
L 1259 4147 
z
M 628 4666 
L 2053 4666 
Q 2838 4666 3239 4311 
Q 3641 3956 3641 3272 
Q 3641 2581 3239 2228 
Q 2838 1875 2053 1875 
L 1259 1875 
L 1259 0 
L 628 0 
L 628 4666 
z
" transform="scale(0.015625)"/>
      <path id="DejaVuSans-64" d="M 2906 2969 
L 2906 4863 
L 3481 4863 
L 3481 0 
L 2906 0 
L 2906 525 
Q 2725 213 2448 61 
Q 2172 -91 1784 -91 
Q 1150 -91 751 415 
Q 353 922 353 1747 
Q 353 2572 751 3078 
Q 1150 3584 1784 3584 
Q 2172 3584 2448 3432 
Q 2725 3281 2906 2969 
z
M 947 1747 
Q 947 1113 1208 752 
Q 1469 391 1925 391 
Q 2381 391 2643 752 
Q 2906 1113 2906 1747 
Q 2906 2381 2643 2742 
Q 2381 3103 1925 3103 
Q 1469 3103 1208 2742 
Q 947 2381 947 1747 
z
" transform="scale(0.015625)"/>
     </defs>
     <use xlink:href="#DejaVuSans-50"/>
     <use xlink:href="#DejaVuSans-64" x="60.302734"/>
     <use xlink:href="#DejaVuSans-20" x="123.779297"/>
     <use xlink:href="#DejaVuSans-63" x="155.566406"/>
     <use xlink:href="#DejaVuSans-6f" x="210.546875"/>
     <use xlink:href="#DejaVuSans-6e" x="271.728516"/>
     <use xlink:href="#DejaVuSans-74" x="335.107422"/>
     <use xlink:href="#DejaVuSans-65" x="374.316406"/>
     <use xlink:href="#DejaVuSans-6e" x="435.839844"/>
     <use xlink:href="#DejaVuSans-74" x="499.21875"/>
     <use xlink:href="#DejaVuSans-20" x="538.427734"/>
     <use xlink:href="#DejaVuSans-28" x="570.214844"/>
     <use xlink:href="#DejaVuSans-61" x="609.228516"/>
     <use xlink:href="#DejaVuSans-74" x="670.507812"/>
     <use xlink:href="#DejaVuSans-2e" x="709.716797"/>
     <use xlink:href="#DejaVuSans-25" x="741.503906"/>
     <use xlink:href="#DejaVuSans-29" x="836.523438"/>
    </g>
   </g>
   <g id="text_22">
    <!-- Au -->
    <g transform="translate(7.2 195.914439) scale(0.14 -0.14)">
     <use xlink:href="#DejaVuSans-41"/>
     <use xlink:href="#DejaVuSans-75" x="68.408203"/>
    </g>
   </g>
   <g id="text_23">
    <!-- Cu -->
    <g transform="translate(207.45592 195.914439) scale(0.14 -0.14)">
     <use xlink:href="#DejaVuSans-43"/>
     <use xlink:href="#DejaVuSans-75" x="69.824219"/>
    </g>
   </g>
   <g id="text_24">
    <!-- Pd -->
    <g transform="translate(107.88796 19.059703) scale(0.14 -0.14)">
     <use xlink:href="#DejaVuSans-50"/>
     <use xlink:href="#DejaVuSans-64" x="60.302734"/>
    </g>
   </g>
  </g>
  <g id="axes_2">
   <g id="patch_3">
    <path d="M 216.992648 121.879219 
L 222.536648 121.879219 
L 222.536648 10.999219 
L 216.992648 10.999219 
z
" style="fill: #ffffff"/>
   </g>
   <g id="QuadMesh_1">
    <path d="M 216.992648 121.879219 
L 222.536648 121.879219 
L 222.536648 113.959219 
L 216.992648 113.959219 
L 216.992648 121.879219 
" clip-path="url(#pcddfabd261)" style="fill: #088466; stroke: #088466"/>
    <path d="M 216.992648 113.959219 
L 222.536648 113.959219 
L 222.536648 106.039219 
L 216.992648 106.039219 
L 216.992648 113.959219 
" clip-path="url(#pcddfabd261)" style="fill: #1a8d66; stroke: #1a8d66"/>
    <path d="M 216.992648 106.039219 
L 222.536648 106.039219 
L 222.536648 98.119219 
L 216.992648 98.119219 
L 216.992648 106.039219 
" clip-path="url(#pcddfabd261)" style="fill: #2c9666; stroke: #2c9666"/>
    <path d="M 216.992648 98.119219 
L 222.536648 98.119219 
L 222.536648 90.199219 
L 216.992648 90.199219 
L 216.992648 98.119219 
" clip-path="url(#pcddfabd261)" style="fill: #409f66; stroke: #409f66"/>
    <path d="M 216.992648 90.199219 
L 222.536648 90.199219 
L 222.536648 82.279219 
L 216.992648 82.279219 
L 216.992648 90.199219 
" clip-path="url(#pcddfabd261)" style="fill: #52a866; stroke: #52a866"/>
    <path d="M 216.992648 82.279219 
L 222.536648 82.279219 
L 222.536648 74.359219 
L 216.992648 74.359219 
L 216.992648 82.279219 
" clip-path="url(#pcddfabd261)" style="fill: #64b166; stroke: #64b166"/>
    <path d="M 216.992648 74.359219 
L 222.536648 74.359219 
L 222.536648 66.439219 
L 216.992648 66.439219 
L 216.992648 74.359219 
" clip-path="url(#pcddfabd261)" style="fill: #76ba66; stroke: #76ba66"/>
    <path d="M 216.992648 66.439219 
L 222.536648 66.439219 
L 222.536648 58.519219 
L 216.992648 58.519219 
L 216.992648 66.439219 
" clip-path="url(#pcddfabd261)" style="fill: #89c466; stroke: #89c466"/>
    <path d="M 216.992648 58.519219 
L 222.536648 58.519219 
L 222.536648 50.599219 
L 216.992648 50.599219 
L 216.992648 58.519219 
" clip-path="url(#pcddfabd261)" style="fill: #9bcd66; stroke: #9bcd66"/>
    <path d="M 216.992648 50.599219 
L 222.536648 50.599219 
L 222.536648 42.679219 
L 216.992648 42.679219 
L 216.992648 50.599219 
" clip-path="url(#pcddfabd261)" style="fill: #add666; stroke: #add666"/>
    <path d="M 216.992648 42.679219 
L 222.536648 42.679219 
L 222.536648 34.759219 
L 216.992648 34.759219 
L 216.992648 42.679219 
" clip-path="url(#pcddfabd261)" style="fill: #bfdf66; stroke: #bfdf66"/>
    <path d="M 216.992648 34.759219 
L 222.536648 34.759219 
L 222.536648 26.839219 
L 216.992648 26.839219 
L 216.992648 34.759219 
" clip-path="url(#pcddfabd261)" style="fill: #d3e966; stroke: #d3e966"/>
    <path d="M 216.992648 26.839219 
L 222.536648 26.839219 
L 222.536648 18.919219 
L 216.992648 18.919219 
L 216.992648 26.839219 
" clip-path="url(#pcddfabd261)" style="fill: #e5f266; stroke: #e5f266"/>
    <path d="M 216.992648 18.919219 
L 222.536648 18.919219 
L 222.536648 10.999219 
L 216.992648 10.999219 
L 216.992648 18.919219 
" clip-path="url(#pcddfabd261)" style="fill: #f7fb66; stroke: #f7fb66"/>
   </g>
   <g id="matplotlib.axis_3"/>
   <g id="matplotlib.axis_4">
    <g id="ytick_6">
     <g id="line2d_22">
      <defs>
       <path id="ma994f6b07d" d="M 0 0 
L 3.5 0 
" style="stroke: #000000; stroke-width: 0.8"/>
      </defs>
      <g>
       <use xlink:href="#ma994f6b07d" x="222.536648" y="121.879219" style="stroke: #000000; stroke-width: 0.8"/>
      </g>
     </g>
     <g id="text_25">
      <!-- 0.00 -->
      <g transform="translate(229.536648 125.678438) scale(0.1 -0.1)">
       <use xlink:href="#DejaVuSans-30"/>
       <use xlink:href="#DejaVuSans-2e" x="63.623047"/>
       <use xlink:href="#DejaVuSans-30" x="95.410156"/>
       <use xlink:href="#DejaVuSans-30" x="159.033203"/>
      </g>
     </g>
    </g>
    <g id="ytick_7">
     <g id="line2d_23">
      <g>
       <use xlink:href="#ma994f6b07d" x="222.536648" y="106.039219" style="stroke: #000000; stroke-width: 0.8"/>
      </g>
     </g>
     <g id="text_26">
      <!-- 0.02 -->
      <g transform="translate(229.536648 109.838438) scale(0.1 -0.1)">
       <use xlink:href="#DejaVuSans-30"/>
       <use xlink:href="#DejaVuSans-2e" x="63.623047"/>
       <use xlink:href="#DejaVuSans-30" x="95.410156"/>
       <use xlink:href="#DejaVuSans-32" x="159.033203"/>
      </g>
     </g>
    </g>
    <g id="ytick_8">
     <g id="line2d_24">
      <g>
       <use xlink:href="#ma994f6b07d" x="222.536648" y="90.199219" style="stroke: #000000; stroke-width: 0.8"/>
      </g>
     </g>
     <g id="text_27">
      <!-- 0.03 -->
      <g transform="translate(229.536648 93.998438) scale(0.1 -0.1)">
       <defs>
        <path id="DejaVuSans-33" d="M 2597 2516 
Q 3050 2419 3304 2112 
Q 3559 1806 3559 1356 
Q 3559 666 3084 287 
Q 2609 -91 1734 -91 
Q 1441 -91 1130 -33 
Q 819 25 488 141 
L 488 750 
Q 750 597 1062 519 
Q 1375 441 1716 441 
Q 2309 441 2620 675 
Q 2931 909 2931 1356 
Q 2931 1769 2642 2001 
Q 2353 2234 1838 2234 
L 1294 2234 
L 1294 2753 
L 1863 2753 
Q 2328 2753 2575 2939 
Q 2822 3125 2822 3475 
Q 2822 3834 2567 4026 
Q 2313 4219 1838 4219 
Q 1578 4219 1281 4162 
Q 984 4106 628 3988 
L 628 4550 
Q 988 4650 1302 4700 
Q 1616 4750 1894 4750 
Q 2613 4750 3031 4423 
Q 3450 4097 3450 3541 
Q 3450 3153 3228 2886 
Q 3006 2619 2597 2516 
z
" transform="scale(0.015625)"/>
       </defs>
       <use xlink:href="#DejaVuSans-30"/>
       <use xlink:href="#DejaVuSans-2e" x="63.623047"/>
       <use xlink:href="#DejaVuSans-30" x="95.410156"/>
       <use xlink:href="#DejaVuSans-33" x="159.033203"/>
      </g>
     </g>
    </g>
    <g id="ytick_9">
     <g id="line2d_25">
      <g>
       <use xlink:href="#ma994f6b07d" x="222.536648" y="74.359219" style="stroke: #000000; stroke-width: 0.8"/>
      </g>
     </g>
     <g id="text_28">
      <!-- 0.05 -->
      <g transform="translate(229.536648 78.158438) scale(0.1 -0.1)">
       <defs>
        <path id="DejaVuSans-35" d="M 691 4666 
L 3169 4666 
L 3169 4134 
L 1269 4134 
L 1269 2991 
Q 1406 3038 1543 3061 
Q 1681 3084 1819 3084 
Q 2600 3084 3056 2656 
Q 3513 2228 3513 1497 
Q 3513 744 3044 326 
Q 2575 -91 1722 -91 
Q 1428 -91 1123 -41 
Q 819 9 494 109 
L 494 744 
Q 775 591 1075 516 
Q 1375 441 1709 441 
Q 2250 441 2565 725 
Q 2881 1009 2881 1497 
Q 2881 1984 2565 2268 
Q 2250 2553 1709 2553 
Q 1456 2553 1204 2497 
Q 953 2441 691 2322 
L 691 4666 
z
" transform="scale(0.015625)"/>
       </defs>
       <use xlink:href="#DejaVuSans-30"/>
       <use xlink:href="#DejaVuSans-2e" x="63.623047"/>
       <use xlink:href="#DejaVuSans-30" x="95.410156"/>
       <use xlink:href="#DejaVuSans-35" x="159.033203"/>
      </g>
     </g>
    </g>
    <g id="ytick_10">
     <g id="line2d_26">
      <g>
       <use xlink:href="#ma994f6b07d" x="222.536648" y="58.519219" style="stroke: #000000; stroke-width: 0.8"/>
      </g>
     </g>
     <g id="text_29">
      <!-- 0.06 -->
      <g transform="translate(229.536648 62.318438) scale(0.1 -0.1)">
       <use xlink:href="#DejaVuSans-30"/>
       <use xlink:href="#DejaVuSans-2e" x="63.623047"/>
       <use xlink:href="#DejaVuSans-30" x="95.410156"/>
       <use xlink:href="#DejaVuSans-36" x="159.033203"/>
      </g>
     </g>
    </g>
    <g id="ytick_11">
     <g id="line2d_27">
      <g>
       <use xlink:href="#ma994f6b07d" x="222.536648" y="42.679219" style="stroke: #000000; stroke-width: 0.8"/>
      </g>
     </g>
     <g id="text_30">
      <!-- 0.08 -->
      <g transform="translate(229.536648 46.478438) scale(0.1 -0.1)">
       <use xlink:href="#DejaVuSans-30"/>
       <use xlink:href="#DejaVuSans-2e" x="63.623047"/>
       <use xlink:href="#DejaVuSans-30" x="95.410156"/>
       <use xlink:href="#DejaVuSans-38" x="159.033203"/>
      </g>
     </g>
    </g>
    <g id="ytick_12">
     <g id="line2d_28">
      <g>
       <use xlink:href="#ma994f6b07d" x="222.536648" y="26.839219" style="stroke: #000000; stroke-width: 0.8"/>
      </g>
     </g>
     <g id="text_31">
      <!-- 0.10 -->
      <g transform="translate(229.536648 30.638438) scale(0.1 -0.1)">
       <use xlink:href="#DejaVuSans-30"/>
       <use xlink:href="#DejaVuSans-2e" x="63.623047"/>
       <use xlink:href="#DejaVuSans-31" x="95.410156"/>
       <use xlink:href="#DejaVuSans-30" x="159.033203"/>
      </g>
     </g>
    </g>
    <g id="ytick_13">
     <g id="line2d_29">
      <g>
       <use xlink:href="#ma994f6b07d" x="222.536648" y="10.999219" style="stroke: #000000; stroke-width: 0.8"/>
      </g>
     </g>
     <g id="text_32">
      <!-- 0.11 -->
      <g transform="translate(229.536648 14.798438) scale(0.1 -0.1)">
       <use xlink:href="#DejaVuSans-30"/>
       <use xlink:href="#DejaVuSans-2e" x="63.623047"/>
       <use xlink:href="#DejaVuSans-31" x="95.410156"/>
       <use xlink:href="#DejaVuSans-31" x="159.033203"/>
      </g>
     </g>
    </g>
   </g>
   <g id="LineCollection_1"/>
   <g id="patch_4">
    <path d="M 216.992648 121.879219 
L 219.764648 121.879219 
L 222.536648 121.879219 
L 222.536648 10.999219 
L 219.764648 10.999219 
L 216.992648 10.999219 
L 216.992648 121.879219 
z
" style="fill: none; stroke: #000000; stroke-width: 0.8; stroke-linejoin: miter; stroke-linecap: square"/>
   </g>
  </g>
 </g>
 <defs>
  <clipPath id="p77a4fa53b2">
   <rect x="27.272648" y="26.841084" width="178.56" height="156.812269"/>
  </clipPath>
  <clipPath id="pcddfabd261">
   <rect x="216.992648" y="10.999219" width="5.544" height="110.88"/>
  </clipPath>
 </defs>
</svg>
