<?xml version="1.0" encoding="utf-8" standalone="no"?>
<!DOCTYPE svg PUBLIC "-//W3C//DTD SVG 1.1//EN"
  "http://www.w3.org/Graphics/SVG/1.1/DTD/svg11.dtd">
<svg xmlns:xlink="http://www.w3.org/1999/xlink" width="259.002273pt" height="210.047792pt" viewBox="0 0 259.002273 210.047792" xmlns="http://www.w3.org/2000/svg" version="1.1">
 <metadata>
  <rdf:RDF xmlns:dc="http://purl.org/dc/elements/1.1/" xmlns:cc="http://creativecommons.org/ns#" xmlns:rdf="http://www.w3.org/1999/02/22-rdf-syntax-ns#">
   <cc:Work>
    <dc:type rdf:resource="http://purl.org/dc/dcmitype/StillImage"/>
    <dc:date>2024-01-12T09:43:12.073341</dc:date>
    <dc:format>image/svg+xml</dc:format>
    <dc:creator>
     <cc:Agent>
      <dc:title>Matplotlib v3.7.0, https://matplotlib.org/</dc:title>
     </cc:Agent>
    </dc:creator>
   </cc:Work>
  </rdf:RDF>
 </metadata>
 <defs>
  <style type="text/css">*{stroke-linejoin: round; stroke-linecap: butt}</style>
 </defs>
 <g id="figure_1">
  <g id="patch_1">
   <path d="M 0 210.047792 
L 259.002273 210.047792 
L 259.002273 0 
L 0 0 
z
" style="fill: #ffffff"/>
  </g>
  <g id="axes_1">
   <g id="patch_2">
    <path d="M 27.272648 182.431462 
L 205.832648 182.431462 
L 205.832648 25.619193 
L 27.272648 25.619193 
z
" style="fill: #ffffff"/>
   </g>
   <g id="PathCollection_1">
    <defs>
     <path id="m81394e0a04" d="M 86.211949 -123.760603 
L 89.820023 -124.208821 
L 94.375091 -123.841626 
L 97.783928 -124.472886 
L 102.929239 -124.59989 
L 108.124644 -120.620195 
L 108.627109 -120.410936 
L 110.119145 -120.080418 
L 115.582781 -118.40056 
L 118.608789 -113.051441 
L 120.190486 -112.323385 
L 121.351898 -111.767873 
L 127.096354 -110.226745 
L 131.646181 -107.995606 
L 133.46986 -107.208027 
L 134.882844 -106.022464 
L 138.626079 -102.080907 
L 142.761876 -98.993487 
L 143.716814 -96.840364 
L 147.284831 -94.966624 
L 149.627041 -93.019223 
L 153.566541 -91.96451 
L 156.341695 -90.591391 
L 156.24762 -84.935533 
L 157.061135 -78.033569 
L 157.095409 -77.906556 
L 157.122655 -77.886099 
L 157.202165 -77.789298 
L 162.819335 -73.695084 
L 165.662544 -70.877579 
L 165.285879 -63.90931 
L 165.293173 -63.848602 
L 165.294231 -63.773428 
L 166.777498 -56.819624 
L 166.92859 -52.696614 
L 167.070456 -49.790647 
L 166.140602 -48.249516 
L 163.33875 -42.76167 
L 161.82029 -41.674563 
L 159.571379 -39.953551 
L 156.150788 -37.436474 
L 153.392788 -35.732693 
L 157.134466 -35.732693 
L 165.25083 -35.732693 
L 173.367193 -35.732693 
L 181.483557 -35.732693 
L 189.59992 -35.732693 
L 197.716284 -35.732693 
L 193.658102 -42.76167 
L 189.59992 -49.790647 
L 185.541739 -56.819624 
L 181.483557 -63.848602 
L 177.425375 -70.877579 
L 173.367193 -77.906556 
L 169.309011 -84.935533 
L 165.25083 -91.96451 
L 161.192648 -98.993487 
L 157.134466 -106.022464 
L 153.076284 -113.051441 
L 149.018102 -120.080418 
L 144.95992 -127.109395 
L 140.901739 -134.138373 
L 136.843557 -141.16735 
L 132.785375 -148.196327 
L 128.727193 -155.225304 
L 124.669011 -162.254281 
L 120.61083 -169.283258 
L 116.552648 -176.312235 
L 112.494466 -169.283258 
L 108.436284 -162.254281 
L 104.378102 -155.225304 
L 100.31992 -148.196327 
L 96.261739 -141.16735 
L 92.203557 -134.138373 
L 88.145375 -127.109395 
M 37.769811 -35.732693 
L 36.482236 -37.626214 
L 35.389011 -35.732693 
" style="stroke: #00295c"/>
    </defs>
    <g clip-path="url(#p37b0a0b14e)">
     <use xlink:href="#m81394e0a04" x="0" y="210.047792" style="fill: #00295c; stroke: #00295c"/>
    </g>
   </g>
   <g id="PathCollection_2">
    <defs>
     <path id="mf8a598ec05" d="M 80.954022 -114.653606 
L 87.024579 -113.051441 
L 88.004859 -112.808061 
L 88.303496 -112.777568 
L 92.530815 -113.051441 
L 96.087912 -113.352517 
L 96.48194 -113.432841 
L 96.775039 -113.051441 
L 102.635875 -110.033815 
L 106.704013 -109.022846 
L 109.70009 -108.211439 
L 113.142636 -106.022464 
L 115.202661 -103.684218 
L 119.601061 -100.742458 
L 121.080531 -99.807034 
L 123.082199 -98.993487 
L 127.607982 -97.054956 
L 131.051519 -91.96451 
L 132.343916 -91.199881 
L 136.633394 -84.935533 
L 136.769114 -84.806593 
L 137.209493 -84.301714 
L 142.514204 -80.699427 
L 145.561087 -77.906556 
L 148.034206 -76.202398 
L 150.670862 -75.043891 
L 154.026923 -72.524133 
L 155.379357 -70.877579 
L 155.099685 -67.372945 
L 154.772044 -63.848602 
L 155.107199 -60.337273 
L 155.630117 -56.819624 
L 156.233466 -51.351225 
L 156.509272 -49.790647 
L 152.017637 -44.595301 
L 148.926531 -42.76167 
L 146.250189 -40.526859 
L 142.525113 -38.544461 
L 140.265562 -36.834584 
L 133.155996 -36.374628 
L 132.512121 -36.205984 
L 131.466982 -35.732693 
L 132.785375 -35.732693 
L 140.901739 -35.732693 
L 149.018102 -35.732693 
L 153.392788 -35.732693 
L 156.150788 -37.436474 
L 159.571379 -39.953551 
L 161.82029 -41.674563 
L 163.33875 -42.76167 
L 166.140602 -48.249516 
L 167.070456 -49.790647 
L 166.92859 -52.696614 
L 166.777498 -56.819624 
L 165.294231 -63.773428 
L 165.293173 -63.848602 
L 165.285879 -63.90931 
L 165.662544 -70.877579 
L 162.819335 -73.695084 
L 157.202165 -77.789298 
L 157.122655 -77.886099 
L 157.095409 -77.906556 
L 157.061135 -78.033569 
L 156.24762 -84.935533 
L 156.341695 -90.591391 
L 153.566541 -91.96451 
L 149.627041 -93.019223 
L 147.284831 -94.966624 
L 143.716814 -96.840364 
L 142.761876 -98.993487 
L 138.626079 -102.080907 
L 134.882844 -106.022464 
L 133.46986 -107.208027 
L 131.646181 -107.995606 
L 127.096354 -110.226745 
L 121.351898 -111.767873 
L 120.190486 -112.323385 
L 118.608789 -113.051441 
L 115.582781 -118.40056 
L 110.119145 -120.080418 
L 108.627109 -120.410936 
L 108.124644 -120.620195 
L 102.929239 -124.59989 
L 97.783928 -124.472886 
L 94.375091 -123.841626 
L 89.820023 -124.208821 
L 86.211949 -123.760603 
L 84.087193 -120.080418 
M 36.482236 -37.626214 
L 37.769811 -35.732693 
L 40.150611 -35.732693 
L 37.57546 -39.519734 
" style="stroke: #133670"/>
    </defs>
    <g clip-path="url(#p37b0a0b14e)">
     <use xlink:href="#mf8a598ec05" x="0" y="210.047792" style="fill: #133670; stroke: #133670"/>
    </g>
   </g>
   <g id="PathCollection_3">
    <defs>
     <path id="m0953daecf6" d="M 75.857519 -105.826205 
L 76.059961 -105.868084 
L 84.022546 -105.910492 
L 84.154089 -105.906597 
L 91.738899 -105.217653 
L 93.110461 -104.45166 
L 98.392823 -102.684634 
L 103.267043 -100.917898 
L 105.138675 -100.310838 
L 106.238335 -98.993487 
L 111.011327 -96.424616 
L 116.218311 -92.543598 
L 116.748157 -92.303143 
L 117.2159 -91.96451 
L 122.756296 -88.65159 
L 128.308223 -85.66121 
L 128.932814 -85.291679 
L 129.176684 -84.935533 
L 134.127823 -80.231744 
L 136.155957 -77.906556 
L 138.446166 -73.653379 
L 141.536354 -70.877579 
L 142.098995 -65.92231 
L 143.865735 -63.848602 
L 147.969343 -62.032097 
L 149.077776 -56.819624 
L 149.331813 -50.33401 
L 149.427843 -49.790647 
L 149.182166 -49.50648 
L 148.683126 -49.210451 
L 143.01526 -46.12992 
L 139.304876 -42.76167 
L 137.591939 -41.465435 
L 136.037099 -41.364844 
L 130.38792 -39.885206 
L 125.890639 -37.848614 
L 124.157638 -36.618418 
L 122.504685 -35.732693 
L 124.669011 -35.732693 
L 131.466982 -35.732693 
L 132.512121 -36.205984 
L 133.155996 -36.374628 
L 140.265562 -36.834584 
L 142.525113 -38.544461 
L 146.250189 -40.526859 
L 148.926531 -42.76167 
L 152.017637 -44.595301 
L 156.509272 -49.790647 
L 156.233466 -51.351225 
L 155.630117 -56.819624 
L 155.107199 -60.337273 
L 154.772044 -63.848602 
L 155.099685 -67.372945 
L 155.379357 -70.877579 
L 154.026923 -72.524133 
L 150.670862 -75.043891 
L 148.034206 -76.202398 
L 145.561087 -77.906556 
L 142.514204 -80.699427 
L 137.209493 -84.301714 
L 136.769114 -84.806593 
L 136.633394 -84.935533 
L 132.343916 -91.199881 
L 131.051519 -91.96451 
L 127.607982 -97.054956 
L 123.082199 -98.993487 
L 121.080531 -99.807034 
L 119.601061 -100.742458 
L 115.202661 -103.684218 
L 113.142636 -106.022464 
L 109.70009 -108.211439 
L 106.704013 -109.022846 
L 102.635875 -110.033815 
L 96.775039 -113.051441 
L 96.48194 -113.432841 
L 96.087912 -113.352517 
L 92.530815 -113.051441 
L 88.303496 -112.777568 
L 88.004859 -112.808061 
L 87.024579 -113.051441 
L 80.954022 -114.653606 
L 80.029011 -113.051441 
L 75.97083 -106.022464 
M 37.57546 -39.519734 
L 40.150611 -35.732693 
L 42.531411 -35.732693 
L 38.668685 -41.413254 
" style="stroke: #33446c"/>
    </defs>
    <g clip-path="url(#p37b0a0b14e)">
     <use xlink:href="#m0953daecf6" x="0" y="210.047792" style="fill: #33446c; stroke: #33446c"/>
    </g>
   </g>
   <g id="PathCollection_4">
    <defs>
     <path id="m01b47f9bb4" d="M 71.250236 -97.846156 
L 72.888798 -97.302745 
L 78.49221 -98.993487 
L 79.865047 -99.277482 
L 80.193987 -99.279234 
L 88.115814 -99.044689 
L 88.17199 -99.039586 
L 88.254534 -98.993487 
L 94.525806 -95.986764 
L 99.061591 -94.144001 
L 101.234367 -93.548378 
L 106.108065 -91.96451 
L 108.101036 -91.383843 
L 110.385307 -88.588703 
L 112.904222 -85.645252 
L 114.166528 -84.935533 
L 119.434967 -82.898879 
L 124.084194 -78.919489 
L 124.948422 -78.390509 
L 125.673884 -77.906556 
L 127.695432 -72.664641 
L 128.571102 -70.877579 
L 128.647322 -70.739238 
L 128.917634 -70.547725 
L 134.710711 -67.183382 
L 135.702643 -63.848602 
L 135.229139 -59.615878 
L 134.961447 -56.819624 
L 134.584133 -52.906187 
L 136.491925 -49.790647 
L 133.840579 -47.962981 
L 130.606255 -46.016301 
L 128.252754 -43.583422 
L 127.587282 -42.76167 
L 122.638885 -39.248976 
L 116.765831 -36.101938 
L 116.386674 -36.020167 
L 109.264284 -37.166831 
L 107.967081 -36.545376 
L 104.228562 -35.732693 
L 108.436284 -35.732693 
L 116.552648 -35.732693 
L 122.504685 -35.732693 
L 124.157638 -36.618418 
L 125.890639 -37.848614 
L 130.38792 -39.885206 
L 136.037099 -41.364844 
L 137.591939 -41.465435 
L 139.304876 -42.76167 
L 143.01526 -46.12992 
L 148.683126 -49.210451 
L 149.182166 -49.50648 
L 149.427843 -49.790647 
L 149.331813 -50.33401 
L 149.077776 -56.819624 
L 147.969343 -62.032097 
L 143.865735 -63.848602 
L 142.098995 -65.92231 
L 141.536354 -70.877579 
L 138.446166 -73.653379 
L 136.155957 -77.906556 
L 134.127823 -80.231744 
L 129.176684 -84.935533 
L 128.932814 -85.291679 
L 128.308223 -85.66121 
L 122.756296 -88.65159 
L 117.2159 -91.96451 
L 116.748157 -92.303143 
L 116.218311 -92.543598 
L 111.011327 -96.424616 
L 106.238335 -98.993487 
L 105.138675 -100.310838 
L 103.267043 -100.917898 
L 98.392823 -102.684634 
L 93.110461 -104.45166 
L 91.738899 -105.217653 
L 84.154089 -105.906597 
L 84.022546 -105.910492 
L 76.059961 -105.868084 
L 75.857519 -105.826205 
L 71.912648 -98.993487 
M 38.668685 -41.413254 
L 42.531411 -35.732693 
L 43.505375 -35.732693 
L 46.904396 -35.732693 
L 44.061733 -36.696333 
L 40.030279 -42.76167 
L 39.803865 -43.379445 
L 39.447193 -42.76167 
" style="stroke: #47516c"/>
    </defs>
    <g clip-path="url(#p37b0a0b14e)">
     <use xlink:href="#m01b47f9bb4" x="0" y="210.047792" style="fill: #47516c; stroke: #47516c"/>
    </g>
   </g>
   <g id="PathCollection_5">
    <defs>
     <path id="m109703b6ea" d="M 67.364502 -91.115868 
L 68.05836 -91.611354 
L 74.796718 -89.930889 
L 77.05207 -90.091746 
L 82.826279 -89.780542 
L 86.049911 -88.564983 
L 90.879897 -89.671864 
L 93.049923 -90.498561 
L 98.591371 -88.970574 
L 103.907892 -85.749962 
L 104.712898 -85.515417 
L 105.186797 -84.935533 
L 110.001585 -80.617737 
L 116.500626 -77.99666 
L 116.585685 -77.963778 
L 116.652539 -77.906556 
L 121.352427 -72.162063 
L 121.981831 -70.877579 
L 125.275624 -64.899285 
L 126.758618 -63.848602 
L 129.101802 -57.468466 
L 129.039687 -56.819624 
L 128.99497 -56.355822 
L 128.439605 -49.790647 
L 126.078295 -47.349697 
L 122.362812 -42.76167 
L 121.120131 -41.879534 
L 119.645243 -41.089225 
L 114.144918 -39.903004 
L 111.12474 -40.389235 
L 106.912816 -38.371417 
L 101.115839 -37.111264 
L 99.68845 -36.826432 
L 93.702924 -35.732693 
L 100.31992 -35.732693 
L 104.228562 -35.732693 
L 107.967081 -36.545376 
L 109.264284 -37.166831 
L 116.386674 -36.020167 
L 116.765831 -36.101938 
L 122.638885 -39.248976 
L 127.587282 -42.76167 
L 128.252754 -43.583422 
L 130.606255 -46.016301 
L 133.840579 -47.962981 
L 136.491925 -49.790647 
L 134.584133 -52.906187 
L 134.961447 -56.819624 
L 135.229139 -59.615878 
L 135.702643 -63.848602 
L 134.710711 -67.183382 
L 128.917634 -70.547725 
L 128.647322 -70.739238 
L 128.571102 -70.877579 
L 127.695432 -72.664641 
L 125.673884 -77.906556 
L 124.948422 -78.390509 
L 124.084194 -78.919489 
L 119.434967 -82.898879 
L 114.166528 -84.935533 
L 112.904222 -85.645252 
L 110.385307 -88.588703 
L 108.101036 -91.383843 
L 106.108065 -91.96451 
L 101.234367 -93.548378 
L 99.061591 -94.144001 
L 94.525806 -95.986764 
L 88.254534 -98.993487 
L 88.17199 -99.039586 
L 88.115814 -99.044689 
L 80.193987 -99.279234 
L 79.865047 -99.277482 
L 78.49221 -98.993487 
L 72.888798 -97.302745 
L 71.250236 -97.846156 
L 67.854466 -91.96451 
M 39.803865 -43.379445 
L 40.030279 -42.76167 
L 44.061733 -36.696333 
L 46.904396 -35.732693 
L 51.621739 -35.732693 
L 54.100829 -35.732693 
L 51.802207 -36.045273 
L 51.369915 -36.168864 
L 45.003261 -38.327107 
L 42.055736 -42.76167 
L 41.042832 -45.525398 
" style="stroke: #5a5f6e"/>
    </defs>
    <g clip-path="url(#p37b0a0b14e)">
     <use xlink:href="#m109703b6ea" x="0" y="210.047792" style="fill: #5a5f6e; stroke: #5a5f6e"/>
    </g>
   </g>
   <g id="PathCollection_6">
    <defs>
     <path id="m5172a187be" d="M 61.792565 -81.46499 
L 64.990155 -82.867688 
L 71.583368 -84.935533 
L 71.816522 -85.102028 
L 71.984577 -85.060117 
L 79.641773 -85.606249 
L 80.392878 -85.565768 
L 82.064244 -84.935533 
L 87.177337 -83.258842 
L 89.633143 -82.358644 
L 95.977655 -84.935533 
L 96.21052 -85.024246 
L 96.298889 -84.999879 
L 96.40511 -84.935533 
L 101.710629 -80.315333 
L 104.514306 -77.906556 
L 107.383032 -76.08227 
L 112.408181 -70.877579 
L 112.462034 -70.821404 
L 112.630449 -70.64205 
L 117.888176 -66.161804 
L 119.161483 -63.848602 
L 121.98614 -59.201733 
L 123.105738 -56.819624 
L 122.819911 -52.993384 
L 120.895367 -49.790647 
L 118.089082 -47.129466 
L 114.09515 -45.534136 
L 111.914555 -43.766105 
L 111.211 -42.76167 
L 105.858551 -40.197458 
L 102.472714 -39.461441 
L 98.611925 -38.691028 
L 93.357179 -37.730826 
L 91.13286 -37.587194 
L 85.047226 -37.395518 
L 83.367621 -36.979028 
L 76.138444 -36.02301 
L 75.816359 -36.000244 
L 73.764123 -35.732693 
L 75.97083 -35.732693 
L 84.087193 -35.732693 
L 92.203557 -35.732693 
L 93.702924 -35.732693 
L 99.68845 -36.826432 
L 101.115839 -37.111264 
L 106.912816 -38.371417 
L 111.12474 -40.389235 
L 114.144918 -39.903004 
L 119.645243 -41.089225 
L 121.120131 -41.879534 
L 122.362812 -42.76167 
L 126.078295 -47.349697 
L 128.439605 -49.790647 
L 128.99497 -56.355822 
L 129.039687 -56.819624 
L 129.101802 -57.468466 
L 126.758618 -63.848602 
L 125.275624 -64.899285 
L 121.981831 -70.877579 
L 121.352427 -72.162063 
L 116.652539 -77.906556 
L 116.585685 -77.963778 
L 116.500626 -77.99666 
L 110.001585 -80.617737 
L 105.186797 -84.935533 
L 104.712898 -85.515417 
L 103.907892 -85.749962 
L 98.591371 -88.970574 
L 93.049923 -90.498561 
L 90.879897 -89.671864 
L 86.049911 -88.564983 
L 82.826279 -89.780542 
L 77.05207 -90.091746 
L 74.796718 -89.930889 
L 68.05836 -91.611354 
L 67.364502 -91.115868 
L 63.796284 -84.935533 
M 41.042832 -45.525398 
L 42.055736 -42.76167 
L 45.003261 -38.327107 
L 51.369915 -36.168864 
L 51.802207 -36.045273 
L 54.100829 -35.732693 
L 59.738102 -35.732693 
L 64.571694 -35.732693 
L 60.479808 -37.017365 
L 59.044336 -36.934331 
L 52.805338 -37.782747 
L 49.970158 -38.593315 
L 45.944789 -39.957882 
L 44.081193 -42.76167 
L 42.281799 -47.671352 
" style="stroke: #6b6d72"/>
    </defs>
    <g clip-path="url(#p37b0a0b14e)">
     <use xlink:href="#m5172a187be" x="0" y="210.047792" style="fill: #6b6d72; stroke: #6b6d72"/>
    </g>
   </g>
   <g id="PathCollection_7">
    <defs>
     <path id="m482729c2e9" d="M 58.424708 -75.631691 
L 60.63104 -76.359942 
L 63.447375 -77.906556 
L 66.963854 -79.449142 
L 69.138932 -80.131317 
L 74.614414 -80.255936 
L 77.452746 -80.47331 
L 82.732392 -80.253141 
L 85.010661 -79.506049 
L 89.37419 -77.906556 
L 91.676939 -76.994426 
L 93.273324 -76.053665 
L 98.476848 -74.714261 
L 103.065707 -73.150715 
L 104.985607 -71.929808 
L 106.001538 -70.877579 
L 110.053937 -66.650458 
L 112.684897 -63.848602 
L 113.4627 -58.496656 
L 114.511121 -56.819624 
L 113.483003 -55.107428 
L 112.449745 -49.790647 
L 109.715998 -47.574118 
L 106.345121 -42.76167 
L 104.804286 -42.023498 
L 103.829589 -41.811618 
L 97.535399 -40.555625 
L 94.687641 -40.035253 
L 89.898037 -39.725971 
L 86.32779 -39.613521 
L 82.407801 -38.641485 
L 77.256946 -37.960313 
L 74.785567 -37.785628 
L 68.572041 -36.97557 
L 66.770272 -37.610572 
L 61.735002 -39.191425 
L 57.87027 -38.967873 
L 53.808469 -39.520221 
L 48.5704 -41.017767 
L 46.886317 -41.588657 
L 46.106649 -42.76167 
L 43.57427 -49.671317 
L 43.553813 -49.790647 
L 43.559141 -49.883773 
L 43.505375 -49.790647 
L 42.281799 -47.671352 
L 44.081193 -42.76167 
L 45.944789 -39.957882 
L 49.970158 -38.593315 
L 52.805338 -37.782747 
L 59.044336 -36.934331 
L 60.479808 -37.017365 
L 64.571694 -35.732693 
L 67.854466 -35.732693 
L 73.764123 -35.732693 
L 75.816359 -36.000244 
L 76.138444 -36.02301 
L 83.367621 -36.979028 
L 85.047226 -37.395518 
L 91.13286 -37.587194 
L 93.357179 -37.730826 
L 98.611925 -38.691028 
L 102.472714 -39.461441 
L 105.858551 -40.197458 
L 111.211 -42.76167 
L 111.914555 -43.766105 
L 114.09515 -45.534136 
L 118.089082 -47.129466 
L 120.895367 -49.790647 
L 122.819911 -52.993384 
L 123.105738 -56.819624 
L 121.98614 -59.201733 
L 119.161483 -63.848602 
L 117.888176 -66.161804 
L 112.630449 -70.64205 
L 112.462034 -70.821404 
L 112.408181 -70.877579 
L 107.383032 -76.08227 
L 104.514306 -77.906556 
L 101.710629 -80.315333 
L 96.40511 -84.935533 
L 96.298889 -84.999879 
L 96.21052 -85.024246 
L 95.977655 -84.935533 
L 89.633143 -82.358644 
L 87.177337 -83.258842 
L 82.064244 -84.935533 
L 80.392878 -85.565768 
L 79.641773 -85.606249 
L 71.984577 -85.060117 
L 71.816522 -85.102028 
L 71.583368 -84.935533 
L 64.990155 -82.867688 
L 61.792565 -81.46499 
L 59.738102 -77.906556 
" style="stroke: #7d7c78"/>
    </defs>
    <g clip-path="url(#p37b0a0b14e)">
     <use xlink:href="#m482729c2e9" x="0" y="210.047792" style="fill: #7d7c78; stroke: #7d7c78"/>
    </g>
   </g>
   <g id="PathCollection_8">
    <defs>
     <path id="mecf635dc68" d="M 54.693955 -69.169837 
L 56.213703 -69.953041 
L 58.710131 -70.877579 
L 62.982171 -72.287664 
L 65.366303 -73.596931 
L 71.018608 -72.4261 
L 72.857664 -72.514396 
L 77.255087 -75.682156 
L 82.698744 -75.501692 
L 86.197533 -74.25134 
L 89.36813 -72.995452 
L 92.961966 -70.877579 
L 95.18598 -69.014309 
L 98.58413 -63.848602 
L 99.412517 -62.276933 
L 101.337549 -62.086017 
L 107.273776 -61.835078 
L 108.459354 -56.819624 
L 107.063585 -52.168233 
L 105.653818 -49.790647 
L 102.647375 -45.759377 
L 98.169982 -42.76167 
L 96.458874 -42.420222 
L 96.018102 -42.33968 
L 88.663213 -41.864748 
L 87.608355 -41.831524 
L 81.447982 -40.303942 
L 78.375449 -39.897616 
L 73.754775 -39.571012 
L 69.770637 -39.0516 
L 64.959296 -40.747274 
L 62.990196 -41.365485 
L 56.696204 -41.001415 
L 54.8116 -41.257695 
L 49.551041 -42.76167 
L 48.407489 -44.223403 
L 47.453061 -49.790647 
L 47.828922 -56.359999 
L 47.849808 -56.819624 
L 47.98656 -57.552287 
L 47.563557 -56.819624 
L 43.559141 -49.883773 
L 43.553813 -49.790647 
L 43.57427 -49.671317 
L 46.106649 -42.76167 
L 46.886317 -41.588657 
L 48.5704 -41.017767 
L 53.808469 -39.520221 
L 57.87027 -38.967873 
L 61.735002 -39.191425 
L 66.770272 -37.610572 
L 68.572041 -36.97557 
L 74.785567 -37.785628 
L 77.256946 -37.960313 
L 82.407801 -38.641485 
L 86.32779 -39.613521 
L 89.898037 -39.725971 
L 94.687641 -40.035253 
L 97.535399 -40.555625 
L 103.829589 -41.811618 
L 104.804286 -42.023498 
L 106.345121 -42.76167 
L 109.715998 -47.574118 
L 112.449745 -49.790647 
L 113.483003 -55.107428 
L 114.511121 -56.819624 
L 113.4627 -58.496656 
L 112.684897 -63.848602 
L 110.053937 -66.650458 
L 106.001538 -70.877579 
L 104.985607 -71.929808 
L 103.065707 -73.150715 
L 98.476848 -74.714261 
L 93.273324 -76.053665 
L 91.676939 -76.994426 
L 89.37419 -77.906556 
L 85.010661 -79.506049 
L 82.732392 -80.253141 
L 77.452746 -80.47331 
L 74.614414 -80.255936 
L 69.138932 -80.131317 
L 66.963854 -79.449142 
L 63.447375 -77.906556 
L 60.63104 -76.359942 
L 58.424708 -75.631691 
L 55.67992 -70.877579 
" style="stroke: #8f8a78"/>
    </defs>
    <g clip-path="url(#p37b0a0b14e)">
     <use xlink:href="#mecf635dc68" x="0" y="210.047792" style="fill: #8f8a78; stroke: #8f8a78"/>
    </g>
   </g>
   <g id="PathCollection_9">
    <defs>
     <path id="mba1dd38c16" d="M 47.98656 -57.552287 
L 47.849808 -56.819624 
L 47.828922 -56.359999 
L 47.453061 -49.790647 
L 48.407489 -44.223403 
L 49.551041 -42.76167 
L 54.8116 -41.257695 
L 56.696204 -41.001415 
L 62.990196 -41.365485 
L 64.959296 -40.747274 
L 69.770637 -39.0516 
L 73.754775 -39.571012 
L 78.375449 -39.897616 
L 81.447982 -40.303942 
L 87.608355 -41.831524 
L 88.663213 -41.864748 
L 96.018102 -42.33968 
L 96.458874 -42.420222 
L 98.169982 -42.76167 
L 102.647375 -45.759377 
L 105.653818 -49.790647 
L 107.063585 -52.168233 
L 108.459354 -56.819624 
L 107.273776 -61.835078 
L 101.337549 -62.086017 
L 99.412517 -62.276933 
L 98.58413 -63.848602 
L 95.18598 -69.014309 
L 92.961966 -70.877579 
L 89.36813 -72.995452 
L 86.197533 -74.25134 
L 82.698744 -75.501692 
L 77.255087 -75.682156 
L 72.857664 -72.514396 
L 71.018608 -72.4261 
L 65.366303 -73.596931 
L 62.982171 -72.287664 
L 58.710131 -70.877579 
L 56.213703 -69.953041 
L 54.693955 -69.169837 
L 51.621739 -63.848602 
M 56.501573 -44.184815 
L 52.99977 -47.403827 
L 51.413995 -49.430825 
L 51.352309 -49.790647 
L 51.376601 -50.215237 
L 51.676718 -56.819624 
L 52.654725 -62.059416 
L 55.65216 -63.848602 
L 58.801155 -65.471441 
L 61.184693 -66.35417 
L 65.040027 -68.723353 
L 70.437369 -68.322321 
L 74.687896 -66.070707 
L 79.144942 -70.877579 
L 79.769327 -71.327366 
L 80.278942 -71.310471 
L 81.490281 -70.877579 
L 86.946892 -68.801745 
L 92.153384 -63.935503 
L 92.221016 -63.878842 
L 92.240909 -63.848602 
L 92.632497 -63.105656 
L 95.685453 -56.819624 
L 95.147186 -54.889162 
L 95.435713 -49.790647 
L 92.766566 -48.815487 
L 91.4538 -48.492031 
L 86.854029 -44.998346 
L 83.695303 -42.76167 
L 80.488162 -41.966398 
L 79.493952 -41.83492 
L 72.723983 -41.356396 
L 70.969234 -41.12763 
L 66.332774 -42.76167 
L 64.225552 -43.505184 
L 62.159597 -45.596495 
" style="stroke: #a39a75"/>
    </defs>
    <g clip-path="url(#p37b0a0b14e)">
     <use xlink:href="#mba1dd38c16" x="0" y="210.047792" style="fill: #a39a75; stroke: #a39a75"/>
    </g>
   </g>
   <g id="PathCollection_10">
    <defs>
     <path id="m7766ef15fa" d="M 62.159597 -45.596495 
L 64.225552 -43.505184 
L 66.332774 -42.76167 
L 70.969234 -41.12763 
L 72.723983 -41.356396 
L 79.493952 -41.83492 
L 80.488162 -41.966398 
L 83.695303 -42.76167 
L 86.854029 -44.998346 
L 91.4538 -48.492031 
L 92.766566 -48.815487 
L 95.435713 -49.790647 
L 95.147186 -54.889162 
L 95.685453 -56.819624 
L 92.632497 -63.105656 
L 92.240909 -63.848602 
L 92.221016 -63.878842 
L 92.153384 -63.935503 
L 86.946892 -68.801745 
L 81.490281 -70.877579 
L 80.278942 -71.310471 
L 79.769327 -71.327366 
L 79.144942 -70.877579 
L 74.687896 -66.070707 
L 70.437369 -68.322321 
L 65.040027 -68.723353 
L 61.184693 -66.35417 
L 58.801155 -65.471441 
L 55.65216 -63.848602 
L 52.654725 -62.059416 
L 51.676718 -56.819624 
L 51.376601 -50.215237 
L 51.352309 -49.790647 
L 51.413995 -49.430825 
L 52.99977 -47.403827 
L 56.501573 -44.184815 
M 84.630017 -48.850449 
L 82.793614 -47.550102 
L 77.722883 -46.756001 
L 73.330882 -45.218124 
L 71.526529 -43.430448 
L 65.4253 -45.583209 
L 61.268876 -49.790647 
L 60.777455 -51.590859 
L 56.041729 -56.192954 
L 55.488567 -56.48819 
L 55.503628 -56.819624 
L 55.546697 -57.050374 
L 55.953252 -57.293049 
L 61.029299 -61.612183 
L 64.372259 -63.848602 
L 66.942545 -65.428095 
L 68.691366 -65.298155 
L 71.427788 -63.848602 
L 74.366942 -61.070587 
L 77.614106 -61.002364 
L 82.729564 -63.848602 
L 83.599751 -64.692876 
L 84.399073 -64.388793 
L 84.977035 -63.848602 
L 85.142919 -62.02003 
L 85.873449 -56.819624 
L 85.759747 -52.687596 
L 85.867879 -49.790647 
" style="stroke: #b7aa6e"/>
    </defs>
    <g clip-path="url(#p37b0a0b14e)">
     <use xlink:href="#m7766ef15fa" x="0" y="210.047792" style="fill: #b7aa6e; stroke: #b7aa6e"/>
    </g>
   </g>
   <g id="PathCollection_11">
    <defs>
     <path id="m4f88081ef5" d="M 85.867879 -49.790647 
L 85.759747 -52.687596 
L 85.873449 -56.819624 
L 85.142919 -62.02003 
L 84.977035 -63.848602 
L 84.399073 -64.388793 
L 83.599751 -64.692876 
L 82.729564 -63.848602 
L 77.614106 -61.002364 
L 74.366942 -61.070587 
L 71.427788 -63.848602 
L 68.691366 -65.298155 
L 66.942545 -65.428095 
L 64.372259 -63.848602 
L 61.029299 -61.612183 
L 55.953252 -57.293049 
L 55.546697 -57.050374 
L 55.503628 -56.819624 
L 55.488567 -56.48819 
L 56.041729 -56.192954 
L 60.777455 -51.590859 
L 61.268876 -49.790647 
L 65.4253 -45.583209 
L 71.526529 -43.430448 
L 73.330882 -45.218124 
L 77.722883 -46.756001 
L 82.793614 -47.550102 
L 84.630017 -48.850449 
M 71.661905 -56.385325 
L 72.961892 -49.790647 
L 69.712922 -46.571707 
L 66.625048 -47.661234 
L 64.521454 -49.790647 
L 62.985864 -55.415937 
L 61.541418 -56.819624 
L 63.053473 -58.10621 
L 65.474013 -59.725536 
L 70.651917 -56.819624 
" style="stroke: #cab965"/>
    </defs>
    <g clip-path="url(#p37b0a0b14e)">
     <use xlink:href="#m4f88081ef5" x="0" y="210.047792" style="fill: #cab965; stroke: #cab965"/>
    </g>
   </g>
   <g id="PathCollection_12">
    <defs>
     <path id="m14954ae36d" d="M 70.651917 -56.819624 
L 65.474013 -59.725536 
L 63.053473 -58.10621 
L 61.541418 -56.819624 
L 62.985864 -55.415937 
L 64.521454 -49.790647 
L 66.625048 -47.661234 
L 69.712922 -46.571707 
L 72.961892 -49.790647 
L 71.661905 -56.385325 
M 67.94635 -49.949795 
L 67.977722 -49.790647 
L 67.899316 -49.712966 
L 67.824797 -49.739259 
L 67.774031 -49.790647 
L 67.701892 -50.054913 
" style="stroke: #e0cb56"/>
    </defs>
    <g clip-path="url(#p37b0a0b14e)">
     <use xlink:href="#m14954ae36d" x="0" y="210.047792" style="fill: #e0cb56; stroke: #e0cb56"/>
    </g>
   </g>
   <g id="PathCollection_13">
    <defs>
     <path id="mb2127c9027" d="M 67.701892 -50.054913 
L 67.774031 -49.790647 
L 67.824797 -49.739259 
L 67.899316 -49.712966 
L 67.977722 -49.790647 
L 67.94635 -49.949795 
" style="stroke: #f8de3d"/>
    </defs>
    <g clip-path="url(#p37b0a0b14e)">
     <use xlink:href="#mb2127c9027" x="0" y="210.047792" style="fill: #f8de3d; stroke: #f8de3d"/>
    </g>
   </g>
   <g id="line2d_1">
    <path d="M 35.389011 174.315099 
L 116.552648 33.735557 
" clip-path="url(#p37b0a0b14e)" style="fill: none; stroke: #000000; stroke-linecap: square"/>
   </g>
   <g id="line2d_2">
    <path d="M 116.552648 33.735557 
L 197.716284 174.315099 
" clip-path="url(#p37b0a0b14e)" style="fill: none; stroke: #000000; stroke-linecap: square"/>
   </g>
   <g id="line2d_3">
    <path d="M 35.389011 174.315099 
L 197.716284 174.315099 
" clip-path="url(#p37b0a0b14e)" style="fill: none; stroke: #000000; stroke-linecap: square"/>
   </g>
   <g id="line2d_4">
    <path d="M 197.716284 174.315099 
L 200.063861 178.381221 
" clip-path="url(#p37b0a0b14e)" style="fill: none; stroke: #000000; stroke-linecap: square"/>
   </g>
   <g id="line2d_5">
    <path d="M 165.25083 174.315099 
L 167.598407 178.381221 
" clip-path="url(#p37b0a0b14e)" style="fill: none; stroke: #000000; stroke-linecap: square"/>
   </g>
   <g id="line2d_6">
    <path d="M 132.785375 174.315099 
L 135.132952 178.381221 
" clip-path="url(#p37b0a0b14e)" style="fill: none; stroke: #000000; stroke-linecap: square"/>
   </g>
   <g id="line2d_7">
    <path d="M 100.31992 174.315099 
L 102.667497 178.381221 
" clip-path="url(#p37b0a0b14e)" style="fill: none; stroke: #000000; stroke-linecap: square"/>
   </g>
   <g id="line2d_8">
    <path d="M 67.854466 174.315099 
L 70.202043 178.381221 
" clip-path="url(#p37b0a0b14e)" style="fill: none; stroke: #000000; stroke-linecap: square"/>
   </g>
   <g id="line2d_9">
    <path d="M 35.389011 174.315099 
L 37.736588 178.381221 
" clip-path="url(#p37b0a0b14e)" style="fill: none; stroke: #000000; stroke-linecap: square"/>
   </g>
   <g id="line2d_10">
    <path d="M 35.389011 174.315099 
L 30.693857 174.315099 
" clip-path="url(#p37b0a0b14e)" style="fill: none; stroke: #000000; stroke-linecap: square"/>
   </g>
   <g id="line2d_11">
    <path d="M 51.621739 146.19919 
L 46.926585 146.19919 
" clip-path="url(#p37b0a0b14e)" style="fill: none; stroke: #000000; stroke-linecap: square"/>
   </g>
   <g id="line2d_12">
    <path d="M 67.854466 118.083282 
L 63.159312 118.083282 
" clip-path="url(#p37b0a0b14e)" style="fill: none; stroke: #000000; stroke-linecap: square"/>
   </g>
   <g id="line2d_13">
    <path d="M 84.087193 89.967374 
L 79.392039 89.967374 
" clip-path="url(#p37b0a0b14e)" style="fill: none; stroke: #000000; stroke-linecap: square"/>
   </g>
   <g id="line2d_14">
    <path d="M 100.31992 61.851465 
L 95.624766 61.851465 
" clip-path="url(#p37b0a0b14e)" style="fill: none; stroke: #000000; stroke-linecap: square"/>
   </g>
   <g id="line2d_15">
    <path d="M 116.552648 33.735557 
L 111.857494 33.735557 
" clip-path="url(#p37b0a0b14e)" style="fill: none; stroke: #000000; stroke-linecap: square"/>
   </g>
   <g id="line2d_16">
    <path d="M 116.552648 33.735557 
L 118.900225 29.669434 
" clip-path="url(#p37b0a0b14e)" style="fill: none; stroke: #000000; stroke-linecap: square"/>
   </g>
   <g id="line2d_17">
    <path d="M 132.785375 61.851465 
L 135.132952 57.785343 
" clip-path="url(#p37b0a0b14e)" style="fill: none; stroke: #000000; stroke-linecap: square"/>
   </g>
   <g id="line2d_18">
    <path d="M 149.018102 89.967374 
L 151.365679 85.901251 
" clip-path="url(#p37b0a0b14e)" style="fill: none; stroke: #000000; stroke-linecap: square"/>
   </g>
   <g id="line2d_19">
    <path d="M 165.25083 118.083282 
L 167.598407 114.017159 
" clip-path="url(#p37b0a0b14e)" style="fill: none; stroke: #000000; stroke-linecap: square"/>
   </g>
   <g id="line2d_20">
    <path d="M 181.483557 146.19919 
L 183.831134 142.133068 
" clip-path="url(#p37b0a0b14e)" style="fill: none; stroke: #000000; stroke-linecap: square"/>
   </g>
   <g id="line2d_21">
    <path d="M 197.716284 174.315099 
L 200.063861 170.248976 
" clip-path="url(#p37b0a0b14e)" style="fill: none; stroke: #000000; stroke-linecap: square"/>
   </g>
   <g id="matplotlib.axis_1">
    <g id="xtick_1"/>
    <g id="xtick_2"/>
    <g id="xtick_3"/>
    <g id="xtick_4"/>
    <g id="xtick_5"/>
   </g>
   <g id="matplotlib.axis_2">
    <g id="ytick_1"/>
    <g id="ytick_2"/>
    <g id="ytick_3"/>
    <g id="ytick_4"/>
    <g id="ytick_5"/>
   </g>
   <g id="text_1">
    <!-- 0 -->
    <g transform="translate(198.768602 187.301281) scale(0.12 -0.12)">
     <defs>
      <path id="DejaVuSans-30" d="M 2034 4250 
Q 1547 4250 1301 3770 
Q 1056 3291 1056 2328 
Q 1056 1369 1301 889 
Q 1547 409 2034 409 
Q 2525 409 2770 889 
Q 3016 1369 3016 2328 
Q 3016 3291 2770 3770 
Q 2525 4250 2034 4250 
z
M 2034 4750 
Q 2819 4750 3233 4129 
Q 3647 3509 3647 2328 
Q 3647 1150 3233 529 
Q 2819 -91 2034 -91 
Q 1250 -91 836 529 
Q 422 1150 422 2328 
Q 422 3509 836 4129 
Q 1250 4750 2034 4750 
z
" transform="scale(0.015625)"/>
     </defs>
     <use xlink:href="#DejaVuSans-30"/>
    </g>
   </g>
   <g id="text_2">
    <!-- 20 -->
    <g transform="translate(162.485648 187.301281) scale(0.12 -0.12)">
     <defs>
      <path id="DejaVuSans-32" d="M 1228 531 
L 3431 531 
L 3431 0 
L 469 0 
L 469 531 
Q 828 903 1448 1529 
Q 2069 2156 2228 2338 
Q 2531 2678 2651 2914 
Q 2772 3150 2772 3378 
Q 2772 3750 2511 3984 
Q 2250 4219 1831 4219 
Q 1534 4219 1204 4116 
Q 875 4013 500 3803 
L 500 4441 
Q 881 4594 1212 4672 
Q 1544 4750 1819 4750 
Q 2544 4750 2975 4387 
Q 3406 4025 3406 3419 
Q 3406 3131 3298 2873 
Q 3191 2616 2906 2266 
Q 2828 2175 2409 1742 
Q 1991 1309 1228 531 
z
" transform="scale(0.015625)"/>
     </defs>
     <use xlink:href="#DejaVuSans-32"/>
     <use xlink:href="#DejaVuSans-30" x="63.623047"/>
    </g>
   </g>
   <g id="text_3">
    <!-- 40 -->
    <g transform="translate(130.020193 187.301281) scale(0.12 -0.12)">
     <defs>
      <path id="DejaVuSans-34" d="M 2419 4116 
L 825 1625 
L 2419 1625 
L 2419 4116 
z
M 2253 4666 
L 3047 4666 
L 3047 1625 
L 3713 1625 
L 3713 1100 
L 3047 1100 
L 3047 0 
L 2419 0 
L 2419 1100 
L 313 1100 
L 313 1709 
L 2253 4666 
z
" transform="scale(0.015625)"/>
     </defs>
     <use xlink:href="#DejaVuSans-34"/>
     <use xlink:href="#DejaVuSans-30" x="63.623047"/>
    </g>
   </g>
   <g id="text_4">
    <!-- 60 -->
    <g transform="translate(97.554739 187.301281) scale(0.12 -0.12)">
     <defs>
      <path id="DejaVuSans-36" d="M 2113 2584 
Q 1688 2584 1439 2293 
Q 1191 2003 1191 1497 
Q 1191 994 1439 701 
Q 1688 409 2113 409 
Q 2538 409 2786 701 
Q 3034 994 3034 1497 
Q 3034 2003 2786 2293 
Q 2538 2584 2113 2584 
z
M 3366 4563 
L 3366 3988 
Q 3128 4100 2886 4159 
Q 2644 4219 2406 4219 
Q 1781 4219 1451 3797 
Q 1122 3375 1075 2522 
Q 1259 2794 1537 2939 
Q 1816 3084 2150 3084 
Q 2853 3084 3261 2657 
Q 3669 2231 3669 1497 
Q 3669 778 3244 343 
Q 2819 -91 2113 -91 
Q 1303 -91 875 529 
Q 447 1150 447 2328 
Q 447 3434 972 4092 
Q 1497 4750 2381 4750 
Q 2619 4750 2861 4703 
Q 3103 4656 3366 4563 
z
" transform="scale(0.015625)"/>
     </defs>
     <use xlink:href="#DejaVuSans-36"/>
     <use xlink:href="#DejaVuSans-30" x="63.623047"/>
    </g>
   </g>
   <g id="text_5">
    <!-- 80 -->
    <g transform="translate(65.089284 187.301281) scale(0.12 -0.12)">
     <defs>
      <path id="DejaVuSans-38" d="M 2034 2216 
Q 1584 2216 1326 1975 
Q 1069 1734 1069 1313 
Q 1069 891 1326 650 
Q 1584 409 2034 409 
Q 2484 409 2743 651 
Q 3003 894 3003 1313 
Q 3003 1734 2745 1975 
Q 2488 2216 2034 2216 
z
M 1403 2484 
Q 997 2584 770 2862 
Q 544 3141 544 3541 
Q 544 4100 942 4425 
Q 1341 4750 2034 4750 
Q 2731 4750 3128 4425 
Q 3525 4100 3525 3541 
Q 3525 3141 3298 2862 
Q 3072 2584 2669 2484 
Q 3125 2378 3379 2068 
Q 3634 1759 3634 1313 
Q 3634 634 3220 271 
Q 2806 -91 2034 -91 
Q 1263 -91 848 271 
Q 434 634 434 1313 
Q 434 1759 690 2068 
Q 947 2378 1403 2484 
z
M 1172 3481 
Q 1172 3119 1398 2916 
Q 1625 2713 2034 2713 
Q 2441 2713 2670 2916 
Q 2900 3119 2900 3481 
Q 2900 3844 2670 4047 
Q 2441 4250 2034 4250 
Q 1625 4250 1398 4047 
Q 1172 3844 1172 3481 
z
" transform="scale(0.015625)"/>
     </defs>
     <use xlink:href="#DejaVuSans-38"/>
     <use xlink:href="#DejaVuSans-30" x="63.623047"/>
    </g>
   </g>
   <g id="text_6">
    <!-- 100 -->
    <g transform="translate(28.80633 187.301281) scale(0.12 -0.12)">
     <defs>
      <path id="DejaVuSans-31" d="M 794 531 
L 1825 531 
L 1825 4091 
L 703 3866 
L 703 4441 
L 1819 4666 
L 2450 4666 
L 2450 531 
L 3481 531 
L 3481 0 
L 794 0 
L 794 531 
z
" transform="scale(0.015625)"/>
     </defs>
     <use xlink:href="#DejaVuSans-31"/>
     <use xlink:href="#DejaVuSans-30" x="63.623047"/>
     <use xlink:href="#DejaVuSans-30" x="127.246094"/>
    </g>
   </g>
   <g id="text_7">
    <!-- 0 -->
    <g transform="translate(22.884193 176.750008) scale(0.12 -0.12)">
     <use xlink:href="#DejaVuSans-30"/>
    </g>
   </g>
   <g id="text_8">
    <!-- 20 -->
    <g transform="translate(31.48192 148.634099) scale(0.12 -0.12)">
     <use xlink:href="#DejaVuSans-32"/>
     <use xlink:href="#DejaVuSans-30" x="63.623047"/>
    </g>
   </g>
   <g id="text_9">
    <!-- 40 -->
    <g transform="translate(47.714648 120.518191) scale(0.12 -0.12)">
     <use xlink:href="#DejaVuSans-34"/>
     <use xlink:href="#DejaVuSans-30" x="63.623047"/>
    </g>
   </g>
   <g id="text_10">
    <!-- 60 -->
    <g transform="translate(63.947375 92.402283) scale(0.12 -0.12)">
     <use xlink:href="#DejaVuSans-36"/>
     <use xlink:href="#DejaVuSans-30" x="63.623047"/>
    </g>
   </g>
   <g id="text_11">
    <!-- 80 -->
    <g transform="translate(80.180102 64.286374) scale(0.12 -0.12)">
     <use xlink:href="#DejaVuSans-38"/>
     <use xlink:href="#DejaVuSans-30" x="63.623047"/>
    </g>
   </g>
   <g id="text_12">
    <!-- 100 -->
    <g transform="translate(88.77783 36.170466) scale(0.12 -0.12)">
     <use xlink:href="#DejaVuSans-31"/>
     <use xlink:href="#DejaVuSans-30" x="63.623047"/>
     <use xlink:href="#DejaVuSans-30" x="127.246094"/>
    </g>
   </g>
   <g id="text_13">
    <!-- 0 -->
    <g transform="translate(118.987557 30.489011) scale(0.12 -0.12)">
     <use xlink:href="#DejaVuSans-30"/>
    </g>
   </g>
   <g id="text_14">
    <!-- 20 -->
    <g transform="translate(135.220284 58.60492) scale(0.12 -0.12)">
     <use xlink:href="#DejaVuSans-32"/>
     <use xlink:href="#DejaVuSans-30" x="63.623047"/>
    </g>
   </g>
   <g id="text_15">
    <!-- 40 -->
    <g transform="translate(151.453011 86.720828) scale(0.12 -0.12)">
     <use xlink:href="#DejaVuSans-34"/>
     <use xlink:href="#DejaVuSans-30" x="63.623047"/>
    </g>
   </g>
   <g id="text_16">
    <!-- 60 -->
    <g transform="translate(167.685739 114.836737) scale(0.12 -0.12)">
     <use xlink:href="#DejaVuSans-36"/>
     <use xlink:href="#DejaVuSans-30" x="63.623047"/>
    </g>
   </g>
   <g id="text_17">
    <!-- 80 -->
    <g transform="translate(183.918466 142.952645) scale(0.12 -0.12)">
     <use xlink:href="#DejaVuSans-38"/>
     <use xlink:href="#DejaVuSans-30" x="63.623047"/>
    </g>
   </g>
   <g id="text_18">
    <!-- 100 -->
    <g transform="translate(200.151193 171.068553) scale(0.12 -0.12)">
     <use xlink:href="#DejaVuSans-31"/>
     <use xlink:href="#DejaVuSans-30" x="63.623047"/>
     <use xlink:href="#DejaVuSans-30" x="127.246094"/>
    </g>
   </g>
   <g id="text_19">
    <!-- Au content (at.%) -->
    <g transform="translate(63.54171 200.352167) scale(0.12 -0.12)">
     <defs>
      <path id="DejaVuSans-41" d="M 2188 4044 
L 1331 1722 
L 3047 1722 
L 2188 4044 
z
M 1831 4666 
L 2547 4666 
L 4325 0 
L 3669 0 
L 3244 1197 
L 1141 1197 
L 716 0 
L 50 0 
L 1831 4666 
z
" transform="scale(0.015625)"/>
      <path id="DejaVuSans-75" d="M 544 1381 
L 544 3500 
L 1119 3500 
L 1119 1403 
Q 1119 906 1312 657 
Q 1506 409 1894 409 
Q 2359 409 2629 706 
Q 2900 1003 2900 1516 
L 2900 3500 
L 3475 3500 
L 3475 0 
L 2900 0 
L 2900 538 
Q 2691 219 2414 64 
Q 2138 -91 1772 -91 
Q 1169 -91 856 284 
Q 544 659 544 1381 
z
M 1991 3584 
L 1991 3584 
z
" transform="scale(0.015625)"/>
      <path id="DejaVuSans-20" transform="scale(0.015625)"/>
      <path id="DejaVuSans-63" d="M 3122 3366 
L 3122 2828 
Q 2878 2963 2633 3030 
Q 2388 3097 2138 3097 
Q 1578 3097 1268 2742 
Q 959 2388 959 1747 
Q 959 1106 1268 751 
Q 1578 397 2138 397 
Q 2388 397 2633 464 
Q 2878 531 3122 666 
L 3122 134 
Q 2881 22 2623 -34 
Q 2366 -91 2075 -91 
Q 1284 -91 818 406 
Q 353 903 353 1747 
Q 353 2603 823 3093 
Q 1294 3584 2113 3584 
Q 2378 3584 2631 3529 
Q 2884 3475 3122 3366 
z
" transform="scale(0.015625)"/>
      <path id="DejaVuSans-6f" d="M 1959 3097 
Q 1497 3097 1228 2736 
Q 959 2375 959 1747 
Q 959 1119 1226 758 
Q 1494 397 1959 397 
Q 2419 397 2687 759 
Q 2956 1122 2956 1747 
Q 2956 2369 2687 2733 
Q 2419 3097 1959 3097 
z
M 1959 3584 
Q 2709 3584 3137 3096 
Q 3566 2609 3566 1747 
Q 3566 888 3137 398 
Q 2709 -91 1959 -91 
Q 1206 -91 779 398 
Q 353 888 353 1747 
Q 353 2609 779 3096 
Q 1206 3584 1959 3584 
z
" transform="scale(0.015625)"/>
      <path id="DejaVuSans-6e" d="M 3513 2113 
L 3513 0 
L 2938 0 
L 2938 2094 
Q 2938 2591 2744 2837 
Q 2550 3084 2163 3084 
Q 1697 3084 1428 2787 
Q 1159 2491 1159 1978 
L 1159 0 
L 581 0 
L 581 3500 
L 1159 3500 
L 1159 2956 
Q 1366 3272 1645 3428 
Q 1925 3584 2291 3584 
Q 2894 3584 3203 3211 
Q 3513 2838 3513 2113 
z
" transform="scale(0.015625)"/>
      <path id="DejaVuSans-74" d="M 1172 4494 
L 1172 3500 
L 2356 3500 
L 2356 3053 
L 1172 3053 
L 1172 1153 
Q 1172 725 1289 603 
Q 1406 481 1766 481 
L 2356 481 
L 2356 0 
L 1766 0 
Q 1100 0 847 248 
Q 594 497 594 1153 
L 594 3053 
L 172 3053 
L 172 3500 
L 594 3500 
L 594 4494 
L 1172 4494 
z
" transform="scale(0.015625)"/>
      <path id="DejaVuSans-65" d="M 3597 1894 
L 3597 1613 
L 953 1613 
Q 991 1019 1311 708 
Q 1631 397 2203 397 
Q 2534 397 2845 478 
Q 3156 559 3463 722 
L 3463 178 
Q 3153 47 2828 -22 
Q 2503 -91 2169 -91 
Q 1331 -91 842 396 
Q 353 884 353 1716 
Q 353 2575 817 3079 
Q 1281 3584 2069 3584 
Q 2775 3584 3186 3129 
Q 3597 2675 3597 1894 
z
M 3022 2063 
Q 3016 2534 2758 2815 
Q 2500 3097 2075 3097 
Q 1594 3097 1305 2825 
Q 1016 2553 972 2059 
L 3022 2063 
z
" transform="scale(0.015625)"/>
      <path id="DejaVuSans-28" d="M 1984 4856 
Q 1566 4138 1362 3434 
Q 1159 2731 1159 2009 
Q 1159 1288 1364 580 
Q 1569 -128 1984 -844 
L 1484 -844 
Q 1016 -109 783 600 
Q 550 1309 550 2009 
Q 550 2706 781 3412 
Q 1013 4119 1484 4856 
L 1984 4856 
z
" transform="scale(0.015625)"/>
      <path id="DejaVuSans-61" d="M 2194 1759 
Q 1497 1759 1228 1600 
Q 959 1441 959 1056 
Q 959 750 1161 570 
Q 1363 391 1709 391 
Q 2188 391 2477 730 
Q 2766 1069 2766 1631 
L 2766 1759 
L 2194 1759 
z
M 3341 1997 
L 3341 0 
L 2766 0 
L 2766 531 
Q 2569 213 2275 61 
Q 1981 -91 1556 -91 
Q 1019 -91 701 211 
Q 384 513 384 1019 
Q 384 1609 779 1909 
Q 1175 2209 1959 2209 
L 2766 2209 
L 2766 2266 
Q 2766 2663 2505 2880 
Q 2244 3097 1772 3097 
Q 1472 3097 1187 3025 
Q 903 2953 641 2809 
L 641 3341 
Q 956 3463 1253 3523 
Q 1550 3584 1831 3584 
Q 2591 3584 2966 3190 
Q 3341 2797 3341 1997 
z
" transform="scale(0.015625)"/>
      <path id="DejaVuSans-2e" d="M 684 794 
L 1344 794 
L 1344 0 
L 684 0 
L 684 794 
z
" transform="scale(0.015625)"/>
      <path id="DejaVuSans-25" d="M 4653 2053 
Q 4381 2053 4226 1822 
Q 4072 1591 4072 1178 
Q 4072 772 4226 539 
Q 4381 306 4653 306 
Q 4919 306 5073 539 
Q 5228 772 5228 1178 
Q 5228 1588 5073 1820 
Q 4919 2053 4653 2053 
z
M 4653 2450 
Q 5147 2450 5437 2106 
Q 5728 1763 5728 1178 
Q 5728 594 5436 251 
Q 5144 -91 4653 -91 
Q 4153 -91 3862 251 
Q 3572 594 3572 1178 
Q 3572 1766 3864 2108 
Q 4156 2450 4653 2450 
z
M 1428 4353 
Q 1159 4353 1004 4120 
Q 850 3888 850 3481 
Q 850 3069 1003 2837 
Q 1156 2606 1428 2606 
Q 1700 2606 1854 2837 
Q 2009 3069 2009 3481 
Q 2009 3884 1853 4118 
Q 1697 4353 1428 4353 
z
M 4250 4750 
L 4750 4750 
L 1831 -91 
L 1331 -91 
L 4250 4750 
z
M 1428 4750 
Q 1922 4750 2215 4408 
Q 2509 4066 2509 3481 
Q 2509 2891 2217 2550 
Q 1925 2209 1428 2209 
Q 931 2209 642 2551 
Q 353 2894 353 3481 
Q 353 4063 643 4406 
Q 934 4750 1428 4750 
z
" transform="scale(0.015625)"/>
      <path id="DejaVuSans-29" d="M 513 4856 
L 1013 4856 
Q 1481 4119 1714 3412 
Q 1947 2706 1947 2009 
Q 1947 1309 1714 600 
Q 1481 -109 1013 -844 
L 513 -844 
Q 928 -128 1133 580 
Q 1338 1288 1338 2009 
Q 1338 2731 1133 3434 
Q 928 4138 513 4856 
z
" transform="scale(0.015625)"/>
     </defs>
     <use xlink:href="#DejaVuSans-41"/>
     <use xlink:href="#DejaVuSans-75" x="68.408203"/>
     <use xlink:href="#DejaVuSans-20" x="131.787109"/>
     <use xlink:href="#DejaVuSans-63" x="163.574219"/>
     <use xlink:href="#DejaVuSans-6f" x="218.554688"/>
     <use xlink:href="#DejaVuSans-6e" x="279.736328"/>
     <use xlink:href="#DejaVuSans-74" x="343.115234"/>
     <use xlink:href="#DejaVuSans-65" x="382.324219"/>
     <use xlink:href="#DejaVuSans-6e" x="443.847656"/>
     <use xlink:href="#DejaVuSans-74" x="507.226562"/>
     <use xlink:href="#DejaVuSans-20" x="546.435547"/>
     <use xlink:href="#DejaVuSans-28" x="578.222656"/>
     <use xlink:href="#DejaVuSans-61" x="617.236328"/>
     <use xlink:href="#DejaVuSans-74" x="678.515625"/>
     <use xlink:href="#DejaVuSans-2e" x="717.724609"/>
     <use xlink:href="#DejaVuSans-25" x="749.511719"/>
     <use xlink:href="#DejaVuSans-29" x="844.53125"/>
    </g>
   </g>
   <g id="text_20">
    <!-- Cu content (at.%) -->
    <g transform="translate(152.067805 48.824386) rotate(-300) scale(0.12 -0.12)">
     <defs>
      <path id="DejaVuSans-43" d="M 4122 4306 
L 4122 3641 
Q 3803 3938 3442 4084 
Q 3081 4231 2675 4231 
Q 1875 4231 1450 3742 
Q 1025 3253 1025 2328 
Q 1025 1406 1450 917 
Q 1875 428 2675 428 
Q 3081 428 3442 575 
Q 3803 722 4122 1019 
L 4122 359 
Q 3791 134 3420 21 
Q 3050 -91 2638 -91 
Q 1578 -91 968 557 
Q 359 1206 359 2328 
Q 359 3453 968 4101 
Q 1578 4750 2638 4750 
Q 3056 4750 3426 4639 
Q 3797 4528 4122 4306 
z
" transform="scale(0.015625)"/>
     </defs>
     <use xlink:href="#DejaVuSans-43"/>
     <use xlink:href="#DejaVuSans-75" x="69.824219"/>
     <use xlink:href="#DejaVuSans-20" x="133.203125"/>
     <use xlink:href="#DejaVuSans-63" x="164.990234"/>
     <use xlink:href="#DejaVuSans-6f" x="219.970703"/>
     <use xlink:href="#DejaVuSans-6e" x="281.152344"/>
     <use xlink:href="#DejaVuSans-74" x="344.53125"/>
     <use xlink:href="#DejaVuSans-65" x="383.740234"/>
     <use xlink:href="#DejaVuSans-6e" x="445.263672"/>
     <use xlink:href="#DejaVuSans-74" x="508.642578"/>
     <use xlink:href="#DejaVuSans-20" x="547.851562"/>
     <use xlink:href="#DejaVuSans-28" x="579.638672"/>
     <use xlink:href="#DejaVuSans-61" x="618.652344"/>
     <use xlink:href="#DejaVuSans-74" x="679.931641"/>
     <use xlink:href="#DejaVuSans-2e" x="719.140625"/>
     <use xlink:href="#DejaVuSans-25" x="750.927734"/>
     <use xlink:href="#DejaVuSans-29" x="845.947266"/>
    </g>
   </g>
   <g id="text_21">
    <!-- Pd content (at.%) -->
    <g transform="translate(28.223897 140.300214) rotate(-60) scale(0.12 -0.12)">
     <defs>
      <path id="DejaVuSans-50" d="M 1259 4147 
L 1259 2394 
L 2053 2394 
Q 2494 2394 2734 2622 
Q 2975 2850 2975 3272 
Q 2975 3691 2734 3919 
Q 2494 4147 2053 4147 
L 1259 4147 
z
M 628 4666 
L 2053 4666 
Q 2838 4666 3239 4311 
Q 3641 3956 3641 3272 
Q 3641 2581 3239 2228 
Q 2838 1875 2053 1875 
L 1259 1875 
L 1259 0 
L 628 0 
L 628 4666 
z
" transform="scale(0.015625)"/>
      <path id="DejaVuSans-64" d="M 2906 2969 
L 2906 4863 
L 3481 4863 
L 3481 0 
L 2906 0 
L 2906 525 
Q 2725 213 2448 61 
Q 2172 -91 1784 -91 
Q 1150 -91 751 415 
Q 353 922 353 1747 
Q 353 2572 751 3078 
Q 1150 3584 1784 3584 
Q 2172 3584 2448 3432 
Q 2725 3281 2906 2969 
z
M 947 1747 
Q 947 1113 1208 752 
Q 1469 391 1925 391 
Q 2381 391 2643 752 
Q 2906 1113 2906 1747 
Q 2906 2381 2643 2742 
Q 2381 3103 1925 3103 
Q 1469 3103 1208 2742 
Q 947 2381 947 1747 
z
" transform="scale(0.015625)"/>
     </defs>
     <use xlink:href="#DejaVuSans-50"/>
     <use xlink:href="#DejaVuSans-64" x="60.302734"/>
     <use xlink:href="#DejaVuSans-20" x="123.779297"/>
     <use xlink:href="#DejaVuSans-63" x="155.566406"/>
     <use xlink:href="#DejaVuSans-6f" x="210.546875"/>
     <use xlink:href="#DejaVuSans-6e" x="271.728516"/>
     <use xlink:href="#DejaVuSans-74" x="335.107422"/>
     <use xlink:href="#DejaVuSans-65" x="374.316406"/>
     <use xlink:href="#DejaVuSans-6e" x="435.839844"/>
     <use xlink:href="#DejaVuSans-74" x="499.21875"/>
     <use xlink:href="#DejaVuSans-20" x="538.427734"/>
     <use xlink:href="#DejaVuSans-28" x="570.214844"/>
     <use xlink:href="#DejaVuSans-61" x="609.228516"/>
     <use xlink:href="#DejaVuSans-74" x="670.507812"/>
     <use xlink:href="#DejaVuSans-2e" x="709.716797"/>
     <use xlink:href="#DejaVuSans-25" x="741.503906"/>
     <use xlink:href="#DejaVuSans-29" x="836.523438"/>
    </g>
   </g>
   <g id="text_22">
    <!-- Au -->
    <g transform="translate(7.2 194.692548) scale(0.14 -0.14)">
     <use xlink:href="#DejaVuSans-41"/>
     <use xlink:href="#DejaVuSans-75" x="68.408203"/>
    </g>
   </g>
   <g id="text_23">
    <!-- Cu -->
    <g transform="translate(207.45592 194.692548) scale(0.14 -0.14)">
     <use xlink:href="#DejaVuSans-43"/>
     <use xlink:href="#DejaVuSans-75" x="69.824219"/>
    </g>
   </g>
   <g id="text_24">
    <!-- Pd -->
    <g transform="translate(107.88796 17.837812) scale(0.14 -0.14)">
     <use xlink:href="#DejaVuSans-50"/>
     <use xlink:href="#DejaVuSans-64" x="60.302734"/>
    </g>
   </g>
  </g>
  <g id="axes_2">
   <g id="patch_3">
    <path d="M 216.992648 120.657328 
L 222.536648 120.657328 
L 222.536648 9.777328 
L 216.992648 9.777328 
z
" style="fill: #ffffff"/>
   </g>
   <g id="QuadMesh_1">
    <path d="M 216.992648 120.657328 
L 222.536648 120.657328 
L 222.536648 112.128097 
L 216.992648 112.128097 
L 216.992648 120.657328 
" clip-path="url(#pfb57c54479)" style="fill: #00295c; stroke: #00295c"/>
    <path d="M 216.992648 112.128097 
L 222.536648 112.128097 
L 222.536648 103.598866 
L 216.992648 103.598866 
L 216.992648 112.128097 
" clip-path="url(#pfb57c54479)" style="fill: #133670; stroke: #133670"/>
    <path d="M 216.992648 103.598866 
L 222.536648 103.598866 
L 222.536648 95.069635 
L 216.992648 95.069635 
L 216.992648 103.598866 
" clip-path="url(#pfb57c54479)" style="fill: #33446c; stroke: #33446c"/>
    <path d="M 216.992648 95.069635 
L 222.536648 95.069635 
L 222.536648 86.540405 
L 216.992648 86.540405 
L 216.992648 95.069635 
" clip-path="url(#pfb57c54479)" style="fill: #47516c; stroke: #47516c"/>
    <path d="M 216.992648 86.540405 
L 222.536648 86.540405 
L 222.536648 78.011174 
L 216.992648 78.011174 
L 216.992648 86.540405 
" clip-path="url(#pfb57c54479)" style="fill: #5a5f6e; stroke: #5a5f6e"/>
    <path d="M 216.992648 78.011174 
L 222.536648 78.011174 
L 222.536648 69.481943 
L 216.992648 69.481943 
L 216.992648 78.011174 
" clip-path="url(#pfb57c54479)" style="fill: #6b6d72; stroke: #6b6d72"/>
    <path d="M 216.992648 69.481943 
L 222.536648 69.481943 
L 222.536648 60.952712 
L 216.992648 60.952712 
L 216.992648 69.481943 
" clip-path="url(#pfb57c54479)" style="fill: #7d7c78; stroke: #7d7c78"/>
    <path d="M 216.992648 60.952712 
L 222.536648 60.952712 
L 222.536648 52.423482 
L 216.992648 52.423482 
L 216.992648 60.952712 
" clip-path="url(#pfb57c54479)" style="fill: #8f8a78; stroke: #8f8a78"/>
    <path d="M 216.992648 52.423482 
L 222.536648 52.423482 
L 222.536648 43.894251 
L 216.992648 43.894251 
L 216.992648 52.423482 
" clip-path="url(#pfb57c54479)" style="fill: #a39a75; stroke: #a39a75"/>
    <path d="M 216.992648 43.894251 
L 222.536648 43.894251 
L 222.536648 35.36502 
L 216.992648 35.36502 
L 216.992648 43.894251 
" clip-path="url(#pfb57c54479)" style="fill: #b7aa6e; stroke: #b7aa6e"/>
    <path d="M 216.992648 35.36502 
L 222.536648 35.36502 
L 222.536648 26.835789 
L 216.992648 26.835789 
L 216.992648 35.36502 
" clip-path="url(#pfb57c54479)" style="fill: #cab965; stroke: #cab965"/>
    <path d="M 216.992648 26.835789 
L 222.536648 26.835789 
L 222.536648 18.306559 
L 216.992648 18.306559 
L 216.992648 26.835789 
" clip-path="url(#pfb57c54479)" style="fill: #e0cb56; stroke: #e0cb56"/>
    <path d="M 216.992648 18.306559 
L 222.536648 18.306559 
L 222.536648 9.777328 
L 216.992648 9.777328 
L 216.992648 18.306559 
" clip-path="url(#pfb57c54479)" style="fill: #f8de3d; stroke: #f8de3d"/>
   </g>
   <g id="matplotlib.axis_3"/>
   <g id="matplotlib.axis_4">
    <g id="ytick_6">
     <g id="line2d_22">
      <defs>
       <path id="me3e21812df" d="M 0 0 
L 3.5 0 
" style="stroke: #000000; stroke-width: 0.8"/>
      </defs>
      <g>
       <use xlink:href="#me3e21812df" x="222.536648" y="120.657328" style="stroke: #000000; stroke-width: 0.8"/>
      </g>
     </g>
     <g id="text_25">
      <!-- 0.00 -->
      <g transform="translate(229.536648 124.456547) scale(0.1 -0.1)">
       <use xlink:href="#DejaVuSans-30"/>
       <use xlink:href="#DejaVuSans-2e" x="63.623047"/>
       <use xlink:href="#DejaVuSans-30" x="95.410156"/>
       <use xlink:href="#DejaVuSans-30" x="159.033203"/>
      </g>
     </g>
    </g>
    <g id="ytick_7">
     <g id="line2d_23">
      <g>
       <use xlink:href="#me3e21812df" x="222.536648" y="103.598866" style="stroke: #000000; stroke-width: 0.8"/>
      </g>
     </g>
     <g id="text_26">
      <!-- 0.04 -->
      <g transform="translate(229.536648 107.398085) scale(0.1 -0.1)">
       <use xlink:href="#DejaVuSans-30"/>
       <use xlink:href="#DejaVuSans-2e" x="63.623047"/>
       <use xlink:href="#DejaVuSans-30" x="95.410156"/>
       <use xlink:href="#DejaVuSans-34" x="159.033203"/>
      </g>
     </g>
    </g>
    <g id="ytick_8">
     <g id="line2d_24">
      <g>
       <use xlink:href="#me3e21812df" x="222.536648" y="86.540405" style="stroke: #000000; stroke-width: 0.8"/>
      </g>
     </g>
     <g id="text_27">
      <!-- 0.08 -->
      <g transform="translate(229.536648 90.339623) scale(0.1 -0.1)">
       <use xlink:href="#DejaVuSans-30"/>
       <use xlink:href="#DejaVuSans-2e" x="63.623047"/>
       <use xlink:href="#DejaVuSans-30" x="95.410156"/>
       <use xlink:href="#DejaVuSans-38" x="159.033203"/>
      </g>
     </g>
    </g>
    <g id="ytick_9">
     <g id="line2d_25">
      <g>
       <use xlink:href="#me3e21812df" x="222.536648" y="69.481943" style="stroke: #000000; stroke-width: 0.8"/>
      </g>
     </g>
     <g id="text_28">
      <!-- 0.12 -->
      <g transform="translate(229.536648 73.281162) scale(0.1 -0.1)">
       <use xlink:href="#DejaVuSans-30"/>
       <use xlink:href="#DejaVuSans-2e" x="63.623047"/>
       <use xlink:href="#DejaVuSans-31" x="95.410156"/>
       <use xlink:href="#DejaVuSans-32" x="159.033203"/>
      </g>
     </g>
    </g>
    <g id="ytick_10">
     <g id="line2d_26">
      <g>
       <use xlink:href="#me3e21812df" x="222.536648" y="52.423482" style="stroke: #000000; stroke-width: 0.8"/>
      </g>
     </g>
     <g id="text_29">
      <!-- 0.16 -->
      <g transform="translate(229.536648 56.2227) scale(0.1 -0.1)">
       <use xlink:href="#DejaVuSans-30"/>
       <use xlink:href="#DejaVuSans-2e" x="63.623047"/>
       <use xlink:href="#DejaVuSans-31" x="95.410156"/>
       <use xlink:href="#DejaVuSans-36" x="159.033203"/>
      </g>
     </g>
    </g>
    <g id="ytick_11">
     <g id="line2d_27">
      <g>
       <use xlink:href="#me3e21812df" x="222.536648" y="35.36502" style="stroke: #000000; stroke-width: 0.8"/>
      </g>
     </g>
     <g id="text_30">
      <!-- 0.20 -->
      <g transform="translate(229.536648 39.164239) scale(0.1 -0.1)">
       <use xlink:href="#DejaVuSans-30"/>
       <use xlink:href="#DejaVuSans-2e" x="63.623047"/>
       <use xlink:href="#DejaVuSans-32" x="95.410156"/>
       <use xlink:href="#DejaVuSans-30" x="159.033203"/>
      </g>
     </g>
    </g>
    <g id="ytick_12">
     <g id="line2d_28">
      <g>
       <use xlink:href="#me3e21812df" x="222.536648" y="18.306559" style="stroke: #000000; stroke-width: 0.8"/>
      </g>
     </g>
     <g id="text_31">
      <!-- 0.24 -->
      <g transform="translate(229.536648 22.105777) scale(0.1 -0.1)">
       <use xlink:href="#DejaVuSans-30"/>
       <use xlink:href="#DejaVuSans-2e" x="63.623047"/>
       <use xlink:href="#DejaVuSans-32" x="95.410156"/>
       <use xlink:href="#DejaVuSans-34" x="159.033203"/>
      </g>
     </g>
    </g>
   </g>
   <g id="LineCollection_1"/>
   <g id="patch_4">
    <path d="M 216.992648 120.657328 
L 219.764648 120.657328 
L 222.536648 120.657328 
L 222.536648 9.777328 
L 219.764648 9.777328 
L 216.992648 9.777328 
L 216.992648 120.657328 
z
" style="fill: none; stroke: #000000; stroke-width: 0.8; stroke-linejoin: miter; stroke-linecap: square"/>
   </g>
  </g>
 </g>
 <defs>
  <clipPath id="p37b0a0b14e">
   <rect x="27.272648" y="25.619193" width="178.56" height="156.812269"/>
  </clipPath>
  <clipPath id="pfb57c54479">
   <rect x="216.992648" y="9.777328" width="5.544" height="110.88"/>
  </clipPath>
 </defs>
</svg>
