<?xml version="1.0" encoding="utf-8" standalone="no"?>
<!DOCTYPE svg PUBLIC "-//W3C//DTD SVG 1.1//EN"
  "http://www.w3.org/Graphics/SVG/1.1/DTD/svg11.dtd">
<svg xmlns:xlink="http://www.w3.org/1999/xlink" width="259.002273pt" height="211.269683pt" viewBox="0 0 259.002273 211.269683" xmlns="http://www.w3.org/2000/svg" version="1.1">
 <metadata>
  <rdf:RDF xmlns:dc="http://purl.org/dc/elements/1.1/" xmlns:cc="http://creativecommons.org/ns#" xmlns:rdf="http://www.w3.org/1999/02/22-rdf-syntax-ns#">
   <cc:Work>
    <dc:type rdf:resource="http://purl.org/dc/dcmitype/StillImage"/>
    <dc:date>2024-01-12T09:43:13.369649</dc:date>
    <dc:format>image/svg+xml</dc:format>
    <dc:creator>
     <cc:Agent>
      <dc:title>Matplotlib v3.7.0, https://matplotlib.org/</dc:title>
     </cc:Agent>
    </dc:creator>
   </cc:Work>
  </rdf:RDF>
 </metadata>
 <defs>
  <style type="text/css">*{stroke-linejoin: round; stroke-linecap: butt}</style>
 </defs>
 <g id="figure_1">
  <g id="patch_1">
   <path d="M 0 211.269683 
L 259.002273 211.269683 
L 259.002273 0 
L 0 0 
z
" style="fill: #ffffff"/>
  </g>
  <g id="axes_1">
   <g id="patch_2">
    <path d="M 27.272648 183.653353 
L 205.832648 183.653353 
L 205.832648 26.841084 
L 27.272648 26.841084 
z
" style="fill: #ffffff"/>
   </g>
   <g id="PathCollection_1">
    <defs>
     <path id="m150e39f22b" d="M 102.67249 -152.271096 
L 107.870026 -148.196327 
L 108.222696 -147.826381 
L 109.595765 -141.16735 
L 111.528232 -139.493784 
L 113.910111 -138.715381 
L 118.91992 -138.238609 
L 123.992648 -135.309869 
L 125.000292 -134.712167 
L 125.390466 -134.138373 
L 130.320405 -129.86892 
L 136.080136 -128.431678 
L 137.486102 -128.222317 
L 139.699314 -127.109395 
L 143.973557 -125.400963 
L 147.367316 -122.939663 
L 144.95992 -127.109395 
L 140.901739 -134.138373 
L 136.843557 -141.16735 
L 132.785375 -148.196327 
L 128.727193 -155.225304 
L 124.669011 -162.254281 
L 120.61083 -169.283258 
L 116.552648 -176.312235 
L 112.494466 -169.283258 
L 108.436284 -162.254281 
L 104.378102 -155.225304 
M 76.376648 -35.732693 
L 76.047399 -35.865315 
L 75.717193 -36.172004 
L 70.872088 -40.959368 
L 67.854466 -42.76167 
L 64.500015 -43.980568 
L 61.979188 -45.908973 
L 58.266017 -47.24092 
L 52.988269 -47.423747 
L 50.716874 -48.223375 
L 48.47068 -49.790647 
L 45.356475 -52.996847 
L 43.505375 -49.790647 
L 39.447193 -42.76167 
L 35.389011 -35.732693 
L 43.505375 -35.732693 
L 51.621739 -35.732693 
L 59.738102 -35.732693 
L 67.854466 -35.732693 
L 75.97083 -35.732693 
" style="stroke: #088466"/>
    </defs>
    <g clip-path="url(#pa6cd8d356a)">
     <use xlink:href="#m150e39f22b" x="0" y="211.269683" style="fill: #088466; stroke: #088466"/>
    </g>
   </g>
   <g id="PathCollection_2">
    <defs>
     <path id="m1c103db5a5" d="M 147.367316 -122.939663 
L 143.973557 -125.400963 
L 139.699314 -127.109395 
L 137.486102 -128.222317 
L 136.080136 -128.431678 
L 130.320405 -129.86892 
L 125.390466 -134.138373 
L 125.000292 -134.712167 
L 123.992648 -135.309869 
L 118.91992 -138.238609 
L 113.910111 -138.715381 
L 111.528232 -139.493784 
L 109.595765 -141.16735 
L 108.222696 -147.826381 
L 107.870026 -148.196327 
L 102.67249 -152.271096 
L 100.31992 -148.196327 
L 96.261739 -141.16735 
L 92.203557 -134.138373 
L 91.834631 -133.499375 
L 92.894311 -132.941951 
L 98.29083 -130.623884 
L 104.000597 -127.763254 
L 104.657977 -127.594152 
L 105.460284 -127.109395 
L 111.771776 -125.85766 
L 114.069283 -124.381733 
L 118.16804 -122.878361 
L 122.984483 -122.998107 
L 125.935394 -122.273858 
L 132.063156 -121.331338 
L 133.346045 -121.051527 
L 135.534466 -120.080418 
L 139.923001 -118.385194 
L 142.288284 -117.678851 
L 146.523805 -115.760169 
L 152.951417 -113.267717 
L 149.018102 -120.080418 
M 45.356475 -52.996847 
L 48.47068 -49.790647 
L 50.716874 -48.223375 
L 52.988269 -47.423747 
L 58.266017 -47.24092 
L 61.979188 -45.908973 
L 64.500015 -43.980568 
L 67.854466 -42.76167 
L 70.872088 -40.959368 
L 75.717193 -36.172004 
L 76.047399 -35.865315 
L 76.376648 -35.732693 
L 84.087193 -35.732693 
L 91.133959 -35.732693 
L 87.87483 -42.293072 
L 86.942951 -42.76167 
L 81.498904 -45.307599 
L 76.166405 -49.790647 
L 76.076237 -49.973218 
L 75.934269 -49.853971 
L 67.979608 -50.0074 
L 67.49027 -50.421453 
L 62.230355 -54.107356 
L 58.201509 -56.819624 
L 56.26226 -57.828267 
L 53.65083 -60.334113 
L 50.539557 -61.974208 
L 47.563557 -56.819624 
" style="stroke: #1a8d66"/>
    </defs>
    <g clip-path="url(#pa6cd8d356a)">
     <use xlink:href="#m1c103db5a5" x="0" y="211.269683" style="fill: #1a8d66; stroke: #1a8d66"/>
    </g>
   </g>
   <g id="PathCollection_3">
    <defs>
     <path id="ma4f10b18a1" d="M 152.951417 -113.267717 
L 146.523805 -115.760169 
L 142.288284 -117.678851 
L 139.923001 -118.385194 
L 135.534466 -120.080418 
L 133.346045 -121.051527 
L 132.063156 -121.331338 
L 125.935394 -122.273858 
L 122.984483 -122.998107 
L 118.16804 -122.878361 
L 114.069283 -124.381733 
L 111.771776 -125.85766 
L 105.460284 -127.109395 
L 104.657977 -127.594152 
L 104.000597 -127.763254 
L 98.29083 -130.623884 
L 92.894311 -132.941951 
L 91.834631 -133.499375 
L 88.145375 -127.109395 
L 84.087193 -120.080418 
L 82.277463 -116.945874 
L 85.947193 -116.858804 
L 89.865691 -116.031116 
L 94.892102 -115.423721 
L 97.921904 -115.926932 
L 101.720532 -117.654488 
L 107.265655 -118.052829 
L 109.997123 -117.376966 
L 113.735184 -115.200428 
L 119.521385 -114.938415 
L 121.72266 -114.977188 
L 126.976605 -113.051441 
L 128.467658 -112.601914 
L 128.946017 -112.672428 
L 136.445324 -112.361682 
L 137.584616 -111.767889 
L 143.213673 -110.026851 
L 148.607147 -106.734259 
L 149.228917 -106.387606 
L 151.723557 -106.022464 
L 156.9359 -105.678539 
L 157.446634 -105.481774 
L 157.134466 -106.022464 
L 153.076284 -113.051441 
M 50.539557 -61.974208 
L 53.65083 -60.334113 
L 56.26226 -57.828267 
L 58.201509 -56.819624 
L 62.230355 -54.107356 
L 67.49027 -50.421453 
L 67.979608 -50.0074 
L 75.934269 -49.853971 
L 76.076237 -49.973218 
L 76.166405 -49.790647 
L 81.498904 -45.307599 
L 86.942951 -42.76167 
L 87.87483 -42.293072 
L 91.133959 -35.732693 
L 92.203557 -35.732693 
L 100.31992 -35.732693 
L 99.430985 -42.76167 
L 97.246268 -44.466925 
L 92.328424 -49.790647 
L 92.239791 -49.853406 
L 92.023193 -50.103046 
L 86.587323 -54.120999 
L 85.187717 -56.819624 
L 82.172417 -60.532112 
L 78.572726 -59.341985 
L 75.830892 -56.819624 
L 73.192255 -54.60328 
L 70.661226 -54.652098 
L 68.099591 -56.819624 
L 66.536424 -61.565686 
L 61.124648 -61.447034 
L 58.991979 -62.556278 
L 57.645203 -63.848602 
L 57.54882 -67.64055 
L 57.934466 -70.877579 
L 57.625624 -74.247636 
L 55.67992 -70.877579 
L 51.621739 -63.848602 
" style="stroke: #2c9666"/>
    </defs>
    <g clip-path="url(#pa6cd8d356a)">
     <use xlink:href="#ma4f10b18a1" x="0" y="211.269683" style="fill: #2c9666; stroke: #2c9666"/>
    </g>
   </g>
   <g id="PathCollection_4">
    <defs>
     <path id="m9de7af0b4a" d="M 157.446634 -105.481774 
L 156.9359 -105.678539 
L 151.723557 -106.022464 
L 149.228917 -106.387606 
L 148.607147 -106.734259 
L 143.213673 -110.026851 
L 137.584616 -111.767889 
L 136.445324 -112.361682 
L 128.946017 -112.672428 
L 128.467658 -112.601914 
L 126.976605 -113.051441 
L 121.72266 -114.977188 
L 119.521385 -114.938415 
L 113.735184 -115.200428 
L 109.997123 -117.376966 
L 107.265655 -118.052829 
L 101.720532 -117.654488 
L 97.921904 -115.926932 
L 94.892102 -115.423721 
L 89.865691 -116.031116 
L 85.947193 -116.858804 
L 82.277463 -116.945874 
L 80.029011 -113.051441 
L 75.97083 -106.022464 
L 72.724284 -100.399282 
L 78.733847 -101.236778 
L 80.093427 -106.022464 
L 83.188596 -107.57888 
L 84.973134 -107.556959 
L 90.342732 -109.245507 
L 93.961479 -109.067274 
L 98.770062 -108.706898 
L 102.349011 -109.536953 
L 106.806621 -108.845124 
L 109.789011 -108.365457 
L 114.859806 -108.954552 
L 118.171485 -108.826373 
L 124.300086 -106.661462 
L 124.928546 -106.471992 
L 131.929974 -107.504062 
L 133.600804 -107.434829 
L 136.310664 -106.022464 
L 139.481375 -103.562322 
L 142.04374 -104.044461 
L 146.996131 -102.520307 
L 150.919956 -102.728356 
L 155.074349 -102.454237 
L 160.373207 -100.4128 
M 66.711316 -89.984516 
L 68.751302 -90.411145 
L 69.775499 -91.96451 
L 71.236284 -97.821991 
L 67.854466 -91.96451 
M 57.625624 -74.247636 
L 57.934466 -70.877579 
L 57.54882 -67.64055 
L 57.645203 -63.848602 
L 58.991979 -62.556278 
L 61.124648 -61.447034 
L 66.536424 -61.565686 
L 68.099591 -56.819624 
L 70.661226 -54.652098 
L 73.192255 -54.60328 
L 75.830892 -56.819624 
L 78.572726 -59.341985 
L 82.172417 -60.532112 
L 85.187717 -56.819624 
L 86.587323 -54.120999 
L 92.023193 -50.103046 
L 92.239791 -49.853406 
L 92.328424 -49.790647 
L 97.246268 -44.466925 
L 99.430985 -42.76167 
L 100.31992 -35.732693 
L 108.436284 -35.732693 
L 115.112648 -35.732693 
L 111.974186 -41.860519 
L 111.289065 -42.76167 
L 106.114439 -45.769093 
L 101.623278 -49.790647 
L 100.957635 -50.895201 
L 99.370133 -51.435727 
L 94.957323 -54.56031 
L 92.997056 -56.819624 
L 93.280217 -61.983771 
L 93.129107 -63.848602 
L 92.580388 -64.501292 
L 91.826726 -64.501292 
L 85.086686 -65.579774 
L 82.475571 -66.640014 
L 76.428089 -64.640599 
L 75.249375 -65.098197 
L 70.298102 -68.081104 
L 67.396776 -70.877579 
L 69.430784 -75.176292 
L 69.653848 -77.906556 
L 68.869011 -79.6638 
L 66.574368 -80.12375 
L 61.862011 -81.585273 
L 59.738102 -77.906556 
" style="stroke: #409f66"/>
    </defs>
    <g clip-path="url(#pa6cd8d356a)">
     <use xlink:href="#m9de7af0b4a" x="0" y="211.269683" style="fill: #409f66; stroke: #409f66"/>
    </g>
   </g>
   <g id="PathCollection_5">
    <defs>
     <path id="m9ad0bdc024" d="M 160.373207 -100.4128 
L 155.074349 -102.454237 
L 150.919956 -102.728356 
L 146.996131 -102.520307 
L 142.04374 -104.044461 
L 139.481375 -103.562322 
L 136.310664 -106.022464 
L 133.600804 -107.434829 
L 131.929974 -107.504062 
L 124.928546 -106.471992 
L 124.300086 -106.661462 
L 118.171485 -108.826373 
L 114.859806 -108.954552 
L 109.789011 -108.365457 
L 106.806621 -108.845124 
L 102.349011 -109.536953 
L 98.770062 -108.706898 
L 93.961479 -109.067274 
L 90.342732 -109.245507 
L 84.973134 -107.556959 
L 83.188596 -107.57888 
L 80.093427 -106.022464 
L 78.733847 -101.236778 
L 72.724284 -100.399282 
L 71.912648 -98.993487 
L 71.236284 -97.821991 
L 69.775499 -91.96451 
L 68.751302 -90.411145 
L 66.711316 -89.984516 
L 63.796284 -84.935533 
L 61.862011 -81.585273 
L 66.574368 -80.12375 
L 68.869011 -79.6638 
L 69.653848 -77.906556 
L 69.430784 -75.176292 
L 67.396776 -70.877579 
L 70.298102 -68.081104 
L 75.249375 -65.098197 
L 76.428089 -64.640599 
L 82.475571 -66.640014 
L 85.086686 -65.579774 
L 91.826726 -64.501292 
L 92.580388 -64.501292 
L 93.129107 -63.848602 
L 93.280217 -61.983771 
L 92.997056 -56.819624 
L 94.957323 -54.56031 
L 99.370133 -51.435727 
L 100.957635 -50.895201 
L 101.623278 -49.790647 
L 106.114439 -45.769093 
L 111.289065 -42.76167 
L 111.974186 -41.860519 
L 115.112648 -35.732693 
L 116.552648 -35.732693 
L 123.16981 -35.732693 
L 123.968492 -36.946029 
L 127.936638 -42.76167 
L 126.882565 -45.95666 
L 125.388689 -49.790647 
L 125.210102 -50.727844 
L 124.158191 -50.675414 
L 116.93494 -50.452797 
L 114.148757 -56.819624 
L 113.719577 -58.94158 
L 111.303073 -58.883177 
L 105.569495 -58.883177 
L 102.832128 -59.49733 
L 98.696648 -61.037011 
L 98.46882 -63.848602 
L 94.754414 -68.266816 
L 89.6527 -68.266816 
L 86.892998 -68.708399 
L 81.55083 -70.877579 
L 85.331702 -75.751003 
L 86.296381 -77.906556 
L 89.445787 -82.683153 
L 90.636111 -84.935533 
L 90.123312 -88.361421 
L 84.467648 -91.305543 
L 84.379382 -84.935533 
L 82.43519 -80.767909 
L 77.966657 -77.906556 
L 77.531669 -75.203103 
L 75.301898 -76.747933 
L 75.396559 -77.906556 
L 73.434466 -82.299666 
L 72.873796 -84.935533 
L 76.939259 -90.28714 
L 82.283557 -91.96451 
L 83.914505 -92.263615 
L 84.323592 -92.373965 
L 90.63679 -94.678229 
L 93.842955 -94.80403 
L 98.550969 -91.96451 
L 99.853778 -91.157127 
L 100.661451 -91.372962 
L 101.803557 -91.96451 
L 104.675042 -98.479172 
L 111.240119 -96.820894 
L 113.205694 -97.761604 
L 116.4367 -98.993487 
L 119.317957 -101.232807 
L 121.445656 -100.439448 
L 125.923358 -98.993487 
L 127.725824 -97.259064 
L 129.135159 -98.28687 
L 135.979314 -97.496575 
L 137.758637 -97.408522 
L 144.787755 -98.695288 
L 145.180132 -98.61207 
L 148.116284 -98.993487 
L 152.928957 -99.248664 
L 153.212798 -99.229936 
L 153.826536 -98.993487 
L 159.270351 -95.663972 
L 163.299781 -95.343826 
L 161.192648 -98.993487 
" style="stroke: #52a866"/>
    </defs>
    <g clip-path="url(#pa6cd8d356a)">
     <use xlink:href="#m9ad0bdc024" x="0" y="211.269683" style="fill: #52a866; stroke: #52a866"/>
    </g>
   </g>
   <g id="PathCollection_6">
    <defs>
     <path id="ma063f87b47" d="M 163.299781 -95.343826 
L 159.270351 -95.663972 
L 153.826536 -98.993487 
L 153.212798 -99.229936 
L 152.928957 -99.248664 
L 148.116284 -98.993487 
L 145.180132 -98.61207 
L 144.787755 -98.695288 
L 137.758637 -97.408522 
L 135.979314 -97.496575 
L 129.135159 -98.28687 
L 127.725824 -97.259064 
L 125.923358 -98.993487 
L 121.445656 -100.439448 
L 119.317957 -101.232807 
L 116.4367 -98.993487 
L 113.205694 -97.761604 
L 111.240119 -96.820894 
L 104.675042 -98.479172 
L 101.803557 -91.96451 
L 100.661451 -91.372962 
L 99.853778 -91.157127 
L 98.550969 -91.96451 
L 93.842955 -94.80403 
L 90.63679 -94.678229 
L 84.323592 -92.373965 
L 83.914505 -92.263615 
L 82.283557 -91.96451 
L 76.939259 -90.28714 
L 72.873796 -84.935533 
L 73.434466 -82.299666 
L 75.396559 -77.906556 
L 75.301898 -76.747933 
L 77.531669 -75.203103 
L 77.966657 -77.906556 
L 82.43519 -80.767909 
L 84.379382 -84.935533 
L 84.467648 -91.305543 
L 90.123312 -88.361421 
L 90.636111 -84.935533 
L 89.445787 -82.683153 
L 86.296381 -77.906556 
L 85.331702 -75.751003 
L 81.55083 -70.877579 
L 86.892998 -68.708399 
L 89.6527 -68.266816 
L 94.754414 -68.266816 
L 98.46882 -63.848602 
L 98.696648 -61.037011 
L 102.832128 -59.49733 
L 105.569495 -58.883177 
L 111.303073 -58.883177 
L 113.719577 -58.94158 
L 114.148757 -56.819624 
L 116.93494 -50.452797 
L 124.158191 -50.675414 
L 125.210102 -50.727844 
L 125.388689 -49.790647 
L 126.882565 -45.95666 
L 127.936638 -42.76167 
L 123.968492 -36.946029 
L 123.16981 -35.732693 
L 124.669011 -35.732693 
L 132.785375 -35.732693 
L 135.734407 -35.732693 
L 135.451506 -40.350568 
L 134.375178 -42.76167 
L 131.949867 -48.343505 
L 131.386002 -49.790647 
L 130.696605 -53.408503 
L 129.726596 -56.819624 
L 130.093724 -59.186525 
L 127.439501 -59.049973 
L 121.667648 -58.650087 
L 120.748863 -63.848602 
L 119.331223 -68.661235 
L 114.962845 -66.602221 
L 109.987317 -66.535069 
L 108.080959 -70.877579 
L 106.052102 -73.777032 
L 101.93397 -77.906556 
L 102.349011 -81.421044 
L 99.117496 -84.935533 
L 103.674952 -86.153425 
L 105.681188 -87.192544 
L 110.422203 -84.935533 
L 112.176177 -84.384241 
L 114.073758 -77.906556 
L 115.15483 -75.485464 
L 119.146537 -73.413808 
L 124.063313 -77.906556 
L 118.488088 -81.258837 
L 113.71192 -84.935533 
L 114.70802 -88.76952 
L 115.586414 -91.96451 
L 116.343463 -92.326828 
L 116.87992 -92.531363 
L 117.34837 -91.96451 
L 122.335557 -87.922848 
L 126.438456 -88.899743 
L 131.336024 -91.96451 
L 132.355938 -92.708317 
L 133.161133 -92.615341 
L 140.742594 -92.240156 
L 141.098499 -92.305309 
L 142.705375 -91.96451 
L 148.441305 -90.965468 
L 149.997663 -90.26786 
L 156.102725 -90.177482 
L 158.116284 -90.263951 
L 163.841739 -89.523893 
L 166.307648 -90.134047 
L 165.25083 -91.96451 
" style="stroke: #64b166"/>
    </defs>
    <g clip-path="url(#pa6cd8d356a)">
     <use xlink:href="#ma063f87b47" x="0" y="211.269683" style="fill: #64b166; stroke: #64b166"/>
    </g>
   </g>
   <g id="PathCollection_7">
    <defs>
     <path id="m164bddf529" d="M 166.307648 -90.134047 
L 163.841739 -89.523893 
L 158.116284 -90.263951 
L 156.102725 -90.177482 
L 149.997663 -90.26786 
L 148.441305 -90.965468 
L 142.705375 -91.96451 
L 141.098499 -92.305309 
L 140.742594 -92.240156 
L 133.161133 -92.615341 
L 132.355938 -92.708317 
L 131.336024 -91.96451 
L 126.438456 -88.899743 
L 122.335557 -87.922848 
L 117.34837 -91.96451 
L 116.87992 -92.531363 
L 116.343463 -92.326828 
L 115.586414 -91.96451 
L 114.70802 -88.76952 
L 113.71192 -84.935533 
L 118.488088 -81.258837 
L 124.063313 -77.906556 
L 119.146537 -73.413808 
L 115.15483 -75.485464 
L 114.073758 -77.906556 
L 112.176177 -84.384241 
L 110.422203 -84.935533 
L 105.681188 -87.192544 
L 103.674952 -86.153425 
L 99.117496 -84.935533 
L 102.349011 -81.421044 
L 101.93397 -77.906556 
L 106.052102 -73.777032 
L 108.080959 -70.877579 
L 109.987317 -66.535069 
L 114.962845 -66.602221 
L 119.331223 -68.661235 
L 120.748863 -63.848602 
L 121.667648 -58.650087 
L 127.439501 -59.049973 
L 130.093724 -59.186525 
L 129.726596 -56.819624 
L 130.696605 -53.408503 
L 131.386002 -49.790647 
L 131.949867 -48.343505 
L 134.375178 -42.76167 
L 135.451506 -40.350568 
L 135.734407 -35.732693 
L 139.649052 -35.732693 
L 139.500352 -38.159966 
L 141.578102 -42.76167 
L 141.022878 -49.580827 
L 141.019367 -49.790647 
L 140.987174 -49.938626 
L 140.808447 -49.952233 
L 135.11883 -53.832309 
L 134.269337 -56.819624 
L 134.814466 -60.334113 
L 138.582778 -63.848602 
L 137.069011 -70.48708 
L 136.99386 -70.877579 
L 137.062918 -71.257523 
L 136.663193 -71.189978 
L 131.213287 -75.183619 
L 130.928973 -77.906556 
L 130.427242 -81.990961 
L 135.915972 -84.935533 
L 136.722417 -85.145353 
L 136.95474 -85.128108 
L 144.481005 -85.765039 
L 145.351319 -85.613454 
L 146.863759 -84.935533 
L 145.56705 -83.883954 
L 142.888261 -77.906556 
L 146.970048 -74.359222 
L 150.299633 -75.686879 
L 154.330631 -77.906556 
L 155.190631 -81.273377 
L 159.181513 -81.452146 
L 161.976297 -83.578213 
L 169.174857 -84.70317 
L 169.494528 -84.614208 
L 169.309011 -84.935533 
" style="stroke: #76ba66"/>
    </defs>
    <g clip-path="url(#pa6cd8d356a)">
     <use xlink:href="#m164bddf529" x="0" y="211.269683" style="fill: #76ba66; stroke: #76ba66"/>
    </g>
   </g>
   <g id="PathCollection_8">
    <defs>
     <path id="m272ff31bba" d="M 169.494528 -84.614208 
L 169.174857 -84.70317 
L 161.976297 -83.578213 
L 159.181513 -81.452146 
L 155.190631 -81.273377 
L 154.330631 -77.906556 
L 150.299633 -75.686879 
L 146.970048 -74.359222 
L 142.888261 -77.906556 
L 145.56705 -83.883954 
L 146.863759 -84.935533 
L 145.351319 -85.613454 
L 144.481005 -85.765039 
L 136.95474 -85.128108 
L 136.722417 -85.145353 
L 135.915972 -84.935533 
L 130.427242 -81.990961 
L 130.928973 -77.906556 
L 131.213287 -75.183619 
L 136.663193 -71.189978 
L 137.062918 -71.257523 
L 136.99386 -70.877579 
L 137.069011 -70.48708 
L 138.582778 -63.848602 
L 134.814466 -60.334113 
L 134.269337 -56.819624 
L 135.11883 -53.832309 
L 140.808447 -49.952233 
L 140.987174 -49.938626 
L 141.019367 -49.790647 
L 141.022878 -49.580827 
L 141.578102 -42.76167 
L 139.500352 -38.159966 
L 139.649052 -35.732693 
L 140.901739 -35.732693 
L 149.018102 -35.732693 
L 155.511193 -35.732693 
L 151.694775 -40.368827 
L 149.590061 -42.76167 
L 149.746494 -48.529036 
L 150.280648 -49.790647 
L 153.230392 -56.552701 
L 153.196824 -56.819624 
L 153.166466 -56.975824 
L 152.174466 -63.848602 
L 151.047193 -67.36309 
L 147.74992 -70.877579 
L 152.079538 -72.603994 
L 155.002201 -74.213364 
L 159.792289 -73.303071 
L 161.398996 -77.906556 
L 164.075356 -79.942535 
L 166.659455 -80.346366 
L 172.97297 -78.589371 
" style="stroke: #89c466"/>
    </defs>
    <g clip-path="url(#pa6cd8d356a)">
     <use xlink:href="#m272ff31bba" x="0" y="211.269683" style="fill: #89c466; stroke: #89c466"/>
    </g>
   </g>
   <g id="PathCollection_9">
    <defs>
     <path id="m8b80206f94" d="M 172.97297 -78.589371 
L 166.659455 -80.346366 
L 164.075356 -79.942535 
L 161.398996 -77.906556 
L 159.792289 -73.303071 
L 155.002201 -74.213364 
L 152.079538 -72.603994 
L 147.74992 -70.877579 
L 151.047193 -67.36309 
L 152.174466 -63.848602 
L 153.166466 -56.975824 
L 153.196824 -56.819624 
L 153.230392 -56.552701 
L 150.280648 -49.790647 
L 149.746494 -48.529036 
L 149.590061 -42.76167 
L 151.694775 -40.368827 
L 155.511193 -35.732693 
L 157.134466 -35.732693 
L 162.217873 -35.732693 
L 161.603603 -42.049875 
L 161.539872 -42.76167 
L 161.841957 -43.886307 
L 162.312146 -49.790647 
L 159.575974 -54.019463 
L 159.223827 -56.819624 
L 158.224724 -61.96022 
L 162.509541 -59.100551 
L 166.956442 -56.819624 
L 167.99992 -54.552213 
L 169.602021 -56.312117 
L 169.786445 -56.819624 
L 171.338102 -60.334113 
L 172.036642 -63.848602 
L 172.629342 -65.126597 
L 175.985375 -68.383425 
L 177.622897 -70.53546 
L 177.425375 -70.877579 
L 173.367193 -77.906556 
" style="stroke: #9bcd66"/>
    </defs>
    <g clip-path="url(#pa6cd8d356a)">
     <use xlink:href="#m8b80206f94" x="0" y="211.269683" style="fill: #9bcd66; stroke: #9bcd66"/>
    </g>
   </g>
   <g id="PathCollection_10">
    <defs>
     <path id="mc597805eb3" d="M 177.622897 -70.53546 
L 175.985375 -68.383425 
L 172.629342 -65.126597 
L 172.036642 -63.848602 
L 171.338102 -60.334113 
L 169.786445 -56.819624 
L 169.602021 -56.312117 
L 167.99992 -54.552213 
L 166.956442 -56.819624 
L 162.509541 -59.100551 
L 158.224724 -61.96022 
L 159.223827 -56.819624 
L 159.575974 -54.019463 
L 162.312146 -49.790647 
L 161.841957 -43.886307 
L 161.539872 -42.76167 
L 161.603603 -42.049875 
L 162.217873 -35.732693 
L 165.25083 -35.732693 
L 168.89397 -35.732693 
L 168.219314 -40.87426 
L 168.050324 -42.76167 
L 168.44998 -44.249556 
L 169.327887 -49.790647 
L 171.799592 -52.505812 
L 173.367193 -56.819624 
L 175.125739 -60.802711 
L 178.778102 -63.848602 
L 180.316381 -65.87021 
" style="stroke: #add666"/>
    </defs>
    <g clip-path="url(#pa6cd8d356a)">
     <use xlink:href="#mc597805eb3" x="0" y="211.269683" style="fill: #add666; stroke: #add666"/>
    </g>
   </g>
   <g id="PathCollection_11">
    <defs>
     <path id="m38ea5873fd" d="M 180.316381 -65.87021 
L 178.778102 -63.848602 
L 175.125739 -60.802711 
L 173.367193 -56.819624 
L 171.799592 -52.505812 
L 169.327887 -49.790647 
L 168.44998 -44.249556 
L 168.050324 -42.76167 
L 168.219314 -40.87426 
L 168.89397 -35.732693 
L 173.367193 -35.732693 
L 176.178744 -35.732693 
L 175.73075 -39.826493 
L 175.485615 -42.76167 
L 175.521537 -46.059215 
L 176.65968 -49.790647 
L 176.137063 -54.588203 
L 176.947942 -56.819624 
L 177.15483 -57.288223 
L 178.198362 -58.158477 
L 184.648194 -58.367289 
L 181.483557 -63.848602 
" style="stroke: #bfdf66"/>
    </defs>
    <g clip-path="url(#pa6cd8d356a)">
     <use xlink:href="#m38ea5873fd" x="0" y="211.269683" style="fill: #bfdf66; stroke: #bfdf66"/>
    </g>
   </g>
   <g id="PathCollection_12">
    <defs>
     <path id="m69be3e3a4d" d="M 184.648194 -58.367289 
L 178.198362 -58.158477 
L 177.15483 -57.288223 
L 176.947942 -56.819624 
L 176.137063 -54.588203 
L 176.65968 -49.790647 
L 175.521537 -46.059215 
L 175.485615 -42.76167 
L 175.73075 -39.826493 
L 176.178744 -35.732693 
L 181.483557 -35.732693 
L 184.321446 -35.732693 
L 186.401523 -41.27248 
L 186.340593 -42.76167 
L 186.387193 -44.226041 
L 185.363357 -49.790647 
L 187.855453 -52.812153 
L 185.541739 -56.819624 
" style="stroke: #d3e966"/>
    </defs>
    <g clip-path="url(#pa6cd8d356a)">
     <use xlink:href="#m69be3e3a4d" x="0" y="211.269683" style="fill: #d3e966; stroke: #d3e966"/>
    </g>
   </g>
   <g id="PathCollection_13">
    <defs>
     <path id="m138d0b56bc" d="M 187.855453 -52.812153 
L 185.363357 -49.790647 
L 186.387193 -44.226041 
L 186.340593 -42.76167 
L 186.401523 -41.27248 
L 184.321446 -35.732693 
L 189.59992 -35.732693 
L 191.94831 -35.732693 
L 191.300776 -38.678662 
L 191.133721 -42.76167 
L 191.265592 -46.905619 
L 189.59992 -49.790647 
" style="stroke: #e5f266"/>
    </defs>
    <g clip-path="url(#pa6cd8d356a)">
     <use xlink:href="#m138d0b56bc" x="0" y="211.269683" style="fill: #e5f266; stroke: #e5f266"/>
    </g>
   </g>
   <g id="PathCollection_14">
    <defs>
     <path id="ma9fddf49eb" d="M 191.265592 -46.905619 
L 191.133721 -42.76167 
L 191.300776 -38.678662 
L 191.94831 -35.732693 
L 197.716284 -35.732693 
L 193.658102 -42.76167 
" style="stroke: #f7fb66"/>
    </defs>
    <g clip-path="url(#pa6cd8d356a)">
     <use xlink:href="#ma9fddf49eb" x="0" y="211.269683" style="fill: #f7fb66; stroke: #f7fb66"/>
    </g>
   </g>
   <g id="line2d_1">
    <path d="M 35.389011 175.53699 
L 116.552648 34.957448 
" clip-path="url(#pa6cd8d356a)" style="fill: none; stroke: #000000; stroke-linecap: square"/>
   </g>
   <g id="line2d_2">
    <path d="M 116.552648 34.957448 
L 197.716284 175.53699 
" clip-path="url(#pa6cd8d356a)" style="fill: none; stroke: #000000; stroke-linecap: square"/>
   </g>
   <g id="line2d_3">
    <path d="M 35.389011 175.53699 
L 197.716284 175.53699 
" clip-path="url(#pa6cd8d356a)" style="fill: none; stroke: #000000; stroke-linecap: square"/>
   </g>
   <g id="line2d_4">
    <path d="M 197.716284 175.53699 
L 200.063861 179.603112 
" clip-path="url(#pa6cd8d356a)" style="fill: none; stroke: #000000; stroke-linecap: square"/>
   </g>
   <g id="line2d_5">
    <path d="M 165.25083 175.53699 
L 167.598407 179.603112 
" clip-path="url(#pa6cd8d356a)" style="fill: none; stroke: #000000; stroke-linecap: square"/>
   </g>
   <g id="line2d_6">
    <path d="M 132.785375 175.53699 
L 135.132952 179.603112 
" clip-path="url(#pa6cd8d356a)" style="fill: none; stroke: #000000; stroke-linecap: square"/>
   </g>
   <g id="line2d_7">
    <path d="M 100.31992 175.53699 
L 102.667497 179.603112 
" clip-path="url(#pa6cd8d356a)" style="fill: none; stroke: #000000; stroke-linecap: square"/>
   </g>
   <g id="line2d_8">
    <path d="M 67.854466 175.53699 
L 70.202043 179.603112 
" clip-path="url(#pa6cd8d356a)" style="fill: none; stroke: #000000; stroke-linecap: square"/>
   </g>
   <g id="line2d_9">
    <path d="M 35.389011 175.53699 
L 37.736588 179.603112 
" clip-path="url(#pa6cd8d356a)" style="fill: none; stroke: #000000; stroke-linecap: square"/>
   </g>
   <g id="line2d_10">
    <path d="M 35.389011 175.53699 
L 30.693857 175.53699 
" clip-path="url(#pa6cd8d356a)" style="fill: none; stroke: #000000; stroke-linecap: square"/>
   </g>
   <g id="line2d_11">
    <path d="M 51.621739 147.421081 
L 46.926585 147.421081 
" clip-path="url(#pa6cd8d356a)" style="fill: none; stroke: #000000; stroke-linecap: square"/>
   </g>
   <g id="line2d_12">
    <path d="M 67.854466 119.305173 
L 63.159312 119.305173 
" clip-path="url(#pa6cd8d356a)" style="fill: none; stroke: #000000; stroke-linecap: square"/>
   </g>
   <g id="line2d_13">
    <path d="M 84.087193 91.189265 
L 79.392039 91.189265 
" clip-path="url(#pa6cd8d356a)" style="fill: none; stroke: #000000; stroke-linecap: square"/>
   </g>
   <g id="line2d_14">
    <path d="M 100.31992 63.073356 
L 95.624766 63.073356 
" clip-path="url(#pa6cd8d356a)" style="fill: none; stroke: #000000; stroke-linecap: square"/>
   </g>
   <g id="line2d_15">
    <path d="M 116.552648 34.957448 
L 111.857494 34.957448 
" clip-path="url(#pa6cd8d356a)" style="fill: none; stroke: #000000; stroke-linecap: square"/>
   </g>
   <g id="line2d_16">
    <path d="M 116.552648 34.957448 
L 118.900225 30.891325 
" clip-path="url(#pa6cd8d356a)" style="fill: none; stroke: #000000; stroke-linecap: square"/>
   </g>
   <g id="line2d_17">
    <path d="M 132.785375 63.073356 
L 135.132952 59.007234 
" clip-path="url(#pa6cd8d356a)" style="fill: none; stroke: #000000; stroke-linecap: square"/>
   </g>
   <g id="line2d_18">
    <path d="M 149.018102 91.189265 
L 151.365679 87.123142 
" clip-path="url(#pa6cd8d356a)" style="fill: none; stroke: #000000; stroke-linecap: square"/>
   </g>
   <g id="line2d_19">
    <path d="M 165.25083 119.305173 
L 167.598407 115.23905 
" clip-path="url(#pa6cd8d356a)" style="fill: none; stroke: #000000; stroke-linecap: square"/>
   </g>
   <g id="line2d_20">
    <path d="M 181.483557 147.421081 
L 183.831134 143.354959 
" clip-path="url(#pa6cd8d356a)" style="fill: none; stroke: #000000; stroke-linecap: square"/>
   </g>
   <g id="line2d_21">
    <path d="M 197.716284 175.53699 
L 200.063861 171.470867 
" clip-path="url(#pa6cd8d356a)" style="fill: none; stroke: #000000; stroke-linecap: square"/>
   </g>
   <g id="matplotlib.axis_1">
    <g id="xtick_1"/>
    <g id="xtick_2"/>
    <g id="xtick_3"/>
    <g id="xtick_4"/>
    <g id="xtick_5"/>
   </g>
   <g id="matplotlib.axis_2">
    <g id="ytick_1"/>
    <g id="ytick_2"/>
    <g id="ytick_3"/>
    <g id="ytick_4"/>
    <g id="ytick_5"/>
   </g>
   <g id="text_1">
    <!-- 0 -->
    <g transform="translate(198.768602 188.523172) scale(0.12 -0.12)">
     <defs>
      <path id="DejaVuSans-30" d="M 2034 4250 
Q 1547 4250 1301 3770 
Q 1056 3291 1056 2328 
Q 1056 1369 1301 889 
Q 1547 409 2034 409 
Q 2525 409 2770 889 
Q 3016 1369 3016 2328 
Q 3016 3291 2770 3770 
Q 2525 4250 2034 4250 
z
M 2034 4750 
Q 2819 4750 3233 4129 
Q 3647 3509 3647 2328 
Q 3647 1150 3233 529 
Q 2819 -91 2034 -91 
Q 1250 -91 836 529 
Q 422 1150 422 2328 
Q 422 3509 836 4129 
Q 1250 4750 2034 4750 
z
" transform="scale(0.015625)"/>
     </defs>
     <use xlink:href="#DejaVuSans-30"/>
    </g>
   </g>
   <g id="text_2">
    <!-- 20 -->
    <g transform="translate(162.485648 188.523172) scale(0.12 -0.12)">
     <defs>
      <path id="DejaVuSans-32" d="M 1228 531 
L 3431 531 
L 3431 0 
L 469 0 
L 469 531 
Q 828 903 1448 1529 
Q 2069 2156 2228 2338 
Q 2531 2678 2651 2914 
Q 2772 3150 2772 3378 
Q 2772 3750 2511 3984 
Q 2250 4219 1831 4219 
Q 1534 4219 1204 4116 
Q 875 4013 500 3803 
L 500 4441 
Q 881 4594 1212 4672 
Q 1544 4750 1819 4750 
Q 2544 4750 2975 4387 
Q 3406 4025 3406 3419 
Q 3406 3131 3298 2873 
Q 3191 2616 2906 2266 
Q 2828 2175 2409 1742 
Q 1991 1309 1228 531 
z
" transform="scale(0.015625)"/>
     </defs>
     <use xlink:href="#DejaVuSans-32"/>
     <use xlink:href="#DejaVuSans-30" x="63.623047"/>
    </g>
   </g>
   <g id="text_3">
    <!-- 40 -->
    <g transform="translate(130.020193 188.523172) scale(0.12 -0.12)">
     <defs>
      <path id="DejaVuSans-34" d="M 2419 4116 
L 825 1625 
L 2419 1625 
L 2419 4116 
z
M 2253 4666 
L 3047 4666 
L 3047 1625 
L 3713 1625 
L 3713 1100 
L 3047 1100 
L 3047 0 
L 2419 0 
L 2419 1100 
L 313 1100 
L 313 1709 
L 2253 4666 
z
" transform="scale(0.015625)"/>
     </defs>
     <use xlink:href="#DejaVuSans-34"/>
     <use xlink:href="#DejaVuSans-30" x="63.623047"/>
    </g>
   </g>
   <g id="text_4">
    <!-- 60 -->
    <g transform="translate(97.554739 188.523172) scale(0.12 -0.12)">
     <defs>
      <path id="DejaVuSans-36" d="M 2113 2584 
Q 1688 2584 1439 2293 
Q 1191 2003 1191 1497 
Q 1191 994 1439 701 
Q 1688 409 2113 409 
Q 2538 409 2786 701 
Q 3034 994 3034 1497 
Q 3034 2003 2786 2293 
Q 2538 2584 2113 2584 
z
M 3366 4563 
L 3366 3988 
Q 3128 4100 2886 4159 
Q 2644 4219 2406 4219 
Q 1781 4219 1451 3797 
Q 1122 3375 1075 2522 
Q 1259 2794 1537 2939 
Q 1816 3084 2150 3084 
Q 2853 3084 3261 2657 
Q 3669 2231 3669 1497 
Q 3669 778 3244 343 
Q 2819 -91 2113 -91 
Q 1303 -91 875 529 
Q 447 1150 447 2328 
Q 447 3434 972 4092 
Q 1497 4750 2381 4750 
Q 2619 4750 2861 4703 
Q 3103 4656 3366 4563 
z
" transform="scale(0.015625)"/>
     </defs>
     <use xlink:href="#DejaVuSans-36"/>
     <use xlink:href="#DejaVuSans-30" x="63.623047"/>
    </g>
   </g>
   <g id="text_5">
    <!-- 80 -->
    <g transform="translate(65.089284 188.523172) scale(0.12 -0.12)">
     <defs>
      <path id="DejaVuSans-38" d="M 2034 2216 
Q 1584 2216 1326 1975 
Q 1069 1734 1069 1313 
Q 1069 891 1326 650 
Q 1584 409 2034 409 
Q 2484 409 2743 651 
Q 3003 894 3003 1313 
Q 3003 1734 2745 1975 
Q 2488 2216 2034 2216 
z
M 1403 2484 
Q 997 2584 770 2862 
Q 544 3141 544 3541 
Q 544 4100 942 4425 
Q 1341 4750 2034 4750 
Q 2731 4750 3128 4425 
Q 3525 4100 3525 3541 
Q 3525 3141 3298 2862 
Q 3072 2584 2669 2484 
Q 3125 2378 3379 2068 
Q 3634 1759 3634 1313 
Q 3634 634 3220 271 
Q 2806 -91 2034 -91 
Q 1263 -91 848 271 
Q 434 634 434 1313 
Q 434 1759 690 2068 
Q 947 2378 1403 2484 
z
M 1172 3481 
Q 1172 3119 1398 2916 
Q 1625 2713 2034 2713 
Q 2441 2713 2670 2916 
Q 2900 3119 2900 3481 
Q 2900 3844 2670 4047 
Q 2441 4250 2034 4250 
Q 1625 4250 1398 4047 
Q 1172 3844 1172 3481 
z
" transform="scale(0.015625)"/>
     </defs>
     <use xlink:href="#DejaVuSans-38"/>
     <use xlink:href="#DejaVuSans-30" x="63.623047"/>
    </g>
   </g>
   <g id="text_6">
    <!-- 100 -->
    <g transform="translate(28.80633 188.523172) scale(0.12 -0.12)">
     <defs>
      <path id="DejaVuSans-31" d="M 794 531 
L 1825 531 
L 1825 4091 
L 703 3866 
L 703 4441 
L 1819 4666 
L 2450 4666 
L 2450 531 
L 3481 531 
L 3481 0 
L 794 0 
L 794 531 
z
" transform="scale(0.015625)"/>
     </defs>
     <use xlink:href="#DejaVuSans-31"/>
     <use xlink:href="#DejaVuSans-30" x="63.623047"/>
     <use xlink:href="#DejaVuSans-30" x="127.246094"/>
    </g>
   </g>
   <g id="text_7">
    <!-- 0 -->
    <g transform="translate(22.884193 177.971899) scale(0.12 -0.12)">
     <use xlink:href="#DejaVuSans-30"/>
    </g>
   </g>
   <g id="text_8">
    <!-- 20 -->
    <g transform="translate(31.48192 149.85599) scale(0.12 -0.12)">
     <use xlink:href="#DejaVuSans-32"/>
     <use xlink:href="#DejaVuSans-30" x="63.623047"/>
    </g>
   </g>
   <g id="text_9">
    <!-- 40 -->
    <g transform="translate(47.714648 121.740082) scale(0.12 -0.12)">
     <use xlink:href="#DejaVuSans-34"/>
     <use xlink:href="#DejaVuSans-30" x="63.623047"/>
    </g>
   </g>
   <g id="text_10">
    <!-- 60 -->
    <g transform="translate(63.947375 93.624174) scale(0.12 -0.12)">
     <use xlink:href="#DejaVuSans-36"/>
     <use xlink:href="#DejaVuSans-30" x="63.623047"/>
    </g>
   </g>
   <g id="text_11">
    <!-- 80 -->
    <g transform="translate(80.180102 65.508265) scale(0.12 -0.12)">
     <use xlink:href="#DejaVuSans-38"/>
     <use xlink:href="#DejaVuSans-30" x="63.623047"/>
    </g>
   </g>
   <g id="text_12">
    <!-- 100 -->
    <g transform="translate(88.77783 37.392357) scale(0.12 -0.12)">
     <use xlink:href="#DejaVuSans-31"/>
     <use xlink:href="#DejaVuSans-30" x="63.623047"/>
     <use xlink:href="#DejaVuSans-30" x="127.246094"/>
    </g>
   </g>
   <g id="text_13">
    <!-- 0 -->
    <g transform="translate(118.987557 31.710902) scale(0.12 -0.12)">
     <use xlink:href="#DejaVuSans-30"/>
    </g>
   </g>
   <g id="text_14">
    <!-- 20 -->
    <g transform="translate(135.220284 59.826811) scale(0.12 -0.12)">
     <use xlink:href="#DejaVuSans-32"/>
     <use xlink:href="#DejaVuSans-30" x="63.623047"/>
    </g>
   </g>
   <g id="text_15">
    <!-- 40 -->
    <g transform="translate(151.453011 87.942719) scale(0.12 -0.12)">
     <use xlink:href="#DejaVuSans-34"/>
     <use xlink:href="#DejaVuSans-30" x="63.623047"/>
    </g>
   </g>
   <g id="text_16">
    <!-- 60 -->
    <g transform="translate(167.685739 116.058627) scale(0.12 -0.12)">
     <use xlink:href="#DejaVuSans-36"/>
     <use xlink:href="#DejaVuSans-30" x="63.623047"/>
    </g>
   </g>
   <g id="text_17">
    <!-- 80 -->
    <g transform="translate(183.918466 144.174536) scale(0.12 -0.12)">
     <use xlink:href="#DejaVuSans-38"/>
     <use xlink:href="#DejaVuSans-30" x="63.623047"/>
    </g>
   </g>
   <g id="text_18">
    <!-- 100 -->
    <g transform="translate(200.151193 172.290444) scale(0.12 -0.12)">
     <use xlink:href="#DejaVuSans-31"/>
     <use xlink:href="#DejaVuSans-30" x="63.623047"/>
     <use xlink:href="#DejaVuSans-30" x="127.246094"/>
    </g>
   </g>
   <g id="text_19">
    <!-- Au content (at.%) -->
    <g transform="translate(63.54171 201.574058) scale(0.12 -0.12)">
     <defs>
      <path id="DejaVuSans-41" d="M 2188 4044 
L 1331 1722 
L 3047 1722 
L 2188 4044 
z
M 1831 4666 
L 2547 4666 
L 4325 0 
L 3669 0 
L 3244 1197 
L 1141 1197 
L 716 0 
L 50 0 
L 1831 4666 
z
" transform="scale(0.015625)"/>
      <path id="DejaVuSans-75" d="M 544 1381 
L 544 3500 
L 1119 3500 
L 1119 1403 
Q 1119 906 1312 657 
Q 1506 409 1894 409 
Q 2359 409 2629 706 
Q 2900 1003 2900 1516 
L 2900 3500 
L 3475 3500 
L 3475 0 
L 2900 0 
L 2900 538 
Q 2691 219 2414 64 
Q 2138 -91 1772 -91 
Q 1169 -91 856 284 
Q 544 659 544 1381 
z
M 1991 3584 
L 1991 3584 
z
" transform="scale(0.015625)"/>
      <path id="DejaVuSans-20" transform="scale(0.015625)"/>
      <path id="DejaVuSans-63" d="M 3122 3366 
L 3122 2828 
Q 2878 2963 2633 3030 
Q 2388 3097 2138 3097 
Q 1578 3097 1268 2742 
Q 959 2388 959 1747 
Q 959 1106 1268 751 
Q 1578 397 2138 397 
Q 2388 397 2633 464 
Q 2878 531 3122 666 
L 3122 134 
Q 2881 22 2623 -34 
Q 2366 -91 2075 -91 
Q 1284 -91 818 406 
Q 353 903 353 1747 
Q 353 2603 823 3093 
Q 1294 3584 2113 3584 
Q 2378 3584 2631 3529 
Q 2884 3475 3122 3366 
z
" transform="scale(0.015625)"/>
      <path id="DejaVuSans-6f" d="M 1959 3097 
Q 1497 3097 1228 2736 
Q 959 2375 959 1747 
Q 959 1119 1226 758 
Q 1494 397 1959 397 
Q 2419 397 2687 759 
Q 2956 1122 2956 1747 
Q 2956 2369 2687 2733 
Q 2419 3097 1959 3097 
z
M 1959 3584 
Q 2709 3584 3137 3096 
Q 3566 2609 3566 1747 
Q 3566 888 3137 398 
Q 2709 -91 1959 -91 
Q 1206 -91 779 398 
Q 353 888 353 1747 
Q 353 2609 779 3096 
Q 1206 3584 1959 3584 
z
" transform="scale(0.015625)"/>
      <path id="DejaVuSans-6e" d="M 3513 2113 
L 3513 0 
L 2938 0 
L 2938 2094 
Q 2938 2591 2744 2837 
Q 2550 3084 2163 3084 
Q 1697 3084 1428 2787 
Q 1159 2491 1159 1978 
L 1159 0 
L 581 0 
L 581 3500 
L 1159 3500 
L 1159 2956 
Q 1366 3272 1645 3428 
Q 1925 3584 2291 3584 
Q 2894 3584 3203 3211 
Q 3513 2838 3513 2113 
z
" transform="scale(0.015625)"/>
      <path id="DejaVuSans-74" d="M 1172 4494 
L 1172 3500 
L 2356 3500 
L 2356 3053 
L 1172 3053 
L 1172 1153 
Q 1172 725 1289 603 
Q 1406 481 1766 481 
L 2356 481 
L 2356 0 
L 1766 0 
Q 1100 0 847 248 
Q 594 497 594 1153 
L 594 3053 
L 172 3053 
L 172 3500 
L 594 3500 
L 594 4494 
L 1172 4494 
z
" transform="scale(0.015625)"/>
      <path id="DejaVuSans-65" d="M 3597 1894 
L 3597 1613 
L 953 1613 
Q 991 1019 1311 708 
Q 1631 397 2203 397 
Q 2534 397 2845 478 
Q 3156 559 3463 722 
L 3463 178 
Q 3153 47 2828 -22 
Q 2503 -91 2169 -91 
Q 1331 -91 842 396 
Q 353 884 353 1716 
Q 353 2575 817 3079 
Q 1281 3584 2069 3584 
Q 2775 3584 3186 3129 
Q 3597 2675 3597 1894 
z
M 3022 2063 
Q 3016 2534 2758 2815 
Q 2500 3097 2075 3097 
Q 1594 3097 1305 2825 
Q 1016 2553 972 2059 
L 3022 2063 
z
" transform="scale(0.015625)"/>
      <path id="DejaVuSans-28" d="M 1984 4856 
Q 1566 4138 1362 3434 
Q 1159 2731 1159 2009 
Q 1159 1288 1364 580 
Q 1569 -128 1984 -844 
L 1484 -844 
Q 1016 -109 783 600 
Q 550 1309 550 2009 
Q 550 2706 781 3412 
Q 1013 4119 1484 4856 
L 1984 4856 
z
" transform="scale(0.015625)"/>
      <path id="DejaVuSans-61" d="M 2194 1759 
Q 1497 1759 1228 1600 
Q 959 1441 959 1056 
Q 959 750 1161 570 
Q 1363 391 1709 391 
Q 2188 391 2477 730 
Q 2766 1069 2766 1631 
L 2766 1759 
L 2194 1759 
z
M 3341 1997 
L 3341 0 
L 2766 0 
L 2766 531 
Q 2569 213 2275 61 
Q 1981 -91 1556 -91 
Q 1019 -91 701 211 
Q 384 513 384 1019 
Q 384 1609 779 1909 
Q 1175 2209 1959 2209 
L 2766 2209 
L 2766 2266 
Q 2766 2663 2505 2880 
Q 2244 3097 1772 3097 
Q 1472 3097 1187 3025 
Q 903 2953 641 2809 
L 641 3341 
Q 956 3463 1253 3523 
Q 1550 3584 1831 3584 
Q 2591 3584 2966 3190 
Q 3341 2797 3341 1997 
z
" transform="scale(0.015625)"/>
      <path id="DejaVuSans-2e" d="M 684 794 
L 1344 794 
L 1344 0 
L 684 0 
L 684 794 
z
" transform="scale(0.015625)"/>
      <path id="DejaVuSans-25" d="M 4653 2053 
Q 4381 2053 4226 1822 
Q 4072 1591 4072 1178 
Q 4072 772 4226 539 
Q 4381 306 4653 306 
Q 4919 306 5073 539 
Q 5228 772 5228 1178 
Q 5228 1588 5073 1820 
Q 4919 2053 4653 2053 
z
M 4653 2450 
Q 5147 2450 5437 2106 
Q 5728 1763 5728 1178 
Q 5728 594 5436 251 
Q 5144 -91 4653 -91 
Q 4153 -91 3862 251 
Q 3572 594 3572 1178 
Q 3572 1766 3864 2108 
Q 4156 2450 4653 2450 
z
M 1428 4353 
Q 1159 4353 1004 4120 
Q 850 3888 850 3481 
Q 850 3069 1003 2837 
Q 1156 2606 1428 2606 
Q 1700 2606 1854 2837 
Q 2009 3069 2009 3481 
Q 2009 3884 1853 4118 
Q 1697 4353 1428 4353 
z
M 4250 4750 
L 4750 4750 
L 1831 -91 
L 1331 -91 
L 4250 4750 
z
M 1428 4750 
Q 1922 4750 2215 4408 
Q 2509 4066 2509 3481 
Q 2509 2891 2217 2550 
Q 1925 2209 1428 2209 
Q 931 2209 642 2551 
Q 353 2894 353 3481 
Q 353 4063 643 4406 
Q 934 4750 1428 4750 
z
" transform="scale(0.015625)"/>
      <path id="DejaVuSans-29" d="M 513 4856 
L 1013 4856 
Q 1481 4119 1714 3412 
Q 1947 2706 1947 2009 
Q 1947 1309 1714 600 
Q 1481 -109 1013 -844 
L 513 -844 
Q 928 -128 1133 580 
Q 1338 1288 1338 2009 
Q 1338 2731 1133 3434 
Q 928 4138 513 4856 
z
" transform="scale(0.015625)"/>
     </defs>
     <use xlink:href="#DejaVuSans-41"/>
     <use xlink:href="#DejaVuSans-75" x="68.408203"/>
     <use xlink:href="#DejaVuSans-20" x="131.787109"/>
     <use xlink:href="#DejaVuSans-63" x="163.574219"/>
     <use xlink:href="#DejaVuSans-6f" x="218.554688"/>
     <use xlink:href="#DejaVuSans-6e" x="279.736328"/>
     <use xlink:href="#DejaVuSans-74" x="343.115234"/>
     <use xlink:href="#DejaVuSans-65" x="382.324219"/>
     <use xlink:href="#DejaVuSans-6e" x="443.847656"/>
     <use xlink:href="#DejaVuSans-74" x="507.226562"/>
     <use xlink:href="#DejaVuSans-20" x="546.435547"/>
     <use xlink:href="#DejaVuSans-28" x="578.222656"/>
     <use xlink:href="#DejaVuSans-61" x="617.236328"/>
     <use xlink:href="#DejaVuSans-74" x="678.515625"/>
     <use xlink:href="#DejaVuSans-2e" x="717.724609"/>
     <use xlink:href="#DejaVuSans-25" x="749.511719"/>
     <use xlink:href="#DejaVuSans-29" x="844.53125"/>
    </g>
   </g>
   <g id="text_20">
    <!-- Cu content (at.%) -->
    <g transform="translate(152.067805 50.046277) rotate(-300) scale(0.12 -0.12)">
     <defs>
      <path id="DejaVuSans-43" d="M 4122 4306 
L 4122 3641 
Q 3803 3938 3442 4084 
Q 3081 4231 2675 4231 
Q 1875 4231 1450 3742 
Q 1025 3253 1025 2328 
Q 1025 1406 1450 917 
Q 1875 428 2675 428 
Q 3081 428 3442 575 
Q 3803 722 4122 1019 
L 4122 359 
Q 3791 134 3420 21 
Q 3050 -91 2638 -91 
Q 1578 -91 968 557 
Q 359 1206 359 2328 
Q 359 3453 968 4101 
Q 1578 4750 2638 4750 
Q 3056 4750 3426 4639 
Q 3797 4528 4122 4306 
z
" transform="scale(0.015625)"/>
     </defs>
     <use xlink:href="#DejaVuSans-43"/>
     <use xlink:href="#DejaVuSans-75" x="69.824219"/>
     <use xlink:href="#DejaVuSans-20" x="133.203125"/>
     <use xlink:href="#DejaVuSans-63" x="164.990234"/>
     <use xlink:href="#DejaVuSans-6f" x="219.970703"/>
     <use xlink:href="#DejaVuSans-6e" x="281.152344"/>
     <use xlink:href="#DejaVuSans-74" x="344.53125"/>
     <use xlink:href="#DejaVuSans-65" x="383.740234"/>
     <use xlink:href="#DejaVuSans-6e" x="445.263672"/>
     <use xlink:href="#DejaVuSans-74" x="508.642578"/>
     <use xlink:href="#DejaVuSans-20" x="547.851562"/>
     <use xlink:href="#DejaVuSans-28" x="579.638672"/>
     <use xlink:href="#DejaVuSans-61" x="618.652344"/>
     <use xlink:href="#DejaVuSans-74" x="679.931641"/>
     <use xlink:href="#DejaVuSans-2e" x="719.140625"/>
     <use xlink:href="#DejaVuSans-25" x="750.927734"/>
     <use xlink:href="#DejaVuSans-29" x="845.947266"/>
    </g>
   </g>
   <g id="text_21">
    <!-- Pd content (at.%) -->
    <g transform="translate(28.223897 141.522105) rotate(-60) scale(0.12 -0.12)">
     <defs>
      <path id="DejaVuSans-50" d="M 1259 4147 
L 1259 2394 
L 2053 2394 
Q 2494 2394 2734 2622 
Q 2975 2850 2975 3272 
Q 2975 3691 2734 3919 
Q 2494 4147 2053 4147 
L 1259 4147 
z
M 628 4666 
L 2053 4666 
Q 2838 4666 3239 4311 
Q 3641 3956 3641 3272 
Q 3641 2581 3239 2228 
Q 2838 1875 2053 1875 
L 1259 1875 
L 1259 0 
L 628 0 
L 628 4666 
z
" transform="scale(0.015625)"/>
      <path id="DejaVuSans-64" d="M 2906 2969 
L 2906 4863 
L 3481 4863 
L 3481 0 
L 2906 0 
L 2906 525 
Q 2725 213 2448 61 
Q 2172 -91 1784 -91 
Q 1150 -91 751 415 
Q 353 922 353 1747 
Q 353 2572 751 3078 
Q 1150 3584 1784 3584 
Q 2172 3584 2448 3432 
Q 2725 3281 2906 2969 
z
M 947 1747 
Q 947 1113 1208 752 
Q 1469 391 1925 391 
Q 2381 391 2643 752 
Q 2906 1113 2906 1747 
Q 2906 2381 2643 2742 
Q 2381 3103 1925 3103 
Q 1469 3103 1208 2742 
Q 947 2381 947 1747 
z
" transform="scale(0.015625)"/>
     </defs>
     <use xlink:href="#DejaVuSans-50"/>
     <use xlink:href="#DejaVuSans-64" x="60.302734"/>
     <use xlink:href="#DejaVuSans-20" x="123.779297"/>
     <use xlink:href="#DejaVuSans-63" x="155.566406"/>
     <use xlink:href="#DejaVuSans-6f" x="210.546875"/>
     <use xlink:href="#DejaVuSans-6e" x="271.728516"/>
     <use xlink:href="#DejaVuSans-74" x="335.107422"/>
     <use xlink:href="#DejaVuSans-65" x="374.316406"/>
     <use xlink:href="#DejaVuSans-6e" x="435.839844"/>
     <use xlink:href="#DejaVuSans-74" x="499.21875"/>
     <use xlink:href="#DejaVuSans-20" x="538.427734"/>
     <use xlink:href="#DejaVuSans-28" x="570.214844"/>
     <use xlink:href="#DejaVuSans-61" x="609.228516"/>
     <use xlink:href="#DejaVuSans-74" x="670.507812"/>
     <use xlink:href="#DejaVuSans-2e" x="709.716797"/>
     <use xlink:href="#DejaVuSans-25" x="741.503906"/>
     <use xlink:href="#DejaVuSans-29" x="836.523438"/>
    </g>
   </g>
   <g id="text_22">
    <!-- Au -->
    <g transform="translate(7.2 195.914439) scale(0.14 -0.14)">
     <use xlink:href="#DejaVuSans-41"/>
     <use xlink:href="#DejaVuSans-75" x="68.408203"/>
    </g>
   </g>
   <g id="text_23">
    <!-- Cu -->
    <g transform="translate(207.45592 195.914439) scale(0.14 -0.14)">
     <use xlink:href="#DejaVuSans-43"/>
     <use xlink:href="#DejaVuSans-75" x="69.824219"/>
    </g>
   </g>
   <g id="text_24">
    <!-- Pd -->
    <g transform="translate(107.88796 19.059703) scale(0.14 -0.14)">
     <use xlink:href="#DejaVuSans-50"/>
     <use xlink:href="#DejaVuSans-64" x="60.302734"/>
    </g>
   </g>
  </g>
  <g id="axes_2">
   <g id="patch_3">
    <path d="M 216.992648 121.879219 
L 222.536648 121.879219 
L 222.536648 10.999219 
L 216.992648 10.999219 
z
" style="fill: #ffffff"/>
   </g>
   <g id="QuadMesh_1">
    <path d="M 216.992648 121.879219 
L 222.536648 121.879219 
L 222.536648 113.959219 
L 216.992648 113.959219 
L 216.992648 121.879219 
" clip-path="url(#p84b9a51dc6)" style="fill: #088466; stroke: #088466"/>
    <path d="M 216.992648 113.959219 
L 222.536648 113.959219 
L 222.536648 106.039219 
L 216.992648 106.039219 
L 216.992648 113.959219 
" clip-path="url(#p84b9a51dc6)" style="fill: #1a8d66; stroke: #1a8d66"/>
    <path d="M 216.992648 106.039219 
L 222.536648 106.039219 
L 222.536648 98.119219 
L 216.992648 98.119219 
L 216.992648 106.039219 
" clip-path="url(#p84b9a51dc6)" style="fill: #2c9666; stroke: #2c9666"/>
    <path d="M 216.992648 98.119219 
L 222.536648 98.119219 
L 222.536648 90.199219 
L 216.992648 90.199219 
L 216.992648 98.119219 
" clip-path="url(#p84b9a51dc6)" style="fill: #409f66; stroke: #409f66"/>
    <path d="M 216.992648 90.199219 
L 222.536648 90.199219 
L 222.536648 82.279219 
L 216.992648 82.279219 
L 216.992648 90.199219 
" clip-path="url(#p84b9a51dc6)" style="fill: #52a866; stroke: #52a866"/>
    <path d="M 216.992648 82.279219 
L 222.536648 82.279219 
L 222.536648 74.359219 
L 216.992648 74.359219 
L 216.992648 82.279219 
" clip-path="url(#p84b9a51dc6)" style="fill: #64b166; stroke: #64b166"/>
    <path d="M 216.992648 74.359219 
L 222.536648 74.359219 
L 222.536648 66.439219 
L 216.992648 66.439219 
L 216.992648 74.359219 
" clip-path="url(#p84b9a51dc6)" style="fill: #76ba66; stroke: #76ba66"/>
    <path d="M 216.992648 66.439219 
L 222.536648 66.439219 
L 222.536648 58.519219 
L 216.992648 58.519219 
L 216.992648 66.439219 
" clip-path="url(#p84b9a51dc6)" style="fill: #89c466; stroke: #89c466"/>
    <path d="M 216.992648 58.519219 
L 222.536648 58.519219 
L 222.536648 50.599219 
L 216.992648 50.599219 
L 216.992648 58.519219 
" clip-path="url(#p84b9a51dc6)" style="fill: #9bcd66; stroke: #9bcd66"/>
    <path d="M 216.992648 50.599219 
L 222.536648 50.599219 
L 222.536648 42.679219 
L 216.992648 42.679219 
L 216.992648 50.599219 
" clip-path="url(#p84b9a51dc6)" style="fill: #add666; stroke: #add666"/>
    <path d="M 216.992648 42.679219 
L 222.536648 42.679219 
L 222.536648 34.759219 
L 216.992648 34.759219 
L 216.992648 42.679219 
" clip-path="url(#p84b9a51dc6)" style="fill: #bfdf66; stroke: #bfdf66"/>
    <path d="M 216.992648 34.759219 
L 222.536648 34.759219 
L 222.536648 26.839219 
L 216.992648 26.839219 
L 216.992648 34.759219 
" clip-path="url(#p84b9a51dc6)" style="fill: #d3e966; stroke: #d3e966"/>
    <path d="M 216.992648 26.839219 
L 222.536648 26.839219 
L 222.536648 18.919219 
L 216.992648 18.919219 
L 216.992648 26.839219 
" clip-path="url(#p84b9a51dc6)" style="fill: #e5f266; stroke: #e5f266"/>
    <path d="M 216.992648 18.919219 
L 222.536648 18.919219 
L 222.536648 10.999219 
L 216.992648 10.999219 
L 216.992648 18.919219 
" clip-path="url(#p84b9a51dc6)" style="fill: #f7fb66; stroke: #f7fb66"/>
   </g>
   <g id="matplotlib.axis_3"/>
   <g id="matplotlib.axis_4">
    <g id="ytick_6">
     <g id="line2d_22">
      <defs>
       <path id="mffb4f25f18" d="M 0 0 
L 3.5 0 
" style="stroke: #000000; stroke-width: 0.8"/>
      </defs>
      <g>
       <use xlink:href="#mffb4f25f18" x="222.536648" y="121.879219" style="stroke: #000000; stroke-width: 0.8"/>
      </g>
     </g>
     <g id="text_25">
      <!-- 0.00 -->
      <g transform="translate(229.536648 125.678438) scale(0.1 -0.1)">
       <use xlink:href="#DejaVuSans-30"/>
       <use xlink:href="#DejaVuSans-2e" x="63.623047"/>
       <use xlink:href="#DejaVuSans-30" x="95.410156"/>
       <use xlink:href="#DejaVuSans-30" x="159.033203"/>
      </g>
     </g>
    </g>
    <g id="ytick_7">
     <g id="line2d_23">
      <g>
       <use xlink:href="#mffb4f25f18" x="222.536648" y="106.039219" style="stroke: #000000; stroke-width: 0.8"/>
      </g>
     </g>
     <g id="text_26">
      <!-- 0.03 -->
      <g transform="translate(229.536648 109.838438) scale(0.1 -0.1)">
       <defs>
        <path id="DejaVuSans-33" d="M 2597 2516 
Q 3050 2419 3304 2112 
Q 3559 1806 3559 1356 
Q 3559 666 3084 287 
Q 2609 -91 1734 -91 
Q 1441 -91 1130 -33 
Q 819 25 488 141 
L 488 750 
Q 750 597 1062 519 
Q 1375 441 1716 441 
Q 2309 441 2620 675 
Q 2931 909 2931 1356 
Q 2931 1769 2642 2001 
Q 2353 2234 1838 2234 
L 1294 2234 
L 1294 2753 
L 1863 2753 
Q 2328 2753 2575 2939 
Q 2822 3125 2822 3475 
Q 2822 3834 2567 4026 
Q 2313 4219 1838 4219 
Q 1578 4219 1281 4162 
Q 984 4106 628 3988 
L 628 4550 
Q 988 4650 1302 4700 
Q 1616 4750 1894 4750 
Q 2613 4750 3031 4423 
Q 3450 4097 3450 3541 
Q 3450 3153 3228 2886 
Q 3006 2619 2597 2516 
z
" transform="scale(0.015625)"/>
       </defs>
       <use xlink:href="#DejaVuSans-30"/>
       <use xlink:href="#DejaVuSans-2e" x="63.623047"/>
       <use xlink:href="#DejaVuSans-30" x="95.410156"/>
       <use xlink:href="#DejaVuSans-33" x="159.033203"/>
      </g>
     </g>
    </g>
    <g id="ytick_8">
     <g id="line2d_24">
      <g>
       <use xlink:href="#mffb4f25f18" x="222.536648" y="90.199219" style="stroke: #000000; stroke-width: 0.8"/>
      </g>
     </g>
     <g id="text_27">
      <!-- 0.06 -->
      <g transform="translate(229.536648 93.998438) scale(0.1 -0.1)">
       <use xlink:href="#DejaVuSans-30"/>
       <use xlink:href="#DejaVuSans-2e" x="63.623047"/>
       <use xlink:href="#DejaVuSans-30" x="95.410156"/>
       <use xlink:href="#DejaVuSans-36" x="159.033203"/>
      </g>
     </g>
    </g>
    <g id="ytick_9">
     <g id="line2d_25">
      <g>
       <use xlink:href="#mffb4f25f18" x="222.536648" y="74.359219" style="stroke: #000000; stroke-width: 0.8"/>
      </g>
     </g>
     <g id="text_28">
      <!-- 0.09 -->
      <g transform="translate(229.536648 78.158438) scale(0.1 -0.1)">
       <defs>
        <path id="DejaVuSans-39" d="M 703 97 
L 703 672 
Q 941 559 1184 500 
Q 1428 441 1663 441 
Q 2288 441 2617 861 
Q 2947 1281 2994 2138 
Q 2813 1869 2534 1725 
Q 2256 1581 1919 1581 
Q 1219 1581 811 2004 
Q 403 2428 403 3163 
Q 403 3881 828 4315 
Q 1253 4750 1959 4750 
Q 2769 4750 3195 4129 
Q 3622 3509 3622 2328 
Q 3622 1225 3098 567 
Q 2575 -91 1691 -91 
Q 1453 -91 1209 -44 
Q 966 3 703 97 
z
M 1959 2075 
Q 2384 2075 2632 2365 
Q 2881 2656 2881 3163 
Q 2881 3666 2632 3958 
Q 2384 4250 1959 4250 
Q 1534 4250 1286 3958 
Q 1038 3666 1038 3163 
Q 1038 2656 1286 2365 
Q 1534 2075 1959 2075 
z
" transform="scale(0.015625)"/>
       </defs>
       <use xlink:href="#DejaVuSans-30"/>
       <use xlink:href="#DejaVuSans-2e" x="63.623047"/>
       <use xlink:href="#DejaVuSans-30" x="95.410156"/>
       <use xlink:href="#DejaVuSans-39" x="159.033203"/>
      </g>
     </g>
    </g>
    <g id="ytick_10">
     <g id="line2d_26">
      <g>
       <use xlink:href="#mffb4f25f18" x="222.536648" y="58.519219" style="stroke: #000000; stroke-width: 0.8"/>
      </g>
     </g>
     <g id="text_29">
      <!-- 0.12 -->
      <g transform="translate(229.536648 62.318438) scale(0.1 -0.1)">
       <use xlink:href="#DejaVuSans-30"/>
       <use xlink:href="#DejaVuSans-2e" x="63.623047"/>
       <use xlink:href="#DejaVuSans-31" x="95.410156"/>
       <use xlink:href="#DejaVuSans-32" x="159.033203"/>
      </g>
     </g>
    </g>
    <g id="ytick_11">
     <g id="line2d_27">
      <g>
       <use xlink:href="#mffb4f25f18" x="222.536648" y="42.679219" style="stroke: #000000; stroke-width: 0.8"/>
      </g>
     </g>
     <g id="text_30">
      <!-- 0.15 -->
      <g transform="translate(229.536648 46.478438) scale(0.1 -0.1)">
       <defs>
        <path id="DejaVuSans-35" d="M 691 4666 
L 3169 4666 
L 3169 4134 
L 1269 4134 
L 1269 2991 
Q 1406 3038 1543 3061 
Q 1681 3084 1819 3084 
Q 2600 3084 3056 2656 
Q 3513 2228 3513 1497 
Q 3513 744 3044 326 
Q 2575 -91 1722 -91 
Q 1428 -91 1123 -41 
Q 819 9 494 109 
L 494 744 
Q 775 591 1075 516 
Q 1375 441 1709 441 
Q 2250 441 2565 725 
Q 2881 1009 2881 1497 
Q 2881 1984 2565 2268 
Q 2250 2553 1709 2553 
Q 1456 2553 1204 2497 
Q 953 2441 691 2322 
L 691 4666 
z
" transform="scale(0.015625)"/>
       </defs>
       <use xlink:href="#DejaVuSans-30"/>
       <use xlink:href="#DejaVuSans-2e" x="63.623047"/>
       <use xlink:href="#DejaVuSans-31" x="95.410156"/>
       <use xlink:href="#DejaVuSans-35" x="159.033203"/>
      </g>
     </g>
    </g>
    <g id="ytick_12">
     <g id="line2d_28">
      <g>
       <use xlink:href="#mffb4f25f18" x="222.536648" y="26.839219" style="stroke: #000000; stroke-width: 0.8"/>
      </g>
     </g>
     <g id="text_31">
      <!-- 0.18 -->
      <g transform="translate(229.536648 30.638438) scale(0.1 -0.1)">
       <use xlink:href="#DejaVuSans-30"/>
       <use xlink:href="#DejaVuSans-2e" x="63.623047"/>
       <use xlink:href="#DejaVuSans-31" x="95.410156"/>
       <use xlink:href="#DejaVuSans-38" x="159.033203"/>
      </g>
     </g>
    </g>
    <g id="ytick_13">
     <g id="line2d_29">
      <g>
       <use xlink:href="#mffb4f25f18" x="222.536648" y="10.999219" style="stroke: #000000; stroke-width: 0.8"/>
      </g>
     </g>
     <g id="text_32">
      <!-- 0.21 -->
      <g transform="translate(229.536648 14.798438) scale(0.1 -0.1)">
       <use xlink:href="#DejaVuSans-30"/>
       <use xlink:href="#DejaVuSans-2e" x="63.623047"/>
       <use xlink:href="#DejaVuSans-32" x="95.410156"/>
       <use xlink:href="#DejaVuSans-31" x="159.033203"/>
      </g>
     </g>
    </g>
   </g>
   <g id="LineCollection_1"/>
   <g id="patch_4">
    <path d="M 216.992648 121.879219 
L 219.764648 121.879219 
L 222.536648 121.879219 
L 222.536648 10.999219 
L 219.764648 10.999219 
L 216.992648 10.999219 
L 216.992648 121.879219 
z
" style="fill: none; stroke: #000000; stroke-width: 0.8; stroke-linejoin: miter; stroke-linecap: square"/>
   </g>
  </g>
 </g>
 <defs>
  <clipPath id="pa6cd8d356a">
   <rect x="27.272648" y="26.841084" width="178.56" height="156.812269"/>
  </clipPath>
  <clipPath id="p84b9a51dc6">
   <rect x="216.992648" y="10.999219" width="5.544" height="110.88"/>
  </clipPath>
 </defs>
</svg>
