<?xml version="1.0" encoding="utf-8" standalone="no"?>
<!DOCTYPE svg PUBLIC "-//W3C//DTD SVG 1.1//EN"
  "http://www.w3.org/Graphics/SVG/1.1/DTD/svg11.dtd">
<svg xmlns:xlink="http://www.w3.org/1999/xlink" width="259.002273pt" height="210.047792pt" viewBox="0 0 259.002273 210.047792" xmlns="http://www.w3.org/2000/svg" version="1.1">
 <metadata>
  <rdf:RDF xmlns:dc="http://purl.org/dc/elements/1.1/" xmlns:cc="http://creativecommons.org/ns#" xmlns:rdf="http://www.w3.org/1999/02/22-rdf-syntax-ns#">
   <cc:Work>
    <dc:type rdf:resource="http://purl.org/dc/dcmitype/StillImage"/>
    <dc:date>2024-01-12T09:43:13.839975</dc:date>
    <dc:format>image/svg+xml</dc:format>
    <dc:creator>
     <cc:Agent>
      <dc:title>Matplotlib v3.7.0, https://matplotlib.org/</dc:title>
     </cc:Agent>
    </dc:creator>
   </cc:Work>
  </rdf:RDF>
 </metadata>
 <defs>
  <style type="text/css">*{stroke-linejoin: round; stroke-linecap: butt}</style>
 </defs>
 <g id="figure_1">
  <g id="patch_1">
   <path d="M 0 210.047792 
L 259.002273 210.047792 
L 259.002273 0 
L 0 0 
z
" style="fill: #ffffff"/>
  </g>
  <g id="axes_1">
   <g id="patch_2">
    <path d="M 27.272648 182.431462 
L 205.832648 182.431462 
L 205.832648 25.619193 
L 27.272648 25.619193 
z
" style="fill: #ffffff"/>
   </g>
   <g id="PathCollection_1">
    <defs>
     <path id="m489619c00d" d="M 100.37129 -148.285301 
L 100.482248 -148.196327 
L 105.06593 -142.358702 
L 105.290053 -141.16735 
L 110.02834 -136.895894 
L 115.941739 -135.196498 
L 117.115168 -135.112686 
L 118.696593 -134.138373 
L 122.807022 -130.913312 
L 128.036439 -128.305817 
L 128.96591 -127.522865 
L 130.582362 -127.109395 
L 136.175442 -125.952186 
L 137.950334 -125.192402 
L 142.811471 -123.388172 
L 147.696834 -120.080418 
L 148.755072 -119.624836 
L 149.412648 -119.397046 
L 149.018102 -120.080418 
L 144.95992 -127.109395 
L 140.901739 -134.138373 
L 136.843557 -141.16735 
L 132.785375 -148.196327 
L 128.727193 -155.225304 
L 124.669011 -162.254281 
L 120.61083 -169.283258 
L 116.552648 -176.312235 
L 112.494466 -169.283258 
L 108.436284 -162.254281 
L 104.378102 -155.225304 
M 79.59729 -35.732693 
L 76.611595 -36.842532 
L 73.53592 -39.950079 
L 71.512545 -42.068673 
L 70.377119 -42.76167 
L 64.898053 -44.66999 
L 60.414466 -48.619151 
L 59.307145 -49.044207 
L 51.661525 -49.721736 
L 51.596842 -49.747525 
L 51.536303 -49.790647 
L 46.60675 -55.162386 
L 43.505375 -49.790647 
L 39.447193 -42.76167 
L 35.389011 -35.732693 
L 43.505375 -35.732693 
L 51.621739 -35.732693 
L 59.738102 -35.732693 
L 67.854466 -35.732693 
L 75.97083 -35.732693 
" style="stroke: #3e4b89"/>
    </defs>
    <g clip-path="url(#p815e58ab20)">
     <use xlink:href="#m489619c00d" x="0" y="210.047792" style="fill: #3e4b89; stroke: #3e4b89"/>
    </g>
   </g>
   <g id="PathCollection_2">
    <defs>
     <path id="m715a58107c" d="M 149.412648 -119.397046 
L 148.755072 -119.624836 
L 147.696834 -120.080418 
L 142.811471 -123.388172 
L 137.950334 -125.192402 
L 136.175442 -125.952186 
L 130.582362 -127.109395 
L 128.96591 -127.522865 
L 128.036439 -128.305817 
L 122.807022 -130.913312 
L 118.696593 -134.138373 
L 117.115168 -135.112686 
L 115.941739 -135.196498 
L 110.02834 -136.895894 
L 105.290053 -141.16735 
L 105.06593 -142.358702 
L 100.482248 -148.196327 
L 100.37129 -148.285301 
L 100.31992 -148.196327 
L 96.261739 -141.16735 
L 92.203557 -134.138373 
L 88.229049 -127.254323 
L 88.463664 -127.109395 
L 93.379841 -122.117803 
L 98.377174 -123.445354 
L 101.713952 -122.494952 
L 106.944305 -122.664601 
L 109.644076 -122.172376 
L 113.210616 -120.080418 
L 115.759148 -118.706037 
L 117.499557 -118.440324 
L 123.742983 -118.476491 
L 125.838318 -118.05512 
L 131.046154 -117.068 
L 134.97055 -116.295585 
L 138.047633 -115.136962 
L 144.897487 -113.159579 
L 144.997496 -113.116524 
L 145.185375 -113.051441 
L 151.581164 -110.461818 
L 155.119973 -109.511669 
L 153.076284 -113.051441 
M 46.60675 -55.162386 
L 51.536303 -49.790647 
L 51.596842 -49.747525 
L 51.661525 -49.721736 
L 59.307145 -49.044207 
L 60.414466 -48.619151 
L 64.898053 -44.66999 
L 70.377119 -42.76167 
L 71.512545 -42.068673 
L 73.53592 -39.950079 
L 76.611595 -36.842532 
L 79.59729 -35.732693 
L 84.087193 -35.732693 
L 91.889664 -35.732693 
L 90.532541 -38.626978 
L 88.686466 -42.76167 
L 88.386933 -43.180062 
L 87.673493 -43.578993 
L 82.206572 -46.533317 
L 78.903633 -49.790647 
L 77.586587 -52.589222 
L 75.343125 -50.877863 
L 68.43209 -50.791122 
L 65.125688 -54.517029 
L 63.423794 -56.174453 
L 62.562597 -56.819624 
L 57.255625 -59.548824 
L 52.960939 -63.848602 
L 53.235233 -66.643255 
L 51.621739 -63.848602 
L 47.563557 -56.819624 
" style="stroke: #37598c"/>
    </defs>
    <g clip-path="url(#p815e58ab20)">
     <use xlink:href="#m715a58107c" x="0" y="210.047792" style="fill: #37598c; stroke: #37598c"/>
    </g>
   </g>
   <g id="PathCollection_3">
    <defs>
     <path id="mb5e243e6ae" d="M 155.119973 -109.511669 
L 151.581164 -110.461818 
L 145.185375 -113.051441 
L 144.997496 -113.116524 
L 144.897487 -113.159579 
L 138.047633 -115.136962 
L 134.97055 -116.295585 
L 131.046154 -117.068 
L 125.838318 -118.05512 
L 123.742983 -118.476491 
L 117.499557 -118.440324 
L 115.759148 -118.706037 
L 113.210616 -120.080418 
L 109.644076 -122.172376 
L 106.944305 -122.664601 
L 101.713952 -122.494952 
L 98.377174 -123.445354 
L 93.379841 -122.117803 
L 88.463664 -127.109395 
L 88.229049 -127.254323 
L 88.145375 -127.109395 
L 84.087193 -120.080418 
L 80.029011 -113.051441 
L 76.557011 -107.037761 
L 81.911421 -109.791012 
L 86.432506 -110.084665 
L 89.282366 -111.082116 
L 94.958501 -110.794168 
L 97.732364 -110.504243 
L 103.543276 -111.60548 
L 105.332969 -111.397564 
L 111.180835 -110.776165 
L 113.541739 -111.237512 
L 119.208612 -110.62273 
L 122.910466 -109.068354 
L 126.126369 -108.546682 
L 130.810154 -109.443648 
L 134.529125 -109.042728 
L 140.103408 -106.022464 
L 140.642706 -105.573806 
L 141.108087 -105.665059 
L 147.95016 -104.172733 
L 150.039029 -104.254168 
L 155.693756 -103.527082 
L 159.171331 -102.49451 
L 157.134466 -106.022464 
M 53.235233 -66.643255 
L 52.960939 -63.848602 
L 57.255625 -59.548824 
L 62.562597 -56.819624 
L 63.423794 -56.174453 
L 65.125688 -54.517029 
L 68.43209 -50.791122 
L 75.343125 -50.877863 
L 77.586587 -52.589222 
L 78.903633 -49.790647 
L 82.206572 -46.533317 
L 87.673493 -43.578993 
L 88.386933 -43.180062 
L 88.686466 -42.76167 
L 90.532541 -38.626978 
L 91.889664 -35.732693 
L 92.203557 -35.732693 
L 100.31992 -35.732693 
L 101.323067 -35.732693 
L 100.77083 -36.513691 
L 99.552156 -42.76167 
L 97.325018 -44.603324 
L 93.819136 -49.790647 
L 92.799514 -50.822875 
L 89.15992 -55.06238 
L 87.733675 -56.10654 
L 87.382764 -56.819624 
L 83.089651 -62.120808 
L 77.504336 -61.19249 
L 73.583664 -56.819624 
L 72.42357 -55.934681 
L 71.394267 -55.921762 
L 70.597496 -56.819624 
L 69.505252 -60.989357 
L 69.692133 -63.848602 
L 68.348864 -64.704924 
L 64.376024 -69.873439 
L 63.357562 -70.117689 
L 63.585469 -70.877579 
L 63.538622 -71.323863 
L 66.209257 -77.906556 
L 60.826433 -79.7916 
L 59.738102 -77.906556 
L 55.67992 -70.877579 
" style="stroke: #31678e"/>
    </defs>
    <g clip-path="url(#p815e58ab20)">
     <use xlink:href="#mb5e243e6ae" x="0" y="210.047792" style="fill: #31678e; stroke: #31678e"/>
    </g>
   </g>
   <g id="PathCollection_4">
    <defs>
     <path id="me2bc49daf0" d="M 159.171331 -102.49451 
L 155.693756 -103.527082 
L 150.039029 -104.254168 
L 147.95016 -104.172733 
L 141.108087 -105.665059 
L 140.642706 -105.573806 
L 140.103408 -106.022464 
L 134.529125 -109.042728 
L 130.810154 -109.443648 
L 126.126369 -108.546682 
L 122.910466 -109.068354 
L 119.208612 -110.62273 
L 113.541739 -111.237512 
L 111.180835 -110.776165 
L 105.332969 -111.397564 
L 103.543276 -111.60548 
L 97.732364 -110.504243 
L 94.958501 -110.794168 
L 89.282366 -111.082116 
L 86.432506 -110.084665 
L 81.911421 -109.791012 
L 76.557011 -107.037761 
L 75.97083 -106.022464 
L 71.912648 -98.993487 
L 67.854466 -91.96451 
L 63.796284 -84.935533 
L 60.826433 -79.7916 
L 66.209257 -77.906556 
L 63.538622 -71.323863 
L 63.585469 -70.877579 
L 63.357562 -70.117689 
L 64.376024 -69.873439 
L 68.348864 -64.704924 
L 69.692133 -63.848602 
L 69.505252 -60.989357 
L 70.597496 -56.819624 
L 71.394267 -55.921762 
L 72.42357 -55.934681 
L 73.583664 -56.819624 
L 77.504336 -61.19249 
L 83.089651 -62.120808 
L 87.382764 -56.819624 
L 87.733675 -56.10654 
L 89.15992 -55.06238 
L 92.799514 -50.822875 
L 93.819136 -49.790647 
L 97.325018 -44.603324 
L 99.552156 -42.76167 
L 100.77083 -36.513691 
L 101.323067 -35.732693 
L 108.436284 -35.732693 
L 114.159962 -35.732693 
L 111.365859 -40.806866 
L 110.095289 -42.76167 
L 106.036921 -45.634829 
L 101.623585 -49.790647 
L 101.047109 -51.050175 
L 98.642539 -52.695958 
L 95.637403 -55.738243 
L 94.709043 -56.819624 
L 94.681562 -59.556571 
L 94.021833 -63.848602 
L 93.078602 -65.364225 
L 91.214106 -65.56238 
L 85.79821 -66.81217 
L 81.322668 -68.6369 
L 78.477979 -68.191111 
L 74.104066 -70.877579 
L 73.008357 -72.775402 
L 73.674339 -77.906556 
L 71.236284 -83.764037 
L 67.96126 -84.935533 
L 71.242323 -86.096569 
L 75.368129 -91.96451 
L 75.572969 -92.653625 
L 76.408763 -92.723033 
L 82.904523 -94.012955 
L 86.003557 -95.283749 
L 89.444905 -96.742635 
L 94.829439 -96.512672 
L 98.632004 -94.888067 
L 101.131557 -98.993487 
L 102.677531 -101.938963 
L 105.784087 -101.428723 
L 111.520502 -98.993487 
L 112.340358 -98.726564 
L 112.590707 -98.826792 
L 113.081191 -98.993487 
L 117.917036 -103.659274 
L 122.084792 -101.546465 
L 128.158531 -99.978439 
L 129.524336 -100.374179 
L 132.608932 -98.993487 
L 136.5134 -98.421638 
L 137.201632 -98.373283 
L 140.901739 -98.993487 
L 144.547224 -99.708298 
L 145.280303 -99.548406 
L 152.591344 -99.833428 
L 153.4942 -99.717338 
L 155.932042 -98.993487 
L 160.213087 -97.296837 
L 162.306658 -97.063964 
L 161.192648 -98.993487 
M 87.706653 -84.175643 
L 88.219837 -84.806561 
L 88.277887 -84.935533 
L 88.275237 -85.16046 
L 87.850235 -85.446731 
L 87.931786 -84.935533 
" style="stroke: #2b748e"/>
    </defs>
    <g clip-path="url(#p815e58ab20)">
     <use xlink:href="#me2bc49daf0" x="0" y="210.047792" style="fill: #2b748e; stroke: #2b748e"/>
    </g>
   </g>
   <g id="PathCollection_5">
    <defs>
     <path id="md59d6eef79" d="M 162.306658 -97.063964 
L 160.213087 -97.296837 
L 155.932042 -98.993487 
L 153.4942 -99.717338 
L 152.591344 -99.833428 
L 145.280303 -99.548406 
L 144.547224 -99.708298 
L 140.901739 -98.993487 
L 137.201632 -98.373283 
L 136.5134 -98.421638 
L 132.608932 -98.993487 
L 129.524336 -100.374179 
L 128.158531 -99.978439 
L 122.084792 -101.546465 
L 117.917036 -103.659274 
L 113.081191 -98.993487 
L 112.590707 -98.826792 
L 112.340358 -98.726564 
L 111.520502 -98.993487 
L 105.784087 -101.428723 
L 102.677531 -101.938963 
L 101.131557 -98.993487 
L 98.632004 -94.888067 
L 94.829439 -96.512672 
L 89.444905 -96.742635 
L 86.003557 -95.283749 
L 82.904523 -94.012955 
L 76.408763 -92.723033 
L 75.572969 -92.653625 
L 75.368129 -91.96451 
L 71.242323 -86.096569 
L 67.96126 -84.935533 
L 71.236284 -83.764037 
L 73.674339 -77.906556 
L 73.008357 -72.775402 
L 74.104066 -70.877579 
L 78.477979 -68.191111 
L 81.322668 -68.6369 
L 85.79821 -66.81217 
L 91.214106 -65.56238 
L 93.078602 -65.364225 
L 94.021833 -63.848602 
L 94.681562 -59.556571 
L 94.709043 -56.819624 
L 95.637403 -55.738243 
L 98.642539 -52.695958 
L 101.047109 -51.050175 
L 101.623585 -49.790647 
L 106.036921 -45.634829 
L 110.095289 -42.76167 
L 111.365859 -40.806866 
L 114.159962 -35.732693 
L 116.552648 -35.732693 
L 122.07474 -35.732693 
L 122.904584 -38.78877 
L 124.078384 -42.76167 
L 123.22994 -47.298102 
L 116.63992 -49.639487 
L 116.500284 -49.699951 
L 116.14683 -49.790647 
L 116.410255 -50.037278 
L 114.523557 -56.819624 
L 113.872244 -59.206006 
L 110.865269 -59.641477 
L 106.059349 -59.731629 
L 101.951561 -61.022518 
L 99.508284 -62.442806 
L 99.292199 -63.848602 
L 95.614966 -69.757335 
L 88.346133 -70.529855 
L 87.991822 -70.611617 
L 87.339495 -70.877579 
L 87.831482 -71.421256 
L 91.575772 -77.906556 
L 91.94294 -78.357958 
L 94.90349 -84.935533 
L 94.875193 -87.3371 
L 97.119396 -86.421038 
L 102.619557 -87.981423 
L 107.255722 -89.919717 
L 110.576864 -88.256918 
L 112.537184 -91.96451 
L 115.798756 -93.270288 
L 117.674616 -93.907815 
L 120.93735 -91.96451 
L 123.884822 -90.606254 
L 125.305589 -90.861925 
L 127.593827 -91.96451 
L 131.628223 -93.968756 
L 133.76209 -93.65623 
L 140.185589 -93.204918 
L 141.771349 -93.470719 
L 148.025328 -93.684045 
L 150.074341 -93.79397 
L 156.688512 -92.736925 
L 157.414341 -92.449267 
L 161.772388 -91.96451 
L 165.008309 -91.544452 
L 165.430395 -91.653493 
L 165.25083 -91.96451 
M 87.931786 -84.935533 
L 87.850235 -85.446731 
L 88.275237 -85.16046 
L 88.277887 -84.935533 
L 88.219837 -84.806561 
L 87.706653 -84.175643 
" style="stroke: #26828e"/>
    </defs>
    <g clip-path="url(#p815e58ab20)">
     <use xlink:href="#md59d6eef79" x="0" y="210.047792" style="fill: #26828e; stroke: #26828e"/>
    </g>
   </g>
   <g id="PathCollection_6">
    <defs>
     <path id="m0a39194f3e" d="M 165.430395 -91.653493 
L 165.008309 -91.544452 
L 161.772388 -91.96451 
L 157.414341 -92.449267 
L 156.688512 -92.736925 
L 150.074341 -93.79397 
L 148.025328 -93.684045 
L 141.771349 -93.470719 
L 140.185589 -93.204918 
L 133.76209 -93.65623 
L 131.628223 -93.968756 
L 127.593827 -91.96451 
L 125.305589 -90.861925 
L 123.884822 -90.606254 
L 120.93735 -91.96451 
L 117.674616 -93.907815 
L 115.798756 -93.270288 
L 112.537184 -91.96451 
L 110.576864 -88.256918 
L 107.255722 -89.919717 
L 102.619557 -87.981423 
L 97.119396 -86.421038 
L 94.875193 -87.3371 
L 94.90349 -84.935533 
L 91.94294 -78.357958 
L 91.575772 -77.906556 
L 87.831482 -71.421256 
L 87.339495 -70.877579 
L 87.991822 -70.611617 
L 88.346133 -70.529855 
L 95.614966 -69.757335 
L 99.292199 -63.848602 
L 99.508284 -62.442806 
L 101.951561 -61.022518 
L 106.059349 -59.731629 
L 110.865269 -59.641477 
L 113.872244 -59.206006 
L 114.523557 -56.819624 
L 116.410255 -50.037278 
L 116.14683 -49.790647 
L 116.500284 -49.699951 
L 116.63992 -49.639487 
L 123.22994 -47.298102 
L 124.078384 -42.76167 
L 122.904584 -38.78877 
L 122.07474 -35.732693 
L 124.669011 -35.732693 
L 132.785375 -35.732693 
L 133.959836 -35.732693 
L 133.611768 -37.164049 
L 130.858763 -42.76167 
L 130.07992 -45.104663 
L 128.647621 -49.790647 
L 127.474206 -54.649387 
L 123.395856 -56.819624 
L 121.890436 -59.035969 
L 121.019049 -63.848602 
L 119.778382 -69.435737 
L 114.555765 -67.307305 
L 110.673973 -67.724393 
L 109.789011 -70.877579 
L 107.507303 -76.297513 
L 106.190494 -77.906556 
L 106.784024 -80.768354 
L 109.517202 -79.77876 
L 110.726545 -77.906556 
L 114.111003 -73.677503 
L 120.03452 -71.875777 
L 122.132648 -73.513445 
L 125.689938 -76.13826 
L 126.105536 -77.906556 
L 127.620416 -83.018539 
L 126.19083 -84.935533 
L 128.488477 -85.349002 
L 129.14992 -85.667718 
L 135.776835 -86.78315 
L 137.786367 -86.568528 
L 143.152993 -88.065223 
L 146.828215 -88.171515 
L 152.493072 -85.945685 
L 153.553717 -85.762471 
L 160.516284 -86.107029 
L 161.774698 -85.943673 
L 167.824603 -87.506604 
" style="stroke: #218e8d"/>
    </defs>
    <g clip-path="url(#p815e58ab20)">
     <use xlink:href="#m0a39194f3e" x="0" y="210.047792" style="fill: #218e8d; stroke: #218e8d"/>
    </g>
   </g>
   <g id="PathCollection_7">
    <defs>
     <path id="m1b8229d515" d="M 167.824603 -87.506604 
L 161.774698 -85.943673 
L 160.516284 -86.107029 
L 153.553717 -85.762471 
L 152.493072 -85.945685 
L 146.828215 -88.171515 
L 143.152993 -88.065223 
L 137.786367 -86.568528 
L 135.776835 -86.78315 
L 129.14992 -85.667718 
L 128.488477 -85.349002 
L 126.19083 -84.935533 
L 127.620416 -83.018539 
L 126.105536 -77.906556 
L 125.689938 -76.13826 
L 122.132648 -73.513445 
L 120.03452 -71.875777 
L 114.111003 -73.677503 
L 110.726545 -77.906556 
L 109.517202 -79.77876 
L 106.784024 -80.768354 
L 106.190494 -77.906556 
L 107.507303 -76.297513 
L 109.789011 -70.877579 
L 110.673973 -67.724393 
L 114.555765 -67.307305 
L 119.778382 -69.435737 
L 121.019049 -63.848602 
L 121.890436 -59.035969 
L 123.395856 -56.819624 
L 127.474206 -54.649387 
L 128.647621 -49.790647 
L 130.07992 -45.104663 
L 130.858763 -42.76167 
L 133.611768 -37.164049 
L 133.959836 -35.732693 
L 138.154339 -35.732693 
L 136.563173 -42.276032 
L 136.324328 -42.76167 
L 135.619661 -44.881521 
L 135.031413 -49.790647 
L 133.575463 -51.159121 
L 132.154102 -56.819624 
L 133.168984 -63.184171 
L 133.971613 -63.848602 
L 137.239477 -70.191825 
L 137.549328 -70.877579 
L 141.254624 -77.29534 
L 147.154474 -74.678656 
L 150.111869 -76.012096 
L 155.35716 -77.906556 
L 156.543469 -78.930193 
L 157.76202 -78.993511 
L 162.930355 -81.925736 
L 168.263514 -83.124678 
L 170.459839 -82.942241 
L 169.309011 -84.935533 
" style="stroke: #1e9b8a"/>
    </defs>
    <g clip-path="url(#p815e58ab20)">
     <use xlink:href="#m1b8229d515" x="0" y="210.047792" style="fill: #1e9b8a; stroke: #1e9b8a"/>
    </g>
   </g>
   <g id="PathCollection_8">
    <defs>
     <path id="m73baa21080" d="M 170.459839 -82.942241 
L 168.263514 -83.124678 
L 162.930355 -81.925736 
L 157.76202 -78.993511 
L 156.543469 -78.930193 
L 155.35716 -77.906556 
L 150.111869 -76.012096 
L 147.154474 -74.678656 
L 141.254624 -77.29534 
L 137.549328 -70.877579 
L 137.239477 -70.191825 
L 133.971613 -63.848602 
L 133.168984 -63.184171 
L 132.154102 -56.819624 
L 133.575463 -51.159121 
L 135.031413 -49.790647 
L 135.619661 -44.881521 
L 136.324328 -42.76167 
L 136.563173 -42.276032 
L 138.154339 -35.732693 
L 140.901739 -35.732693 
L 149.018102 -35.732693 
L 149.736895 -35.732693 
L 149.361047 -36.326691 
L 147.785237 -37.868079 
L 143.15992 -39.643979 
L 143.068395 -42.76167 
L 143.365635 -45.523054 
L 143.410433 -49.790647 
L 143.171117 -53.721325 
L 138.562316 -56.819624 
L 143.216983 -59.83848 
L 148.426284 -63.848602 
L 148.667395 -64.456044 
L 148.622182 -70.877579 
L 152.156293 -72.47105 
L 154.481039 -73.310686 
L 159.52992 -73.757507 
L 164.434899 -77.906556 
L 165.04951 -78.255252 
L 165.512204 -78.35927 
L 170.962345 -77.906556 
L 173.211856 -77.637504 
L 173.483141 -77.705728 
L 173.367193 -77.906556 
" style="stroke: #23a884"/>
    </defs>
    <g clip-path="url(#p815e58ab20)">
     <use xlink:href="#m73baa21080" x="0" y="210.047792" style="fill: #23a884; stroke: #23a884"/>
    </g>
   </g>
   <g id="PathCollection_9">
    <defs>
     <path id="mc6661e7aae" d="M 173.483141 -77.705728 
L 173.211856 -77.637504 
L 170.962345 -77.906556 
L 165.512204 -78.35927 
L 165.04951 -78.255252 
L 164.434899 -77.906556 
L 159.52992 -73.757507 
L 154.481039 -73.310686 
L 152.156293 -72.47105 
L 148.622182 -70.877579 
L 148.667395 -64.456044 
L 148.426284 -63.848602 
L 143.216983 -59.83848 
L 138.562316 -56.819624 
L 143.171117 -53.721325 
L 143.410433 -49.790647 
L 143.365635 -45.523054 
L 143.068395 -42.76167 
L 143.15992 -39.643979 
L 147.785237 -37.868079 
L 149.361047 -36.326691 
L 149.736895 -35.732693 
L 155.726831 -35.732693 
L 152.218922 -41.276675 
L 150.700763 -42.76167 
L 149.597843 -48.786508 
L 149.516039 -49.790647 
L 153.204708 -56.597188 
L 153.239263 -56.819624 
L 153.403557 -57.386477 
L 155.283935 -63.848602 
L 155.749338 -66.247714 
L 158.798612 -66.730988 
L 163.743505 -63.848602 
L 165.045552 -63.49305 
L 165.46018 -63.485996 
L 165.713605 -63.848602 
L 169.019141 -70.375509 
L 169.211224 -70.877579 
L 169.286714 -70.916199 
L 169.328429 -70.91121 
L 176.381843 -72.68503 
" style="stroke: #32b57b"/>
    </defs>
    <g clip-path="url(#p815e58ab20)">
     <use xlink:href="#mc6661e7aae" x="0" y="210.047792" style="fill: #32b57b; stroke: #32b57b"/>
    </g>
   </g>
   <g id="PathCollection_10">
    <defs>
     <path id="m8d21599b4f" d="M 176.381843 -72.68503 
L 169.328429 -70.91121 
L 169.286714 -70.916199 
L 169.211224 -70.877579 
L 169.019141 -70.375509 
L 165.713605 -63.848602 
L 165.46018 -63.485996 
L 165.045552 -63.49305 
L 163.743505 -63.848602 
L 158.798612 -66.730988 
L 155.749338 -66.247714 
L 155.283935 -63.848602 
L 153.403557 -57.386477 
L 153.239263 -56.819624 
L 153.204708 -56.597188 
L 149.516039 -49.790647 
L 149.597843 -48.786508 
L 150.700763 -42.76167 
L 152.218922 -41.276675 
L 155.726831 -35.732693 
L 157.134466 -35.732693 
L 162.804802 -35.732693 
L 160.254576 -41.136882 
L 159.185375 -42.76167 
L 159.185375 -46.238369 
L 160.186219 -49.790647 
L 159.23045 -53.420998 
L 159.758431 -56.819624 
L 160.237781 -58.473501 
L 161.887434 -58.023029 
L 168.680959 -57.907442 
L 172.833222 -63.848602 
L 173.082741 -64.341287 
L 173.792877 -64.585907 
L 179.122915 -67.937353 
L 177.425375 -70.877579 
" style="stroke: #47c06f"/>
    </defs>
    <g clip-path="url(#p815e58ab20)">
     <use xlink:href="#m8d21599b4f" x="0" y="210.047792" style="fill: #47c06f; stroke: #47c06f"/>
    </g>
   </g>
   <g id="PathCollection_11">
    <defs>
     <path id="mf0f8cc8d7e" d="M 179.122915 -67.937353 
L 173.792877 -64.585907 
L 173.082741 -64.341287 
L 172.833222 -63.848602 
L 168.680959 -57.907442 
L 161.887434 -58.023029 
L 160.237781 -58.473501 
L 159.758431 -56.819624 
L 159.23045 -53.420998 
L 160.186219 -49.790647 
L 159.185375 -46.238369 
L 159.185375 -42.76167 
L 160.254576 -41.136882 
L 162.804802 -35.732693 
L 165.25083 -35.732693 
L 168.888263 -35.732693 
L 168.174466 -40.79658 
L 167.260221 -42.76167 
L 168.096221 -44.862284 
L 168.497375 -49.790647 
L 171.208335 -53.5299 
L 172.720851 -56.819624 
L 175.211821 -60.653612 
L 181.117655 -63.214841 
L 181.775322 -63.34325 
L 181.483557 -63.848602 
" style="stroke: #64cb5e"/>
    </defs>
    <g clip-path="url(#p815e58ab20)">
     <use xlink:href="#mf0f8cc8d7e" x="0" y="210.047792" style="fill: #64cb5e; stroke: #64cb5e"/>
    </g>
   </g>
   <g id="PathCollection_12">
    <defs>
     <path id="m927860dc44" d="M 181.775322 -63.34325 
L 181.117655 -63.214841 
L 175.211821 -60.653612 
L 172.720851 -56.819624 
L 171.208335 -53.5299 
L 168.497375 -49.790647 
L 168.096221 -44.862284 
L 167.260221 -42.76167 
L 168.174466 -40.79658 
L 168.888263 -35.732693 
L 173.367193 -35.732693 
L 175.503078 -35.732693 
L 174.353557 -37.441125 
L 173.983026 -42.76167 
L 173.914726 -48.842293 
L 174.053652 -49.790647 
L 175.136144 -52.85456 
L 176.959161 -56.819624 
L 177.206014 -57.199569 
L 177.791277 -57.453385 
L 184.427728 -58.749148 
" style="stroke: #84d44b"/>
    </defs>
    <g clip-path="url(#p815e58ab20)">
     <use xlink:href="#m927860dc44" x="0" y="210.047792" style="fill: #84d44b; stroke: #84d44b"/>
    </g>
   </g>
   <g id="PathCollection_13">
    <defs>
     <path id="m84825f701e" d="M 184.427728 -58.749148 
L 177.791277 -57.453385 
L 177.206014 -57.199569 
L 176.959161 -56.819624 
L 175.136144 -52.85456 
L 174.053652 -49.790647 
L 173.914726 -48.842293 
L 173.983026 -42.76167 
L 174.353557 -37.441125 
L 175.503078 -35.732693 
L 181.483557 -35.732693 
L 185.179401 -35.732693 
L 184.619425 -41.164175 
L 183.529417 -42.76167 
L 182.895098 -47.345786 
L 182.261172 -49.790647 
L 187.304844 -53.765837 
L 185.541739 -56.819624 
" style="stroke: #a6db35"/>
    </defs>
    <g clip-path="url(#p815e58ab20)">
     <use xlink:href="#m84825f701e" x="0" y="210.047792" style="fill: #a6db35; stroke: #a6db35"/>
    </g>
   </g>
   <g id="PathCollection_14">
    <defs>
     <path id="mc9c0709307" d="M 187.304844 -53.765837 
L 182.261172 -49.790647 
L 182.895098 -47.345786 
L 183.529417 -42.76167 
L 184.619425 -41.164175 
L 185.179401 -35.732693 
L 189.59992 -35.732693 
L 192.49068 -35.732693 
L 191.724338 -39.412292 
L 191.266974 -42.76167 
L 191.257011 -46.920482 
L 189.59992 -49.790647 
" style="stroke: #cce11e"/>
    </defs>
    <g clip-path="url(#p815e58ab20)">
     <use xlink:href="#mc9c0709307" x="0" y="210.047792" style="fill: #cce11e; stroke: #cce11e"/>
    </g>
   </g>
   <g id="PathCollection_15">
    <defs>
     <path id="m616a1e2451" d="M 191.257011 -46.920482 
L 191.266974 -42.76167 
L 191.724338 -39.412292 
L 192.49068 -35.732693 
L 197.716284 -35.732693 
L 193.658102 -42.76167 
" style="stroke: #eee51b"/>
    </defs>
    <g clip-path="url(#p815e58ab20)">
     <use xlink:href="#m616a1e2451" x="0" y="210.047792" style="fill: #eee51b; stroke: #eee51b"/>
    </g>
   </g>
   <g id="line2d_1">
    <path d="M 35.389011 174.315099 
L 116.552648 33.735557 
" clip-path="url(#p815e58ab20)" style="fill: none; stroke: #000000; stroke-linecap: square"/>
   </g>
   <g id="line2d_2">
    <path d="M 116.552648 33.735557 
L 197.716284 174.315099 
" clip-path="url(#p815e58ab20)" style="fill: none; stroke: #000000; stroke-linecap: square"/>
   </g>
   <g id="line2d_3">
    <path d="M 35.389011 174.315099 
L 197.716284 174.315099 
" clip-path="url(#p815e58ab20)" style="fill: none; stroke: #000000; stroke-linecap: square"/>
   </g>
   <g id="line2d_4">
    <path d="M 197.716284 174.315099 
L 200.063861 178.381221 
" clip-path="url(#p815e58ab20)" style="fill: none; stroke: #000000; stroke-linecap: square"/>
   </g>
   <g id="line2d_5">
    <path d="M 165.25083 174.315099 
L 167.598407 178.381221 
" clip-path="url(#p815e58ab20)" style="fill: none; stroke: #000000; stroke-linecap: square"/>
   </g>
   <g id="line2d_6">
    <path d="M 132.785375 174.315099 
L 135.132952 178.381221 
" clip-path="url(#p815e58ab20)" style="fill: none; stroke: #000000; stroke-linecap: square"/>
   </g>
   <g id="line2d_7">
    <path d="M 100.31992 174.315099 
L 102.667497 178.381221 
" clip-path="url(#p815e58ab20)" style="fill: none; stroke: #000000; stroke-linecap: square"/>
   </g>
   <g id="line2d_8">
    <path d="M 67.854466 174.315099 
L 70.202043 178.381221 
" clip-path="url(#p815e58ab20)" style="fill: none; stroke: #000000; stroke-linecap: square"/>
   </g>
   <g id="line2d_9">
    <path d="M 35.389011 174.315099 
L 37.736588 178.381221 
" clip-path="url(#p815e58ab20)" style="fill: none; stroke: #000000; stroke-linecap: square"/>
   </g>
   <g id="line2d_10">
    <path d="M 35.389011 174.315099 
L 30.693857 174.315099 
" clip-path="url(#p815e58ab20)" style="fill: none; stroke: #000000; stroke-linecap: square"/>
   </g>
   <g id="line2d_11">
    <path d="M 51.621739 146.19919 
L 46.926585 146.19919 
" clip-path="url(#p815e58ab20)" style="fill: none; stroke: #000000; stroke-linecap: square"/>
   </g>
   <g id="line2d_12">
    <path d="M 67.854466 118.083282 
L 63.159312 118.083282 
" clip-path="url(#p815e58ab20)" style="fill: none; stroke: #000000; stroke-linecap: square"/>
   </g>
   <g id="line2d_13">
    <path d="M 84.087193 89.967374 
L 79.392039 89.967374 
" clip-path="url(#p815e58ab20)" style="fill: none; stroke: #000000; stroke-linecap: square"/>
   </g>
   <g id="line2d_14">
    <path d="M 100.31992 61.851465 
L 95.624766 61.851465 
" clip-path="url(#p815e58ab20)" style="fill: none; stroke: #000000; stroke-linecap: square"/>
   </g>
   <g id="line2d_15">
    <path d="M 116.552648 33.735557 
L 111.857494 33.735557 
" clip-path="url(#p815e58ab20)" style="fill: none; stroke: #000000; stroke-linecap: square"/>
   </g>
   <g id="line2d_16">
    <path d="M 116.552648 33.735557 
L 118.900225 29.669434 
" clip-path="url(#p815e58ab20)" style="fill: none; stroke: #000000; stroke-linecap: square"/>
   </g>
   <g id="line2d_17">
    <path d="M 132.785375 61.851465 
L 135.132952 57.785343 
" clip-path="url(#p815e58ab20)" style="fill: none; stroke: #000000; stroke-linecap: square"/>
   </g>
   <g id="line2d_18">
    <path d="M 149.018102 89.967374 
L 151.365679 85.901251 
" clip-path="url(#p815e58ab20)" style="fill: none; stroke: #000000; stroke-linecap: square"/>
   </g>
   <g id="line2d_19">
    <path d="M 165.25083 118.083282 
L 167.598407 114.017159 
" clip-path="url(#p815e58ab20)" style="fill: none; stroke: #000000; stroke-linecap: square"/>
   </g>
   <g id="line2d_20">
    <path d="M 181.483557 146.19919 
L 183.831134 142.133068 
" clip-path="url(#p815e58ab20)" style="fill: none; stroke: #000000; stroke-linecap: square"/>
   </g>
   <g id="line2d_21">
    <path d="M 197.716284 174.315099 
L 200.063861 170.248976 
" clip-path="url(#p815e58ab20)" style="fill: none; stroke: #000000; stroke-linecap: square"/>
   </g>
   <g id="matplotlib.axis_1">
    <g id="xtick_1"/>
    <g id="xtick_2"/>
    <g id="xtick_3"/>
    <g id="xtick_4"/>
    <g id="xtick_5"/>
   </g>
   <g id="matplotlib.axis_2">
    <g id="ytick_1"/>
    <g id="ytick_2"/>
    <g id="ytick_3"/>
    <g id="ytick_4"/>
    <g id="ytick_5"/>
   </g>
   <g id="text_1">
    <!-- 0 -->
    <g transform="translate(198.768602 187.301281) scale(0.12 -0.12)">
     <defs>
      <path id="DejaVuSans-30" d="M 2034 4250 
Q 1547 4250 1301 3770 
Q 1056 3291 1056 2328 
Q 1056 1369 1301 889 
Q 1547 409 2034 409 
Q 2525 409 2770 889 
Q 3016 1369 3016 2328 
Q 3016 3291 2770 3770 
Q 2525 4250 2034 4250 
z
M 2034 4750 
Q 2819 4750 3233 4129 
Q 3647 3509 3647 2328 
Q 3647 1150 3233 529 
Q 2819 -91 2034 -91 
Q 1250 -91 836 529 
Q 422 1150 422 2328 
Q 422 3509 836 4129 
Q 1250 4750 2034 4750 
z
" transform="scale(0.015625)"/>
     </defs>
     <use xlink:href="#DejaVuSans-30"/>
    </g>
   </g>
   <g id="text_2">
    <!-- 20 -->
    <g transform="translate(162.485648 187.301281) scale(0.12 -0.12)">
     <defs>
      <path id="DejaVuSans-32" d="M 1228 531 
L 3431 531 
L 3431 0 
L 469 0 
L 469 531 
Q 828 903 1448 1529 
Q 2069 2156 2228 2338 
Q 2531 2678 2651 2914 
Q 2772 3150 2772 3378 
Q 2772 3750 2511 3984 
Q 2250 4219 1831 4219 
Q 1534 4219 1204 4116 
Q 875 4013 500 3803 
L 500 4441 
Q 881 4594 1212 4672 
Q 1544 4750 1819 4750 
Q 2544 4750 2975 4387 
Q 3406 4025 3406 3419 
Q 3406 3131 3298 2873 
Q 3191 2616 2906 2266 
Q 2828 2175 2409 1742 
Q 1991 1309 1228 531 
z
" transform="scale(0.015625)"/>
     </defs>
     <use xlink:href="#DejaVuSans-32"/>
     <use xlink:href="#DejaVuSans-30" x="63.623047"/>
    </g>
   </g>
   <g id="text_3">
    <!-- 40 -->
    <g transform="translate(130.020193 187.301281) scale(0.12 -0.12)">
     <defs>
      <path id="DejaVuSans-34" d="M 2419 4116 
L 825 1625 
L 2419 1625 
L 2419 4116 
z
M 2253 4666 
L 3047 4666 
L 3047 1625 
L 3713 1625 
L 3713 1100 
L 3047 1100 
L 3047 0 
L 2419 0 
L 2419 1100 
L 313 1100 
L 313 1709 
L 2253 4666 
z
" transform="scale(0.015625)"/>
     </defs>
     <use xlink:href="#DejaVuSans-34"/>
     <use xlink:href="#DejaVuSans-30" x="63.623047"/>
    </g>
   </g>
   <g id="text_4">
    <!-- 60 -->
    <g transform="translate(97.554739 187.301281) scale(0.12 -0.12)">
     <defs>
      <path id="DejaVuSans-36" d="M 2113 2584 
Q 1688 2584 1439 2293 
Q 1191 2003 1191 1497 
Q 1191 994 1439 701 
Q 1688 409 2113 409 
Q 2538 409 2786 701 
Q 3034 994 3034 1497 
Q 3034 2003 2786 2293 
Q 2538 2584 2113 2584 
z
M 3366 4563 
L 3366 3988 
Q 3128 4100 2886 4159 
Q 2644 4219 2406 4219 
Q 1781 4219 1451 3797 
Q 1122 3375 1075 2522 
Q 1259 2794 1537 2939 
Q 1816 3084 2150 3084 
Q 2853 3084 3261 2657 
Q 3669 2231 3669 1497 
Q 3669 778 3244 343 
Q 2819 -91 2113 -91 
Q 1303 -91 875 529 
Q 447 1150 447 2328 
Q 447 3434 972 4092 
Q 1497 4750 2381 4750 
Q 2619 4750 2861 4703 
Q 3103 4656 3366 4563 
z
" transform="scale(0.015625)"/>
     </defs>
     <use xlink:href="#DejaVuSans-36"/>
     <use xlink:href="#DejaVuSans-30" x="63.623047"/>
    </g>
   </g>
   <g id="text_5">
    <!-- 80 -->
    <g transform="translate(65.089284 187.301281) scale(0.12 -0.12)">
     <defs>
      <path id="DejaVuSans-38" d="M 2034 2216 
Q 1584 2216 1326 1975 
Q 1069 1734 1069 1313 
Q 1069 891 1326 650 
Q 1584 409 2034 409 
Q 2484 409 2743 651 
Q 3003 894 3003 1313 
Q 3003 1734 2745 1975 
Q 2488 2216 2034 2216 
z
M 1403 2484 
Q 997 2584 770 2862 
Q 544 3141 544 3541 
Q 544 4100 942 4425 
Q 1341 4750 2034 4750 
Q 2731 4750 3128 4425 
Q 3525 4100 3525 3541 
Q 3525 3141 3298 2862 
Q 3072 2584 2669 2484 
Q 3125 2378 3379 2068 
Q 3634 1759 3634 1313 
Q 3634 634 3220 271 
Q 2806 -91 2034 -91 
Q 1263 -91 848 271 
Q 434 634 434 1313 
Q 434 1759 690 2068 
Q 947 2378 1403 2484 
z
M 1172 3481 
Q 1172 3119 1398 2916 
Q 1625 2713 2034 2713 
Q 2441 2713 2670 2916 
Q 2900 3119 2900 3481 
Q 2900 3844 2670 4047 
Q 2441 4250 2034 4250 
Q 1625 4250 1398 4047 
Q 1172 3844 1172 3481 
z
" transform="scale(0.015625)"/>
     </defs>
     <use xlink:href="#DejaVuSans-38"/>
     <use xlink:href="#DejaVuSans-30" x="63.623047"/>
    </g>
   </g>
   <g id="text_6">
    <!-- 100 -->
    <g transform="translate(28.80633 187.301281) scale(0.12 -0.12)">
     <defs>
      <path id="DejaVuSans-31" d="M 794 531 
L 1825 531 
L 1825 4091 
L 703 3866 
L 703 4441 
L 1819 4666 
L 2450 4666 
L 2450 531 
L 3481 531 
L 3481 0 
L 794 0 
L 794 531 
z
" transform="scale(0.015625)"/>
     </defs>
     <use xlink:href="#DejaVuSans-31"/>
     <use xlink:href="#DejaVuSans-30" x="63.623047"/>
     <use xlink:href="#DejaVuSans-30" x="127.246094"/>
    </g>
   </g>
   <g id="text_7">
    <!-- 0 -->
    <g transform="translate(22.884193 176.750008) scale(0.12 -0.12)">
     <use xlink:href="#DejaVuSans-30"/>
    </g>
   </g>
   <g id="text_8">
    <!-- 20 -->
    <g transform="translate(31.48192 148.634099) scale(0.12 -0.12)">
     <use xlink:href="#DejaVuSans-32"/>
     <use xlink:href="#DejaVuSans-30" x="63.623047"/>
    </g>
   </g>
   <g id="text_9">
    <!-- 40 -->
    <g transform="translate(47.714648 120.518191) scale(0.12 -0.12)">
     <use xlink:href="#DejaVuSans-34"/>
     <use xlink:href="#DejaVuSans-30" x="63.623047"/>
    </g>
   </g>
   <g id="text_10">
    <!-- 60 -->
    <g transform="translate(63.947375 92.402283) scale(0.12 -0.12)">
     <use xlink:href="#DejaVuSans-36"/>
     <use xlink:href="#DejaVuSans-30" x="63.623047"/>
    </g>
   </g>
   <g id="text_11">
    <!-- 80 -->
    <g transform="translate(80.180102 64.286374) scale(0.12 -0.12)">
     <use xlink:href="#DejaVuSans-38"/>
     <use xlink:href="#DejaVuSans-30" x="63.623047"/>
    </g>
   </g>
   <g id="text_12">
    <!-- 100 -->
    <g transform="translate(88.77783 36.170466) scale(0.12 -0.12)">
     <use xlink:href="#DejaVuSans-31"/>
     <use xlink:href="#DejaVuSans-30" x="63.623047"/>
     <use xlink:href="#DejaVuSans-30" x="127.246094"/>
    </g>
   </g>
   <g id="text_13">
    <!-- 0 -->
    <g transform="translate(118.987557 30.489011) scale(0.12 -0.12)">
     <use xlink:href="#DejaVuSans-30"/>
    </g>
   </g>
   <g id="text_14">
    <!-- 20 -->
    <g transform="translate(135.220284 58.60492) scale(0.12 -0.12)">
     <use xlink:href="#DejaVuSans-32"/>
     <use xlink:href="#DejaVuSans-30" x="63.623047"/>
    </g>
   </g>
   <g id="text_15">
    <!-- 40 -->
    <g transform="translate(151.453011 86.720828) scale(0.12 -0.12)">
     <use xlink:href="#DejaVuSans-34"/>
     <use xlink:href="#DejaVuSans-30" x="63.623047"/>
    </g>
   </g>
   <g id="text_16">
    <!-- 60 -->
    <g transform="translate(167.685739 114.836737) scale(0.12 -0.12)">
     <use xlink:href="#DejaVuSans-36"/>
     <use xlink:href="#DejaVuSans-30" x="63.623047"/>
    </g>
   </g>
   <g id="text_17">
    <!-- 80 -->
    <g transform="translate(183.918466 142.952645) scale(0.12 -0.12)">
     <use xlink:href="#DejaVuSans-38"/>
     <use xlink:href="#DejaVuSans-30" x="63.623047"/>
    </g>
   </g>
   <g id="text_18">
    <!-- 100 -->
    <g transform="translate(200.151193 171.068553) scale(0.12 -0.12)">
     <use xlink:href="#DejaVuSans-31"/>
     <use xlink:href="#DejaVuSans-30" x="63.623047"/>
     <use xlink:href="#DejaVuSans-30" x="127.246094"/>
    </g>
   </g>
   <g id="text_19">
    <!-- Au content (at.%) -->
    <g transform="translate(63.54171 200.352167) scale(0.12 -0.12)">
     <defs>
      <path id="DejaVuSans-41" d="M 2188 4044 
L 1331 1722 
L 3047 1722 
L 2188 4044 
z
M 1831 4666 
L 2547 4666 
L 4325 0 
L 3669 0 
L 3244 1197 
L 1141 1197 
L 716 0 
L 50 0 
L 1831 4666 
z
" transform="scale(0.015625)"/>
      <path id="DejaVuSans-75" d="M 544 1381 
L 544 3500 
L 1119 3500 
L 1119 1403 
Q 1119 906 1312 657 
Q 1506 409 1894 409 
Q 2359 409 2629 706 
Q 2900 1003 2900 1516 
L 2900 3500 
L 3475 3500 
L 3475 0 
L 2900 0 
L 2900 538 
Q 2691 219 2414 64 
Q 2138 -91 1772 -91 
Q 1169 -91 856 284 
Q 544 659 544 1381 
z
M 1991 3584 
L 1991 3584 
z
" transform="scale(0.015625)"/>
      <path id="DejaVuSans-20" transform="scale(0.015625)"/>
      <path id="DejaVuSans-63" d="M 3122 3366 
L 3122 2828 
Q 2878 2963 2633 3030 
Q 2388 3097 2138 3097 
Q 1578 3097 1268 2742 
Q 959 2388 959 1747 
Q 959 1106 1268 751 
Q 1578 397 2138 397 
Q 2388 397 2633 464 
Q 2878 531 3122 666 
L 3122 134 
Q 2881 22 2623 -34 
Q 2366 -91 2075 -91 
Q 1284 -91 818 406 
Q 353 903 353 1747 
Q 353 2603 823 3093 
Q 1294 3584 2113 3584 
Q 2378 3584 2631 3529 
Q 2884 3475 3122 3366 
z
" transform="scale(0.015625)"/>
      <path id="DejaVuSans-6f" d="M 1959 3097 
Q 1497 3097 1228 2736 
Q 959 2375 959 1747 
Q 959 1119 1226 758 
Q 1494 397 1959 397 
Q 2419 397 2687 759 
Q 2956 1122 2956 1747 
Q 2956 2369 2687 2733 
Q 2419 3097 1959 3097 
z
M 1959 3584 
Q 2709 3584 3137 3096 
Q 3566 2609 3566 1747 
Q 3566 888 3137 398 
Q 2709 -91 1959 -91 
Q 1206 -91 779 398 
Q 353 888 353 1747 
Q 353 2609 779 3096 
Q 1206 3584 1959 3584 
z
" transform="scale(0.015625)"/>
      <path id="DejaVuSans-6e" d="M 3513 2113 
L 3513 0 
L 2938 0 
L 2938 2094 
Q 2938 2591 2744 2837 
Q 2550 3084 2163 3084 
Q 1697 3084 1428 2787 
Q 1159 2491 1159 1978 
L 1159 0 
L 581 0 
L 581 3500 
L 1159 3500 
L 1159 2956 
Q 1366 3272 1645 3428 
Q 1925 3584 2291 3584 
Q 2894 3584 3203 3211 
Q 3513 2838 3513 2113 
z
" transform="scale(0.015625)"/>
      <path id="DejaVuSans-74" d="M 1172 4494 
L 1172 3500 
L 2356 3500 
L 2356 3053 
L 1172 3053 
L 1172 1153 
Q 1172 725 1289 603 
Q 1406 481 1766 481 
L 2356 481 
L 2356 0 
L 1766 0 
Q 1100 0 847 248 
Q 594 497 594 1153 
L 594 3053 
L 172 3053 
L 172 3500 
L 594 3500 
L 594 4494 
L 1172 4494 
z
" transform="scale(0.015625)"/>
      <path id="DejaVuSans-65" d="M 3597 1894 
L 3597 1613 
L 953 1613 
Q 991 1019 1311 708 
Q 1631 397 2203 397 
Q 2534 397 2845 478 
Q 3156 559 3463 722 
L 3463 178 
Q 3153 47 2828 -22 
Q 2503 -91 2169 -91 
Q 1331 -91 842 396 
Q 353 884 353 1716 
Q 353 2575 817 3079 
Q 1281 3584 2069 3584 
Q 2775 3584 3186 3129 
Q 3597 2675 3597 1894 
z
M 3022 2063 
Q 3016 2534 2758 2815 
Q 2500 3097 2075 3097 
Q 1594 3097 1305 2825 
Q 1016 2553 972 2059 
L 3022 2063 
z
" transform="scale(0.015625)"/>
      <path id="DejaVuSans-28" d="M 1984 4856 
Q 1566 4138 1362 3434 
Q 1159 2731 1159 2009 
Q 1159 1288 1364 580 
Q 1569 -128 1984 -844 
L 1484 -844 
Q 1016 -109 783 600 
Q 550 1309 550 2009 
Q 550 2706 781 3412 
Q 1013 4119 1484 4856 
L 1984 4856 
z
" transform="scale(0.015625)"/>
      <path id="DejaVuSans-61" d="M 2194 1759 
Q 1497 1759 1228 1600 
Q 959 1441 959 1056 
Q 959 750 1161 570 
Q 1363 391 1709 391 
Q 2188 391 2477 730 
Q 2766 1069 2766 1631 
L 2766 1759 
L 2194 1759 
z
M 3341 1997 
L 3341 0 
L 2766 0 
L 2766 531 
Q 2569 213 2275 61 
Q 1981 -91 1556 -91 
Q 1019 -91 701 211 
Q 384 513 384 1019 
Q 384 1609 779 1909 
Q 1175 2209 1959 2209 
L 2766 2209 
L 2766 2266 
Q 2766 2663 2505 2880 
Q 2244 3097 1772 3097 
Q 1472 3097 1187 3025 
Q 903 2953 641 2809 
L 641 3341 
Q 956 3463 1253 3523 
Q 1550 3584 1831 3584 
Q 2591 3584 2966 3190 
Q 3341 2797 3341 1997 
z
" transform="scale(0.015625)"/>
      <path id="DejaVuSans-2e" d="M 684 794 
L 1344 794 
L 1344 0 
L 684 0 
L 684 794 
z
" transform="scale(0.015625)"/>
      <path id="DejaVuSans-25" d="M 4653 2053 
Q 4381 2053 4226 1822 
Q 4072 1591 4072 1178 
Q 4072 772 4226 539 
Q 4381 306 4653 306 
Q 4919 306 5073 539 
Q 5228 772 5228 1178 
Q 5228 1588 5073 1820 
Q 4919 2053 4653 2053 
z
M 4653 2450 
Q 5147 2450 5437 2106 
Q 5728 1763 5728 1178 
Q 5728 594 5436 251 
Q 5144 -91 4653 -91 
Q 4153 -91 3862 251 
Q 3572 594 3572 1178 
Q 3572 1766 3864 2108 
Q 4156 2450 4653 2450 
z
M 1428 4353 
Q 1159 4353 1004 4120 
Q 850 3888 850 3481 
Q 850 3069 1003 2837 
Q 1156 2606 1428 2606 
Q 1700 2606 1854 2837 
Q 2009 3069 2009 3481 
Q 2009 3884 1853 4118 
Q 1697 4353 1428 4353 
z
M 4250 4750 
L 4750 4750 
L 1831 -91 
L 1331 -91 
L 4250 4750 
z
M 1428 4750 
Q 1922 4750 2215 4408 
Q 2509 4066 2509 3481 
Q 2509 2891 2217 2550 
Q 1925 2209 1428 2209 
Q 931 2209 642 2551 
Q 353 2894 353 3481 
Q 353 4063 643 4406 
Q 934 4750 1428 4750 
z
" transform="scale(0.015625)"/>
      <path id="DejaVuSans-29" d="M 513 4856 
L 1013 4856 
Q 1481 4119 1714 3412 
Q 1947 2706 1947 2009 
Q 1947 1309 1714 600 
Q 1481 -109 1013 -844 
L 513 -844 
Q 928 -128 1133 580 
Q 1338 1288 1338 2009 
Q 1338 2731 1133 3434 
Q 928 4138 513 4856 
z
" transform="scale(0.015625)"/>
     </defs>
     <use xlink:href="#DejaVuSans-41"/>
     <use xlink:href="#DejaVuSans-75" x="68.408203"/>
     <use xlink:href="#DejaVuSans-20" x="131.787109"/>
     <use xlink:href="#DejaVuSans-63" x="163.574219"/>
     <use xlink:href="#DejaVuSans-6f" x="218.554688"/>
     <use xlink:href="#DejaVuSans-6e" x="279.736328"/>
     <use xlink:href="#DejaVuSans-74" x="343.115234"/>
     <use xlink:href="#DejaVuSans-65" x="382.324219"/>
     <use xlink:href="#DejaVuSans-6e" x="443.847656"/>
     <use xlink:href="#DejaVuSans-74" x="507.226562"/>
     <use xlink:href="#DejaVuSans-20" x="546.435547"/>
     <use xlink:href="#DejaVuSans-28" x="578.222656"/>
     <use xlink:href="#DejaVuSans-61" x="617.236328"/>
     <use xlink:href="#DejaVuSans-74" x="678.515625"/>
     <use xlink:href="#DejaVuSans-2e" x="717.724609"/>
     <use xlink:href="#DejaVuSans-25" x="749.511719"/>
     <use xlink:href="#DejaVuSans-29" x="844.53125"/>
    </g>
   </g>
   <g id="text_20">
    <!-- Cu content (at.%) -->
    <g transform="translate(152.067805 48.824386) rotate(-300) scale(0.12 -0.12)">
     <defs>
      <path id="DejaVuSans-43" d="M 4122 4306 
L 4122 3641 
Q 3803 3938 3442 4084 
Q 3081 4231 2675 4231 
Q 1875 4231 1450 3742 
Q 1025 3253 1025 2328 
Q 1025 1406 1450 917 
Q 1875 428 2675 428 
Q 3081 428 3442 575 
Q 3803 722 4122 1019 
L 4122 359 
Q 3791 134 3420 21 
Q 3050 -91 2638 -91 
Q 1578 -91 968 557 
Q 359 1206 359 2328 
Q 359 3453 968 4101 
Q 1578 4750 2638 4750 
Q 3056 4750 3426 4639 
Q 3797 4528 4122 4306 
z
" transform="scale(0.015625)"/>
     </defs>
     <use xlink:href="#DejaVuSans-43"/>
     <use xlink:href="#DejaVuSans-75" x="69.824219"/>
     <use xlink:href="#DejaVuSans-20" x="133.203125"/>
     <use xlink:href="#DejaVuSans-63" x="164.990234"/>
     <use xlink:href="#DejaVuSans-6f" x="219.970703"/>
     <use xlink:href="#DejaVuSans-6e" x="281.152344"/>
     <use xlink:href="#DejaVuSans-74" x="344.53125"/>
     <use xlink:href="#DejaVuSans-65" x="383.740234"/>
     <use xlink:href="#DejaVuSans-6e" x="445.263672"/>
     <use xlink:href="#DejaVuSans-74" x="508.642578"/>
     <use xlink:href="#DejaVuSans-20" x="547.851562"/>
     <use xlink:href="#DejaVuSans-28" x="579.638672"/>
     <use xlink:href="#DejaVuSans-61" x="618.652344"/>
     <use xlink:href="#DejaVuSans-74" x="679.931641"/>
     <use xlink:href="#DejaVuSans-2e" x="719.140625"/>
     <use xlink:href="#DejaVuSans-25" x="750.927734"/>
     <use xlink:href="#DejaVuSans-29" x="845.947266"/>
    </g>
   </g>
   <g id="text_21">
    <!-- Pd content (at.%) -->
    <g transform="translate(28.223897 140.300214) rotate(-60) scale(0.12 -0.12)">
     <defs>
      <path id="DejaVuSans-50" d="M 1259 4147 
L 1259 2394 
L 2053 2394 
Q 2494 2394 2734 2622 
Q 2975 2850 2975 3272 
Q 2975 3691 2734 3919 
Q 2494 4147 2053 4147 
L 1259 4147 
z
M 628 4666 
L 2053 4666 
Q 2838 4666 3239 4311 
Q 3641 3956 3641 3272 
Q 3641 2581 3239 2228 
Q 2838 1875 2053 1875 
L 1259 1875 
L 1259 0 
L 628 0 
L 628 4666 
z
" transform="scale(0.015625)"/>
      <path id="DejaVuSans-64" d="M 2906 2969 
L 2906 4863 
L 3481 4863 
L 3481 0 
L 2906 0 
L 2906 525 
Q 2725 213 2448 61 
Q 2172 -91 1784 -91 
Q 1150 -91 751 415 
Q 353 922 353 1747 
Q 353 2572 751 3078 
Q 1150 3584 1784 3584 
Q 2172 3584 2448 3432 
Q 2725 3281 2906 2969 
z
M 947 1747 
Q 947 1113 1208 752 
Q 1469 391 1925 391 
Q 2381 391 2643 752 
Q 2906 1113 2906 1747 
Q 2906 2381 2643 2742 
Q 2381 3103 1925 3103 
Q 1469 3103 1208 2742 
Q 947 2381 947 1747 
z
" transform="scale(0.015625)"/>
     </defs>
     <use xlink:href="#DejaVuSans-50"/>
     <use xlink:href="#DejaVuSans-64" x="60.302734"/>
     <use xlink:href="#DejaVuSans-20" x="123.779297"/>
     <use xlink:href="#DejaVuSans-63" x="155.566406"/>
     <use xlink:href="#DejaVuSans-6f" x="210.546875"/>
     <use xlink:href="#DejaVuSans-6e" x="271.728516"/>
     <use xlink:href="#DejaVuSans-74" x="335.107422"/>
     <use xlink:href="#DejaVuSans-65" x="374.316406"/>
     <use xlink:href="#DejaVuSans-6e" x="435.839844"/>
     <use xlink:href="#DejaVuSans-74" x="499.21875"/>
     <use xlink:href="#DejaVuSans-20" x="538.427734"/>
     <use xlink:href="#DejaVuSans-28" x="570.214844"/>
     <use xlink:href="#DejaVuSans-61" x="609.228516"/>
     <use xlink:href="#DejaVuSans-74" x="670.507812"/>
     <use xlink:href="#DejaVuSans-2e" x="709.716797"/>
     <use xlink:href="#DejaVuSans-25" x="741.503906"/>
     <use xlink:href="#DejaVuSans-29" x="836.523438"/>
    </g>
   </g>
   <g id="text_22">
    <!-- Au -->
    <g transform="translate(7.2 194.692548) scale(0.14 -0.14)">
     <use xlink:href="#DejaVuSans-41"/>
     <use xlink:href="#DejaVuSans-75" x="68.408203"/>
    </g>
   </g>
   <g id="text_23">
    <!-- Cu -->
    <g transform="translate(207.45592 194.692548) scale(0.14 -0.14)">
     <use xlink:href="#DejaVuSans-43"/>
     <use xlink:href="#DejaVuSans-75" x="69.824219"/>
    </g>
   </g>
   <g id="text_24">
    <!-- Pd -->
    <g transform="translate(107.88796 17.837812) scale(0.14 -0.14)">
     <use xlink:href="#DejaVuSans-50"/>
     <use xlink:href="#DejaVuSans-64" x="60.302734"/>
    </g>
   </g>
  </g>
  <g id="axes_2">
   <g id="patch_3">
    <path d="M 216.992648 120.657328 
L 222.536648 120.657328 
L 222.536648 9.777328 
L 216.992648 9.777328 
z
" style="fill: #ffffff"/>
   </g>
   <g id="QuadMesh_1">
    <path d="M 216.992648 120.657328 
L 222.536648 120.657328 
L 222.536648 113.265328 
L 216.992648 113.265328 
L 216.992648 120.657328 
" clip-path="url(#p3835d35647)" style="fill: #3e4b89; stroke: #3e4b89"/>
    <path d="M 216.992648 113.265328 
L 222.536648 113.265328 
L 222.536648 105.873328 
L 216.992648 105.873328 
L 216.992648 113.265328 
" clip-path="url(#p3835d35647)" style="fill: #37598c; stroke: #37598c"/>
    <path d="M 216.992648 105.873328 
L 222.536648 105.873328 
L 222.536648 98.481328 
L 216.992648 98.481328 
L 216.992648 105.873328 
" clip-path="url(#p3835d35647)" style="fill: #31678e; stroke: #31678e"/>
    <path d="M 216.992648 98.481328 
L 222.536648 98.481328 
L 222.536648 91.089328 
L 216.992648 91.089328 
L 216.992648 98.481328 
" clip-path="url(#p3835d35647)" style="fill: #2b748e; stroke: #2b748e"/>
    <path d="M 216.992648 91.089328 
L 222.536648 91.089328 
L 222.536648 83.697328 
L 216.992648 83.697328 
L 216.992648 91.089328 
" clip-path="url(#p3835d35647)" style="fill: #26828e; stroke: #26828e"/>
    <path d="M 216.992648 83.697328 
L 222.536648 83.697328 
L 222.536648 76.305328 
L 216.992648 76.305328 
L 216.992648 83.697328 
" clip-path="url(#p3835d35647)" style="fill: #218e8d; stroke: #218e8d"/>
    <path d="M 216.992648 76.305328 
L 222.536648 76.305328 
L 222.536648 68.913328 
L 216.992648 68.913328 
L 216.992648 76.305328 
" clip-path="url(#p3835d35647)" style="fill: #1e9b8a; stroke: #1e9b8a"/>
    <path d="M 216.992648 68.913328 
L 222.536648 68.913328 
L 222.536648 61.521328 
L 216.992648 61.521328 
L 216.992648 68.913328 
" clip-path="url(#p3835d35647)" style="fill: #23a884; stroke: #23a884"/>
    <path d="M 216.992648 61.521328 
L 222.536648 61.521328 
L 222.536648 54.129328 
L 216.992648 54.129328 
L 216.992648 61.521328 
" clip-path="url(#p3835d35647)" style="fill: #32b57b; stroke: #32b57b"/>
    <path d="M 216.992648 54.129328 
L 222.536648 54.129328 
L 222.536648 46.737328 
L 216.992648 46.737328 
L 216.992648 54.129328 
" clip-path="url(#p3835d35647)" style="fill: #47c06f; stroke: #47c06f"/>
    <path d="M 216.992648 46.737328 
L 222.536648 46.737328 
L 222.536648 39.345328 
L 216.992648 39.345328 
L 216.992648 46.737328 
" clip-path="url(#p3835d35647)" style="fill: #64cb5e; stroke: #64cb5e"/>
    <path d="M 216.992648 39.345328 
L 222.536648 39.345328 
L 222.536648 31.953328 
L 216.992648 31.953328 
L 216.992648 39.345328 
" clip-path="url(#p3835d35647)" style="fill: #84d44b; stroke: #84d44b"/>
    <path d="M 216.992648 31.953328 
L 222.536648 31.953328 
L 222.536648 24.561328 
L 216.992648 24.561328 
L 216.992648 31.953328 
" clip-path="url(#p3835d35647)" style="fill: #a6db35; stroke: #a6db35"/>
    <path d="M 216.992648 24.561328 
L 222.536648 24.561328 
L 222.536648 17.169328 
L 216.992648 17.169328 
L 216.992648 24.561328 
" clip-path="url(#p3835d35647)" style="fill: #cce11e; stroke: #cce11e"/>
    <path d="M 216.992648 17.169328 
L 222.536648 17.169328 
L 222.536648 9.777328 
L 216.992648 9.777328 
L 216.992648 17.169328 
" clip-path="url(#p3835d35647)" style="fill: #eee51b; stroke: #eee51b"/>
   </g>
   <g id="matplotlib.axis_3"/>
   <g id="matplotlib.axis_4">
    <g id="ytick_6">
     <g id="line2d_22">
      <defs>
       <path id="m4f7d81fbab" d="M 0 0 
L 3.5 0 
" style="stroke: #000000; stroke-width: 0.8"/>
      </defs>
      <g>
       <use xlink:href="#m4f7d81fbab" x="222.536648" y="120.657328" style="stroke: #000000; stroke-width: 0.8"/>
      </g>
     </g>
     <g id="text_25">
      <!-- 0.00 -->
      <g transform="translate(229.536648 124.456547) scale(0.1 -0.1)">
       <use xlink:href="#DejaVuSans-30"/>
       <use xlink:href="#DejaVuSans-2e" x="63.623047"/>
       <use xlink:href="#DejaVuSans-30" x="95.410156"/>
       <use xlink:href="#DejaVuSans-30" x="159.033203"/>
      </g>
     </g>
    </g>
    <g id="ytick_7">
     <g id="line2d_23">
      <g>
       <use xlink:href="#m4f7d81fbab" x="222.536648" y="105.873328" style="stroke: #000000; stroke-width: 0.8"/>
      </g>
     </g>
     <g id="text_26">
      <!-- 0.04 -->
      <g transform="translate(229.536648 109.672547) scale(0.1 -0.1)">
       <use xlink:href="#DejaVuSans-30"/>
       <use xlink:href="#DejaVuSans-2e" x="63.623047"/>
       <use xlink:href="#DejaVuSans-30" x="95.410156"/>
       <use xlink:href="#DejaVuSans-34" x="159.033203"/>
      </g>
     </g>
    </g>
    <g id="ytick_8">
     <g id="line2d_24">
      <g>
       <use xlink:href="#m4f7d81fbab" x="222.536648" y="91.089328" style="stroke: #000000; stroke-width: 0.8"/>
      </g>
     </g>
     <g id="text_27">
      <!-- 0.08 -->
      <g transform="translate(229.536648 94.888547) scale(0.1 -0.1)">
       <use xlink:href="#DejaVuSans-30"/>
       <use xlink:href="#DejaVuSans-2e" x="63.623047"/>
       <use xlink:href="#DejaVuSans-30" x="95.410156"/>
       <use xlink:href="#DejaVuSans-38" x="159.033203"/>
      </g>
     </g>
    </g>
    <g id="ytick_9">
     <g id="line2d_25">
      <g>
       <use xlink:href="#m4f7d81fbab" x="222.536648" y="76.305328" style="stroke: #000000; stroke-width: 0.8"/>
      </g>
     </g>
     <g id="text_28">
      <!-- 0.12 -->
      <g transform="translate(229.536648 80.104547) scale(0.1 -0.1)">
       <use xlink:href="#DejaVuSans-30"/>
       <use xlink:href="#DejaVuSans-2e" x="63.623047"/>
       <use xlink:href="#DejaVuSans-31" x="95.410156"/>
       <use xlink:href="#DejaVuSans-32" x="159.033203"/>
      </g>
     </g>
    </g>
    <g id="ytick_10">
     <g id="line2d_26">
      <g>
       <use xlink:href="#m4f7d81fbab" x="222.536648" y="61.521328" style="stroke: #000000; stroke-width: 0.8"/>
      </g>
     </g>
     <g id="text_29">
      <!-- 0.16 -->
      <g transform="translate(229.536648 65.320547) scale(0.1 -0.1)">
       <use xlink:href="#DejaVuSans-30"/>
       <use xlink:href="#DejaVuSans-2e" x="63.623047"/>
       <use xlink:href="#DejaVuSans-31" x="95.410156"/>
       <use xlink:href="#DejaVuSans-36" x="159.033203"/>
      </g>
     </g>
    </g>
    <g id="ytick_11">
     <g id="line2d_27">
      <g>
       <use xlink:href="#m4f7d81fbab" x="222.536648" y="46.737328" style="stroke: #000000; stroke-width: 0.8"/>
      </g>
     </g>
     <g id="text_30">
      <!-- 0.20 -->
      <g transform="translate(229.536648 50.536547) scale(0.1 -0.1)">
       <use xlink:href="#DejaVuSans-30"/>
       <use xlink:href="#DejaVuSans-2e" x="63.623047"/>
       <use xlink:href="#DejaVuSans-32" x="95.410156"/>
       <use xlink:href="#DejaVuSans-30" x="159.033203"/>
      </g>
     </g>
    </g>
    <g id="ytick_12">
     <g id="line2d_28">
      <g>
       <use xlink:href="#m4f7d81fbab" x="222.536648" y="31.953328" style="stroke: #000000; stroke-width: 0.8"/>
      </g>
     </g>
     <g id="text_31">
      <!-- 0.24 -->
      <g transform="translate(229.536648 35.752547) scale(0.1 -0.1)">
       <use xlink:href="#DejaVuSans-30"/>
       <use xlink:href="#DejaVuSans-2e" x="63.623047"/>
       <use xlink:href="#DejaVuSans-32" x="95.410156"/>
       <use xlink:href="#DejaVuSans-34" x="159.033203"/>
      </g>
     </g>
    </g>
    <g id="ytick_13">
     <g id="line2d_29">
      <g>
       <use xlink:href="#m4f7d81fbab" x="222.536648" y="17.169328" style="stroke: #000000; stroke-width: 0.8"/>
      </g>
     </g>
     <g id="text_32">
      <!-- 0.28 -->
      <g transform="translate(229.536648 20.968547) scale(0.1 -0.1)">
       <use xlink:href="#DejaVuSans-30"/>
       <use xlink:href="#DejaVuSans-2e" x="63.623047"/>
       <use xlink:href="#DejaVuSans-32" x="95.410156"/>
       <use xlink:href="#DejaVuSans-38" x="159.033203"/>
      </g>
     </g>
    </g>
   </g>
   <g id="LineCollection_1"/>
   <g id="patch_4">
    <path d="M 216.992648 120.657328 
L 219.764648 120.657328 
L 222.536648 120.657328 
L 222.536648 9.777328 
L 219.764648 9.777328 
L 216.992648 9.777328 
L 216.992648 120.657328 
z
" style="fill: none; stroke: #000000; stroke-width: 0.8; stroke-linejoin: miter; stroke-linecap: square"/>
   </g>
  </g>
 </g>
 <defs>
  <clipPath id="p815e58ab20">
   <rect x="27.272648" y="25.619193" width="178.56" height="156.812269"/>
  </clipPath>
  <clipPath id="p3835d35647">
   <rect x="216.992648" y="9.777328" width="5.544" height="110.88"/>
  </clipPath>
 </defs>
</svg>
