<?xml version="1.0" encoding="utf-8" standalone="no"?>
<!DOCTYPE svg PUBLIC "-//W3C//DTD SVG 1.1//EN"
  "http://www.w3.org/Graphics/SVG/1.1/DTD/svg11.dtd">
<svg xmlns:xlink="http://www.w3.org/1999/xlink" width="244.8pt" height="144pt" viewBox="0 0 244.8 144" xmlns="http://www.w3.org/2000/svg" version="1.1">
 <metadata>
  <rdf:RDF xmlns:dc="http://purl.org/dc/elements/1.1/" xmlns:cc="http://creativecommons.org/ns#" xmlns:rdf="http://www.w3.org/1999/02/22-rdf-syntax-ns#">
   <cc:Work>
    <dc:type rdf:resource="http://purl.org/dc/dcmitype/StillImage"/>
    <dc:date>2024-01-11T09:05:02.098359</dc:date>
    <dc:format>image/svg+xml</dc:format>
    <dc:creator>
     <cc:Agent>
      <dc:title>Matplotlib v3.7.0, https://matplotlib.org/</dc:title>
     </cc:Agent>
    </dc:creator>
   </cc:Work>
  </rdf:RDF>
 </metadata>
 <defs>
  <style type="text/css">*{stroke-linejoin: round; stroke-linecap: butt}</style>
 </defs>
 <g id="figure_1">
  <g id="patch_1">
   <path d="M 0 144 
L 244.8 144 
L 244.8 0 
L 0 0 
z
" style="fill: #ffffff"/>
  </g>
  <g id="axes_1">
   <g id="patch_2">
    <path d="M 44.39 105.568 
L 236.16 105.568 
L 236.16 8.64 
L 44.39 8.64 
z
" style="fill: #ffffff"/>
   </g>
   <g id="patch_3">
    <path d="M 46.378652 105.568 
L 56.359598 105.568 
L 56.359598 105.312926 
L 58.854835 105.312926 
L 58.854835 103.272337 
L 61.350072 103.272337 
L 61.350072 97.150568 
L 63.845308 97.150568 
L 63.845308 93.069389 
L 66.340545 93.069389 
L 66.340545 89.498358 
L 68.835781 89.498358 
L 68.835781 85.927326 
L 71.331018 85.927326 
L 71.331018 81.336 
L 73.826255 81.336 
L 73.826255 84.907032 
L 76.321491 84.907032 
L 76.321491 89.243284 
L 78.816728 89.243284 
L 78.816728 90.008505 
L 81.311965 90.008505 
L 81.311965 85.672253 
L 83.807201 85.672253 
L 83.807201 91.283874 
L 86.302438 91.283874 
L 86.302438 91.0288 
L 88.797674 91.0288 
L 88.797674 83.886737 
L 91.292911 83.886737 
L 91.292911 76.234526 
L 93.788148 76.234526 
L 93.788148 65.266358 
L 96.283384 65.266358 
L 96.283384 51.747453 
L 98.778621 51.747453 
L 98.778621 37.463326 
L 101.273857 37.463326 
L 101.273857 40.014063 
L 103.769094 40.014063 
L 103.769094 43.074947 
L 106.264331 43.074947 
L 106.264331 43.330021 
L 108.759567 43.330021 
L 108.759567 61.695326 
L 111.254804 61.695326 
L 111.254804 65.521432 
L 113.75004 65.521432 
L 113.75004 72.153347 
L 116.245277 72.153347 
L 116.245277 74.449011 
L 118.740514 74.449011 
L 118.740514 74.193937 
L 121.23575 74.193937 
L 121.23575 75.979453 
L 123.730987 75.979453 
L 123.730987 65.011284 
L 126.226223 65.011284 
L 126.226223 65.776505 
L 128.72146 65.776505 
L 128.72146 63.480842 
L 131.216697 63.480842 
L 131.216697 59.399663 
L 133.711933 59.399663 
L 133.711933 62.460547 
L 136.20717 62.460547 
L 136.20717 64.501137 
L 138.702406 64.501137 
L 138.702406 71.6432 
L 141.197643 71.6432 
L 141.197643 63.990989 
L 143.69288 63.990989 
L 143.69288 47.4112 
L 146.188116 47.4112 
L 146.188116 43.330021 
L 148.683353 43.330021 
L 148.683353 25.219789 
L 151.17859 25.219789 
L 151.17859 23.944421 
L 153.673826 23.944421 
L 153.673826 10.170442 
L 156.169063 10.170442 
L 156.169063 20.883537 
L 158.664299 20.883537 
L 158.664299 52.002526 
L 161.159536 52.002526 
L 161.159536 50.982232 
L 163.654773 50.982232 
L 163.654773 65.521432 
L 166.150009 65.521432 
L 166.150009 76.4896 
L 168.645246 76.4896 
L 168.645246 76.744674 
L 171.140482 76.744674 
L 171.140482 75.979453 
L 173.635719 75.979453 
L 173.635719 75.214232 
L 176.130956 75.214232 
L 176.130956 78.275116 
L 178.626192 78.275116 
L 178.626192 80.315705 
L 181.121429 80.315705 
L 181.121429 74.193937 
L 183.616665 74.193937 
L 183.616665 79.805558 
L 186.111902 79.805558 
L 186.111902 83.376589 
L 188.607139 83.376589 
L 188.607139 88.988211 
L 191.102375 88.988211 
L 191.102375 91.283874 
L 193.597612 91.283874 
L 193.597612 91.794021 
L 196.092848 91.794021 
L 196.092848 87.967916 
L 198.588085 87.967916 
L 198.588085 86.1824 
L 201.083322 86.1824 
L 201.083322 82.101221 
L 203.578558 82.101221 
L 203.578558 82.866442 
L 206.073795 82.866442 
L 206.073795 82.101221 
L 208.569031 82.101221 
L 208.569031 78.785263 
L 211.064268 78.785263 
L 211.064268 74.449011 
L 213.559505 74.449011 
L 213.559505 73.683789 
L 216.054741 73.683789 
L 216.054741 67.306947 
L 218.549978 67.306947 
L 218.549978 66.7968 
L 221.045214 66.7968 
L 221.045214 68.072168 
L 223.540451 68.072168 
L 223.540451 84.396884 
L 226.035688 84.396884 
L 226.035688 89.498358 
L 228.530924 89.498358 
L 228.530924 93.324463 
L 231.026161 93.324463 
L 231.026161 98.170863 
L 233.521398 98.170863 
L 233.521398 102.252042 
L 236.016634 102.252042 
L 236.016634 104.802779 
L 238.511871 104.802779 
L 238.511871 105.312926 
L 241.007107 105.312926 
L 241.007107 105.568 
L 243.502344 105.568 
L 243.502344 101.741895 
L 245.8 101.741895 
L 245.8 101.741895 
" clip-path="url(#pc62ecf799b)" style="fill: none; stroke: #3050f8; stroke-linejoin: miter"/>
   </g>
   <g id="patch_4">
    <path d="M 46.378652 105.568 
L 48.873889 105.568 
L 48.873889 105.568 
L 46.378652 105.568 
z
" clip-path="url(#pc62ecf799b)" style="fill: #3050f8; opacity: 0.6"/>
   </g>
   <g id="patch_5">
    <path d="M 48.873889 105.568 
L 51.369125 105.568 
L 51.369125 105.568 
L 48.873889 105.568 
z
" clip-path="url(#pc62ecf799b)" style="fill: #3050f8; opacity: 0.6"/>
   </g>
   <g id="patch_6">
    <path d="M 51.369125 105.568 
L 53.864362 105.568 
L 53.864362 105.568 
L 51.369125 105.568 
z
" clip-path="url(#pc62ecf799b)" style="fill: #3050f8; opacity: 0.6"/>
   </g>
   <g id="patch_7">
    <path d="M 53.864362 105.568 
L 56.359598 105.568 
L 56.359598 105.568 
L 53.864362 105.568 
z
" clip-path="url(#pc62ecf799b)" style="fill: #3050f8; opacity: 0.6"/>
   </g>
   <g id="patch_8">
    <path d="M 56.359598 105.568 
L 58.854835 105.568 
L 58.854835 105.568 
L 56.359598 105.568 
z
" clip-path="url(#pc62ecf799b)" style="fill: #3050f8; opacity: 0.6"/>
   </g>
   <g id="patch_9">
    <path d="M 58.854835 105.568 
L 61.350072 105.568 
L 61.350072 105.568 
L 58.854835 105.568 
z
" clip-path="url(#pc62ecf799b)" style="fill: #3050f8; opacity: 0.6"/>
   </g>
   <g id="patch_10">
    <path d="M 61.350072 105.568 
L 63.845308 105.568 
L 63.845308 105.568 
L 61.350072 105.568 
z
" clip-path="url(#pc62ecf799b)" style="fill: #3050f8; opacity: 0.6"/>
   </g>
   <g id="patch_11">
    <path d="M 63.845308 105.568 
L 66.340545 105.568 
L 66.340545 105.568 
L 63.845308 105.568 
z
" clip-path="url(#pc62ecf799b)" style="fill: #3050f8; opacity: 0.6"/>
   </g>
   <g id="patch_12">
    <path d="M 66.340545 105.568 
L 68.835781 105.568 
L 68.835781 105.568 
L 66.340545 105.568 
z
" clip-path="url(#pc62ecf799b)" style="fill: #3050f8; opacity: 0.6"/>
   </g>
   <g id="patch_13">
    <path d="M 68.835781 105.568 
L 71.331018 105.568 
L 71.331018 105.568 
L 68.835781 105.568 
z
" clip-path="url(#pc62ecf799b)" style="fill: #3050f8; opacity: 0.6"/>
   </g>
   <g id="patch_14">
    <path d="M 71.331018 105.568 
L 73.826255 105.568 
L 73.826255 105.568 
L 71.331018 105.568 
z
" clip-path="url(#pc62ecf799b)" style="fill: #3050f8; opacity: 0.6"/>
   </g>
   <g id="patch_15">
    <path d="M 73.826255 105.568 
L 76.321491 105.568 
L 76.321491 105.568 
L 73.826255 105.568 
z
" clip-path="url(#pc62ecf799b)" style="fill: #3050f8; opacity: 0.6"/>
   </g>
   <g id="patch_16">
    <path d="M 76.321491 105.568 
L 78.816728 105.568 
L 78.816728 105.568 
L 76.321491 105.568 
z
" clip-path="url(#pc62ecf799b)" style="fill: #3050f8; opacity: 0.6"/>
   </g>
   <g id="patch_17">
    <path d="M 78.816728 105.568 
L 81.311965 105.568 
L 81.311965 105.568 
L 78.816728 105.568 
z
" clip-path="url(#pc62ecf799b)" style="fill: #3050f8; opacity: 0.6"/>
   </g>
   <g id="patch_18">
    <path d="M 81.311965 105.568 
L 83.807201 105.568 
L 83.807201 105.568 
L 81.311965 105.568 
z
" clip-path="url(#pc62ecf799b)" style="fill: #3050f8; opacity: 0.6"/>
   </g>
   <g id="patch_19">
    <path d="M 83.807201 105.568 
L 86.302438 105.568 
L 86.302438 105.568 
L 83.807201 105.568 
z
" clip-path="url(#pc62ecf799b)" style="fill: #3050f8; opacity: 0.6"/>
   </g>
   <g id="patch_20">
    <path d="M 86.302438 105.568 
L 88.797674 105.568 
L 88.797674 105.568 
L 86.302438 105.568 
z
" clip-path="url(#pc62ecf799b)" style="fill: #3050f8; opacity: 0.6"/>
   </g>
   <g id="patch_21">
    <path d="M 88.797674 105.568 
L 91.292911 105.568 
L 91.292911 105.568 
L 88.797674 105.568 
z
" clip-path="url(#pc62ecf799b)" style="fill: #3050f8; opacity: 0.6"/>
   </g>
   <g id="patch_22">
    <path d="M 91.292911 105.568 
L 93.788148 105.568 
L 93.788148 105.568 
L 91.292911 105.568 
z
" clip-path="url(#pc62ecf799b)" style="fill: #3050f8; opacity: 0.6"/>
   </g>
   <g id="patch_23">
    <path d="M 93.788148 105.568 
L 96.283384 105.568 
L 96.283384 105.568 
L 93.788148 105.568 
z
" clip-path="url(#pc62ecf799b)" style="fill: #3050f8; opacity: 0.6"/>
   </g>
   <g id="patch_24">
    <path d="M 96.283384 105.568 
L 98.778621 105.568 
L 98.778621 105.568 
L 96.283384 105.568 
z
" clip-path="url(#pc62ecf799b)" style="fill: #3050f8; opacity: 0.6"/>
   </g>
   <g id="patch_25">
    <path d="M 98.778621 105.568 
L 101.273857 105.568 
L 101.273857 105.568 
L 98.778621 105.568 
z
" clip-path="url(#pc62ecf799b)" style="fill: #3050f8; opacity: 0.6"/>
   </g>
   <g id="patch_26">
    <path d="M 101.273857 105.568 
L 103.769094 105.568 
L 103.769094 105.568 
L 101.273857 105.568 
z
" clip-path="url(#pc62ecf799b)" style="fill: #3050f8; opacity: 0.6"/>
   </g>
   <g id="patch_27">
    <path d="M 103.769094 105.568 
L 106.264331 105.568 
L 106.264331 105.568 
L 103.769094 105.568 
z
" clip-path="url(#pc62ecf799b)" style="fill: #3050f8; opacity: 0.6"/>
   </g>
   <g id="patch_28">
    <path d="M 106.264331 105.568 
L 108.759567 105.568 
L 108.759567 105.568 
L 106.264331 105.568 
z
" clip-path="url(#pc62ecf799b)" style="fill: #3050f8; opacity: 0.6"/>
   </g>
   <g id="patch_29">
    <path d="M 108.759567 105.568 
L 111.254804 105.568 
L 111.254804 105.568 
L 108.759567 105.568 
z
" clip-path="url(#pc62ecf799b)" style="fill: #3050f8; opacity: 0.6"/>
   </g>
   <g id="patch_30">
    <path d="M 111.254804 105.568 
L 113.75004 105.568 
L 113.75004 105.568 
L 111.254804 105.568 
z
" clip-path="url(#pc62ecf799b)" style="fill: #3050f8; opacity: 0.6"/>
   </g>
   <g id="patch_31">
    <path d="M 113.75004 105.568 
L 116.245277 105.568 
L 116.245277 105.568 
L 113.75004 105.568 
z
" clip-path="url(#pc62ecf799b)" style="fill: #3050f8; opacity: 0.6"/>
   </g>
   <g id="patch_32">
    <path d="M 116.245277 105.568 
L 118.740514 105.568 
L 118.740514 105.568 
L 116.245277 105.568 
z
" clip-path="url(#pc62ecf799b)" style="fill: #3050f8; opacity: 0.6"/>
   </g>
   <g id="patch_33">
    <path d="M 118.740514 105.568 
L 121.23575 105.568 
L 121.23575 104.802779 
L 118.740514 104.802779 
z
" clip-path="url(#pc62ecf799b)" style="fill: #3050f8; opacity: 0.6"/>
   </g>
   <g id="patch_34">
    <path d="M 121.23575 105.568 
L 123.730987 105.568 
L 123.730987 105.312926 
L 121.23575 105.312926 
z
" clip-path="url(#pc62ecf799b)" style="fill: #3050f8; opacity: 0.6"/>
   </g>
   <g id="patch_35">
    <path d="M 123.730987 105.568 
L 126.226223 105.568 
L 126.226223 103.782484 
L 123.730987 103.782484 
z
" clip-path="url(#pc62ecf799b)" style="fill: #3050f8; opacity: 0.6"/>
   </g>
   <g id="patch_36">
    <path d="M 126.226223 105.568 
L 128.72146 105.568 
L 128.72146 104.292632 
L 126.226223 104.292632 
z
" clip-path="url(#pc62ecf799b)" style="fill: #3050f8; opacity: 0.6"/>
   </g>
   <g id="patch_37">
    <path d="M 128.72146 105.568 
L 131.216697 105.568 
L 131.216697 102.762189 
L 128.72146 102.762189 
z
" clip-path="url(#pc62ecf799b)" style="fill: #3050f8; opacity: 0.6"/>
   </g>
   <g id="patch_38">
    <path d="M 131.216697 105.568 
L 133.711933 105.568 
L 133.711933 101.486821 
L 131.216697 101.486821 
z
" clip-path="url(#pc62ecf799b)" style="fill: #3050f8; opacity: 0.6"/>
   </g>
   <g id="patch_39">
    <path d="M 133.711933 105.568 
L 136.20717 105.568 
L 136.20717 94.344758 
L 133.711933 94.344758 
z
" clip-path="url(#pc62ecf799b)" style="fill: #3050f8; opacity: 0.6"/>
   </g>
   <g id="patch_40">
    <path d="M 136.20717 105.568 
L 138.702406 105.568 
L 138.702406 93.324463 
L 136.20717 93.324463 
z
" clip-path="url(#pc62ecf799b)" style="fill: #3050f8; opacity: 0.6"/>
   </g>
   <g id="patch_41">
    <path d="M 138.702406 105.568 
L 141.197643 105.568 
L 141.197643 92.814316 
L 138.702406 92.814316 
z
" clip-path="url(#pc62ecf799b)" style="fill: #3050f8; opacity: 0.6"/>
   </g>
   <g id="patch_42">
    <path d="M 141.197643 105.568 
L 143.69288 105.568 
L 143.69288 80.570779 
L 141.197643 80.570779 
z
" clip-path="url(#pc62ecf799b)" style="fill: #3050f8; opacity: 0.6"/>
   </g>
   <g id="patch_43">
    <path d="M 143.69288 105.568 
L 146.188116 105.568 
L 146.188116 65.521432 
L 143.69288 65.521432 
z
" clip-path="url(#pc62ecf799b)" style="fill: #3050f8; opacity: 0.6"/>
   </g>
   <g id="patch_44">
    <path d="M 146.188116 105.568 
L 148.683353 105.568 
L 148.683353 63.480842 
L 146.188116 63.480842 
z
" clip-path="url(#pc62ecf799b)" style="fill: #3050f8; opacity: 0.6"/>
   </g>
   <g id="patch_45">
    <path d="M 148.683353 105.568 
L 151.17859 105.568 
L 151.17859 41.799579 
L 148.683353 41.799579 
z
" clip-path="url(#pc62ecf799b)" style="fill: #3050f8; opacity: 0.6"/>
   </g>
   <g id="patch_46">
    <path d="M 151.17859 105.568 
L 153.673826 105.568 
L 153.673826 40.524211 
L 151.17859 40.524211 
z
" clip-path="url(#pc62ecf799b)" style="fill: #3050f8; opacity: 0.6"/>
   </g>
   <g id="patch_47">
    <path d="M 153.673826 105.568 
L 156.169063 105.568 
L 156.169063 31.851705 
L 153.673826 31.851705 
z
" clip-path="url(#pc62ecf799b)" style="fill: #3050f8; opacity: 0.6"/>
   </g>
   <g id="patch_48">
    <path d="M 156.169063 105.568 
L 158.664299 105.568 
L 158.664299 39.503916 
L 156.169063 39.503916 
z
" clip-path="url(#pc62ecf799b)" style="fill: #3050f8; opacity: 0.6"/>
   </g>
   <g id="patch_49">
    <path d="M 158.664299 105.568 
L 161.159536 105.568 
L 161.159536 61.440253 
L 158.664299 61.440253 
z
" clip-path="url(#pc62ecf799b)" style="fill: #3050f8; opacity: 0.6"/>
   </g>
   <g id="patch_50">
    <path d="M 161.159536 105.568 
L 163.654773 105.568 
L 163.654773 61.695326 
L 161.159536 61.695326 
z
" clip-path="url(#pc62ecf799b)" style="fill: #3050f8; opacity: 0.6"/>
   </g>
   <g id="patch_51">
    <path d="M 163.654773 105.568 
L 166.150009 105.568 
L 166.150009 74.959158 
L 163.654773 74.959158 
z
" clip-path="url(#pc62ecf799b)" style="fill: #3050f8; opacity: 0.6"/>
   </g>
   <g id="patch_52">
    <path d="M 166.150009 105.568 
L 168.645246 105.568 
L 168.645246 84.396884 
L 166.150009 84.396884 
z
" clip-path="url(#pc62ecf799b)" style="fill: #3050f8; opacity: 0.6"/>
   </g>
   <g id="patch_53">
    <path d="M 168.645246 105.568 
L 171.140482 105.568 
L 171.140482 82.101221 
L 168.645246 82.101221 
z
" clip-path="url(#pc62ecf799b)" style="fill: #3050f8; opacity: 0.6"/>
   </g>
   <g id="patch_54">
    <path d="M 171.140482 105.568 
L 173.635719 105.568 
L 173.635719 82.101221 
L 171.140482 82.101221 
z
" clip-path="url(#pc62ecf799b)" style="fill: #3050f8; opacity: 0.6"/>
   </g>
   <g id="patch_55">
    <path d="M 173.635719 105.568 
L 176.130956 105.568 
L 176.130956 82.611368 
L 173.635719 82.611368 
z
" clip-path="url(#pc62ecf799b)" style="fill: #3050f8; opacity: 0.6"/>
   </g>
   <g id="patch_56">
    <path d="M 176.130956 105.568 
L 178.626192 105.568 
L 178.626192 85.162105 
L 176.130956 85.162105 
z
" clip-path="url(#pc62ecf799b)" style="fill: #3050f8; opacity: 0.6"/>
   </g>
   <g id="patch_57">
    <path d="M 178.626192 105.568 
L 181.121429 105.568 
L 181.121429 84.651958 
L 178.626192 84.651958 
z
" clip-path="url(#pc62ecf799b)" style="fill: #3050f8; opacity: 0.6"/>
   </g>
   <g id="patch_58">
    <path d="M 181.121429 105.568 
L 183.616665 105.568 
L 183.616665 80.570779 
L 181.121429 80.570779 
z
" clip-path="url(#pc62ecf799b)" style="fill: #3050f8; opacity: 0.6"/>
   </g>
   <g id="patch_59">
    <path d="M 183.616665 105.568 
L 186.111902 105.568 
L 186.111902 84.141811 
L 183.616665 84.141811 
z
" clip-path="url(#pc62ecf799b)" style="fill: #3050f8; opacity: 0.6"/>
   </g>
   <g id="patch_60">
    <path d="M 186.111902 105.568 
L 188.607139 105.568 
L 188.607139 85.417179 
L 186.111902 85.417179 
z
" clip-path="url(#pc62ecf799b)" style="fill: #3050f8; opacity: 0.6"/>
   </g>
   <g id="patch_61">
    <path d="M 188.607139 105.568 
L 191.102375 105.568 
L 191.102375 91.283874 
L 188.607139 91.283874 
z
" clip-path="url(#pc62ecf799b)" style="fill: #3050f8; opacity: 0.6"/>
   </g>
   <g id="patch_62">
    <path d="M 191.102375 105.568 
L 193.597612 105.568 
L 193.597612 92.559242 
L 191.102375 92.559242 
z
" clip-path="url(#pc62ecf799b)" style="fill: #3050f8; opacity: 0.6"/>
   </g>
   <g id="patch_63">
    <path d="M 193.597612 105.568 
L 196.092848 105.568 
L 196.092848 92.814316 
L 193.597612 92.814316 
z
" clip-path="url(#pc62ecf799b)" style="fill: #3050f8; opacity: 0.6"/>
   </g>
   <g id="patch_64">
    <path d="M 196.092848 105.568 
L 198.588085 105.568 
L 198.588085 89.753432 
L 196.092848 89.753432 
z
" clip-path="url(#pc62ecf799b)" style="fill: #3050f8; opacity: 0.6"/>
   </g>
   <g id="patch_65">
    <path d="M 198.588085 105.568 
L 201.083322 105.568 
L 201.083322 89.753432 
L 198.588085 89.753432 
z
" clip-path="url(#pc62ecf799b)" style="fill: #3050f8; opacity: 0.6"/>
   </g>
   <g id="patch_66">
    <path d="M 201.083322 105.568 
L 203.578558 105.568 
L 203.578558 85.162105 
L 201.083322 85.162105 
z
" clip-path="url(#pc62ecf799b)" style="fill: #3050f8; opacity: 0.6"/>
   </g>
   <g id="patch_67">
    <path d="M 203.578558 105.568 
L 206.073795 105.568 
L 206.073795 86.437474 
L 203.578558 86.437474 
z
" clip-path="url(#pc62ecf799b)" style="fill: #3050f8; opacity: 0.6"/>
   </g>
   <g id="patch_68">
    <path d="M 206.073795 105.568 
L 208.569031 105.568 
L 208.569031 87.202695 
L 206.073795 87.202695 
z
" clip-path="url(#pc62ecf799b)" style="fill: #3050f8; opacity: 0.6"/>
   </g>
   <g id="patch_69">
    <path d="M 208.569031 105.568 
L 211.064268 105.568 
L 211.064268 85.672253 
L 208.569031 85.672253 
z
" clip-path="url(#pc62ecf799b)" style="fill: #3050f8; opacity: 0.6"/>
   </g>
   <g id="patch_70">
    <path d="M 211.064268 105.568 
L 213.559505 105.568 
L 213.559505 80.570779 
L 211.064268 80.570779 
z
" clip-path="url(#pc62ecf799b)" style="fill: #3050f8; opacity: 0.6"/>
   </g>
   <g id="patch_71">
    <path d="M 213.559505 105.568 
L 216.054741 105.568 
L 216.054741 82.866442 
L 213.559505 82.866442 
z
" clip-path="url(#pc62ecf799b)" style="fill: #3050f8; opacity: 0.6"/>
   </g>
   <g id="patch_72">
    <path d="M 216.054741 105.568 
L 218.549978 105.568 
L 218.549978 76.234526 
L 216.054741 76.234526 
z
" clip-path="url(#pc62ecf799b)" style="fill: #3050f8; opacity: 0.6"/>
   </g>
   <g id="patch_73">
    <path d="M 218.549978 105.568 
L 221.045214 105.568 
L 221.045214 74.449011 
L 218.549978 74.449011 
z
" clip-path="url(#pc62ecf799b)" style="fill: #3050f8; opacity: 0.6"/>
   </g>
   <g id="patch_74">
    <path d="M 221.045214 105.568 
L 223.540451 105.568 
L 223.540451 75.469305 
L 221.045214 75.469305 
z
" clip-path="url(#pc62ecf799b)" style="fill: #3050f8; opacity: 0.6"/>
   </g>
   <g id="patch_75">
    <path d="M 223.540451 105.568 
L 226.035688 105.568 
L 226.035688 103.017263 
L 223.540451 103.017263 
z
" clip-path="url(#pc62ecf799b)" style="fill: #3050f8; opacity: 0.6"/>
   </g>
   <g id="patch_76">
    <path d="M 226.035688 105.568 
L 228.530924 105.568 
L 228.530924 105.568 
L 226.035688 105.568 
z
" clip-path="url(#pc62ecf799b)" style="fill: #3050f8; opacity: 0.6"/>
   </g>
   <g id="patch_77">
    <path d="M 228.530924 105.568 
L 231.026161 105.568 
L 231.026161 105.568 
L 228.530924 105.568 
z
" clip-path="url(#pc62ecf799b)" style="fill: #3050f8; opacity: 0.6"/>
   </g>
   <g id="patch_78">
    <path d="M 231.026161 105.568 
L 233.521398 105.568 
L 233.521398 105.568 
L 231.026161 105.568 
z
" clip-path="url(#pc62ecf799b)" style="fill: #3050f8; opacity: 0.6"/>
   </g>
   <g id="patch_79">
    <path d="M 233.521398 105.568 
L 236.016634 105.568 
L 236.016634 105.568 
L 233.521398 105.568 
z
" clip-path="url(#pc62ecf799b)" style="fill: #3050f8; opacity: 0.6"/>
   </g>
   <g id="patch_80">
    <path d="M 236.016634 105.568 
L 238.511871 105.568 
L 238.511871 105.568 
L 236.016634 105.568 
z
" clip-path="url(#pc62ecf799b)" style="fill: #3050f8; opacity: 0.6"/>
   </g>
   <g id="patch_81">
    <path d="M 238.511871 105.568 
L 241.007107 105.568 
L 241.007107 105.568 
L 238.511871 105.568 
z
" clip-path="url(#pc62ecf799b)" style="fill: #3050f8; opacity: 0.6"/>
   </g>
   <g id="patch_82">
    <path d="M 241.007107 105.568 
L 243.502344 105.568 
L 243.502344 105.568 
L 241.007107 105.568 
z
" clip-path="url(#pc62ecf799b)" style="fill: #3050f8; opacity: 0.6"/>
   </g>
   <g id="patch_83">
    <path d="M 243.502344 105.568 
L 245.997581 105.568 
L 245.997581 105.568 
L 243.502344 105.568 
z
" clip-path="url(#pc62ecf799b)" style="fill: #3050f8; opacity: 0.6"/>
   </g>
   <g id="patch_84">
    <path d="M 245.997581 105.568 
L 248.492817 105.568 
L 248.492817 105.568 
L 245.997581 105.568 
z
" clip-path="url(#pc62ecf799b)" style="fill: #3050f8; opacity: 0.6"/>
   </g>
   <g id="patch_85">
    <path d="M 248.492817 105.568 
L 250.988054 105.568 
L 250.988054 105.568 
L 248.492817 105.568 
z
" clip-path="url(#pc62ecf799b)" style="fill: #3050f8; opacity: 0.6"/>
   </g>
   <g id="patch_86">
    <path d="M 250.988054 105.568 
L 253.48329 105.568 
L 253.48329 105.568 
L 250.988054 105.568 
z
" clip-path="url(#pc62ecf799b)" style="fill: #3050f8; opacity: 0.6"/>
   </g>
   <g id="patch_87">
    <path d="M 253.48329 105.568 
L 255.978527 105.568 
L 255.978527 105.568 
L 253.48329 105.568 
z
" clip-path="url(#pc62ecf799b)" style="fill: #3050f8; opacity: 0.6"/>
   </g>
   <g id="patch_88">
    <path d="M 255.978527 105.568 
L 258.473764 105.568 
L 258.473764 105.568 
L 255.978527 105.568 
z
" clip-path="url(#pc62ecf799b)" style="fill: #3050f8; opacity: 0.6"/>
   </g>
   <g id="patch_89">
    <path d="M 258.473764 105.568 
L 260.969 105.568 
L 260.969 105.568 
L 258.473764 105.568 
z
" clip-path="url(#pc62ecf799b)" style="fill: #3050f8; opacity: 0.6"/>
   </g>
   <g id="patch_90">
    <path d="M 260.969 105.568 
L 263.464237 105.568 
L 263.464237 105.568 
L 260.969 105.568 
z
" clip-path="url(#pc62ecf799b)" style="fill: #3050f8; opacity: 0.6"/>
   </g>
   <g id="patch_91">
    <path d="M 263.464237 105.568 
L 265.959473 105.568 
L 265.959473 105.568 
L 263.464237 105.568 
z
" clip-path="url(#pc62ecf799b)" style="fill: #3050f8; opacity: 0.6"/>
   </g>
   <g id="patch_92">
    <path d="M 265.959473 105.568 
L 268.45471 105.568 
L 268.45471 105.568 
L 265.959473 105.568 
z
" clip-path="url(#pc62ecf799b)" style="fill: #3050f8; opacity: 0.6"/>
   </g>
   <g id="patch_93">
    <path d="M 268.45471 105.568 
L 270.949947 105.568 
L 270.949947 105.568 
L 268.45471 105.568 
z
" clip-path="url(#pc62ecf799b)" style="fill: #3050f8; opacity: 0.6"/>
   </g>
   <g id="patch_94">
    <path d="M 270.949947 105.568 
L 273.445183 105.568 
L 273.445183 105.568 
L 270.949947 105.568 
z
" clip-path="url(#pc62ecf799b)" style="fill: #3050f8; opacity: 0.6"/>
   </g>
   <g id="patch_95">
    <path d="M 273.445183 105.568 
L 275.94042 105.568 
L 275.94042 105.568 
L 273.445183 105.568 
z
" clip-path="url(#pc62ecf799b)" style="fill: #3050f8; opacity: 0.6"/>
   </g>
   <g id="patch_96">
    <path d="M 275.94042 105.568 
L 278.435656 105.568 
L 278.435656 105.568 
L 275.94042 105.568 
z
" clip-path="url(#pc62ecf799b)" style="fill: #3050f8; opacity: 0.6"/>
   </g>
   <g id="patch_97">
    <path d="M 278.435656 105.568 
L 280.930893 105.568 
L 280.930893 105.568 
L 278.435656 105.568 
z
" clip-path="url(#pc62ecf799b)" style="fill: #3050f8; opacity: 0.6"/>
   </g>
   <g id="patch_98">
    <path d="M 280.930893 105.568 
L 283.42613 105.568 
L 283.42613 105.568 
L 280.930893 105.568 
z
" clip-path="url(#pc62ecf799b)" style="fill: #3050f8; opacity: 0.6"/>
   </g>
   <g id="patch_99">
    <path d="M 283.42613 105.568 
L 285.921366 105.568 
L 285.921366 105.568 
L 283.42613 105.568 
z
" clip-path="url(#pc62ecf799b)" style="fill: #3050f8; opacity: 0.6"/>
   </g>
   <g id="patch_100">
    <path d="M 285.921366 105.568 
L 288.416603 105.568 
L 288.416603 105.568 
L 285.921366 105.568 
z
" clip-path="url(#pc62ecf799b)" style="fill: #3050f8; opacity: 0.6"/>
   </g>
   <g id="patch_101">
    <path d="M 288.416603 105.568 
L 290.911839 105.568 
L 290.911839 105.568 
L 288.416603 105.568 
z
" clip-path="url(#pc62ecf799b)" style="fill: #3050f8; opacity: 0.6"/>
   </g>
   <g id="patch_102">
    <path d="M 290.911839 105.568 
L 293.407076 105.568 
L 293.407076 105.568 
L 290.911839 105.568 
z
" clip-path="url(#pc62ecf799b)" style="fill: #3050f8; opacity: 0.6"/>
   </g>
   <g id="patch_103">
    <path d="M 293.407076 105.568 
L 295.902313 105.568 
L 295.902313 105.568 
L 293.407076 105.568 
z
" clip-path="url(#pc62ecf799b)" style="fill: #3050f8; opacity: 0.6"/>
   </g>
   <g id="matplotlib.axis_1">
    <g id="xtick_1">
     <g id="line2d_1">
      <defs>
       <path id="m24bf3c73a2" d="M 0 0 
L 0 3.5 
" style="stroke: #000000; stroke-width: 0.8"/>
      </defs>
      <g>
       <use xlink:href="#m24bf3c73a2" x="44.39" y="105.568" style="stroke: #000000; stroke-width: 0.8"/>
      </g>
     </g>
     <g id="text_1">
      <!-- −1.5 -->
      <g transform="translate(34.676875 118.64675) scale(0.08 -0.08)">
       <defs>
        <path id="DejaVuSans-2212" d="M 678 2272 
L 4684 2272 
L 4684 1741 
L 678 1741 
L 678 2272 
z
" transform="scale(0.015625)"/>
        <path id="DejaVuSans-31" d="M 794 531 
L 1825 531 
L 1825 4091 
L 703 3866 
L 703 4441 
L 1819 4666 
L 2450 4666 
L 2450 531 
L 3481 531 
L 3481 0 
L 794 0 
L 794 531 
z
" transform="scale(0.015625)"/>
        <path id="DejaVuSans-2e" d="M 684 794 
L 1344 794 
L 1344 0 
L 684 0 
L 684 794 
z
" transform="scale(0.015625)"/>
        <path id="DejaVuSans-35" d="M 691 4666 
L 3169 4666 
L 3169 4134 
L 1269 4134 
L 1269 2991 
Q 1406 3038 1543 3061 
Q 1681 3084 1819 3084 
Q 2600 3084 3056 2656 
Q 3513 2228 3513 1497 
Q 3513 744 3044 326 
Q 2575 -91 1722 -91 
Q 1428 -91 1123 -41 
Q 819 9 494 109 
L 494 744 
Q 775 591 1075 516 
Q 1375 441 1709 441 
Q 2250 441 2565 725 
Q 2881 1009 2881 1497 
Q 2881 1984 2565 2268 
Q 2250 2553 1709 2553 
Q 1456 2553 1204 2497 
Q 953 2441 691 2322 
L 691 4666 
z
" transform="scale(0.015625)"/>
       </defs>
       <use xlink:href="#DejaVuSans-2212"/>
       <use xlink:href="#DejaVuSans-31" x="83.789062"/>
       <use xlink:href="#DejaVuSans-2e" x="147.412109"/>
       <use xlink:href="#DejaVuSans-35" x="179.199219"/>
      </g>
     </g>
    </g>
    <g id="xtick_2">
     <g id="line2d_2">
      <g>
       <use xlink:href="#m24bf3c73a2" x="104.318125" y="105.568" style="stroke: #000000; stroke-width: 0.8"/>
      </g>
     </g>
     <g id="text_2">
      <!-- −1.0 -->
      <g transform="translate(94.605 118.64675) scale(0.08 -0.08)">
       <defs>
        <path id="DejaVuSans-30" d="M 2034 4250 
Q 1547 4250 1301 3770 
Q 1056 3291 1056 2328 
Q 1056 1369 1301 889 
Q 1547 409 2034 409 
Q 2525 409 2770 889 
Q 3016 1369 3016 2328 
Q 3016 3291 2770 3770 
Q 2525 4250 2034 4250 
z
M 2034 4750 
Q 2819 4750 3233 4129 
Q 3647 3509 3647 2328 
Q 3647 1150 3233 529 
Q 2819 -91 2034 -91 
Q 1250 -91 836 529 
Q 422 1150 422 2328 
Q 422 3509 836 4129 
Q 1250 4750 2034 4750 
z
" transform="scale(0.015625)"/>
       </defs>
       <use xlink:href="#DejaVuSans-2212"/>
       <use xlink:href="#DejaVuSans-31" x="83.789062"/>
       <use xlink:href="#DejaVuSans-2e" x="147.412109"/>
       <use xlink:href="#DejaVuSans-30" x="179.199219"/>
      </g>
     </g>
    </g>
    <g id="xtick_3">
     <g id="line2d_3">
      <g>
       <use xlink:href="#m24bf3c73a2" x="164.24625" y="105.568" style="stroke: #000000; stroke-width: 0.8"/>
      </g>
     </g>
     <g id="text_3">
      <!-- −0.5 -->
      <g transform="translate(154.533125 118.64675) scale(0.08 -0.08)">
       <use xlink:href="#DejaVuSans-2212"/>
       <use xlink:href="#DejaVuSans-30" x="83.789062"/>
       <use xlink:href="#DejaVuSans-2e" x="147.412109"/>
       <use xlink:href="#DejaVuSans-35" x="179.199219"/>
      </g>
     </g>
    </g>
    <g id="xtick_4">
     <g id="line2d_4">
      <g>
       <use xlink:href="#m24bf3c73a2" x="224.174375" y="105.568" style="stroke: #000000; stroke-width: 0.8"/>
      </g>
     </g>
     <g id="text_4">
      <!-- 0.0 -->
      <g transform="translate(217.813125 118.64675) scale(0.08 -0.08)">
       <use xlink:href="#DejaVuSans-30"/>
       <use xlink:href="#DejaVuSans-2e" x="63.623047"/>
       <use xlink:href="#DejaVuSans-30" x="95.410156"/>
      </g>
     </g>
    </g>
    <g id="xtick_5">
     <g id="line2d_5">
      <defs>
       <path id="m85d24d2ef2" d="M 0 0 
L 0 2 
" style="stroke: #000000; stroke-width: 0.6"/>
      </defs>
      <g>
       <use xlink:href="#m85d24d2ef2" x="56.375625" y="105.568" style="stroke: #000000; stroke-width: 0.6"/>
      </g>
     </g>
    </g>
    <g id="xtick_6">
     <g id="line2d_6">
      <g>
       <use xlink:href="#m85d24d2ef2" x="68.36125" y="105.568" style="stroke: #000000; stroke-width: 0.6"/>
      </g>
     </g>
    </g>
    <g id="xtick_7">
     <g id="line2d_7">
      <g>
       <use xlink:href="#m85d24d2ef2" x="80.346875" y="105.568" style="stroke: #000000; stroke-width: 0.6"/>
      </g>
     </g>
    </g>
    <g id="xtick_8">
     <g id="line2d_8">
      <g>
       <use xlink:href="#m85d24d2ef2" x="92.3325" y="105.568" style="stroke: #000000; stroke-width: 0.6"/>
      </g>
     </g>
    </g>
    <g id="xtick_9">
     <g id="line2d_9">
      <g>
       <use xlink:href="#m85d24d2ef2" x="116.30375" y="105.568" style="stroke: #000000; stroke-width: 0.6"/>
      </g>
     </g>
    </g>
    <g id="xtick_10">
     <g id="line2d_10">
      <g>
       <use xlink:href="#m85d24d2ef2" x="128.289375" y="105.568" style="stroke: #000000; stroke-width: 0.6"/>
      </g>
     </g>
    </g>
    <g id="xtick_11">
     <g id="line2d_11">
      <g>
       <use xlink:href="#m85d24d2ef2" x="140.275" y="105.568" style="stroke: #000000; stroke-width: 0.6"/>
      </g>
     </g>
    </g>
    <g id="xtick_12">
     <g id="line2d_12">
      <g>
       <use xlink:href="#m85d24d2ef2" x="152.260625" y="105.568" style="stroke: #000000; stroke-width: 0.6"/>
      </g>
     </g>
    </g>
    <g id="xtick_13">
     <g id="line2d_13">
      <g>
       <use xlink:href="#m85d24d2ef2" x="176.231875" y="105.568" style="stroke: #000000; stroke-width: 0.6"/>
      </g>
     </g>
    </g>
    <g id="xtick_14">
     <g id="line2d_14">
      <g>
       <use xlink:href="#m85d24d2ef2" x="188.2175" y="105.568" style="stroke: #000000; stroke-width: 0.6"/>
      </g>
     </g>
    </g>
    <g id="xtick_15">
     <g id="line2d_15">
      <g>
       <use xlink:href="#m85d24d2ef2" x="200.203125" y="105.568" style="stroke: #000000; stroke-width: 0.6"/>
      </g>
     </g>
    </g>
    <g id="xtick_16">
     <g id="line2d_16">
      <g>
       <use xlink:href="#m85d24d2ef2" x="212.18875" y="105.568" style="stroke: #000000; stroke-width: 0.6"/>
      </g>
     </g>
    </g>
    <g id="xtick_17">
     <g id="line2d_17">
      <g>
       <use xlink:href="#m85d24d2ef2" x="236.16" y="105.568" style="stroke: #000000; stroke-width: 0.6"/>
      </g>
     </g>
    </g>
    <g id="text_5">
     <!-- $\Delta G_{ads}$ [eV] -->
     <g transform="translate(117.19 131.149094) scale(0.09 -0.09)">
      <defs>
       <path id="DejaVuSans-394" d="M 2188 4044 
L 906 525 
L 3472 525 
L 2188 4044 
z
M 50 0 
L 1831 4666 
L 2547 4666 
L 4325 0 
L 50 0 
z
" transform="scale(0.015625)"/>
       <path id="DejaVuSans-Oblique-47" d="M 3494 697 
L 3738 1919 
L 2700 1919 
L 2797 2438 
L 4453 2438 
L 4050 384 
Q 3634 156 3143 32 
Q 2653 -91 2156 -91 
Q 1278 -91 783 396 
Q 288 884 288 1753 
Q 288 2475 589 3126 
Q 891 3778 1422 4213 
Q 1756 4484 2153 4617 
Q 2550 4750 3034 4750 
Q 3472 4750 3873 4639 
Q 4275 4528 4641 4306 
L 4513 3634 
Q 4231 3928 3853 4083 
Q 3475 4238 3047 4238 
Q 2550 4238 2172 4048 
Q 1794 3859 1497 3463 
Q 1244 3125 1098 2667 
Q 953 2209 953 1734 
Q 953 1081 1287 751 
Q 1622 422 2284 422 
Q 2616 422 2925 492 
Q 3234 563 3494 697 
z
" transform="scale(0.015625)"/>
       <path id="DejaVuSans-Oblique-61" d="M 3438 1997 
L 3047 0 
L 2472 0 
L 2578 531 
Q 2325 219 2001 64 
Q 1678 -91 1281 -91 
Q 834 -91 548 182 
Q 263 456 263 884 
Q 263 1497 752 1853 
Q 1241 2209 2100 2209 
L 2900 2209 
L 2931 2363 
Q 2938 2388 2941 2417 
Q 2944 2447 2944 2509 
Q 2944 2788 2717 2942 
Q 2491 3097 2081 3097 
Q 1800 3097 1504 3025 
Q 1209 2953 897 2809 
L 997 3341 
Q 1322 3463 1633 3523 
Q 1944 3584 2234 3584 
Q 2853 3584 3176 3315 
Q 3500 3047 3500 2534 
Q 3500 2431 3484 2292 
Q 3469 2153 3438 1997 
z
M 2816 1759 
L 2241 1759 
Q 1534 1759 1195 1570 
Q 856 1381 856 984 
Q 856 709 1029 553 
Q 1203 397 1509 397 
Q 1978 397 2328 733 
Q 2678 1069 2791 1631 
L 2816 1759 
z
" transform="scale(0.015625)"/>
       <path id="DejaVuSans-Oblique-64" d="M 2675 525 
Q 2444 222 2128 65 
Q 1813 -91 1428 -91 
Q 903 -91 598 267 
Q 294 625 294 1247 
Q 294 1766 478 2236 
Q 663 2706 1013 3078 
Q 1244 3325 1534 3454 
Q 1825 3584 2144 3584 
Q 2481 3584 2739 3421 
Q 2997 3259 3138 2956 
L 3513 4863 
L 4091 4863 
L 3144 0 
L 2566 0 
L 2675 525 
z
M 891 1350 
Q 891 897 1095 644 
Q 1300 391 1663 391 
Q 1931 391 2161 520 
Q 2391 650 2566 903 
Q 2750 1166 2856 1509 
Q 2963 1853 2963 2188 
Q 2963 2622 2758 2865 
Q 2553 3109 2194 3109 
Q 1922 3109 1687 2981 
Q 1453 2853 1288 2613 
Q 1106 2353 998 2009 
Q 891 1666 891 1350 
z
" transform="scale(0.015625)"/>
       <path id="DejaVuSans-Oblique-73" d="M 3200 3397 
L 3091 2853 
Q 2863 2978 2609 3040 
Q 2356 3103 2088 3103 
Q 1634 3103 1373 2948 
Q 1113 2794 1113 2528 
Q 1113 2219 1719 2053 
Q 1766 2041 1788 2034 
L 1972 1978 
Q 2547 1819 2739 1644 
Q 2931 1469 2931 1166 
Q 2931 609 2489 259 
Q 2047 -91 1331 -91 
Q 1053 -91 747 -37 
Q 441 16 72 128 
L 184 722 
Q 500 559 806 475 
Q 1113 391 1394 391 
Q 1816 391 2080 572 
Q 2344 753 2344 1031 
Q 2344 1331 1650 1516 
L 1591 1531 
L 1394 1581 
Q 956 1697 753 1886 
Q 550 2075 550 2369 
Q 550 2928 970 3256 
Q 1391 3584 2113 3584 
Q 2397 3584 2667 3537 
Q 2938 3491 3200 3397 
z
" transform="scale(0.015625)"/>
       <path id="DejaVuSans-20" transform="scale(0.015625)"/>
       <path id="DejaVuSans-5b" d="M 550 4863 
L 1875 4863 
L 1875 4416 
L 1125 4416 
L 1125 -397 
L 1875 -397 
L 1875 -844 
L 550 -844 
L 550 4863 
z
" transform="scale(0.015625)"/>
       <path id="DejaVuSans-65" d="M 3597 1894 
L 3597 1613 
L 953 1613 
Q 991 1019 1311 708 
Q 1631 397 2203 397 
Q 2534 397 2845 478 
Q 3156 559 3463 722 
L 3463 178 
Q 3153 47 2828 -22 
Q 2503 -91 2169 -91 
Q 1331 -91 842 396 
Q 353 884 353 1716 
Q 353 2575 817 3079 
Q 1281 3584 2069 3584 
Q 2775 3584 3186 3129 
Q 3597 2675 3597 1894 
z
M 3022 2063 
Q 3016 2534 2758 2815 
Q 2500 3097 2075 3097 
Q 1594 3097 1305 2825 
Q 1016 2553 972 2059 
L 3022 2063 
z
" transform="scale(0.015625)"/>
       <path id="DejaVuSans-56" d="M 1831 0 
L 50 4666 
L 709 4666 
L 2188 738 
L 3669 4666 
L 4325 4666 
L 2547 0 
L 1831 0 
z
" transform="scale(0.015625)"/>
       <path id="DejaVuSans-5d" d="M 1947 4863 
L 1947 -844 
L 622 -844 
L 622 -397 
L 1369 -397 
L 1369 4416 
L 622 4416 
L 622 4863 
L 1947 4863 
z
" transform="scale(0.015625)"/>
      </defs>
      <use xlink:href="#DejaVuSans-394" transform="translate(0 0.015625)"/>
      <use xlink:href="#DejaVuSans-Oblique-47" transform="translate(68.408203 0.015625)"/>
      <use xlink:href="#DejaVuSans-Oblique-61" transform="translate(145.898438 -16.390625) scale(0.7)"/>
      <use xlink:href="#DejaVuSans-Oblique-64" transform="translate(188.793945 -16.390625) scale(0.7)"/>
      <use xlink:href="#DejaVuSans-Oblique-73" transform="translate(233.227539 -16.390625) scale(0.7)"/>
      <use xlink:href="#DejaVuSans-20" transform="translate(272.431641 0.015625)"/>
      <use xlink:href="#DejaVuSans-5b" transform="translate(304.21875 0.015625)"/>
      <use xlink:href="#DejaVuSans-65" transform="translate(343.232422 0.015625)"/>
      <use xlink:href="#DejaVuSans-56" transform="translate(404.755859 0.015625)"/>
      <use xlink:href="#DejaVuSans-5d" transform="translate(473.164062 0.015625)"/>
     </g>
    </g>
   </g>
   <g id="matplotlib.axis_2">
    <g id="ytick_1">
     <g id="line2d_18">
      <defs>
       <path id="maf5a171425" d="M 0 0 
L -3.5 0 
" style="stroke: #000000; stroke-width: 0.8"/>
      </defs>
      <g>
       <use xlink:href="#maf5a171425" x="44.39" y="105.568" style="stroke: #000000; stroke-width: 0.8"/>
      </g>
     </g>
     <g id="text_6">
      <!-- 0 -->
      <g transform="translate(32.3 108.607375) scale(0.08 -0.08)">
       <use xlink:href="#DejaVuSans-30"/>
      </g>
     </g>
    </g>
    <g id="ytick_2">
     <g id="line2d_19">
      <g>
       <use xlink:href="#maf5a171425" x="44.39" y="80.060632" style="stroke: #000000; stroke-width: 0.8"/>
      </g>
     </g>
     <g id="text_7">
      <!-- 100 -->
      <g transform="translate(22.12 83.100007) scale(0.08 -0.08)">
       <use xlink:href="#DejaVuSans-31"/>
       <use xlink:href="#DejaVuSans-30" x="63.623047"/>
       <use xlink:href="#DejaVuSans-30" x="127.246094"/>
      </g>
     </g>
    </g>
    <g id="ytick_3">
     <g id="line2d_20">
      <g>
       <use xlink:href="#maf5a171425" x="44.39" y="54.553263" style="stroke: #000000; stroke-width: 0.8"/>
      </g>
     </g>
     <g id="text_8">
      <!-- 200 -->
      <g transform="translate(22.12 57.592638) scale(0.08 -0.08)">
       <defs>
        <path id="DejaVuSans-32" d="M 1228 531 
L 3431 531 
L 3431 0 
L 469 0 
L 469 531 
Q 828 903 1448 1529 
Q 2069 2156 2228 2338 
Q 2531 2678 2651 2914 
Q 2772 3150 2772 3378 
Q 2772 3750 2511 3984 
Q 2250 4219 1831 4219 
Q 1534 4219 1204 4116 
Q 875 4013 500 3803 
L 500 4441 
Q 881 4594 1212 4672 
Q 1544 4750 1819 4750 
Q 2544 4750 2975 4387 
Q 3406 4025 3406 3419 
Q 3406 3131 3298 2873 
Q 3191 2616 2906 2266 
Q 2828 2175 2409 1742 
Q 1991 1309 1228 531 
z
" transform="scale(0.015625)"/>
       </defs>
       <use xlink:href="#DejaVuSans-32"/>
       <use xlink:href="#DejaVuSans-30" x="63.623047"/>
       <use xlink:href="#DejaVuSans-30" x="127.246094"/>
      </g>
     </g>
    </g>
    <g id="ytick_4">
     <g id="line2d_21">
      <g>
       <use xlink:href="#maf5a171425" x="44.39" y="29.045895" style="stroke: #000000; stroke-width: 0.8"/>
      </g>
     </g>
     <g id="text_9">
      <!-- 300 -->
      <g transform="translate(22.12 32.08527) scale(0.08 -0.08)">
       <defs>
        <path id="DejaVuSans-33" d="M 2597 2516 
Q 3050 2419 3304 2112 
Q 3559 1806 3559 1356 
Q 3559 666 3084 287 
Q 2609 -91 1734 -91 
Q 1441 -91 1130 -33 
Q 819 25 488 141 
L 488 750 
Q 750 597 1062 519 
Q 1375 441 1716 441 
Q 2309 441 2620 675 
Q 2931 909 2931 1356 
Q 2931 1769 2642 2001 
Q 2353 2234 1838 2234 
L 1294 2234 
L 1294 2753 
L 1863 2753 
Q 2328 2753 2575 2939 
Q 2822 3125 2822 3475 
Q 2822 3834 2567 4026 
Q 2313 4219 1838 4219 
Q 1578 4219 1281 4162 
Q 984 4106 628 3988 
L 628 4550 
Q 988 4650 1302 4700 
Q 1616 4750 1894 4750 
Q 2613 4750 3031 4423 
Q 3450 4097 3450 3541 
Q 3450 3153 3228 2886 
Q 3006 2619 2597 2516 
z
" transform="scale(0.015625)"/>
       </defs>
       <use xlink:href="#DejaVuSans-33"/>
       <use xlink:href="#DejaVuSans-30" x="63.623047"/>
       <use xlink:href="#DejaVuSans-30" x="127.246094"/>
      </g>
     </g>
    </g>
    <g id="ytick_5">
     <g id="line2d_22">
      <defs>
       <path id="m34080e7adb" d="M 0 0 
L -2 0 
" style="stroke: #000000; stroke-width: 0.6"/>
      </defs>
      <g>
       <use xlink:href="#m34080e7adb" x="44.39" y="92.814316" style="stroke: #000000; stroke-width: 0.6"/>
      </g>
     </g>
    </g>
    <g id="ytick_6">
     <g id="line2d_23">
      <g>
       <use xlink:href="#m34080e7adb" x="44.39" y="67.306947" style="stroke: #000000; stroke-width: 0.6"/>
      </g>
     </g>
    </g>
    <g id="ytick_7">
     <g id="line2d_24">
      <g>
       <use xlink:href="#m34080e7adb" x="44.39" y="41.799579" style="stroke: #000000; stroke-width: 0.6"/>
      </g>
     </g>
    </g>
    <g id="ytick_8">
     <g id="line2d_25">
      <g>
       <use xlink:href="#m34080e7adb" x="44.39" y="16.292211" style="stroke: #000000; stroke-width: 0.6"/>
      </g>
     </g>
    </g>
    <g id="text_10">
     <!-- Number of Sites -->
     <g transform="translate(16.248281 93.363453) rotate(-90) scale(0.09 -0.09)">
      <defs>
       <path id="DejaVuSans-4e" d="M 628 4666 
L 1478 4666 
L 3547 763 
L 3547 4666 
L 4159 4666 
L 4159 0 
L 3309 0 
L 1241 3903 
L 1241 0 
L 628 0 
L 628 4666 
z
" transform="scale(0.015625)"/>
       <path id="DejaVuSans-75" d="M 544 1381 
L 544 3500 
L 1119 3500 
L 1119 1403 
Q 1119 906 1312 657 
Q 1506 409 1894 409 
Q 2359 409 2629 706 
Q 2900 1003 2900 1516 
L 2900 3500 
L 3475 3500 
L 3475 0 
L 2900 0 
L 2900 538 
Q 2691 219 2414 64 
Q 2138 -91 1772 -91 
Q 1169 -91 856 284 
Q 544 659 544 1381 
z
M 1991 3584 
L 1991 3584 
z
" transform="scale(0.015625)"/>
       <path id="DejaVuSans-6d" d="M 3328 2828 
Q 3544 3216 3844 3400 
Q 4144 3584 4550 3584 
Q 5097 3584 5394 3201 
Q 5691 2819 5691 2113 
L 5691 0 
L 5113 0 
L 5113 2094 
Q 5113 2597 4934 2840 
Q 4756 3084 4391 3084 
Q 3944 3084 3684 2787 
Q 3425 2491 3425 1978 
L 3425 0 
L 2847 0 
L 2847 2094 
Q 2847 2600 2669 2842 
Q 2491 3084 2119 3084 
Q 1678 3084 1418 2786 
Q 1159 2488 1159 1978 
L 1159 0 
L 581 0 
L 581 3500 
L 1159 3500 
L 1159 2956 
Q 1356 3278 1631 3431 
Q 1906 3584 2284 3584 
Q 2666 3584 2933 3390 
Q 3200 3197 3328 2828 
z
" transform="scale(0.015625)"/>
       <path id="DejaVuSans-62" d="M 3116 1747 
Q 3116 2381 2855 2742 
Q 2594 3103 2138 3103 
Q 1681 3103 1420 2742 
Q 1159 2381 1159 1747 
Q 1159 1113 1420 752 
Q 1681 391 2138 391 
Q 2594 391 2855 752 
Q 3116 1113 3116 1747 
z
M 1159 2969 
Q 1341 3281 1617 3432 
Q 1894 3584 2278 3584 
Q 2916 3584 3314 3078 
Q 3713 2572 3713 1747 
Q 3713 922 3314 415 
Q 2916 -91 2278 -91 
Q 1894 -91 1617 61 
Q 1341 213 1159 525 
L 1159 0 
L 581 0 
L 581 4863 
L 1159 4863 
L 1159 2969 
z
" transform="scale(0.015625)"/>
       <path id="DejaVuSans-72" d="M 2631 2963 
Q 2534 3019 2420 3045 
Q 2306 3072 2169 3072 
Q 1681 3072 1420 2755 
Q 1159 2438 1159 1844 
L 1159 0 
L 581 0 
L 581 3500 
L 1159 3500 
L 1159 2956 
Q 1341 3275 1631 3429 
Q 1922 3584 2338 3584 
Q 2397 3584 2469 3576 
Q 2541 3569 2628 3553 
L 2631 2963 
z
" transform="scale(0.015625)"/>
       <path id="DejaVuSans-6f" d="M 1959 3097 
Q 1497 3097 1228 2736 
Q 959 2375 959 1747 
Q 959 1119 1226 758 
Q 1494 397 1959 397 
Q 2419 397 2687 759 
Q 2956 1122 2956 1747 
Q 2956 2369 2687 2733 
Q 2419 3097 1959 3097 
z
M 1959 3584 
Q 2709 3584 3137 3096 
Q 3566 2609 3566 1747 
Q 3566 888 3137 398 
Q 2709 -91 1959 -91 
Q 1206 -91 779 398 
Q 353 888 353 1747 
Q 353 2609 779 3096 
Q 1206 3584 1959 3584 
z
" transform="scale(0.015625)"/>
       <path id="DejaVuSans-66" d="M 2375 4863 
L 2375 4384 
L 1825 4384 
Q 1516 4384 1395 4259 
Q 1275 4134 1275 3809 
L 1275 3500 
L 2222 3500 
L 2222 3053 
L 1275 3053 
L 1275 0 
L 697 0 
L 697 3053 
L 147 3053 
L 147 3500 
L 697 3500 
L 697 3744 
Q 697 4328 969 4595 
Q 1241 4863 1831 4863 
L 2375 4863 
z
" transform="scale(0.015625)"/>
       <path id="DejaVuSans-53" d="M 3425 4513 
L 3425 3897 
Q 3066 4069 2747 4153 
Q 2428 4238 2131 4238 
Q 1616 4238 1336 4038 
Q 1056 3838 1056 3469 
Q 1056 3159 1242 3001 
Q 1428 2844 1947 2747 
L 2328 2669 
Q 3034 2534 3370 2195 
Q 3706 1856 3706 1288 
Q 3706 609 3251 259 
Q 2797 -91 1919 -91 
Q 1588 -91 1214 -16 
Q 841 59 441 206 
L 441 856 
Q 825 641 1194 531 
Q 1563 422 1919 422 
Q 2459 422 2753 634 
Q 3047 847 3047 1241 
Q 3047 1584 2836 1778 
Q 2625 1972 2144 2069 
L 1759 2144 
Q 1053 2284 737 2584 
Q 422 2884 422 3419 
Q 422 4038 858 4394 
Q 1294 4750 2059 4750 
Q 2388 4750 2728 4690 
Q 3069 4631 3425 4513 
z
" transform="scale(0.015625)"/>
       <path id="DejaVuSans-69" d="M 603 3500 
L 1178 3500 
L 1178 0 
L 603 0 
L 603 3500 
z
M 603 4863 
L 1178 4863 
L 1178 4134 
L 603 4134 
L 603 4863 
z
" transform="scale(0.015625)"/>
       <path id="DejaVuSans-74" d="M 1172 4494 
L 1172 3500 
L 2356 3500 
L 2356 3053 
L 1172 3053 
L 1172 1153 
Q 1172 725 1289 603 
Q 1406 481 1766 481 
L 2356 481 
L 2356 0 
L 1766 0 
Q 1100 0 847 248 
Q 594 497 594 1153 
L 594 3053 
L 172 3053 
L 172 3500 
L 594 3500 
L 594 4494 
L 1172 4494 
z
" transform="scale(0.015625)"/>
       <path id="DejaVuSans-73" d="M 2834 3397 
L 2834 2853 
Q 2591 2978 2328 3040 
Q 2066 3103 1784 3103 
Q 1356 3103 1142 2972 
Q 928 2841 928 2578 
Q 928 2378 1081 2264 
Q 1234 2150 1697 2047 
L 1894 2003 
Q 2506 1872 2764 1633 
Q 3022 1394 3022 966 
Q 3022 478 2636 193 
Q 2250 -91 1575 -91 
Q 1294 -91 989 -36 
Q 684 19 347 128 
L 347 722 
Q 666 556 975 473 
Q 1284 391 1588 391 
Q 1994 391 2212 530 
Q 2431 669 2431 922 
Q 2431 1156 2273 1281 
Q 2116 1406 1581 1522 
L 1381 1569 
Q 847 1681 609 1914 
Q 372 2147 372 2553 
Q 372 3047 722 3315 
Q 1072 3584 1716 3584 
Q 2034 3584 2315 3537 
Q 2597 3491 2834 3397 
z
" transform="scale(0.015625)"/>
      </defs>
      <use xlink:href="#DejaVuSans-4e"/>
      <use xlink:href="#DejaVuSans-75" x="74.804688"/>
      <use xlink:href="#DejaVuSans-6d" x="138.183594"/>
      <use xlink:href="#DejaVuSans-62" x="235.595703"/>
      <use xlink:href="#DejaVuSans-65" x="299.072266"/>
      <use xlink:href="#DejaVuSans-72" x="360.595703"/>
      <use xlink:href="#DejaVuSans-20" x="401.708984"/>
      <use xlink:href="#DejaVuSans-6f" x="433.496094"/>
      <use xlink:href="#DejaVuSans-66" x="494.677734"/>
      <use xlink:href="#DejaVuSans-20" x="529.882812"/>
      <use xlink:href="#DejaVuSans-53" x="561.669922"/>
      <use xlink:href="#DejaVuSans-69" x="625.146484"/>
      <use xlink:href="#DejaVuSans-74" x="652.929688"/>
      <use xlink:href="#DejaVuSans-65" x="692.138672"/>
      <use xlink:href="#DejaVuSans-73" x="753.662109"/>
     </g>
    </g>
   </g>
   <g id="patch_104">
    <path d="M 46.378652 105.568 
L 46.378652 105.312926 
L 48.873889 105.312926 
L 48.873889 105.568 
L 51.369125 105.568 
L 51.369125 105.057853 
L 53.864362 105.057853 
L 53.864362 103.527411 
L 56.359598 103.527411 
L 56.359598 102.762189 
L 58.854835 102.762189 
L 58.854835 101.741895 
L 61.350072 101.741895 
L 61.350072 95.8752 
L 66.340545 95.8752 
L 66.340545 90.518653 
L 68.835781 90.518653 
L 68.835781 88.988211 
L 71.331018 88.988211 
L 71.331018 80.060632 
L 73.826255 80.060632 
L 73.826255 78.275116 
L 76.321491 78.275116 
L 76.321491 77.509895 
L 78.816728 77.509895 
L 78.816728 72.153347 
L 81.311965 72.153347 
L 81.311965 69.602611 
L 83.807201 69.602611 
L 83.807201 62.460547 
L 86.302438 62.460547 
L 86.302438 68.327242 
L 88.797674 68.327242 
L 88.797674 71.133053 
L 91.292911 71.133053 
L 91.292911 75.724379 
L 93.788148 75.724379 
L 93.788148 75.214232 
L 96.283384 75.214232 
L 96.283384 82.611368 
L 98.778621 82.611368 
L 98.778621 80.825853 
L 101.273857 80.825853 
L 101.273857 86.1824 
L 103.769094 86.1824 
L 103.769094 85.927326 
L 106.264331 85.927326 
L 106.264331 96.640421 
L 108.759567 96.640421 
L 108.759567 95.620126 
L 111.254804 95.620126 
L 111.254804 99.191158 
L 113.75004 99.191158 
L 113.75004 99.701305 
L 116.245277 99.701305 
L 116.245277 101.231747 
L 118.740514 101.231747 
L 118.740514 98.170863 
L 121.23575 98.170863 
L 121.23575 96.640421 
L 123.730987 96.640421 
L 123.730987 90.008505 
L 126.226223 90.008505 
L 126.226223 81.591074 
L 128.72146 81.591074 
L 128.72146 74.449011 
L 131.216697 74.449011 
L 131.216697 64.246063 
L 133.711933 64.246063 
L 133.711933 57.614147 
L 136.20717 57.614147 
L 136.20717 47.666274 
L 138.702406 47.666274 
L 138.702406 56.083705 
L 141.197643 56.083705 
L 141.197643 50.982232 
L 143.69288 50.982232 
L 143.69288 62.460547 
L 146.188116 62.460547 
L 146.188116 67.051874 
L 148.683353 67.051874 
L 148.683353 70.877979 
L 151.17859 70.877979 
L 151.17859 82.101221 
L 153.673826 82.101221 
L 153.673826 88.733137 
L 156.169063 88.733137 
L 156.169063 95.620126 
L 158.664299 95.620126 
L 158.664299 98.425937 
L 161.159536 98.425937 
L 161.159536 99.446232 
L 163.654773 99.446232 
L 163.654773 104.292632 
L 168.645246 104.292632 
L 168.645246 104.802779 
L 171.140482 104.802779 
L 171.140482 105.568 
L 183.616665 105.568 
L 183.616665 105.312926 
L 188.607139 105.312926 
L 188.607139 103.272337 
L 191.102375 103.272337 
L 191.102375 96.385347 
L 193.597612 96.385347 
L 193.597612 93.579537 
L 196.092848 93.579537 
L 196.092848 75.214232 
L 198.588085 75.214232 
L 198.588085 60.419958 
L 201.083322 60.419958 
L 201.083322 47.4112 
L 203.578558 47.4112 
L 203.578558 36.443032 
L 206.073795 36.443032 
L 206.073795 23.689347 
L 208.569031 23.689347 
L 208.569031 41.034358 
L 211.064268 41.034358 
L 211.064268 55.063411 
L 213.559505 55.063411 
L 213.559505 78.275116 
L 216.054741 78.275116 
L 216.054741 82.356295 
L 218.549978 82.356295 
L 218.549978 89.498358 
L 221.045214 89.498358 
L 221.045214 98.170863 
L 223.540451 98.170863 
L 223.540451 102.252042 
L 226.035688 102.252042 
L 226.035688 104.547705 
L 228.530924 104.547705 
L 228.530924 105.312926 
L 231.026161 105.312926 
L 231.026161 104.292632 
L 233.521398 104.292632 
L 233.521398 103.782484 
L 236.016634 103.782484 
L 236.016634 99.191158 
L 238.511871 99.191158 
L 238.511871 95.109979 
L 241.007107 95.109979 
L 241.007107 80.315705 
L 243.502344 80.315705 
L 243.502344 69.857684 
L 245.8 69.857684 
L 245.8 69.857684 
" clip-path="url(#pc62ecf799b)" style="fill: none; stroke: #505050; stroke-linejoin: miter"/>
   </g>
   <g id="patch_105">
    <path d="M 46.378652 105.568 
L 48.873889 105.568 
L 48.873889 105.568 
L 46.378652 105.568 
z
" clip-path="url(#pc62ecf799b)" style="fill: #505050"/>
   </g>
   <g id="patch_106">
    <path d="M 48.873889 105.568 
L 51.369125 105.568 
L 51.369125 105.568 
L 48.873889 105.568 
z
" clip-path="url(#pc62ecf799b)" style="fill: #505050"/>
   </g>
   <g id="patch_107">
    <path d="M 51.369125 105.568 
L 53.864362 105.568 
L 53.864362 105.568 
L 51.369125 105.568 
z
" clip-path="url(#pc62ecf799b)" style="fill: #505050"/>
   </g>
   <g id="patch_108">
    <path d="M 53.864362 105.568 
L 56.359598 105.568 
L 56.359598 105.568 
L 53.864362 105.568 
z
" clip-path="url(#pc62ecf799b)" style="fill: #505050"/>
   </g>
   <g id="patch_109">
    <path d="M 56.359598 105.568 
L 58.854835 105.568 
L 58.854835 105.057853 
L 56.359598 105.057853 
z
" clip-path="url(#pc62ecf799b)" style="fill: #505050"/>
   </g>
   <g id="patch_110">
    <path d="M 58.854835 105.568 
L 61.350072 105.568 
L 61.350072 105.312926 
L 58.854835 105.312926 
z
" clip-path="url(#pc62ecf799b)" style="fill: #505050"/>
   </g>
   <g id="patch_111">
    <path d="M 61.350072 105.568 
L 63.845308 105.568 
L 63.845308 105.312926 
L 61.350072 105.312926 
z
" clip-path="url(#pc62ecf799b)" style="fill: #505050"/>
   </g>
   <g id="patch_112">
    <path d="M 63.845308 105.568 
L 66.340545 105.568 
L 66.340545 104.802779 
L 63.845308 104.802779 
z
" clip-path="url(#pc62ecf799b)" style="fill: #505050"/>
   </g>
   <g id="patch_113">
    <path d="M 66.340545 105.568 
L 68.835781 105.568 
L 68.835781 105.312926 
L 66.340545 105.312926 
z
" clip-path="url(#pc62ecf799b)" style="fill: #505050"/>
   </g>
   <g id="patch_114">
    <path d="M 68.835781 105.568 
L 71.331018 105.568 
L 71.331018 104.292632 
L 68.835781 104.292632 
z
" clip-path="url(#pc62ecf799b)" style="fill: #505050"/>
   </g>
   <g id="patch_115">
    <path d="M 71.331018 105.568 
L 73.826255 105.568 
L 73.826255 103.782484 
L 71.331018 103.782484 
z
" clip-path="url(#pc62ecf799b)" style="fill: #505050"/>
   </g>
   <g id="patch_116">
    <path d="M 73.826255 105.568 
L 76.321491 105.568 
L 76.321491 104.037558 
L 73.826255 104.037558 
z
" clip-path="url(#pc62ecf799b)" style="fill: #505050"/>
   </g>
   <g id="patch_117">
    <path d="M 76.321491 105.568 
L 78.816728 105.568 
L 78.816728 104.802779 
L 76.321491 104.802779 
z
" clip-path="url(#pc62ecf799b)" style="fill: #505050"/>
   </g>
   <g id="patch_118">
    <path d="M 78.816728 105.568 
L 81.311965 105.568 
L 81.311965 102.507116 
L 78.816728 102.507116 
z
" clip-path="url(#pc62ecf799b)" style="fill: #505050"/>
   </g>
   <g id="patch_119">
    <path d="M 81.311965 105.568 
L 83.807201 105.568 
L 83.807201 103.272337 
L 81.311965 103.272337 
z
" clip-path="url(#pc62ecf799b)" style="fill: #505050"/>
   </g>
   <g id="patch_120">
    <path d="M 83.807201 105.568 
L 86.302438 105.568 
L 86.302438 103.272337 
L 83.807201 103.272337 
z
" clip-path="url(#pc62ecf799b)" style="fill: #505050"/>
   </g>
   <g id="patch_121">
    <path d="M 86.302438 105.568 
L 88.797674 105.568 
L 88.797674 104.292632 
L 86.302438 104.292632 
z
" clip-path="url(#pc62ecf799b)" style="fill: #505050"/>
   </g>
   <g id="patch_122">
    <path d="M 88.797674 105.568 
L 91.292911 105.568 
L 91.292911 104.037558 
L 88.797674 104.037558 
z
" clip-path="url(#pc62ecf799b)" style="fill: #505050"/>
   </g>
   <g id="patch_123">
    <path d="M 91.292911 105.568 
L 93.788148 105.568 
L 93.788148 104.037558 
L 91.292911 104.037558 
z
" clip-path="url(#pc62ecf799b)" style="fill: #505050"/>
   </g>
   <g id="patch_124">
    <path d="M 93.788148 105.568 
L 96.283384 105.568 
L 96.283384 104.037558 
L 93.788148 104.037558 
z
" clip-path="url(#pc62ecf799b)" style="fill: #505050"/>
   </g>
   <g id="patch_125">
    <path d="M 96.283384 105.568 
L 98.778621 105.568 
L 98.778621 104.547705 
L 96.283384 104.547705 
z
" clip-path="url(#pc62ecf799b)" style="fill: #505050"/>
   </g>
   <g id="patch_126">
    <path d="M 98.778621 105.568 
L 101.273857 105.568 
L 101.273857 103.017263 
L 98.778621 103.017263 
z
" clip-path="url(#pc62ecf799b)" style="fill: #505050"/>
   </g>
   <g id="patch_127">
    <path d="M 101.273857 105.568 
L 103.769094 105.568 
L 103.769094 105.057853 
L 101.273857 105.057853 
z
" clip-path="url(#pc62ecf799b)" style="fill: #505050"/>
   </g>
   <g id="patch_128">
    <path d="M 103.769094 105.568 
L 106.264331 105.568 
L 106.264331 105.057853 
L 103.769094 105.057853 
z
" clip-path="url(#pc62ecf799b)" style="fill: #505050"/>
   </g>
   <g id="patch_129">
    <path d="M 106.264331 105.568 
L 108.759567 105.568 
L 108.759567 105.057853 
L 106.264331 105.057853 
z
" clip-path="url(#pc62ecf799b)" style="fill: #505050"/>
   </g>
   <g id="patch_130">
    <path d="M 108.759567 105.568 
L 111.254804 105.568 
L 111.254804 105.057853 
L 108.759567 105.057853 
z
" clip-path="url(#pc62ecf799b)" style="fill: #505050"/>
   </g>
   <g id="patch_131">
    <path d="M 111.254804 105.568 
L 113.75004 105.568 
L 113.75004 105.568 
L 111.254804 105.568 
z
" clip-path="url(#pc62ecf799b)" style="fill: #505050"/>
   </g>
   <g id="patch_132">
    <path d="M 113.75004 105.568 
L 116.245277 105.568 
L 116.245277 105.568 
L 113.75004 105.568 
z
" clip-path="url(#pc62ecf799b)" style="fill: #505050"/>
   </g>
   <g id="patch_133">
    <path d="M 116.245277 105.568 
L 118.740514 105.568 
L 118.740514 104.802779 
L 116.245277 104.802779 
z
" clip-path="url(#pc62ecf799b)" style="fill: #505050"/>
   </g>
   <g id="patch_134">
    <path d="M 118.740514 105.568 
L 121.23575 105.568 
L 121.23575 103.782484 
L 118.740514 103.782484 
z
" clip-path="url(#pc62ecf799b)" style="fill: #505050"/>
   </g>
   <g id="patch_135">
    <path d="M 121.23575 105.568 
L 123.730987 105.568 
L 123.730987 104.802779 
L 121.23575 104.802779 
z
" clip-path="url(#pc62ecf799b)" style="fill: #505050"/>
   </g>
   <g id="patch_136">
    <path d="M 123.730987 105.568 
L 126.226223 105.568 
L 126.226223 103.272337 
L 123.730987 103.272337 
z
" clip-path="url(#pc62ecf799b)" style="fill: #505050"/>
   </g>
   <g id="patch_137">
    <path d="M 126.226223 105.568 
L 128.72146 105.568 
L 128.72146 101.486821 
L 126.226223 101.486821 
z
" clip-path="url(#pc62ecf799b)" style="fill: #505050"/>
   </g>
   <g id="patch_138">
    <path d="M 128.72146 105.568 
L 131.216697 105.568 
L 131.216697 100.7216 
L 128.72146 100.7216 
z
" clip-path="url(#pc62ecf799b)" style="fill: #505050"/>
   </g>
   <g id="patch_139">
    <path d="M 131.216697 105.568 
L 133.711933 105.568 
L 133.711933 99.956379 
L 131.216697 99.956379 
z
" clip-path="url(#pc62ecf799b)" style="fill: #505050"/>
   </g>
   <g id="patch_140">
    <path d="M 133.711933 105.568 
L 136.20717 105.568 
L 136.20717 99.956379 
L 133.711933 99.956379 
z
" clip-path="url(#pc62ecf799b)" style="fill: #505050"/>
   </g>
   <g id="patch_141">
    <path d="M 136.20717 105.568 
L 138.702406 105.568 
L 138.702406 95.109979 
L 136.20717 95.109979 
z
" clip-path="url(#pc62ecf799b)" style="fill: #505050"/>
   </g>
   <g id="patch_142">
    <path d="M 138.702406 105.568 
L 141.197643 105.568 
L 141.197643 102.507116 
L 138.702406 102.507116 
z
" clip-path="url(#pc62ecf799b)" style="fill: #505050"/>
   </g>
   <g id="patch_143">
    <path d="M 141.197643 105.568 
L 143.69288 105.568 
L 143.69288 101.231747 
L 141.197643 101.231747 
z
" clip-path="url(#pc62ecf799b)" style="fill: #505050"/>
   </g>
   <g id="patch_144">
    <path d="M 143.69288 105.568 
L 146.188116 105.568 
L 146.188116 101.486821 
L 143.69288 101.486821 
z
" clip-path="url(#pc62ecf799b)" style="fill: #505050"/>
   </g>
   <g id="patch_145">
    <path d="M 146.188116 105.568 
L 148.683353 105.568 
L 148.683353 102.762189 
L 146.188116 102.762189 
z
" clip-path="url(#pc62ecf799b)" style="fill: #505050"/>
   </g>
   <g id="patch_146">
    <path d="M 148.683353 105.568 
L 151.17859 105.568 
L 151.17859 103.272337 
L 148.683353 103.272337 
z
" clip-path="url(#pc62ecf799b)" style="fill: #505050"/>
   </g>
   <g id="patch_147">
    <path d="M 151.17859 105.568 
L 153.673826 105.568 
L 153.673826 102.762189 
L 151.17859 102.762189 
z
" clip-path="url(#pc62ecf799b)" style="fill: #505050"/>
   </g>
   <g id="patch_148">
    <path d="M 153.673826 105.568 
L 156.169063 105.568 
L 156.169063 104.547705 
L 153.673826 104.547705 
z
" clip-path="url(#pc62ecf799b)" style="fill: #505050"/>
   </g>
   <g id="patch_149">
    <path d="M 156.169063 105.568 
L 158.664299 105.568 
L 158.664299 105.312926 
L 156.169063 105.312926 
z
" clip-path="url(#pc62ecf799b)" style="fill: #505050"/>
   </g>
   <g id="patch_150">
    <path d="M 158.664299 105.568 
L 161.159536 105.568 
L 161.159536 104.802779 
L 158.664299 104.802779 
z
" clip-path="url(#pc62ecf799b)" style="fill: #505050"/>
   </g>
   <g id="patch_151">
    <path d="M 161.159536 105.568 
L 163.654773 105.568 
L 163.654773 105.312926 
L 161.159536 105.312926 
z
" clip-path="url(#pc62ecf799b)" style="fill: #505050"/>
   </g>
   <g id="patch_152">
    <path d="M 163.654773 105.568 
L 166.150009 105.568 
L 166.150009 105.568 
L 163.654773 105.568 
z
" clip-path="url(#pc62ecf799b)" style="fill: #505050"/>
   </g>
   <g id="patch_153">
    <path d="M 166.150009 105.568 
L 168.645246 105.568 
L 168.645246 105.568 
L 166.150009 105.568 
z
" clip-path="url(#pc62ecf799b)" style="fill: #505050"/>
   </g>
   <g id="patch_154">
    <path d="M 168.645246 105.568 
L 171.140482 105.568 
L 171.140482 105.568 
L 168.645246 105.568 
z
" clip-path="url(#pc62ecf799b)" style="fill: #505050"/>
   </g>
   <g id="patch_155">
    <path d="M 171.140482 105.568 
L 173.635719 105.568 
L 173.635719 105.568 
L 171.140482 105.568 
z
" clip-path="url(#pc62ecf799b)" style="fill: #505050"/>
   </g>
   <g id="patch_156">
    <path d="M 173.635719 105.568 
L 176.130956 105.568 
L 176.130956 105.568 
L 173.635719 105.568 
z
" clip-path="url(#pc62ecf799b)" style="fill: #505050"/>
   </g>
   <g id="patch_157">
    <path d="M 176.130956 105.568 
L 178.626192 105.568 
L 178.626192 105.568 
L 176.130956 105.568 
z
" clip-path="url(#pc62ecf799b)" style="fill: #505050"/>
   </g>
   <g id="patch_158">
    <path d="M 178.626192 105.568 
L 181.121429 105.568 
L 181.121429 105.568 
L 178.626192 105.568 
z
" clip-path="url(#pc62ecf799b)" style="fill: #505050"/>
   </g>
   <g id="patch_159">
    <path d="M 181.121429 105.568 
L 183.616665 105.568 
L 183.616665 105.568 
L 181.121429 105.568 
z
" clip-path="url(#pc62ecf799b)" style="fill: #505050"/>
   </g>
   <g id="patch_160">
    <path d="M 183.616665 105.568 
L 186.111902 105.568 
L 186.111902 105.568 
L 183.616665 105.568 
z
" clip-path="url(#pc62ecf799b)" style="fill: #505050"/>
   </g>
   <g id="patch_161">
    <path d="M 186.111902 105.568 
L 188.607139 105.568 
L 188.607139 105.568 
L 186.111902 105.568 
z
" clip-path="url(#pc62ecf799b)" style="fill: #505050"/>
   </g>
   <g id="patch_162">
    <path d="M 188.607139 105.568 
L 191.102375 105.568 
L 191.102375 105.057853 
L 188.607139 105.057853 
z
" clip-path="url(#pc62ecf799b)" style="fill: #505050"/>
   </g>
   <g id="patch_163">
    <path d="M 191.102375 105.568 
L 193.597612 105.568 
L 193.597612 105.057853 
L 191.102375 105.057853 
z
" clip-path="url(#pc62ecf799b)" style="fill: #505050"/>
   </g>
   <g id="patch_164">
    <path d="M 193.597612 105.568 
L 196.092848 105.568 
L 196.092848 105.312926 
L 193.597612 105.312926 
z
" clip-path="url(#pc62ecf799b)" style="fill: #505050"/>
   </g>
   <g id="patch_165">
    <path d="M 196.092848 105.568 
L 198.588085 105.568 
L 198.588085 103.782484 
L 196.092848 103.782484 
z
" clip-path="url(#pc62ecf799b)" style="fill: #505050"/>
   </g>
   <g id="patch_166">
    <path d="M 198.588085 105.568 
L 201.083322 105.568 
L 201.083322 104.547705 
L 198.588085 104.547705 
z
" clip-path="url(#pc62ecf799b)" style="fill: #505050"/>
   </g>
   <g id="patch_167">
    <path d="M 201.083322 105.568 
L 203.578558 105.568 
L 203.578558 103.782484 
L 201.083322 103.782484 
z
" clip-path="url(#pc62ecf799b)" style="fill: #505050"/>
   </g>
   <g id="patch_168">
    <path d="M 203.578558 105.568 
L 206.073795 105.568 
L 206.073795 103.017263 
L 203.578558 103.017263 
z
" clip-path="url(#pc62ecf799b)" style="fill: #505050"/>
   </g>
   <g id="patch_169">
    <path d="M 206.073795 105.568 
L 208.569031 105.568 
L 208.569031 102.762189 
L 206.073795 102.762189 
z
" clip-path="url(#pc62ecf799b)" style="fill: #505050"/>
   </g>
   <g id="patch_170">
    <path d="M 208.569031 105.568 
L 211.064268 105.568 
L 211.064268 103.527411 
L 208.569031 103.527411 
z
" clip-path="url(#pc62ecf799b)" style="fill: #505050"/>
   </g>
   <g id="patch_171">
    <path d="M 211.064268 105.568 
L 213.559505 105.568 
L 213.559505 104.292632 
L 211.064268 104.292632 
z
" clip-path="url(#pc62ecf799b)" style="fill: #505050"/>
   </g>
   <g id="patch_172">
    <path d="M 213.559505 105.568 
L 216.054741 105.568 
L 216.054741 104.547705 
L 213.559505 104.547705 
z
" clip-path="url(#pc62ecf799b)" style="fill: #505050"/>
   </g>
   <g id="patch_173">
    <path d="M 216.054741 105.568 
L 218.549978 105.568 
L 218.549978 105.057853 
L 216.054741 105.057853 
z
" clip-path="url(#pc62ecf799b)" style="fill: #505050"/>
   </g>
   <g id="patch_174">
    <path d="M 218.549978 105.568 
L 221.045214 105.568 
L 221.045214 105.568 
L 218.549978 105.568 
z
" clip-path="url(#pc62ecf799b)" style="fill: #505050"/>
   </g>
   <g id="patch_175">
    <path d="M 221.045214 105.568 
L 223.540451 105.568 
L 223.540451 105.568 
L 221.045214 105.568 
z
" clip-path="url(#pc62ecf799b)" style="fill: #505050"/>
   </g>
   <g id="patch_176">
    <path d="M 223.540451 105.568 
L 226.035688 105.568 
L 226.035688 105.568 
L 223.540451 105.568 
z
" clip-path="url(#pc62ecf799b)" style="fill: #505050"/>
   </g>
   <g id="patch_177">
    <path d="M 226.035688 105.568 
L 228.530924 105.568 
L 228.530924 105.568 
L 226.035688 105.568 
z
" clip-path="url(#pc62ecf799b)" style="fill: #505050"/>
   </g>
   <g id="patch_178">
    <path d="M 228.530924 105.568 
L 231.026161 105.568 
L 231.026161 105.568 
L 228.530924 105.568 
z
" clip-path="url(#pc62ecf799b)" style="fill: #505050"/>
   </g>
   <g id="patch_179">
    <path d="M 231.026161 105.568 
L 233.521398 105.568 
L 233.521398 105.568 
L 231.026161 105.568 
z
" clip-path="url(#pc62ecf799b)" style="fill: #505050"/>
   </g>
   <g id="patch_180">
    <path d="M 233.521398 105.568 
L 236.016634 105.568 
L 236.016634 105.568 
L 233.521398 105.568 
z
" clip-path="url(#pc62ecf799b)" style="fill: #505050"/>
   </g>
   <g id="patch_181">
    <path d="M 236.016634 105.568 
L 238.511871 105.568 
L 238.511871 105.568 
L 236.016634 105.568 
z
" clip-path="url(#pc62ecf799b)" style="fill: #505050"/>
   </g>
   <g id="patch_182">
    <path d="M 238.511871 105.568 
L 241.007107 105.568 
L 241.007107 105.568 
L 238.511871 105.568 
z
" clip-path="url(#pc62ecf799b)" style="fill: #505050"/>
   </g>
   <g id="patch_183">
    <path d="M 241.007107 105.568 
L 243.502344 105.568 
L 243.502344 105.568 
L 241.007107 105.568 
z
" clip-path="url(#pc62ecf799b)" style="fill: #505050"/>
   </g>
   <g id="patch_184">
    <path d="M 243.502344 105.568 
L 245.997581 105.568 
L 245.997581 105.568 
L 243.502344 105.568 
z
" clip-path="url(#pc62ecf799b)" style="fill: #505050"/>
   </g>
   <g id="patch_185">
    <path d="M 245.997581 105.568 
L 248.492817 105.568 
L 248.492817 105.568 
L 245.997581 105.568 
z
" clip-path="url(#pc62ecf799b)" style="fill: #505050"/>
   </g>
   <g id="patch_186">
    <path d="M 248.492817 105.568 
L 250.988054 105.568 
L 250.988054 105.568 
L 248.492817 105.568 
z
" clip-path="url(#pc62ecf799b)" style="fill: #505050"/>
   </g>
   <g id="patch_187">
    <path d="M 250.988054 105.568 
L 253.48329 105.568 
L 253.48329 105.568 
L 250.988054 105.568 
z
" clip-path="url(#pc62ecf799b)" style="fill: #505050"/>
   </g>
   <g id="patch_188">
    <path d="M 253.48329 105.568 
L 255.978527 105.568 
L 255.978527 105.568 
L 253.48329 105.568 
z
" clip-path="url(#pc62ecf799b)" style="fill: #505050"/>
   </g>
   <g id="patch_189">
    <path d="M 255.978527 105.568 
L 258.473764 105.568 
L 258.473764 105.568 
L 255.978527 105.568 
z
" clip-path="url(#pc62ecf799b)" style="fill: #505050"/>
   </g>
   <g id="patch_190">
    <path d="M 258.473764 105.568 
L 260.969 105.568 
L 260.969 105.568 
L 258.473764 105.568 
z
" clip-path="url(#pc62ecf799b)" style="fill: #505050"/>
   </g>
   <g id="patch_191">
    <path d="M 260.969 105.568 
L 263.464237 105.568 
L 263.464237 105.568 
L 260.969 105.568 
z
" clip-path="url(#pc62ecf799b)" style="fill: #505050"/>
   </g>
   <g id="patch_192">
    <path d="M 263.464237 105.568 
L 265.959473 105.568 
L 265.959473 105.568 
L 263.464237 105.568 
z
" clip-path="url(#pc62ecf799b)" style="fill: #505050"/>
   </g>
   <g id="patch_193">
    <path d="M 265.959473 105.568 
L 268.45471 105.568 
L 268.45471 105.568 
L 265.959473 105.568 
z
" clip-path="url(#pc62ecf799b)" style="fill: #505050"/>
   </g>
   <g id="patch_194">
    <path d="M 268.45471 105.568 
L 270.949947 105.568 
L 270.949947 105.568 
L 268.45471 105.568 
z
" clip-path="url(#pc62ecf799b)" style="fill: #505050"/>
   </g>
   <g id="patch_195">
    <path d="M 270.949947 105.568 
L 273.445183 105.568 
L 273.445183 105.568 
L 270.949947 105.568 
z
" clip-path="url(#pc62ecf799b)" style="fill: #505050"/>
   </g>
   <g id="patch_196">
    <path d="M 273.445183 105.568 
L 275.94042 105.568 
L 275.94042 105.568 
L 273.445183 105.568 
z
" clip-path="url(#pc62ecf799b)" style="fill: #505050"/>
   </g>
   <g id="patch_197">
    <path d="M 275.94042 105.568 
L 278.435656 105.568 
L 278.435656 105.568 
L 275.94042 105.568 
z
" clip-path="url(#pc62ecf799b)" style="fill: #505050"/>
   </g>
   <g id="patch_198">
    <path d="M 278.435656 105.568 
L 280.930893 105.568 
L 280.930893 105.568 
L 278.435656 105.568 
z
" clip-path="url(#pc62ecf799b)" style="fill: #505050"/>
   </g>
   <g id="patch_199">
    <path d="M 280.930893 105.568 
L 283.42613 105.568 
L 283.42613 105.568 
L 280.930893 105.568 
z
" clip-path="url(#pc62ecf799b)" style="fill: #505050"/>
   </g>
   <g id="patch_200">
    <path d="M 283.42613 105.568 
L 285.921366 105.568 
L 285.921366 105.568 
L 283.42613 105.568 
z
" clip-path="url(#pc62ecf799b)" style="fill: #505050"/>
   </g>
   <g id="patch_201">
    <path d="M 285.921366 105.568 
L 288.416603 105.568 
L 288.416603 105.568 
L 285.921366 105.568 
z
" clip-path="url(#pc62ecf799b)" style="fill: #505050"/>
   </g>
   <g id="patch_202">
    <path d="M 288.416603 105.568 
L 290.911839 105.568 
L 290.911839 105.568 
L 288.416603 105.568 
z
" clip-path="url(#pc62ecf799b)" style="fill: #505050"/>
   </g>
   <g id="patch_203">
    <path d="M 290.911839 105.568 
L 293.407076 105.568 
L 293.407076 105.568 
L 290.911839 105.568 
z
" clip-path="url(#pc62ecf799b)" style="fill: #505050"/>
   </g>
   <g id="patch_204">
    <path d="M 293.407076 105.568 
L 295.902313 105.568 
L 295.902313 105.568 
L 293.407076 105.568 
z
" clip-path="url(#pc62ecf799b)" style="fill: #505050"/>
   </g>
   <g id="patch_205">
    <path d="M 44.39 105.568 
L 44.39 8.64 
" style="fill: none; stroke: #000000; stroke-width: 0.8; stroke-linejoin: miter; stroke-linecap: square"/>
   </g>
   <g id="patch_206">
    <path d="M 236.16 105.568 
L 236.16 8.64 
" style="fill: none; stroke: #000000; stroke-width: 0.8; stroke-linejoin: miter; stroke-linecap: square"/>
   </g>
   <g id="patch_207">
    <path d="M 44.39 105.568 
L 236.16 105.568 
" style="fill: none; stroke: #000000; stroke-width: 0.8; stroke-linejoin: miter; stroke-linecap: square"/>
   </g>
   <g id="patch_208">
    <path d="M 44.39 8.64 
L 236.16 8.64 
" style="fill: none; stroke: #000000; stroke-width: 0.8; stroke-linejoin: miter; stroke-linecap: square"/>
   </g>
   <g id="legend_1">
    <g id="patch_209">
     <path d="M 49.99 38.525 
L 91.8725 38.525 
Q 93.4725 38.525 93.4725 36.925 
L 93.4725 14.24 
Q 93.4725 12.64 91.8725 12.64 
L 49.99 12.64 
Q 48.39 12.64 48.39 14.24 
L 48.39 36.925 
Q 48.39 38.525 49.99 38.525 
z
" style="fill: #ffffff; opacity: 0.8; stroke: #cccccc; stroke-linejoin: miter"/>
    </g>
    <g id="patch_210">
     <path d="M 51.59 21.91875 
L 67.59 21.91875 
L 67.59 16.31875 
L 51.59 16.31875 
z
" style="fill: #505050"/>
    </g>
    <g id="text_11">
     <!-- *CO -->
     <g transform="translate(73.99 21.91875) scale(0.08 -0.08)">
      <defs>
       <path id="DejaVuSans-2a" d="M 3009 3897 
L 1888 3291 
L 3009 2681 
L 2828 2375 
L 1778 3009 
L 1778 1831 
L 1422 1831 
L 1422 3009 
L 372 2375 
L 191 2681 
L 1313 3291 
L 191 3897 
L 372 4206 
L 1422 3572 
L 1422 4750 
L 1778 4750 
L 1778 3572 
L 2828 4206 
L 3009 3897 
z
" transform="scale(0.015625)"/>
       <path id="DejaVuSans-43" d="M 4122 4306 
L 4122 3641 
Q 3803 3938 3442 4084 
Q 3081 4231 2675 4231 
Q 1875 4231 1450 3742 
Q 1025 3253 1025 2328 
Q 1025 1406 1450 917 
Q 1875 428 2675 428 
Q 3081 428 3442 575 
Q 3803 722 4122 1019 
L 4122 359 
Q 3791 134 3420 21 
Q 3050 -91 2638 -91 
Q 1578 -91 968 557 
Q 359 1206 359 2328 
Q 359 3453 968 4101 
Q 1578 4750 2638 4750 
Q 3056 4750 3426 4639 
Q 3797 4528 4122 4306 
z
" transform="scale(0.015625)"/>
       <path id="DejaVuSans-4f" d="M 2522 4238 
Q 1834 4238 1429 3725 
Q 1025 3213 1025 2328 
Q 1025 1447 1429 934 
Q 1834 422 2522 422 
Q 3209 422 3611 934 
Q 4013 1447 4013 2328 
Q 4013 3213 3611 3725 
Q 3209 4238 2522 4238 
z
M 2522 4750 
Q 3503 4750 4090 4092 
Q 4678 3434 4678 2328 
Q 4678 1225 4090 567 
Q 3503 -91 2522 -91 
Q 1538 -91 948 565 
Q 359 1222 359 2328 
Q 359 3434 948 4092 
Q 1538 4750 2522 4750 
z
" transform="scale(0.015625)"/>
      </defs>
      <use xlink:href="#DejaVuSans-2a"/>
      <use xlink:href="#DejaVuSans-43" x="50"/>
      <use xlink:href="#DejaVuSans-4f" x="119.824219"/>
     </g>
    </g>
    <g id="patch_211">
     <path d="M 51.59 33.66125 
L 67.59 33.66125 
L 67.59 28.06125 
L 51.59 28.06125 
z
" style="fill: #3050f8; opacity: 0.6"/>
    </g>
    <g id="text_12">
     <!-- *NO -->
     <g transform="translate(73.99 33.66125) scale(0.08 -0.08)">
      <use xlink:href="#DejaVuSans-2a"/>
      <use xlink:href="#DejaVuSans-4e" x="50"/>
      <use xlink:href="#DejaVuSans-4f" x="124.804688"/>
     </g>
    </g>
   </g>
  </g>
 </g>
 <defs>
  <clipPath id="pc62ecf799b">
   <rect x="44.39" y="8.64" width="191.77" height="96.928"/>
  </clipPath>
 </defs>
</svg>
